<?xml version="1.0" encoding="UTF-8" standalone="no"?>
<!-- Created with Inkscape (http://www.inkscape.org/) -->

<svg
   xmlns:dc="http://purl.org/dc/elements/1.1/"
   xmlns:cc="http://creativecommons.org/ns#"
   xmlns:rdf="http://www.w3.org/1999/02/22-rdf-syntax-ns#"
   xmlns:svg="http://www.w3.org/2000/svg"
   xmlns="http://www.w3.org/2000/svg"
   xmlns:sodipodi="http://sodipodi.sourceforge.net/DTD/sodipodi-0.dtd"
   xmlns:inkscape="http://www.inkscape.org/namespaces/inkscape"
   width="15.29859mm"
   height="52.916668mm"
   viewBox="0 0 15.29859 52.916668"
   version="1.1"
   id="svg5153"
   inkscape:version="0.92.3 (2405546, 2018-03-11)"
   sodipodi:docname="1.svg">
  <defs
     id="defs5147" />
  <sodipodi:namedview
     id="base"
     pagecolor="#ffffff"
     bordercolor="#666666"
     borderopacity="1.0"
     inkscape:pageopacity="0.0"
     inkscape:pageshadow="2"
     inkscape:zoom="0.35"
     inkscape:cx="-369.87973"
     inkscape:cy="217.97177"
     inkscape:document-units="mm"
     inkscape:current-layer="layer1"
     showgrid="false"
     fit-margin-top="0"
     fit-margin-left="0"
     fit-margin-right="0"
     fit-margin-bottom="0"
     inkscape:window-width="1680"
     inkscape:window-height="987"
     inkscape:window-x="1672"
     inkscape:window-y="-8"
     inkscape:window-maximized="1" />
  <metadata
     id="metadata5150">
    <rdf:RDF>
      <cc:Work
         rdf:about="">
        <dc:format>image/svg+xml</dc:format>
        <dc:type
           rdf:resource="http://purl.org/dc/dcmitype/StillImage" />
        <dc:title></dc:title>
      </cc:Work>
    </rdf:RDF>
  </metadata>
  <g
     inkscape:label="Layer 1"
     inkscape:groupmode="layer"
     id="layer1"
     transform="translate(-77.831274,-153.58836)">
    <g
       transform="matrix(0.10803402,0,0,-0.10803402,-3.8255917,212.1228)"
       id="g5051">
      <path
         id="path960"
         style="fill:#d9b754;fill-opacity:1;fill-rule:evenodd;stroke:none;stroke-width:0.1"
         d="m 825.016,541.813 c -15.332,0.227 -42.765,-20.311 -26.956,-45.065 11.229,-17.582 1.08,-33.146 -10.18,-31.121 11.008,-10.57 42.315,-14.873 52.899,-1.458 10.584,13.416 33.165,76.919 -15.763,77.644"
         inkscape:connector-curvature="0" />
      <path
         id="path962"
         style="fill:#db9d98;fill-opacity:1;fill-rule:evenodd;stroke:none;stroke-width:0.1"
         d="m 826.63,298.173 c 15.411,0 34.891,19.771 35.473,30.238 0.581,10.468 -4.361,20.354 -10.177,35.473 -5.815,15.119 2.819,37.283 9.797,58.507 10.766,32.752 -79.949,29.075 -70.274,-0.355 2.909,-8.851 7.54,-14.362 9.876,-22.888 3.264,-11.92 3.399,-26.45 0.009,-35.264 -5.815,-15.119 -10.757,-25.005 -10.176,-35.473 0.581,-10.467 20.062,-30.238 35.472,-30.238"
         inkscape:connector-curvature="0" />
      <path
         id="path964"
         style="fill:#f3c3bc;fill-opacity:1;fill-rule:evenodd;stroke:none;stroke-width:0.1"
         d="M 852.465,208.437 C 850.326,178.9 851.605,89.6801 842.594,99.8602 833.076,110.61 830.029,170.3 829.582,186 c -1.425,49.974 29.073,107.98 22.883,22.437"
         inkscape:connector-curvature="0" />
      <path
         id="path966"
         style="fill:#f3c3bc;fill-opacity:1;fill-rule:evenodd;stroke:none;stroke-width:0.1"
         d="M 800.435,208.437 C 802.572,178.9 801.294,89.6801 810.305,99.8602 819.823,110.61 822.87,170.3 823.317,186 c 1.425,49.974 -29.073,107.98 -22.882,22.437"
         inkscape:connector-curvature="0" />
      <path
         id="path968"
         style="fill:#447186;fill-opacity:1;fill-rule:evenodd;stroke:none;stroke-width:0.1"
         d="m 826.649,52 c 38.998,0 70.804,10.85 70.804,24.15 0,13.3102 -31.806,24.16 -70.804,24.16 -38.998,0 -70.805,-10.8498 -70.805,-24.16 0,-13.3 31.807,-24.15 70.805,-24.15"
         inkscape:connector-curvature="0" />
      <path
         id="path970"
         style="fill:#78d2db;fill-opacity:1;fill-rule:evenodd;stroke:none;stroke-width:0.1"
         d="m 851.727,432.88 c -12.793,-3.228 -2.661,-22.629 2.482,-35.167 5.008,-12.208 16.149,-37.22 22.258,-34.969 6.109,2.251 -0.597,27.678 -3.612,41.077 -2.345,10.426 -6.582,30.35 -16.779,35.683 -2.094,1.095 -2.032,-6.039 -4.349,-6.624"
         inkscape:connector-curvature="0" />
      <path
         id="path972"
         style="fill:#394f82;fill-opacity:1;fill-rule:evenodd;stroke:none;stroke-width:0.1"
         d="m 863.39,297.741 c -3.742,-37.479 -9.623,-91.995 -21.382,-91.995 -11.76,0 -17.124,72.627 -15.52,99.203 4.898,81.156 43.303,56.918 36.902,-7.208"
         inkscape:connector-curvature="0" />
      <path
         id="path974"
         style="fill:#394f82;fill-opacity:1;fill-rule:evenodd;stroke:none;stroke-width:0.1"
         d="m 789.509,297.741 c 3.741,-37.479 9.623,-91.995 21.382,-91.995 11.76,0 16.713,75.503 15.11,102.079 -4.899,81.156 -42.893,54.042 -36.492,-10.084"
         inkscape:connector-curvature="0" />
      <path
         id="path976"
         style="fill:#394f82;fill-opacity:1;fill-rule:evenodd;stroke:none;stroke-width:0.1"
         d="m 826.669,298.173 c 15.41,0 34.891,19.771 35.472,30.238 0.307,5.534 -0.93,10.906 -3.023,16.974 h -64.899 c -2.093,-6.068 -3.33,-11.44 -3.023,-16.974 0.581,-10.467 20.062,-30.238 35.473,-30.238"
         inkscape:connector-curvature="0" />
      <path
         id="path978"
         style="fill:none;stroke:#313a65;stroke-width:2.40009999;stroke-linecap:butt;stroke-linejoin:miter;stroke-miterlimit:22.92560005;stroke-dasharray:none;stroke-opacity:1"
         d="m 829.624,336.927 c 0.299,-5.118 1.793,-30.241 -1.196,-30.707 -2.989,-0.465 -7.174,-0.465 -7.174,-0.465"
         inkscape:connector-curvature="0" />
      <path
         id="path980"
         style="fill:#78d2db;fill-opacity:1;fill-rule:evenodd;stroke:none;stroke-width:0.1"
         d="m 802.96,434.359 c 13.018,-2.141 3.041,-24.419 -1.029,-37.344 -3.963,-12.584 -9.392,-30.664 -15.668,-28.935 -6.277,1.73 -5.057,20.587 -3.181,34.191 1.549,11.232 4.428,32.77 16.65,37.047 1.564,0.548 1.488,-4.673 3.228,-4.959"
         inkscape:connector-curvature="0" />
      <path
         id="path982"
         style="fill:#78d2db;fill-opacity:1;fill-rule:evenodd;stroke:none;stroke-width:0.1"
         d="m 864.802,333.935 c -0.958,8.673 -6.369,19.935 -10.496,30.663 -4.126,10.728 -2.965,21.928 -0.146,33.767 1.54,17.506 1.784,25.119 1.651,41.375 -10.899,-5.488 -45.479,-5.72 -56.173,-0.25 -1.316,-17.9 -1.141,-26.289 2.488,-45.441 2.437,-10.225 0.496,-21.389 -2.696,-29.689 -3.192,-8.3 -8.201,-20.491 -10.072,-26.944 20.302,-17.921 51.645,-16.817 75.444,-3.481"
         inkscape:connector-curvature="0" />
      <path
         id="path984"
         style="fill:#e93a3e;fill-opacity:1;fill-rule:evenodd;stroke:none;stroke-width:0.1"
         d="m 809.486,351.468 v 62.197 h 42.973 l 3.156,-3.729 -4.147,-57.297 -41.982,-1.171"
         inkscape:connector-curvature="0" />
      <path
         id="path986"
         style="fill:#ffffff;fill-opacity:1;fill-rule:evenodd;stroke:none;stroke-width:0.1"
         d="m 811.307,352.654 2.86,-4.105 39.214,0.712 0.427,59.32 -3.144,3.82 h -39.357 v -59.747"
         inkscape:connector-curvature="0" />
      <path
         id="path988"
         style="fill:#e93a3e;fill-opacity:1;fill-rule:evenodd;stroke:none;stroke-width:0.1"
         d="m 812.642,347.739 v 62.197 h 42.973 v -62.197 h -42.973"
         inkscape:connector-curvature="0" />
      <path
         id="path990"
         style="fill:#e9b1ab;fill-opacity:1;fill-rule:evenodd;stroke:none;stroke-width:0.1"
         d="m 875.299,366.112 c -0.187,6.128 -11.999,9.08 -21.486,6.717 -9.419,-2.346 -34.488,-5.806 -34.436,-10.457 0.071,-6.351 24.34,-4.595 35.26,-5.027 10.061,-0.398 20.848,2.695 20.662,8.767"
         inkscape:connector-curvature="0" />
      <path
         id="path992"
         style="fill:#db9d98;fill-opacity:1;fill-rule:evenodd;stroke:none;stroke-width:0.1"
         d="M 834.415,475.396 H 819.07 c -0.033,0 -0.059,-0.027 -0.059,-0.06 v -29.125 c 0,-4.236 3.466,-7.701 7.702,-7.701 v 0 c 4.236,0 7.702,3.465 7.702,7.701 v 29.185"
         inkscape:connector-curvature="0" />
      <path
         id="path994"
         style="fill:#c37876;fill-opacity:1;fill-rule:evenodd;stroke:none;stroke-width:0.1"
         d="m 856.316,514.413 c 0.532,-8.96 2.98,-18.668 3.799,-23.468 0.819,-4.8 -17.209,-8.195 -17.209,-8.195 0,0 -2.628,35.292 13.41,31.663"
         inkscape:connector-curvature="0" />
      <path
         id="path996"
         style="fill:#f3c3bc;fill-opacity:1;fill-rule:evenodd;stroke:none;stroke-width:0.1"
         d="m 826.303,536.059 c -29.987,0 -31.967,-35.163 -25.853,-58.746 3.098,-11.947 16.812,-22.435 25.853,-22.435 9.297,0 22.92,11.54 26.65,24.393 6.73,23.188 2.731,56.788 -26.65,56.788"
         inkscape:connector-curvature="0" />
      <path
         id="path998"
         style="fill:#46454e;fill-opacity:1;fill-rule:evenodd;stroke:none;stroke-width:0.1"
         d="m 837.9,491.593 c 1.182,0 2.145,2.409 2.145,5.363 0,2.954 -0.963,5.363 -2.145,5.363 -1.182,0 -2.145,-2.409 -2.145,-5.363 0,-2.954 0.963,-5.363 2.145,-5.363"
         inkscape:connector-curvature="0" />
      <path
         id="path1000"
         style="fill:#46454e;fill-opacity:1;fill-rule:evenodd;stroke:none;stroke-width:0.1"
         d="m 815.525,491.593 c 1.182,0 2.146,2.409 2.146,5.363 0,2.954 -0.964,5.363 -2.146,5.363 -1.182,0 -2.145,-2.409 -2.145,-5.363 0,-2.954 0.963,-5.363 2.145,-5.363"
         inkscape:connector-curvature="0" />
      <path
         id="path1002"
         style="fill:#f3c3bc;fill-opacity:1;fill-rule:evenodd;stroke:none;stroke-width:0.1"
         d="m 857.987,499.082 c -1.944,0.395 -4.176,-2.51 -4.986,-6.489 -0.81,-3.98 0.108,-7.526 2.052,-7.922 1.943,-0.396 4.176,2.509 4.986,6.489 0.81,3.979 -0.108,7.526 -2.052,7.922"
         inkscape:connector-curvature="0" />
      <path
         id="path1004"
         style="fill:#f3c3bc;fill-opacity:1;fill-rule:evenodd;stroke:none;stroke-width:0.1"
         d="m 795.438,499.082 c 1.944,0.395 4.176,-2.51 4.986,-6.489 0.811,-3.98 -0.108,-7.526 -2.052,-7.922 -1.943,-0.396 -4.175,2.509 -4.986,6.489 -0.81,3.979 0.109,7.526 2.052,7.922"
         inkscape:connector-curvature="0" />
      <path
         id="path1006"
         style="fill:#c38581;fill-opacity:1;fill-rule:evenodd;stroke:none;stroke-width:0.1"
         d="m 828.774,482.088 c -5.343,-1.113 -7.538,2.151 -7.574,4.889 -1.362,-5.041 2.288,-7.767 7.574,-4.889"
         inkscape:connector-curvature="0" />
      <path
         id="path1008"
         style="fill:#cdaa42;fill-opacity:1;fill-rule:evenodd;stroke:none;stroke-width:0.1"
         d="m 819.985,507.482 c -2.135,0.944 -5.595,2.702 -10.161,0.099 -2.057,-1.173 -1.877,-1.968 0.357,-0.932 3.8,1.762 5.852,0.51 9.235,-0.892 1.31,-0.543 2.022,1.084 0.569,1.725"
         inkscape:connector-curvature="0" />
      <path
         id="path1010"
         style="fill:#d9b754;fill-opacity:1;fill-rule:evenodd;stroke:none;stroke-width:0.1"
         d="m 833.648,507.482 c 2.136,0.944 5.595,2.702 10.161,0.099 2.057,-1.173 1.877,-1.968 -0.357,-0.932 -3.799,1.762 -5.851,0.51 -9.235,-0.892 -1.31,-0.543 -2.021,1.084 -0.569,1.725"
         inkscape:connector-curvature="0" />
      <path
         id="path1012"
         style="fill:#d9b754;fill-opacity:1;fill-rule:evenodd;stroke:none;stroke-width:0.1"
         d="m 853.669,498.108 c -1.133,14.82 -11.599,11.296 -18.336,27.213 -2.543,6.007 -24.549,2.426 -29.161,-2.186 -6.3,-6.3 -7.105,-21.448 -6.971,-27.48 0.135,-6.032 -3.114,-0.415 -3.285,2.167 -0.201,3.059 -2.54,11.699 2.434,23.481 6.554,15.523 30.383,26.087 45.459,11.972 20.467,-7.048 11.063,-50.912 9.86,-35.167"
         inkscape:connector-curvature="0" />
      <path
         id="path1014"
         style="fill:#e9b1ab;fill-opacity:1;fill-rule:evenodd;stroke:none;stroke-width:0.1"
         d="m 829.244,367.516 c -3.621,-0.864 -9.905,3.057 -14.726,4.125 -13.515,2.999 -1.124,-2.555 -1.713,-2.778 -1.383,-0.524 -3.346,-1.161 -6.557,-1.901 -2.303,-0.53 -2.194,-2.097 -1.247,-2.594 0.661,-0.349 0.708,-0.87 0.551,-1.119 -0.852,-1.355 0.039,-2.692 1.074,-2.878 0.831,-0.149 0.997,-0.775 0.645,-1.485 -0.413,-0.832 -0.535,-1.844 0.236,-2.42 0.74,-0.554 2.941,-0.057 1.987,-1.221 -1.151,-1.404 -0.466,-2.16 0.386,-2.521 1.781,-0.753 14.142,5.645 19.446,5.19 4.079,-0.351 3.599,10.48 -0.082,9.602"
         inkscape:connector-curvature="0" />
      <path
         id="path1016"
         style="fill:#78d2db;fill-opacity:1;fill-rule:evenodd;stroke:none;stroke-width:0.1"
         d="m 878.821,366.699 c -0.733,8.244 -15.821,9.069 -25.313,6.739 0.048,-3.363 1.652,-10.65 2.935,-16.136 9.93,-0.086 23.015,2.231 22.378,9.397"
         inkscape:connector-curvature="0" />
      <path
         id="path1018"
         style="fill:#ffffff;fill-opacity:1;fill-rule:evenodd;stroke:none;stroke-width:0.1"
         d="m 836.033,95.0602 c -0.354,-3.9403 -0.515,-7.4204 0.281,-9.3801 2.012,-4.9602 15.67,-6.1301 21.637,-12.5801 5.556,-6.0098 25.605,-5.4898 27.121,1.85 0.158,0.7699 0.313,3.4602 -0.216,4.25 -1.607,2.4102 -6.402,3 -11.478,5.2402 -2.146,0.9399 -7.471,5.9899 -13.558,10.4297 -0.111,0.0903 -0.223,0.1699 -0.334,0.25 -1.262,0.05 -2.43,-0.2 -3.515,-0.7797 -2.833,-1.5101 -2.266,-3.4 -5.476,-3.9601 -3.21,-0.5699 -10.952,-0.3801 -12.652,3.9601 -0.623,0.22 -1.225,0.47 -1.81,0.72"
         inkscape:connector-curvature="0" />
      <path
         id="path1020"
         style="fill:#f3c3bc;fill-opacity:1;fill-rule:evenodd;stroke:none;stroke-width:0.1"
         d="m 836.55,116.42 c 2.123,-7.23 -2.248,-22.3802 -0.236,-27.3298 2.012,-4.9504 15.67,-6.13 21.637,-12.58 5.556,-6 25.604,-5.4903 27.121,1.8597 0.639,3.1 -4.943,6.5 -11.694,9.4801 -2.146,0.95 -8.464,5.2301 -14.55,9.6699 -5.858,4.2701 -10.68,12.9701 -10.498,16.5401 0.506,9.91 -14.274,10.85 -11.78,2.36"
         inkscape:connector-curvature="0" />
      <path
         id="path1022"
         style="fill:#f68280;fill-opacity:1;fill-rule:evenodd;stroke:none;stroke-width:0.1"
         d="m 836.898,108.48 c -1.788,-5.69 -1.379,-17.43 -0.584,-19.3898 2.012,-4.9504 15.67,-6.13 21.637,-12.58 5.556,-6 25.093,-5.5602 26.608,1.7898 0.639,3.0898 -4.1,6.5699 -10.851,9.55 -1.29,0.5699 -13.461,7.3801 -19.239,14.21 -1.331,1.57 -0.204,4.41 0.559,5.77 1.164,2.08 -10.115,4.37 -10.38,0.87 -0.067,-0.89 -0.671,-2.35 -0.61,-3.65 -7.596,-0.93 -6.671,1.79 -7.14,3.43"
         inkscape:connector-curvature="0" />
      <path
         id="path1024"
         style="fill:none;stroke:#e93a3e;stroke-width:1.19989991;stroke-linecap:butt;stroke-linejoin:miter;stroke-miterlimit:22.92560005;stroke-dasharray:none;stroke-opacity:1"
         d="m 843.537,104.97 c 1.407,-4.22 11.229,-15.2798 15.696,-18.67 10.144,-7.7 17.988,-0.9898 14.657,0.9402"
         inkscape:connector-curvature="0" />
      <path
         id="path1026"
         style="fill:none;stroke:#ffffff;stroke-width:1.91989994;stroke-linecap:round;stroke-linejoin:round;stroke-miterlimit:22.92560005;stroke-dasharray:none;stroke-opacity:1"
         d="m 858.094,89.55 3,6.4402"
         inkscape:connector-curvature="0" />
      <path
         id="path1028"
         style="fill:none;stroke:#ffffff;stroke-width:1.91989994;stroke-linecap:round;stroke-linejoin:round;stroke-miterlimit:22.92560005;stroke-dasharray:none;stroke-opacity:1"
         d="m 855.203,92.75 3,6.4301"
         inkscape:connector-curvature="0" />
      <path
         id="path1030"
         style="fill:none;stroke:#ffffff;stroke-width:1.91989994;stroke-linecap:round;stroke-linejoin:round;stroke-miterlimit:22.92560005;stroke-dasharray:none;stroke-opacity:1"
         d="m 852.447,95.5102 2.929,5.8698"
         inkscape:connector-curvature="0" />
      <path
         id="path1032"
         style="fill:none;stroke:#ffffff;stroke-width:1.91989994;stroke-linecap:round;stroke-linejoin:round;stroke-miterlimit:22.92560005;stroke-dasharray:none;stroke-opacity:1"
         d="M 864.94,93.3801 856.084,92.6"
         inkscape:connector-curvature="0" />
      <path
         id="path1034"
         style="fill:none;stroke:#ffffff;stroke-width:1.91989994;stroke-linecap:round;stroke-linejoin:round;stroke-miterlimit:22.92560005;stroke-dasharray:none;stroke-opacity:1"
         d="m 861.539,96.2602 -8.856,-0.7801"
         inkscape:connector-curvature="0" />
      <path
         id="path1036"
         style="fill:none;stroke:#ffffff;stroke-width:1.91989994;stroke-linecap:round;stroke-linejoin:round;stroke-miterlimit:22.92560005;stroke-dasharray:none;stroke-opacity:1"
         d="m 858.656,98.9402 -9.003,0.0297"
         inkscape:connector-curvature="0" />
      <path
         id="path1038"
         style="fill:none;stroke:#ffffff;stroke-width:1.91989994;stroke-linecap:round;stroke-linejoin:round;stroke-miterlimit:22.92560005;stroke-dasharray:none;stroke-opacity:1"
         d="m 862.17,87.6801 2.89,5.7699"
         inkscape:connector-curvature="0" />
      <path
         id="path1040"
         style="fill:none;stroke:#ffffff;stroke-width:1.91989994;stroke-linecap:round;stroke-linejoin:round;stroke-miterlimit:22.92560005;stroke-dasharray:none;stroke-opacity:1"
         d="M 868.576,90.6301 858.728,89.4"
         inkscape:connector-curvature="0" />
      <path
         id="path1042"
         style="fill:none;stroke:#ffffff;stroke-width:1.91989994;stroke-linecap:round;stroke-linejoin:round;stroke-miterlimit:22.92560005;stroke-dasharray:none;stroke-opacity:1"
         d="M 872.963,88.3602 861.872,87.2801"
         inkscape:connector-curvature="0" />
      <path
         id="path1044"
         style="fill:none;stroke:#ffffff;stroke-width:1.91989994;stroke-linecap:round;stroke-linejoin:round;stroke-miterlimit:22.92560005;stroke-dasharray:none;stroke-opacity:1"
         d="M 866.338,84.6102 868.642,90.6"
         inkscape:connector-curvature="0" />
      <path
         id="path1046"
         style="fill:#ffffff;fill-opacity:1;fill-rule:evenodd;stroke:none;stroke-width:0.1"
         d="m 871.756,72.4 c 7.088,-0.8398 13.834,0.3699 13.316,5.9699 -0.146,1.5801 -0.919,3.1801 -3.083,4.7903 -0.083,0 -0.165,0 -0.248,0 -5.435,0 -9.856,-4.7903 -9.985,-10.7602"
         inkscape:connector-curvature="0" />
      <path
         id="path1048"
         style="fill:#ffffff;fill-opacity:1;fill-rule:evenodd;stroke:none;stroke-width:0.1"
         d="m 835.599,100.98 c -0.917,-5.1999 -0.195,-11.9601 0.342,-13.2898 0.606,-1.4902 2.562,-2.8004 4.834,-2.2902 -3.671,3.3102 -4.889,12.1199 -5.176,15.58"
         inkscape:connector-curvature="0" />
      <path
         id="path1050"
         style="fill:#ffffff;fill-opacity:1;fill-rule:evenodd;stroke:none;stroke-width:0.1"
         d="m 816.356,95.0602 c 0.354,-3.9403 0.515,-7.4204 -0.281,-9.3801 -2.012,-4.9602 -15.67,-6.1301 -21.637,-12.5801 -5.556,-6.0098 -25.605,-5.4898 -27.121,1.85 -0.158,0.7699 -0.314,3.4602 0.216,4.25 1.606,2.4102 6.402,3 11.478,5.2402 2.146,0.9399 7.471,5.9899 13.558,10.4297 0.111,0.0903 0.222,0.1699 0.334,0.25 1.261,0.05 2.43,-0.2 3.515,-0.7797 2.832,-1.5101 2.266,-3.4 5.476,-3.9601 3.21,-0.5699 10.952,-0.3801 12.652,3.9601 0.622,0.22 1.225,0.47 1.81,0.72"
         inkscape:connector-curvature="0" />
      <path
         id="path1052"
         style="fill:#f3c3bc;fill-opacity:1;fill-rule:evenodd;stroke:none;stroke-width:0.1"
         d="m 815.839,116.42 c -2.123,-7.23 2.248,-22.3802 0.236,-27.3298 -2.012,-4.9504 -15.67,-6.13 -21.637,-12.58 -5.556,-6 -25.604,-5.4903 -27.121,1.8597 -0.639,3.1 4.943,6.5 11.694,9.4801 2.146,0.95 8.464,5.2301 14.55,9.6699 5.858,4.2701 10.68,12.9701 10.498,16.5401 -0.506,9.91 14.273,10.85 11.78,2.36"
         inkscape:connector-curvature="0" />
      <path
         id="path1054"
         style="fill:#f68280;fill-opacity:1;fill-rule:evenodd;stroke:none;stroke-width:0.1"
         d="m 815.491,108.48 c 1.788,-5.69 1.379,-17.43 0.584,-19.3898 -2.012,-4.9504 -15.67,-6.13 -21.637,-12.58 -5.556,-6 -25.093,-5.5602 -26.609,1.7898 -0.638,3.0898 4.101,6.5699 10.852,9.55 1.353,0.6 14.665,8.0602 20.032,15.2 0.931,1.24 -0.658,4.96 -0.99,6.15 -0.664,2.36 10.293,2.73 10.995,-0.29 0.2,-0.86 0.482,-2.52 -0.367,-3.86 7.596,-0.93 6.671,1.79 7.14,3.43"
         inkscape:connector-curvature="0" />
      <path
         id="path1056"
         style="fill:none;stroke:#e93a3e;stroke-width:1.19989991;stroke-linecap:butt;stroke-linejoin:miter;stroke-miterlimit:22.92560005;stroke-dasharray:none;stroke-opacity:1"
         d="M 808.852,104.97 C 807.445,100.75 797.623,89.6902 793.155,86.3 783.012,78.6 775.168,85.3102 778.499,87.2402"
         inkscape:connector-curvature="0" />
      <path
         id="path1058"
         style="fill:none;stroke:#ffffff;stroke-width:1.91989994;stroke-linecap:round;stroke-linejoin:round;stroke-miterlimit:22.92560005;stroke-dasharray:none;stroke-opacity:1"
         d="m 794.295,89.55 -3,6.4402"
         inkscape:connector-curvature="0" />
      <path
         id="path1060"
         style="fill:none;stroke:#ffffff;stroke-width:1.91989994;stroke-linecap:round;stroke-linejoin:round;stroke-miterlimit:22.92560005;stroke-dasharray:none;stroke-opacity:1"
         d="m 797.186,92.75 -3,6.4301"
         inkscape:connector-curvature="0" />
      <path
         id="path1062"
         style="fill:none;stroke:#ffffff;stroke-width:1.91989994;stroke-linecap:round;stroke-linejoin:round;stroke-miterlimit:22.92560005;stroke-dasharray:none;stroke-opacity:1"
         d="m 799.942,95.5102 -2.929,5.8698"
         inkscape:connector-curvature="0" />
      <path
         id="path1064"
         style="fill:none;stroke:#ffffff;stroke-width:1.91989994;stroke-linecap:round;stroke-linejoin:round;stroke-miterlimit:22.92560005;stroke-dasharray:none;stroke-opacity:1"
         d="M 787.449,93.3801 796.305,92.6"
         inkscape:connector-curvature="0" />
      <path
         id="path1066"
         style="fill:none;stroke:#ffffff;stroke-width:1.91989994;stroke-linecap:round;stroke-linejoin:round;stroke-miterlimit:22.92560005;stroke-dasharray:none;stroke-opacity:1"
         d="m 790.849,96.2602 8.857,-0.7801"
         inkscape:connector-curvature="0" />
      <path
         id="path1068"
         style="fill:none;stroke:#ffffff;stroke-width:1.91989994;stroke-linecap:round;stroke-linejoin:round;stroke-miterlimit:22.92560005;stroke-dasharray:none;stroke-opacity:1"
         d="m 793.733,98.9402 9.003,0.0297"
         inkscape:connector-curvature="0" />
      <path
         id="path1070"
         style="fill:none;stroke:#ffffff;stroke-width:1.91989994;stroke-linecap:round;stroke-linejoin:round;stroke-miterlimit:22.92560005;stroke-dasharray:none;stroke-opacity:1"
         d="m 790.219,87.6801 -2.89,5.7699"
         inkscape:connector-curvature="0" />
      <path
         id="path1072"
         style="fill:none;stroke:#ffffff;stroke-width:1.91989994;stroke-linecap:round;stroke-linejoin:round;stroke-miterlimit:22.92560005;stroke-dasharray:none;stroke-opacity:1"
         d="M 783.813,90.6301 793.661,89.4"
         inkscape:connector-curvature="0" />
      <path
         id="path1074"
         style="fill:none;stroke:#ffffff;stroke-width:1.91989994;stroke-linecap:round;stroke-linejoin:round;stroke-miterlimit:22.92560005;stroke-dasharray:none;stroke-opacity:1"
         d="m 779.426,88.3602 11.091,-1.0801"
         inkscape:connector-curvature="0" />
      <path
         id="path1076"
         style="fill:none;stroke:#ffffff;stroke-width:1.91989994;stroke-linecap:round;stroke-linejoin:round;stroke-miterlimit:22.92560005;stroke-dasharray:none;stroke-opacity:1"
         d="M 786.051,84.6102 783.747,90.6"
         inkscape:connector-curvature="0" />
      <path
         id="path1078"
         style="fill:#ffffff;fill-opacity:1;fill-rule:evenodd;stroke:none;stroke-width:0.1"
         d="m 780.633,72.4 c -7.088,-0.8398 -13.834,0.3699 -13.316,5.9699 0.146,1.5801 0.919,3.1801 3.083,4.7903 0.082,0 0.165,0 0.248,0 5.435,0 9.856,-4.7903 9.985,-10.7602"
         inkscape:connector-curvature="0" />
      <path
         id="path1080"
         style="fill:#ffffff;fill-opacity:1;fill-rule:evenodd;stroke:none;stroke-width:0.1"
         d="m 816.789,100.98 c 0.918,-5.1999 0.196,-11.9601 -0.341,-13.2898 -0.606,-1.4902 -2.563,-2.8004 -4.834,-2.2902 3.671,3.3102 4.889,12.1199 5.175,15.58"
         inkscape:connector-curvature="0" />
      <path
         id="path1082"
         style="fill:#394f82;fill-opacity:1;fill-rule:evenodd;stroke:none;stroke-width:0.1"
         d="m 852.465,208.437 c -0.657,-9.067 -0.991,-23.767 -1.4,-39.487 -6.547,-1.58 -13.452,-1.55 -20.693,0 -0.439,7.3 -0.686,13.38 -0.79,17.05 -0.282,9.89 2.607,37.809 2.264,44.48 -1.976,38.438 25.585,46.579 20.619,-22.043"
         inkscape:connector-curvature="0" />
      <path
         id="path1084"
         style="fill:#394f82;fill-opacity:1;fill-rule:evenodd;stroke:none;stroke-width:0.1"
         d="m 800.435,208.437 c 0.656,-9.067 0.99,-23.767 1.399,-39.487 6.898,-2.01 13.795,-1.81 20.693,0 0.439,7.3 0.568,13.39 0.79,17.05 0.915,15.07 -3.624,39.293 -2.344,44.798 8.805,37.885 -25.537,46.712 -20.538,-22.361"
         inkscape:connector-curvature="0" />
      <path
         id="path1086"
         style="fill:#d9b754;fill-opacity:1;fill-rule:evenodd;stroke:none;stroke-width:0.1"
         d="m 789.843,484.123 c 15.661,2.301 45.704,29.97 52.891,43.447 -12.632,10.159 -31.32,8.485 -39.789,-4.282 -7.688,-11.59 -5.328,-33.655 -13.102,-39.165"
         inkscape:connector-curvature="0" />
      <path
         id="path1088"
         style="fill:#ead089;fill-opacity:1;fill-rule:evenodd;stroke:none;stroke-width:0.1"
         d="m 787.012,501.726 c 12.395,-13.514 43.912,7.532 55.523,28.853 -10.799,-9.719 -35.81,-30.003 -55.523,-28.853"
         inkscape:connector-curvature="0" />
      <path
         id="path1090"
         style="fill:#ead089;fill-opacity:1;fill-rule:evenodd;stroke:none;stroke-width:0.1"
         d="m 802.307,516.17 c 4.004,-7.783 27.42,-0.063 39.311,12.869 -9.286,-4.929 -26.625,-13.281 -39.311,-12.869"
         inkscape:connector-curvature="0" />
      <path
         id="path1092"
         style="fill:#ead089;fill-opacity:1;fill-rule:evenodd;stroke:none;stroke-width:0.1"
         d="m 854.521,504.86 c 4.221,3.432 -2.636,22.349 -13.702,24.568 6.704,-7.324 12.327,-16.799 13.702,-24.568"
         inkscape:connector-curvature="0" />
      <path
         id="path1094"
         style="fill:#ead089;fill-opacity:1;fill-rule:evenodd;stroke:none;stroke-width:0.1"
         d="m 808.774,528.89 c 1.98,7.539 26.82,11.888 32.78,1.245 -11.115,4.764 -25.66,2.153 -32.78,-1.245"
         inkscape:connector-curvature="0" />
      <path
         id="path1096"
         style="fill:#c38581;fill-opacity:1;fill-rule:evenodd;stroke:none;stroke-width:0.1"
         d="m 813.313,475.869 c 7.548,-1.815 18.895,-1.853 26.8,-0.169 -6.019,-3.98 -20.098,-4.128 -26.8,0.169"
         inkscape:connector-curvature="0" />
      <path
         id="path1098"
         style="fill:#c38581;fill-opacity:1;fill-rule:evenodd;stroke:none;stroke-width:0.1"
         d="m 820.037,470.187 c 3.76,-0.905 9.414,-0.924 13.352,-0.084 -3.199,-3.187 -10.233,-3.374 -13.352,0.084"
         inkscape:connector-curvature="0" />
      <path
         id="path1100"
         style="fill:#e9b1ab;fill-opacity:1;fill-rule:evenodd;stroke:none;stroke-width:0.1"
         d="m 790.197,370.903 c -2.174,8.024 10.059,13.143 19.777,14.207 9.649,1.058 34.367,6.485 35.927,2.104 2.131,-5.984 -21.247,-12.733 -31.343,-16.916 -9.302,-3.854 -22.362,-6.769 -24.361,0.605"
         inkscape:connector-curvature="0" />
      <path
         id="path1102"
         style="fill:#e9b1ab;fill-opacity:1;fill-rule:evenodd;stroke:none;stroke-width:0.1"
         d="m 834.863,388.626 c 3.698,0.442 8.237,6.295 12.39,8.965 11.643,7.489 1.939,-2.009 2.569,-2.014 1.479,-0.013 3.541,0.068 6.81,0.485 2.344,0.299 2.784,-1.208 2.067,-2.003 -0.499,-0.555 -0.363,-1.061 -0.129,-1.24 1.268,-0.976 0.894,-2.539 -0.013,-3.072 -0.728,-0.427 -0.667,-1.072 -0.092,-1.616 0.676,-0.637 1.141,-1.546 0.617,-2.352 -0.503,-0.776 -2.74,-1.071 -1.442,-1.833 1.566,-0.919 1.184,-1.866 0.51,-2.499 -1.41,-1.323 -15.222,0.403 -20.04,-1.859 -3.706,-1.74 -7.004,8.588 -3.247,9.038"
         inkscape:connector-curvature="0" />
      <path
         id="path1104"
         style="fill:#78d2db;fill-opacity:1;fill-rule:evenodd;stroke:none;stroke-width:0.1"
         d="m 782.57,372.158 c -1.432,8.528 15.343,12.929 25.553,13.075 0.837,-3.412 1.422,-11.227 1.57,-17.111 -10.016,-2.705 -25.879,-3.376 -27.123,4.036"
         inkscape:connector-curvature="0" />
      <path
         id="path1106"
         style="fill:none;stroke:#ffffff;stroke-width:2.40009999;stroke-linecap:round;stroke-linejoin:round;stroke-miterlimit:22.92560005;stroke-dasharray:none;stroke-opacity:1"
         d="m 796.967,437.182 c 18.354,-10.4 41.525,-8.759 62.327,-0.194"
         inkscape:connector-curvature="0" />
      <path
         id="path1108"
         style="fill:none;stroke:#ffffff;stroke-width:2.40009999;stroke-linecap:round;stroke-linejoin:round;stroke-miterlimit:22.92560005;stroke-dasharray:none;stroke-opacity:1"
         d="m 827.624,429.879 c -9.652,-3.282 -8.88,-7.722 -5.984,-9.266 2.895,-1.545 4.633,3.475 5.984,9.266 z"
         inkscape:connector-curvature="0" />
      <path
         id="path1110"
         style="fill:none;stroke:#ffffff;stroke-width:2.40009999;stroke-linecap:round;stroke-linejoin:round;stroke-miterlimit:22.92560005;stroke-dasharray:none;stroke-opacity:1"
         d="m 827.624,429.879 c 9.653,-3.282 8.881,-7.722 5.985,-9.266 -2.896,-1.545 -4.633,3.475 -5.985,9.266 z"
         inkscape:connector-curvature="0" />
      <path
         id="path1112"
         style="fill:none;stroke:#ffffff;stroke-width:2.40009999;stroke-linecap:round;stroke-linejoin:round;stroke-miterlimit:22.92560005;stroke-dasharray:none;stroke-opacity:1"
         d="m 805.184,385.04 c 0.833,-3.88 0.951,-10.481 1.446,-18.072"
         inkscape:connector-curvature="0" />
      <path
         id="path1114"
         style="fill:none;stroke:#ffffff;stroke-width:2.40009999;stroke-linecap:round;stroke-linejoin:round;stroke-miterlimit:22.92560005;stroke-dasharray:none;stroke-opacity:1"
         d="m 856.785,373.986 c 0.054,-3.968 1.413,-10.429 2.625,-17.939"
         inkscape:connector-curvature="0" />
      <path
         id="path1116"
         style="fill:none;stroke:#ffffff;stroke-width:2.40009999;stroke-linecap:round;stroke-linejoin:round;stroke-miterlimit:22.92560005;stroke-dasharray:none;stroke-opacity:1"
         d="m 789.931,341.126 c 11.679,-10.076 36.869,-21.069 75.57,-4.122"
         inkscape:connector-curvature="0" />
      <path
         id="path1118"
         style="fill:none;stroke:#313a65;stroke-width:2.40009999;stroke-linecap:butt;stroke-linejoin:miter;stroke-miterlimit:22.92560005;stroke-dasharray:none;stroke-opacity:1"
         d="m 825.873,296.437 c -1.881,-23.983 -11.075,-67.34 -9.194,-75.334 1.881,-7.995 3.762,-36.683 0.47,-52.673"
         inkscape:connector-curvature="0" />
      <path
         id="path1120"
         style="fill:none;stroke:#313a65;stroke-width:2.40009999;stroke-linecap:butt;stroke-linejoin:miter;stroke-miterlimit:22.92560005;stroke-dasharray:none;stroke-opacity:1"
         d="m 826.663,295.821 c 1.881,-23.984 11.178,-66.724 9.297,-74.718 -1.881,-7.995 -3.762,-36.683 -0.47,-52.673"
         inkscape:connector-curvature="0" />
      <path
         id="path1122"
         style="fill:#577ba8;fill-opacity:1;fill-rule:evenodd;stroke:none;stroke-width:0.1"
         d="m 851.88,174.31 c -6.925,-1.55 -15.099,-2.2 -21.888,-1.61 -0.438,0.04 -0.772,-0.45 -0.742,-0.93 0.166,-2.69 0.332,-5.39 0.498,-8.08 0.03,-0.48 0.413,-0.77 0.85,-0.81 6.94,-0.75 15.109,-0.27 21.888,1.6 0.425,0.12 0.772,0.46 0.742,0.94 -0.166,2.69 -0.332,5.38 -0.498,8.08 -0.03,0.48 -0.42,0.91 -0.85,0.81"
         inkscape:connector-curvature="0" />
      <path
         id="path1124"
         style="fill:#577ba8;fill-opacity:1;fill-rule:evenodd;stroke:none;stroke-width:0.1"
         d="m 800.906,174.31 c 6.924,-1.55 15.098,-2.2 21.888,-1.61 0.437,0.04 0.771,-0.45 0.742,-0.93 -0.166,-2.69 -0.333,-5.39 -0.499,-8.08 -0.029,-0.48 -0.413,-0.77 -0.849,-0.81 -6.941,-0.75 -15.11,-0.27 -21.889,1.6 -0.425,0.12 -0.771,0.46 -0.742,0.94 0.167,2.69 0.333,5.38 0.499,8.08 0.03,0.48 0.42,0.91 0.85,0.81"
         inkscape:connector-curvature="0" />
      <path
         id="path1126"
         style="fill:none;stroke:#313a65;stroke-width:2.40009999;stroke-linecap:butt;stroke-linejoin:miter;stroke-miterlimit:22.92560005;stroke-dasharray:none;stroke-opacity:1"
         d="m 791.655,322.947 8.106,5.722"
         inkscape:connector-curvature="0" />
      <path
         id="path1128"
         style="fill:none;stroke:#313a65;stroke-width:2.40009999;stroke-linecap:butt;stroke-linejoin:miter;stroke-miterlimit:22.92560005;stroke-dasharray:none;stroke-opacity:1"
         d="m 862.46,322.947 -8.105,5.722"
         inkscape:connector-curvature="0" />
    </g>
  </g>
</svg>
