<?xml version="1.0" encoding="UTF-8" standalone="no"?>
<!-- Created with Inkscape (http://www.inkscape.org/) -->

<svg
   xmlns:dc="http://purl.org/dc/elements/1.1/"
   xmlns:cc="http://creativecommons.org/ns#"
   xmlns:rdf="http://www.w3.org/1999/02/22-rdf-syntax-ns#"
   xmlns:svg="http://www.w3.org/2000/svg"
   xmlns="http://www.w3.org/2000/svg"
   xmlns:sodipodi="http://sodipodi.sourceforge.net/DTD/sodipodi-0.dtd"
   xmlns:inkscape="http://www.inkscape.org/namespaces/inkscape"
   width="16.253017mm"
   height="52.916664mm"
   viewBox="0 0 16.253017 52.916664"
   version="1.1"
   id="svg3345"
   inkscape:version="0.92.3 (2405546, 2018-03-11)"
   sodipodi:docname="10.svg">
  <defs
     id="defs3339" />
  <sodipodi:namedview
     id="base"
     pagecolor="#ffffff"
     bordercolor="#666666"
     borderopacity="1.0"
     inkscape:pageopacity="0.0"
     inkscape:pageshadow="2"
     inkscape:zoom="0.35"
     inkscape:cx="-383.43307"
     inkscape:cy="354.07097"
     inkscape:document-units="mm"
     inkscape:current-layer="layer1"
     showgrid="false"
     fit-margin-top="0"
     fit-margin-left="0"
     fit-margin-right="0"
     fit-margin-bottom="0"
     inkscape:window-width="1680"
     inkscape:window-height="987"
     inkscape:window-x="1672"
     inkscape:window-y="-8"
     inkscape:window-maximized="1" />
  <metadata
     id="metadata3342">
    <rdf:RDF>
      <cc:Work
         rdf:about="">
        <dc:format>image/svg+xml</dc:format>
        <dc:type
           rdf:resource="http://purl.org/dc/dcmitype/StillImage" />
        <dc:title></dc:title>
      </cc:Work>
    </rdf:RDF>
  </metadata>
  <g
     inkscape:label="Layer 1"
     inkscape:groupmode="layer"
     id="layer1"
     transform="translate(-81.417261,-189.59795)">
    <g
       transform="matrix(0.10743737,0,0,-0.10743737,-2.4542586,306.93352)"
       id="g3235">
      <path
         id="path180"
         style="fill:#684535;fill-opacity:1;fill-rule:evenodd;stroke:none;stroke-width:0.1"
         d="m 815.12,1054.2 c 14.173,0.07 30.26,10.33 29.849,16.8 4,-10.53 -10.538,-26.04 -29.849,-16.8"
         inkscape:connector-curvature="0" />
      <path
         id="path182"
         style="fill:#684535;fill-opacity:1;fill-rule:evenodd;stroke:none;stroke-width:0.1"
         d="m 814.163,1060.9 c 14.173,0.07 30.26,10.33 29.849,16.8 4,-10.53 -10.538,-26.04 -29.849,-16.8"
         inkscape:connector-curvature="0" />
      <path
         id="path184"
         style="fill:#447186;fill-opacity:1;fill-rule:evenodd;stroke:none;stroke-width:0.1"
         d="m 856.295,599.595 c 41.66,0 75.639,10.852 75.639,24.158 0,13.306 -33.979,24.158 -75.639,24.158 -41.661,0 -75.64,-10.852 -75.64,-24.158 0,-13.306 33.979,-24.158 75.64,-24.158"
         inkscape:connector-curvature="0" />
      <path
         id="path186"
         style="fill:#f3c3bc;fill-opacity:1;fill-rule:evenodd;stroke:none;stroke-width:0.1"
         d="m 827.138,749.432 c 2.137,-27.179 -0.75,-115.668 11.457,-102.095 9.156,10.179 9.414,63.806 10.976,78.186 4.992,45.978 -28.624,102.619 -22.433,23.909"
         inkscape:connector-curvature="0" />
      <path
         id="path188"
         style="fill:#f3c3bc;fill-opacity:1;fill-rule:evenodd;stroke:none;stroke-width:0.1"
         d="m 881.163,749.432 c -2.137,-27.179 0.75,-115.667 -11.457,-102.095 -9.156,10.179 -10.457,64.501 -12.017,78.881 -4.993,45.978 29.665,101.924 23.474,23.214"
         inkscape:connector-curvature="0" />
      <path
         id="path190"
         style="fill:#f3c3bc;fill-opacity:1;fill-rule:evenodd;stroke:none;stroke-width:0.1"
         d="m 816.204,856.27 c -0.289,-69.731 11.218,-102.924 22.977,-102.924 11.76,0 13.428,65.292 11.825,89.423 -4.897,73.693 -34.559,72.018 -34.802,13.501"
         inkscape:connector-curvature="0" />
      <path
         id="path192"
         style="fill:#f3c3bc;fill-opacity:1;fill-rule:evenodd;stroke:none;stroke-width:0.1"
         d="m 891.815,854.58 c -0.008,-67.776 -10.936,-101.234 -22.695,-101.234 -11.76,0 -13.428,65.292 -11.825,89.423 4.897,73.692 34.528,70.328 34.52,11.811"
         inkscape:connector-curvature="0" />
      <path
         id="path194"
         style="fill:#323644;fill-opacity:1;fill-rule:evenodd;stroke:none;stroke-width:0.1"
         d="m 863.442,1004.74 10.03,-11.128 -14.289,-7.556 -5.083,12.915 9.342,5.769"
         inkscape:connector-curvature="0" />
      <path
         id="path196"
         style="fill:#323644;fill-opacity:1;fill-rule:evenodd;stroke:none;stroke-width:0.1"
         d="m 843.795,1004.74 -10.03,-11.128 14.289,-7.556 5.084,12.915 -9.343,5.769"
         inkscape:connector-curvature="0" />
      <path
         id="path198"
         style="fill:#e9b1ab;fill-opacity:1;fill-rule:evenodd;stroke:none;stroke-width:0.1"
         d="m 853.735,836.031 c -33.384,0 -41.445,33.258 -31.558,59.007 6.381,16.617 -7.909,51.11 -15.564,74.438 -11.812,35.994 105.704,33.544 95.089,1.196 -7.654,-23.328 -22.247,-59.018 -15.866,-75.635 10.724,-27.929 4.797,-59.006 -32.101,-59.006"
         inkscape:connector-curvature="0" />
      <path
         id="path200"
         style="fill:#ffffff;fill-opacity:1;fill-rule:evenodd;stroke:none;stroke-width:0.1"
         d="m 849.63,643.102 c 0.406,-4.524 0.59,-8.521 -0.323,-10.769 -2.308,-5.683 -17.975,-7.027 -24.82,-14.426 -6.373,-6.889 -29.371,-6.301 -31.11,2.129 -0.182,0.88 -0.359,3.958 0.248,4.87 1.843,2.764 7.343,3.436 13.167,6.007 2.462,1.087 8.57,6.876 15.552,11.973 0.127,0.093 0.255,0.188 0.382,0.283 1.448,0.051 2.788,-0.231 4.033,-0.895 3.249,-1.733 2.599,-3.899 6.281,-4.549 3.682,-0.65 12.564,-0.433 14.513,4.549 0.715,0.254 1.405,0.533 2.077,0.828"
         inkscape:connector-curvature="0" />
      <path
         id="path202"
         style="fill:#f3c3bc;fill-opacity:1;fill-rule:evenodd;stroke:none;stroke-width:0.1"
         d="m 849.036,667.6 c -2.435,-8.29 2.58,-25.666 0.271,-31.35 -2.308,-5.683 -17.975,-7.027 -24.82,-14.425 -6.373,-6.89 -29.37,-6.302 -31.11,2.128 -0.732,3.552 5.67,7.459 13.414,10.877 2.462,1.087 9.709,5.993 16.69,11.088 6.72,4.905 12.251,14.884 12.043,18.974 -0.581,11.374 16.373,12.448 13.512,2.708"
         inkscape:connector-curvature="0" />
      <path
         id="path204"
         style="fill:#e93a3e;fill-opacity:1;fill-rule:evenodd;stroke:none;stroke-width:0.1"
         d="m 848.638,658.492 c 2.051,-6.529 1.582,-19.994 0.669,-22.241 -2.307,-5.683 -17.975,-7.028 -24.82,-14.426 -6.373,-6.89 -28.783,-6.385 -30.522,2.043 -0.733,3.552 4.703,7.545 12.447,10.962 1.481,0.654 15.441,8.469 22.07,16.297 1.527,1.803 0.234,5.054 -0.641,6.616 -1.336,2.385 11.602,5.013 11.906,0.997 0.077,-1.018 0.77,-2.69 0.701,-4.179 8.712,-1.07 7.651,2.054 8.19,3.931"
         inkscape:connector-curvature="0" />
      <path
         id="path206"
         style="fill:none;stroke:#c73032;stroke-width:1.19989991;stroke-linecap:butt;stroke-linejoin:miter;stroke-miterlimit:22.92560005;stroke-dasharray:none;stroke-opacity:1"
         d="m 841.022,654.465 c -1.614,-4.842 -12.881,-17.523 -18.006,-21.414 -11.635,-8.835 -20.633,-1.134 -16.813,1.074"
         inkscape:connector-curvature="0" />
      <path
         id="path208"
         style="fill:none;stroke:#ffffff;stroke-width:1.91989994;stroke-linecap:round;stroke-linejoin:round;stroke-miterlimit:22.92560005;stroke-dasharray:none;stroke-opacity:1"
         d="m 824.323,636.783 -3.44,7.381"
         inkscape:connector-curvature="0" />
      <path
         id="path210"
         style="fill:none;stroke:#ffffff;stroke-width:1.91989994;stroke-linecap:round;stroke-linejoin:round;stroke-miterlimit:22.92560005;stroke-dasharray:none;stroke-opacity:1"
         d="m 827.639,640.443 -3.44,7.381"
         inkscape:connector-curvature="0" />
      <path
         id="path212"
         style="fill:none;stroke:#ffffff;stroke-width:1.91989994;stroke-linecap:round;stroke-linejoin:round;stroke-miterlimit:22.92560005;stroke-dasharray:none;stroke-opacity:1"
         d="m 830.801,643.61 -3.36,6.733"
         inkscape:connector-curvature="0" />
      <path
         id="path214"
         style="fill:none;stroke:#ffffff;stroke-width:1.91989994;stroke-linecap:round;stroke-linejoin:round;stroke-miterlimit:22.92560005;stroke-dasharray:none;stroke-opacity:1"
         d="m 816.47,641.171 10.16,-0.897"
         inkscape:connector-curvature="0" />
      <path
         id="path216"
         style="fill:none;stroke:#ffffff;stroke-width:1.91989994;stroke-linecap:round;stroke-linejoin:round;stroke-miterlimit:22.92560005;stroke-dasharray:none;stroke-opacity:1"
         d="m 820.371,644.475 10.159,-0.896"
         inkscape:connector-curvature="0" />
      <path
         id="path218"
         style="fill:none;stroke:#ffffff;stroke-width:1.91989994;stroke-linecap:round;stroke-linejoin:round;stroke-miterlimit:22.92560005;stroke-dasharray:none;stroke-opacity:1"
         d="m 823.679,647.553 10.328,0.026"
         inkscape:connector-curvature="0" />
      <path
         id="path220"
         style="fill:none;stroke:#ffffff;stroke-width:1.91989994;stroke-linecap:round;stroke-linejoin:round;stroke-miterlimit:22.92560005;stroke-dasharray:none;stroke-opacity:1"
         d="m 819.647,634.634 -3.314,6.623"
         inkscape:connector-curvature="0" />
      <path
         id="path222"
         style="fill:none;stroke:#ffffff;stroke-width:1.91989994;stroke-linecap:round;stroke-linejoin:round;stroke-miterlimit:22.92560005;stroke-dasharray:none;stroke-opacity:1"
         d="m 812.299,638.012 11.297,-1.403"
         inkscape:connector-curvature="0" />
      <path
         id="path224"
         style="fill:none;stroke:#ffffff;stroke-width:1.91989994;stroke-linecap:round;stroke-linejoin:round;stroke-miterlimit:22.92560005;stroke-dasharray:none;stroke-opacity:1"
         d="m 807.268,635.412 12.722,-1.235"
         inkscape:connector-curvature="0" />
      <path
         id="path226"
         style="fill:none;stroke:#ffffff;stroke-width:1.91989994;stroke-linecap:round;stroke-linejoin:round;stroke-miterlimit:22.92560005;stroke-dasharray:none;stroke-opacity:1"
         d="m 814.867,631.112 -2.643,6.874"
         inkscape:connector-curvature="0" />
      <path
         id="path228"
         style="fill:#ffffff;fill-opacity:1;fill-rule:evenodd;stroke:none;stroke-width:0.1"
         d="m 808.652,617.102 c -8.131,-0.955 -15.87,0.427 -15.275,6.851 0.167,1.807 1.055,3.645 3.537,5.494 0.094,0.003 0.189,0.004 0.284,0.004 6.234,0 11.306,-5.501 11.454,-12.349"
         inkscape:connector-curvature="0" />
      <path
         id="path230"
         style="fill:#ffffff;fill-opacity:1;fill-rule:evenodd;stroke:none;stroke-width:0.1"
         d="m 850.127,649.89 c 1.053,-5.969 0.225,-13.723 -0.392,-15.242 -0.695,-1.711 -2.939,-3.217 -5.544,-2.636 4.21,3.798 5.608,13.909 5.936,17.878"
         inkscape:connector-curvature="0" />
      <path
         id="path232"
         style="fill:#ffffff;fill-opacity:1;fill-rule:evenodd;stroke:none;stroke-width:0.1"
         d="m 866.441,643.102 c -0.405,-4.524 -0.59,-8.521 0.323,-10.769 2.308,-5.683 17.975,-7.027 24.82,-14.426 6.374,-6.889 29.371,-6.301 31.111,2.129 0.181,0.88 0.359,3.958 -0.249,4.87 -1.842,2.764 -7.342,3.436 -13.166,6.007 -2.462,1.087 -8.57,6.876 -15.552,11.973 -0.128,0.093 -0.255,0.188 -0.383,0.283 -1.447,0.051 -2.788,-0.231 -4.032,-0.895 -3.249,-1.733 -2.6,-3.899 -6.282,-4.549 -3.682,-0.65 -12.563,-0.433 -14.513,4.549 -0.714,0.254 -1.405,0.533 -2.077,0.828"
         inkscape:connector-curvature="0" />
      <path
         id="path234"
         style="fill:#f3c3bc;fill-opacity:1;fill-rule:evenodd;stroke:none;stroke-width:0.1"
         d="m 867.035,667.599 c 2.435,-8.289 -2.579,-25.665 -0.271,-31.349 2.308,-5.683 17.975,-7.027 24.82,-14.425 6.374,-6.89 29.371,-6.301 31.111,2.128 0.732,3.552 -5.671,7.459 -13.415,10.877 -2.462,1.087 -9.709,5.993 -16.69,11.089 -6.72,4.904 -12.251,14.883 -12.043,18.973 0.581,11.374 -16.372,12.448 -13.512,2.707"
         inkscape:connector-curvature="0" />
      <path
         id="path236"
         style="fill:#e93a3e;fill-opacity:1;fill-rule:evenodd;stroke:none;stroke-width:0.1"
         d="m 867.434,658.492 c -2.051,-6.529 -1.582,-19.994 -0.67,-22.241 2.307,-5.683 17.976,-7.028 24.82,-14.426 6.374,-6.89 28.784,-6.385 30.523,2.043 0.732,3.552 -4.704,7.545 -12.448,10.962 -1.48,0.654 -15.441,8.469 -22.069,16.297 -1.527,1.803 -0.234,5.054 0.641,6.616 1.335,2.385 -11.603,5.013 -11.907,0.997 -0.077,-1.018 -0.77,-2.69 -0.7,-4.179 -8.713,-1.07 -7.652,2.054 -8.19,3.931"
         inkscape:connector-curvature="0" />
      <path
         id="path238"
         style="fill:none;stroke:#c73032;stroke-width:1.19989991;stroke-linecap:butt;stroke-linejoin:miter;stroke-miterlimit:22.92560005;stroke-dasharray:none;stroke-opacity:1"
         d="m 875.05,654.465 c 1.613,-4.842 12.88,-17.522 18.005,-21.414 11.635,-8.835 20.634,-1.134 16.813,1.074"
         inkscape:connector-curvature="0" />
      <path
         id="path240"
         style="fill:none;stroke:#ffffff;stroke-width:1.91989994;stroke-linecap:round;stroke-linejoin:round;stroke-miterlimit:22.92560005;stroke-dasharray:none;stroke-opacity:1"
         d="m 891.748,636.783 3.441,7.381"
         inkscape:connector-curvature="0" />
      <path
         id="path242"
         style="fill:none;stroke:#ffffff;stroke-width:1.91989994;stroke-linecap:round;stroke-linejoin:round;stroke-miterlimit:22.92560005;stroke-dasharray:none;stroke-opacity:1"
         d="m 888.432,640.443 3.441,7.381"
         inkscape:connector-curvature="0" />
      <path
         id="path244"
         style="fill:none;stroke:#ffffff;stroke-width:1.91989994;stroke-linecap:round;stroke-linejoin:round;stroke-miterlimit:22.92560005;stroke-dasharray:none;stroke-opacity:1"
         d="m 885.27,643.61 3.36,6.733"
         inkscape:connector-curvature="0" />
      <path
         id="path246"
         style="fill:none;stroke:#ffffff;stroke-width:1.91989994;stroke-linecap:round;stroke-linejoin:round;stroke-miterlimit:22.92560005;stroke-dasharray:none;stroke-opacity:1"
         d="m 899.601,641.171 -10.159,-0.897"
         inkscape:connector-curvature="0" />
      <path
         id="path248"
         style="fill:none;stroke:#ffffff;stroke-width:1.91989994;stroke-linecap:round;stroke-linejoin:round;stroke-miterlimit:22.92560005;stroke-dasharray:none;stroke-opacity:1"
         d="m 895.7,644.476 -10.159,-0.898"
         inkscape:connector-curvature="0" />
      <path
         id="path250"
         style="fill:none;stroke:#ffffff;stroke-width:1.91989994;stroke-linecap:round;stroke-linejoin:round;stroke-miterlimit:22.92560005;stroke-dasharray:none;stroke-opacity:1"
         d="m 892.392,647.553 -10.327,0.025"
         inkscape:connector-curvature="0" />
      <path
         id="path252"
         style="fill:none;stroke:#ffffff;stroke-width:1.91989994;stroke-linecap:round;stroke-linejoin:round;stroke-miterlimit:22.92560005;stroke-dasharray:none;stroke-opacity:1"
         d="m 896.424,634.634 3.314,6.623"
         inkscape:connector-curvature="0" />
      <path
         id="path254"
         style="fill:none;stroke:#ffffff;stroke-width:1.91989994;stroke-linecap:round;stroke-linejoin:round;stroke-miterlimit:22.92560005;stroke-dasharray:none;stroke-opacity:1"
         d="m 903.772,638.012 -11.297,-1.403"
         inkscape:connector-curvature="0" />
      <path
         id="path256"
         style="fill:none;stroke:#ffffff;stroke-width:1.91989994;stroke-linecap:round;stroke-linejoin:round;stroke-miterlimit:22.92560005;stroke-dasharray:none;stroke-opacity:1"
         d="m 908.804,635.412 -12.723,-1.235"
         inkscape:connector-curvature="0" />
      <path
         id="path258"
         style="fill:none;stroke:#ffffff;stroke-width:1.91989994;stroke-linecap:round;stroke-linejoin:round;stroke-miterlimit:22.92560005;stroke-dasharray:none;stroke-opacity:1"
         d="m 901.205,631.112 2.643,6.874"
         inkscape:connector-curvature="0" />
      <path
         id="path260"
         style="fill:#ffffff;fill-opacity:1;fill-rule:evenodd;stroke:none;stroke-width:0.1"
         d="m 907.419,617.102 c 8.131,-0.955 15.87,0.427 15.276,6.851 -0.168,1.807 -1.055,3.645 -3.537,5.494 -0.095,0.003 -0.189,0.004 -0.284,0.004 -6.235,0 -11.306,-5.501 -11.455,-12.349"
         inkscape:connector-curvature="0" />
      <path
         id="path262"
         style="fill:#ffffff;fill-opacity:1;fill-rule:evenodd;stroke:none;stroke-width:0.1"
         d="m 865.945,649.89 c -1.053,-5.969 -0.225,-13.723 0.392,-15.242 0.694,-1.711 2.939,-3.217 5.544,-2.636 -4.21,3.798 -5.608,13.909 -5.936,17.878"
         inkscape:connector-curvature="0" />
      <path
         id="path264"
         style="fill:#394f82;fill-opacity:1;fill-rule:evenodd;stroke:none;stroke-width:0.1"
         d="m 815.982,870.364 c -0.305,-14.976 -1.38,-39.696 0.917,-70.299 2.298,-30.603 4.87,-52.849 5.647,-76.078 0.211,-6.285 -0.874,-65.061 -0.815,-74.814 7.454,-2.07 24.439,-3.946 31.893,-2.068 0.645,6.022 -1.918,19.823 -0.627,35.748 1.292,15.924 -0.398,47.536 -0.666,66.261 -0.19,13.3 1.273,34.97 2.366,75.058 0.896,-34.898 2.204,-49.922 2.258,-75.546 0.043,-20.347 -0.147,-40.353 1.628,-60.566 1.776,-20.212 3.045,-40.916 3.045,-40.916 8.166,-1.282 22.97,-1.613 31.137,1.052 -0.236,28.782 -9.629,52.547 -8.656,85.039 0.779,26.01 1.139,30.477 5.765,64.148 4.627,33.672 1.223,58.005 0.917,72.981 -10.146,11.77 -64.662,11.77 -74.809,0"
         inkscape:connector-curvature="0" />
      <path
         id="path266"
         style="fill:none;stroke:#313a65;stroke-width:2.40009999;stroke-linecap:butt;stroke-linejoin:miter;stroke-miterlimit:22.92560005;stroke-dasharray:none;stroke-opacity:1"
         d="m 855.025,823.73 c 4.523,-19.134 6.443,-54.507 6.958,-74.449 0.514,-19.943 5.286,-91.938 5.286,-103.419"
         inkscape:connector-curvature="0" />
      <path
         id="path268"
         style="fill:#f3c3bc;fill-opacity:1;fill-rule:evenodd;stroke:none;stroke-width:0.1"
         d="m 800.483,950.648 c -3.704,-25.829 -6.197,-47.743 1.677,-49.496 7.874,-1.754 13.591,22.79 19.506,43.087 17.458,59.901 -13.862,57.451 -21.183,6.409"
         inkscape:connector-curvature="0" />
      <path
         id="path270"
         style="fill:#f3c3bc;fill-opacity:1;fill-rule:evenodd;stroke:none;stroke-width:0.1"
         d="m 793.288,882.688 c -0.386,-17.873 -0.471,-46.461 5.049,-45.644 4.795,0.709 8.277,30.749 10.423,44.694 8.944,58.131 -14.529,44.559 -15.472,0.95"
         inkscape:connector-curvature="0" />
      <path
         id="path272"
         style="fill:#e9b1ab;fill-opacity:1;fill-rule:evenodd;stroke:none;stroke-width:0.1"
         d="m 843.653,1028.37 h 20.086 v -38.931 c 0,-5.524 -4.519,-10.044 -10.042,-10.044 h -0.002 c -5.523,0 -10.042,4.52 -10.042,10.044 v 38.931"
         inkscape:connector-curvature="0" />
      <path
         id="path274"
         style="fill:#684535;fill-opacity:1;fill-rule:evenodd;stroke:none;stroke-width:0.1"
         d="m 891.431,1054.46 c -14.172,0.07 -30.259,10.33 -29.848,16.8 -4,-10.53 10.538,-26.04 29.848,-16.8"
         inkscape:connector-curvature="0" />
      <path
         id="path276"
         style="fill:#684535;fill-opacity:1;fill-rule:evenodd;stroke:none;stroke-width:0.1"
         d="m 892.388,1061.16 c -14.172,0.07 -30.259,10.33 -29.848,16.8 -4,-10.53 10.538,-26.04 29.848,-16.8"
         inkscape:connector-curvature="0" />
      <path
         id="path278"
         style="fill:#f3c3bc;fill-opacity:1;fill-rule:evenodd;stroke:none;stroke-width:0.1"
         d="m 853.892,1091.29 c 31.595,0.2 34.033,-36.91 27.757,-61.12 -3.179,-12.26 -18.477,-22.21 -27.757,-22.21 -9.543,0 -24.341,9.4 -28.17,22.6 -6.908,23.8 -1.988,60.53 28.17,60.73"
         inkscape:connector-curvature="0" />
      <path
         id="path280"
         style="fill:#c38581;fill-opacity:1;fill-rule:evenodd;stroke:none;stroke-width:0.1"
         d="m 867.774,1026.67 c -7.548,-1.82 -18.895,-1.85 -26.8,-0.17 6.018,-3.98 20.098,-4.13 26.8,0.17"
         inkscape:connector-curvature="0" />
      <path
         id="path282"
         style="fill:#c38581;fill-opacity:1;fill-rule:evenodd;stroke:none;stroke-width:0.1"
         d="m 861.05,1020.99 c -3.761,-0.91 -9.414,-0.93 -13.352,-0.09 3.199,-3.18 10.232,-3.37 13.352,0.09"
         inkscape:connector-curvature="0" />
      <path
         id="path284"
         style="fill:#fbdbd5;fill-opacity:1;fill-rule:evenodd;stroke:none;stroke-width:0.1"
         d="m 874.544,1049.03 c -1.998,1.17 -13.694,1.54 -16.277,-1.92 -2.171,-2.91 1.36,-9.98 4.693,-11.55 3.235,-1.52 9.869,-0.64 11.675,2.64 1.741,3.15 2.157,9.51 -0.091,10.83"
         inkscape:connector-curvature="0" />
      <path
         id="path286"
         style="fill:#fbdbd5;fill-opacity:1;fill-rule:evenodd;stroke:none;stroke-width:0.1"
         d="m 832.922,1048.91 c 1.992,1.19 13.685,1.62 16.288,-1.83 2.188,-2.9 -1.303,-9.99 -4.628,-11.57 -3.226,-1.54 -9.865,-0.69 -11.689,2.57 -1.759,3.14 -2.211,9.5 0.029,10.83"
         inkscape:connector-curvature="0" />
      <path
         id="path288"
         style="fill:#46454e;fill-opacity:1;fill-rule:evenodd;stroke:none;stroke-width:0.1"
         d="m 841.402,1042.03 c 1.242,0 2.255,2.53 2.255,5.64 0,3.1 -1.013,5.64 -2.255,5.64 -1.242,0 -2.255,-2.54 -2.255,-5.64 0,-3.11 1.013,-5.64 2.255,-5.64"
         inkscape:connector-curvature="0" />
      <path
         id="path290"
         style="fill:#46454e;fill-opacity:1;fill-rule:evenodd;stroke:none;stroke-width:0.1"
         d="m 864.918,1042.03 c 1.242,0 2.255,2.53 2.255,5.64 0,3.1 -1.013,5.64 -2.255,5.64 -1.241,0 -2.254,-2.54 -2.254,-5.64 0,-3.11 1.013,-5.64 2.254,-5.64"
         inkscape:connector-curvature="0" />
      <path
         id="path292"
         style="fill:#c38581;fill-opacity:1;fill-rule:evenodd;stroke:none;stroke-width:0.1"
         d="m 850.994,1033.3 c 5.615,-1.17 7.922,2.26 7.96,5.14 1.431,-5.3 -2.405,-8.16 -7.96,-5.14"
         inkscape:connector-curvature="0" />
      <path
         id="path294"
         style="fill:#684535;fill-opacity:1;fill-rule:evenodd;stroke:none;stroke-width:0.1"
         d="m 860.231,1061.07 c 2.244,0.99 6.197,2.12 10.837,0.34 2.323,-0.89 1.897,-2.11 -0.533,-1.22 -3.755,1.38 -6.15,0.54 -9.706,-0.93 -1.378,-0.57 -2.125,1.13 -0.598,1.81"
         inkscape:connector-curvature="0" />
      <path
         id="path296"
         style="fill:#684535;fill-opacity:1;fill-rule:evenodd;stroke:none;stroke-width:0.1"
         d="m 845.795,1061.07 c -2.244,0.99 -6.197,2.12 -10.837,0.34 -2.323,-0.89 -1.897,-2.11 0.533,-1.22 3.755,1.38 6.15,0.54 9.706,-0.93 1.378,-0.57 2.125,1.13 0.598,1.81"
         inkscape:connector-curvature="0" />
      <path
         id="path298"
         style="fill:#f3c3bc;fill-opacity:1;fill-rule:evenodd;stroke:none;stroke-width:0.1"
         d="m 821.137,1051.31 c 2.024,0.41 4.347,-2.61 5.191,-6.76 0.843,-4.14 -0.113,-7.83 -2.136,-8.24 -2.024,-0.42 -4.348,2.61 -5.191,6.75 -0.844,4.15 0.113,7.84 2.136,8.25"
         inkscape:connector-curvature="0" />
      <path
         id="path300"
         style="fill:#f3c3bc;fill-opacity:1;fill-rule:evenodd;stroke:none;stroke-width:0.1"
         d="m 886.254,1051.31 c -2.023,0.41 -4.347,-2.61 -5.19,-6.76 -0.844,-4.14 0.113,-7.83 2.136,-8.24 2.024,-0.42 4.347,2.61 5.191,6.75 0.843,4.15 -0.113,7.84 -2.137,8.25"
         inkscape:connector-curvature="0" />
      <path
         id="path302"
         style="fill:#a68676;fill-opacity:1;fill-rule:evenodd;stroke:none;stroke-width:0.1"
         d="m 842.154,1015.83 c 3.047,-1.18 5.745,-1.53 6.567,-1.33 1.537,0.39 0.892,0.32 1.186,0.53 0.99,1.41 1.973,2.01 3.702,2.01 1.729,0 2.712,-0.6 3.702,-2.01 0.294,-0.21 -0.351,-0.14 1.185,-0.53 0.622,-0.15 2.49,-0.1 4.803,0.38 3.155,0.97 4.114,3.21 4.096,6.23 -0.064,10.95 -6.251,6.32 -13.681,6.32 -7.429,0 -13.36,4.76 -13.68,-6.32 -0.065,-2.27 0.497,-4.1 2.12,-5.28 z m -17.036,35.04 c 0,-7.87 4.639,-24.57 9.317,-29.89 0.235,-0.26 0.48,-0.52 0.731,-0.77 1.264,-0.96 2.383,-0.87 2.529,2.11 0.569,11.65 8.22,7.57 15.891,7.57 7.672,0 16.764,4.09 16.148,-7.57 -0.2,-3.8 0.89,-4.41 2.195,-3.75 0.695,0.52 1.344,1.12 1.925,1.78 4.678,5.31 8.246,22.65 8.246,30.52 0.425,5.31 2.764,6.59 2.764,-1.92 0,-8.51 -2.519,-23.07 -6.922,-29.01 -4.404,-5.93 -13.52,-10.34 -20.522,-12.74 -2.824,-0.97 -4.798,-0.97 -7.622,0 -7.002,2.4 -15.598,6.9 -20.002,12.83 -4.403,5.94 -7.442,20.41 -7.442,28.92 0,8.51 2.339,7.23 2.764,1.92 v 0"
         inkscape:connector-curvature="0" />
      <path
         id="path304"
         style="fill:#684535;fill-opacity:1;fill-rule:evenodd;stroke:none;stroke-width:0.1"
         d="m 822.366,1048.83 c 0.18,-2.73 4.278,-15.62 3.487,-9.29 -1.453,11.62 1.179,26.35 7.481,33.34 5.477,6.08 10.921,1.87 19.502,2.07 8.786,0.2 14.034,4.07 20.922,-4.32 5.974,-7.28 8.298,-22.65 7.594,-34.09 -0.392,-6.36 3.494,9.56 3.674,12.29 0.213,3.24 1.518,11.87 -3.739,24.32 -3.773,8.94 -13.439,18.98 -27.591,18.98 -16.438,0 -23.818,-10.23 -27.591,-19.16 -5.257,-12.45 -3.952,-20.9 -3.739,-24.14"
         inkscape:connector-curvature="0" />
      <path
         id="path306"
         style="fill:#424959;fill-opacity:1;fill-rule:evenodd;stroke:none;stroke-width:0.1"
         d="m 877.999,1047.22 h 6.117 v 2.8 h -6.117 v -2.8"
         inkscape:connector-curvature="0" />
      <path
         id="path308"
         style="fill:#424959;fill-opacity:1;fill-rule:evenodd;stroke:none;stroke-width:0.1"
         d="m 823.881,1047.22 h 6.117 v 2.8 h -6.117 v -2.8"
         inkscape:connector-curvature="0" />
      <path
         id="path310"
         style="fill:#f3c3bc;fill-opacity:1;fill-rule:evenodd;stroke:none;stroke-width:0.1"
         d="m 794.36,862.378 c 0.844,-10.367 -2.543,-28.898 0.376,-36.197 1.205,-3.011 2.398,-7.875 4.71,-9.799 3.295,-2.739 7.669,-4.493 9.175,-4.616 2.566,-0.21 3.507,1.849 0.048,3.659 -1.366,0.714 -2.989,1.431 -4.901,3.537 -2.925,3.22 -3.329,9.822 -2.784,10.013 3.592,1.255 6.43,-9.872 9.347,-8.78 1.365,0.51 -1.265,7.269 -1.836,10.583 -0.646,3.751 0.318,9.684 -2.198,13.168 -4.741,6.567 -0.801,16.526 -0.436,23.826 0.365,7.299 -12.269,4.049 -11.501,-5.394"
         inkscape:connector-curvature="0" />
      <path
         id="path312"
         style="fill:#cdaa42;fill-opacity:1;fill-rule:evenodd;stroke:none;stroke-width:0.1"
         d="m 812.826,859.663 c 9.353,35.09 1.247,87.078 -6.213,109.813 -4.088,12.459 7.322,20.31 23.542,23.91 13.718,-14.522 33.781,-11.937 48.09,-0.437 15.875,-3.753 27.063,-11.288 23.457,-22.277 -7.459,-22.732 -18.11,-73.026 -7.789,-111.334 -12.473,-2.832 -25.875,-4.376 -39.833,-4.376 -14.489,0 -28.381,1.66 -41.254,4.701"
         inkscape:connector-curvature="0" />
      <path
         id="path314"
         style="fill:#ffffff;fill-opacity:1;fill-rule:nonzero;stroke:none;stroke-width:0.1"
         d="m 811.233,951.696 c -0.359,1.705 -0.725,3.36 -1.098,4.955 9.527,-1.184 19.928,-2.055 31.254,-2.399 16.704,-0.509 35.431,0.126 56.34,2.585 -0.406,-1.599 -0.807,-3.255 -1.204,-4.96 -20.441,-2.315 -38.817,-2.907 -55.267,-2.406 -10.834,0.329 -20.828,1.131 -30.025,2.225 z m 2.95,-16.734 c -0.24,1.658 -0.491,3.293 -0.753,4.899 8.617,-0.982 17.925,-1.701 27.959,-2.006 15.716,-0.478 33.221,0.055 52.65,2.167 -0.302,-1.61 -0.594,-3.247 -0.875,-4.909 -19.1,-2.01 -36.362,-2.512 -51.906,-2.039 -9.686,0.295 -18.7,0.967 -27.075,1.888 z m 1.913,-16.601 c -0.139,1.63 -0.291,3.251 -0.457,4.86 7.993,-0.857 16.568,-1.483 25.75,-1.762 15.012,-0.457 31.657,0.009 50.051,1.893 -0.2,-1.61 -0.386,-3.234 -0.557,-4.869 -18.196,-1.815 -34.702,-2.259 -49.625,-1.805 -8.953,0.272 -17.332,0.867 -25.162,1.683 z m 0.89,-16.489 c -0.034,1.61 -0.085,3.219 -0.15,4.826 7.651,-0.792 15.828,-1.37 24.553,-1.636 14.605,-0.444 30.756,-0.014 48.56,1.744 -0.088,-1.607 -0.159,-3.218 -0.21,-4.832 -17.744,-1.72 -33.872,-2.137 -48.481,-1.693 -8.614,0.262 -16.698,0.823 -24.272,1.591 z m -0.288,-16.366 c 0.094,1.587 0.169,3.183 0.223,4.787 7.626,-0.788 15.775,-1.363 24.468,-1.627 14.539,-0.442 30.611,-0.019 48.319,1.719 0.046,-1.6 0.111,-3.198 0.201,-4.791 -17.811,-1.735 -33.995,-2.155 -48.651,-1.709 -8.724,0.265 -16.902,0.837 -24.56,1.621 z M 814.9,869.298 c 0.265,1.559 0.504,3.137 0.716,4.736 8,-0.859 16.582,-1.485 25.773,-1.765 14.889,-0.453 31.384,0.002 49.6,1.847 0.214,-1.592 0.458,-3.171 0.729,-4.738 -18.526,-1.885 -35.309,-2.35 -50.46,-1.89 -9.41,0.287 -18.186,0.93 -26.358,1.81 z m -9.097,104.316 c 10.681,-1.47 22.518,-2.569 35.586,-2.966 17.924,-0.545 38.177,0.225 60.955,3.153 -0.079,-1.01 -0.288,-2.053 -0.642,-3.129 -0.196,-0.598 -0.394,-1.219 -0.595,-1.855 -22.287,-2.766 -42.178,-3.487 -59.849,-2.95 -12.565,0.382 -24.001,1.4 -34.375,2.771 -0.09,0.282 -0.18,0.564 -0.27,0.838 -0.472,1.441 -0.735,2.82 -0.81,4.138 v 0"
         inkscape:connector-curvature="0" />
      <path
         id="path316"
         style="fill:#424959;fill-opacity:1;fill-rule:evenodd;stroke:none;stroke-width:0.1"
         d="m 906.121,977.347 c -3.613,9.807 -20.389,18.112 -37.423,18.112 5.678,-24.261 6.697,-96.937 10.113,-126.84 2.064,-18.065 1.549,-36.132 1.549,-36.132 11.872,3.097 24.26,15.485 19.614,36.132 -4.645,20.647 -2.064,53.167 -4.645,68.652 -2.581,15.485 8.211,37.495 10.792,40.076"
         inkscape:connector-curvature="0" />
      <path
         id="path318"
         style="fill:none;stroke:#202028;stroke-width:3.84010005;stroke-linecap:butt;stroke-linejoin:miter;stroke-miterlimit:22.92560005;stroke-dasharray:none;stroke-opacity:1"
         d="m 896.089,865.938 -15.568,-2.486"
         inkscape:connector-curvature="0" />
      <path
         id="path320"
         style="fill:#424959;fill-opacity:1;fill-rule:evenodd;stroke:none;stroke-width:0.1"
         d="m 874.544,1049.03 c 2.248,-1.32 1.832,-7.68 0.091,-10.83 -1.806,-3.28 -8.44,-4.16 -11.675,-2.64 -3.333,1.57 -6.864,8.64 -4.693,11.55 2.583,3.46 14.279,3.09 16.277,1.92 z m -41.622,-0.12 c 1.992,1.19 13.685,1.62 16.288,-1.83 2.188,-2.9 -1.303,-9.99 -4.628,-11.57 -3.226,-1.54 -9.865,-0.69 -11.689,2.57 -1.759,3.14 -2.211,9.5 0.029,10.83 z m 20.763,-0.12 c -1.513,-0.04 -7.757,1.61 -12.173,1.96 -4.419,0.36 -10.973,-0.21 -12.104,-0.57 -1.352,-0.44 -1.391,-0.55 -1.448,-1.58 -0.058,-1.03 0.114,-1.91 0.914,-2.18 1.09,-0.36 1.104,-1.74 1.832,-5.68 0.663,-3.6 2.259,-6.44 9.099,-6.94 6.711,-0.49 8.948,3.84 9.67,5.23 1.288,2.49 0.88,5.91 4.27,5.92 3.389,0.01 3.061,-3.35 4.363,-5.83 0.73,-1.39 2.931,-5.77 9.639,-5.24 6.837,0.54 8.418,3.39 9.06,6.99 0.705,3.95 0.711,5.32 1.8,5.69 0.798,0.27 0.965,1.15 0.902,2.18 -0.064,1.03 -0.103,1.14 -1.458,1.57 -1.133,0.36 -7.69,0.89 -12.107,0.51 -3.949,-0.33 -8.7,-1.94 -12.259,-2.03 v 0"
         inkscape:connector-curvature="0" />
      <path
         id="path322"
         style="fill:#424959;fill-opacity:1;fill-rule:evenodd;stroke:none;stroke-width:0.1"
         d="m 810.693,985.92 c -12.774,-11.055 -16.596,-66.746 -17.942,-78.359 l 21.195,-3.213 h 10e-4 c 2.145,11.569 7.953,38.178 15.527,54.275 7.574,16.096 -6.628,28.451 -18.781,27.297"
         inkscape:connector-curvature="0" />
      <path
         id="path324"
         style="fill:#424959;fill-opacity:1;fill-rule:evenodd;stroke:none;stroke-width:0.1"
         d="m 792.751,907.561 c -0.027,-0.25 -0.054,-0.488 -0.079,-0.698 -1.219,-10.395 -3.029,-55.278 -3.249,-64.953 6.246,-1.037 15.205,-1.119 20.473,-0.639 0.064,11.168 3.121,55.159 3.317,58.015 0.059,0.856 0.332,3.346 0.733,5.657 l -21.195,2.618"
         inkscape:connector-curvature="0" />
      <path
         id="path326"
         style="fill:#424959;fill-opacity:1;fill-rule:evenodd;stroke:none;stroke-width:0.1"
         d="m 806.042,979.651 c 3.613,9.808 17.022,16.464 34.056,16.464 -5.678,-24.26 -3.81,-97.593 -7.226,-127.496 -2.064,-18.065 -1.549,-33.674 -1.549,-33.674 -9.941,-0.239 -16.485,1.872 -21.37,4.83 3.542,20.162 4.336,80.979 6.917,96.464 2.581,15.485 -8.247,40.831 -10.828,43.412"
         inkscape:connector-curvature="0" />
      <path
         id="path328"
         style="fill:none;stroke:#313a65;stroke-width:2.40009999;stroke-linecap:butt;stroke-linejoin:miter;stroke-miterlimit:22.92560005;stroke-dasharray:none;stroke-opacity:1"
         d="m 850.556,852.395 c -0.299,-3.288 -1.793,-19.429 1.196,-19.728 2.989,-0.299 7.174,-0.299 7.174,-0.299"
         inkscape:connector-curvature="0" />
      <path
         id="path330"
         style="fill:none;stroke:#313a65;stroke-width:2.40009999;stroke-linecap:butt;stroke-linejoin:miter;stroke-miterlimit:22.92560005;stroke-dasharray:none;stroke-opacity:1"
         d="m 855.025,823.73 c -4.523,-19.134 -8.756,-59.711 -7.247,-81.967 1.509,-22.255 -2.077,-84.258 -2.077,-95.739"
         inkscape:connector-curvature="0" />
      <path
         id="path332"
         style="fill:#f3c3bc;fill-opacity:1;fill-rule:evenodd;stroke:none;stroke-width:0.1"
         d="m 917.264,948.848 c 3.288,-26.102 4.272,-54.401 -3.59,-55.767 -7.863,-1.365 -14.508,27.224 -20.435,47.839 -10.016,34.838 -4.15,47.325 5.02,43.904 6.844,-2.553 16.07,-12.676 19.005,-35.976"
         inkscape:connector-curvature="0" />
      <path
         id="path334"
         style="fill:#f3c3bc;fill-opacity:1;fill-rule:evenodd;stroke:none;stroke-width:0.1"
         d="m 910.821,874.173 c -8.411,-15.786 -19.775,-39.318 -24.416,-36.313 -4.031,2.609 3.939,25.736 8.408,39.006 11.904,35.345 26.125,39.948 23.379,22.301 -0.757,-4.866 -3.848,-18.38 -7.371,-24.994"
         inkscape:connector-curvature="0" />
      <path
         id="path336"
         style="fill:#f3c3bc;fill-opacity:1;fill-rule:evenodd;stroke:none;stroke-width:0.1"
         d="m 895.802,853.179 c -0.983,2.369 -6.355,6.351 -8.468,1.193 -2.631,-6.422 -17.384,-9.593 -19.357,-12.551 -3.246,-4.865 9.452,2.728 8.275,0.204 -1.514,-3.243 -13.667,-12.737 -15.176,-16.779 -1.51,-4.042 15.682,11.37 11.559,5.606 -4.123,-5.764 -7.29,-8.004 -7.052,-10.972 0.175,-2.173 12.36,13.389 10.539,7.955 -1.504,-4.49 -3.836,-7.179 -3.357,-9.644 0.625,-3.212 12.107,15.571 10.994,11.735 -0.873,-3.006 -4.41,-6.586 -4.011,-8.422 0.88,-4.059 9.808,13.511 16.336,26.059 2.443,4.695 0.333,4.131 -0.282,5.616"
         inkscape:connector-curvature="0" />
      <path
         id="path338"
         style="fill:#394f82;fill-opacity:1;fill-rule:evenodd;stroke:none;stroke-width:0.1"
         d="m 890.642,833.635 -11.872,19.863 -11.579,-0.621 -9.304,-29.778 24.472,-12.61 8.283,23.146"
         inkscape:connector-curvature="0" />
      <path
         id="path340"
         style="fill:#424959;fill-opacity:1;fill-rule:evenodd;stroke:none;stroke-width:0.1"
         d="m 896.905,987.649 c 23.11,-9.686 26.042,-65.079 24.885,-90.2 l -20.457,3.88 c -3.024,11.372 -7.875,40.512 -16.657,55.982 -8.782,15.471 0.023,30.56 12.229,30.338"
         inkscape:connector-curvature="0" />
      <path
         id="path342"
         style="fill:#424959;fill-opacity:1;fill-rule:evenodd;stroke:none;stroke-width:0.1"
         d="m 922.264,902.113 c -1.487,-27.93 -17.455,-51.141 -26.462,-66.04 -5.597,2.944 -12.739,8.838 -15.757,13.287 5.044,12.287 20.238,35.607 21.271,53.463 l 20.948,-0.71"
         inkscape:connector-curvature="0" />
      <path
         id="path344"
         style="fill:#202028;fill-opacity:1;fill-rule:evenodd;stroke:none;stroke-width:0.1"
         d="m 834.471,891.486 -12.135,95.649 12.091,4.093 -9.219,3.469 18.523,11.253 c -3.886,-11.356 -7.765,-63.361 -9.26,-114.464"
         inkscape:connector-curvature="0" />
      <path
         id="path346"
         style="fill:#202028;fill-opacity:1;fill-rule:evenodd;stroke:none;stroke-width:0.1"
         d="m 877.22,891.486 8.868,95.842 -12.86,3.708 9.589,3.383 -19.235,11.821 c 3.885,-11.354 12.143,-63.651 13.638,-114.754"
         inkscape:connector-curvature="0" />
      <path
         id="path348"
         style="fill:#795947;fill-opacity:1;fill-rule:evenodd;stroke:none;stroke-width:0.1"
         d="m 887.854,1073.11 c -13.203,-1.42 -29.252,6.46 -29.544,12.53 -2.627,-10.22 12.527,-23.15 29.544,-12.53"
         inkscape:connector-curvature="0" />
      <path
         id="path350"
         style="fill:#684535;fill-opacity:1;fill-rule:evenodd;stroke:none;stroke-width:0.1"
         d="m 890.534,1068.53 c -15.151,-1.63 -33.568,7.41 -33.903,14.37 -3.014,-11.72 14.376,-26.56 33.903,-14.37"
         inkscape:connector-curvature="0" />
      <path
         id="path352"
         style="fill:#795947;fill-opacity:1;fill-rule:evenodd;stroke:none;stroke-width:0.1"
         d="m 880.005,1074.41 c -14.53,-3.08 -33.287,3.86 -34.304,10.58 -1.758,-11.67 16.578,-24.33 34.304,-10.58"
         inkscape:connector-curvature="0" />
      <path
         id="path354"
         style="fill:#684535;fill-opacity:1;fill-rule:evenodd;stroke:none;stroke-width:0.1"
         d="m 874.071,1075.74 c -13.361,-4.73 -31.969,-0.51 -33.768,5.72 -0.208,-11.26 18.716,-20.94 33.768,-5.72"
         inkscape:connector-curvature="0" />
      <path
         id="path356"
         style="fill:#795947;fill-opacity:1;fill-rule:evenodd;stroke:none;stroke-width:0.1"
         d="m 874.421,1089.07 c -9.304,-5.86 -24.109,-5.85 -26.537,-1.45 1.768,-8.55 17.749,-12.64 26.537,1.45"
         inkscape:connector-curvature="0" />
      <path
         id="path358"
         style="fill:#795947;fill-opacity:1;fill-rule:evenodd;stroke:none;stroke-width:0.1"
         d="m 847.841,1065.5 c -9.22,7.38 -6.616,18.13 -2.425,19.74 -10.367,-1.81 -15.685,-15.95 2.425,-19.74"
         inkscape:connector-curvature="0" />
      <path
         id="path360"
         style="fill:#684535;fill-opacity:1;fill-rule:evenodd;stroke:none;stroke-width:0.1"
         d="m 838.157,1062.88 c -5.23,9.79 -0.198,19.28 3.562,19.56 -10.435,1.36 -19.721,-10.55 -3.562,-19.56"
         inkscape:connector-curvature="0" />
      <path
         id="path362"
         style="fill:#684535;fill-opacity:1;fill-rule:evenodd;stroke:none;stroke-width:0.1"
         d="m 884.825,1050.73 c 0.025,-0.54 0.039,-1.13 0.039,-1.78 0,-8.51 -2.519,-23.07 -6.922,-29.01 -4.404,-5.93 -13.52,-10.34 -20.522,-12.74 -2.824,-0.97 -4.798,-0.97 -7.622,0 -7.002,2.4 -15.598,6.9 -20.002,12.83 -4.403,5.94 -7.442,20.41 -7.442,28.92 0,1.65 0.088,2.94 0.234,3.89 1.03,-3.36 1.938,-7.04 3.032,-10.1 0.808,-9.05 2.586,-20.05 8.407,-25.22 5.82,-5.17 6.79,-5.01 11.479,-6.14 4.688,-1.13 4.527,1.45 7.922,1.45 4.052,0 5.039,-2.43 9.102,-1.45 4.689,1.13 5.659,0.97 11.479,6.14 5.82,5.17 7.599,16.17 8.407,25.22 0.869,2.43 1.62,5.25 2.409,7.99"
         inkscape:connector-curvature="0" />
      <path
         id="path364"
         style="fill:none;stroke:#202028;stroke-width:3.84010005;stroke-linecap:butt;stroke-linejoin:miter;stroke-miterlimit:22.92560005;stroke-dasharray:none;stroke-opacity:1"
         d="m 813.251,865.938 15.568,-2.486"
         inkscape:connector-curvature="0" />
    </g>
  </g>
</svg>
