<?xml version="1.0" encoding="UTF-8" standalone="no"?>
<!-- Created with Inkscape (http://www.inkscape.org/) -->

<svg
   xmlns:dc="http://purl.org/dc/elements/1.1/"
   xmlns:cc="http://creativecommons.org/ns#"
   xmlns:rdf="http://www.w3.org/1999/02/22-rdf-syntax-ns#"
   xmlns:svg="http://www.w3.org/2000/svg"
   xmlns="http://www.w3.org/2000/svg"
   xmlns:sodipodi="http://sodipodi.sourceforge.net/DTD/sodipodi-0.dtd"
   xmlns:inkscape="http://www.inkscape.org/namespaces/inkscape"
   width="16.665838mm"
   height="52.916664mm"
   viewBox="0 0 16.665838 52.916664"
   version="1.1"
   id="svg4169"
   inkscape:version="0.92.3 (2405546, 2018-03-11)"
   sodipodi:docname="11.svg">
  <defs
     id="defs4163" />
  <sodipodi:namedview
     id="base"
     pagecolor="#ffffff"
     bordercolor="#666666"
     borderopacity="1.0"
     inkscape:pageopacity="0.0"
     inkscape:pageshadow="2"
     inkscape:zoom="0.35"
     inkscape:cx="-455.57817"
     inkscape:cy="-242.05199"
     inkscape:document-units="mm"
     inkscape:current-layer="layer1"
     showgrid="false"
     fit-margin-top="0"
     fit-margin-left="0"
     fit-margin-right="0"
     fit-margin-bottom="0"
     inkscape:window-width="1680"
     inkscape:window-height="987"
     inkscape:window-x="1672"
     inkscape:window-y="-8"
     inkscape:window-maximized="1" />
  <metadata
     id="metadata4166">
    <rdf:RDF>
      <cc:Work
         rdf:about="">
        <dc:format>image/svg+xml</dc:format>
        <dc:type
           rdf:resource="http://purl.org/dc/dcmitype/StillImage" />
        <dc:title></dc:title>
      </cc:Work>
    </rdf:RDF>
  </metadata>
  <g
     inkscape:label="Layer 1"
     inkscape:groupmode="layer"
     id="layer1"
     transform="translate(-100.50565,-31.873744)">
    <g
       transform="matrix(0.11095455,0,0,-0.11095455,-8.9775293,151.67581)"
       id="g4161">
      <path
         id="path672"
         style="fill:#533327;fill-opacity:1;fill-rule:evenodd;stroke:none;stroke-width:0.1"
         d="m 1069.64,1063.6 c 4.45,0 8.07,3.62 8.07,8.07 0,4.44 -3.62,8.07 -8.07,8.07 -4.44,0 -8.06,-3.63 -8.06,-8.07 0,-4.45 3.62,-8.07 8.06,-8.07"
         inkscape:connector-curvature="0" />
      <path
         id="path674"
         style="fill:#533327;fill-opacity:1;fill-rule:evenodd;stroke:none;stroke-width:0.1"
         d="m 1081.67,1059.8 c 4.44,0 8.06,3.63 8.06,8.07 0,4.44 -3.62,8.07 -8.06,8.07 -4.45,0 -8.07,-3.63 -8.07,-8.07 0,-4.44 3.62,-8.07 8.07,-8.07"
         inkscape:connector-curvature="0" />
      <path
         id="path676"
         style="fill:#533327;fill-opacity:1;fill-rule:evenodd;stroke:none;stroke-width:0.1"
         d="m 1091.79,1052.21 c 4.44,0 8.07,3.63 8.07,8.07 0,4.44 -3.63,8.07 -8.07,8.07 -4.44,0 -8.07,-3.63 -8.07,-8.07 0,-4.44 3.63,-8.07 8.07,-8.07"
         inkscape:connector-curvature="0" />
      <path
         id="path678"
         style="fill:#533327;fill-opacity:1;fill-rule:evenodd;stroke:none;stroke-width:0.1"
         d="m 1096.22,1040.51 c 4.44,0 8.07,3.62 8.07,8.06 0,4.45 -3.63,8.07 -8.07,8.07 -4.44,0 -8.07,-3.62 -8.07,-8.07 0,-4.44 3.63,-8.06 8.07,-8.06"
         inkscape:connector-curvature="0" />
      <path
         id="path680"
         style="fill:#533327;fill-opacity:1;fill-rule:evenodd;stroke:none;stroke-width:0.1"
         d="m 1097.17,1027.85 c 4.44,0 8.07,3.63 8.07,8.07 0,4.44 -3.63,8.07 -8.07,8.07 -4.45,0 -8.07,-3.63 -8.07,-8.07 0,-4.44 3.62,-8.07 8.07,-8.07"
         inkscape:connector-curvature="0" />
      <path
         id="path682"
         style="fill:#533327;fill-opacity:1;fill-rule:evenodd;stroke:none;stroke-width:0.1"
         d="m 1094.95,1014.25 c 4.45,0 8.07,3.62 8.07,8.07 0,4.44 -3.62,8.06 -8.07,8.06 -4.44,0 -8.06,-3.62 -8.06,-8.06 0,-4.45 3.62,-8.07 8.06,-8.07"
         inkscape:connector-curvature="0" />
      <path
         id="path684"
         style="fill:#533327;fill-opacity:1;fill-rule:evenodd;stroke:none;stroke-width:0.1"
         d="m 1088.31,1004.44 c 4.44,0 8.07,3.63 8.07,8.07 0,4.44 -3.63,8.07 -8.07,8.07 -4.44,0 -8.07,-3.63 -8.07,-8.07 0,-4.44 3.63,-8.07 8.07,-8.07"
         inkscape:connector-curvature="0" />
      <path
         id="path686"
         style="fill:#533327;fill-opacity:1;fill-rule:evenodd;stroke:none;stroke-width:0.1"
         d="m 1078.5,998.746 c 4.45,0 8.07,3.624 8.07,8.064 0,4.45 -3.62,8.07 -8.07,8.07 -4.44,0 -8.06,-3.62 -8.06,-8.07 0,-4.44 3.62,-8.064 8.06,-8.064"
         inkscape:connector-curvature="0" />
      <path
         id="path688"
         style="fill:#533327;fill-opacity:1;fill-rule:evenodd;stroke:none;stroke-width:0.1"
         d="m 1068.7,996.216 c 4.44,0 8.06,3.623 8.06,8.064 0,4.45 -3.62,8.07 -8.06,8.07 -4.45,0 -8.07,-3.62 -8.07,-8.07 0,-4.441 3.62,-8.064 8.07,-8.064"
         inkscape:connector-curvature="0" />
      <path
         id="path690"
         style="fill:#533327;fill-opacity:1;fill-rule:evenodd;stroke:none;stroke-width:0.1"
         d="m 1057.44,1063.6 c 4.44,0 8.06,3.62 8.06,8.07 0,4.44 -3.62,8.07 -8.06,8.07 -4.45,0 -8.07,-3.63 -8.07,-8.07 0,-4.45 3.62,-8.07 8.07,-8.07"
         inkscape:connector-curvature="0" />
      <path
         id="path692"
         style="fill:#533327;fill-opacity:1;fill-rule:evenodd;stroke:none;stroke-width:0.1"
         d="m 1045.41,1059.8 c 4.45,0 8.07,3.63 8.07,8.07 0,4.44 -3.62,8.07 -8.07,8.07 -4.44,0 -8.06,-3.63 -8.06,-8.07 0,-4.44 3.62,-8.07 8.06,-8.07"
         inkscape:connector-curvature="0" />
      <path
         id="path694"
         style="fill:#533327;fill-opacity:1;fill-rule:evenodd;stroke:none;stroke-width:0.1"
         d="m 1036.01,1050.78 c 4.83,0 8.78,3.95 8.78,8.78 0,4.84 -3.95,8.79 -8.78,8.79 -4.84,0 -8.79,-3.95 -8.79,-8.79 0,-4.83 3.95,-8.78 8.79,-8.78"
         inkscape:connector-curvature="0" />
      <path
         id="path696"
         style="fill:#533327;fill-opacity:1;fill-rule:evenodd;stroke:none;stroke-width:0.1"
         d="m 1030.86,1040.51 c 4.45,0 8.07,3.62 8.07,8.06 0,4.45 -3.62,8.07 -8.07,8.07 -4.44,0 -8.07,-3.62 -8.07,-8.07 0,-4.44 3.63,-8.06 8.07,-8.06"
         inkscape:connector-curvature="0" />
      <path
         id="path698"
         style="fill:#533327;fill-opacity:1;fill-rule:evenodd;stroke:none;stroke-width:0.1"
         d="m 1029.91,1027.85 c 4.45,0 8.07,3.63 8.07,8.07 0,4.44 -3.62,8.07 -8.07,8.07 -4.44,0 -8.06,-3.63 -8.06,-8.07 0,-4.44 3.62,-8.07 8.06,-8.07"
         inkscape:connector-curvature="0" />
      <path
         id="path700"
         style="fill:#533327;fill-opacity:1;fill-rule:evenodd;stroke:none;stroke-width:0.1"
         d="m 1032.13,1014.25 c 4.44,0 8.06,3.62 8.06,8.07 0,4.44 -3.62,8.06 -8.06,8.06 -4.45,0 -8.07,-3.62 -8.07,-8.06 0,-4.45 3.62,-8.07 8.07,-8.07"
         inkscape:connector-curvature="0" />
      <path
         id="path702"
         style="fill:#533327;fill-opacity:1;fill-rule:evenodd;stroke:none;stroke-width:0.1"
         d="m 1038.77,1004.44 c 4.44,0 8.07,3.63 8.07,8.07 0,4.44 -3.63,8.07 -8.07,8.07 -4.44,0 -8.07,-3.63 -8.07,-8.07 0,-4.44 3.63,-8.07 8.07,-8.07"
         inkscape:connector-curvature="0" />
      <path
         id="path704"
         style="fill:#533327;fill-opacity:1;fill-rule:evenodd;stroke:none;stroke-width:0.1"
         d="m 1048.58,998.746 c 4.44,0 8.06,3.624 8.06,8.064 0,4.45 -3.62,8.07 -8.06,8.07 -4.45,0 -8.07,-3.62 -8.07,-8.07 0,-4.44 3.62,-8.064 8.07,-8.064"
         inkscape:connector-curvature="0" />
      <path
         id="path706"
         style="fill:#533327;fill-opacity:1;fill-rule:evenodd;stroke:none;stroke-width:0.1"
         d="m 1058.38,996.216 c 4.45,0 8.07,3.623 8.07,8.064 0,4.45 -3.62,8.07 -8.07,8.07 -4.44,0 -8.06,-3.62 -8.06,-8.07 0,-4.441 3.62,-8.064 8.06,-8.064"
         inkscape:connector-curvature="0" />
      <path
         id="path708"
         style="fill:#cc8d87;fill-opacity:1;fill-rule:evenodd;stroke:none;stroke-width:0.1"
         d="m 1086.71,978.104 c -10.89,-7.453 9.73,-28.279 18.89,-38.267 8.92,-9.724 24.99,-25.247 29.94,-21.023 4.95,4.223 -8.5,20.666 -15.96,32.197 -7.16,11.067 -22.45,34.224 -32.87,27.093"
         inkscape:connector-curvature="0" />
      <path
         id="path710"
         style="fill:#cc8d87;fill-opacity:1;fill-rule:evenodd;stroke:none;stroke-width:0.1"
         d="m 1101.28,838.624 c -3.17,-37.479 -8.21,-91.995 -19.97,-91.995 -11.76,0 -16.03,68.826 -14.83,95.403 3.65,81.156 40.21,60.717 34.8,-3.408"
         inkscape:connector-curvature="0" />
      <path
         id="path712"
         style="fill:#cc8d87;fill-opacity:1;fill-rule:evenodd;stroke:none;stroke-width:0.1"
         d="m 1026.52,838.624 c 3.75,-37.479 9.63,-91.995 21.39,-91.995 11.76,0 14.96,68.826 13.36,95.403 -4.9,81.156 -41.15,60.717 -34.75,-3.408"
         inkscape:connector-curvature="0" />
      <path
         id="path714"
         style="fill:#cc8d87;fill-opacity:1;fill-rule:evenodd;stroke:none;stroke-width:0.1"
         d="m 1063.65,839.056 c 15.41,0 34.89,19.771 35.47,30.238 0.58,10.468 -4.36,20.353 -10.18,35.473 -5.81,15.119 2.91,36.926 9.89,58.152 10.76,32.752 -80.04,29.43 -70.37,0 6.98,-21.226 15.7,-43.033 9.89,-58.152 -5.82,-15.12 -10.76,-25.005 -10.18,-35.473 0.58,-10.467 20.06,-30.238 35.48,-30.238"
         inkscape:connector-curvature="0" />
      <path
         id="path716"
         style="fill:#cc8d87;fill-opacity:1;fill-rule:evenodd;stroke:none;stroke-width:0.1"
         d="m 1039.45,976.706 c 12.84,-3.056 4.32,-25.441 -0.65,-38.047 -4.84,-12.275 -14.92,-38.142 -21.06,-35.973 -6.14,2.168 -0.5,28.391 2.33,41.83 2.72,12.897 7.1,35.115 19.38,32.19"
         inkscape:connector-curvature="0" />
      <path
         id="path718"
         style="fill:#bb7d77;fill-opacity:1;fill-rule:evenodd;stroke:none;stroke-width:0.1"
         d="m 1083.2,984.015 c -10.23,2.904 -23.46,2.932 -34.44,0.34 4.39,-17.916 10.21,-23.634 16.68,-22.71 6.81,0.972 15.27,5.267 17.76,22.37"
         inkscape:connector-curvature="0" />
      <path
         id="path720"
         style="fill:#78d2db;fill-opacity:1;fill-rule:evenodd;stroke:none;stroke-width:0.1"
         d="m 1089.25,915.999 c -0.96,19.344 3.04,19.574 4.89,29.878 2.04,11.306 -10.59,17.151 -8.85,38.177 -1.58,0.586 -3.22,1.106 -4.92,1.55 -4.03,-9.123 -28.52,-12.085 -30.88,0.006 -2.41,-0.32 -4.6,-0.872 -6.6,-1.616 6.13,-14.289 -13.26,-26.617 -7.16,-44.949 1.24,-5.154 4.77,-12.174 3.11,-23.157 9.21,1.022 34.28,1.675 50.41,0.111"
         inkscape:connector-curvature="0" />
      <path
         id="path722"
         style="fill:#cc8d87;fill-opacity:1;fill-rule:evenodd;stroke:none;stroke-width:0.1"
         d="m 1092.63,749.32 c 0.92,-20.727 -5.84,-62.14 -5.53,-87.327 0.24,-18.999 -3.78,-25.552 -7.47,-21.251 -2.3,2.688 -4.54,11.685 -4.86,22.53 -0.79,27.157 -5.03,69.723 -2.73,92.219 5.09,49.855 16.78,79.366 20.59,-6.171"
         inkscape:connector-curvature="0" />
      <path
         id="path724"
         style="fill:#cc8d87;fill-opacity:1;fill-rule:evenodd;stroke:none;stroke-width:0.1"
         d="m 1037.45,749.32 c 1.33,-18.37 5.04,-62.906 3.32,-86.094 -1.18,-15.973 3.14,-26.334 6.55,-22.484 9.52,10.754 12.57,70.444 13.01,86.145 1.43,49.97 -29.07,107.976 -22.88,22.433"
         inkscape:connector-curvature="0" />
      <path
         id="path726"
         style="fill:#cc8d87;fill-opacity:1;fill-rule:evenodd;stroke:none;stroke-width:0.1"
         d="m 1132.35,930.923 c 2.37,-1.127 5.39,-5.512 4.4,-9.339 -1.36,-5.307 -6.15,-10.763 -10.05,-14.952 -6.62,-7.102 -22.09,-27.113 -26.11,-24.77 -5.48,3.201 8.04,23.432 13.06,33.138 4.62,8.943 11.8,19.204 18.7,15.923"
         inkscape:connector-curvature="0" />
      <path
         id="path728"
         style="fill:#64ccd2;fill-opacity:1;fill-rule:evenodd;stroke:none;stroke-width:0.1"
         d="m 1094.36,950.161 c 0.82,-12.827 -13.54,-11.992 -28.5,-12.318 -15.24,-0.331 -29.39,-2.647 -31.37,9.134 0.28,-4.196 1.04,-8.124 4.17,-10.617 6.87,-5.459 17.92,-2.59 27.84,-2.779 9.91,-0.189 20.45,-2.795 25.76,3.168 2.94,3.296 2.89,8.1 2.1,13.412"
         inkscape:connector-curvature="0" />
      <path
         id="path730"
         style="fill:#394f82;fill-opacity:1;fill-rule:evenodd;stroke:none;stroke-width:0.1"
         d="m 1107.75,813.55 c -6.85,11.581 0.93,65.203 -19.14,94.366 -9.53,-5.087 -40.91,-3.965 -49.66,0.723 -19.61,-27.735 -15.2,-80.036 -19.77,-94.786 3.6,-9.101 84.78,-10.455 88.57,-0.303"
         inkscape:connector-curvature="0" />
      <path
         id="path732"
         style="fill:#447186;fill-opacity:1;fill-rule:evenodd;stroke:none;stroke-width:0.1"
         d="m 1057.54,602.818 c 39,0 70.81,11.59 70.81,25.801 0,14.21 -31.81,25.801 -70.81,25.801 -38.99,0 -70.801,-11.591 -70.801,-25.801 0,-14.211 31.811,-25.801 70.801,-25.801"
         inkscape:connector-curvature="0" />
      <path
         id="path734"
         style="fill:#cc8d87;fill-opacity:1;fill-rule:evenodd;stroke:none;stroke-width:0.1"
         d="m 1054.53,664.359 c -1.32,-7.443 1.42,-22.91 -0.57,-27.817 -2,-4.908 -15.53,-6.069 -21.44,-12.457 -5.5,-5.949 -25.36,-5.441 -26.86,1.837 -0.63,3.067 4.9,6.442 11.58,9.393 2.13,0.939 6.74,4.383 12.77,8.783 5.8,4.235 11.77,14.69 11.78,18.139 0.05,8.667 14.25,10.652 12.74,2.122"
         inkscape:connector-curvature="0" />
      <path
         id="path736"
         style="fill:#cc8d87;fill-opacity:1;fill-rule:evenodd;stroke:none;stroke-width:0.1"
         d="m 1075.16,653.657 c 1.27,-7.215 -0.49,-18.319 -1.79,-28.569 -1.3,-10.249 7.34,-13.88 12.25,-13.785 4.9,0.095 13.74,7.026 10.53,16.001 -3.21,8.975 -10.79,23.562 -10.29,28.435 0.94,9.287 -12.48,8.105 -10.7,-2.082"
         inkscape:connector-curvature="0" />
      <path
         id="path738"
         style="fill:#d9b754;fill-opacity:1;fill-rule:evenodd;stroke:none;stroke-width:0.1"
         d="m 1090.33,641.261 c 0.79,-2.121 2.44,-15.107 2.62,-16.399 0.55,-3.901 -1.84,0.944 -8.06,0.815 -5.15,-0.106 -7.09,-5.523 -8.44,-2.261 -1.35,3.262 -0.97,17.432 -0.97,20.394 -0.57,-3.086 -0.7,-3.469 -1.09,-6.242 -0.39,-2.773 -2.05,-13.269 -0.94,-17.096 1.11,-3.827 4.99,-10.15 12.31,-9.207 7.32,0.943 11.98,7.654 11.1,13.145 -0.89,5.49 -4.82,14.64 -5.76,16.248 -0.94,1.608 -2.03,3.983 -0.77,0.603"
         inkscape:connector-curvature="0" />
      <path
         id="path740"
         style="fill:#bb7d77;fill-opacity:1;fill-rule:evenodd;stroke:none;stroke-width:0.1"
         d="m 1071.43,1016.28 h -15.35 c -0.03,0 -0.05,-0.03 -0.05,-0.06 v -29.126 c 0,-4.236 3.46,-7.701 7.7,-7.701 v 0 c 4.23,0 7.7,3.465 7.7,7.701 v 29.186"
         inkscape:connector-curvature="0" />
      <path
         id="path742"
         style="fill:#cc8d87;fill-opacity:1;fill-rule:evenodd;stroke:none;stroke-width:0.1"
         d="m 1063.34,1067.65 c -26.9,0 -28.67,-31.54 -23.19,-52.69 2.78,-10.72 15.08,-20.126 23.19,-20.126 8.34,0 20.56,10.346 23.9,21.876 6.04,20.8 2.45,50.94 -23.9,50.94"
         inkscape:connector-curvature="0" />
      <path
         id="path744"
         style="fill:#cd4a5b;fill-opacity:1;fill-rule:evenodd;stroke:none;stroke-width:0.1"
         d="m 1050.3,1012.24 c 6.8,-4.32 19.07,-4.24 25.68,-0.1 -5.84,-1.14 -20.19,-1.75 -25.68,0.1"
         inkscape:connector-curvature="0" />
      <path
         id="path746"
         style="fill:#bc3f50;fill-opacity:1;fill-rule:evenodd;stroke:none;stroke-width:0.1"
         d="m 1050.3,1012.24 c 6.94,-3.5 19.21,-3.52 25.68,-0.1 -5.06,-7.17 -19.5,-7.66 -25.68,0.1"
         inkscape:connector-curvature="0" />
      <path
         id="path748"
         style="fill:#46454e;fill-opacity:1;fill-rule:evenodd;stroke:none;stroke-width:0.1"
         d="m 1073.74,1027.76 c 1.06,0 1.93,2.17 1.93,4.82 0,2.64 -0.87,4.81 -1.93,4.81 -1.06,0 -1.92,-2.17 -1.92,-4.81 0,-2.65 0.86,-4.82 1.92,-4.82"
         inkscape:connector-curvature="0" />
      <path
         id="path750"
         style="fill:#46454e;fill-opacity:1;fill-rule:evenodd;stroke:none;stroke-width:0.1"
         d="m 1053.67,1027.76 c 1.06,0 1.93,2.17 1.93,4.82 0,2.64 -0.87,4.81 -1.93,4.81 -1.06,0 -1.92,-2.17 -1.92,-4.81 0,-2.65 0.86,-4.82 1.92,-4.82"
         inkscape:connector-curvature="0" />
      <path
         id="path752"
         style="fill:#ad6c69;fill-opacity:1;fill-rule:evenodd;stroke:none;stroke-width:0.1"
         d="m 1065.56,1018.51 c -4.8,-1 -6.76,1.93 -6.8,4.39 -1.22,-4.52 2.06,-6.97 6.8,-4.39"
         inkscape:connector-curvature="0" />
      <path
         id="path754"
         style="fill:#533327;fill-opacity:1;fill-rule:evenodd;stroke:none;stroke-width:0.1"
         d="m 1057.67,1042.02 c -1.91,0.84 -5.01,2.42 -9.11,0.08 -1.84,-1.05 -1.68,-1.76 0.32,-0.83 3.41,1.58 5.25,0.46 8.28,-0.8 1.18,-0.49 1.82,0.97 0.51,1.55"
         inkscape:connector-curvature="0" />
      <path
         id="path756"
         style="fill:#533327;fill-opacity:1;fill-rule:evenodd;stroke:none;stroke-width:0.1"
         d="m 1069.93,1042.02 c 1.91,0.84 5.02,2.42 9.11,0.08 1.85,-1.05 1.69,-1.76 -0.32,-0.83 -3.41,1.58 -5.25,0.46 -8.28,-0.8 -1.18,-0.49 -1.81,0.97 -0.51,1.55"
         inkscape:connector-curvature="0" />
      <path
         id="path758"
         style="fill:#533327;fill-opacity:1;fill-rule:evenodd;stroke:none;stroke-width:0.1"
         d="m 1090.69,1032.96 c -0.15,-2.31 -2.92,-6.96 -2.8,-1.55 0.12,5.41 -0.61,18.99 -6.26,24.65 -5.65,5.65 -12.14,2.4 -18.03,2.4 -0.05,0 -0.09,0 -0.14,0 -0.05,0 -0.09,0 -0.14,0 -5.89,0 -12.38,3.25 -18.04,-2.4 -5.65,-5.66 -6.37,-19.24 -6.25,-24.65 0.12,-5.41 -2.01,-0.63 -2.16,1.68 -0.18,2.75 -2.65,10.1 1.81,20.67 2.43,5.76 7.73,13.88 17.41,13.01 2.47,2.73 7.01,2.86 9.56,2.58 12.55,-1.41 18.87,-8.13 22.07,-15.72 4.47,-10.56 3.16,-17.92 2.97,-20.67"
         inkscape:connector-curvature="0" />
      <path
         id="path760"
         style="fill:#cc8d87;fill-opacity:1;fill-rule:evenodd;stroke:none;stroke-width:0.1"
         d="m 1091.76,1034.48 c -1.74,0.36 -3.75,-2.25 -4.47,-5.82 -0.73,-3.57 0.09,-6.75 1.84,-7.1 1.74,-0.36 3.74,2.25 4.47,5.82 0.73,3.56 -0.1,6.75 -1.84,7.1"
         inkscape:connector-curvature="0" />
      <path
         id="path762"
         style="fill:#cc8d87;fill-opacity:1;fill-rule:evenodd;stroke:none;stroke-width:0.1"
         d="m 1035.66,1034.48 c 1.74,0.36 3.74,-2.25 4.47,-5.82 0.73,-3.57 -0.1,-6.75 -1.84,-7.1 -1.74,-0.36 -3.75,2.25 -4.47,5.82 -0.73,3.56 0.09,6.75 1.84,7.1"
         inkscape:connector-curvature="0" />
      <path
         id="path764"
         style="fill:#533327;fill-opacity:1;fill-rule:evenodd;stroke:none;stroke-width:0.1"
         d="m 1039.98,1034.42 c 4.44,0 8.07,3.63 8.07,8.07 0,4.44 -3.63,8.07 -8.07,8.07 -4.44,0 -8.07,-3.63 -8.07,-8.07 0,-4.44 3.63,-8.07 8.07,-8.07"
         inkscape:connector-curvature="0" />
      <path
         id="path766"
         style="fill:#533327;fill-opacity:1;fill-rule:evenodd;stroke:none;stroke-width:0.1"
         d="m 1049.28,1040.36 c 4.45,0 8.07,3.62 8.07,8.06 0,4.45 -3.62,8.07 -8.07,8.07 -4.44,0 -8.06,-3.62 -8.06,-8.07 0,-4.44 3.62,-8.06 8.06,-8.06"
         inkscape:connector-curvature="0" />
      <path
         id="path768"
         style="fill:#533327;fill-opacity:1;fill-rule:evenodd;stroke:none;stroke-width:0.1"
         d="m 1059.94,1046.96 c 4.44,0 8.06,3.63 8.06,8.07 0,4.44 -3.62,8.07 -8.06,8.07 -4.45,0 -8.07,-3.63 -8.07,-8.07 0,-4.44 3.62,-8.07 8.07,-8.07"
         inkscape:connector-curvature="0" />
      <path
         id="path770"
         style="fill:#533327;fill-opacity:1;fill-rule:evenodd;stroke:none;stroke-width:0.1"
         d="m 1070.99,1051.55 c 4.45,0 8.07,3.62 8.07,8.07 0,4.44 -3.62,8.06 -8.07,8.06 -4.44,0 -8.06,-3.62 -8.06,-8.06 0,-4.45 3.62,-8.07 8.06,-8.07"
         inkscape:connector-curvature="0" />
      <path
         id="path772"
         style="fill:#533327;fill-opacity:1;fill-rule:evenodd;stroke:none;stroke-width:0.1"
         d="m 1078.81,1054.65 c 4.45,0 8.07,3.62 8.07,8.07 0,4.44 -3.62,8.06 -8.07,8.06 -4.44,0 -8.06,-3.62 -8.06,-8.06 0,-4.45 3.62,-8.07 8.06,-8.07"
         inkscape:connector-curvature="0" />
      <path
         id="path774"
         style="fill:#533327;fill-opacity:1;fill-rule:evenodd;stroke:none;stroke-width:0.1"
         d="m 1049.02,1048.85 c 4.44,0 8.06,3.63 8.06,8.07 0,4.44 -3.62,8.07 -8.06,8.07 -4.45,0 -8.07,-3.63 -8.07,-8.07 0,-4.44 3.62,-8.07 8.07,-8.07"
         inkscape:connector-curvature="0" />
      <path
         id="path776"
         style="fill:#533327;fill-opacity:1;fill-rule:evenodd;stroke:none;stroke-width:0.1"
         d="m 1086.42,1048.57 c 4.44,0 8.06,3.62 8.06,8.07 0,4.44 -3.62,8.07 -8.06,8.07 -4.45,0 -8.07,-3.63 -8.07,-8.07 0,-4.45 3.62,-8.07 8.07,-8.07"
         inkscape:connector-curvature="0" />
      <path
         id="path778"
         style="fill:#533327;fill-opacity:1;fill-rule:evenodd;stroke:none;stroke-width:0.1"
         d="m 1092.91,1038.29 c 4.44,0 8.07,3.62 8.07,8.07 0,4.44 -3.63,8.06 -8.07,8.06 -4.44,0 -8.07,-3.62 -8.07,-8.06 0,-4.45 3.63,-8.07 8.07,-8.07"
         inkscape:connector-curvature="0" />
      <path
         id="path780"
         style="fill:#cc8d87;fill-opacity:1;fill-rule:evenodd;stroke:none;stroke-width:0.1"
         d="m 1107.89,885.894 c -5.12,-3.656 -2.03,-10.173 -8.5,-8.964 -2.69,0.503 -6.18,-0.516 -7.38,-2.909 -1.2,-2.393 -1.94,1.53 0.96,4.527 1.3,1.348 1.31,2.337 -0.95,1.51 -1.78,-0.648 -2.44,-1.918 -3.33,-3.723 -0.63,-1.275 -1.68,0.557 -0.15,3.542 1.16,2.256 2.13,2.472 3.83,2.988 1.69,0.516 -2.15,0.977 -4.21,-0.276 -1.61,-0.977 -1.8,-2.198 -2.17,-3.673 -0.36,-1.475 -2.13,0.636 -0.36,3.749 1.31,2.31 3.25,3.594 6.01,3.702 2.21,0.087 -1.73,1.575 -6.13,-1.148 -2.76,-1.709 -3,1.242 0.05,2.603 3.33,1.487 4.61,2.03 8.06,0.761 2.95,-1.09 6.11,-1.084 7.61,3.193 1.04,2.956 9.35,-3.96 6.66,-5.882"
         inkscape:connector-curvature="0" />
      <path
         id="path782"
         style="fill:#d9b754;fill-opacity:1;fill-rule:evenodd;stroke:none;stroke-width:0.1"
         d="m 1055.12,637.096 c -1.46,-5.679 -12.8,-5.478 -22.4,-14.138 -8.42,-7.581 -28.64,-3.147 -27.91,3.21 0.32,2.765 3.81,6.094 9.1,8.583 1.94,0.618 8.3,-4.995 8.52,-9.132 9.9,-1.617 32.53,17.297 33.13,24.949 0.63,-4.94 0.58,-9.496 -0.44,-13.472"
         inkscape:connector-curvature="0" />
      <path
         id="path784"
         style="fill:#cdaa42;fill-opacity:1;fill-rule:evenodd;stroke:none;stroke-width:0.1"
         d="m 1000.05,874.314 h 42.19 v -29.151 l -2.53,-2.14 -38.87,2.812 -0.79,28.479"
         inkscape:connector-curvature="0" />
      <path
         id="path786"
         style="fill:#ffffff;fill-opacity:1;fill-rule:evenodd;stroke:none;stroke-width:0.1"
         d="m 1000.85,873.079 -2.782,-1.94 0.484,-26.601 40.238,-0.29 2.59,2.133 v 26.698 h -40.53"
         inkscape:connector-curvature="0" />
      <path
         id="path788"
         style="fill:#cdaa42;fill-opacity:1;fill-rule:evenodd;stroke:none;stroke-width:0.1"
         d="m 997.519,843.023 h 42.191 v 29.151 h -42.191 v -29.151"
         inkscape:connector-curvature="0" />
      <path
         id="path790"
         style="fill:#cc8d87;fill-opacity:1;fill-rule:evenodd;stroke:none;stroke-width:0.1"
         d="m 1025.77,908.639 c 0.35,-3.168 0.32,-7.061 0.05,-11.424 -0.39,-6.054 -3.08,-16.585 -3.54,-28.779 -0.22,-5.848 -2.25,-10.697 -3.99,-10.739 -6.34,-0.153 -4.63,28.229 -4.32,39.152 0.16,5.468 0.66,10.473 1.63,14.159 3.49,0.067 7.19,-1.38 10.08,-2.513 l 0.09,0.144"
         inkscape:connector-curvature="0" />
      <path
         id="path792"
         style="fill:#cc8d87;fill-opacity:1;fill-rule:evenodd;stroke:none;stroke-width:0.1"
         d="m 1014.17,867.533 c -0.21,7.307 8.33,6.073 8.59,1.265 0.31,-5.47 5.09,-11.286 7.49,-16.455 5.83,-12.554 -2.26,-1.647 -2.35,-2.27 -0.21,-1.464 -0.41,-3.517 -0.45,-6.812 -0.02,-2.363 -1.57,-2.594 -2.26,-1.776 -0.48,0.571 -1,0.504 -1.21,0.298 -1.14,-1.124 -2.64,-0.541 -3.04,0.431 -0.33,0.779 -0.97,0.807 -1.59,0.311 -0.73,-0.583 -1.69,-0.919 -2.42,-0.291 -0.7,0.604 -0.68,2.86 -1.62,1.678 -1.12,-1.425 -2.01,-0.918 -2.54,-0.165 -1.46,2.058 1.53,19.444 1.4,23.786"
         inkscape:connector-curvature="0" />
      <path
         id="path794"
         style="fill:#ead089;fill-opacity:1;fill-rule:evenodd;stroke:none;stroke-width:0.1"
         d="m 1064.6,894.703 c 1.18,0 2.14,0.96 2.14,2.136 0,1.177 -0.96,2.136 -2.14,2.136 -1.18,0 -2.13,-0.959 -2.13,-2.136 0,-1.176 0.95,-2.136 2.13,-2.136"
         inkscape:connector-curvature="0" />
      <path
         id="path796"
         style="fill:#ead089;fill-opacity:1;fill-rule:evenodd;stroke:none;stroke-width:0.1"
         d="m 1064.6,882.873 c 1.18,0 2.14,0.959 2.14,2.136 0,1.176 -0.96,2.136 -2.14,2.136 -1.18,0 -2.13,-0.96 -2.13,-2.136 0,-1.177 0.95,-2.136 2.13,-2.136"
         inkscape:connector-curvature="0" />
      <path
         id="path798"
         style="fill:#ead089;fill-opacity:1;fill-rule:evenodd;stroke:none;stroke-width:0.1"
         d="m 1064.6,871.042 c 1.18,0 2.14,0.96 2.14,2.136 0,1.177 -0.96,2.137 -2.14,2.137 -1.18,0 -2.13,-0.96 -2.13,-2.137 0,-1.176 0.95,-2.136 2.13,-2.136"
         inkscape:connector-curvature="0" />
      <path
         id="path800"
         style="fill:#ead089;fill-opacity:1;fill-rule:evenodd;stroke:none;stroke-width:0.1"
         d="m 1064.6,859.212 c 1.18,0 2.14,0.959 2.14,2.136 0,1.177 -0.96,2.136 -2.14,2.136 -1.18,0 -2.13,-0.959 -2.13,-2.136 0,-1.177 0.95,-2.136 2.13,-2.136"
         inkscape:connector-curvature="0" />
      <path
         id="path802"
         style="fill:#ead089;fill-opacity:1;fill-rule:evenodd;stroke:none;stroke-width:0.1"
         d="m 1064.6,847.381 c 1.18,0 2.14,0.96 2.14,2.137 0,1.176 -0.96,2.136 -2.14,2.136 -1.18,0 -2.13,-0.96 -2.13,-2.136 0,-1.177 0.95,-2.137 2.13,-2.137"
         inkscape:connector-curvature="0" />
      <path
         id="path804"
         style="fill:#ead089;fill-opacity:1;fill-rule:evenodd;stroke:none;stroke-width:0.1"
         d="m 1064.6,835.551 c 1.18,0 2.14,0.96 2.14,2.136 0,1.177 -0.96,2.136 -2.14,2.136 -1.18,0 -2.13,-0.959 -2.13,-2.136 0,-1.176 0.95,-2.136 2.13,-2.136"
         inkscape:connector-curvature="0" />
      <path
         id="path806"
         style="fill:#ead089;fill-opacity:1;fill-rule:evenodd;stroke:none;stroke-width:0.1"
         d="m 1064.6,823.721 c 1.18,0 2.14,0.959 2.14,2.136 0,1.177 -0.96,2.136 -2.14,2.136 -1.18,0 -2.13,-0.959 -2.13,-2.136 0,-1.177 0.95,-2.136 2.13,-2.136"
         inkscape:connector-curvature="0" />
      <path
         id="path808"
         style="fill:#ead089;fill-opacity:1;fill-rule:evenodd;stroke:none;stroke-width:0.1"
         d="m 1064.6,811.89 c 1.18,0 2.14,0.96 2.14,2.136 0,1.177 -0.96,2.137 -2.14,2.137 -1.18,0 -2.13,-0.96 -2.13,-2.137 0,-1.176 0.95,-2.136 2.13,-2.136"
         inkscape:connector-curvature="0" />
      <path
         id="path810"
         style="fill:#3a241e;fill-opacity:1;fill-rule:evenodd;stroke:none;stroke-width:0.1"
         d="m 1044.62,1049.33 c 1.07,-1.54 2.85,-2.54 4.87,-2.54 3.27,0 5.92,2.65 5.92,5.92 0,2.02 -1,3.8 -2.54,4.87 0.67,-0.96 1.06,-2.12 1.06,-3.38 0,-3.28 -2.65,-5.93 -5.93,-5.93 -1.26,0 -2.42,0.39 -3.38,1.06"
         inkscape:connector-curvature="0" />
      <path
         id="path812"
         style="fill:#3a241e;fill-opacity:1;fill-rule:evenodd;stroke:none;stroke-width:0.1"
         d="m 1042.33,1044.33 c -1.07,-1.54 -2.85,-2.54 -4.87,-2.54 -3.27,0 -5.93,2.65 -5.93,5.93 0,2.01 1.01,3.79 2.55,4.87 -0.67,-0.96 -1.07,-2.13 -1.07,-3.39 0,-3.27 2.66,-5.93 5.93,-5.93 1.26,0 2.43,0.39 3.39,1.06"
         inkscape:connector-curvature="0" />
      <path
         id="path814"
         style="fill:#3a241e;fill-opacity:1;fill-rule:evenodd;stroke:none;stroke-width:0.1"
         d="m 1067.18,1060.7 c 1.07,-1.53 2.85,-2.54 4.87,-2.54 3.28,0 5.93,2.65 5.93,5.93 0,2.01 -1.01,3.79 -2.54,4.86 0.66,-0.96 1.06,-2.12 1.06,-3.38 0,-3.27 -2.66,-5.93 -5.93,-5.93 -1.26,0 -2.43,0.39 -3.39,1.06"
         inkscape:connector-curvature="0" />
      <path
         id="path816"
         style="fill:#3a241e;fill-opacity:1;fill-rule:evenodd;stroke:none;stroke-width:0.1"
         d="m 1064.08,1065.83 c -0.91,-1.32 -2.44,-2.18 -4.17,-2.18 -2.81,0 -5.09,2.28 -5.09,5.09 0,1.73 0.86,3.26 2.18,4.18 -0.57,-0.83 -0.91,-1.83 -0.91,-2.91 0,-2.81 2.28,-5.09 5.09,-5.09 1.08,0 2.08,0.34 2.9,0.91"
         inkscape:connector-curvature="0" />
      <path
         id="path818"
         style="fill:#3a241e;fill-opacity:1;fill-rule:evenodd;stroke:none;stroke-width:0.1"
         d="m 1046.5,1058.86 c -0.92,-1.32 -2.45,-2.18 -4.18,-2.18 -2.81,0 -5.08,2.28 -5.08,5.09 0,1.73 0.86,3.26 2.18,4.17 -0.58,-0.82 -0.91,-1.82 -0.91,-2.9 0,-2.81 2.28,-5.09 5.09,-5.09 1.08,0 2.08,0.34 2.9,0.91"
         inkscape:connector-curvature="0" />
      <path
         id="path820"
         style="fill:#3a241e;fill-opacity:1;fill-rule:evenodd;stroke:none;stroke-width:0.1"
         d="m 1087.23,1054.15 c 0.83,-1.2 2.22,-1.98 3.78,-1.98 2.55,0 4.61,2.07 4.61,4.61 0,1.56 -0.78,2.95 -1.98,3.78 0.52,-0.75 0.83,-1.65 0.83,-2.63 0,-2.54 -2.07,-4.61 -4.61,-4.61 -0.98,0 -1.88,0.31 -2.63,0.83"
         inkscape:connector-curvature="0" />
      <path
         id="path822"
         style="fill:#3a241e;fill-opacity:1;fill-rule:evenodd;stroke:none;stroke-width:0.1"
         d="m 1100.06,1038.47 c -0.83,-1.2 -2.21,-1.98 -3.78,-1.98 -2.54,0 -4.6,2.06 -4.6,4.6 0,1.57 0.78,2.95 1.97,3.79 -0.52,-0.75 -0.82,-1.66 -0.82,-2.63 0,-2.55 2.06,-4.61 4.6,-4.61 0.98,0 1.89,0.31 2.63,0.83"
         inkscape:connector-curvature="0" />
      <path
         id="path824"
         style="fill:#3a241e;fill-opacity:1;fill-rule:evenodd;stroke:none;stroke-width:0.1"
         d="m 1085.49,1011.06 c 0.83,-1.19 2.21,-1.98 3.78,-1.98 2.54,0 4.61,2.07 4.61,4.61 0,1.57 -0.79,2.95 -1.98,3.78 0.52,-0.74 0.82,-1.65 0.82,-2.63 0,-2.54 -2.06,-4.6 -4.6,-4.6 -0.98,0 -1.89,0.3 -2.63,0.82"
         inkscape:connector-curvature="0" />
      <path
         id="path826"
         style="fill:#3a241e;fill-opacity:1;fill-rule:evenodd;stroke:none;stroke-width:0.1"
         d="m 1038.44,1016.13 c -0.83,-1.19 -2.22,-1.98 -3.78,-1.98 -2.54,0 -4.61,2.07 -4.61,4.61 0,1.57 0.78,2.95 1.98,3.78 -0.52,-0.75 -0.83,-1.65 -0.83,-2.63 0,-2.54 2.07,-4.6 4.61,-4.6 0.98,0 1.88,0.3 2.63,0.82"
         inkscape:connector-curvature="0" />
      <path
         id="path828"
         style="fill:#3a241e;fill-opacity:1;fill-rule:evenodd;stroke:none;stroke-width:0.1"
         d="m 1024.66,1036.09 c 0.83,-1.2 2.21,-1.98 3.78,-1.98 2.54,0 4.6,2.07 4.6,4.61 0,1.57 -0.78,2.95 -1.97,3.78 0.52,-0.75 0.82,-1.65 0.82,-2.63 0,-2.54 -2.06,-4.6 -4.6,-4.6 -0.98,0 -1.89,0.3 -2.63,0.82"
         inkscape:connector-curvature="0" />
    </g>
  </g>
</svg>
