<?xml version="1.0" encoding="UTF-8" standalone="no"?>
<!-- Created with Inkscape (http://www.inkscape.org/) -->

<svg
   xmlns:dc="http://purl.org/dc/elements/1.1/"
   xmlns:cc="http://creativecommons.org/ns#"
   xmlns:rdf="http://www.w3.org/1999/02/22-rdf-syntax-ns#"
   xmlns:svg="http://www.w3.org/2000/svg"
   xmlns="http://www.w3.org/2000/svg"
   xmlns:sodipodi="http://sodipodi.sourceforge.net/DTD/sodipodi-0.dtd"
   xmlns:inkscape="http://www.inkscape.org/namespaces/inkscape"
   width="16.058832mm"
   height="52.916668mm"
   viewBox="0 0 16.058832 52.916668"
   version="1.1"
   id="svg6853"
   inkscape:version="0.92.3 (2405546, 2018-03-11)"
   sodipodi:docname="2.svg">
  <defs
     id="defs6847" />
  <sodipodi:namedview
     id="base"
     pagecolor="#ffffff"
     bordercolor="#666666"
     borderopacity="1.0"
     inkscape:pageopacity="0.0"
     inkscape:pageshadow="2"
     inkscape:zoom="0.35"
     inkscape:cx="675.76437"
     inkscape:cy="-442.75285"
     inkscape:document-units="mm"
     inkscape:current-layer="layer1"
     showgrid="false"
     fit-margin-top="0"
     fit-margin-left="0"
     fit-margin-right="0"
     fit-margin-bottom="0"
     inkscape:window-width="1613"
     inkscape:window-height="995"
     inkscape:window-x="67"
     inkscape:window-y="27"
     inkscape:window-maximized="1" />
  <metadata
     id="metadata6850">
    <rdf:RDF>
      <cc:Work
         rdf:about="">
        <dc:format>image/svg+xml</dc:format>
        <dc:type
           rdf:resource="http://purl.org/dc/dcmitype/StillImage" />
        <dc:title></dc:title>
      </cc:Work>
    </rdf:RDF>
  </metadata>
  <g
     inkscape:label="Layer 1"
     inkscape:groupmode="layer"
     id="layer1"
     transform="translate(199.96266,21.228359)">
    <g
       transform="matrix(0.07912418,0,0,0.07912418,-230.78606,-31.780363)"
       id="g6752">
      <path
         inkscape:connector-curvature="0"
         d="m 454.49999,599.02403 c 2.84933,36.23999 -1.00133,154.22399 15.276,136.12666 12.20933,-13.572 15.79733,-85.53733 17.88,-104.71067 6.65733,-61.30533 -41.41067,-136.36133 -33.156,-31.41599"
         style="fill:#f3c3bc;fill-opacity:1;fill-rule:evenodd;stroke:none;stroke-width:0.13333333"
         id="path936" />
      <path
         inkscape:connector-curvature="0"
         d="m 526.53465,599.02403 c -2.84933,36.23999 1,154.22399 -15.27733,136.12666 -12.208,-13.57067 -11.12933,-84.95333 -13.21067,-104.128 -6.65733,-61.304 36.74267,-136.944 28.488,-31.99866"
         style="fill:#f3c3bc;fill-opacity:1;fill-rule:evenodd;stroke:none;stroke-width:0.13333333"
         id="path938" />
      <path
         inkscape:connector-curvature="0"
         d="m 491.03599,802.14002 c 55.89333,0 101.47866,-15.55333 101.47866,-34.624 0,-19.06933 -45.58533,-34.624 -101.47866,-34.624 -55.89333,0 -101.47867,15.55467 -101.47867,34.624 0,19.07067 45.58534,34.624 101.47867,34.624"
         style="fill:#447186;fill-opacity:1;fill-rule:evenodd;stroke:none;stroke-width:0.13333333"
         id="path940" />
      <path
         inkscape:connector-curvature="0"
         d="m 477.58665,740.41335 c 0.50667,5.652 0.73734,10.64667 -0.404,13.45467 -2.884,7.10133 -22.45866,8.78 -31.01066,18.024 -7.964,8.608 -36.69733,7.87333 -38.87067,-2.65867 -0.22666,-1.1 -0.44933,-4.94666 0.31067,-6.08533 2.30133,-3.45333 9.17467,-4.29333 16.45067,-7.50533 3.076,-1.35867 10.708,-8.592 19.43066,-14.95867 0.16,-0.116 0.31867,-0.236 0.47867,-0.35467 1.808,-0.0627 3.48267,0.28934 5.03733,1.11867 4.06,2.16533 3.248,4.872 7.84934,5.684 4.6,0.81067 15.69733,0.54 18.13199,-5.684 0.89334,-0.31867 1.756,-0.66533 2.596,-1.03467"
         style="fill:#2e2f3d;fill-opacity:1;fill-rule:evenodd;stroke:none;stroke-width:0.13333333"
         id="path942" />
      <path
         inkscape:connector-curvature="0"
         d="m 476.84399,709.80536 c -3.04267,10.35733 3.22266,32.06799 0.33866,39.16799 -2.884,7.10134 -22.45866,8.78134 -31.01066,18.02534 -7.964,8.608 -36.69733,7.872 -38.87067,-2.66 -0.91466,-4.43734 7.084,-9.32 16.76134,-13.59067 3.07466,-1.35733 12.13066,-7.488 20.852,-13.85333 8.396,-6.128 15.308,-18.596 15.04666,-23.70667 -0.72533,-14.21066 20.45733,-15.552 16.88267,-3.38266"
         style="fill:#f3c3bc;fill-opacity:1;fill-rule:evenodd;stroke:none;stroke-width:0.13333333"
         id="path944" />
      <path
         inkscape:connector-curvature="0"
         d="m 476.34665,721.18402 c 2.56267,8.15867 1.976,24.98267 0.836,27.78933 -2.88266,7.1 -22.45866,8.78134 -31.01066,18.02534 -7.964,8.60666 -35.964,7.97733 -38.136,-2.55467 -0.91467,-4.43733 5.87733,-9.42533 15.552,-13.696 1.84933,-0.816 19.29333,-10.58 27.57467,-20.36133 1.908,-2.25333 0.292,-6.31467 -0.80134,-8.26667 -1.668,-2.98 14.49734,-6.264 14.876,-1.24533 0.0973,1.27067 0.96267,3.36133 0.876,5.22133 10.88667,1.33734 9.56,-2.56666 10.23333,-4.912"
         style="fill:#424959;fill-opacity:1;fill-rule:evenodd;stroke:none;stroke-width:0.13333333"
         id="path946" />
      <path
         inkscape:connector-curvature="0"
         d="m 466.83065,726.21602 c -2.01599,6.04934 -16.09333,21.89333 -22.49599,26.75467 -14.53867,11.04 -25.78134,1.41733 -21.00667,-1.34134"
         style="fill:none;stroke:#2e2f3d;stroke-width:1.59986663;stroke-linecap:butt;stroke-linejoin:miter;stroke-miterlimit:22.92560005;stroke-dasharray:none;stroke-opacity:1"
         id="path948" />
      <path
         inkscape:connector-curvature="0"
         d="m 445.96666,748.30802 -4.29867,-9.22133"
         style="fill:none;stroke:#2e2f3d;stroke-width:2.55986643;stroke-linecap:round;stroke-linejoin:round;stroke-miterlimit:22.92560005;stroke-dasharray:none;stroke-opacity:1"
         id="path950" />
      <path
         inkscape:connector-curvature="0"
         d="m 450.11066,743.73469 -4.3,-9.22133"
         style="fill:none;stroke:#2e2f3d;stroke-width:2.55986643;stroke-linecap:round;stroke-linejoin:round;stroke-miterlimit:22.92560005;stroke-dasharray:none;stroke-opacity:1"
         id="path952" />
      <path
         inkscape:connector-curvature="0"
         d="m 454.06132,739.77869 -4.19866,-8.412"
         style="fill:none;stroke:#2e2f3d;stroke-width:2.55986643;stroke-linecap:round;stroke-linejoin:round;stroke-miterlimit:22.92560005;stroke-dasharray:none;stroke-opacity:1"
         id="path954" />
      <path
         inkscape:connector-curvature="0"
         d="m 436.15466,742.82535 12.69466,1.12134"
         style="fill:none;stroke:#2e2f3d;stroke-width:2.55986643;stroke-linecap:round;stroke-linejoin:round;stroke-miterlimit:22.92560005;stroke-dasharray:none;stroke-opacity:1"
         id="path956" />
      <path
         inkscape:connector-curvature="0"
         d="m 441.02932,738.69735 12.69334,1.12"
         style="fill:none;stroke:#2e2f3d;stroke-width:2.55986643;stroke-linecap:round;stroke-linejoin:round;stroke-miterlimit:22.92560005;stroke-dasharray:none;stroke-opacity:1"
         id="path958" />
      <path
         inkscape:connector-curvature="0"
         d="m 445.16266,734.85202 12.90266,-0.032"
         style="fill:none;stroke:#2e2f3d;stroke-width:2.55986643;stroke-linecap:round;stroke-linejoin:round;stroke-miterlimit:22.92560005;stroke-dasharray:none;stroke-opacity:1"
         id="path960" />
      <path
         inkscape:connector-curvature="0"
         d="m 440.12532,750.99335 -4.14133,-8.27466"
         style="fill:none;stroke:#2e2f3d;stroke-width:2.55986643;stroke-linecap:round;stroke-linejoin:round;stroke-miterlimit:22.92560005;stroke-dasharray:none;stroke-opacity:1"
         id="path962" />
      <path
         inkscape:connector-curvature="0"
         d="m 430.94399,746.77335 14.11467,1.752"
         style="fill:none;stroke:#2e2f3d;stroke-width:2.55986643;stroke-linecap:round;stroke-linejoin:round;stroke-miterlimit:22.92560005;stroke-dasharray:none;stroke-opacity:1"
         id="path964" />
      <path
         inkscape:connector-curvature="0"
         d="m 424.65732,750.02135 15.896,1.54267"
         style="fill:none;stroke:#2e2f3d;stroke-width:2.55986643;stroke-linecap:round;stroke-linejoin:round;stroke-miterlimit:22.92560005;stroke-dasharray:none;stroke-opacity:1"
         id="path966" />
      <path
         inkscape:connector-curvature="0"
         d="m 434.15199,755.39469 -3.30267,-8.58934"
         style="fill:none;stroke:#2e2f3d;stroke-width:2.55986643;stroke-linecap:round;stroke-linejoin:round;stroke-miterlimit:22.92560005;stroke-dasharray:none;stroke-opacity:1"
         id="path968" />
      <path
         inkscape:connector-curvature="0"
         d="m 426.38666,772.89869 c -10.15867,1.19333 -19.828,-0.53334 -19.08534,-8.56 0.20934,-2.25734 1.31867,-4.55334 4.41867,-6.86534 0.11867,-0.003 0.23733,-0.004 0.356,-0.004 7.78933,0 14.12533,6.872 14.31067,15.42934"
         style="fill:#2e2f3d;fill-opacity:1;fill-rule:evenodd;stroke:none;stroke-width:0.13333333"
         id="path970" />
      <path
         inkscape:connector-curvature="0"
         d="m 478.20665,731.93202 c 1.316,7.45867 0.28134,17.14533 -0.48933,19.044 -0.868,2.13733 -3.672,4.01867 -6.928,3.29333 5.26133,-4.74533 7.008,-17.37866 7.41733,-22.33733"
         style="fill:#2e2f3d;fill-opacity:1;fill-rule:evenodd;stroke:none;stroke-width:0.13333333"
         id="path972" />
      <path
         inkscape:connector-curvature="0"
         d="m 503.99465,740.41335 c -0.50666,5.652 -0.73733,10.64667 0.40267,13.45467 2.884,7.10133 22.45867,8.78 31.012,18.024 7.96267,8.608 36.696,7.87333 38.86933,-2.65867 0.228,-1.1 0.44934,-4.94666 -0.30933,-6.08533 -2.30267,-3.45333 -9.17467,-4.29333 -16.45067,-7.50533 -3.076,-1.35867 -10.708,-8.592 -19.432,-14.95867 -0.15866,-0.116 -0.31866,-0.236 -0.47733,-0.35467 -1.80933,-0.0627 -3.484,0.28934 -5.03867,1.11867 -4.05866,2.16533 -3.248,4.872 -7.848,5.684 -4.60133,0.81067 -15.69733,0.54 -18.13333,-5.684 -0.892,-0.31867 -1.75467,-0.66533 -2.59467,-1.03467"
         style="fill:#2e2f3d;fill-opacity:1;fill-rule:evenodd;stroke:none;stroke-width:0.13333333"
         id="path974" />
      <path
         inkscape:connector-curvature="0"
         d="m 505.23465,721.18402 c -2.56266,8.15867 -1.976,24.98267 -0.83733,27.78933 2.884,7.1 22.46,8.78134 31.012,18.02534 7.96267,8.60666 35.96267,7.97733 38.13467,-2.55467 0.916,-4.43733 -5.876,-9.42533 -15.552,-13.696 -1.93867,-0.856 -21.02,-11.54667 -28.71067,-21.78266 -1.33467,-1.776 0.94267,-7.108 1.42,-8.80934 0.95067,-3.392 -14.75333,-3.92133 -15.75867,0.40667 -0.288,1.23733 -0.692,3.62 0.52534,5.53333 -10.88667,1.33734 -9.56134,-2.56666 -10.23334,-4.912"
         style="fill:#424959;fill-opacity:1;fill-rule:evenodd;stroke:none;stroke-width:0.13333333"
         id="path976" />
      <path
         inkscape:connector-curvature="0"
         d="m 514.75065,726.21602 c 2.016,6.04934 16.09334,21.89333 22.496,26.75467 14.53734,11.04 25.78134,1.41733 21.00667,-1.34134"
         style="fill:none;stroke:#2e2f3d;stroke-width:1.59986663;stroke-linecap:butt;stroke-linejoin:miter;stroke-miterlimit:22.92560005;stroke-dasharray:none;stroke-opacity:1"
         id="path978" />
      <path
         inkscape:connector-curvature="0"
         d="m 535.61332,748.30802 4.3,-9.22133"
         style="fill:none;stroke:#2e2f3d;stroke-width:2.55986643;stroke-linecap:round;stroke-linejoin:round;stroke-miterlimit:22.92560005;stroke-dasharray:none;stroke-opacity:1"
         id="path980" />
      <path
         inkscape:connector-curvature="0"
         d="m 531.47065,743.73469 4.29867,-9.22133"
         style="fill:none;stroke:#2e2f3d;stroke-width:2.55986643;stroke-linecap:round;stroke-linejoin:round;stroke-miterlimit:22.92560005;stroke-dasharray:none;stroke-opacity:1"
         id="path982" />
      <path
         inkscape:connector-curvature="0"
         d="m 527.51999,739.77869 4.19866,-8.412"
         style="fill:none;stroke:#2e2f3d;stroke-width:2.55986643;stroke-linecap:round;stroke-linejoin:round;stroke-miterlimit:22.92560005;stroke-dasharray:none;stroke-opacity:1"
         id="path984" />
      <path
         inkscape:connector-curvature="0"
         d="m 545.42532,742.82535 -12.69333,1.12134"
         style="fill:none;stroke:#2e2f3d;stroke-width:2.55986643;stroke-linecap:round;stroke-linejoin:round;stroke-miterlimit:22.92560005;stroke-dasharray:none;stroke-opacity:1"
         id="path986" />
      <path
         inkscape:connector-curvature="0"
         d="m 540.55199,738.69735 -12.69334,1.12"
         style="fill:none;stroke:#2e2f3d;stroke-width:2.55986643;stroke-linecap:round;stroke-linejoin:round;stroke-miterlimit:22.92560005;stroke-dasharray:none;stroke-opacity:1"
         id="path988" />
      <path
         inkscape:connector-curvature="0"
         d="m 536.41865,734.85202 -12.904,-0.032"
         style="fill:none;stroke:#2e2f3d;stroke-width:2.55986643;stroke-linecap:round;stroke-linejoin:round;stroke-miterlimit:22.92560005;stroke-dasharray:none;stroke-opacity:1"
         id="path990" />
      <path
         inkscape:connector-curvature="0"
         d="m 541.45599,750.99335 4.14133,-8.27466"
         style="fill:none;stroke:#2e2f3d;stroke-width:2.55986643;stroke-linecap:round;stroke-linejoin:round;stroke-miterlimit:22.92560005;stroke-dasharray:none;stroke-opacity:1"
         id="path992" />
      <path
         inkscape:connector-curvature="0"
         d="m 550.63732,746.77335 -14.116,1.752"
         style="fill:none;stroke:#2e2f3d;stroke-width:2.55986643;stroke-linecap:round;stroke-linejoin:round;stroke-miterlimit:22.92560005;stroke-dasharray:none;stroke-opacity:1"
         id="path994" />
      <path
         inkscape:connector-curvature="0"
         d="m 556.92399,750.02135 -15.896,1.54267"
         style="fill:none;stroke:#2e2f3d;stroke-width:2.55986643;stroke-linecap:round;stroke-linejoin:round;stroke-miterlimit:22.92560005;stroke-dasharray:none;stroke-opacity:1"
         id="path996" />
      <path
         inkscape:connector-curvature="0"
         d="m 547.42932,755.39469 3.30133,-8.58934"
         style="fill:none;stroke:#2e2f3d;stroke-width:2.55986643;stroke-linecap:round;stroke-linejoin:round;stroke-miterlimit:22.92560005;stroke-dasharray:none;stroke-opacity:1"
         id="path998" />
      <path
         inkscape:connector-curvature="0"
         d="m 555.19332,772.89869 c 10.15867,1.19333 19.82933,-0.53334 19.08533,-8.56 -0.208,-2.25734 -1.31733,-4.55334 -4.41866,-6.86534 -0.11734,-0.003 -0.236,-0.004 -0.35467,-0.004 -7.78933,0 -14.12667,6.872 -14.312,15.42934"
         style="fill:#2e2f3d;fill-opacity:1;fill-rule:evenodd;stroke:none;stroke-width:0.13333333"
         id="path1000" />
      <path
         inkscape:connector-curvature="0"
         d="m 503.37332,731.93202 c -1.31467,7.45867 -0.28,17.14533 0.49067,19.044 0.86666,2.13733 3.672,4.01867 6.92666,3.29333 -5.26,-4.74533 -7.00666,-17.37866 -7.41733,-22.33733"
         style="fill:#2e2f3d;fill-opacity:1;fill-rule:evenodd;stroke:none;stroke-width:0.13333333"
         id="path1002" />
      <path
         inkscape:connector-curvature="0"
         d="m 568.97332,329.92537 c 8.756,33.96799 12.812,59.35066 2.64267,62.48399 -10.168,3.13334 -18.98934,-24.448 -30.308,-50.71333 -33.408,-77.52266 9.38,-82.70933 27.66533,-11.77066"
         style="fill:#f3c3bc;fill-opacity:1;fill-rule:evenodd;stroke:none;stroke-width:0.13333333"
         id="path1004" />
      <path
         inkscape:connector-curvature="0"
         d="m 489.96265,483.55869 c -44.51199,0 -55.25733,-44.34399 -42.07733,-78.67466 5.716,-14.884 1.82534,-43.36 -6.29733,-68.016 -3.968,-12.04533 -11.10533,-21.028 -14.45333,-31.23466 -15.74934,-47.99334 140.93599,-44.72667 126.78533,-1.59467 -3.512,10.70133 -11.66134,20.52533 -15.84667,33.424 -7.97733,24.58533 -10.888,52.89066 -5.30933,67.42266 14.29733,37.23734 6.396,78.67333 -42.80134,78.67333"
         style="fill:#e9b1ab;fill-opacity:1;fill-rule:evenodd;stroke:none;stroke-width:0.13333333"
         id="path1006" />
      <path
         inkscape:connector-curvature="0"
         d="m 439.92266,456.57336 c -0.38667,92.976 14.956,137.232 30.63466,137.232 15.68,0 17.90533,-87.056 15.76667,-119.22933 -6.528,-98.25733 -46.07733,-96.02533 -46.40133,-18.00267"
         style="fill:#f3c3bc;fill-opacity:1;fill-rule:evenodd;stroke:none;stroke-width:0.13333333"
         id="path1008" />
      <path
         inkscape:connector-curvature="0"
         d="m 540.73732,458.8267 c -0.012,90.36799 -14.58133,134.97866 -30.26133,134.97866 -15.67867,0 -17.904,-87.056 -15.76667,-119.22933 6.52933,-98.25733 46.03733,-93.772 46.028,-15.74933"
         style="fill:#f3c3bc;fill-opacity:1;fill-rule:evenodd;stroke:none;stroke-width:0.13333333"
         id="path1010" />
      <path
         inkscape:connector-curvature="0"
         d="m 412.75732,331.45737 c -10.54133,32.43599 -14.34266,57.81866 -4.17466,60.95199 10.168,3.13334 21.76,-21.67733 33.08,-47.94266 33.40666,-77.52 -6.264,-82.68 -28.90534,-13.00933"
         style="fill:#f3c3bc;fill-opacity:1;fill-rule:evenodd;stroke:none;stroke-width:0.13333333"
         id="path1012" />
      <path
         inkscape:connector-curvature="0"
         d="m 439.69066,435.70536 c -0.408,19.968 -1.84134,52.928 1.22266,93.732 3.06267,40.804 7.89467,48.03733 8.93067,79.00933 0.28133,8.38 0.0867,99.10933 0.16533,112.11333 9.93867,2.76 23.61467,4.51334 33.55333,2.01067 0.86,-8.03067 2.17334,-21.216 3.896,-42.44933 1.72134,-21.232 1.192,-64.41067 2.072,-89.36533 0.736,-20.84667 0.32267,-40.00934 1.77867,-93.46134 1.19467,46.53067 1.34533,63.428 3.012,96.04 1.384,27.09467 -0.35467,59.6 1.22133,86.54933 1.57734,26.94934 3.26667,42.17867 3.26667,42.17867 10.888,1.70933 23.11067,1.49867 34,-2.05467 -0.316,-38.376 -1.06267,-70.728 0.23467,-114.052 1.03866,-34.67866 0.888,-28.04666 5.16933,-72.94266 4.28133,-44.896 1.63067,-77.34 1.22267,-97.308 -13.52934,-15.69333 -86.21733,-15.69333 -99.74533,0"
         style="fill:#394f82;fill-opacity:1;fill-rule:evenodd;stroke:none;stroke-width:0.13333333"
         id="path1014" />
      <path
         inkscape:connector-curvature="0"
         d="m 491.74799,497.88403 c 6.02933,25.512 7.976,71.884 9.276,99.26533 1.30133,27.38266 6.24266,111.332 6.24266,126.64"
         style="fill:none;stroke:#313a65;stroke-width:3.20013309;stroke-linecap:butt;stroke-linejoin:miter;stroke-miterlimit:22.92560005;stroke-dasharray:none;stroke-opacity:1"
         id="path1016" />
      <path
         inkscape:connector-curvature="0"
         d="m 485.78932,444.8027 c -0.39867,6.824 -2.39067,40.32266 1.59467,40.94266 3.98533,0.62133 9.564,0.62133 9.564,0.62133"
         style="fill:none;stroke:#313a65;stroke-width:3.20013309;stroke-linecap:butt;stroke-linejoin:miter;stroke-miterlimit:22.92560005;stroke-dasharray:none;stroke-opacity:1"
         id="path1018" />
      <path
         inkscape:connector-curvature="0"
         d="m 491.74799,497.88403 c -6.03067,25.512 -8.56134,74.21733 -9.27734,99.26533 -0.71733,25.04933 -7.38133,111.04666 -7.38133,126.35466"
         style="fill:none;stroke:#313a65;stroke-width:3.20013309;stroke-linecap:butt;stroke-linejoin:miter;stroke-miterlimit:22.92560005;stroke-dasharray:none;stroke-opacity:1"
         id="path1020" />
      <path
         inkscape:connector-curvature="0"
         d="m 448.26266,719.37069 c 11.17466,2.49467 24.36666,3.55733 35.32399,2.596 0.70667,-0.0613 1.24534,0.73067 1.19734,1.50533 -0.268,4.34667 -0.536,8.69334 -0.804,13.03867 -0.048,0.776 -0.66667,1.23866 -1.37067,1.31466 -11.20133,1.19867 -24.38533,0.43334 -35.32533,-2.59733 -0.68667,-0.18933 -1.24533,-0.72933 -1.19733,-1.504 0.268,-4.34666 0.536,-8.69333 0.804,-13.04 0.048,-0.77466 0.67866,-1.46933 1.372,-1.31333"
         style="fill:#577ba8;fill-opacity:1;fill-rule:evenodd;stroke:none;stroke-width:0.13333333"
         id="path1022" />
      <path
         inkscape:connector-curvature="0"
         d="m 574.76532,345.34536 c -9.36,8.25867 -19.69733,11.624 -30.816,11.09467 -24.92,-60.41466 -13.12267,-83.51333 2.656,-74.33733 10.896,6.33467 22.40267,40.448 28.16,63.24266"
         style="fill:#ffffff;fill-opacity:1;fill-rule:evenodd;stroke:none;stroke-width:0.13333333"
         id="path1024" />
      <path
         inkscape:connector-curvature="0"
         d="m 476.51999,222.1467 h 26.78133 v 51.904 c 0,7.36533 -6.02533,13.39067 -13.38933,13.39067 h -10e-4 c -7.36533,0 -13.39066,-6.02534 -13.39066,-13.39067 v -51.904"
         style="fill:#e9b1ab;fill-opacity:1;fill-rule:evenodd;stroke:none;stroke-width:0.13333333"
         id="path1026" />
      <path
         inkscape:connector-curvature="0"
         d="m 436.42532,431.56403 c 0.77734,-6.25333 7.15734,-27.15867 9.236,-33.18 4.60534,-13.33867 3.26134,-37.39333 -2.57466,-58.14 -3.94667,-14.02666 -11.18267,-24.57466 -15.29867,-36.80266 -4.98667,-19.24667 14.032,-30.53867 44.032,-32.94667 2.248,8.54267 7.27466,28.71867 17.88666,39.096 9.90934,-9.824 17.27334,-29.71333 19.31734,-39.26267 30.66666,2.51067 50.13866,14.70534 45.54933,31.55867 -2.832,10.39733 -9.65867,9.62933 -13.77333,21.928 -8.09867,24.2 -3.876,55.18666 -2.68534,73.32666 0.464,7.05867 5.47867,27.85334 6.23467,34.46134 -25.08667,14.356 -78.388,11.94266 -107.924,-0.0387"
         style="fill:#ffffff;fill-opacity:1;fill-rule:evenodd;stroke:none;stroke-width:0.13333333"
         id="path1028" />
      <path
         inkscape:connector-curvature="0"
         d="m 490.17199,143.21337 c 42.12666,-0.26667 45.37733,49.21333 37.00933,81.49333 -4.23867,16.34667 -24.636,29.61333 -37.00933,29.61333 -12.724,0 -32.45467,-12.53333 -37.56,-30.13333 -9.20933,-31.73333 -2.65067,-80.70666 37.56,-80.97333"
         style="fill:#f3c3bc;fill-opacity:1;fill-rule:evenodd;stroke:none;stroke-width:0.13333333"
         id="path1030" />
      <path
         inkscape:connector-curvature="0"
         d="m 473.51999,208.89337 c 1.656,0 3.00533,-3.37334 3.00533,-7.52 0,-4.13333 -1.34933,-7.50667 -3.00533,-7.50667 -1.656,0 -3.00667,3.37334 -3.00667,7.50667 0,4.14666 1.35067,7.52 3.00667,7.52"
         style="fill:#46454e;fill-opacity:1;fill-rule:evenodd;stroke:none;stroke-width:0.13333333"
         id="path1032" />
      <path
         inkscape:connector-curvature="0"
         d="m 504.87465,208.89337 c 1.656,0 3.00667,-3.37334 3.00667,-7.52 0,-4.13333 -1.35067,-7.50667 -3.00667,-7.50667 -1.656,0 -3.00666,3.37334 -3.00666,7.50667 0,4.14666 1.35066,7.52 3.00666,7.52"
         style="fill:#46454e;fill-opacity:1;fill-rule:evenodd;stroke:none;stroke-width:0.13333333"
         id="path1034" />
      <path
         inkscape:connector-curvature="0"
         d="m 486.30799,220.53337 c 7.48666,1.56 10.56266,-3.01334 10.61333,-6.85334 1.90933,7.06667 -3.20667,10.88 -10.61333,6.85334"
         style="fill:#c38581;fill-opacity:1;fill-rule:evenodd;stroke:none;stroke-width:0.13333333"
         id="path1036" />
      <path
         inkscape:connector-curvature="0"
         d="m 498.62399,186.6267 c 2.992,-1.32 8.26266,-2.84 14.45066,-0.45333 3.096,1.18667 2.528,2.8 -0.712,1.61333 -5.00666,-1.82666 -8.2,-0.70666 -12.94133,1.25334 -1.836,0.76 -2.83333,-1.52 -0.79733,-2.41334"
         style="fill:#684535;fill-opacity:1;fill-rule:evenodd;stroke:none;stroke-width:0.13333333"
         id="path1038" />
      <path
         inkscape:connector-curvature="0"
         d="m 479.37732,186.6267 c -2.99333,-1.32 -8.26267,-2.84 -14.45066,-0.45333 -3.09734,1.18667 -2.52934,2.8 0.71066,1.61333 5.008,-1.82666 8.20133,-0.70666 12.94133,1.25334 1.83734,0.76 2.83334,-1.52 0.79867,-2.41334"
         style="fill:#684535;fill-opacity:1;fill-rule:evenodd;stroke:none;stroke-width:0.13333333"
         id="path1040" />
      <path
         inkscape:connector-curvature="0"
         d="m 446.49999,196.52004 c 2.69733,-0.54667 5.796,3.48 6.92,9.01333 1.12533,5.52 -0.15067,10.44 -2.848,10.98666 -2.69867,0.56 -5.796,-3.48 -6.92133,-9 -1.124,-5.53333 0.15066,-10.45333 2.84933,-10.99999"
         style="fill:#f3c3bc;fill-opacity:1;fill-rule:evenodd;stroke:none;stroke-width:0.13333333"
         id="path1042" />
      <path
         inkscape:connector-curvature="0"
         d="m 533.32265,196.52004 c -2.69866,-0.54667 -5.796,3.48 -6.92133,9.01333 -1.124,5.52 0.15067,10.44 2.848,10.98666 2.69867,0.56 5.79733,-3.48 6.92133,-9 1.124,-5.53333 -0.15066,-10.45333 -2.848,-10.99999"
         style="fill:#f3c3bc;fill-opacity:1;fill-rule:evenodd;stroke:none;stroke-width:0.13333333"
         id="path1044" />
      <path
         inkscape:connector-curvature="0"
         d="m 448.13866,199.8267 c 0.24,3.64 3.588,11.14667 3.39866,2.64 -0.188,-8.49333 0.94534,-29.84 9.82267,-38.72 8.876,-8.88 19.076,-3.77333 28.332,-3.77333 0.0733,0 0.14533,0 0.21866,-0.0133 0.0733,0.0133 0.14534,0.0133 0.22,0.0133 9.25467,0 19.45467,-5.10667 28.332,3.77333 8.87734,8.88 10.01067,30.22667 9.82134,38.72 -0.18934,8.50667 3.16,1 3.4,-2.64 0.284,-4.30666 2.85333,-13.77333 -1.968,-31.13333 -2.068,-7.45333 -5.91867,-18.50667 -21.21867,-21.74667 -5.79733,-8.8 -19.44533,-6.86666 -24.90533,-5.85333 -21.552,3.97333 -27.164,14.85333 -32.19333,26.76 -7.00934,16.6 -3.544,27.66667 -3.26,31.97333"
         style="fill:#684535;fill-opacity:1;fill-rule:evenodd;stroke:none;stroke-width:0.13333333"
         id="path1046" />
      <path
         inkscape:connector-curvature="0"
         d="m 507.77732,227.0667 c -10.064,0.82667 -25.19333,0.72 -35.73333,0.22667 9.10133,12.25333 27.908,12.93333 35.73333,-0.22667"
         style="fill:#c38581;fill-opacity:1;fill-rule:evenodd;stroke:none;stroke-width:0.13333333"
         id="path1048" />
      <path
         inkscape:connector-curvature="0"
         d="m 503.92265,227.33337 c -8.512,0.46666 -19.28,0.41333 -28.024,0.10666 1.012,3.37334 6.392,3.61334 13.968,3.70667 7.60667,0.10667 13.016,-0.30667 14.056,-3.81333"
         style="fill:#ffffff;fill-opacity:1;fill-rule:evenodd;stroke:none;stroke-width:0.13333333"
         id="path1050" />
      <path
         inkscape:connector-curvature="0"
         d="m 497.34665,237.37337 c -3.84133,2.26666 -10.16933,2.04 -14.87066,0.08 3.78666,3.86666 11.61333,4.06666 14.87066,-0.08"
         style="fill:#c38581;fill-opacity:1;fill-rule:evenodd;stroke:none;stroke-width:0.13333333"
         id="path1052" />
      <path
         inkscape:connector-curvature="0"
         d="m 528.27732,203.3867 c -1.4,-27.32 -13.336,-37.88 -27.656,-44.97333 23.828,-6.90667 33.312,11.94667 27.656,44.97333"
         style="fill:#684535;fill-opacity:1;fill-rule:evenodd;stroke:none;stroke-width:0.13333333"
         id="path1054" />
      <path
         inkscape:connector-curvature="0"
         d="m 450.42932,204.56003 c 5.99867,-27.31999 43.23867,-40.85333 63.94933,-43.93333 -51.26266,-21.26666 -68.32133,6.52 -63.94933,43.93333"
         style="fill:#684535;fill-opacity:1;fill-rule:evenodd;stroke:none;stroke-width:0.13333333"
         id="path1056" />
      <path
         inkscape:connector-curvature="0"
         d="m 508.50265,183.5467 c 1.66934,-14.4 -2.53333,-18.74666 -8.97866,-26.17333 9.45066,-3.84 20.52666,13.92 8.97866,26.17333"
         style="fill:#684535;fill-opacity:1;fill-rule:evenodd;stroke:none;stroke-width:0.13333333"
         id="path1058" />
      <path
         inkscape:connector-curvature="0"
         d="m 504.52799,133.36004 c 3.07066,9.64 0.776,13.17333 -2.63867,19.12 6.97733,1.36 12.17733,-12.26667 2.63867,-19.12"
         style="fill:#684535;fill-opacity:1;fill-rule:evenodd;stroke:none;stroke-width:0.13333333"
         id="path1060" />
      <path
         inkscape:connector-curvature="0"
         d="m 519.69465,139.48004 c -8.64,5.25333 -9.228,9.42666 -10.55066,16.14666 -6.15867,-3.54666 -1.13734,-17.24 10.55066,-16.14666"
         style="fill:#684535;fill-opacity:1;fill-rule:evenodd;stroke:none;stroke-width:0.13333333"
         id="path1062" />
      <path
         inkscape:connector-curvature="0"
         d="m 437.00399,170.36004 c 12.68933,-2.10667 15.364,-6.74667 20.11333,-14.05334 5.584,7.10667 -6.83866,20.89334 -20.11333,14.05334"
         style="fill:#684535;fill-opacity:1;fill-rule:evenodd;stroke:none;stroke-width:0.13333333"
         id="path1064" />
      <path
         inkscape:connector-curvature="0"
         d="m 547.23865,185.48004 c -12.24933,-3.93334 -14.22133,-8.92 -17.86,-16.84 -6.55733,6.22666 3.73334,21.66666 17.86,16.84"
         style="fill:#684535;fill-opacity:1;fill-rule:evenodd;stroke:none;stroke-width:0.13333333"
         id="path1066" />
      <path
         inkscape:connector-curvature="0"
         d="m 468.30665,270.08003 c 0.29067,32.23067 4.472,63.48934 23.228,91.104 l 0.0187,80.64 c -12.52133,16.07733 -41.052,13.94667 -54.176,2.16533 3.25867,-24.288 8.60534,-72.44266 6.32267,-100.86 0,0 7.46533,5.29334 10.59333,-16.57733 3.12934,-21.872 0.97334,-53.82533 0.97334,-53.82533 l 13.03999,-2.64667"
         style="fill:#424959;fill-opacity:1;fill-rule:evenodd;stroke:none;stroke-width:0.13333333"
         id="path1068" />
      <path
         inkscape:connector-curvature="0"
         d="m 513.28665,270.08003 c -1.788,30.98 -7.96666,62.14534 -23.228,91.104 l -0.26,80.64 c 12.52267,16.07733 40.79334,11.87067 53.91867,0.0893 1.504,-24.64666 -6.136,-71.62266 -5.99867,-100.03866 0,0 -7.46533,1.88533 -10.42,-15.32267 -2.95333,-17.20933 -0.972,-53.82533 -0.972,-53.82533 l -13.04,-2.64667"
         style="fill:#424959;fill-opacity:1;fill-rule:evenodd;stroke:none;stroke-width:0.13333333"
         id="path1070" />
      <path
         inkscape:connector-curvature="0"
         d="m 564.85332,412.18536 c -12.3,20.43334 -26.93733,47.24534 -32.90667,42.916 -5.18266,-3.75866 7.06,-33.98933 13.948,-51.34133 17.89467,-45.08667 34.968,-39.916 30.66,-17.07733 -1.332,7.05733 -6.052,16.11733 -11.70133,25.50266"
         style="fill:#f3c3bc;fill-opacity:1;fill-rule:evenodd;stroke:none;stroke-width:0.13333333"
         id="path1072" />
      <path
         inkscape:connector-curvature="0"
         d="m 415.34532,412.18536 c 12.31334,20.42667 26.93867,47.24534 32.90667,42.916 5.18267,-3.75866 -7.06,-33.98933 -13.94667,-51.34133 -18.24533,-45.97067 -35.71733,-40.50933 -30.5,-16.53733 1.476,6.776 6.28134,16.23733 11.54,24.96266"
         style="fill:#f3c3bc;fill-opacity:1;fill-rule:evenodd;stroke:none;stroke-width:0.13333333"
         id="path1074" />
      <path
         inkscape:connector-curvature="0"
         d="m 425.77999,429.67203 c -4.388,-7.33867 13.89333,-12.612 15.992,-6.70133 3.11867,8.772 21.30267,15.40533 24.15333,19.67733 4.32933,6.48667 -12.60266,-3.63733 -11.032,-0.272 2.01734,4.324 18.22133,16.98133 20.23467,22.372 2.01333,5.38933 -20.90933,-15.16 -15.412,-7.47467 5.496,7.68534 9.71866,10.672 9.40133,14.62933 -0.232,2.89734 -16.47866,-17.85199 -14.052,-10.60666 2.00667,5.98533 5.11467,9.572 4.476,12.85733 -0.832,4.284 -16.14133,-20.76 -14.65733,-15.64533 1.16267,4.008 5.87733,8.78133 5.348,11.22933 -1.396,6.43467 -17.53867,-28.50133 -24.452,-40.06533"
         style="fill:#f3c3bc;fill-opacity:1;fill-rule:evenodd;stroke:none;stroke-width:0.13333333"
         id="path1076" />
      <path
         inkscape:connector-curvature="0"
         d="m 440.54132,461.5547 17.60934,-17.60934 26.81466,15.608 -28.81466,35.62 -15.60934,-33.61866"
         style="fill:#394f82;fill-opacity:1;fill-rule:evenodd;stroke:none;stroke-width:0.13333333"
         id="path1078" />
      <path
         inkscape:connector-curvature="0"
         d="m 549.26265,427.50403 c -0.93866,-2.268 -9.25866,-9.03867 -10.75466,-4.75333 -4.124,11.80933 -23.16267,15.12933 -26.34534,19.89733 -4.32933,6.48667 12.60267,-3.63733 11.03334,-0.272 -2.01867,4.324 -18.22134,16.98133 -20.23467,22.372 -2.01333,5.38933 20.90933,-15.16 15.412,-7.47467 -5.496,7.68534 -9.71867,10.672 -9.40133,14.62933 0.232,2.89734 16.47866,-17.85199 14.05066,-10.60666 -2.00533,5.98533 -5.11333,9.572 -4.476,12.85733 0.83334,4.284 16.14267,-20.76 14.65867,-15.64533 -1.16267,4.008 -5.88,8.78133 -5.348,11.22933 1.184,5.46 15.42133,-22.94133 24.28133,-36.324 1.53334,-2.31866 -2.09333,-4.024 -2.876,-5.90933"
         style="fill:#f3c3bc;fill-opacity:1;fill-rule:evenodd;stroke:none;stroke-width:0.13333333"
         id="path1080" />
      <path
         inkscape:connector-curvature="0"
         d="m 537.54799,461.5547 -17.61067,-17.60934 -26.81467,15.608 28.816,35.62 15.60934,-33.61866"
         style="fill:#394f82;fill-opacity:1;fill-rule:evenodd;stroke:none;stroke-width:0.13333333"
         id="path1082" />
      <path
         inkscape:connector-curvature="0"
         d="m 407.04666,345.34536 c 7.39066,7.54134 18.15333,10.584 30.816,11.09467 26.60266,-64.48933 12.968,-86.67866 -4.368,-72.30133 -10.12,8.39333 -17.324,33.156 -26.448,61.20666"
         style="fill:#ffffff;fill-opacity:1;fill-rule:evenodd;stroke:none;stroke-width:0.13333333"
         id="path1084" />
      <path
         inkscape:connector-curvature="0"
         d="m 533.57199,719.02002 c -11.17467,2.49467 -24.36667,3.55734 -35.324,2.596 -0.70667,-0.0613 -1.24534,0.73067 -1.19734,1.50534 0.268,4.34666 0.536,8.69333 0.804,13.03999 0.048,0.77467 0.66667,1.23867 1.37067,1.31334 11.20133,1.19866 24.38533,0.43333 35.32533,-2.596 0.68667,-0.19067 1.24534,-0.73067 1.19734,-1.50533 -0.268,-4.34667 -0.536,-8.69334 -0.804,-13.03867 -0.048,-0.776 -0.67867,-1.46933 -1.372,-1.31467"
         style="fill:#577ba8;fill-opacity:1;fill-rule:evenodd;stroke:none;stroke-width:0.13333333"
         id="path1086" />
      <path
         inkscape:connector-curvature="0"
         d="m 491.02265,442.6267 c -10.31066,-7.96534 -5.28533,-61.81334 -0.216,-83.55467 -1.12933,20.988 -3.58666,74.01067 0.216,83.55467"
         style="fill:#2e2f3d;fill-opacity:1;fill-rule:evenodd;stroke:none;stroke-width:0.13333333"
         id="path1088" />
      <path
         inkscape:connector-curvature="0"
         d="m 489.75999,311.3827 c 7.95466,-13.396 13.176,-39.67867 13.47066,-50.20933 14.152,5.26666 26.59867,21.36266 28.20934,35.63333 -6.10934,-7.79867 -10.792,-13.48533 -16.35867,-11.73333 -4.744,1.49333 -19.80267,20.148 -25.32133,26.30933"
         style="fill:#dedbd9;fill-opacity:1;fill-rule:evenodd;stroke:none;stroke-width:0.13333333"
         id="path1090" />
      <path
         inkscape:connector-curvature="0"
         d="m 489.75999,311.3827 c -7.95467,-13.396 -13.176,-39.67867 -13.46934,-50.20933 -14.15333,5.26666 -26.59999,21.36266 -28.21066,35.63333 6.10933,-7.79867 10.79333,-13.48533 16.36,-11.73333 4.74266,1.49333 19.80266,20.148 25.32,26.30933"
         style="fill:#dedbd9;fill-opacity:1;fill-rule:evenodd;stroke:none;stroke-width:0.13333333"
         id="path1092" />
      <path
         inkscape:connector-curvature="0"
         d="m 407.04666,345.34536 c 7.39066,7.54134 18.15333,10.584 30.816,11.09467 0.772,-1.87067 1.50666,-3.70133 2.21066,-5.50133 -12.68266,-0.74134 -23.49866,-3.97067 -31.13333,-11.44134 -0.62267,1.92934 -1.25333,3.88 -1.89333,5.848"
         style="fill:#dedbd9;fill-opacity:1;fill-rule:evenodd;stroke:none;stroke-width:0.13333333"
         id="path1094" />
      <path
         inkscape:connector-curvature="0"
         d="m 575.20932,345.54536 c -7.49733,7.65067 -18.41467,10.73734 -31.26133,11.256 -0.78267,-1.89733 -1.528,-3.756 -2.24267,-5.58133 12.86667,-0.752 23.83867,-4.028 31.584,-11.60667 0.632,1.95734 1.27067,3.936 1.92,5.932"
         style="fill:#dedbd9;fill-opacity:1;fill-rule:evenodd;stroke:none;stroke-width:0.13333333"
         id="path1096" />
      <path
         inkscape:connector-curvature="0"
         d="m 452.03466,185.49337 c 4.172,-27.58667 42.17466,-39.52 56.80933,-34.17333 -16.33867,2.84 -45.00533,16.93333 -56.80933,34.17333"
         style="fill:#83654f;fill-opacity:1;fill-rule:evenodd;stroke:none;stroke-width:0.13333333"
         id="path1098" />
      <path
         inkscape:connector-curvature="0"
         d="m 463.86132,157.1467 c 10.132,-17.25333 37.11733,-14.72 44.95467,-5.70666 -11.13734,-2.77334 -32.78934,-2.44 -44.95467,5.70666"
         style="fill:#83654f;fill-opacity:1;fill-rule:evenodd;stroke:none;stroke-width:0.13333333"
         id="path1100" />
      <path
         inkscape:connector-curvature="0"
         d="m 528.32399,181.73337 c 4.376,-12.98667 -10.30267,-29.62667 -20.17467,-30.73333 7.51733,5.05333 18.92667,20.78666 20.17467,30.73333"
         style="fill:#83654f;fill-opacity:1;fill-rule:evenodd;stroke:none;stroke-width:0.13333333"
         id="path1102" />
    </g>
  </g>
</svg>
