<?xml version="1.0" encoding="UTF-8" standalone="no"?>
<!-- Created with Inkscape (http://www.inkscape.org/) -->

<svg
   xmlns:dc="http://purl.org/dc/elements/1.1/"
   xmlns:cc="http://creativecommons.org/ns#"
   xmlns:rdf="http://www.w3.org/1999/02/22-rdf-syntax-ns#"
   xmlns:svg="http://www.w3.org/2000/svg"
   xmlns="http://www.w3.org/2000/svg"
   xmlns:sodipodi="http://sodipodi.sourceforge.net/DTD/sodipodi-0.dtd"
   xmlns:inkscape="http://www.inkscape.org/namespaces/inkscape"
   width="21.174156mm"
   height="52.916668mm"
   viewBox="0 0 21.174156 52.916668"
   version="1.1"
   id="svg7371"
   inkscape:version="0.92.3 (2405546, 2018-03-11)"
   sodipodi:docname="3.svg">
  <defs
     id="defs7365" />
  <sodipodi:namedview
     id="base"
     pagecolor="#ffffff"
     bordercolor="#666666"
     borderopacity="1.0"
     inkscape:pageopacity="0.0"
     inkscape:pageshadow="2"
     inkscape:zoom="0.35"
     inkscape:cx="-334.36579"
     inkscape:cy="312.54343"
     inkscape:document-units="mm"
     inkscape:current-layer="layer1"
     showgrid="false"
     fit-margin-top="0"
     fit-margin-left="0"
     fit-margin-right="0"
     fit-margin-bottom="0"
     inkscape:window-width="1613"
     inkscape:window-height="995"
     inkscape:window-x="67"
     inkscape:window-y="27"
     inkscape:window-maximized="1" />
  <metadata
     id="metadata7368">
    <rdf:RDF>
      <cc:Work
         rdf:about="">
        <dc:format>image/svg+xml</dc:format>
        <dc:type
           rdf:resource="http://purl.org/dc/dcmitype/StillImage" />
        <dc:title></dc:title>
      </cc:Work>
    </rdf:RDF>
  </metadata>
  <g
     inkscape:label="Layer 1"
     inkscape:groupmode="layer"
     id="layer1"
     transform="translate(-67.300948,-178.61045)">
    <g
       id="g7201"
       transform="matrix(0.08239524,0,0,0.08239524,-13.791077,166.34424)">
      <path
         inkscape:connector-curvature="0"
         d="m 1138.3266,791.10002 c 51.2374,0 93.0254,-14.46933 93.0254,-32.21067 0,-17.74 -41.788,-32.21066 -93.0254,-32.21066 -51.236,0 -93.0253,14.47066 -93.0253,32.21066 0,17.74134 41.7893,32.21067 93.0253,32.21067"
         style="fill:#447186;fill-opacity:1;fill-rule:evenodd;stroke:none;stroke-width:0.13333333"
         id="path136" />
      <path
         inkscape:connector-curvature="0"
         d="m 1136.7266,373.07603 c 26.4147,0 47.9587,-45.648 47.9587,-101.61733 0,-55.96533 -21.544,-101.61866 -47.9587,-101.61866 -26.4146,0 -47.96,45.65333 -47.96,101.61866 0,55.96933 21.5454,101.61733 47.96,101.61733"
         style="fill:#af753e;fill-opacity:1;fill-rule:evenodd;stroke:none;stroke-width:0.13333333"
         id="path138" />
      <path
         inkscape:connector-curvature="0"
         d="m 1093.3866,428.3867 c -9.472,16.4 6.6627,62.99333 -18.6493,64.38666 -21.536,1.18533 -17.5053,-34.66266 -2.2693,-53.232 15.2346,-18.56933 11.792,-14.85333 19.4093,-27.232 7.6173,-12.37866 12.46,2.26934 1.5093,16.07734"
         style="fill:#c37876;fill-opacity:1;fill-rule:evenodd;stroke:none;stroke-width:0.13333333"
         id="path140" />
      <path
         inkscape:connector-curvature="0"
         d="m 1075.128,384.75336 c 9.1146,-6.30933 -0.3814,-23.58533 -9.372,-33.02533 -8.9267,-9.372 -29.4547,-36.152 -34.812,-33.02666 -7.3147,4.26666 10.712,31.24133 17.4066,44.18399 6.168,11.92534 18.4027,27.66667 26.7774,21.868"
         style="fill:#f3c3bc;fill-opacity:1;fill-rule:evenodd;stroke:none;stroke-width:0.13333333"
         id="path142" />
      <path
         inkscape:connector-curvature="0"
         d="m 1033.4293,323.98803 c 0.7987,-1.028 6.5693,-0.14 4.5413,-2.296 -5.664,-6.01466 -18.8293,-26.93333 -22.124,-30.67066 -4.344,-4.92667 3.1387,13.50133 0,16.012 -3.1386,2.512 -23.44129,-8.384 -28.25596,-7.848 -3.27333,0.36266 7.45067,5.72266 11.744,9.10933 2.02266,1.59733 2.07866,3.20667 -0.44133,2.82133 -7.864,-1.20933 -11.71467,-3.24933 -14.568,-1.50666 -2.08933,1.276 19.67999,5.6 13.312,6.52933 -5.26133,0.768 -9.13867,-0.20533 -11.364,1.524 -2.904,2.25333 21.68929,4.01467 17.32929,5.06933 -4.80662,1.16267 -9.12262,1.53734 -10.96796,2.56 -2.448,1.35467 35.87466,0.93867 39.01066,6.27734 1.1773,2.004 1.2293,-6.86934 1.784,-7.58134"
         style="fill:#f3c3bc;fill-opacity:1;fill-rule:evenodd;stroke:none;stroke-width:0.13333333"
         id="path144" />
      <path
         inkscape:connector-curvature="0"
         d="m 1105.8693,283.23203 c 17.056,4.30667 1.0533,37.9 -5.804,54.61733 -6.6787,16.27867 -20.576,50.584 -28.7213,47.58267 -8.1454,-3.00133 -0.1614,-37.86133 3.8586,-55.72666 3.856,-17.14667 14.344,-50.592 30.6667,-46.47334"
         style="fill:#f3c3bc;fill-opacity:1;fill-rule:evenodd;stroke:none;stroke-width:0.13333333"
         id="path146" />
      <path
         inkscape:connector-curvature="0"
         d="m 1136.836,470.56936 c -20.548,0 -46.5214,-26.36133 -47.2974,-40.31733 -0.7746,-13.956 5.8147,-27.13733 13.5694,-47.296 7.7533,-20.16 -3.8774,-49.23733 -13.1814,-77.53733 -14.3546,-43.672 115.784,-39.232 96.9907,-2.44133 -13.2093,25.85733 -24.1067,59.81866 -16.3533,79.97866 7.7533,20.15867 14.3426,33.34 13.568,47.296 -0.7747,13.956 -26.7494,40.31733 -47.296,40.31733"
         style="fill:#424959;fill-opacity:1;fill-rule:evenodd;stroke:none;stroke-width:0.13333333"
         id="path148" />
      <path
         inkscape:connector-curvature="0"
         d="m 1087.8226,471.14536 c 4.9894,49.972 12.8307,122.66 28.5094,122.66 15.68,0 19.9573,-91.76667 17.8186,-127.20266 -6.532,-108.20934 -54.8626,-80.95734 -46.328,4.54266"
         style="fill:#424959;fill-opacity:1;fill-rule:evenodd;stroke:none;stroke-width:0.13333333"
         id="path150" />
      <path
         inkscape:connector-curvature="0"
         d="m 1234.876,350.13603 c 3.16,1.50267 7.1786,7.34933 5.868,12.452 -1.816,7.076 -8.2014,14.35067 -13.404,19.936 -8.82,9.46933 -29.4547,36.15067 -34.8107,33.02667 -7.3147,-4.268 10.712,-31.24267 17.4067,-44.184 6.168,-11.924 15.7426,-25.60534 24.94,-21.23067"
         style="fill:#f3c3bc;fill-opacity:1;fill-rule:evenodd;stroke:none;stroke-width:0.13333333"
         id="path152" />
      <path
         inkscape:connector-curvature="0"
         d="m 1165.1253,283.2947 c -13.712,11.02133 15.832,36.59733 29.032,48.93867 12.8533,12.01466 39.78,37.41066 45.9333,31.28799 6.1547,-6.12133 -15.628,-34.48399 -26.7253,-49.05066 -10.6507,-13.98 -35.1173,-41.72267 -48.24,-31.176"
         style="fill:#f3c3bc;fill-opacity:1;fill-rule:evenodd;stroke:none;stroke-width:0.13333333"
         id="path154" />
      <path
         inkscape:connector-curvature="0"
         d="m 1186.3306,471.14536 c -4.988,49.972 -12.8306,122.66 -28.5093,122.66 -15.68,0 -22.0613,-96.816 -19.9227,-132.25066 6.532,-108.20934 56.9667,-75.90934 48.432,9.59066"
         style="fill:#424959;fill-opacity:1;fill-rule:evenodd;stroke:none;stroke-width:0.13333333"
         id="path156" />
      <path
         inkscape:connector-curvature="0"
         d="m 1122.8893,716.71469 c -2.912,9.91067 3.344,26.188 0.5853,32.98133 -2.7586,6.79333 -21.4853,6.408 -29.6666,15.252 -7.62,8.236 -33.4,8.95467 -35.48,-1.12133 -0.876,-4.24667 5.0706,-8.34534 14.328,-12.43334 2.944,-1.3 11.096,-7.93333 19.4426,-14.02533 8.0347,-5.864 16.56,-14.648 15.928,-19.55866 -1.56,-12.12267 18.284,-12.73867 14.8627,-1.09467"
         style="fill:#f3c3bc;fill-opacity:1;fill-rule:evenodd;stroke:none;stroke-width:0.13333333"
         id="path158" />
      <path
         inkscape:connector-curvature="0"
         d="m 1151.7853,716.71469 c 2.912,9.91067 -3.344,26.188 -0.5853,32.98133 2.7586,6.79333 21.484,6.408 29.6666,15.252 7.62,8.236 33.4,8.95467 35.48,-1.12133 0.876,-4.24667 -5.0693,-8.34534 -14.328,-12.43334 -2.944,-1.3 -11.096,-7.93333 -19.4426,-14.02533 -8.0347,-5.864 -16.56,-14.648 -15.928,-19.55866 1.56,-12.12267 -18.284,-12.73867 -14.8627,-1.09467"
         style="fill:#f3c3bc;fill-opacity:1;fill-rule:evenodd;stroke:none;stroke-width:0.13333333"
         id="path160" />
      <path
         inkscape:connector-curvature="0"
         d="m 1087.1853,421.7467 c 1.512,-11.20667 6.828,-20.916 13.8187,-39.092 6.9906,-18.176 -1.7734,-48.936 -11.0774,-77.236 -14.3546,-43.672 115.784,-39.232 96.9907,-2.44133 -13.2093,25.85733 -21.528,61.83599 -14.5507,79.97866 6.9787,18.14133 12.2614,27.78533 13.8,38.94933 -38.74,9.74 -75.1813,6.63334 -98.9813,-0.15866"
         style="fill:#ffffff;fill-opacity:1;fill-rule:evenodd;stroke:none;stroke-width:0.13333333"
         id="path162" />
      <path
         inkscape:connector-curvature="0"
         d="m 1107.0266,281.7467 c 14.9814,3.78133 4.308,31.672 -3.1586,49.73067 l 0.08,-1.26534 c -12.4787,-2.62266 -21.7427,-7.81733 -28.0574,-15.372 5.332,-17.35466 18.528,-36.276 31.136,-33.09333"
         style="fill:#ffffff;fill-opacity:1;fill-rule:evenodd;stroke:none;stroke-width:0.13333333"
         id="path164" />
      <path
         inkscape:connector-curvature="0"
         d="m 1160.9693,282.81337 c -13.412,10.98133 15.1053,36.32666 23.3787,42.56533 9.436,-6.09333 15.5946,-14.80933 18.8666,-25.836 -12.1986,-13.444 -32.184,-24.96667 -42.2453,-16.72933"
         style="fill:#ffffff;fill-opacity:1;fill-rule:evenodd;stroke:none;stroke-width:0.13333333"
         id="path166" />
      <path
         inkscape:connector-curvature="0"
         d="m 1179.7626,314.05203 c -1.98,17.57867 1.28,23.53867 -7.872,30.64267 -9.1533,7.104 -23.8893,2.99733 -37.1106,2.99733 -13.22,0 -27.1294,4.71733 -34.212,-3.37067 -7.084,-8.08666 -2.776,-11.67466 -4.3827,-27.76133 3.532,13.98534 1.0253,15.59334 10.616,22.84133 5.8867,4.44934 17.6507,2.304 27.9907,2.72667 13.5226,0.55333 25.6733,3.20667 34.0693,-4.41867 5.92,-5.37466 7.9173,-15.61066 10.9013,-23.65733"
         style="fill:#c2c1be;fill-opacity:1;fill-rule:evenodd;stroke:none;stroke-width:0.13333333"
         id="path168" />
      <path
         inkscape:connector-curvature="0"
         d="m 1126.456,234.2667 h 20.46 c 0.044,0 0.079,0.04 0.079,0.08 v 38.83867 c 0,5.648 -4.6213,10.26933 -10.2693,10.26933 v 0 c -5.648,0 -10.2693,-4.62133 -10.2693,-10.26933 V 234.2667"
         style="fill:#e9b1ab;fill-opacity:1;fill-rule:evenodd;stroke:none;stroke-width:0.13333333"
         id="path170" />
      <path
         inkscape:connector-curvature="0"
         d="m 1137.2733,153.3867 c 39.9813,0 42.6227,46.88 34.4693,78.33333 -4.1306,15.92 -22.416,29.90667 -34.4693,29.90667 -12.3973,0 -30.5613,-15.38667 -35.5347,-32.52 -8.9733,-30.92 -3.6413,-75.72 35.5347,-75.72"
         style="fill:#f3c3bc;fill-opacity:1;fill-rule:evenodd;stroke:none;stroke-width:0.13333333"
         id="path172" />
      <path
         inkscape:connector-curvature="0"
         d="m 1155.0866,231.92003 c -9.68,-0.6 -26.4106,-0.48 -35.04,0.14667 7.7707,19.85333 27.4254,20.25333 35.04,-0.14667"
         style="fill:#f4697b;fill-opacity:1;fill-rule:evenodd;stroke:none;stroke-width:0.13333333"
         id="path174" />
      <path
         inkscape:connector-curvature="0"
         d="m 1121.8093,212.68003 c 1.576,0 2.8613,-3.21333 2.8613,-7.16 0,-3.93333 -1.2853,-7.14666 -2.8613,-7.14666 -1.5747,0 -2.86,3.21333 -2.86,7.14666 0,3.94667 1.2853,7.16 2.86,7.16"
         style="fill:#46454e;fill-opacity:1;fill-rule:evenodd;stroke:none;stroke-width:0.13333333"
         id="path176" />
      <path
         inkscape:connector-curvature="0"
         d="m 1151.6426,212.68003 c 1.576,0 2.8614,-3.21333 2.8614,-7.16 0,-3.93333 -1.2854,-7.14666 -2.8614,-7.14666 -1.5746,0 -2.86,3.21333 -2.86,7.14666 0,3.94667 1.2854,7.16 2.86,7.16"
         style="fill:#46454e;fill-opacity:1;fill-rule:evenodd;stroke:none;stroke-width:0.13333333"
         id="path178" />
      <path
         inkscape:connector-curvature="0"
         d="m 1095.0266,202.69337 c 2.592,-0.53334 5.568,3.34666 6.648,8.65333 1.0814,5.30667 -0.144,10.02667 -2.736,10.56 -2.5906,0.52 -5.568,-3.34667 -6.648,-8.65333 -1.08,-5.30667 0.144,-10.04 2.736,-10.56"
         style="fill:#f3c3bc;fill-opacity:1;fill-rule:evenodd;stroke:none;stroke-width:0.13333333"
         id="path180" />
      <path
         inkscape:connector-curvature="0"
         d="m 1154.448,232.0667 c -9.576,2.29333 -23.972,2.34667 -34,0.21333 8,15.53334 25.8733,16.2 34,-0.21333"
         style="fill:#c38581;fill-opacity:1;fill-rule:evenodd;stroke:none;stroke-width:0.13333333"
         id="path182" />
      <path
         inkscape:connector-curvature="0"
         d="m 1133.9773,225.3467 c 7.124,1.48 10.0507,-2.86667 10.0987,-6.52 1.816,6.72 -3.0507,10.36 -10.0987,6.52"
         style="fill:#c38581;fill-opacity:1;fill-rule:evenodd;stroke:none;stroke-width:0.13333333"
         id="path184" />
      <path
         inkscape:connector-curvature="0"
         d="m 1153.3013,232.32003 c -9.2253,1.97334 -22.2947,2.01334 -31.86,0.16 4.94,6.61334 26.564,6.4 31.86,-0.16"
         style="fill:#ffffff;fill-opacity:1;fill-rule:evenodd;stroke:none;stroke-width:0.13333333"
         id="path186" />
      <path
         inkscape:connector-curvature="0"
         d="m 1146.204,187.64004 c 3.104,-0.21334 8.2373,-0.86667 12.7946,4.45333 2.0534,2.4 1.4694,3.32 -0.8666,1.01333 -3.9747,-3.92 -7.1147,-3.28 -11.992,-3.04 -1.8894,0.0933 -2.0494,-2.26666 0.064,-2.42666"
         style="fill:#cf8c47;fill-opacity:1;fill-rule:evenodd;stroke:none;stroke-width:0.13333333"
         id="path188" />
      <path
         inkscape:connector-curvature="0"
         d="m 1097.568,204.76003 c 0.2266,3.44 3.396,10.54667 3.2173,2.49334 -0.1787,-8.04 0.8933,-28.22667 9.2933,-36.64 8.4,-8.4 18.052,-3.57333 26.8094,-3.57333 0.071,0 0.1386,0 0.208,0 0.069,0 0.1373,0 0.208,0 8.7573,0 18.4093,-4.82667 26.8093,3.57333 8.4013,8.41333 9.4733,28.6 9.2947,36.64 -0.1787,8.05333 2.9893,0.94666 3.2173,-2.49334 0.268,-4.07999 1.4493,-15.21333 -5.184,-30.91999 -4.76,-11.28 -18.5893,-20.68 -34.3453,-20.68 -17.0067,0 -29.5854,9.4 -34.3454,20.68 -6.6333,15.70666 -5.452,26.84 -5.1826,30.91999"
         style="fill:#c37876;fill-opacity:1;fill-rule:evenodd;stroke:none;stroke-width:0.13333333"
         id="path190" />
      <path
         inkscape:connector-curvature="0"
         d="m 1202.256,410.1747 c -6.8214,4.87466 -2.7,13.564 -11.328,11.952 -3.5907,-0.67067 -8.2454,0.68666 -9.8414,3.87866 -1.5946,3.19067 -2.584,-2.04 1.276,-6.036 1.7387,-1.79733 1.7494,-3.116 -1.2693,-2.01333 -2.3667,0.864 -3.2467,2.55733 -4.4333,4.964 -0.8387,1.7 -2.2467,-0.74267 -0.1974,-4.72267 1.5494,-3.008 2.8374,-3.296 5.0987,-3.984 2.2613,-0.68933 -2.8667,-1.30266 -5.6133,0.368 -2.1414,1.30267 -2.3907,2.93067 -2.8827,4.89734 -0.4907,1.96666 -2.8427,-0.848 -0.484,-4.99867 1.7507,-3.08 4.332,-4.792 8.012,-4.936 2.9453,-0.116 -2.308,-2.1 -8.1747,1.52933 -3.684,2.28 -3.9946,-1.65466 0.072,-3.46933 4.4414,-1.98267 6.148,-2.70667 10.7374,-1.01467 3.9373,1.45334 8.148,1.44534 10.148,-4.25733 1.384,-3.94133 12.4666,5.28 8.88,7.84267"
         style="fill:#f3c3bc;fill-opacity:1;fill-rule:evenodd;stroke:none;stroke-width:0.13333333"
         id="path192" />
      <path
         inkscape:connector-curvature="0"
         d="m 1116.2253,292.43603 c 1.976,0 3.5867,-1.208 3.5867,-2.68933 0,-1.48133 -1.6107,-2.68933 -3.5867,-2.68933 -1.9747,0 -3.5867,1.208 -3.5867,2.68933 0,1.48133 1.612,2.68933 3.5867,2.68933"
         style="fill:#424959;fill-opacity:1;fill-rule:evenodd;stroke:none;stroke-width:0.13333333"
         id="path194" />
      <path
         inkscape:connector-curvature="0"
         d="m 1119.8053,286.39337 c 0.3973,0.616 0.5067,1.316 0.2253,1.90666 -0.2626,0.552 -0.8133,0.9 -1.4813,1.008 -0.3987,-0.616 -0.508,-1.31466 -0.2267,-1.90533 0.2627,-0.55333 0.8147,-0.90133 1.4827,-1.00933"
         style="fill:#424959;fill-opacity:1;fill-rule:evenodd;stroke:none;stroke-width:0.13333333"
         id="path196" />
      <path
         inkscape:connector-curvature="0"
         d="m 1112.6066,286.39337 c -0.3986,0.616 -0.508,1.316 -0.2266,1.90666 0.2626,0.552 0.8146,0.9 1.4813,1.008 0.3987,-0.616 0.508,-1.31466 0.228,-1.90533 -0.2627,-0.55333 -0.8147,-0.90133 -1.4827,-1.00933"
         style="fill:#424959;fill-opacity:1;fill-rule:evenodd;stroke:none;stroke-width:0.13333333"
         id="path198" />
      <path
         inkscape:connector-curvature="0"
         d="m 1116.2253,305.96937 c -5.8507,0 -1.352,-7.484 -1.0147,-9.98 0.2974,-2.19734 0.3987,-2.84667 -0.044,-4.47067 -0.059,-0.21867 2.408,-0.456 2.3267,-0.71733 -0.676,2.19466 -0.592,2.69333 -0.2533,5.188 0.3386,2.496 4.836,9.98 -1.0147,9.98"
         style="fill:#424959;fill-opacity:1;fill-rule:evenodd;stroke:none;stroke-width:0.13333333"
         id="path200" />
      <path
         inkscape:connector-curvature="0"
         d="m 1115.9506,304.72137 c -2.4213,0 -4.1093,-0.79867 -4.1093,-0.0387 0,0.76133 1.9627,1.37733 4.384,1.37733 2.4213,0 4.384,-0.616 4.384,-1.37733 0,-0.76 -2.2373,0.0387 -4.6587,0.0387"
         style="fill:#424959;fill-opacity:1;fill-rule:evenodd;stroke:none;stroke-width:0.13333333"
         id="path202" />
      <path
         inkscape:connector-curvature="0"
         d="m 1115.9333,304.76803 c 0.1667,-0.024 0.32,0.0893 0.3453,0.25467 0.024,0.16533 -0.089,0.32 -0.2546,0.344 -1.2694,0.19467 -2.38,-0.0173 -3.256,-0.45867 -1.0254,-0.51866 -1.7294,-1.35466 -1.992,-2.23466 -0.612,-2.04267 0.4413,-3.25467 1.4093,-4.36934 0.7733,-0.88933 1.484,-1.708 1.0107,-2.83333 -0.3627,-0.86267 -0.928,-1.21867 -1.4734,-1.23467 -0.2573,-0.008 -0.5133,0.0573 -0.7426,0.17734 -0.2334,0.12266 -0.4387,0.30133 -0.592,0.51866 l -0.013,0.0173 c -0.3253,0.472 -0.4053,1.128 0.01,1.79333 0.2053,0.332 0.512,0.472 0.804,0.46533 0.1293,-0.003 0.2573,-0.036 0.372,-0.0947 0.1106,-0.056 0.208,-0.13734 0.2813,-0.23734 0.156,-0.21466 0.2,-0.532 0.035,-0.916 -0.067,-0.15333 0,-0.33066 0.1573,-0.39733 0.152,-0.0653 0.3307,0.005 0.396,0.15733 0.2627,0.60934 0.1733,1.136 -0.097,1.51067 -0.1307,0.18 -0.304,0.32267 -0.5,0.42267 -0.192,0.0973 -0.408,0.15333 -0.6307,0.15866 -0.488,0.012 -0.9987,-0.21466 -1.3307,-0.752 -0.556,-0.90133 -0.4386,-1.80133 0.012,-2.45466 l 0.013,-0.0213 c 0.2093,-0.296 0.4906,-0.53866 0.8053,-0.70533 0.32,-0.168 0.6773,-0.25867 1.0413,-0.24667 0.7654,0.0227 1.544,0.48534 2.0134,1.604 0.62,1.47334 -0.2094,2.42667 -1.1094,3.464 -0.864,0.99334 -1.8026,2.076 -1.2866,3.8 0.2173,0.72934 0.8133,1.428 1.684,1.868 0.7706,0.388 1.7573,0.57334 2.8933,0.4"
         style="fill:#424959;fill-opacity:1;fill-rule:nonzero;stroke:none;stroke-width:0.13333333"
         id="path204" />
      <path
         inkscape:connector-curvature="0"
         d="m 1140.1493,317.11737 c 1.172,0 2.128,-0.71734 2.128,-1.596 0,-0.88 -0.956,-1.59734 -2.128,-1.59734 -1.1733,0 -2.1293,0.71734 -2.1293,1.59734 0,0.87866 0.956,1.596 2.1293,1.596"
         style="fill:#424959;fill-opacity:1;fill-rule:evenodd;stroke:none;stroke-width:0.13333333"
         id="path206" />
      <path
         inkscape:connector-curvature="0"
         d="m 1138.024,313.5307 c -0.236,0.36533 -0.3014,0.78 -0.1347,1.13067 0.156,0.328 0.484,0.53466 0.88,0.59866 0.236,-0.36533 0.3013,-0.78 0.1347,-1.13066 -0.156,-0.328 -0.484,-0.53467 -0.88,-0.59867"
         style="fill:#424959;fill-opacity:1;fill-rule:evenodd;stroke:none;stroke-width:0.13333333"
         id="path208" />
      <path
         inkscape:connector-curvature="0"
         d="m 1142.296,313.5307 c 0.236,0.36533 0.3013,0.78 0.1346,1.13067 -0.156,0.328 -0.484,0.53466 -0.88,0.59866 -0.236,-0.36533 -0.3013,-0.78 -0.1346,-1.13066 0.1573,-0.328 0.484,-0.53467 0.88,-0.59867"
         style="fill:#424959;fill-opacity:1;fill-rule:evenodd;stroke:none;stroke-width:0.13333333"
         id="path210" />
      <path
         inkscape:connector-curvature="0"
         d="m 1140.148,325.14937 c 3.472,0 0.8026,-4.44267 0.6026,-5.92267 -0.1773,-1.30533 -0.2373,-1.68933 0.025,-2.65467 0.036,-0.12933 -1.428,-0.27066 -1.38,-0.42533 0.4013,1.30267 0.3506,1.59867 0.1493,3.08 -0.2,1.48 -2.8693,5.92267 0.6027,5.92267"
         style="fill:#424959;fill-opacity:1;fill-rule:evenodd;stroke:none;stroke-width:0.13333333"
         id="path212" />
      <path
         inkscape:connector-curvature="0"
         d="m 1140.312,324.40803 c 1.436,0 2.4386,-0.47333 2.4386,-0.0227 0,0.452 -1.1653,0.81733 -2.6026,0.81733 -1.436,0 -2.6014,-0.36533 -2.6014,-0.81733 0,-0.45067 1.328,0.0227 2.7654,0.0227"
         style="fill:#424959;fill-opacity:1;fill-rule:evenodd;stroke:none;stroke-width:0.13333333"
         id="path214" />
      <path
         inkscape:connector-curvature="0"
         d="m 1140.3213,324.43603 c -0.099,-0.0147 -0.1893,0.0533 -0.204,0.15067 -0.015,0.0987 0.052,0.19067 0.1507,0.20533 0.7533,0.11467 1.412,-0.0107 1.932,-0.27333 0.6093,-0.30667 1.0266,-0.804 1.1826,-1.32667 0.3627,-1.21066 -0.2613,-1.93066 -0.8373,-2.592 -0.4573,-0.528 -0.88,-1.01466 -0.5987,-1.68266 0.2147,-0.512 0.5507,-0.72267 0.8747,-0.732 0.152,-0.005 0.304,0.0333 0.44,0.10533 0.1387,0.072 0.26,0.17867 0.352,0.308 l 0.01,0.009 c 0.1933,0.28 0.2413,0.66934 0,1.06534 -0.1213,0.19733 -0.304,0.28 -0.476,0.276 -0.077,-0.003 -0.1533,-0.0227 -0.2213,-0.056 -0.067,-0.0333 -0.124,-0.0813 -0.1667,-0.14134 -0.093,-0.128 -0.12,-0.31466 -0.021,-0.544 0.04,-0.0907 0,-0.196 -0.093,-0.23466 -0.091,-0.04 -0.196,0.003 -0.2346,0.0933 -0.156,0.36133 -0.104,0.67333 0.057,0.896 0.077,0.10667 0.18,0.192 0.296,0.25067 0.1147,0.0573 0.2427,0.0907 0.3747,0.0933 0.2906,0.008 0.5933,-0.12667 0.7906,-0.44533 0.3294,-0.53467 0.26,-1.06934 -0.01,-1.45734 l -0.01,-0.012 c -0.124,-0.176 -0.2893,-0.32 -0.4773,-0.41866 -0.1893,-0.1 -0.4027,-0.15334 -0.6187,-0.14667 -0.4533,0.0133 -0.9146,0.288 -1.1946,0.952 -0.3667,0.87467 0.124,1.44 0.6586,2.056 0.5134,0.58933 1.0707,1.232 0.764,2.25467 -0.1293,0.43333 -0.4826,0.848 -1,1.10933 -0.4573,0.23067 -1.0426,0.34 -1.7173,0.23733"
         style="fill:#424959;fill-opacity:1;fill-rule:nonzero;stroke:none;stroke-width:0.13333333"
         id="path216" />
      <path
         inkscape:connector-curvature="0"
         d="m 1160.3706,300.5547 c 1.9747,0 3.5854,-1.208 3.5854,-2.68933 0,-1.48134 -1.6107,-2.68934 -3.5854,-2.68934 -1.976,0 -3.5866,1.208 -3.5866,2.68934 0,1.48133 1.6106,2.68933 3.5866,2.68933"
         style="fill:#424959;fill-opacity:1;fill-rule:evenodd;stroke:none;stroke-width:0.13333333"
         id="path218" />
      <path
         inkscape:connector-curvature="0"
         d="m 1156.7906,294.51203 c -0.3986,0.616 -0.508,1.316 -0.2266,1.90667 0.2626,0.552 0.8133,0.9 1.4813,1.008 0.3987,-0.616 0.508,-1.31467 0.2267,-1.90533 -0.2627,-0.55334 -0.8134,-0.9 -1.4814,-1.00934"
         style="fill:#424959;fill-opacity:1;fill-rule:evenodd;stroke:none;stroke-width:0.13333333"
         id="path220" />
      <path
         inkscape:connector-curvature="0"
         d="m 1163.988,294.51203 c 0.3986,0.616 0.508,1.316 0.2266,1.90667 -0.2626,0.552 -0.8146,0.9 -1.4813,1.008 -0.3987,-0.616 -0.508,-1.31467 -0.2267,-1.90533 0.2627,-0.55334 0.8147,-0.9 1.4814,-1.00934"
         style="fill:#424959;fill-opacity:1;fill-rule:evenodd;stroke:none;stroke-width:0.13333333"
         id="path222" />
      <path
         inkscape:connector-curvature="0"
         d="m 1160.3693,314.08803 c 5.8507,0 1.3533,-7.484 1.0147,-9.97866 -0.2974,-2.19734 -0.3987,-2.84667 0.044,-4.472 0.059,-0.21867 -2.4067,-0.456 -2.3267,-0.71734 0.676,2.19467 0.592,2.69334 0.2533,5.18934 -0.3373,2.49466 -4.8346,9.97866 1.0147,9.97866"
         style="fill:#424959;fill-opacity:1;fill-rule:evenodd;stroke:none;stroke-width:0.13333333"
         id="path224" />
      <path
         inkscape:connector-curvature="0"
         d="m 1160.644,312.84003 c 2.4213,0 4.1093,-0.79733 4.1093,-0.0373 0,0.76 -1.9627,1.376 -4.384,1.376 -2.4213,0 -4.384,-0.616 -4.384,-1.376 0,-0.76 2.2373,0.0373 4.6587,0.0373"
         style="fill:#424959;fill-opacity:1;fill-rule:evenodd;stroke:none;stroke-width:0.13333333"
         id="path226" />
      <path
         inkscape:connector-curvature="0"
         d="m 1160.6613,312.8867 c -0.1653,-0.024 -0.32,0.0893 -0.3453,0.25467 -0.024,0.16533 0.089,0.32 0.2546,0.344 1.2694,0.19466 2.3814,-0.0173 3.256,-0.45867 1.0254,-0.51733 1.7294,-1.35467 1.9934,-2.23467 0.6106,-2.04133 -0.4427,-3.25466 -1.4107,-4.36933 -0.772,-0.88933 -1.484,-1.708 -1.0107,-2.83333 0.3627,-0.86267 0.928,-1.21867 1.4734,-1.23467 0.2573,-0.008 0.5133,0.0573 0.7426,0.17733 0.2334,0.12267 0.4387,0.30134 0.5934,0.51867 l 0.012,0.0173 c 0.3253,0.472 0.4053,1.128 -0.01,1.79334 -0.2053,0.332 -0.512,0.47333 -0.8026,0.46533 -0.1307,-0.003 -0.2587,-0.036 -0.3734,-0.0947 -0.1106,-0.056 -0.208,-0.13733 -0.2813,-0.23733 -0.156,-0.21467 -0.2,-0.532 -0.035,-0.916 0.067,-0.15333 0,-0.33067 -0.156,-0.396 -0.1533,-0.0667 -0.3306,0.004 -0.3973,0.156 -0.2627,0.60933 -0.1733,1.136 0.099,1.51067 0.1306,0.18 0.3026,0.324 0.4986,0.42266 0.192,0.0973 0.4094,0.15334 0.6307,0.15867 0.488,0.012 0.9987,-0.21467 1.3307,-0.752 0.556,-0.9 0.4386,-1.80133 -0.012,-2.45333 l -0.013,-0.0227 c -0.2093,-0.296 -0.4893,-0.53867 -0.8053,-0.70533 -0.32,-0.168 -0.6773,-0.25734 -1.0413,-0.24667 -0.7654,0.0227 -1.5427,0.48533 -2.0134,1.604 -0.6186,1.47333 0.2094,2.42667 1.1094,3.464 0.864,0.99467 1.804,2.076 1.288,3.8 -0.2187,0.72933 -0.8134,1.428 -1.6854,1.868 -0.7706,0.38933 -1.7573,0.57333 -2.8933,0.4"
         style="fill:#424959;fill-opacity:1;fill-rule:nonzero;stroke:none;stroke-width:0.13333333"
         id="path228" />
      <path
         inkscape:connector-curvature="0"
         d="m 1113.2986,326.33737 c 1.172,0 2.128,-0.71734 2.128,-1.59734 0,-0.87866 -0.956,-1.596 -2.128,-1.596 -1.172,0 -2.128,0.71734 -2.128,1.596 0,0.88 0.956,1.59734 2.128,1.59734"
         style="fill:#424959;fill-opacity:1;fill-rule:evenodd;stroke:none;stroke-width:0.13333333"
         id="path230" />
      <path
         inkscape:connector-curvature="0"
         d="m 1115.4226,322.7507 c 0.2374,0.36533 0.3014,0.78 0.1347,1.13067 -0.156,0.328 -0.484,0.53466 -0.88,0.59866 -0.236,-0.36533 -0.3013,-0.78 -0.1347,-1.13066 0.156,-0.328 0.484,-0.53467 0.88,-0.59867"
         style="fill:#424959;fill-opacity:1;fill-rule:evenodd;stroke:none;stroke-width:0.13333333"
         id="path232" />
      <path
         inkscape:connector-curvature="0"
         d="m 1111.1506,322.7507 c -0.236,0.36533 -0.3013,0.78 -0.1346,1.13067 0.156,0.328 0.484,0.53466 0.88,0.59866 0.236,-0.36533 0.3013,-0.78 0.1346,-1.13066 -0.156,-0.328 -0.484,-0.53467 -0.88,-0.59867"
         style="fill:#424959;fill-opacity:1;fill-rule:evenodd;stroke:none;stroke-width:0.13333333"
         id="path234" />
      <path
         inkscape:connector-curvature="0"
         d="m 1113.2986,334.36937 c -3.472,0 -0.8026,-4.44267 -0.6026,-5.924 0.1773,-1.304 0.2373,-1.68934 -0.025,-2.65334 -0.036,-0.12933 1.428,-0.27066 1.38,-0.42666 -0.4013,1.304 -0.3506,1.6 -0.1493,3.08 0.2,1.48133 2.8693,5.924 -0.6027,5.924"
         style="fill:#424959;fill-opacity:1;fill-rule:evenodd;stroke:none;stroke-width:0.13333333"
         id="path236" />
      <path
         inkscape:connector-curvature="0"
         d="m 1113.136,333.62803 c -1.4374,0 -2.44,-0.47333 -2.44,-0.0227 0,0.45066 1.1653,0.81733 2.6026,0.81733 1.4374,0 2.6014,-0.36667 2.6014,-0.81733 0,-0.45067 -1.328,0.0227 -2.764,0.0227"
         style="fill:#424959;fill-opacity:1;fill-rule:evenodd;stroke:none;stroke-width:0.13333333"
         id="path238" />
      <path
         inkscape:connector-curvature="0"
         d="m 1113.1253,333.65603 c 0.099,-0.0147 0.1907,0.052 0.2053,0.15067 0.013,0.0987 -0.053,0.18933 -0.152,0.204 -0.7533,0.116 -1.412,-0.009 -1.932,-0.272 -0.608,-0.308 -1.0266,-0.804 -1.1826,-1.32667 -0.3627,-1.212 0.2626,-1.93066 0.8373,-2.592 0.4587,-0.528 0.88,-1.01466 0.5987,-1.68266 -0.2147,-0.512 -0.5507,-0.72267 -0.8747,-0.732 -0.152,-0.005 -0.304,0.0333 -0.44,0.10533 -0.1387,0.072 -0.26,0.17867 -0.352,0.308 l -0.01,0.009 c -0.1933,0.28 -0.2413,0.66934 0,1.06534 0.1213,0.196 0.304,0.28 0.4773,0.27466 0.076,-0.001 0.152,-0.0213 0.22,-0.056 0.067,-0.032 0.124,-0.08 0.168,-0.14133 0.092,-0.12667 0.1187,-0.31467 0.02,-0.54267 -0.04,-0.0907 0,-0.196 0.093,-0.23466 0.091,-0.04 0.196,0.003 0.2346,0.0933 0.156,0.36133 0.104,0.67333 -0.057,0.896 -0.077,0.10667 -0.18,0.192 -0.296,0.25067 -0.1147,0.0573 -0.2427,0.0907 -0.3747,0.0933 -0.2906,0.008 -0.5933,-0.12667 -0.7906,-0.44533 -0.3294,-0.53467 -0.26,-1.06934 0.01,-1.45734 l 0.01,-0.012 c 0.124,-0.176 0.2906,-0.32133 0.4786,-0.41866 0.1894,-0.1 0.4014,-0.15334 0.6174,-0.14667 0.4546,0.0133 0.916,0.288 1.1946,0.952 0.368,0.87333 -0.124,1.44 -0.6586,2.056 -0.512,0.58933 -1.0707,1.232 -0.764,2.25467 0.1293,0.43333 0.4826,0.848 1,1.108 0.4573,0.232 1.0426,0.34133 1.7173,0.23866"
         style="fill:#424959;fill-opacity:1;fill-rule:nonzero;stroke:none;stroke-width:0.13333333"
         id="path240" />
      <path
         inkscape:connector-curvature="0"
         d="m 1128.5013,344.44803 c 1.976,0 3.5867,-1.208 3.5867,-2.68933 0,-1.48134 -1.6107,-2.68934 -3.5867,-2.68934 -1.9747,0 -3.5853,1.208 -3.5853,2.68934 0,1.48133 1.6106,2.68933 3.5853,2.68933"
         style="fill:#424959;fill-opacity:1;fill-rule:evenodd;stroke:none;stroke-width:0.13333333"
         id="path242" />
      <path
         inkscape:connector-curvature="0"
         d="m 1124.9213,338.4067 c -0.3973,0.616 -0.5067,1.31466 -0.2253,1.90533 0.2626,0.552 0.8133,0.9 1.4813,1.008 0.3987,-0.616 0.5067,-1.31467 0.2267,-1.90533 -0.2627,-0.55334 -0.8147,-0.9 -1.4827,-1.008"
         style="fill:#424959;fill-opacity:1;fill-rule:evenodd;stroke:none;stroke-width:0.13333333"
         id="path244" />
      <path
         inkscape:connector-curvature="0"
         d="m 1132.12,338.4067 c 0.3986,0.616 0.508,1.31466 0.2266,1.90533 -0.2626,0.552 -0.8146,0.9 -1.4813,1.008 -0.3987,-0.616 -0.508,-1.31467 -0.2267,-1.90533 0.2627,-0.55334 0.8134,-0.9 1.4814,-1.008"
         style="fill:#424959;fill-opacity:1;fill-rule:evenodd;stroke:none;stroke-width:0.13333333"
         id="path246" />
      <path
         inkscape:connector-curvature="0"
         d="m 1128.5013,357.98136 c 5.8507,0 1.352,-7.484 1.0147,-9.97866 -0.2974,-2.19734 -0.3987,-2.84667 0.044,-4.47067 0.059,-0.22 -2.4067,-0.45733 -2.3267,-0.71867 0.676,2.19467 0.592,2.69467 0.2533,5.18934 -0.3386,2.49466 -4.836,9.97866 1.0147,9.97866"
         style="fill:#424959;fill-opacity:1;fill-rule:evenodd;stroke:none;stroke-width:0.13333333"
         id="path248" />
      <path
         inkscape:connector-curvature="0"
         d="m 1128.776,356.7347 c 2.4213,0 4.1093,-0.79867 4.1093,-0.0387 0,0.76 -1.9627,1.376 -4.384,1.376 -2.4213,0 -4.384,-0.616 -4.384,-1.376 0,-0.76 2.2373,0.0387 4.6587,0.0387"
         style="fill:#424959;fill-opacity:1;fill-rule:evenodd;stroke:none;stroke-width:0.13333333"
         id="path250" />
      <path
         inkscape:connector-curvature="0"
         d="m 1128.7933,356.78003 c -0.1653,-0.024 -0.32,0.0893 -0.3453,0.25467 -0.024,0.16533 0.089,0.32 0.2546,0.34533 1.2694,0.19333 2.3814,-0.0187 3.256,-0.46 1.0254,-0.51733 1.7294,-1.35467 1.992,-2.23467 0.612,-2.04133 -0.4413,-3.25466 -1.4093,-4.36933 -0.7733,-0.88933 -1.484,-1.708 -1.0107,-2.83333 0.3627,-0.86267 0.928,-1.21867 1.4734,-1.23467 0.2573,-0.008 0.5133,0.0573 0.7426,0.17733 0.2334,0.12267 0.4387,0.30134 0.5934,0.52 l 0.012,0.016 c 0.3253,0.472 0.4053,1.128 -0.01,1.79334 -0.2053,0.33333 -0.5133,0.47333 -0.8026,0.46533 -0.1307,-0.003 -0.2587,-0.036 -0.3734,-0.0947 -0.1106,-0.056 -0.208,-0.136 -0.2813,-0.23733 -0.156,-0.21467 -0.2,-0.53067 -0.035,-0.916 0.067,-0.15333 0,-0.33067 -0.1573,-0.396 -0.152,-0.0667 -0.3307,0.004 -0.396,0.15733 -0.2627,0.608 -0.1733,1.13467 0.097,1.50934 0.1307,0.18 0.304,0.324 0.5,0.42266 0.192,0.0973 0.408,0.15334 0.6307,0.15867 0.488,0.012 0.9987,-0.21333 1.3307,-0.75067 0.556,-0.90133 0.4386,-1.80133 -0.012,-2.45466 l -0.013,-0.0213 c -0.2093,-0.29733 -0.4906,-0.54 -0.8066,-0.70666 -0.3187,-0.168 -0.676,-0.25734 -1.04,-0.24667 -0.7654,0.024 -1.544,0.48533 -2.0134,1.60533 -0.62,1.472 0.2094,2.42667 1.1094,3.46267 0.864,0.99467 1.804,2.076 1.2866,3.8 -0.2173,0.72933 -0.812,1.428 -1.684,1.868 -0.7706,0.38933 -1.7573,0.57467 -2.8933,0.4"
         style="fill:#424959;fill-opacity:1;fill-rule:nonzero;stroke:none;stroke-width:0.13333333"
         id="path252" />
      <path
         inkscape:connector-curvature="0"
         d="m 1162.8133,371.2267 c 1.976,0 3.5867,-1.208 3.5867,-2.68934 0,-1.48266 -1.6107,-2.69066 -3.5867,-2.69066 -1.9747,0 -3.5867,1.208 -3.5867,2.69066 0,1.48134 1.612,2.68934 3.5867,2.68934"
         style="fill:#424959;fill-opacity:1;fill-rule:evenodd;stroke:none;stroke-width:0.13333333"
         id="path254" />
      <path
         inkscape:connector-curvature="0"
         d="m 1166.3933,365.18403 c 0.3973,0.616 0.5067,1.31467 0.2253,1.90533 -0.2626,0.55334 -0.8133,0.9 -1.4813,1.00934 -0.3987,-0.61734 -0.508,-1.316 -0.2267,-1.90667 0.2627,-0.552 0.8147,-0.9 1.4827,-1.008"
         style="fill:#424959;fill-opacity:1;fill-rule:evenodd;stroke:none;stroke-width:0.13333333"
         id="path256" />
      <path
         inkscape:connector-curvature="0"
         d="m 1159.1946,365.18403 c -0.3986,0.616 -0.508,1.31467 -0.2266,1.90533 0.2626,0.55334 0.8146,0.9 1.4813,1.00934 0.3987,-0.61734 0.508,-1.316 0.228,-1.90667 -0.264,-0.552 -0.8147,-0.9 -1.4827,-1.008"
         style="fill:#424959;fill-opacity:1;fill-rule:evenodd;stroke:none;stroke-width:0.13333333"
         id="path258" />
      <path
         inkscape:connector-curvature="0"
         d="m 1162.8133,384.76003 c -5.8507,0 -1.352,-7.48533 -1.0147,-9.98 0.2987,-2.19733 0.3987,-2.84667 -0.043,-4.47067 -0.06,-0.22 2.4066,-0.45733 2.3253,-0.71866 -0.676,2.196 -0.592,2.69466 -0.2533,5.18933 0.3386,2.49467 4.836,9.98 -1.0147,9.98"
         style="fill:#424959;fill-opacity:1;fill-rule:evenodd;stroke:none;stroke-width:0.13333333"
         id="path260" />
      <path
         inkscape:connector-curvature="0"
         d="m 1162.5386,383.51203 c -2.4213,0 -4.1093,-0.79867 -4.1093,-0.0387 0,0.76134 1.9627,1.37734 4.384,1.37734 2.4213,0 4.384,-0.616 4.384,-1.37734 0,-0.76 -2.2373,0.0387 -4.6587,0.0387"
         style="fill:#424959;fill-opacity:1;fill-rule:evenodd;stroke:none;stroke-width:0.13333333"
         id="path262" />
      <path
         inkscape:connector-curvature="0"
         d="m 1162.5213,383.5587 c 0.1667,-0.0253 0.32,0.0893 0.3453,0.25466 0.024,0.16534 -0.089,0.32 -0.2546,0.344 -1.2694,0.19334 -2.38,-0.0173 -3.256,-0.46 -1.0254,-0.51733 -1.7294,-1.35333 -1.992,-2.23466 -0.612,-2.04134 0.4413,-3.25334 1.4093,-4.368 0.7733,-0.88934 1.484,-1.708 1.0107,-2.83467 -0.3627,-0.86133 -0.928,-1.21733 -1.4734,-1.23467 -0.2573,-0.008 -0.5133,0.0573 -0.7426,0.17867 -0.2334,0.12267 -0.4387,0.30133 -0.592,0.51867 l -0.013,0.016 c -0.3253,0.472 -0.4053,1.12933 0.01,1.79466 0.2053,0.332 0.512,0.472 0.8026,0.46534 0.1307,-0.004 0.2587,-0.0373 0.3734,-0.0947 0.1106,-0.056 0.208,-0.13733 0.2813,-0.23867 0.156,-0.21466 0.2,-0.53066 0.035,-0.91466 -0.067,-0.15334 0,-0.33067 0.1573,-0.39734 0.152,-0.0653 0.3307,0.005 0.396,0.15734 0.264,0.60933 0.1733,1.13466 -0.097,1.51066 -0.1307,0.17867 -0.304,0.32267 -0.5,0.42267 -0.192,0.0973 -0.408,0.152 -0.6307,0.15867 -0.488,0.012 -0.9987,-0.21467 -1.3307,-0.752 -0.556,-0.90134 -0.4386,-1.80134 0.012,-2.45467 l 0.013,-0.0213 c 0.2106,-0.296 0.4893,-0.54 0.8053,-0.70534 0.32,-0.168 0.6773,-0.25866 1.0413,-0.248 0.7654,0.024 1.544,0.48667 2.0134,1.60534 0.6186,1.47333 -0.2094,2.42666 -1.1094,3.46266 -0.864,0.99467 -1.804,2.076 -1.2866,3.80134 0.2173,0.728 0.8133,1.428 1.684,1.86666 0.7706,0.38934 1.7573,0.57467 2.8933,0.40134"
         style="fill:#424959;fill-opacity:1;fill-rule:nonzero;stroke:none;stroke-width:0.13333333"
         id="path264" />
      <path
         inkscape:connector-curvature="0"
         d="m 1195.2626,291.9827 c -0.944,0.56 -2.04,0.49733 -2.5466,-0.18667 -0.3667,-0.492 -0.3347,-1.184 0.015,-1.81066 0.856,0.64666 1.7014,1.312 2.532,1.99733"
         style="fill:#424959;fill-opacity:1;fill-rule:evenodd;stroke:none;stroke-width:0.13333333"
         id="path266" />
      <path
         inkscape:connector-curvature="0"
         d="m 1191.448,290.12403 c 0.029,0.45867 0.236,0.85067 0.5973,1.04267 0.3387,0.18 0.7453,0.148 1.1213,-0.0467 -0.031,-0.45866 -0.236,-0.85066 -0.5973,-1.04133 -0.34,-0.18 -0.7467,-0.14933 -1.1213,0.0453"
         style="fill:#424959;fill-opacity:1;fill-rule:evenodd;stroke:none;stroke-width:0.13333333"
         id="path268" />
      <path
         inkscape:connector-curvature="0"
         d="m 1200.5733,298.60937 c -2.9387,2.184 -3.4733,-3.256 -4.2347,-4.636 -0.6706,-1.21467 -0.8626,-1.57867 -1.6906,-2.22934 -0.025,-0.02 0.015,-0.092 0.092,-0.18933 2.3506,1.90133 4.5946,3.948 6.6626,6.064 -0.1186,0.32667 -0.38,0.65733 -0.8293,0.99067"
         style="fill:#424959;fill-opacity:1;fill-rule:evenodd;stroke:none;stroke-width:0.13333333"
         id="path270" />
      <path
         inkscape:connector-curvature="0"
         d="m 1199.9706,298.08403 c -1.2173,0.90534 -2.364,1.13334 -2.08,1.516 0.284,0.38134 1.5,-0.0413 2.7174,-0.94533 0.3733,-0.27867 0.704,-0.56933 0.9746,-0.85067 -0.196,-0.20133 -0.3933,-0.40266 -0.592,-0.604 -0.3,0.288 -0.6413,0.60267 -1.02,0.884"
         style="fill:#424959;fill-opacity:1;fill-rule:evenodd;stroke:none;stroke-width:0.13333333"
         id="path272" />
      <path
         inkscape:connector-curvature="0"
         d="m 1199.9786,298.1147 c 0.073,-0.0747 0.1934,-0.0747 0.268,-0.001 0.075,0.0747 0.075,0.19466 0,0.268 -0.564,0.572 -1.2013,0.88 -1.8066,0.984 -0.708,0.124 -1.3747,-0.0347 -1.836,-0.37867 -1.0694,-0.79733 -0.992,-1.79867 -0.9214,-2.72133 0.056,-0.73467 0.108,-1.412 -0.5506,-1.8 -0.504,-0.29867 -0.9214,-0.26667 -1.2014,-0.0707 -0.132,0.092 -0.236,0.22 -0.3066,0.36667 -0.071,0.148 -0.108,0.31466 -0.104,0.48133 v 0.0133 c 0.013,0.35867 0.2173,0.71867 0.672,0.89867 0.228,0.0907 0.4346,0.0467 0.5773,-0.0653 0.064,-0.0507 0.116,-0.11467 0.152,-0.18667 0.035,-0.0693 0.053,-0.14667 0.053,-0.224 0,-0.16667 -0.099,-0.34267 -0.3253,-0.47333 -0.091,-0.052 -0.1213,-0.168 -0.069,-0.25867 0.052,-0.0893 0.168,-0.12133 0.2586,-0.068 0.3587,0.20667 0.5107,0.50533 0.5147,0.79467 0,0.13866 -0.032,0.276 -0.093,0.39866 -0.06,0.12134 -0.148,0.22934 -0.2574,0.31467 -0.2413,0.18933 -0.5826,0.26533 -0.9493,0.12 -0.616,-0.24533 -0.8933,-0.74133 -0.9107,-1.23867 v -0.0147 c -0.01,-0.228 0.043,-0.45467 0.14,-0.656 0.097,-0.20267 0.244,-0.38267 0.4307,-0.512 0.3933,-0.27467 0.9573,-0.332 1.6107,0.0533 0.8613,0.50933 0.8013,1.29867 0.736,2.156 -0.064,0.82133 -0.132,1.716 0.772,2.38933 0.3813,0.284 0.9413,0.41334 1.544,0.30934 0.532,-0.092 1.096,-0.368 1.6026,-0.87867"
         style="fill:#424959;fill-opacity:1;fill-rule:nonzero;stroke:none;stroke-width:0.13333333"
         id="path274" />
      <path
         inkscape:connector-curvature="0"
         d="m 1082.108,300.28003 c 1.54,0.44134 3.0613,0.004 3.6213,-1.13466 0.5053,-1.02667 0.081,-2.324 -0.952,-3.26534 -0.9333,1.40934 -1.824,2.88267 -2.6693,4.4"
         style="fill:#424959;fill-opacity:1;fill-rule:evenodd;stroke:none;stroke-width:0.13333333"
         id="path276" />
      <path
         inkscape:connector-curvature="0"
         d="m 1087.2386,296.15203 c 0.087,0.728 -0.1253,1.404 -0.6373,1.80934 -0.48,0.38 -1.1293,0.448 -1.7747,0.25066 -0.087,-0.72933 0.124,-1.404 0.6374,-1.81066 0.48,-0.37867 1.128,-0.448 1.7746,-0.24934"
         style="fill:#424959;fill-opacity:1;fill-rule:evenodd;stroke:none;stroke-width:0.13333333"
         id="path278" />
      <path
         inkscape:connector-curvature="0"
         d="m 1082.0146,300.4507 c 0.1814,-0.26 0.396,-0.52667 0.664,-0.83067 0.025,-0.0293 -0.015,-0.0907 -0.097,-0.17466 -0.192,0.332 -0.38,0.668 -0.5667,1.00533 z m -5.3786,12.104 c 3.8426,0.61867 3.3053,-6.77067 4.0293,-8.94267 0.2787,-0.832 0.4773,-1.432 0.6853,-1.93333 -1.852,3.50133 -3.4493,7.2 -4.7146,10.876 v 0"
         style="fill:#424959;fill-opacity:1;fill-rule:evenodd;stroke:none;stroke-width:0.13333333"
         id="path280" />
      <path
         inkscape:connector-curvature="0"
         d="m 1077.0066,311.50137 c 1.7774,0.708 3.136,0.80933 2.8454,1.39866 -0.2694,0.548 -1.6307,0.45334 -3.28,-0.156 0.1413,-0.41333 0.2853,-0.828 0.4346,-1.24266"
         style="fill:#424959;fill-opacity:1;fill-rule:evenodd;stroke:none;stroke-width:0.13333333"
         id="path282" />
      <path
         inkscape:connector-curvature="0"
         d="m 1076.7533,312.21603 c 0.7427,0.33867 1.4827,0.484 2.168,0.476 1.148,-0.0107 2.1493,-0.452 2.7747,-1.12533 1.4493,-1.56133 1.04,-3.11467 0.6626,-4.54267 -0.3,-1.13866 -0.5773,-2.18666 0.344,-2.988 0.7067,-0.61333 1.372,-0.684 1.868,-0.45733 0.2334,0.10533 0.4347,0.27733 0.588,0.48667 0.1547,0.21333 0.26,0.464 0.3027,0.728 v 0.02 c 0.083,0.56666 -0.1347,1.19066 -0.7973,1.60666 -0.3307,0.208 -0.668,0.19867 -0.9254,0.064 -0.116,-0.0613 -0.216,-0.148 -0.2933,-0.24933 -0.075,-0.1 -0.1267,-0.216 -0.148,-0.33867 -0.044,-0.26133 0.056,-0.564 0.3747,-0.836 0.1266,-0.10933 0.1413,-0.3 0.033,-0.42533 -0.108,-0.128 -0.2987,-0.14267 -0.4253,-0.0347 -0.5054,0.43067 -0.656,0.94134 -0.5787,1.39867 0.037,0.21867 0.1293,0.424 0.2613,0.59867 0.1294,0.17333 0.3,0.31866 0.496,0.42133 0.4334,0.22667 0.992,0.24933 1.5254,-0.0867 0.8973,-0.56266 1.1893,-1.42266 1.0733,-2.208 v -0.0253 c -0.057,-0.35867 -0.2013,-0.7 -0.412,-0.988 -0.212,-0.292 -0.4933,-0.53067 -0.824,-0.68133 -0.6973,-0.31734 -1.6,-0.24667 -2.5146,0.55066 -1.2067,1.048 -0.884,2.27067 -0.5334,3.59734 0.336,1.27333 0.7014,2.65866 -0.524,3.97866 -0.5173,0.55734 -1.3586,0.92134 -2.336,0.932 -0.6146,0.007 -1.284,-0.12933 -1.9586,-0.44533 l -0.2027,0.57333"
         style="fill:#424959;fill-opacity:1;fill-rule:nonzero;stroke:none;stroke-width:0.13333333"
         id="path284" />
      <path
         inkscape:connector-curvature="0"
         d="m 1145.788,290.71603 c 1.172,0 2.128,-0.71733 2.128,-1.596 0,-0.88 -0.956,-1.596 -2.128,-1.596 -1.172,0 -2.128,0.716 -2.128,1.596 0,0.87867 0.956,1.596 2.128,1.596"
         style="fill:#424959;fill-opacity:1;fill-rule:evenodd;stroke:none;stroke-width:0.13333333"
         id="path286" />
      <path
         inkscape:connector-curvature="0"
         d="m 1147.912,287.1307 c 0.2373,0.36533 0.3013,0.78 0.1346,1.13067 -0.156,0.328 -0.484,0.53333 -0.88,0.59866 -0.236,-0.36666 -0.3013,-0.78133 -0.1346,-1.13066 0.156,-0.32934 0.484,-0.53467 0.88,-0.59867"
         style="fill:#424959;fill-opacity:1;fill-rule:evenodd;stroke:none;stroke-width:0.13333333"
         id="path288" />
      <path
         inkscape:connector-curvature="0"
         d="m 1143.64,287.1307 c -0.236,0.36533 -0.3014,0.78 -0.1347,1.13067 0.156,0.328 0.484,0.53333 0.88,0.59866 0.236,-0.36666 0.3013,-0.78133 0.1347,-1.13066 -0.156,-0.32934 -0.484,-0.53467 -0.88,-0.59867"
         style="fill:#424959;fill-opacity:1;fill-rule:evenodd;stroke:none;stroke-width:0.13333333"
         id="path290" />
      <path
         inkscape:connector-curvature="0"
         d="m 1145.788,298.74803 c -3.472,0 -0.8027,-4.44266 -0.6027,-5.92266 0.1773,-1.304 0.2373,-1.68934 -0.025,-2.65334 -0.036,-0.13066 1.428,-0.27066 1.38,-0.42666 -0.4014,1.30266 -0.3507,1.59866 -0.1507,3.08 0.2013,1.48 2.8707,5.92266 -0.6013,5.92266"
         style="fill:#424959;fill-opacity:1;fill-rule:evenodd;stroke:none;stroke-width:0.13333333"
         id="path292" />
      <path
         inkscape:connector-curvature="0"
         d="m 1145.6253,298.00803 c -1.4373,0 -2.44,-0.47466 -2.44,-0.0227 0,0.45066 1.1653,0.816 2.6027,0.816 1.436,0 2.6013,-0.36534 2.6013,-0.816 0,-0.452 -1.328,0.0227 -2.764,0.0227"
         style="fill:#424959;fill-opacity:1;fill-rule:evenodd;stroke:none;stroke-width:0.13333333"
         id="path294" />
      <path
         inkscape:connector-curvature="0"
         d="m 1145.6146,298.0347 c 0.097,-0.0147 0.1894,0.0533 0.2054,0.152 0.013,0.0973 -0.053,0.18933 -0.152,0.204 -0.7534,0.11467 -1.412,-0.0107 -1.932,-0.27333 -0.6094,-0.30667 -1.0267,-0.80267 -1.1827,-1.32534 -0.3627,-1.212 0.2627,-1.932 0.8373,-2.59333 0.4574,-0.528 0.88,-1.01333 0.5987,-1.68133 -0.2147,-0.512 -0.5507,-0.724 -0.8747,-0.73334 -0.152,-0.005 -0.304,0.0347 -0.44,0.10534 -0.1386,0.0733 -0.26,0.18 -0.352,0.308 l -0.01,0.0107 c -0.1934,0.28 -0.2414,0.66934 0,1.064 0.1214,0.19734 0.304,0.28 0.476,0.276 0.077,-10e-4 0.1534,-0.0213 0.2214,-0.056 0.067,-0.0333 0.124,-0.0813 0.168,-0.14133 0.092,-0.12667 0.1186,-0.31467 0.02,-0.544 -0.04,-0.0907 0,-0.196 0.093,-0.23467 0.091,-0.0387 0.196,0.003 0.2347,0.0933 0.156,0.36133 0.104,0.67333 -0.057,0.896 -0.077,0.10666 -0.18,0.192 -0.296,0.25066 -0.1146,0.0587 -0.2426,0.0907 -0.3746,0.0947 -0.2907,0.007 -0.5934,-0.12667 -0.7907,-0.44533 -0.3293,-0.536 -0.26,-1.06934 0.01,-1.45734 l 0.01,-0.0133 c 0.124,-0.17467 0.2907,-0.32 0.4773,-0.41867 0.1907,-0.0987 0.4027,-0.15333 0.6187,-0.14666 0.4533,0.0147 0.916,0.288 1.1947,0.952 0.368,0.87466 -0.124,1.44133 -0.6587,2.056 -0.512,0.59066 -1.0707,1.232 -0.764,2.256 0.1293,0.432 0.4827,0.84666 1,1.108 0.4573,0.23066 1.0427,0.34133 1.7173,0.23733"
         style="fill:#424959;fill-opacity:1;fill-rule:nonzero;stroke:none;stroke-width:0.13333333"
         id="path296" />
      <path
         inkscape:connector-curvature="0"
         d="m 1111.5746,369.56936 c 1.172,0 2.128,-0.71733 2.128,-1.596 0,-0.88 -0.956,-1.596 -2.128,-1.596 -1.1733,0 -2.1293,0.716 -2.1293,1.596 0,0.87867 0.956,1.596 2.1293,1.596"
         style="fill:#424959;fill-opacity:1;fill-rule:evenodd;stroke:none;stroke-width:0.13333333"
         id="path298" />
      <path
         inkscape:connector-curvature="0"
         d="m 1109.4493,365.98403 c -0.2373,0.36533 -0.3013,0.78 -0.1347,1.13067 0.156,0.328 0.484,0.53466 0.88,0.59866 0.236,-0.36666 0.3014,-0.78133 0.1347,-1.13066 -0.156,-0.32934 -0.484,-0.53467 -0.88,-0.59867"
         style="fill:#424959;fill-opacity:1;fill-rule:evenodd;stroke:none;stroke-width:0.13333333"
         id="path300" />
      <path
         inkscape:connector-curvature="0"
         d="m 1113.7213,365.98403 c 0.236,0.36533 0.3013,0.78 0.1347,1.13067 -0.156,0.328 -0.484,0.53466 -0.88,0.59866 -0.236,-0.36666 -0.3014,-0.78133 -0.1347,-1.13066 0.156,-0.32934 0.484,-0.53467 0.88,-0.59867"
         style="fill:#424959;fill-opacity:1;fill-rule:evenodd;stroke:none;stroke-width:0.13333333"
         id="path302" />
      <path
         inkscape:connector-curvature="0"
         d="m 1111.5733,377.60136 c 3.472,0 0.8027,-4.44266 0.6027,-5.92266 -0.1774,-1.304 -0.2374,-1.68934 0.025,-2.65334 0.036,-0.13066 -1.428,-0.27066 -1.38,-0.42666 0.4013,1.304 0.3507,1.59866 0.1507,3.08 -0.2014,1.48 -2.8707,5.92266 0.6013,5.92266"
         style="fill:#424959;fill-opacity:1;fill-rule:evenodd;stroke:none;stroke-width:0.13333333"
         id="path304" />
      <path
         inkscape:connector-curvature="0"
         d="m 1111.736,376.86136 c 1.4373,0 2.44,-0.47466 2.44,-0.0227 0,0.45066 -1.1654,0.81733 -2.6027,0.81733 -1.436,0 -2.6013,-0.36667 -2.6013,-0.81733 0,-0.452 1.328,0.0227 2.764,0.0227"
         style="fill:#424959;fill-opacity:1;fill-rule:evenodd;stroke:none;stroke-width:0.13333333"
         id="path306" />
      <path
         inkscape:connector-curvature="0"
         d="m 1111.7466,376.88803 c -0.097,-0.0147 -0.1893,0.0533 -0.2053,0.152 -0.013,0.0973 0.053,0.18933 0.152,0.204 0.7533,0.11467 1.4133,-0.0107 1.932,-0.27333 0.6093,-0.30667 1.0267,-0.80267 1.1827,-1.32534 0.3626,-1.212 -0.2627,-1.932 -0.8374,-2.59333 -0.4573,-0.528 -0.88,-1.01333 -0.5986,-1.68133 0.2146,-0.512 0.5506,-0.724 0.8746,-0.73334 0.152,-0.005 0.304,0.0347 0.44,0.10667 0.1387,0.072 0.26,0.17867 0.352,0.30667 l 0.01,0.0107 c 0.1933,0.28 0.2413,0.66934 0,1.064 -0.1213,0.19734 -0.304,0.28 -0.4773,0.276 -0.076,-0.001 -0.152,-0.0213 -0.22,-0.056 -0.067,-0.0333 -0.124,-0.0813 -0.168,-0.14133 -0.092,-0.12667 -0.1187,-0.31467 -0.02,-0.54267 0.04,-0.092 0,-0.19733 -0.093,-0.236 -0.091,-0.0387 -0.196,0.003 -0.2347,0.0933 -0.156,0.36133 -0.104,0.67333 0.057,0.896 0.077,0.10666 0.18,0.192 0.296,0.252 0.1147,0.0573 0.2427,0.0893 0.3747,0.0933 0.2907,0.007 0.5933,-0.12667 0.7907,-0.44533 0.3293,-0.53467 0.26,-1.06934 -0.01,-1.45734 l -0.01,-0.012 c -0.124,-0.176 -0.2907,-0.32133 -0.4774,-0.42 -0.1906,-0.0987 -0.4026,-0.15333 -0.6186,-0.14666 -0.4534,0.0147 -0.916,0.288 -1.1947,0.952 -0.368,0.87466 0.124,1.44133 0.6587,2.056 0.512,0.59066 1.0706,1.232 0.764,2.256 -0.1294,0.432 -0.4827,0.84666 -1,1.108 -0.4574,0.23066 -1.0427,0.34133 -1.7174,0.23733"
         style="fill:#424959;fill-opacity:1;fill-rule:nonzero;stroke:none;stroke-width:0.13333333"
         id="path308" />
      <path
         inkscape:connector-curvature="0"
         d="m 1132.8426,393.0307 c 1.976,0 3.5867,-1.208 3.5867,-2.68934 0,-1.48133 -1.6107,-2.69066 -3.5867,-2.69066 -1.9746,0 -3.5853,1.20933 -3.5853,2.69066 0,1.48134 1.6107,2.68934 3.5853,2.68934"
         style="fill:#424959;fill-opacity:1;fill-rule:evenodd;stroke:none;stroke-width:0.13333333"
         id="path310" />
      <path
         inkscape:connector-curvature="0"
         d="m 1136.4226,386.98803 c 0.3974,0.616 0.5067,1.31467 0.2267,1.90533 -0.264,0.55334 -0.8147,0.90134 -1.4827,1.00934 -0.3986,-0.61734 -0.5066,-1.316 -0.2266,-1.90667 0.2626,-0.552 0.8146,-0.9 1.4826,-1.008"
         style="fill:#424959;fill-opacity:1;fill-rule:evenodd;stroke:none;stroke-width:0.13333333"
         id="path312" />
      <path
         inkscape:connector-curvature="0"
         d="m 1129.224,386.98803 c -0.3987,0.616 -0.508,1.31467 -0.2267,1.90533 0.2627,0.55334 0.8147,0.90134 1.4813,1.00934 0.4,-0.61734 0.508,-1.316 0.228,-1.90667 -0.2626,-0.552 -0.8146,-0.9 -1.4826,-1.008"
         style="fill:#424959;fill-opacity:1;fill-rule:evenodd;stroke:none;stroke-width:0.13333333"
         id="path314" />
      <path
         inkscape:connector-curvature="0"
         d="m 1132.8426,406.56403 c -5.8493,0 -1.352,-7.48533 -1.0146,-9.98 0.2986,-2.19733 0.3986,-2.84667 -0.043,-4.47067 -0.06,-0.22 2.4067,-0.45733 2.3253,-0.71866 -0.676,2.196 -0.592,2.69466 -0.2533,5.18933 0.3387,2.49467 4.836,9.98 -1.0147,9.98"
         style="fill:#424959;fill-opacity:1;fill-rule:evenodd;stroke:none;stroke-width:0.13333333"
         id="path316" />
      <path
         inkscape:connector-curvature="0"
         d="m 1132.568,405.31603 c -2.4214,0 -4.1094,-0.79867 -4.1094,-0.0387 0,0.76134 1.9627,1.37734 4.384,1.37734 2.4214,0 4.384,-0.616 4.384,-1.37734 0,-0.76 -2.2373,0.0387 -4.6586,0.0387"
         style="fill:#424959;fill-opacity:1;fill-rule:evenodd;stroke:none;stroke-width:0.13333333"
         id="path318" />
      <path
         inkscape:connector-curvature="0"
         d="m 1132.552,405.3627 c 0.1653,-0.0253 0.3186,0.0893 0.344,0.25466 0.024,0.16534 -0.089,0.32 -0.2547,0.344 -1.2693,0.19334 -2.38,-0.0173 -3.256,-0.46 -1.0253,-0.51733 -1.7293,-1.35333 -1.992,-2.23333 -0.612,-2.04267 0.4413,-3.25467 1.4093,-4.36933 0.7734,-0.88934 1.484,-1.708 1.0107,-2.83334 -0.3627,-0.86266 -0.928,-1.21866 -1.4733,-1.236 -0.2574,-0.008 -0.5134,0.0587 -0.7427,0.17867 -0.2333,0.12267 -0.4387,0.30133 -0.592,0.51867 l -0.013,0.016 c -0.3254,0.472 -0.4054,1.12933 0.01,1.79466 0.2053,0.332 0.5133,0.472 0.804,0.46534 0.1293,-0.004 0.2573,-0.0373 0.372,-0.0947 0.1107,-0.056 0.208,-0.13733 0.2813,-0.23867 0.156,-0.21466 0.2,-0.53066 0.035,-0.91466 -0.067,-0.15334 0,-0.33067 0.1573,-0.39734 0.152,-0.0653 0.3307,0.005 0.396,0.15734 0.264,0.60933 0.1734,1.13466 -0.097,1.51066 -0.1307,0.18 -0.304,0.32267 -0.5,0.42267 -0.192,0.0973 -0.408,0.152 -0.6307,0.15867 -0.488,0.012 -0.9986,-0.21467 -1.3306,-0.752 -0.556,-0.90134 -0.4387,-1.80134 0.012,-2.45467 l 0.015,-0.0213 c 0.2094,-0.296 0.4894,-0.54 0.8054,-0.70534 0.3186,-0.168 0.6773,-0.25866 1.04,-0.248 0.7653,0.024 1.544,0.48667 2.0133,1.60534 0.62,1.47333 -0.2093,2.42666 -1.1093,3.46266 -0.864,0.99467 -1.8027,2.07734 -1.2867,3.80134 0.2173,0.728 0.8133,1.428 1.684,1.868 0.7707,0.388 1.7573,0.57333 2.8947,0.4"
         style="fill:#424959;fill-opacity:1;fill-rule:nonzero;stroke:none;stroke-width:0.13333333"
         id="path320" />
      <path
         inkscape:connector-curvature="0"
         d="m 1165.36,400.3187 c 1.172,0 2.128,-0.71734 2.128,-1.596 0,-0.88 -0.956,-1.59734 -2.128,-1.59734 -1.1734,0 -2.1294,0.71734 -2.1294,1.59734 0,0.87866 0.956,1.596 2.1294,1.596"
         style="fill:#424959;fill-opacity:1;fill-rule:evenodd;stroke:none;stroke-width:0.13333333"
         id="path322" />
      <path
         inkscape:connector-curvature="0"
         d="m 1167.484,396.73203 c 0.236,0.36667 0.3013,0.78 0.1346,1.13067 -0.1573,0.328 -0.484,0.53466 -0.88,0.59866 -0.236,-0.36533 -0.3013,-0.78 -0.1346,-1.13066 0.156,-0.328 0.484,-0.53467 0.88,-0.59867"
         style="fill:#424959;fill-opacity:1;fill-rule:evenodd;stroke:none;stroke-width:0.13333333"
         id="path324" />
      <path
         inkscape:connector-curvature="0"
         d="m 1163.212,396.73203 c -0.2374,0.36667 -0.3014,0.78 -0.1347,1.13067 0.1547,0.328 0.4827,0.53466 0.8787,0.59866 0.2373,-0.36533 0.3013,-0.78 0.1346,-1.13066 -0.156,-0.328 -0.4826,-0.53467 -0.8786,-0.59867"
         style="fill:#424959;fill-opacity:1;fill-rule:evenodd;stroke:none;stroke-width:0.13333333"
         id="path326" />
      <path
         inkscape:connector-curvature="0"
         d="m 1165.3586,408.3507 c -3.472,0 -0.8026,-4.44267 -0.6013,-5.92267 0.176,-1.30533 0.236,-1.68933 -0.025,-2.65467 -0.036,-0.12933 1.428,-0.27066 1.38,-0.42533 -0.4014,1.30267 -0.3507,1.59867 -0.1507,3.08 0.2013,1.48 2.8693,5.92267 -0.6027,5.92267"
         style="fill:#424959;fill-opacity:1;fill-rule:evenodd;stroke:none;stroke-width:0.13333333"
         id="path328" />
      <path
         inkscape:connector-curvature="0"
         d="m 1165.196,407.60936 c -1.4374,0 -2.4387,-0.47333 -2.4387,-0.0227 0,0.452 1.1653,0.81733 2.6013,0.81733 1.4374,0 2.6027,-0.36533 2.6027,-0.81733 0,-0.45067 -1.328,0.0227 -2.7653,0.0227"
         style="fill:#424959;fill-opacity:1;fill-rule:evenodd;stroke:none;stroke-width:0.13333333"
         id="path330" />
      <path
         inkscape:connector-curvature="0"
         d="m 1165.1866,407.63736 c 0.097,-0.0147 0.1894,0.0533 0.204,0.15067 0.015,0.0987 -0.053,0.19067 -0.1506,0.20533 -0.7534,0.11467 -1.4134,-0.0107 -1.9334,-0.27333 -0.608,-0.30667 -1.0253,-0.804 -1.1826,-1.32667 -0.3627,-1.21066 0.2626,-1.93066 0.8373,-2.592 0.4587,-0.528 0.88,-1.01333 0.6,-1.68266 -0.216,-0.512 -0.5507,-0.72267 -0.8747,-0.732 -0.152,-0.005 -0.304,0.0333 -0.4413,0.10533 -0.1373,0.0733 -0.26,0.17867 -0.3507,0.308 l -0.01,0.009 c -0.192,0.28 -0.24,0.66934 0,1.06534 0.1214,0.19733 0.304,0.28 0.476,0.276 0.077,-0.003 0.1534,-0.0227 0.2214,-0.056 0.065,-0.0333 0.124,-0.0813 0.1666,-0.14134 0.092,-0.128 0.1187,-0.31466 0.02,-0.544 -0.039,-0.0907 0,-0.196 0.095,-0.23466 0.091,-0.04 0.196,0.003 0.2347,0.0933 0.156,0.36133 0.1026,0.67333 -0.059,0.896 -0.077,0.10667 -0.18,0.192 -0.296,0.25067 -0.1133,0.0573 -0.2427,0.0907 -0.3747,0.0933 -0.2893,0.008 -0.592,-0.12667 -0.7893,-0.44533 -0.3293,-0.53467 -0.26,-1.06934 0.01,-1.45734 l 0.01,-0.012 c 0.124,-0.176 0.2893,-0.32 0.4773,-0.41866 0.1894,-0.1 0.4027,-0.15334 0.6174,-0.14667 0.4546,0.0133 0.916,0.288 1.196,0.952 0.3666,0.87467 -0.1254,1.44 -0.66,2.056 -0.512,0.58933 -1.0694,1.232 -0.7627,2.256 0.1293,0.432 0.4827,0.84667 0.9987,1.108 0.4586,0.23067 1.044,0.34 1.7186,0.23733"
         style="fill:#424959;fill-opacity:1;fill-rule:nonzero;stroke:none;stroke-width:0.13333333"
         id="path332" />
      <path
         inkscape:connector-curvature="0"
         d="m 1158.9373,349.6067 c 1.1733,0 2.128,-0.71734 2.128,-1.59734 0,-0.87866 -0.9547,-1.596 -2.128,-1.596 -1.172,0 -2.128,0.71734 -2.128,1.596 0,0.88 0.956,1.59734 2.128,1.59734"
         style="fill:#424959;fill-opacity:1;fill-rule:evenodd;stroke:none;stroke-width:0.13333333"
         id="path334" />
      <path
         inkscape:connector-curvature="0"
         d="m 1156.8133,346.02003 c -0.2373,0.36533 -0.3013,0.78 -0.1347,1.13067 0.156,0.328 0.4827,0.53466 0.8787,0.59866 0.2373,-0.36533 0.3013,-0.78 0.1347,-1.13066 -0.1547,-0.328 -0.4827,-0.53467 -0.8787,-0.59867"
         style="fill:#424959;fill-opacity:1;fill-rule:evenodd;stroke:none;stroke-width:0.13333333"
         id="path336" />
      <path
         inkscape:connector-curvature="0"
         d="m 1161.0853,346.02003 c 0.236,0.36533 0.3,0.78 0.1333,1.13067 -0.1546,0.328 -0.4826,0.53466 -0.8786,0.59866 -0.236,-0.36533 -0.3014,-0.78 -0.1347,-1.13066 0.156,-0.328 0.4827,-0.53467 0.88,-0.59867"
         style="fill:#424959;fill-opacity:1;fill-rule:evenodd;stroke:none;stroke-width:0.13333333"
         id="path338" />
      <path
         inkscape:connector-curvature="0"
         d="m 1158.9373,357.6387 c 3.472,0 0.8027,-4.44267 0.6013,-5.92267 -0.176,-1.30533 -0.236,-1.69067 0.027,-2.65467 0.036,-0.12933 -1.428,-0.27066 -1.3813,-0.42533 0.4013,1.30267 0.352,1.59867 0.1506,3.08 -0.2,1.48 -2.8693,5.92267 0.6027,5.92267"
         style="fill:#424959;fill-opacity:1;fill-rule:evenodd;stroke:none;stroke-width:0.13333333"
         id="path340" />
      <path
         inkscape:connector-curvature="0"
         d="m 1159.1,356.89736 c 1.4373,0 2.4386,-0.47333 2.4386,-0.0227 0,0.452 -1.164,0.81733 -2.6013,0.81733 -1.4373,0 -2.6013,-0.36533 -2.6013,-0.81733 0,-0.45067 1.3266,0.0227 2.764,0.0227"
         style="fill:#424959;fill-opacity:1;fill-rule:evenodd;stroke:none;stroke-width:0.13333333"
         id="path342" />
      <path
         inkscape:connector-curvature="0"
         d="m 1159.1106,356.92536 c -0.099,-0.0147 -0.1906,0.052 -0.2053,0.15067 -0.015,0.0987 0.053,0.18933 0.1507,0.20533 0.7533,0.11467 1.4133,-0.0107 1.9333,-0.27333 0.608,-0.308 1.0253,-0.804 1.1827,-1.32667 0.3626,-1.212 -0.2627,-1.93066 -0.8374,-2.592 -0.4586,-0.528 -0.88,-1.01466 -0.6,-1.68266 0.216,-0.512 0.5507,-0.72267 0.8747,-0.732 0.1533,-0.005 0.304,0.0333 0.4413,0.10533 0.1374,0.072 0.26,0.17867 0.352,0.308 l 0.01,0.009 c 0.1933,0.28 0.24,0.66934 0,1.06534 -0.1226,0.19733 -0.3053,0.28 -0.4773,0.27466 -0.077,-10e-4 -0.1533,-0.0213 -0.2213,-0.0547 -0.065,-0.0333 -0.1227,-0.0813 -0.1667,-0.14134 -0.092,-0.128 -0.1187,-0.316 -0.02,-0.544 0.039,-0.0907 0,-0.196 -0.093,-0.23466 -0.091,-0.04 -0.196,0.003 -0.236,0.0933 -0.156,0.36133 -0.1027,0.67333 0.059,0.896 0.077,0.10667 0.18,0.192 0.296,0.25067 0.1147,0.0573 0.2427,0.0907 0.3747,0.0933 0.2893,0.008 0.5933,-0.12667 0.7893,-0.44533 0.3307,-0.53467 0.2614,-1.06934 -0.01,-1.45734 l -0.01,-0.012 c -0.124,-0.176 -0.2907,-0.32 -0.4787,-0.41866 -0.1893,-0.1 -0.4013,-0.15334 -0.6173,-0.14667 -0.4547,0.0133 -0.916,0.288 -1.1947,0.952 -0.368,0.87467 0.124,1.44 0.6587,2.056 0.512,0.58933 1.0693,1.232 0.764,2.25467 -0.1307,0.43333 -0.4827,0.848 -1,1.108 -0.4574,0.232 -1.0427,0.34133 -1.7174,0.23866"
         style="fill:#424959;fill-opacity:1;fill-rule:nonzero;stroke:none;stroke-width:0.13333333"
         id="path344" />
      <path
         inkscape:connector-curvature="0"
         d="m 1107.4893,410.85603 c 1.1733,0 2.128,-0.71733 2.128,-1.59733 0,-0.87867 -0.9547,-1.596 -2.128,-1.596 -1.172,0 -2.128,0.71733 -2.128,1.596 0,0.88 0.956,1.59733 2.128,1.59733"
         style="fill:#424959;fill-opacity:1;fill-rule:evenodd;stroke:none;stroke-width:0.13333333"
         id="path346" />
      <path
         inkscape:connector-curvature="0"
         d="m 1105.3653,407.26936 c -0.2373,0.36534 -0.3013,0.78 -0.1347,1.13067 0.156,0.328 0.4827,0.53467 0.8787,0.59867 0.2373,-0.36534 0.3013,-0.78 0.1347,-1.13067 -0.156,-0.328 -0.4827,-0.53467 -0.8787,-0.59867"
         style="fill:#424959;fill-opacity:1;fill-rule:evenodd;stroke:none;stroke-width:0.13333333"
         id="path348" />
      <path
         inkscape:connector-curvature="0"
         d="m 1109.6373,407.26936 c 0.236,0.36534 0.3,0.78 0.1333,1.13067 -0.1546,0.328 -0.4826,0.53467 -0.8786,0.59867 -0.2374,-0.36534 -0.3014,-0.78 -0.1347,-1.13067 0.156,-0.328 0.4827,-0.53467 0.88,-0.59867"
         style="fill:#424959;fill-opacity:1;fill-rule:evenodd;stroke:none;stroke-width:0.13333333"
         id="path350" />
      <path
         inkscape:connector-curvature="0"
         d="m 1107.4893,418.88803 c 3.472,0 0.8027,-4.44267 0.6013,-5.924 -0.176,-1.304 -0.236,-1.68933 0.027,-2.65333 0.035,-0.12934 -1.4293,-0.27067 -1.3813,-0.42667 0.4013,1.304 0.352,1.6 0.1506,3.08 -0.2,1.48133 -2.8693,5.924 0.6027,5.924"
         style="fill:#424959;fill-opacity:1;fill-rule:evenodd;stroke:none;stroke-width:0.13333333"
         id="path352" />
      <path
         inkscape:connector-curvature="0"
         d="m 1107.652,418.1467 c 1.4373,0 2.4386,-0.47467 2.4386,-0.0227 0,0.45067 -1.164,0.81733 -2.6013,0.81733 -1.4373,0 -2.6013,-0.36666 -2.6013,-0.81733 0,-0.452 1.3266,0.0227 2.764,0.0227"
         style="fill:#424959;fill-opacity:1;fill-rule:evenodd;stroke:none;stroke-width:0.13333333"
         id="path354" />
      <path
         inkscape:connector-curvature="0"
         d="m 1107.6626,418.1747 c -0.099,-0.0147 -0.1906,0.052 -0.2053,0.15066 -0.015,0.0973 0.053,0.18934 0.1507,0.204 0.7533,0.116 1.4133,-0.0107 1.9333,-0.272 0.608,-0.308 1.0253,-0.804 1.1827,-1.32666 0.3626,-1.212 -0.2627,-1.93067 -0.8374,-2.59334 -0.4586,-0.528 -0.88,-1.01333 -0.6,-1.68133 0.216,-0.512 0.5507,-0.72267 0.8747,-0.73333 0.152,-0.004 0.304,0.0347 0.4413,0.10666 0.1374,0.072 0.26,0.17867 0.3507,0.308 l 0.01,0.009 c 0.1933,0.28 0.24,0.66933 0,1.064 -0.1226,0.19733 -0.3053,0.28133 -0.4773,0.276 -0.077,-10e-4 -0.1533,-0.0213 -0.2213,-0.056 -0.065,-0.0333 -0.1227,-0.0813 -0.1667,-0.14134 -0.092,-0.12666 -0.1187,-0.31466 -0.02,-0.54266 0.039,-0.0907 0,-0.196 -0.093,-0.236 -0.091,-0.0387 -0.196,0.003 -0.236,0.0933 -0.156,0.36133 -0.1027,0.67467 0.059,0.89733 0.077,0.10534 0.18,0.192 0.296,0.25067 0.1147,0.0573 0.2427,0.0907 0.3747,0.0933 0.2893,0.008 0.5933,-0.12666 0.7893,-0.44533 0.3307,-0.53467 0.2614,-1.06933 -0.01,-1.45733 l -0.01,-0.012 c -0.1254,-0.176 -0.2907,-0.32134 -0.4787,-0.41867 -0.1893,-0.1 -0.4013,-0.15333 -0.6173,-0.14667 -0.4547,0.0133 -0.916,0.288 -1.1947,0.952 -0.368,0.87334 0.124,1.44 0.6587,2.056 0.512,0.58934 1.0693,1.232 0.764,2.25467 -0.1307,0.43333 -0.4827,0.84667 -1,1.108 -0.4574,0.232 -1.0427,0.34133 -1.7174,0.23867"
         style="fill:#424959;fill-opacity:1;fill-rule:nonzero;stroke:none;stroke-width:0.13333333"
         id="path356" />
      <path
         inkscape:connector-curvature="0"
         d="m 1149.5426,413.8027 c 1.1734,0 2.1294,-0.71734 2.1294,-1.59734 0,-0.87866 -0.956,-1.596 -2.1294,-1.596 -1.172,0 -2.128,0.71734 -2.128,1.596 0,0.88 0.956,1.59734 2.128,1.59734"
         style="fill:#424959;fill-opacity:1;fill-rule:evenodd;stroke:none;stroke-width:0.13333333"
         id="path358" />
      <path
         inkscape:connector-curvature="0"
         d="m 1147.4186,410.21603 c -0.2373,0.36533 -0.3013,0.78 -0.1346,1.13067 0.156,0.328 0.484,0.53466 0.8786,0.59866 0.2374,-0.36666 0.3027,-0.78 0.1347,-1.13066 -0.1547,-0.32934 -0.4827,-0.53467 -0.8787,-0.59867"
         style="fill:#424959;fill-opacity:1;fill-rule:evenodd;stroke:none;stroke-width:0.13333333"
         id="path360" />
      <path
         inkscape:connector-curvature="0"
         d="m 1151.6906,410.21603 c 0.236,0.36533 0.3014,0.78 0.1347,1.13067 -0.156,0.328 -0.484,0.53466 -0.88,0.59866 -0.236,-0.36666 -0.3013,-0.78 -0.1347,-1.13066 0.156,-0.32934 0.484,-0.53467 0.88,-0.59867"
         style="fill:#424959;fill-opacity:1;fill-rule:evenodd;stroke:none;stroke-width:0.13333333"
         id="path362" />
      <path
         inkscape:connector-curvature="0"
         d="m 1149.5426,421.83336 c 3.472,0 0.8027,-4.44133 0.6027,-5.92266 -0.1773,-1.304 -0.2373,-1.68934 0.025,-2.65334 0.036,-0.12933 -1.428,-0.27066 -1.38,-0.42666 0.4014,1.304 0.3507,1.6 0.1494,3.08 -0.2,1.48133 -2.8694,5.92266 0.6026,5.92266"
         style="fill:#424959;fill-opacity:1;fill-rule:evenodd;stroke:none;stroke-width:0.13333333"
         id="path364" />
      <path
         inkscape:connector-curvature="0"
         d="m 1149.7053,421.09336 c 1.4373,0 2.44,-0.47466 2.44,-0.0227 0,0.45066 -1.1653,0.81733 -2.6027,0.81733 -1.4373,0 -2.6013,-0.36667 -2.6013,-0.81733 0,-0.452 1.328,0.0227 2.764,0.0227"
         style="fill:#424959;fill-opacity:1;fill-rule:evenodd;stroke:none;stroke-width:0.13333333"
         id="path366" />
      <path
         inkscape:connector-curvature="0"
         d="m 1149.716,421.12136 c -0.099,-0.016 -0.1907,0.052 -0.2054,0.15067 -0.013,0.0973 0.053,0.18933 0.152,0.204 0.7534,0.11467 1.412,-0.0107 1.932,-0.272 0.6094,-0.308 1.0267,-0.804 1.1827,-1.32667 0.3627,-1.212 -0.2627,-1.932 -0.8373,-2.59333 -0.4587,-0.528 -0.88,-1.01333 -0.5987,-1.68133 0.2147,-0.512 0.5507,-0.724 0.8747,-0.73334 0.152,-0.004 0.304,0.0347 0.44,0.10667 0.1386,0.072 0.26,0.17867 0.352,0.30667 l 0.01,0.0107 c 0.1934,0.28 0.2414,0.66934 0,1.064 -0.1227,0.19734 -0.304,0.28134 -0.4774,0.276 -0.076,-10e-4 -0.152,-0.0213 -0.2213,-0.056 -0.065,-0.0333 -0.1227,-0.0813 -0.1667,-0.14133 -0.092,-0.12667 -0.1186,-0.31467 -0.02,-0.54267 0.039,-0.0907 0,-0.196 -0.093,-0.236 -0.091,-0.0387 -0.196,0.003 -0.2347,0.0933 -0.156,0.36133 -0.104,0.67333 0.057,0.896 0.077,0.10666 0.18,0.192 0.296,0.252 0.1146,0.0573 0.2426,0.0893 0.3746,0.0933 0.2894,0.008 0.5934,-0.12667 0.7907,-0.44533 0.3293,-0.53467 0.26,-1.06934 -0.01,-1.45734 l -0.01,-0.012 c -0.124,-0.176 -0.2907,-0.32133 -0.4787,-0.41866 -0.1893,-0.1 -0.4013,-0.15467 -0.6173,-0.14667 -0.4547,0.0133 -0.916,0.288 -1.1947,0.952 -0.368,0.87333 0.124,1.44 0.6587,2.05467 0.512,0.59066 1.0693,1.232 0.764,2.256 -0.1293,0.432 -0.4827,0.84666 -1,1.108 -0.4573,0.23066 -1.0427,0.34133 -1.7173,0.23866"
         style="fill:#424959;fill-opacity:1;fill-rule:nonzero;stroke:none;stroke-width:0.13333333"
         id="path368" />
      <path
         inkscape:connector-curvature="0"
         d="m 1177.8093,297.4427 c 0.8827,-0.776 2.0707,-0.86933 2.6533,-0.20667 0.5814,0.66134 0.3387,1.828 -0.544,2.604 -0.8826,0.776 -2.0693,0.86934 -2.652,0.20667 -0.5826,-0.66133 -0.3386,-1.82667 0.5427,-2.604"
         style="fill:#424959;fill-opacity:1;fill-rule:evenodd;stroke:none;stroke-width:0.13333333"
         id="path370" />
      <path
         inkscape:connector-curvature="0"
         d="m 1179.1453,295.74403 c 0.4187,0.11867 0.7413,0.388 0.848,0.76 0.099,0.34934 -0.011,0.72134 -0.2653,1.03067 -0.42,-0.11733 -0.7414,-0.38667 -0.848,-0.76 -0.1,-0.34933 0.01,-0.72 0.2653,-1.03067"
         style="fill:#424959;fill-opacity:1;fill-rule:evenodd;stroke:none;stroke-width:0.13333333"
         id="path372" />
      <path
         inkscape:connector-curvature="0"
         d="m 1175.9373,298.5667 c 0.064,0.43067 0.2893,0.784 0.6467,0.93733 0.3333,0.144 0.7146,0.0827 1.0546,-0.13066 -0.063,-0.432 -0.2893,-0.78534 -0.6453,-0.93867 -0.3333,-0.14267 -0.716,-0.0813 -1.056,0.132"
         style="fill:#424959;fill-opacity:1;fill-rule:evenodd;stroke:none;stroke-width:0.13333333"
         id="path374" />
      <path
         inkscape:connector-curvature="0"
         d="m 1185.2253,305.8707 c -2.608,2.29333 -3.5373,-2.80533 -4.3653,-4.04933 -0.728,-1.096 -0.9387,-1.42534 -1.772,-1.97467 -0.1134,-0.0747 0.8933,-1.148 0.7546,-1.232 0.56,1.24267 0.792,1.432 1.9214,2.41067 1.1293,0.98 6.068,2.55066 3.4613,4.84533"
         style="fill:#424959;fill-opacity:1;fill-rule:evenodd;stroke:none;stroke-width:0.13333333"
         id="path376" />
      <path
         inkscape:connector-curvature="0"
         d="m 1184.6133,305.42137 c -1.0787,0.94933 -2.144,1.256 -1.8467,1.59466 0.2987,0.33867 1.4147,-0.156 2.4934,-1.10533 1.0786,-0.94933 1.712,-1.99333 1.4133,-2.332 -0.2973,-0.33867 -0.9813,0.89333 -2.06,1.84267"
         style="fill:#424959;fill-opacity:1;fill-rule:evenodd;stroke:none;stroke-width:0.13333333"
         id="path378" />
      <path
         inkscape:connector-curvature="0"
         d="m 1184.624,305.44937 c 0.064,-0.076 0.1773,-0.0867 0.2533,-0.0213 0.076,0.064 0.085,0.17734 0.021,0.25334 -0.4893,0.58266 -1.068,0.924 -1.6306,1.07066 -0.66,0.172 -1.3014,0.0747 -1.764,-0.21466 -1.0734,-0.66934 -1.0787,-1.62267 -1.084,-2.49867 -0.01,-0.7 -0.01,-1.34267 -0.6614,-1.65867 -0.5,-0.24266 -0.892,-0.18 -1.1413,0.0267 -0.1173,0.0973 -0.2053,0.22667 -0.26,0.37067 -0.056,0.14533 -0.077,0.30666 -0.061,0.464 v 0.012 c 0.04,0.33733 0.2613,0.66133 0.7053,0.79733 0.2227,0.068 0.4147,0.009 0.54,-0.108 0.057,-0.052 0.1014,-0.11733 0.1294,-0.188 0.027,-0.068 0.039,-0.14267 0.032,-0.216 -0.015,-0.15733 -0.1187,-0.316 -0.344,-0.42133 -0.089,-0.0427 -0.128,-0.14934 -0.085,-0.23867 0.043,-0.0893 0.1494,-0.128 0.2387,-0.0853 0.356,0.168 0.5227,0.43733 0.548,0.71066 0.012,0.132 -0.01,0.264 -0.056,0.384 -0.048,0.11867 -0.1227,0.22934 -0.2187,0.31867 -0.2133,0.196 -0.5293,0.296 -0.888,0.18667 -0.6013,-0.184 -0.9026,-0.63067 -0.9573,-1.09867 v -0.0147 c -0.023,-0.21466 0.01,-0.432 0.083,-0.63066 0.076,-0.2 0.2013,-0.38 0.3667,-0.51734 0.3506,-0.29066 0.8786,-0.38933 1.5266,-0.0747 0.8534,0.41333 0.8587,1.16266 0.8627,1.97866 0.01,0.78134 0.011,1.632 0.9173,2.19734 0.3827,0.23866 0.9214,0.31733 1.4827,0.172 0.496,-0.12934 1.008,-0.43334 1.4467,-0.956"
         style="fill:#424959;fill-opacity:1;fill-rule:nonzero;stroke:none;stroke-width:0.13333333"
         id="path380" />
      <path
         inkscape:connector-curvature="0"
         d="m 1095.4986,396.32936 c 1.108,0.704 1.7254,1.82134 1.468,2.88 -0.3093,1.27067 -1.7746,2.03467 -3.432,1.88134 0.6214,-1.52 1.276,-3.10134 1.964,-4.76134"
         style="fill:#424959;fill-opacity:1;fill-rule:evenodd;stroke:none;stroke-width:0.13333333"
         id="path382" />
      <path
         inkscape:connector-curvature="0"
         d="m 1097.7533,395.94936 c 0.24,0.69334 0.1813,1.39867 -0.2307,1.90534 -0.3866,0.476 -1.0053,0.68266 -1.6786,0.63066 -0.2414,-0.69333 -0.1814,-1.39733 0.2306,-1.90533 0.3854,-0.476 1.0027,-0.68267 1.6787,-0.63067"
         style="fill:#424959;fill-opacity:1;fill-rule:evenodd;stroke:none;stroke-width:0.13333333"
         id="path384" />
      <path
         inkscape:connector-curvature="0"
         d="m 1089.6493,414.12536 c -0.2867,-0.0693 -0.5413,-0.152 -0.7707,-0.24533 1.26,-4.35733 3.0334,-8.84933 5.188,-14.08667 0.2414,-0.008 0.4027,-0.036 0.3987,-0.10666 -1.176,1.97333 -1.212,2.47733 -1.472,4.98266 -0.2613,2.50267 2.34,10.83867 -3.344,9.456"
         style="fill:#424959;fill-opacity:1;fill-rule:evenodd;stroke:none;stroke-width:0.13333333"
         id="path386" />
      <path
         inkscape:connector-curvature="0"
         d="m 1089.6773,412.84803 c -0.156,-0.0373 -0.3067,-0.0773 -0.4547,-0.12 -0.1306,0.42533 -0.2573,0.84933 -0.3786,1.27067 0.252,0.0773 0.5146,0.14933 0.784,0.21466 2.352,0.572 4.4053,0.43734 4.584,-0.30133 0.18,-0.73867 -2.1827,-0.49067 -4.5347,-1.064"
         style="fill:#424959;fill-opacity:1;fill-rule:evenodd;stroke:none;stroke-width:0.13333333"
         id="path388" />
      <path
         inkscape:connector-curvature="0"
         d="m 1089.6493,412.88936 c 0.1667,0.016 0.2907,0.16267 0.2747,0.32934 -0.015,0.16666 -0.1614,0.28933 -0.328,0.27466 -0.2,-0.0173 -0.3934,-0.044 -0.5814,-0.0773 l 0.1774,-0.58533 c 0.148,0.0253 0.3013,0.0453 0.4573,0.0587"
         style="fill:#424959;fill-opacity:1;fill-rule:nonzero;stroke:none;stroke-width:0.13333333"
         id="path390" />
      <path
         inkscape:connector-curvature="0"
         d="m 1163.5066,272.82403 c -4.4613,19.636 -72.8266,162.42933 -98.652,197.04533"
         style="fill:none;stroke:#c37876;stroke-width:8.00013351;stroke-linecap:butt;stroke-linejoin:miter;stroke-miterlimit:22.92560005;stroke-dasharray:none;stroke-opacity:1"
         id="path392" />
      <path
         inkscape:connector-curvature="0"
         d="m 1171.764,590.21736 c -1.988,27.472 0.6173,93.652 -3.14,126.572 -4.88,2.32 -14.628,2.304 -19.384,0.152 -7.0547,-28.98134 -7.5254,-80.564 -7.9867,-96.81334 -0.532,-18.68133 8.2307,-36.42399 4.344,-52.63066 -9.844,-41.02933 32.1067,-59.356 26.1667,22.72"
         style="fill:#424959;fill-opacity:1;fill-rule:evenodd;stroke:none;stroke-width:0.13333333"
         id="path394" />
      <path
         inkscape:connector-curvature="0"
         d="m 1102.3893,590.21736 c 1.9907,27.492 -0.32,93.74666 3.4467,126.64266 4.768,2.69067 14.2253,3.024 19.0906,0.0253 7.044,-28.99067 7.512,-80.51734 7.9734,-96.75734 0.468,-16.40266 -6.8894,-38.35066 -4.3774,-53.19599 7.0614,-41.69467 -32.356,-62.692 -26.1333,23.28533"
         style="fill:#424959;fill-opacity:1;fill-rule:evenodd;stroke:none;stroke-width:0.13333333"
         id="path396" />
      <path
         inkscape:connector-curvature="0"
         d="m 1149.6853,737.93335 c -0.488,5.44 -0.7107,10.24667 0.388,12.95067 2.776,6.83467 21.616,8.45067 29.848,17.348 7.6653,8.28533 35.3213,7.57733 37.4133,-2.56 0.2187,-1.05867 0.432,-4.76 -0.2986,-5.856 -2.216,-3.324 -8.8307,-4.13333 -15.8334,-7.22533 -2.9613,-1.30667 -10.3066,-8.268 -18.704,-14.39734 -0.152,-0.112 -0.3066,-0.22666 -0.46,-0.34133 -1.74,-0.06 -3.352,0.27867 -4.848,1.07733 -3.908,2.084 -3.1266,4.688 -7.5546,5.46934 -4.428,0.78133 -15.108,0.52133 -17.4534,-5.46934 -0.8586,-0.30666 -1.6893,-0.64133 -2.4973,-0.996"
         style="fill:#8e4549;fill-opacity:1;fill-rule:evenodd;stroke:none;stroke-width:0.13333333"
         id="path398" />
      <path
         inkscape:connector-curvature="0"
         d="m 1151.836,729.03469 c -3.3174,7.36266 -2.86,14.43466 -1.7627,17.13733 2.7747,6.83467 21.616,8.452 29.848,17.34933 7.6653,8.28534 35.3213,7.57734 37.4133,-2.56 0.8814,-4.27066 -6.8186,-8.96933 -16.132,-13.08133 -2.9613,-1.30667 -10.3066,-8.26933 -18.704,-14.39733 -0.152,-0.112 -0.3066,-0.22667 -0.46,-0.34133 -1.74,-0.0613 -3.352,0.27866 -4.848,1.07733 -3.908,2.084 -3.128,4.68933 -7.5546,5.46933 -13.3067,2.348 -17.1814,-5.36533 -17.8,-10.65333"
         style="fill:#c37876;fill-opacity:1;fill-rule:evenodd;stroke:none;stroke-width:0.13333333"
         id="path400" />
      <path
         inkscape:connector-curvature="0"
         d="m 1190.844,751.41602 3.0346,-8.876"
         style="fill:none;stroke:#8e4549;stroke-width:2.55986643;stroke-linecap:round;stroke-linejoin:round;stroke-miterlimit:22.92560005;stroke-dasharray:none;stroke-opacity:1"
         id="path402" />
      <path
         inkscape:connector-curvature="0"
         d="m 1186.3093,747.01469 3.0333,-8.876"
         style="fill:none;stroke:#8e4549;stroke-width:2.55986643;stroke-linecap:round;stroke-linejoin:round;stroke-miterlimit:22.92560005;stroke-dasharray:none;stroke-opacity:1"
         id="path404" />
      <path
         inkscape:connector-curvature="0"
         d="m 1182.0333,743.20669 3.0347,-8.09734"
         style="fill:none;stroke:#8e4549;stroke-width:2.55986643;stroke-linecap:round;stroke-linejoin:round;stroke-miterlimit:22.92560005;stroke-dasharray:none;stroke-opacity:1"
         id="path406" />
      <path
         inkscape:connector-curvature="0"
         d="m 1199.632,746.13869 -12.084,1.07866"
         style="fill:none;stroke:#8e4549;stroke-width:2.55986643;stroke-linecap:round;stroke-linejoin:round;stroke-miterlimit:22.92560005;stroke-dasharray:none;stroke-opacity:1"
         id="path408" />
      <path
         inkscape:connector-curvature="0"
         d="m 1194.4466,742.16535 -12.084,1.07867"
         style="fill:none;stroke:#8e4549;stroke-width:2.55986643;stroke-linecap:round;stroke-linejoin:round;stroke-miterlimit:22.92560005;stroke-dasharray:none;stroke-opacity:1"
         id="path410" />
      <path
         inkscape:connector-curvature="0"
         d="m 1190.008,738.46402 -12.084,1.07867"
         style="fill:none;stroke:#8e4549;stroke-width:2.55986643;stroke-linecap:round;stroke-linejoin:round;stroke-miterlimit:22.92560005;stroke-dasharray:none;stroke-opacity:1"
         id="path412" />
      <path
         inkscape:connector-curvature="0"
         d="m 1125.6,737.93335 c 0.488,5.44 0.7106,10.24667 -0.388,12.95067 -2.776,6.83467 -21.616,8.45067 -29.848,17.348 -7.6654,8.28533 -35.3214,7.57733 -37.4134,-2.56 -0.2186,-1.05867 -0.432,-4.76 0.2987,-5.856 2.216,-3.324 8.8307,-4.13333 15.8333,-7.22533 2.9614,-1.30667 10.3067,-8.268 18.704,-14.39734 0.152,-0.112 0.3067,-0.22666 0.46,-0.34133 1.74,-0.06 3.352,0.27867 4.848,1.07733 3.908,2.084 3.1267,4.688 7.5547,5.46934 4.428,0.78133 15.108,0.52133 17.4533,-5.46934 0.8587,-0.30666 1.6894,-0.64133 2.4974,-0.996"
         style="fill:#8e4549;fill-opacity:1;fill-rule:evenodd;stroke:none;stroke-width:0.13333333"
         id="path414" />
      <path
         inkscape:connector-curvature="0"
         d="m 1123.1106,729.82669 c 3.656,6.232 3.2,13.64266 2.1014,16.34533 -2.776,6.83467 -21.616,8.452 -29.848,17.34933 -7.6654,8.28534 -35.3214,7.57734 -37.4134,-2.56 -0.8813,-4.27066 6.8187,-8.96933 16.132,-13.08133 2.9614,-1.30667 10.3067,-8.26933 18.704,-14.39733 0.152,-0.112 0.3067,-0.22667 0.46,-0.34133 1.74,-0.0613 3.352,0.27866 4.848,1.07733 3.908,2.084 3.1267,4.68933 7.5547,5.46933 13.308,2.348 15.8227,-5.25066 17.4613,-9.86133"
         style="fill:#c37876;fill-opacity:1;fill-rule:evenodd;stroke:none;stroke-width:0.13333333"
         id="path416" />
      <path
         inkscape:connector-curvature="0"
         d="m 1084.4413,751.41602 -3.0347,-8.876"
         style="fill:none;stroke:#8e4549;stroke-width:2.55986643;stroke-linecap:round;stroke-linejoin:round;stroke-miterlimit:22.92560005;stroke-dasharray:none;stroke-opacity:1"
         id="path418" />
      <path
         inkscape:connector-curvature="0"
         d="m 1088.976,747.01469 -3.0334,-8.876"
         style="fill:none;stroke:#8e4549;stroke-width:2.55986643;stroke-linecap:round;stroke-linejoin:round;stroke-miterlimit:22.92560005;stroke-dasharray:none;stroke-opacity:1"
         id="path420" />
      <path
         inkscape:connector-curvature="0"
         d="m 1093.252,743.20669 -3.0347,-8.09734"
         style="fill:none;stroke:#8e4549;stroke-width:2.55986643;stroke-linecap:round;stroke-linejoin:round;stroke-miterlimit:22.92560005;stroke-dasharray:none;stroke-opacity:1"
         id="path422" />
      <path
         inkscape:connector-curvature="0"
         d="m 1075.6533,746.13869 12.084,1.07866"
         style="fill:none;stroke:#8e4549;stroke-width:2.55986643;stroke-linecap:round;stroke-linejoin:round;stroke-miterlimit:22.92560005;stroke-dasharray:none;stroke-opacity:1"
         id="path424" />
      <path
         inkscape:connector-curvature="0"
         d="m 1080.8386,742.16535 12.084,1.07867"
         style="fill:none;stroke:#8e4549;stroke-width:2.55986643;stroke-linecap:round;stroke-linejoin:round;stroke-miterlimit:22.92560005;stroke-dasharray:none;stroke-opacity:1"
         id="path426" />
      <path
         inkscape:connector-curvature="0"
         d="m 1085.2773,738.46402 12.084,1.07867"
         style="fill:none;stroke:#8e4549;stroke-width:2.55986643;stroke-linecap:round;stroke-linejoin:round;stroke-miterlimit:22.92560005;stroke-dasharray:none;stroke-opacity:1"
         id="path428" />
      <path
         inkscape:connector-curvature="0"
         d="m 1137.7546,165.6667 c -9.7453,11.58667 -22.1866,3.29334 -23.484,16.58667 -1.2973,13.30667 0.3254,16.44 -7.124,22.13333 -7.448,5.70667 -9.3013,24.76 -4.9186,38.34667 4.3813,13.58666 3.976,21.52 -1.2814,30.724 -5.2586,9.20133 -5.4493,15.756 -2.82,24.95733 2.6294,9.20267 4.276,14.07467 -11.2,-2.068 -15.4773,-16.144 -11.8333,-32.97333 -5.6986,-48.74667 6.1346,-15.77333 2.9506,-14.45333 0.456,-32.04 -2.496,-17.58666 9.7093,-21.22666 13.8813,-40.17333 4.172,-18.94666 26.852,-32.06666 40.8747,-24.18666 14.0213,7.89333 5.2573,9.64 1.3146,14.46666"
         style="fill:#cf8c47;fill-opacity:1;fill-rule:evenodd;stroke:none;stroke-width:0.13333333"
         id="path430" />
      <path
         inkscape:connector-curvature="0"
         d="m 1132.2146,165.6667 c 9.7454,11.58667 20.064,5.72 22.8774,13.56 2.8146,7.84 6.8106,14.90667 15.9306,20.30667 9.12,5.4 3.224,29.32 -1.1573,42.89333 -4.3827,13.58667 -6.1,21.82667 -0.8413,31.03067 1.336,2.33866 2.736,4.64266 4.0386,6.93066 6.7694,1.18667 14.4574,5.4 21.296,10.86 7.4694,-14.38 -0.376,-30.168 -5.6173,-43.648 -6.1333,-15.77333 -3.5573,-22.34666 -0.4547,-36.58666 3.1014,-14.25333 -9.7106,-16.68 -13.8826,-35.62667 -4.172,-18.94666 -26.852,-32.06666 -40.8747,-24.18666 -14.0213,7.89333 -5.2573,9.64 -1.3147,14.46666"
         style="fill:#cf8c47;fill-opacity:1;fill-rule:evenodd;stroke:none;stroke-width:0.13333333"
         id="path432" />
      <path
         inkscape:connector-curvature="0"
         d="m 1136.924,154.29337 c 1.6813,7.56 11.7693,10.36 17.9333,12.32 6.1653,1.96 7.7187,6.81333 9.58,15.08 1.94,8.62667 10.2387,12.61333 14.4413,16.81333 4.204,4.2 -2.308,29.18667 -5.5266,40.4 -2.984,10.4 2.776,25.82667 5.5,31.792 1.7773,3.89067 2.9893,8.416 2.8986,12.56267 0.664,0.30933 1.3294,0.63866 1.9934,0.98533 1.2893,-4.504 0.3813,-9.94 -1.9854,-15.63333 -3.5706,-8.58667 -7.7946,-14.08 -4.484,-29.37334 4.1907,-19.36 12.0974,-33.18666 3.872,-43.95999 -6.4986,-8.52 -10.4786,-5.48 -12.4626,-14.50667 -2.232,-10.13333 -2.0574,-13.6 -11.024,-16.68 -8.9667,-3.08 -17.0934,-2.52 -20.736,-9.8"
         style="fill:#e0a367;fill-opacity:1;fill-rule:evenodd;stroke:none;stroke-width:0.13333333"
         id="path434" />
      <path
         inkscape:connector-curvature="0"
         d="m 1178.4253,202.69337 c -2.592,-0.53334 -5.568,3.34666 -6.648,8.65333 -1.0813,5.30667 0.144,10.02667 2.736,10.56 2.5907,0.52 5.5667,-3.34667 6.648,-8.65333 1.08,-5.30667 -0.1453,-10.04 -2.736,-10.56"
         style="fill:#f3c3bc;fill-opacity:1;fill-rule:evenodd;stroke:none;stroke-width:0.13333333"
         id="path436" />
      <path
         inkscape:connector-curvature="0"
         d="m 1127.892,187.64004 c -3.104,-0.21334 -8.2374,-0.86667 -12.7947,4.45333 -2.0533,2.4 -1.4693,3.32 0.8667,1.01333 3.9746,-3.92 7.1146,-3.28 11.9906,-3.04 1.8907,0.0933 2.0507,-2.26666 -0.063,-2.42666"
         style="fill:#cf8c47;fill-opacity:1;fill-rule:evenodd;stroke:none;stroke-width:0.13333333"
         id="path438" />
      <path
         inkscape:connector-curvature="0"
         d="m 1131.8333,153.85337 c -1.6813,7.56 -11.7693,10.36 -17.9347,12.32 -6.164,1.97333 -10.7,6.68 -9.5786,15.08 1.1213,8.41333 -4.992,19.38667 -9.1947,23.6 -4.2027,4.2 -2.9387,22.4 0.28,33.62666 2.984,10.38667 -2.776,25.81334 -5.5,31.78134 -2.9107,6.372 -4.308,14.44666 -0.9453,19.77066 -5.788,-5.09733 -5.5707,-13.17733 -1.9614,-21.85866 3.5707,-8.58667 7.7947,-14.08 4.484,-29.37334 -4.192,-19.36 -6.8506,-26.4 1.3747,-37.18666 6.5,-8.52 8.0747,-9.62667 7.872,-19.74667 -0.208,-10.37333 1.4013,-15.13333 10.368,-18.21333 8.9667,-3.08 17.0933,-2.52 20.736,-9.8"
         style="fill:#e0a367;fill-opacity:1;fill-rule:evenodd;stroke:none;stroke-width:0.13333333"
         id="path440" />
    </g>
  </g>
</svg>
