<?xml version="1.0" encoding="UTF-8" standalone="no"?>
<!-- Created with Inkscape (http://www.inkscape.org/) -->

<svg
   xmlns:dc="http://purl.org/dc/elements/1.1/"
   xmlns:cc="http://creativecommons.org/ns#"
   xmlns:rdf="http://www.w3.org/1999/02/22-rdf-syntax-ns#"
   xmlns:svg="http://www.w3.org/2000/svg"
   xmlns="http://www.w3.org/2000/svg"
   xmlns:sodipodi="http://sodipodi.sourceforge.net/DTD/sodipodi-0.dtd"
   xmlns:inkscape="http://www.inkscape.org/namespaces/inkscape"
   width="17.118925mm"
   height="52.916668mm"
   viewBox="0 0 17.118925 52.916668"
   version="1.1"
   id="svg7931"
   inkscape:version="0.92.3 (2405546, 2018-03-11)"
   sodipodi:docname="4.svg">
  <defs
     id="defs7925" />
  <sodipodi:namedview
     id="base"
     pagecolor="#ffffff"
     bordercolor="#666666"
     borderopacity="1.0"
     inkscape:pageopacity="0.0"
     inkscape:pageshadow="2"
     inkscape:zoom="0.35"
     inkscape:cx="813.34674"
     inkscape:cy="798.41929"
     inkscape:document-units="mm"
     inkscape:current-layer="layer1"
     showgrid="false"
     fit-margin-top="0"
     fit-margin-left="0"
     fit-margin-right="0"
     fit-margin-bottom="0"
     inkscape:window-width="1613"
     inkscape:window-height="995"
     inkscape:window-x="67"
     inkscape:window-y="27"
     inkscape:window-maximized="1" />
  <metadata
     id="metadata7928">
    <rdf:RDF>
      <cc:Work
         rdf:about="">
        <dc:format>image/svg+xml</dc:format>
        <dc:type
           rdf:resource="http://purl.org/dc/dcmitype/StillImage" />
        <dc:title></dc:title>
      </cc:Work>
    </rdf:RDF>
  </metadata>
  <g
     inkscape:label="Layer 1"
     inkscape:groupmode="layer"
     id="layer1"
     transform="translate(236.36466,-307.1651)">
    <g
       transform="matrix(0.07952491,0,0,0.07952491,-245.03842,237.62509)"
       id="g7809">
      <path
         inkscape:connector-curvature="0"
         d="m 229.92799,1539.8531 c 51.99734,0 94.40667,-15.4531 94.40667,-34.4 0,-18.9463 -42.40933,-34.4 -94.40667,-34.4 -51.99733,0 -94.40533,15.4537 -94.40533,34.4 0,18.9469 42.408,34.4 94.40533,34.4"
         style="fill:#447186;fill-opacity:1;fill-rule:evenodd;stroke:none;stroke-width:0.13333333"
         id="path726" />
      <path
         inkscape:connector-curvature="0"
         d="m 237.96133,1477.3333 c -0.52,5.7864 -0.756,10.9068 0.41333,13.7864 2.95467,7.2803 23.012,9 31.776,18.4667 8.15867,8.8272 37.60133,8.0667 39.82933,-2.7197 0.232,-1.1334 0.46,-5.0803 -0.31866,-6.2402 -2.35867,-3.5333 -9.4,-4.4 -16.856,-7.6932 -3.152,-1.3864 -10.972,-8.8 -19.91067,-15.3202 -0.164,-0.1199 -0.32667,-0.2396 -0.49067,-0.373 -1.852,-0.054 -3.568,0.3068 -5.16133,1.1463 -4.16,2.2267 -3.328,5 -8.04267,5.8272 -4.71466,0.8265 -16.084,0.5599 -18.58,-5.8272 -0.91466,-0.3197 -1.79866,-0.6796 -2.65866,-1.0531"
         style="fill:#ffffff;fill-opacity:1;fill-rule:evenodd;stroke:none;stroke-width:0.13333333"
         id="path728" />
      <path
         inkscape:connector-curvature="0"
         d="m 186.62266,1485.9735 c -1.53866,2.7864 -2.84933,5.6265 -3.11466,7.5062 -0.79867,5.6802 3.06133,-2.1333 12.12266,-1.9464 7.49867,0.1599 10.132,8.0402 10.95733,4.6131 0.82667,-3.4131 -0.536,-6.7328 -0.97466,-10.8131 -0.43734,-4.0932 1.43466,0.7068 2,4.747 0.56533,4.0265 4.19733,19.5328 2.58266,25.1061 -1.61466,5.5605 -7.26533,14.7735 -17.92133,13.4 -10.656,-1.3728 -17.43733,-11.1463 -16.14666,-19.1333 1.292,-8 7.66933,-20.4266 9.04266,-22.7734 1.372,-2.3333 3.804,-4.9729 1.452,-0.7062"
         style="fill:#ffffff;fill-opacity:1;fill-rule:evenodd;stroke:none;stroke-width:0.13333333"
         id="path730" />
      <path
         inkscape:connector-curvature="0"
         d="m 261.52266,1332.4907 c -2.84933,36.2426 1.00133,154.229 -15.276,136.1224 -12.208,-13.5731 -13.34667,-86.4264 -15.42933,-105.5998 -6.656,-61.3026 38.96,-135.4693 30.70533,-30.5226"
         style="fill:#f3c3bc;fill-opacity:1;fill-rule:evenodd;stroke:none;stroke-width:0.13333333"
         id="path732" />
      <path
         inkscape:connector-curvature="0"
         d="m 238.32533,1446.6267 c 3.11866,10.6133 -2.90667,32.1998 0.0493,39.4801 2.95467,7.2667 23.012,8.9864 31.776,18.4667 8.15867,8.8129 37.60133,8.0666 39.82933,-2.7204 0.93734,-4.5599 -7.26,-9.5599 -17.17466,-13.9334 -3.152,-1.3864 -10.972,-8.8 -19.91067,-15.3333 -8.604,-6.2797 -17.02133,-17.4931 -16.34667,-22.7597 1.668,-12.9734 -21.88533,-15.6667 -18.22266,-3.2"
         style="fill:#f3c3bc;fill-opacity:1;fill-rule:evenodd;stroke:none;stroke-width:0.13333333"
         id="path734" />
      <path
         inkscape:connector-curvature="0"
         d="m 237.96133,1472.3197 c -0.52,5.7871 -0.756,10.9068 0.41333,13.7871 2.95467,7.2667 23.012,8.9864 31.776,18.4667 8.15867,8.8129 37.60133,8.0666 39.82933,-2.7204 0.93734,-4.5599 -7.26,-9.5599 -17.17466,-13.9334 -3.152,-1.3864 -10.972,-8.8 -19.91067,-15.3333 -0.164,-0.1067 -0.32667,-0.24 -0.49067,-0.3599 -1.852,-0.067 -3.568,0.2932 -5.16133,1.147 -4.16,2.2265 -3.328,5 -8.04267,5.8265 -4.71466,0.8265 -16.084,0.5599 -18.58,-5.8265 -0.91466,-0.3204 -1.79866,-0.6803 -2.65866,-1.0538"
         style="fill:#66ccd6;fill-opacity:1;fill-rule:evenodd;stroke:none;stroke-width:0.13333333"
         id="path736" />
      <path
         inkscape:connector-curvature="0"
         d="m 186.24133,1335.9067 c -0.69467,39.64 -0.33467,156.0001 16.156,137.4797 12.368,-13.8931 16.556,-119.1731 15.83066,-143.2197 -1.9,-63.028 -30.09999,-101.9787 -31.98666,5.74"
         style="fill:#f3c3bc;fill-opacity:1;fill-rule:evenodd;stroke:none;stroke-width:0.13333333"
         id="path738" />
      <path
         inkscape:connector-curvature="0"
         d="m 206.86399,1465.5733 c -1.844,10.507 1.55734,21.8934 3.44934,36.8131 1.89066,14.9204 -10.68933,20.2136 -17.82933,20.0667 -7.14,-0.1334 -20.00534,-10.2266 -15.33067,-23.2932 4.676,-13.0531 14.30267,-27.6932 13.584,-34.7866 -1.37067,-13.52 18.728,-13.6266 16.12666,1.2"
         style="fill:#f3c3bc;fill-opacity:1;fill-rule:evenodd;stroke:none;stroke-width:0.13333333"
         id="path740" />
      <path
         inkscape:connector-curvature="0"
         d="m 186.62266,1479.9068 c -1.53866,2.7864 -2.84933,5.6265 -3.11466,7.5068 -0.79867,5.6796 3.06133,-2.1339 12.12266,-1.9469 7.49867,0.1598 10.132,8.0401 10.95733,4.6136 0.82667,-3.4272 -0.536,-6.7339 -0.97466,-10.8272 -0.43734,-4.0796 1.43466,0.7204 2,4.7469 0.56533,4.0401 4.19733,19.5469 2.58266,25.1068 -1.61466,5.5729 -7.26533,14.7735 -17.92133,13.4 -10.656,-1.3604 -17.43733,-11.1333 -16.14666,-19.1333 1.292,-7.9871 7.66933,-20.4136 9.04266,-22.7604 1.372,-2.3464 3.804,-4.973 1.452,-0.7063"
         style="fill:#66ccd6;fill-opacity:1;fill-rule:evenodd;stroke:none;stroke-width:0.13333333"
         id="path742" />
      <path
         inkscape:connector-curvature="0"
         d="m 224.95199,1217.0253 c -44.51199,0 -55.25999,-44.344 -42.07733,-78.6746 8.50667,-22.1574 -10.54533,-68.1467 -20.752,-99.2507 -15.74933,-47.99732 140.93867,-44.72532 126.78533,-1.596 -10.20533,31.104 -29.66266,78.6907 -21.15466,100.8467 14.29733,37.2386 6.396,78.6746 -42.80134,78.6746"
         style="fill:#f3c3bc;fill-opacity:1;fill-rule:evenodd;stroke:none;stroke-width:0.13333333"
         id="path744" />
      <path
         inkscape:connector-curvature="0"
         d="m 174.91066,1190.04 c -0.38533,92.976 14.95734,137.232 30.636,137.232 15.68,0 17.90533,-87.056 15.76667,-119.2293 -6.52934,-98.2587 -46.07867,-96.0254 -46.40267,-18.0027"
         style="fill:#f3c3bc;fill-opacity:1;fill-rule:evenodd;stroke:none;stroke-width:0.13333333"
         id="path746" />
      <path
         inkscape:connector-curvature="0"
         d="m 275.72533,1192.2933 c -0.0107,90.368 -14.58134,134.9787 -30.26,134.9787 -15.68,0 -17.904,-87.056 -15.76667,-119.2293 6.52933,-98.2574 46.03733,-93.772 46.02667,-15.7494"
         style="fill:#f3c3bc;fill-opacity:1;fill-rule:evenodd;stroke:none;stroke-width:0.13333333"
         id="path748" />
      <path
         inkscape:connector-curvature="0"
         d="m 148.58933,1063.3307 c -6.10533,34.544 -8.73333,64.5293 1.64667,66.8666 10.38,2.3387 20.56666,-27.6586 29.82266,-54.7213 27.316,-79.87065 -18.72133,-84.28932 -31.46933,-12.1453"
         style="fill:#f3c3bc;fill-opacity:1;fill-rule:evenodd;stroke:none;stroke-width:0.13333333"
         id="path750" />
      <path
         inkscape:connector-curvature="0"
         d="m 300.50666,1063.3307 c 6.104,34.544 8.73333,64.5293 -1.64667,66.8666 -10.38133,2.3387 -20.568,-27.6586 -29.824,-54.7213 -27.316,-79.87065 18.72134,-84.28932 31.47067,-12.1453"
         style="fill:#f3c3bc;fill-opacity:1;fill-rule:evenodd;stroke:none;stroke-width:0.13333333"
         id="path752" />
      <path
         inkscape:connector-curvature="0"
         d="m 308.57466,1154.816 c -0.98667,23.8293 -2.33467,52.0787 -9.62667,50.9893 -6.332,-0.9453 -9.39333,-31.128 -11.08133,-49.7213 -7.044,-77.508 23.11333,-59.4133 20.708,-1.268"
         style="fill:#f3c3bc;fill-opacity:1;fill-rule:evenodd;stroke:none;stroke-width:0.13333333"
         id="path754" />
      <path
         inkscape:connector-curvature="0"
         d="m 211.50933,960.57868 h 26.78133 v 51.90402 c 0,7.364 -6.02533,13.3906 -13.38933,13.3906 h -0.003 c -7.364,0 -13.38933,-6.0266 -13.38933,-13.3906 v -51.90402"
         style="fill:#db9d98;fill-opacity:1;fill-rule:evenodd;stroke:none;stroke-width:0.13333333"
         id="path756" />
      <path
         inkscape:connector-curvature="0"
         d="m 170.49866,1063.5387 c -2.96533,-8.6467 -5.92533,-16.972 -8.376,-24.4387 -6.53333,-19.9107 16.60667,-30.9987 44.916,-34.0787 5.98,-0.6506 11.65067,7.0987 17.86133,7.1547 5.77734,0.052 12.096,-7.6347 17.68667,-6.9827 28.52933,3.324 52.20933,14.3694 46.32133,32.3107 -2.60666,7.9467 -5.81733,16.968 -9.012,26.3667 -13.22,10.036 -32.72666,16.3826 -54.484,16.3826 -21.996,0 -41.68666,-6.488 -54.91333,-16.7146"
         style="fill:#d13233;fill-opacity:1;fill-rule:evenodd;stroke:none;stroke-width:0.13333333"
         id="path758" />
      <path
         inkscape:connector-curvature="0"
         d="m 175.82266,1169.3493 c -0.40666,19.9694 -0.88,60.3267 0.432,95.316 1.31067,34.9894 2.97467,63.7347 3.768,93.908 0.20267,7.7334 -0.69866,101.9334 -0.63466,119.1464 11.52133,2.3606 25.65199,2.3068 33.50533,0.7204 2.51333,-9.2802 1.94666,-56.7468 3.27466,-77.4534 1.328,-20.72 2.70534,-69.856 3.09867,-89.512 0.13467,-6.7214 2.29867,-93.244 5.504,-93.5654 0.376,-0.037 0.68133,-0.6586 0.92533,-1.744 0.244,1.0854 0.54934,1.7067 0.92534,1.744 3.20533,0.3214 1.604,88.7267 1.73866,95.448 0.392,19.656 2.33334,73.976 2.248,90.456 -0.084,16.4667 5.804,71.6935 5.804,71.6935 11.58267,-2.9204 23.972,-8.1335 33.67334,-7.1333 -2.04134,-20.7602 -3.07467,-89.6135 -3.07467,-104.7068 0,-30.976 4.70667,-65.9147 6.53333,-102.5774 1.82534,-36.6626 2.432,-71.7706 2.024,-91.74 -13.528,-15.6933 -86.21599,-15.6933 -99.74533,0"
         style="fill:#394f82;fill-opacity:1;fill-rule:evenodd;stroke:none;stroke-width:0.13333333"
         id="path760" />
      <path
         inkscape:connector-curvature="0"
         d="m 227.71733,1218.88 c 8.71466,40.824 6.93866,110.316 8.94533,143.3467 2.00667,33.0266 4.01333,94.2533 7.16667,106.24"
         style="fill:none;stroke:#282c4c;stroke-width:2.55986643;stroke-linecap:butt;stroke-linejoin:miter;stroke-miterlimit:22.92560005;stroke-dasharray:none;stroke-opacity:1"
         id="path762" />
      <path
         inkscape:connector-curvature="0"
         d="m 175.89733,1164.844 -1.98533,16.536 c 13.52533,2.476 32.12933,6.5573 49.21466,0.8387 l 3.8,-12.0107 -51.02933,-5.364"
         style="fill:#e93a3e;fill-opacity:1;fill-rule:evenodd;stroke:none;stroke-width:0.13333333"
         id="path764" />
      <path
         inkscape:connector-curvature="0"
         d="m 274.70533,1164.844 1.98533,16.536 c -13.524,2.476 -32.128,6.5573 -49.21467,0.8387 l -3.79866,-12.0107 51.028,-5.364"
         style="fill:#e93a3e;fill-opacity:1;fill-rule:evenodd;stroke:none;stroke-width:0.13333333"
         id="path766" />
      <path
         inkscape:connector-curvature="0"
         d="m 171.25066,1177.8933 c 0.31734,-61.096 14.90534,-66.664 -11.96266,-148.952 2.20133,-5.6453 2.888,-15.128 30.41733,-21.1853 19.388,20.2613 50.23333,22.4267 70.88266,0.1347 15.57467,3.9426 26.356,7.632 30.63467,21.86 -26.31067,86.688 -11.30267,86.3933 -12.436,148.2453 -30.60667,-7.3213 -77.14533,-6.76 -107.536,-0.1027"
         style="fill:#424959;fill-opacity:1;fill-rule:evenodd;stroke:none;stroke-width:0.13333333"
         id="path768" />
      <path
         inkscape:connector-curvature="0"
         d="M 114.04266,1162.0453 H 196.972 v 57.2974 l -4.972,4.208 -76.3964,-5.528 -1.56094,-55.9774"
         style="fill:#ffffff;fill-opacity:1;fill-rule:evenodd;stroke:none;stroke-width:0.13333333"
         id="path770" />
      <path
         inkscape:connector-curvature="0"
         d="m 115.62346,1164.4747 -5.474,3.812 0.95107,52.2853 79.0928,0.5707 5.09333,-4.1934 v -52.4746 h -79.6632"
         style="fill:#dedbd9;fill-opacity:1;fill-rule:evenodd;stroke:none;stroke-width:0.13333333"
         id="path772" />
      <path
         inkscape:connector-curvature="0"
         d="M 109.06973,1223.5507 H 192 v -57.2974 h -82.93027 v 57.2974"
         style="fill:#ffffff;fill-opacity:1;fill-rule:evenodd;stroke:none;stroke-width:0.13333333"
         id="path774" />
      <path
         inkscape:connector-curvature="0"
         d="m 124.05466,1166.0387 68.044,14.256 -9.84933,47.0133 -4.804,2.5973 -61.7328,-17.6693 8.34213,-46.1973"
         style="fill:#66ccd6;fill-opacity:1;fill-rule:evenodd;stroke:none;stroke-width:0.13333333"
         id="path776" />
      <path
         inkscape:connector-curvature="0"
         d="m 124.9344,1168.3027 -5.14694,2.1866 -8.20826,43.064 64.79813,14.0654 4.9,-2.564 9.02133,-43.0574 -65.36426,-13.6946"
         style="fill:#ffffff;fill-opacity:1;fill-rule:evenodd;stroke:none;stroke-width:0.13333333"
         id="path778" />
      <path
         inkscape:connector-curvature="0"
         d="m 119.25106,1168.636 68.04494,14.256 -9.85067,47.0133 -68.04427,-14.256 9.85,-47.0133"
         style="fill:#66ccd6;fill-opacity:1;fill-rule:evenodd;stroke:none;stroke-width:0.13333333"
         id="path780" />
      <path
         inkscape:connector-curvature="0"
         d="m 225.16133,876.68268 c 42.12666,-0.27066 45.37733,49.21067 37.00933,81.48667 -4.23867,16.34933 -24.636,29.62133 -37.00933,29.62133 -12.724,0 -32.45467,-12.54 -37.56,-30.13066 -9.21067,-31.73467 -2.65067,-80.71867 37.56,-80.97734"
         style="fill:#f3c3bc;fill-opacity:1;fill-rule:evenodd;stroke:none;stroke-width:0.13333333"
         id="path782" />
      <path
         inkscape:connector-curvature="0"
         d="m 252.26266,930.59068 c -2.664,-1.56266 -18.25867,-2.056 -21.70267,2.564 -2.89466,3.88267 1.81334,13.312 6.25734,15.39734 4.31333,2.024 13.15866,0.85066 15.56666,-3.51467 2.32134,-4.20533 2.876,-12.688 -0.12133,-14.44667"
         style="fill:#fbdbd5;fill-opacity:1;fill-rule:evenodd;stroke:none;stroke-width:0.13333333"
         id="path784" />
      <path
         inkscape:connector-curvature="0"
         d="m 196.76666,930.74802 c 2.656,-1.57734 18.24667,-2.16 21.71733,2.44 2.91734,3.86666 -1.73733,13.32266 -6.17066,15.43333 -4.30134,2.048 -13.15333,0.92533 -15.58533,-3.42667 -2.34534,-4.192 -2.948,-12.672 0.0387,-14.44666"
         style="fill:#fbdbd5;fill-opacity:1;fill-rule:evenodd;stroke:none;stroke-width:0.13333333"
         id="path786" />
      <path
         inkscape:connector-curvature="0"
         d="m 208.50799,942.35868 c 1.656,0 3.00667,-3.376 3.00667,-7.516 0,-4.13866 -1.35067,-7.51466 -3.00667,-7.51466 -1.65466,0 -3.00666,3.376 -3.00666,7.51466 0,4.14 1.352,7.516 3.00666,7.516"
         style="fill:#46454e;fill-opacity:1;fill-rule:evenodd;stroke:none;stroke-width:0.13333333"
         id="path788" />
      <path
         inkscape:connector-curvature="0"
         d="m 239.86399,942.35868 c 1.65467,0 3.00534,-3.376 3.00534,-7.516 0,-4.13866 -1.35067,-7.51466 -3.00534,-7.51466 -1.656,0 -3.00666,3.376 -3.00666,7.51466 0,4.14 1.35066,7.516 3.00666,7.516"
         style="fill:#46454e;fill-opacity:1;fill-rule:evenodd;stroke:none;stroke-width:0.13333333"
         id="path790" />
      <path
         inkscape:connector-curvature="0"
         d="m 242.81066,961.05202 c -10.064,2.42 -25.19333,2.47066 -35.73333,0.22533 8.02533,5.30667 26.79733,5.504 35.73333,-0.22533"
         style="fill:#c38581;fill-opacity:1;fill-rule:evenodd;stroke:none;stroke-width:0.13333333"
         id="path792" />
      <path
         inkscape:connector-curvature="0"
         d="m 221.29733,953.99735 c 7.48666,1.56 10.56266,-3.01467 10.61333,-6.85067 1.90933,7.064 -3.20667,10.884 -10.61333,6.85067"
         style="fill:#c38581;fill-opacity:1;fill-rule:evenodd;stroke:none;stroke-width:0.13333333"
         id="path794" />
      <path
         inkscape:connector-curvature="0"
         d="m 233.61333,920.09202 c 2.992,-1.32267 8.26133,-2.83467 14.44933,-0.456 3.09733,1.192 2.52933,2.81066 -0.71067,1.62266 -5.00666,-1.83466 -8.2,-0.71466 -12.94133,1.25067 -1.83733,0.76 -2.83333,-1.51867 -0.79733,-2.41733"
         style="fill:#684535;fill-opacity:1;fill-rule:evenodd;stroke:none;stroke-width:0.13333333"
         id="path796" />
      <path
         inkscape:connector-curvature="0"
         d="m 233.84533,968.62802 c -5.01334,1.20666 -12.55067,1.232 -17.80267,0.112 4.26533,4.24933 13.644,4.49866 17.80267,-0.112"
         style="fill:#c38581;fill-opacity:1;fill-rule:evenodd;stroke:none;stroke-width:0.13333333"
         id="path798" />
      <path
         inkscape:connector-curvature="0"
         d="m 214.36533,920.09202 c -2.992,-1.32267 -8.26267,-2.83467 -14.44933,-0.456 -3.09734,1.192 -2.52934,2.81066 0.71066,1.62266 5.00667,-1.83466 8.2,-0.71466 12.94133,1.25067 1.836,0.76 2.83334,-1.51867 0.79734,-2.41733"
         style="fill:#684535;fill-opacity:1;fill-rule:evenodd;stroke:none;stroke-width:0.13333333"
         id="path800" />
      <path
         inkscape:connector-curvature="0"
         d="m 181.488,929.98668 c 2.69866,-0.54933 5.79733,3.484 6.92133,9.008 1.124,5.524 -0.15067,10.44667 -2.848,10.996 -2.69867,0.54934 -5.79733,-3.48266 -6.92133,-9.008 -1.124,-5.52266 0.15066,-10.44666 2.848,-10.996"
         style="fill:#f3c3bc;fill-opacity:1;fill-rule:evenodd;stroke:none;stroke-width:0.13333333"
         id="path802" />
      <path
         inkscape:connector-curvature="0"
         d="m 268.31199,929.98668 c -2.69866,-0.54933 -5.79733,3.484 -6.92133,9.008 -1.12533,5.524 0.15067,10.44667 2.848,10.996 2.69733,0.54934 5.796,-3.48266 6.92133,-9.008 1.124,-5.52266 -0.15066,-10.44666 -2.848,-10.996"
         style="fill:#f3c3bc;fill-opacity:1;fill-rule:evenodd;stroke:none;stroke-width:0.13333333"
         id="path804" />
      <path
         inkscape:connector-curvature="0"
         d="m 256.86933,933.01068 h 8.156 v -3.732 h -8.156 v 3.732"
         style="fill:#37517e;fill-opacity:1;fill-rule:evenodd;stroke:none;stroke-width:0.13333333"
         id="path806" />
      <path
         inkscape:connector-curvature="0"
         d="m 184.712,933.01068 h 8.15466 v -3.732 H 184.712 v 3.732"
         style="fill:#37517e;fill-opacity:1;fill-rule:evenodd;stroke:none;stroke-width:0.13333333"
         id="path808" />
      <path
         inkscape:connector-curvature="0"
         d="m 183.12666,933.29068 c 0.736,3.572 3.58934,11.144 3.4,2.64534 -0.188,-8.5 0.94534,-29.84267 9.82134,-38.72134 8.87733,-8.87733 19.07733,-3.77733 28.33199,-3.77733 0.0747,0 0.14667,-0.003 0.22,-0.005 0.0733,0.003 0.14534,0.005 0.22,0.005 9.25467,0 19.45467,-5.1 28.332,3.77733 8.87734,8.87867 10.00934,30.22134 9.82134,38.72134 -0.18934,8.49866 2.676,0.92933 3.4,-2.64534 2.66533,-13.17466 6.14,-39.62 -15.37067,-48.4 -20.33867,-19.62133 -53.47066,-10.02933 -64.31466,15.656 -7.00934,16.6 -5.26934,25.90534 -3.86134,32.744"
         style="fill:#684535;fill-opacity:1;fill-rule:evenodd;stroke:none;stroke-width:0.13333333"
         id="path810" />
      <path
         inkscape:connector-curvature="0"
         d="m 152.42533,1112.34 c 13.16,-0.3067 12.97467,20.68 11.83067,38.7147 -0.972,15.34 -0.78934,54.8493 -8.11467,55.592 -10.00533,1.012 -11.352,-36.8507 -12.36,-54.1467 -1.10133,-18.8773 -3.45067,-39.876 8.644,-40.16"
         style="fill:#f3c3bc;fill-opacity:1;fill-rule:evenodd;stroke:none;stroke-width:0.13333333"
         id="path812" />
      <path
         inkscape:connector-curvature="0"
         d="m 304.78799,1176.3893 c -1.12533,13.8227 3.39067,38.5307 -0.50133,48.2627 -1.60667,4.0147 -3.19733,10.4987 -6.28,13.0653 -4.39333,3.652 -10.22667,5.9907 -12.23467,6.1547 -3.42133,0.28 -4.67466,-2.4653 -0.0627,-4.8787 1.82133,-0.952 3.98533,-1.9093 6.53466,-4.716 3.89867,-4.2933 4.43867,-13.096 3.712,-13.3506 -4.78933,-1.6734 -8.57333,13.1626 -12.46266,11.7066 -1.82,-0.68 1.68666,-9.692 2.448,-14.1106 0.86133,-5.0014 -0.424,-12.912 2.93066,-17.5587 6.32134,-8.7547 1.06667,-22.0333 0.58134,-31.7667 -0.48667,-9.732 16.35866,-5.3986 15.33466,7.192"
         style="fill:#f3c3bc;fill-opacity:1;fill-rule:evenodd;stroke:none;stroke-width:0.13333333"
         id="path814" />
      <path
         inkscape:connector-curvature="0"
         d="m 210.65333,1001.4907 14.24666,10.6853 -10.176,16.2813 -18.82533,-22.388 14.75467,-4.5786"
         style="fill:#e93a3e;fill-opacity:1;fill-rule:evenodd;stroke:none;stroke-width:0.13333333"
         id="path816" />
      <path
         inkscape:connector-curvature="0"
         d="m 239.14666,1001.4907 -14.24667,10.6853 10.17734,16.2813 18.82533,-22.388 -14.756,-4.5786"
         style="fill:#e93a3e;fill-opacity:1;fill-rule:evenodd;stroke:none;stroke-width:0.13333333"
         id="path818" />
      <path
         inkscape:connector-curvature="0"
         d="m 166.75333,1016.992 c -16.82933,15.6587 -25.02667,87.816 -26.488,103.2773 -1.46133,15.4614 0.49333,72.208 1.17867,80.2147 8.50533,1.896 18.344,2.352 27.14933,-1.596 0,0 -2.50133,-68.084 -2.17867,-77.048 0.32267,-8.9653 14.89467,-44.656 25.048,-68.4253 10.15467,-23.768 -8.57066,-38.5454 -24.70933,-36.4227"
         style="fill:#424959;fill-opacity:1;fill-rule:evenodd;stroke:none;stroke-width:0.13333333"
         id="path820" />
      <path
         inkscape:connector-curvature="0"
         d="m 308.52799,1199.3427 c -8.06933,0 -16.13866,0 -24.208,0 0,2.2253 -0.48266,3.5306 -0.48266,5.756 6.372,2.8506 16.876,3.5173 25.17333,1.1506 0,-2.2253 -0.48267,-4.6813 -0.48267,-6.9066"
         style="fill:#e93a3e;fill-opacity:1;fill-rule:evenodd;stroke:none;stroke-width:0.13333333"
         id="path822" />
      <path
         inkscape:connector-curvature="0"
         d="m 283.50666,1018.34 c 17.97733,18.372 26.24533,85.9827 26.488,103.2773 0.24267,17.2947 -0.30267,81.436 -0.30267,81.436 -8.74533,2.5747 -17.62666,1.5467 -26.776,-0.896 0,0 1.252,-70.0053 0.92934,-78.9693 -0.32267,-8.964 -14.89334,-46.1747 -25.048,-69.944 -10.15467,-23.768 8.572,-37.0267 24.70933,-34.904"
         style="fill:#424959;fill-opacity:1;fill-rule:evenodd;stroke:none;stroke-width:0.13333333"
         id="path824" />
      <path
         inkscape:connector-curvature="0"
         d="m 179.83066,1466.04 c 11.76,2.04 23.4,2.6532 34.84933,1.5467 0.73734,-0.067 1.32134,0.64 1.28934,1.3466 -0.17467,3.9599 -0.35067,7.9198 -0.52667,11.8932 -0.032,0.7068 -0.668,1.1334 -1.404,1.2136 -11.69733,1.3334 -23.32266,0.9864 -34.84933,-1.5333 -0.72267,-0.1604 -1.32,-0.6401 -1.28933,-1.3469 0.176,-3.9599 0.352,-7.9334 0.52666,-11.8932 0.032,-0.7067 0.67467,-1.3467 1.404,-1.2267"
         style="fill:#577ba8;fill-opacity:1;fill-rule:evenodd;stroke:none;stroke-width:0.13333333"
         id="path826" />
      <path
         inkscape:connector-curvature="0"
         d="m 269.17466,1456.12 c -10.85067,3.4933 -23.84667,5.9067 -34.82667,6.24 -0.70666,0.027 -1.164,0.8 -1.03866,1.4933 0.70266,3.9067 1.40533,7.8134 2.10666,11.7066 0.12534,0.7068 0.78667,1.0532 1.49467,1.0401 11.24533,-0.1469 24.26267,-2.2932 34.82533,-6.2265 0.66267,-0.2538 1.164,-0.8 1.03867,-1.4932 -0.70267,-3.907 -1.40533,-7.8136 -2.10667,-11.7203 -0.12533,-0.6933 -0.82133,-1.2533 -1.49333,-1.04"
         style="fill:#577ba8;fill-opacity:1;fill-rule:evenodd;stroke:none;stroke-width:0.13333333"
         id="path828" />
      <path
         inkscape:connector-curvature="0"
         d="m 149.03066,1189.6387 c 7.38667,-3.08 16.432,9.9 22.088,21.3906 9.96534,20.2427 -3.71733,3.3067 -3.856,4.3934 -0.32666,2.552 -0.616,6.112 -0.60133,11.7626 0.0107,4.0507 -2.568,4.78 -3.732,3.528 -0.81467,-0.8733 -1.67867,-0.648 -2.02267,-0.2493 -1.872,2.1693 -4.376,1.4933 -5.068,-0.083 -0.556,-1.2653 -1.63333,-1.1733 -2.64933,-0.1906 -1.192,1.1546 -2.788,1.9373 -4.012,1.0173 -1.176,-0.8827 -1.20267,-4.7493 -2.728,-2.524 -1.84,2.6827 -3.324,2.008 -4.23067,0.8293 -2.472,-3.2093 0.41067,-37.204 6.812,-39.8746"
         style="fill:#f3c3bc;fill-opacity:1;fill-rule:evenodd;stroke:none;stroke-width:0.13333333"
         id="path830" />
      <path
         inkscape:connector-curvature="0"
         d="m 142.99066,1197.2107 c 8.06934,0 16.13867,0 24.208,0 0,2.2253 0.48134,3.5293 0.48134,5.7546 -5.312,3.196 -15.68,4.3014 -25.172,1.152 0,-2.2253 0.48266,-4.6813 0.48266,-6.9066"
         style="fill:#e93a3e;fill-opacity:1;fill-rule:evenodd;stroke:none;stroke-width:0.13333333"
         id="path832" />
      <path
         inkscape:connector-curvature="0"
         d="m 141.956,1105.1733 c -0.84,6.6827 -1.4,12.016 -1.69067,15.096 -1.46133,15.4614 0.49333,72.208 1.17867,80.2147 8.50533,1.896 18.344,2.352 27.14933,-1.596 0,0 -2.50133,-68.084 -2.17867,-77.048 0.10934,-3.0187 1.83334,-9.0667 4.45867,-16.6667 H 141.956"
         style="fill:#424959;fill-opacity:1;fill-rule:evenodd;stroke:none;stroke-width:0.13333333"
         id="path834" />
      <path
         inkscape:connector-curvature="0"
         d="m 249.61333,887.21868 c 3.16533,18.53734 -10.45867,31.328 -29.42667,33.47067 13.81467,-6.912 24.48667,-22.07067 29.42667,-33.47067"
         style="fill:#684535;fill-opacity:1;fill-rule:evenodd;stroke:none;stroke-width:0.13333333"
         id="path836" />
      <path
         inkscape:connector-curvature="0"
         d="m 248.77733,885.40002 c -4.93867,24.74666 -43.06134,36.47333 -75.50933,29.3 28.39733,-2.55334 58.59333,-14.92934 75.50933,-29.3"
         style="fill:#684535;fill-opacity:1;fill-rule:evenodd;stroke:none;stroke-width:0.13333333"
         id="path838" />
      <path
         inkscape:connector-curvature="0"
         d="m 249.63599,889.17335 c -12.16533,16.74133 -39.42666,31.72533 -63.31733,21.81733 15.86133,-37.116 43.04267,-37.228 63.31733,-21.81733"
         style="fill:#684535;fill-opacity:1;fill-rule:evenodd;stroke:none;stroke-width:0.13333333"
         id="path840" />
      <path
         inkscape:connector-curvature="0"
         d="m 248.65733,886.70802 c -3.84534,17.85733 7.688,37.51733 16.792,42.89066 0.10266,-26.04266 -10.66134,-37.78266 -16.792,-42.89066"
         style="fill:#684535;fill-opacity:1;fill-rule:evenodd;stroke:none;stroke-width:0.13333333"
         id="path842" />
      <path
         inkscape:connector-curvature="0"
         d="m 185.26133,1505.9197 15.07733,-4.1728"
         style="fill:none;stroke:#419aab;stroke-width:2.55986643;stroke-linecap:round;stroke-linejoin:round;stroke-miterlimit:22.92560005;stroke-dasharray:none;stroke-opacity:1"
         id="path844" />
      <path
         inkscape:connector-curvature="0"
         d="m 186.29466,1500.7333 15.07733,-4.1734"
         style="fill:none;stroke:#419aab;stroke-width:2.55986643;stroke-linecap:round;stroke-linejoin:round;stroke-miterlimit:22.92560005;stroke-dasharray:none;stroke-opacity:1"
         id="path846" />
      <path
         inkscape:connector-curvature="0"
         d="m 186.812,1496.0667 15.07733,-4.1735"
         style="fill:none;stroke:#419aab;stroke-width:2.55986643;stroke-linecap:round;stroke-linejoin:round;stroke-miterlimit:22.92560005;stroke-dasharray:none;stroke-opacity:1"
         id="path848" />
      <path
         inkscape:connector-curvature="0"
         d="m 201.67733,1507.0401 -14.33067,-5.5333"
         style="fill:none;stroke:#419aab;stroke-width:2.55986643;stroke-linecap:round;stroke-linejoin:round;stroke-miterlimit:22.92560005;stroke-dasharray:none;stroke-opacity:1"
         id="path850" />
      <path
         inkscape:connector-curvature="0"
         d="m 201.44533,1501.8 -14.33067,-5.5469"
         style="fill:none;stroke:#419aab;stroke-width:2.55986643;stroke-linecap:round;stroke-linejoin:round;stroke-miterlimit:22.92560005;stroke-dasharray:none;stroke-opacity:1"
         id="path852" />
      <path
         inkscape:connector-curvature="0"
         d="M 201.64666,1497.1197 187.316,1491.5735"
         style="fill:none;stroke:#419aab;stroke-width:2.55986643;stroke-linecap:round;stroke-linejoin:round;stroke-miterlimit:22.92560005;stroke-dasharray:none;stroke-opacity:1"
         id="path854" />
      <path
         inkscape:connector-curvature="0"
         d="m 206.97466,1517.5333 c -7.744,10.5599 -19.97733,9.2798 -27.688,-0.4401 0.65334,-4.2801 6.72934,-7.5599 14.04,-7.4135 7.26,0.1334 13.13467,3.587 13.648,7.8536"
         style="fill:#ffffff;fill-opacity:1;fill-rule:evenodd;stroke:none;stroke-width:0.13333333"
         id="path856" />
      <path
         inkscape:connector-curvature="0"
         d="m 281.77733,1491.6797 3.23066,-9.4396"
         style="fill:none;stroke:#419aab;stroke-width:2.55986643;stroke-linecap:round;stroke-linejoin:round;stroke-miterlimit:22.92560005;stroke-dasharray:none;stroke-opacity:1"
         id="path858" />
      <path
         inkscape:connector-curvature="0"
         d="m 276.94933,1487 3.23066,-9.4531"
         style="fill:none;stroke:#419aab;stroke-width:2.55986643;stroke-linecap:round;stroke-linejoin:round;stroke-miterlimit:22.92560005;stroke-dasharray:none;stroke-opacity:1"
         id="path860" />
      <path
         inkscape:connector-curvature="0"
         d="m 272.39733,1482.9464 3.23066,-8.6267"
         style="fill:none;stroke:#419aab;stroke-width:2.55986643;stroke-linecap:round;stroke-linejoin:round;stroke-miterlimit:22.92560005;stroke-dasharray:none;stroke-opacity:1"
         id="path862" />
      <path
         inkscape:connector-curvature="0"
         d="m 291.13333,1486.0667 -12.864,1.1469"
         style="fill:none;stroke:#419aab;stroke-width:2.55986643;stroke-linecap:round;stroke-linejoin:round;stroke-miterlimit:22.92560005;stroke-dasharray:none;stroke-opacity:1"
         id="path864" />
      <path
         inkscape:connector-curvature="0"
         d="m 285.61333,1481.8401 -12.864,1.1463"
         style="fill:none;stroke:#419aab;stroke-width:2.55986643;stroke-linecap:round;stroke-linejoin:round;stroke-miterlimit:22.92560005;stroke-dasharray:none;stroke-opacity:1"
         id="path866" />
      <path
         inkscape:connector-curvature="0"
         d="m 280.88799,1477.8932 -12.864,1.1469"
         style="fill:none;stroke:#419aab;stroke-width:2.55986643;stroke-linecap:round;stroke-linejoin:round;stroke-miterlimit:22.92560005;stroke-dasharray:none;stroke-opacity:1"
         id="path868" />
      <path
         inkscape:connector-curvature="0"
         d="m 290.42266,1510.6131 c 10.40933,1.227 20.31733,-0.5464 19.55733,-8.76 -0.21466,-2.3198 -1.35066,-4.6667 -4.52933,-7.04 -0.12,0 -0.24133,0 -0.36267,0 -7.98266,0 -14.47466,7.04 -14.66533,15.8"
         style="fill:#ffffff;fill-opacity:1;fill-rule:evenodd;stroke:none;stroke-width:0.13333333"
         id="path870" />
      <path
         inkscape:connector-curvature="0"
         d="m 254.27599,1188.764 c 0,0 9.18,14.604 14.60534,18.7773"
         style="fill:none;stroke:#282c4c;stroke-width:2.55986643;stroke-linecap:butt;stroke-linejoin:miter;stroke-miterlimit:22.92560005;stroke-dasharray:none;stroke-opacity:1"
         id="path872" />
      <path
         inkscape:connector-curvature="0"
         d="m 252.26266,930.59068 c 2.99733,1.75867 2.44267,10.24134 0.12133,14.44667 -2.408,4.36533 -11.25333,5.53867 -15.56666,3.51467 -4.444,-2.08534 -9.152,-11.51467 -6.25734,-15.39734 3.444,-4.62 19.03867,-4.12666 21.70267,-2.564 z m -55.496,0.15734 c 2.656,-1.57734 18.24667,-2.16 21.71733,2.44 2.91734,3.86666 -1.73733,13.32266 -6.17066,15.43333 -4.30134,2.048 -13.15333,0.92533 -15.58533,-3.42667 -2.34534,-4.192 -2.948,-12.672 0.0387,-14.44666 z m 27.684,0.164 c -2.01733,0.0493 -10.34267,-2.15067 -16.23067,-2.61734 -5.892,-0.468 -14.63066,0.28267 -16.13866,0.772 -1.80267,0.584 -1.85467,0.732 -1.93067,2.104 -0.0773,1.372 0.152,2.54934 1.21867,2.90134 1.45333,0.48 1.472,2.316 2.44267,7.58 0.884,4.79466 3.012,8.584 12.13199,9.24666 8.948,0.65067 11.93067,-5.11733 12.89334,-6.97733 1.71733,-3.31467 1.17333,-7.87467 5.69333,-7.888 4.51867,-0.0133 4.08133,4.47067 5.81733,7.77467 0.97334,1.85333 3.908,7.688 12.852,6.98533 9.116,-0.71467 11.224,-4.516 12.08,-9.31467 0.94,-5.27066 0.948,-7.10533 2.4,-7.59333 1.064,-0.35867 1.28667,-1.53733 1.20267,-2.90933 -0.0853,-1.372 -0.13733,-1.51867 -1.944,-2.09334 -1.51067,-0.48 -10.25333,-1.18133 -16.14267,-0.68 -5.26666,0.448 -11.6,2.592 -16.34533,2.70934 v 0"
         style="fill:#37517e;fill-opacity:1;fill-rule:evenodd;stroke:none;stroke-width:0.13333333"
         id="path874" />
      <path
         inkscape:connector-curvature="0"
         d="m 176.804,1081.172 6.92133,-9.6307"
         style="fill:none;stroke:#747b7e;stroke-width:3.20013309;stroke-linecap:round;stroke-linejoin:round;stroke-miterlimit:22.92560005;stroke-dasharray:none;stroke-opacity:1"
         id="path876" />
      <path
         inkscape:connector-curvature="0"
         d="m 190.64666,1081.172 -6.92133,-9.6307"
         style="fill:none;stroke:#747b7e;stroke-width:3.20013309;stroke-linecap:round;stroke-linejoin:round;stroke-miterlimit:22.92560005;stroke-dasharray:none;stroke-opacity:1"
         id="path878" />
      <path
         inkscape:connector-curvature="0"
         d="m 204.49066,1081.172 -6.92266,-9.6307"
         style="fill:none;stroke:#747b7e;stroke-width:3.20013309;stroke-linecap:round;stroke-linejoin:round;stroke-miterlimit:22.92560005;stroke-dasharray:none;stroke-opacity:1"
         id="path880" />
      <path
         inkscape:connector-curvature="0"
         d="m 190.64666,1081.172 6.92134,-9.6307"
         style="fill:none;stroke:#747b7e;stroke-width:3.20013309;stroke-linecap:round;stroke-linejoin:round;stroke-miterlimit:22.92560005;stroke-dasharray:none;stroke-opacity:1"
         id="path882" />
      <path
         inkscape:connector-curvature="0"
         d="m 204.49066,1081.172 6.92133,-9.6307"
         style="fill:none;stroke:#747b7e;stroke-width:3.20013309;stroke-linecap:round;stroke-linejoin:round;stroke-miterlimit:22.92560005;stroke-dasharray:none;stroke-opacity:1"
         id="path884" />
      <path
         inkscape:connector-curvature="0"
         d="m 218.33466,1081.172 -6.92267,-9.6307"
         style="fill:none;stroke:#747b7e;stroke-width:3.20013309;stroke-linecap:round;stroke-linejoin:round;stroke-miterlimit:22.92560005;stroke-dasharray:none;stroke-opacity:1"
         id="path886" />
      <path
         inkscape:connector-curvature="0"
         d="m 232.17733,1081.172 -6.92134,-9.6307"
         style="fill:none;stroke:#747b7e;stroke-width:3.20013309;stroke-linecap:round;stroke-linejoin:round;stroke-miterlimit:22.92560005;stroke-dasharray:none;stroke-opacity:1"
         id="path888" />
      <path
         inkscape:connector-curvature="0"
         d="m 218.33466,1081.172 6.92133,-9.6307"
         style="fill:none;stroke:#747b7e;stroke-width:3.20013309;stroke-linecap:round;stroke-linejoin:round;stroke-miterlimit:22.92560005;stroke-dasharray:none;stroke-opacity:1"
         id="path890" />
      <path
         inkscape:connector-curvature="0"
         d="m 232.17733,1081.172 6.92133,-9.6307"
         style="fill:none;stroke:#747b7e;stroke-width:3.20013309;stroke-linecap:round;stroke-linejoin:round;stroke-miterlimit:22.92560005;stroke-dasharray:none;stroke-opacity:1"
         id="path892" />
      <path
         inkscape:connector-curvature="0"
         d="m 246.02133,1081.172 -6.92267,-9.6307"
         style="fill:none;stroke:#747b7e;stroke-width:3.20013309;stroke-linecap:round;stroke-linejoin:round;stroke-miterlimit:22.92560005;stroke-dasharray:none;stroke-opacity:1"
         id="path894" />
      <path
         inkscape:connector-curvature="0"
         d="m 259.86399,1081.172 -6.92133,-9.6307"
         style="fill:none;stroke:#747b7e;stroke-width:3.20013309;stroke-linecap:round;stroke-linejoin:round;stroke-miterlimit:22.92560005;stroke-dasharray:none;stroke-opacity:1"
         id="path896" />
      <path
         inkscape:connector-curvature="0"
         d="m 246.02133,1081.172 6.92133,-9.6307"
         style="fill:none;stroke:#747b7e;stroke-width:3.20013309;stroke-linecap:round;stroke-linejoin:round;stroke-miterlimit:22.92560005;stroke-dasharray:none;stroke-opacity:1"
         id="path898" />
      <path
         inkscape:connector-curvature="0"
         d="m 259.86399,1081.172 6.92267,-9.6307"
         style="fill:none;stroke:#747b7e;stroke-width:3.20013309;stroke-linecap:round;stroke-linejoin:round;stroke-miterlimit:22.92560005;stroke-dasharray:none;stroke-opacity:1"
         id="path900" />
      <path
         inkscape:connector-curvature="0"
         d="m 273.70799,1081.172 -6.92133,-9.6307"
         style="fill:none;stroke:#747b7e;stroke-width:3.20013309;stroke-linecap:round;stroke-linejoin:round;stroke-miterlimit:22.92560005;stroke-dasharray:none;stroke-opacity:1"
         id="path902" />
      <path
         inkscape:connector-curvature="0"
         d="m 176.804,1096.9707 6.92133,-9.6307"
         style="fill:none;stroke:#747b7e;stroke-width:3.20013309;stroke-linecap:round;stroke-linejoin:round;stroke-miterlimit:22.92560005;stroke-dasharray:none;stroke-opacity:1"
         id="path904" />
      <path
         inkscape:connector-curvature="0"
         d="m 190.64666,1096.9707 -6.92133,-9.6307"
         style="fill:none;stroke:#747b7e;stroke-width:3.20013309;stroke-linecap:round;stroke-linejoin:round;stroke-miterlimit:22.92560005;stroke-dasharray:none;stroke-opacity:1"
         id="path906" />
      <path
         inkscape:connector-curvature="0"
         d="M 204.49066,1096.9707 197.568,1087.34"
         style="fill:none;stroke:#747b7e;stroke-width:3.20013309;stroke-linecap:round;stroke-linejoin:round;stroke-miterlimit:22.92560005;stroke-dasharray:none;stroke-opacity:1"
         id="path908" />
      <path
         inkscape:connector-curvature="0"
         d="M 190.64666,1096.9707 197.568,1087.34"
         style="fill:none;stroke:#747b7e;stroke-width:3.20013309;stroke-linecap:round;stroke-linejoin:round;stroke-miterlimit:22.92560005;stroke-dasharray:none;stroke-opacity:1"
         id="path910" />
      <path
         inkscape:connector-curvature="0"
         d="m 204.49066,1096.9707 6.92133,-9.6307"
         style="fill:none;stroke:#747b7e;stroke-width:3.20013309;stroke-linecap:round;stroke-linejoin:round;stroke-miterlimit:22.92560005;stroke-dasharray:none;stroke-opacity:1"
         id="path912" />
      <path
         inkscape:connector-curvature="0"
         d="m 218.33466,1096.9707 -6.92267,-9.6307"
         style="fill:none;stroke:#747b7e;stroke-width:3.20013309;stroke-linecap:round;stroke-linejoin:round;stroke-miterlimit:22.92560005;stroke-dasharray:none;stroke-opacity:1"
         id="path914" />
      <path
         inkscape:connector-curvature="0"
         d="m 232.17733,1096.9707 -6.92134,-9.6307"
         style="fill:none;stroke:#747b7e;stroke-width:3.20013309;stroke-linecap:round;stroke-linejoin:round;stroke-miterlimit:22.92560005;stroke-dasharray:none;stroke-opacity:1"
         id="path916" />
      <path
         inkscape:connector-curvature="0"
         d="m 218.33466,1096.9707 6.92133,-9.6307"
         style="fill:none;stroke:#747b7e;stroke-width:3.20013309;stroke-linecap:round;stroke-linejoin:round;stroke-miterlimit:22.92560005;stroke-dasharray:none;stroke-opacity:1"
         id="path918" />
      <path
         inkscape:connector-curvature="0"
         d="m 232.17733,1096.9707 6.92133,-9.6307"
         style="fill:none;stroke:#747b7e;stroke-width:3.20013309;stroke-linecap:round;stroke-linejoin:round;stroke-miterlimit:22.92560005;stroke-dasharray:none;stroke-opacity:1"
         id="path920" />
      <path
         inkscape:connector-curvature="0"
         d="m 246.02133,1096.9707 -6.92267,-9.6307"
         style="fill:none;stroke:#747b7e;stroke-width:3.20013309;stroke-linecap:round;stroke-linejoin:round;stroke-miterlimit:22.92560005;stroke-dasharray:none;stroke-opacity:1"
         id="path922" />
      <path
         inkscape:connector-curvature="0"
         d="m 259.86399,1096.9707 -6.92133,-9.6307"
         style="fill:none;stroke:#747b7e;stroke-width:3.20013309;stroke-linecap:round;stroke-linejoin:round;stroke-miterlimit:22.92560005;stroke-dasharray:none;stroke-opacity:1"
         id="path924" />
      <path
         inkscape:connector-curvature="0"
         d="m 246.02133,1096.9707 6.92133,-9.6307"
         style="fill:none;stroke:#747b7e;stroke-width:3.20013309;stroke-linecap:round;stroke-linejoin:round;stroke-miterlimit:22.92560005;stroke-dasharray:none;stroke-opacity:1"
         id="path926" />
      <path
         inkscape:connector-curvature="0"
         d="m 259.86399,1096.9707 6.92267,-9.6307"
         style="fill:none;stroke:#747b7e;stroke-width:3.20013309;stroke-linecap:round;stroke-linejoin:round;stroke-miterlimit:22.92560005;stroke-dasharray:none;stroke-opacity:1"
         id="path928" />
      <path
         inkscape:connector-curvature="0"
         d="m 273.70799,1096.9707 -6.92133,-9.6307"
         style="fill:none;stroke:#747b7e;stroke-width:3.20013309;stroke-linecap:round;stroke-linejoin:round;stroke-miterlimit:22.92560005;stroke-dasharray:none;stroke-opacity:1"
         id="path930" />
      <path
         inkscape:connector-curvature="0"
         d="m 250.02399,887.58535 c -8.868,16.584 -40.92666,26.38 -57.69733,13.592 15.15067,3.012 45.15333,-4.72933 57.69733,-13.592"
         style="fill:#503228;fill-opacity:1;fill-rule:evenodd;stroke:none;stroke-width:0.13333333"
         id="path932" />
      <path
         inkscape:connector-curvature="0"
         d="m 249.74666,886.95868 c -3.22,12.324 5.648,25.40134 15.69867,26.836 -6.15067,-4.18 -14.50267,-19.54133 -15.69867,-26.836"
         style="fill:#503228;fill-opacity:1;fill-rule:evenodd;stroke:none;stroke-width:0.13333333"
         id="path934" />
    </g>
  </g>
</svg>
