<?xml version="1.0" encoding="UTF-8" standalone="no"?>
<!-- Created with Inkscape (http://www.inkscape.org/) -->

<svg
   xmlns:dc="http://purl.org/dc/elements/1.1/"
   xmlns:cc="http://creativecommons.org/ns#"
   xmlns:rdf="http://www.w3.org/1999/02/22-rdf-syntax-ns#"
   xmlns:svg="http://www.w3.org/2000/svg"
   xmlns="http://www.w3.org/2000/svg"
   xmlns:sodipodi="http://sodipodi.sourceforge.net/DTD/sodipodi-0.dtd"
   xmlns:inkscape="http://www.inkscape.org/namespaces/inkscape"
   width="15.35879mm"
   height="52.916668mm"
   viewBox="0 0 15.35879 52.916668"
   version="1.1"
   id="svg8347"
   inkscape:version="0.92.3 (2405546, 2018-03-11)"
   sodipodi:docname="5.svg">
  <defs
     id="defs8341" />
  <sodipodi:namedview
     id="base"
     pagecolor="#ffffff"
     bordercolor="#666666"
     borderopacity="1.0"
     inkscape:pageopacity="0.0"
     inkscape:pageshadow="2"
     inkscape:zoom="0.35"
     inkscape:cx="-537.02258"
     inkscape:cy="-11.879555"
     inkscape:document-units="mm"
     inkscape:current-layer="layer1"
     showgrid="false"
     fit-margin-top="0"
     fit-margin-left="0"
     fit-margin-right="0"
     fit-margin-bottom="0"
     inkscape:window-width="1613"
     inkscape:window-height="995"
     inkscape:window-x="67"
     inkscape:window-y="27"
     inkscape:window-maximized="1" />
  <metadata
     id="metadata8344">
    <rdf:RDF>
      <cc:Work
         rdf:about="">
        <dc:format>image/svg+xml</dc:format>
        <dc:type
           rdf:resource="http://purl.org/dc/dcmitype/StillImage" />
        <dc:title></dc:title>
      </cc:Work>
    </rdf:RDF>
  </metadata>
  <g
     inkscape:label="Layer 1"
     inkscape:groupmode="layer"
     id="layer1"
     transform="translate(-120.92056,-92.773532)">
    <g
       transform="matrix(0.08134436,0,0,0.08134436,86.209077,21.048947)"
       id="g8249">
      <path
         inkscape:connector-curvature="0"
         d="m 521.15332,1204.036 c -20.548,0 -46.52267,-26.3613 -47.29733,-40.3173 -0.77467,-13.9574 5.81466,-27.1387 13.568,-47.2974 7.75466,-20.1586 -3.75734,-49.7106 -13.06134,-78.0093 -14.35466,-43.66932 106.59734,-38.76665 93.69867,0.4733 -3.87867,11.8014 -10.05467,19.1494 -13.168,30.5174 -4.352,15.8933 -4.532,35.2666 -0.0133,47.0186 7.75333,20.1587 14.344,33.34 13.56933,47.2974 -0.776,13.956 -26.74933,40.3173 -47.296,40.3173"
         style="fill:#e93a3e;fill-opacity:1;fill-rule:evenodd;stroke:none;stroke-width:0.13333333"
         id="path1410" />
      <path
         inkscape:connector-curvature="0"
         d="m 496.85999,946.07068 c -6.77734,3.388 68.64266,29.15867 51.14266,42.008 -13.69333,10.05467 -36.22933,8.44667 -49.04133,3.056 -12.81067,-5.39066 -31.92133,-18.51866 -26.69333,-31.36133 5.22666,-12.844 5.43466,-14.13867 8.888,-34.464 3.45466,-20.32533 26.99733,0.432 15.704,20.76133"
         style="fill:#b69738;fill-opacity:1;fill-rule:evenodd;stroke:none;stroke-width:0.13333333"
         id="path1412" />
      <path
         inkscape:connector-curvature="0"
         d="m 486.70665,1323.684 c 2.85067,39.3827 1.14667,158.3425 13.16134,144.7691 12.69066,-14.3331 16.75333,-93.9198 17.34933,-114.8531 1.89867,-66.632 -38.764,-143.9733 -30.51067,-29.916"
         style="fill:#f3c3bc;fill-opacity:1;fill-rule:evenodd;stroke:none;stroke-width:0.13333333"
         id="path1414" />
      <path
         inkscape:connector-curvature="0"
         d="m 556.07999,1323.684 c -2.85067,39.3827 -1.14667,158.3425 -13.16,144.7691 -12.692,-14.3331 -16.75334,-93.9198 -17.35067,-114.8531 -1.89867,-66.632 38.76533,-143.9733 30.51067,-29.916"
         style="fill:#f3c3bc;fill-opacity:1;fill-rule:evenodd;stroke:none;stroke-width:0.13333333"
         id="path1416" />
      <path
         inkscape:connector-curvature="0"
         d="m 521.12799,1532.2667 c 51.99733,0 94.40666,-14.4667 94.40666,-32.2 0,-17.747 -42.40933,-32.2134 -94.40666,-32.2134 -51.99734,0 -94.40533,14.4664 -94.40533,32.2134 0,17.7333 42.40799,32.2 94.40533,32.2"
         style="fill:#447186;fill-opacity:1;fill-rule:evenodd;stroke:none;stroke-width:0.13333333"
         id="path1418" />
      <path
         inkscape:connector-curvature="0"
         d="m 490.38265,1014.732 c 17.05734,4.3053 0.85734,39.8667 -6.00133,56.584 -6.67733,16.2787 -21.53333,49.6267 -29.67866,46.6253 -8.14534,-3.0013 0.79733,-36.904 4.816,-54.7693 3.85733,-17.1467 14.54133,-52.56 30.86399,-48.44"
         style="fill:#e93a3e;fill-opacity:1;fill-rule:evenodd;stroke:none;stroke-width:0.13333333"
         id="path1420" />
      <path
         inkscape:connector-curvature="0"
         d="m 472.13999,1204.612 c 4.988,49.972 12.82933,122.66 28.50933,122.66 15.67867,0 19.95733,-91.768 17.81733,-127.204 -6.53066,-108.208 -54.86133,-80.9573 -46.32666,4.544"
         style="fill:#424959;fill-opacity:1;fill-rule:evenodd;stroke:none;stroke-width:0.13333333"
         id="path1422" />
      <path
         inkscape:connector-curvature="0"
         d="m 570.64799,1204.612 c -4.98934,49.972 -12.83067,122.66 -28.51067,122.66 -15.67867,0 -19.956,-91.768 -17.81733,-127.204 6.532,-108.208 54.86266,-80.9573 46.328,4.544"
         style="fill:#424959;fill-opacity:1;fill-rule:evenodd;stroke:none;stroke-width:0.13333333"
         id="path1424" />
      <path
         inkscape:connector-curvature="0"
         d="m 521.10132,1204.036 c -20.54667,0 -46.52133,-26.3613 -47.296,-40.3173 -0.41067,-7.3787 1.24,-14.5414 4.03067,-22.632 h 86.532 c 2.79066,8.0906 4.44,15.2533 4.03066,22.632 -0.776,13.956 -26.74933,40.3173 -47.29733,40.3173"
         style="fill:#424959;fill-opacity:1;fill-rule:evenodd;stroke:none;stroke-width:0.13333333"
         id="path1426" />
      <path
         inkscape:connector-curvature="0"
         d="m 552.64799,1016.684 c -17.3,3.184 -6.38,36.676 -0.62667,53.8053 5.6,16.6787 17.23067,51.8174 25.55467,49.3547 8.324,-2.464 2.63066,-37.7693 -0.21467,-55.86 -2.72933,-17.3613 -8.156,-50.3453 -24.71333,-47.3"
         style="fill:#e93a3e;fill-opacity:1;fill-rule:evenodd;stroke:none;stroke-width:0.13333333"
         id="path1428" />
      <path
         inkscape:connector-curvature="0"
         d="m 470.25732,1156.3533 c 1.27733,-11.564 8.492,-26.58 13.99333,-40.884 5.50267,-14.304 3.95467,-29.2373 0.19467,-45.0226 -2.05333,-23.3414 12,-38.7614 12.17733,-60.436 14.296,-3.984 32.90134,-3.58 47.404,0.8026 1.75467,23.868 13.98267,38.7067 9.144,64.2414 -3.25066,13.6346 -0.008,29.6653 4.24934,40.732 4.256,11.0666 10.93466,27.3213 13.428,35.9253 -27.06934,23.8947 -68.86,22.4227 -100.59067,4.6413"
         style="fill:#ffffff;fill-opacity:1;fill-rule:evenodd;stroke:none;stroke-width:0.13333333"
         id="path1430" />
      <path
         inkscape:connector-curvature="0"
         d="m 544.01199,1132.976 v -82.9293 h -57.29734 l -4.208,4.972 5.528,76.396 55.97734,1.5613"
         style="fill:#394f82;fill-opacity:1;fill-rule:evenodd;stroke:none;stroke-width:0.13333333"
         id="path1432" />
      <path
         inkscape:connector-curvature="0"
         d="m 541.58265,1131.3947 -3.812,5.4733 -52.28533,-0.9493 -0.57067,-79.0934 4.19334,-5.0933 h 52.47466 v 79.6627"
         style="fill:#ffffff;fill-opacity:1;fill-rule:evenodd;stroke:none;stroke-width:0.13333333"
         id="path1434" />
      <path
         inkscape:connector-curvature="0"
         d="m 539.80399,1137.948 v -82.9293 h -57.29734 v 82.9293 h 57.29734"
         style="fill:#394f82;fill-opacity:1;fill-rule:evenodd;stroke:none;stroke-width:0.13333333"
         id="path1436" />
      <path
         inkscape:connector-curvature="0"
         d="m 504.09332,1008.3827 c 10.67067,-1.744 22.72,-1.4387 33.40133,0.78 -1.4,7.9213 -8.31866,13.9386 -16.64133,13.9386 -8.59467,0 -15.69067,-6.4146 -16.76,-14.7186"
         style="fill:#e93a3e;fill-opacity:1;fill-rule:evenodd;stroke:none;stroke-width:0.13333333"
         id="path1438" />
      <path
         inkscape:connector-curvature="0"
         d="m 510.77332,967.73868 h 20.46 c 0.0427,0 0.0787,0.036 0.0787,0.08 v 38.83332 c 0,5.648 -4.62134,10.268 -10.27067,10.268 v 0 c -5.64667,0 -10.268,-4.62 -10.268,-10.268 v -38.91332"
         style="fill:#db9d98;fill-opacity:1;fill-rule:evenodd;stroke:none;stroke-width:0.13333333"
         id="path1440" />
      <path
         inkscape:connector-curvature="0"
         d="m 481.57065,915.71602 c -0.70933,11.94666 -3.972,24.89066 -5.064,31.29066 -1.09333,6.4 22.94534,10.92667 22.94534,10.92667 0,0 3.504,-47.056 -17.88134,-42.21733"
         style="fill:#cdaa42;fill-opacity:1;fill-rule:evenodd;stroke:none;stroke-width:0.13333333"
         id="path1442" />
      <path
         inkscape:connector-curvature="0"
         d="m 521.58932,886.85468 c 39.98267,0 42.62267,46.884 34.46933,78.328 -4.12933,15.92934 -22.41466,29.91334 -34.46933,29.91334 -12.396,0 -30.56,-15.38667 -35.53333,-32.524 -8.97467,-30.91734 -3.64134,-75.71734 35.53333,-75.71734"
         style="fill:#f3c3bc;fill-opacity:1;fill-rule:evenodd;stroke:none;stroke-width:0.13333333"
         id="path1444" />
      <path
         inkscape:connector-curvature="0"
         d="m 539.40265,965.38402 c -9.67866,-0.59734 -26.40933,-0.47334 -35.03866,0.14533 5.85466,15.656 30.96933,16.12933 35.03866,-0.14533"
         style="fill:#f4697b;fill-opacity:1;fill-rule:evenodd;stroke:none;stroke-width:0.13333333"
         id="path1446" />
      <path
         inkscape:connector-curvature="0"
         d="m 506.12665,946.14268 c 1.576,0 2.86,-3.212 2.86,-7.15066 0,-3.93867 -1.284,-7.15067 -2.86,-7.15067 -1.576,0 -2.86133,3.212 -2.86133,7.15067 0,3.93866 1.28533,7.15066 2.86133,7.15066"
         style="fill:#46454e;fill-opacity:1;fill-rule:evenodd;stroke:none;stroke-width:0.13333333"
         id="path1448" />
      <path
         inkscape:connector-curvature="0"
         d="m 535.95999,946.14268 c 1.576,0 2.86,-3.212 2.86,-7.15066 0,-3.93867 -1.284,-7.15067 -2.86,-7.15067 -1.576,0 -2.86134,3.212 -2.86134,7.15067 0,3.93866 1.28534,7.15066 2.86134,7.15066"
         style="fill:#46454e;fill-opacity:1;fill-rule:evenodd;stroke:none;stroke-width:0.13333333"
         id="path1450" />
      <path
         inkscape:connector-curvature="0"
         d="m 479.34399,936.15735 c 2.59066,-0.52667 5.568,3.34667 6.648,8.652 1.08,5.30667 -0.14534,10.03467 -2.736,10.56267 -2.592,0.528 -5.568,-3.34534 -6.648,-8.652 -1.08,-5.30534 0.144,-10.03467 2.736,-10.56267"
         style="fill:#f3c3bc;fill-opacity:1;fill-rule:evenodd;stroke:none;stroke-width:0.13333333"
         id="path1452" />
      <path
         inkscape:connector-curvature="0"
         d="m 562.74132,936.15735 c -2.59067,-0.52667 -5.56667,3.34667 -6.648,8.652 -1.08,5.30667 0.14533,10.03467 2.736,10.56267 2.592,0.528 5.568,-3.34534 6.648,-8.652 1.08133,-5.30534 -0.144,-10.03467 -2.736,-10.56267"
         style="fill:#f3c3bc;fill-opacity:1;fill-rule:evenodd;stroke:none;stroke-width:0.13333333"
         id="path1454" />
      <path
         inkscape:connector-curvature="0"
         d="m 538.76532,965.52802 c -9.576,2.30266 -23.972,2.35066 -34,0.21333 7.99867,10.076 25.87333,10.52267 34,-0.21333"
         style="fill:#c38581;fill-opacity:1;fill-rule:evenodd;stroke:none;stroke-width:0.13333333"
         id="path1456" />
      <path
         inkscape:connector-curvature="0"
         d="m 518.29465,958.81602 c 7.124,1.484 10.05067,-2.868 10.09734,-6.51867 1.81733,6.72133 -3.05067,10.356 -10.09734,6.51867"
         style="fill:#c38581;fill-opacity:1;fill-rule:evenodd;stroke:none;stroke-width:0.13333333"
         id="path1458" />
      <path
         inkscape:connector-curvature="0"
         d="m 537.61865,965.78802 c -9.22666,1.97333 -22.29466,2.00666 -31.86,0.15466 4.94,6.62 26.564,6.40534 31.86,-0.15466"
         style="fill:#ffffff;fill-opacity:1;fill-rule:evenodd;stroke:none;stroke-width:0.13333333"
         id="path1460" />
      <path
         inkscape:connector-curvature="0"
         d="m 530.01332,924.95735 c 2.84667,-1.25867 7.45867,-3.60267 13.548,-0.132 2.74267,1.564 2.50267,2.624 -0.476,1.24267 -5.06667,-2.34934 -7.80267,-0.68 -12.31333,1.18933 -1.748,0.724 -2.696,-1.44533 -0.75867,-2.3"
         style="fill:#cdaa42;fill-opacity:1;fill-rule:evenodd;stroke:none;stroke-width:0.13333333"
         id="path1462" />
      <path
         inkscape:connector-curvature="0"
         d="m 511.79465,924.95735 c -2.84666,-1.25867 -7.45866,-3.60267 -13.54666,-0.132 -2.74267,1.564 -2.50267,2.624 0.47466,1.24267 5.06667,-2.34934 7.80267,-0.68 12.31334,1.18933 1.748,0.724 2.696,-1.44533 0.75866,-2.3"
         style="fill:#cdaa42;fill-opacity:1;fill-rule:evenodd;stroke:none;stroke-width:0.13333333"
         id="path1464" />
      <path
         inkscape:connector-curvature="0"
         d="m 485.10132,937.45602 c 1.51067,-19.76 15.46533,-15.06134 24.448,-36.284 3.38933,-8.00934 32.732,-3.23467 38.88133,2.91466 8.4,8.4 9.472,28.59734 9.29334,36.64 -0.17867,8.04267 4.15333,0.55334 4.38,-2.88933 0.26933,-4.07867 3.388,-15.59867 -3.244,-31.308 -8.74,-20.69733 -40.51067,-34.78267 -60.612,-15.96267 -27.28934,9.39734 -14.752,67.88267 -13.14667,46.88934"
         style="fill:#cdaa42;fill-opacity:1;fill-rule:evenodd;stroke:none;stroke-width:0.13333333"
         id="path1466" />
      <path
         inkscape:connector-curvature="0"
         d="m 451.77999,1113.06 c -0.928,-11.0453 18.44266,-14.7067 31.44533,-13.772 12.90933,0.9267 46.63067,-0.2653 47.62667,5.856 1.36,8.3587 -30.92134,11.6053 -45.16667,14.6707 -13.124,2.8253 -33.05333,3.3973 -33.90533,-6.7547"
         style="fill:#e9b1ab;fill-opacity:1;fill-rule:evenodd;stroke:none;stroke-width:0.13333333"
         id="path1468" />
      <path
         inkscape:connector-curvature="0"
         d="m 516.71332,1100.6453 c 4.956,0.3054 12.31333,-6.2813 18.4,-8.788 17.06667,-7.0306 2.06133,3.1 2.88667,3.2574 1.93733,0.372 4.66,0.76 9.048,0.9973 3.14533,0.1693 3.36133,2.252 2.23066,3.1227 -0.788,0.608 -0.73066,1.304 -0.46666,1.596 1.42933,1.584 0.564,3.544 -0.75334,4.0253 -1.05733,0.3867 -1.132,1.2453 -0.508,2.0973 0.73334,0.9987 1.12534,2.3014 0.24534,3.2334 -0.84667,0.896 -3.85067,0.7466 -2.33067,2.0586 1.832,1.58 1.10533,2.7307 0.0693,3.3987 -2.168,1.3973 -19.868,-4.1787 -26.73066,-2.3667 -5.27867,1.3934 -7.12667,-12.944 -2.09067,-12.632"
         style="fill:#e9b1ab;fill-opacity:1;fill-rule:evenodd;stroke:none;stroke-width:0.13333333"
         id="path1470" />
      <path
         inkscape:connector-curvature="0"
         d="m 585.66399,1163.572 c -1.796,11.428 -0.62267,33.0373 -4.468,40.8907 -1.58534,3.2386 -3.31334,8.5346 -6.03867,10.476 -3.88133,2.7653 -8.88,4.348 -10.56133,4.3586 -2.864,0.02 -3.73467,-2.3426 0.252,-4.0613 1.57466,-0.68 3.43466,-1.34 5.73066,-3.5173 3.51067,-3.328 4.508,-10.6187 3.92,-10.8747 -3.88,-1.6907 -7.95333,10.4147 -11.09733,8.9613 -1.472,-0.68 2.00667,-7.9573 2.91467,-11.5853 1.02933,-4.1067 0.45333,-10.7693 3.53333,-14.4253 5.80533,-6.888 3.33333,-16.0894 1.272,-24.3774 -1.96133,-7.8893 16.17867,-6.256 14.54267,4.1547"
         style="fill:#f3c3bc;fill-opacity:1;fill-rule:evenodd;stroke:none;stroke-width:0.13333333"
         id="path1472" />
      <path
         inkscape:connector-curvature="0"
         d="m 451.77999,1113.06 c -0.924,-10.996 18.26933,-14.6733 31.26933,-13.784 0.70667,4.428 0.704,13.5093 0.27333,21.008 -13.024,2.3853 -30.73999,2.3347 -31.54266,-7.224"
         style="fill:#e93a3e;fill-opacity:1;fill-rule:evenodd;stroke:none;stroke-width:0.13333333"
         id="path1474" />
      <path
         inkscape:connector-curvature="0"
         d="m 565.62932,1092.1627 c -1.284,6.6653 -0.264,31.8573 0.80133,39.0613 1.89067,12.8027 6.252,46.0013 12.452,46.0653 8.46667,0.089 8.36534,-32.3013 7.716,-46.8573 -0.47066,-10.5467 -3.89333,-31.604 -5.16933,-36.372 -4.88667,-18.2547 -15.452,-3.708 -15.8,-1.8973"
         style="fill:#f3c3bc;fill-opacity:1;fill-rule:evenodd;stroke:none;stroke-width:0.13333333"
         id="path1476" />
      <path
         inkscape:connector-curvature="0"
         d="m 565.62799,1092.1627 c -0.92267,4.796 -0.65334,19.1853 -0.032,29.5626 4.96666,0.272 12.87333,-0.053 20.152,-0.956 -1.22534,-10.5546 -3.368,-23.156 -4.31867,-26.7093 -4.88533,-18.2547 -15.452,-3.7093 -15.80133,-1.8973"
         style="fill:#e93a3e;fill-opacity:1;fill-rule:evenodd;stroke:none;stroke-width:0.13333333"
         id="path1478" />
      <path
         inkscape:connector-curvature="0"
         d="m 508.61599,1474.8531 c 0.472,5.2537 0.68666,9.8938 -0.37467,12.5068 -2.68267,6.6136 -20.89333,8.1734 -28.84933,16.7734 -7.40934,8.0131 -34.14,7.3198 -36.16133,-2.4666 -0.212,-1.0266 -0.41867,-4.6136 0.288,-5.6667 2.14133,-3.2136 8.53466,-4 15.304,-6.9869 2.86133,-1.2532 9.96133,-7.9866 18.07733,-13.9063 0.148,-0.1204 0.296,-0.2265 0.444,-0.3333 1.68266,-0.067 3.24133,0.2666 4.688,1.0396 3.776,2.0134 3.02133,4.5333 7.30133,5.2801 4.28,0.7599 14.60267,0.5068 16.868,-5.2801 0.83067,-0.2934 1.63333,-0.6267 2.41467,-0.96"
         style="fill:#ffffff;fill-opacity:1;fill-rule:evenodd;stroke:none;stroke-width:0.13333333"
         id="path1480" />
      <path
         inkscape:connector-curvature="0"
         d="m 507.92665,1446.3733 c -2.83066,9.64 2.99734,29.8403 0.31467,36.4398 -2.68267,6.6005 -20.89467,8.1733 -28.84933,16.7733 -7.40934,8 -34.14,7.3204 -36.16133,-2.4796 -0.852,-4.1333 6.59066,-8.6667 15.592,-12.6401 2.86133,-1.2667 11.28533,-6.9735 19.39999,-12.8932 7.81067,-5.6935 14.24,-17.2935 13.99734,-22.0535 -0.67467,-13.2133 19.03066,-14.4667 15.70666,-3.1467"
         style="fill:#f3c3bc;fill-opacity:1;fill-rule:evenodd;stroke:none;stroke-width:0.13333333"
         id="path1482" />
      <path
         inkscape:connector-curvature="0"
         d="m 507.46265,1456.96 c 2.384,7.5867 1.83867,23.24 0.77867,25.8531 -2.68267,6.6005 -20.89467,8.1733 -28.84933,16.7733 -7.40934,8 -33.45733,7.4136 -35.47867,-2.3864 -0.85066,-4.1197 5.468,-8.7599 14.46934,-12.7333 1.72,-0.7599 17.94666,-9.8402 25.65199,-18.9467 1.77467,-2.0933 0.272,-5.88 -0.74533,-7.6933 -1.55333,-2.7734 13.48667,-5.8267 13.84,-1.16 0.0893,1.1866 0.89467,3.1333 0.81333,4.8666 10.128,1.24 8.89467,-2.3866 9.52,-4.5733"
         style="fill:#e93a3e;fill-opacity:1;fill-rule:evenodd;stroke:none;stroke-width:0.13333333"
         id="path1484" />
      <path
         inkscape:connector-curvature="0"
         d="m 498.61065,1461.64 c -1.876,5.6267 -14.972,20.3731 -20.92933,24.8933 -13.524,10.2667 -23.984,1.3198 -19.54266,-1.2536"
         style="fill:none;stroke:#c73032;stroke-width:1.59986663;stroke-linecap:butt;stroke-linejoin:miter;stroke-miterlimit:22.92560005;stroke-dasharray:none;stroke-opacity:1"
         id="path1486" />
      <path
         inkscape:connector-curvature="0"
         d="m 479.20132,1482.2 -4,-8.5869"
         style="fill:none;stroke:#ffffff;stroke-width:2.55986643;stroke-linecap:round;stroke-linejoin:round;stroke-miterlimit:22.92560005;stroke-dasharray:none;stroke-opacity:1"
         id="path1488" />
      <path
         inkscape:connector-curvature="0"
         d="m 483.05599,1477.9333 -4,-8.5734"
         style="fill:none;stroke:#ffffff;stroke-width:2.55986643;stroke-linecap:round;stroke-linejoin:round;stroke-miterlimit:22.92560005;stroke-dasharray:none;stroke-opacity:1"
         id="path1490" />
      <path
         inkscape:connector-curvature="0"
         d="m 486.73065,1474.2531 -3.90533,-7.8264"
         style="fill:none;stroke:#ffffff;stroke-width:2.55986643;stroke-linecap:round;stroke-linejoin:round;stroke-miterlimit:22.92560005;stroke-dasharray:none;stroke-opacity:1"
         id="path1492" />
      <path
         inkscape:connector-curvature="0"
         d="m 470.07332,1477.0932 11.808,1.0401"
         style="fill:none;stroke:#ffffff;stroke-width:2.55986643;stroke-linecap:round;stroke-linejoin:round;stroke-miterlimit:22.92560005;stroke-dasharray:none;stroke-opacity:1"
         id="path1494" />
      <path
         inkscape:connector-curvature="0"
         d="m 474.60665,1473.2531 11.80934,1.0401"
         style="fill:none;stroke:#ffffff;stroke-width:2.55986643;stroke-linecap:round;stroke-linejoin:round;stroke-miterlimit:22.92560005;stroke-dasharray:none;stroke-opacity:1"
         id="path1496" />
      <path
         inkscape:connector-curvature="0"
         d="m 478.45199,1469.6797 12.004,-0.04"
         style="fill:none;stroke:#ffffff;stroke-width:2.55986643;stroke-linecap:round;stroke-linejoin:round;stroke-miterlimit:22.92560005;stroke-dasharray:none;stroke-opacity:1"
         id="path1498" />
      <path
         inkscape:connector-curvature="0"
         d="M 473.76532,1484.6932 469.91332,1477"
         style="fill:none;stroke:#ffffff;stroke-width:2.55986643;stroke-linecap:round;stroke-linejoin:round;stroke-miterlimit:22.92560005;stroke-dasharray:none;stroke-opacity:1"
         id="path1500" />
      <path
         inkscape:connector-curvature="0"
         d="m 465.22532,1480.7599 13.13067,1.6401"
         style="fill:none;stroke:#ffffff;stroke-width:2.55986643;stroke-linecap:round;stroke-linejoin:round;stroke-miterlimit:22.92560005;stroke-dasharray:none;stroke-opacity:1"
         id="path1502" />
      <path
         inkscape:connector-curvature="0"
         d="m 459.37599,1483.7864 14.788,1.4401"
         style="fill:none;stroke:#ffffff;stroke-width:2.55986643;stroke-linecap:round;stroke-linejoin:round;stroke-miterlimit:22.92560005;stroke-dasharray:none;stroke-opacity:1"
         id="path1504" />
      <path
         inkscape:connector-curvature="0"
         d="m 468.20932,1488.7864 -3.072,-7.9864"
         style="fill:none;stroke:#ffffff;stroke-width:2.55986643;stroke-linecap:round;stroke-linejoin:round;stroke-miterlimit:22.92560005;stroke-dasharray:none;stroke-opacity:1"
         id="path1506" />
      <path
         inkscape:connector-curvature="0"
         d="m 460.98532,1505.0667 c -9.45066,1.1197 -18.44666,-0.4932 -17.75466,-7.9599 0.19466,-2.1068 1.22533,-4.2401 4.11066,-6.3871 0.10934,0 0.22,0 0.33067,0 7.24533,0 13.14133,6.3871 13.31333,14.347"
         style="fill:#ffffff;fill-opacity:1;fill-rule:evenodd;stroke:none;stroke-width:0.13333333"
         id="path1508" />
      <path
         inkscape:connector-curvature="0"
         d="m 509.19332,1466.96 c 1.224,6.9332 0.26133,15.9468 -0.456,17.7197 -0.80667,1.987 -3.416,3.7339 -6.444,3.0536 4.89333,-4.4136 6.51867,-16.1598 6.9,-20.7733"
         style="fill:#ffffff;fill-opacity:1;fill-rule:evenodd;stroke:none;stroke-width:0.13333333"
         id="path1510" />
      <path
         inkscape:connector-curvature="0"
         d="m 534.85199,1474.8531 c -0.472,5.2537 -0.68667,9.8938 0.37466,12.5068 2.68267,6.6136 20.89334,8.1734 28.84934,16.7734 7.408,8.0131 34.13866,7.3198 36.16133,-2.4666 0.21066,-1.0266 0.41733,-4.6136 -0.28933,-5.6667 -2.14134,-3.2136 -8.53467,-4 -15.30267,-6.9869 -2.86267,-1.2532 -9.96267,-7.9866 -18.07733,-13.9063 -0.14934,-0.1204 -0.29734,-0.2265 -0.44534,-0.3333 -1.68266,-0.067 -3.24,0.2666 -4.68666,1.0396 -3.77734,2.0134 -3.02134,4.5333 -7.30134,5.2801 -4.28,0.7599 -14.604,0.5068 -16.86933,-5.2801 -0.83067,-0.2934 -1.63333,-0.6267 -2.41333,-0.96"
         style="fill:#ffffff;fill-opacity:1;fill-rule:evenodd;stroke:none;stroke-width:0.13333333"
         id="path1512" />
      <path
         inkscape:connector-curvature="0"
         d="m 535.54132,1446.3733 c 2.83067,9.64 -2.99733,29.8403 -0.31467,36.4398 2.68267,6.6005 20.89334,8.1733 28.84934,16.7733 7.408,8 34.13866,7.3204 36.16133,-2.4796 0.85066,-4.1333 -6.59067,-8.6667 -15.592,-12.6401 -2.86133,-1.2667 -11.28533,-6.9735 -19.4,-12.8932 -7.81067,-5.6935 -14.24,-17.2935 -13.99733,-22.0535 0.67466,-13.2133 -19.032,-14.4667 -15.70667,-3.1467"
         style="fill:#f3c3bc;fill-opacity:1;fill-rule:evenodd;stroke:none;stroke-width:0.13333333"
         id="path1514" />
      <path
         inkscape:connector-curvature="0"
         d="m 536.00532,1456.96 c -2.384,7.5867 -1.84,23.24 -0.77867,25.8531 2.68134,6.6005 20.89334,8.1733 28.84934,16.7733 7.408,8 33.45733,7.4136 35.47733,-2.3864 0.852,-4.1197 -5.46667,-8.7599 -14.468,-12.7333 -1.804,-0.8 -19.55467,-10.747 -26.70933,-20.2667 -1.24267,-1.6533 0.87733,-6.6133 1.32,-8.2 0.88533,-3.1467 -13.72534,-3.64 -14.66,0.3867 -0.26667,1.1466 -0.64267,3.36 0.488,5.1466 -10.12667,1.24 -8.89334,-2.3866 -9.51867,-4.5733"
         style="fill:#e93a3e;fill-opacity:1;fill-rule:evenodd;stroke:none;stroke-width:0.13333333"
         id="path1516" />
      <path
         inkscape:connector-curvature="0"
         d="m 544.85732,1461.64 c 1.876,5.6267 14.97067,20.3731 20.928,24.8933 13.52533,10.2667 23.984,1.3198 19.54267,-1.2536"
         style="fill:none;stroke:#c73032;stroke-width:1.59986663;stroke-linecap:butt;stroke-linejoin:miter;stroke-miterlimit:22.92560005;stroke-dasharray:none;stroke-opacity:1"
         id="path1518" />
      <path
         inkscape:connector-curvature="0"
         d="m 564.26665,1482.2 3.99867,-8.5869"
         style="fill:none;stroke:#ffffff;stroke-width:2.55986643;stroke-linecap:round;stroke-linejoin:round;stroke-miterlimit:22.92560005;stroke-dasharray:none;stroke-opacity:1"
         id="path1520" />
      <path
         inkscape:connector-curvature="0"
         d="m 560.41199,1477.9333 4,-8.5734"
         style="fill:none;stroke:#ffffff;stroke-width:2.55986643;stroke-linecap:round;stroke-linejoin:round;stroke-miterlimit:22.92560005;stroke-dasharray:none;stroke-opacity:1"
         id="path1522" />
      <path
         inkscape:connector-curvature="0"
         d="m 556.73732,1474.2531 3.90533,-7.8264"
         style="fill:none;stroke:#ffffff;stroke-width:2.55986643;stroke-linecap:round;stroke-linejoin:round;stroke-miterlimit:22.92560005;stroke-dasharray:none;stroke-opacity:1"
         id="path1524" />
      <path
         inkscape:connector-curvature="0"
         d="m 573.39465,1477.0932 -11.808,1.0401"
         style="fill:none;stroke:#ffffff;stroke-width:2.55986643;stroke-linecap:round;stroke-linejoin:round;stroke-miterlimit:22.92560005;stroke-dasharray:none;stroke-opacity:1"
         id="path1526" />
      <path
         inkscape:connector-curvature="0"
         d="m 568.85999,1473.2531 -11.808,1.0401"
         style="fill:none;stroke:#ffffff;stroke-width:2.55986643;stroke-linecap:round;stroke-linejoin:round;stroke-miterlimit:22.92560005;stroke-dasharray:none;stroke-opacity:1"
         id="path1528" />
      <path
         inkscape:connector-curvature="0"
         d="m 565.01465,1469.6797 -12.00266,-0.04"
         style="fill:none;stroke:#ffffff;stroke-width:2.55986643;stroke-linecap:round;stroke-linejoin:round;stroke-miterlimit:22.92560005;stroke-dasharray:none;stroke-opacity:1"
         id="path1530" />
      <path
         inkscape:connector-curvature="0"
         d="m 569.70132,1484.6932 3.852,-7.6932"
         style="fill:none;stroke:#ffffff;stroke-width:2.55986643;stroke-linecap:round;stroke-linejoin:round;stroke-miterlimit:22.92560005;stroke-dasharray:none;stroke-opacity:1"
         id="path1532" />
      <path
         inkscape:connector-curvature="0"
         d="M 578.24265,1480.7599 565.11199,1482.4"
         style="fill:none;stroke:#ffffff;stroke-width:2.55986643;stroke-linecap:round;stroke-linejoin:round;stroke-miterlimit:22.92560005;stroke-dasharray:none;stroke-opacity:1"
         id="path1534" />
      <path
         inkscape:connector-curvature="0"
         d="m 584.09065,1483.7864 -14.78666,1.4401"
         style="fill:none;stroke:#ffffff;stroke-width:2.55986643;stroke-linecap:round;stroke-linejoin:round;stroke-miterlimit:22.92560005;stroke-dasharray:none;stroke-opacity:1"
         id="path1536" />
      <path
         inkscape:connector-curvature="0"
         d="m 575.25865,1488.7864 3.072,-7.9864"
         style="fill:none;stroke:#ffffff;stroke-width:2.55986643;stroke-linecap:round;stroke-linejoin:round;stroke-miterlimit:22.92560005;stroke-dasharray:none;stroke-opacity:1"
         id="path1538" />
      <path
         inkscape:connector-curvature="0"
         d="m 582.48132,1505.0667 c 9.452,1.1197 18.44666,-0.4932 17.756,-7.9599 -0.19467,-2.1068 -1.22667,-4.2401 -4.11067,-6.3871 -0.11066,0 -0.22,0 -0.33066,0 -7.24667,0 -13.14134,6.3871 -13.31467,14.347"
         style="fill:#ffffff;fill-opacity:1;fill-rule:evenodd;stroke:none;stroke-width:0.13333333"
         id="path1540" />
      <path
         inkscape:connector-curvature="0"
         d="m 534.27332,1466.96 c -1.22267,6.9332 -0.26,15.9468 0.456,17.7197 0.80667,1.987 3.416,3.7339 6.444,3.0536 -4.89333,-4.4136 -6.51867,-16.1598 -6.9,-20.7733"
         style="fill:#ffffff;fill-opacity:1;fill-rule:evenodd;stroke:none;stroke-width:0.13333333"
         id="path1542" />
      <path
         inkscape:connector-curvature="0"
         d="m 486.70665,1323.684 c 0.876,12.0893 1.32134,31.6893 1.86667,52.6493 8.728,2.1067 17.93467,2.0667 27.58933,0 0.58534,-9.7333 0.91467,-17.84 1.05467,-22.7333 0.37467,-13.1867 -3.476,-50.412 -3.02,-59.3067 2.636,-51.2506 -34.112,-62.1053 -27.49067,29.3907"
         style="fill:#424959;fill-opacity:1;fill-rule:evenodd;stroke:none;stroke-width:0.13333333"
         id="path1544" />
      <path
         inkscape:connector-curvature="0"
         d="m 556.07999,1323.684 c -0.87467,12.0893 -1.32134,31.6893 -1.86667,52.6493 -9.196,2.68 -18.392,2.4134 -27.58933,0 -0.58534,-9.7333 -0.75734,-17.8533 -1.05467,-22.7333 -1.21867,-20.0933 4.832,-52.3907 3.12667,-59.7307 -11.74,-50.5133 34.04933,-62.2826 27.384,29.8147"
         style="fill:#424959;fill-opacity:1;fill-rule:evenodd;stroke:none;stroke-width:0.13333333"
         id="path1546" />
      <path
         inkscape:connector-curvature="0"
         d="m 560.47865,949.74535 c -13.776,-1.19733 -51.21466,-33.60267 -60.79866,-51.572 32.13466,-25.84267 73.79333,-1.636 60.79866,51.572"
         style="fill:#cdaa42;fill-opacity:1;fill-rule:evenodd;stroke:none;stroke-width:0.13333333"
         id="path1548" />
      <path
         inkscape:connector-curvature="0"
         d="m 552.24532,946.07068 c 6.77733,3.388 6.6,24.74134 -9.51067,39.29334 -7.124,6.43333 -3.592,8.64533 7.408,4.16 11.00134,-4.48534 27.94267,-14.90534 22.71467,-27.74934 -5.228,-12.844 -8.332,-31.996 -11.108,-44.22933 -2.776,-12.23333 -20.79733,8.196 -9.504,28.52533"
         style="fill:#cdaa42;fill-opacity:1;fill-rule:evenodd;stroke:none;stroke-width:0.13333333"
         id="path1550" />
      <path
         inkscape:connector-curvature="0"
         d="m 564.47065,934.72402 c -10.63333,12.12533 -49.044,-12.13467 -64.524,-40.56267 14.39734,12.95867 41.66267,35.632 64.524,40.56267"
         style="fill:#d9b754;fill-opacity:1;fill-rule:evenodd;stroke:none;stroke-width:0.13333333"
         id="path1552" />
      <path
         inkscape:connector-curvature="0"
         d="m 553.58399,913.37335 c -5.33867,10.37733 -36.56,0.084 -52.416,-17.15867 12.38133,6.572 35.5,17.708 52.416,17.15867"
         style="fill:#d9b754;fill-opacity:1;fill-rule:evenodd;stroke:none;stroke-width:0.13333333"
         id="path1554" />
      <path
         inkscape:connector-curvature="0"
         d="m 483.96532,928.45335 c -5.628,-4.576 3.51333,-29.79867 18.26933,-32.75733 -8.94,9.76533 -16.436,22.39866 -18.26933,32.75733"
         style="fill:#d9b754;fill-opacity:1;fill-rule:evenodd;stroke:none;stroke-width:0.13333333"
         id="path1556" />
      <path
         inkscape:connector-curvature="0"
         d="m 544.96132,896.41335 c -2.64,-10.052 -35.76,-15.85067 -43.708,-1.66 14.82133,-6.352 34.21333,-2.87067 43.708,1.66"
         style="fill:#d9b754;fill-opacity:1;fill-rule:evenodd;stroke:none;stroke-width:0.13333333"
         id="path1558" />
      <path
         inkscape:connector-curvature="0"
         d="m 572.34265,1174.1147 c 4.51067,1.9626 8.47067,3.072 13.776,2.2333"
         style="fill:none;stroke:#66ccd6;stroke-width:2.55986643;stroke-linecap:round;stroke-linejoin:round;stroke-miterlimit:22.92560005;stroke-dasharray:none;stroke-opacity:1"
         id="path1560" />
      <path
         inkscape:connector-curvature="0"
         d="m 582.73865,1176.6307 c 0.73067,-1.5187 2.50934,-2.1667 3.38,-0.2827"
         style="fill:none;stroke:#66ccd6;stroke-width:2.55986643;stroke-linecap:round;stroke-linejoin:round;stroke-miterlimit:22.92560005;stroke-dasharray:none;stroke-opacity:1"
         id="path1562" />
      <path
         inkscape:connector-curvature="0"
         d="m 586.11865,1176.348 c 1.836,4.7667 -0.39066,6.5333 0.87067,9.588"
         style="fill:none;stroke:#66ccd6;stroke-width:2.55986643;stroke-linecap:round;stroke-linejoin:round;stroke-miterlimit:22.92560005;stroke-dasharray:none;stroke-opacity:1"
         id="path1564" />
      <path
         inkscape:connector-curvature="0"
         d="m 585.21065,1171.7467 c -4.85733,0.7746 -8.96933,0.86 -13.89733,-1.2774"
         style="fill:none;stroke:#5278ab;stroke-width:2.55986643;stroke-linecap:round;stroke-linejoin:round;stroke-miterlimit:22.92560005;stroke-dasharray:none;stroke-opacity:1"
         id="path1566" />
      <path
         inkscape:connector-curvature="0"
         d="m 574.51465,1171.5867 c -0.32666,-1.6534 -1.888,-2.724 -3.20133,-1.1174"
         style="fill:none;stroke:#5278ab;stroke-width:2.55986643;stroke-linecap:round;stroke-linejoin:round;stroke-miterlimit:22.92560005;stroke-dasharray:none;stroke-opacity:1"
         id="path1568" />
      <path
         inkscape:connector-curvature="0"
         d="m 571.31332,1170.4693 c -2.968,4.1574 -1.25333,6.424 -3.23733,9.0667"
         style="fill:none;stroke:#5278ab;stroke-width:2.55986643;stroke-linecap:round;stroke-linejoin:round;stroke-miterlimit:22.92560005;stroke-dasharray:none;stroke-opacity:1"
         id="path1570" />
    </g>
  </g>
</svg>
