<?xml version="1.0" encoding="UTF-8" standalone="no"?>
<!-- Created with Inkscape (http://www.inkscape.org/) -->

<svg
   xmlns:dc="http://purl.org/dc/elements/1.1/"
   xmlns:cc="http://creativecommons.org/ns#"
   xmlns:rdf="http://www.w3.org/1999/02/22-rdf-syntax-ns#"
   xmlns:svg="http://www.w3.org/2000/svg"
   xmlns="http://www.w3.org/2000/svg"
   xmlns:sodipodi="http://sodipodi.sourceforge.net/DTD/sodipodi-0.dtd"
   xmlns:inkscape="http://www.inkscape.org/namespaces/inkscape"
   width="15.772271mm"
   height="52.916664mm"
   viewBox="0 0 15.772271 52.916664"
   version="1.1"
   id="svg8837"
   inkscape:version="0.92.3 (2405546, 2018-03-11)"
   sodipodi:docname="6.svg">
  <defs
     id="defs8831" />
  <sodipodi:namedview
     id="base"
     pagecolor="#ffffff"
     bordercolor="#666666"
     borderopacity="1.0"
     inkscape:pageopacity="0.0"
     inkscape:pageshadow="2"
     inkscape:zoom="0.35"
     inkscape:cx="279.63069"
     inkscape:cy="348.55104"
     inkscape:document-units="mm"
     inkscape:current-layer="layer1"
     showgrid="false"
     fit-margin-top="0"
     fit-margin-left="0"
     fit-margin-right="0"
     fit-margin-bottom="0"
     inkscape:window-width="1613"
     inkscape:window-height="995"
     inkscape:window-x="67"
     inkscape:window-y="27"
     inkscape:window-maximized="1" />
  <metadata
     id="metadata8834">
    <rdf:RDF>
      <cc:Work
         rdf:about="">
        <dc:format>image/svg+xml</dc:format>
        <dc:type
           rdf:resource="http://purl.org/dc/dcmitype/StillImage" />
        <dc:title></dc:title>
      </cc:Work>
    </rdf:RDF>
  </metadata>
  <g
     inkscape:label="Layer 1"
     inkscape:groupmode="layer"
     id="layer1"
     transform="translate(95.152286,-188.13746)">
    <g
       transform="matrix(0.07915368,0,0,0.07915368,-151.29008,119.76958)"
       id="g8678">
      <path
         inkscape:connector-curvature="0"
         d="m 803.63198,1532.2667 c 51.99733,0 94.40666,-14.4667 94.40666,-32.2 0,-17.747 -42.40933,-32.2134 -94.40666,-32.2134 -51.99733,0 -94.40666,14.4664 -94.40666,32.2134 0,17.7333 42.40933,32.2 94.40666,32.2"
         style="fill:#447186;fill-opacity:1;fill-rule:evenodd;stroke:none;stroke-width:0.13333333"
         id="path442" />
      <path
         inkscape:connector-curvature="0"
         d="m 764.75598,1332.4907 c 2.84933,36.2426 -1,154.229 15.27733,136.1224 12.208,-13.5731 12.55067,-85.0664 14.63334,-104.2398 6.65733,-61.308 -38.16534,-136.828 -29.91067,-31.8826"
         style="fill:#f3c3bc;fill-opacity:1;fill-rule:evenodd;stroke:none;stroke-width:0.13333333"
         id="path444" />
      <path
         inkscape:connector-curvature="0"
         d="m 836.79065,1332.4907 c -2.84934,36.2426 1,154.229 -15.27734,136.1224 -12.20666,-13.5731 -13.94133,-85.9998 -16.02266,-105.1731 -6.65734,-61.3013 39.55466,-135.8947 31.3,-30.9493"
         style="fill:#f3c3bc;fill-opacity:1;fill-rule:evenodd;stroke:none;stroke-width:0.13333333"
         id="path446" />
      <path
         inkscape:connector-curvature="0"
         d="m 812.88931,1485.4932 c 0,2.4265 0,6.2 0.54,8.0932 0.53867,1.8803 8.924,4.8537 11.62,5.6537 2.696,0.813 3.064,-1.4401 3.064,-1.4401 8.74667,2.7735 12.30534,7.6401 16.62,10.0667 4.31467,2.4265 9.968,5.3598 19.624,5.9333 9.11867,0.5599 20.20133,-4.4803 19.46133,-9.4667 -0.216,-1.453 -0.0187,-2.3333 -0.66666,-3.5068 0.004,0.2667 0.212,0.747 -0.0573,0.8 -8.43466,1.6803 -25.63199,4.4136 -33.79066,-4.4129 -8.76267,-9.4667 -27.51333,-5.2005 -30.468,-12.4803 -0.20667,-0.5068 -4.78133,0.2798 -4.90667,-0.3734 -0.452,0.3198 -0.80533,0.6932 -1.04,1.1333"
         style="fill:#2d303d;fill-opacity:1;fill-rule:evenodd;stroke:none;stroke-width:0.13333333"
         id="path448" />
      <path
         inkscape:connector-curvature="0"
         d="m 813.59331,1446.6267 c 3.11734,10.6133 -2.90666,32.1998 0.048,39.4801 2.95467,7.2667 18.82534,8.1599 28.42534,16.1599 12.99333,10.8401 38.89866,10.0666 40.81333,-0.8531 0.77066,-4.4005 -5.59067,-11.9469 -14.44134,-12.7605 -3.54666,-0.3198 -19.03066,-17.1062 -24.69866,-23.5464 -5.716,-6.48 -7.528,-12.7734 -6.85467,-18.0267 1.66534,-12.9867 -26.956,-12.92 -23.292,-0.4533"
         style="fill:#424959;fill-opacity:1;fill-rule:evenodd;stroke:none;stroke-width:0.13333333"
         id="path450" />
      <path
         inkscape:connector-curvature="0"
         d="m 816.06398,1429.92 c 0.70533,11.6533 3.88267,50.48 7.05867,62.1201"
         style="fill:none;stroke:#4c5666;stroke-width:1.59986663;stroke-linecap:round;stroke-linejoin:round;stroke-miterlimit:22.92560005;stroke-dasharray:none;stroke-opacity:1"
         id="path452" />
      <path
         inkscape:connector-curvature="0"
         d="m 819.59598,1431.5467 c 0.70533,11.6533 3.88267,50.4798 7.05867,62.12"
         style="fill:none;stroke:#4c5666;stroke-width:1.59986663;stroke-linecap:round;stroke-linejoin:round;stroke-miterlimit:22.92560005;stroke-dasharray:none;stroke-opacity:1"
         id="path454" />
      <path
         inkscape:connector-curvature="0"
         d="m 876.83731,1096.4173 c 6.85333,-14.1293 13.69333,-22.1186 18.95733,-24.788 2.90934,-1.4733 5.57467,-1.5706 7.83467,-0.392 2.16667,1.1307 3.68533,3.344 4.4,6.5414 1.44533,6.46 -0.408,18.24 -7.37867,34.0253 l -5.84933,-2.5747 c 6.38533,-14.46 8.18933,-24.7733 7.004,-30.0746 -0.284,-1.2654 -0.67067,-2.0294 -1.12667,-2.268 -0.36266,-0.1894 -1.04133,-0.048 -2.008,0.4426 -4.15866,2.108 -9.892,9.1 -16.08266,21.8627 l -5.75067,-2.7747"
         style="fill:#cdaa42;fill-opacity:1;fill-rule:nonzero;stroke:none;stroke-width:0.13333333"
         id="path456" />
      <path
         inkscape:connector-curvature="0"
         d="m 825.72531,1103.996 17.50534,101.9573 c 0.55733,3.252 21.08133,3.6214 24.24266,2.6747 l 27.652,-8.288 c 3.16133,-0.9467 8.96667,-4.2213 9.46133,-7.4827 4.38667,-28.9373 -11.668,-48.924 -3.80533,-63.6586 11.22933,-21.0454 -6.152,-40.3334 -16.55333,-47.488 -11.96534,-8.2294 -61.128,6.9973 -58.50267,22.2853"
         style="fill:#b99837;fill-opacity:1;fill-rule:evenodd;stroke:none;stroke-width:0.13333333"
         id="path458" />
      <path
         inkscape:connector-curvature="0"
         d="m 750.17865,1190.04 c -0.38534,92.976 14.956,137.232 30.636,137.232 15.67866,0 17.904,-87.056 15.76666,-119.2293 -6.52933,-98.2587 -46.07866,-96.0254 -46.40266,-18.0027"
         style="fill:#f3c3bc;fill-opacity:1;fill-rule:evenodd;stroke:none;stroke-width:0.13333333"
         id="path460" />
      <path
         inkscape:connector-curvature="0"
         d="m 850.99331,1192.2933 c -0.012,90.368 -14.58133,134.9787 -30.26133,134.9787 -15.67867,0 -17.90267,-87.056 -15.76667,-119.2293 6.52934,-98.2574 46.03734,-93.772 46.028,-15.7494"
         style="fill:#f3c3bc;fill-opacity:1;fill-rule:evenodd;stroke:none;stroke-width:0.13333333"
         id="path462" />
      <path
         inkscape:connector-curvature="0"
         d="m 813.16265,992.07868 13.37333,14.83862 -19.052,10.076 -6.77867,-17.22128 12.45734,-7.69334"
         style="fill:#e93a3e;fill-opacity:1;fill-rule:evenodd;stroke:none;stroke-width:0.13333333"
         id="path464" />
      <path
         inkscape:connector-curvature="0"
         d="m 786.96531,992.07868 -13.37333,14.83862 19.05333,10.076 6.77734,-17.22128 -12.45734,-7.69334"
         style="fill:#e93a3e;fill-opacity:1;fill-rule:evenodd;stroke:none;stroke-width:0.13333333"
         id="path466" />
      <path
         inkscape:connector-curvature="0"
         d="m 800.21865,1217.0253 c -44.512,0 -55.25867,-44.344 -42.07734,-78.6746 8.508,-22.1574 -10.54533,-68.1467 -20.75066,-99.2507 -15.75067,-47.99732 140.93733,-44.72532 126.78533,-1.596 -10.20667,31.104 -29.66267,78.6907 -21.156,100.8467 14.29867,37.2386 6.39733,78.6746 -42.80133,78.6746"
         style="fill:#e9b1ab;fill-opacity:1;fill-rule:evenodd;stroke:none;stroke-width:0.13333333"
         id="path468" />
      <path
         inkscape:connector-curvature="0"
         d="m 793.15598,1485.4932 c 0,2.4265 0,6.2 -0.54,8.0932 -0.54,1.8803 -8.924,4.8537 -11.62,5.6537 -2.696,0.813 -3.064,-1.4401 -3.064,-1.4401 -8.74667,2.7735 -12.30667,7.6401 -16.62,10.0667 -4.31467,2.4265 -9.968,5.3598 -19.62533,5.9333 -9.11733,0.5599 -20.56267,-4.4932 -19.82267,-9.4803 0.21467,-1.453 0.0173,-2.3333 0.66667,-3.5066 -0.004,0.2672 -0.212,0.7604 0.0573,0.8134 8.43334,1.6803 25.99333,4.4136 34.15333,-4.4129 8.76134,-9.4667 27.51334,-5.2005 30.46667,-12.4803 0.208,-0.5068 4.78133,0.2798 4.90667,-0.3734 0.452,0.3198 0.80533,0.6932 1.04133,1.1333"
         style="fill:#2d303d;fill-opacity:1;fill-rule:evenodd;stroke:none;stroke-width:0.13333333"
         id="path470" />
      <path
         inkscape:connector-curvature="0"
         d="m 792.45198,1446.6267 c -3.11733,10.6133 2.90667,32.1998 -0.048,39.4801 -2.95467,7.2667 -18.82667,8.1599 -28.42667,16.1599 -12.99333,10.8401 -39.92133,10.2666 -41.83599,-0.6402 -0.77067,-4.4 7.984,-12.9734 15.46399,-12.9734 3.60534,0 19.03067,-17.1062 24.7,-23.5464 5.716,-6.48 7.528,-12.7734 6.85334,-18.0267 -1.66534,-12.9867 26.95733,-12.92 23.29333,-0.4533"
         style="fill:#424959;fill-opacity:1;fill-rule:evenodd;stroke:none;stroke-width:0.13333333"
         id="path472" />
      <path
         inkscape:connector-curvature="0"
         d="m 789.98131,1429.92 c -0.70666,11.6533 -3.88266,50.48 -7.06,62.1201"
         style="fill:none;stroke:#4c5666;stroke-width:1.59986663;stroke-linecap:round;stroke-linejoin:round;stroke-miterlimit:22.92560005;stroke-dasharray:none;stroke-opacity:1"
         id="path474" />
      <path
         inkscape:connector-curvature="0"
         d="m 786.44931,1431.5467 c -0.70666,11.6533 -3.88266,50.4798 -7.06,62.12"
         style="fill:none;stroke:#4c5666;stroke-width:1.59986663;stroke-linecap:round;stroke-linejoin:round;stroke-miterlimit:22.92560005;stroke-dasharray:none;stroke-opacity:1"
         id="path476" />
      <path
         inkscape:connector-curvature="0"
         d="m 762.45465,1502.2 c -1.25734,-7.8536 -2.39334,-17.1469 0.43466,-24.0667 2.828,-6.9068 -5.64933,-8.2136 -8.792,-3.1869"
         style="fill:none;stroke:#4c5666;stroke-width:1.59986663;stroke-linecap:round;stroke-linejoin:round;stroke-miterlimit:22.92560005;stroke-dasharray:none;stroke-opacity:1"
         id="path478" />
      <path
         inkscape:connector-curvature="0"
         d="m 749.88131,1171.248 c -0.40666,19.9693 -1.84,52.928 1.22267,93.732 3.064,40.804 9.78267,61.2533 10.82,92.22 0.28133,8.3867 4.08267,74.6667 4.16,87.6667 9.94,2.76 15.70667,3.2533 25.64533,0.7466 0.86,-8.0266 1.50934,-8.56 3.232,-29.7866 1.72134,-21.24 4.96,-57.7467 1.844,-82.5267 -2.18133,-17.3467 3.24,-47.0107 4.696,-100.4627 1.19467,46.5307 7.17867,69.2614 3.01067,103.0427 -3.32133,26.92 -0.196,51.4933 2.172,78.44 2.36667,26.9467 5.196,33.8933 5.196,33.8933 10.888,1.7067 18.84,1.1734 29.72933,-2.3733 -0.316,-38.3733 -2.18933,-48.4267 -0.89066,-91.7467 1.03866,-34.6866 1.51733,-40.6413 7.68666,-85.5373 6.168,-44.896 1.62934,-77.3387 1.22267,-97.308 -13.52933,-15.6933 -86.21733,-15.6933 -99.74667,0"
         style="fill:#394f82;fill-opacity:1;fill-rule:evenodd;stroke:none;stroke-width:0.13333333"
         id="path480" />
      <path
         inkscape:connector-curvature="0"
         d="m 801.93865,1233.4267 c 6.03066,25.5133 12.06133,74.2173 9.27733,99.2666 -2.78267,25.0534 5.10267,98.8 5.10267,114.1067"
         style="fill:none;stroke:#313a65;stroke-width:3.20013309;stroke-linecap:butt;stroke-linejoin:miter;stroke-miterlimit:22.92560005;stroke-dasharray:none;stroke-opacity:1"
         id="path482" />
      <path
         inkscape:connector-curvature="0"
         d="m 729.21598,1064.2027 c -4.93866,34.4386 -8.26133,63.6573 2.236,65.9946 10.49867,2.3387 18.12133,-30.3866 26.00933,-57.4493 23.276,-79.86932 -18.48266,-76.59465 -28.24533,-8.5453"
         style="fill:#f3c3bc;fill-opacity:1;fill-rule:evenodd;stroke:none;stroke-width:0.13333333"
         id="path484" />
      <path
         inkscape:connector-curvature="0"
         d="m 719.62398,1154.816 c -0.516,23.8307 -0.62933,61.948 6.73067,60.8587 6.39333,-0.9454 11.036,-40.9974 13.89733,-59.5907 11.92667,-77.5093 -19.372,-59.4133 -20.628,-1.268"
         style="fill:#f3c3bc;fill-opacity:1;fill-rule:evenodd;stroke:none;stroke-width:0.13333333"
         id="path486" />
      <path
         inkscape:connector-curvature="0"
         d="m 881.37464,1056.092 c 13.36134,32.4347 21.44534,62.0707 11.80667,66.5773 -9.63867,4.508 -23.288,-23.976 -38.12533,-48.428 -43.792,-72.1626 -1.588,-85.88662 26.31866,-18.1493"
         style="fill:#f3c3bc;fill-opacity:1;fill-rule:evenodd;stroke:none;stroke-width:0.13333333"
         id="path488" />
      <path
         inkscape:connector-curvature="0"
         d="m 786.77731,960.57868 h 26.78134 v 51.90402 c 0,7.364 -6.02667,13.3906 -13.39067,13.3906 h -10e-4 c -7.364,0 -13.38934,-6.0266 -13.38934,-13.3906 v -51.90402"
         style="fill:#e9b1ab;fill-opacity:1;fill-rule:evenodd;stroke:none;stroke-width:0.13333333"
         id="path490" />
      <path
         inkscape:connector-curvature="0"
         d="m 800.42798,876.68268 c 42.12667,-0.27066 45.37733,49.21067 37.00933,81.48667 -4.23866,16.34933 -24.63466,29.62133 -37.00933,29.62133 -12.724,0 -32.45467,-12.54 -37.56,-30.13066 -9.20933,-31.73467 -2.65067,-80.71867 37.56,-80.97734"
         style="fill:#f3c3bc;fill-opacity:1;fill-rule:evenodd;stroke:none;stroke-width:0.13333333"
         id="path492" />
      <path
         inkscape:connector-curvature="0"
         d="m 783.77598,942.35868 c 1.656,0 3.00533,-3.376 3.00533,-7.516 0,-4.13866 -1.34933,-7.51466 -3.00533,-7.51466 -1.656,0 -3.00667,3.376 -3.00667,7.51466 0,4.14 1.35067,7.516 3.00667,7.516"
         style="fill:#46454e;fill-opacity:1;fill-rule:evenodd;stroke:none;stroke-width:0.13333333"
         id="path494" />
      <path
         inkscape:connector-curvature="0"
         d="m 815.13065,942.35868 c 1.656,0 3.00666,-3.376 3.00666,-7.516 0,-4.13866 -1.35066,-7.51466 -3.00666,-7.51466 -1.656,0 -3.00667,3.376 -3.00667,7.51466 0,4.14 1.35067,7.516 3.00667,7.516"
         style="fill:#46454e;fill-opacity:1;fill-rule:evenodd;stroke:none;stroke-width:0.13333333"
         id="path496" />
      <path
         inkscape:connector-curvature="0"
         d="m 820.13865,956.34802 c -9.25467,4.63866 -23.97867,8.11733 -34.75334,8.31866 9.01867,3.35067 27.348,-0.71333 34.75334,-8.31866"
         style="fill:#c38581;fill-opacity:1;fill-rule:evenodd;stroke:none;stroke-width:0.13333333"
         id="path498" />
      <path
         inkscape:connector-curvature="0"
         d="m 796.56398,953.99735 c 7.488,1.56 10.56267,-3.01467 10.61333,-6.85067 1.90934,7.064 -3.20666,10.884 -10.61333,6.85067"
         style="fill:#c38581;fill-opacity:1;fill-rule:evenodd;stroke:none;stroke-width:0.13333333"
         id="path500" />
      <path
         inkscape:connector-curvature="0"
         d="m 808.87998,921.80535 c 2.992,-1.32267 8.26267,-2.83467 14.45067,-0.45467 3.096,1.19067 2.528,2.80934 -0.712,1.62134 -5.00667,-1.83467 -8.2,-0.71467 -12.94134,1.25066 -1.836,0.76134 -2.832,-1.51733 -0.79733,-2.41733"
         style="fill:#cf8c47;fill-opacity:1;fill-rule:evenodd;stroke:none;stroke-width:0.13333333"
         id="path502" />
      <path
         inkscape:connector-curvature="0"
         d="m 813.12398,965.75868 c -4.61067,2.312 -11.94667,4.04534 -17.31467,4.14534 5.11734,3.17066 14.308,1.288 17.31467,-4.14534"
         style="fill:#c38581;fill-opacity:1;fill-rule:evenodd;stroke:none;stroke-width:0.13333333"
         id="path504" />
      <path
         inkscape:connector-curvature="0"
         d="m 789.63331,916.97602 c -2.992,-1.32267 -8.26266,-2.83467 -14.45066,-0.45467 -3.096,1.19067 -2.52934,2.80933 0.71066,1.62133 5.008,-1.83466 8.20134,-0.71466 12.94134,1.25067 1.83733,0.76133 2.83333,-1.51867 0.79866,-2.41733"
         style="fill:#cf8c47;fill-opacity:1;fill-rule:evenodd;stroke:none;stroke-width:0.13333333"
         id="path506" />
      <path
         inkscape:connector-curvature="0"
         d="m 756.75598,929.98668 c 2.69733,-0.54933 5.796,3.484 6.92,9.008 1.12533,5.524 -0.15067,10.44667 -2.848,10.996 -2.69733,0.54934 -5.796,-3.48266 -6.92133,-9.008 -1.124,-5.52266 0.15066,-10.44666 2.84933,-10.996"
         style="fill:#f3c3bc;fill-opacity:1;fill-rule:evenodd;stroke:none;stroke-width:0.13333333"
         id="path508" />
      <path
         inkscape:connector-curvature="0"
         d="m 843.57865,929.98668 c -2.69734,-0.54933 -5.796,3.484 -6.92134,9.008 -1.124,5.524 0.15067,10.44667 2.84934,10.996 2.69733,0.54934 5.796,-3.48266 6.92,-9.008 1.12533,-5.52266 -0.15067,-10.44666 -2.848,-10.996"
         style="fill:#f3c3bc;fill-opacity:1;fill-rule:evenodd;stroke:none;stroke-width:0.13333333"
         id="path510" />
      <path
         inkscape:connector-curvature="0"
         d="m 758.39465,933.29068 c 0.24,3.64 3.588,11.144 3.4,2.64534 -0.18934,-8.5 2.82,-25.388 11.224,-34.71334 7.30133,-8.10266 14.56,-2.48666 26.00266,-2.75466 11.71334,-0.27334 18.71067,-5.42934 27.89467,5.75866 7.96667,9.70267 11.81333,23.20934 11.624,31.70934 -0.18933,8.49866 3.16,0.99466 3.4,-2.64534 0.284,-4.30933 2.02533,-15.828 -4.984,-32.42933 -5.03067,-11.91333 -17.92,-25.29867 -36.78933,-25.29867 -21.916,0 -31.75734,13.632 -36.788,25.54534 -7.00934,16.60133 -5.268,27.87333 -4.984,32.18266"
         style="fill:#cf8c47;fill-opacity:1;fill-rule:evenodd;stroke:none;stroke-width:0.13333333"
         id="path512" />
      <path
         inkscape:connector-curvature="0"
         d="m 721.05198,1181.896 c 1.12534,13.8227 -3.39066,38.5307 0.50134,48.264 1.60666,4.0133 3.19733,10.4987 6.28,13.064 4.39333,3.652 10.22666,5.992 12.23466,6.1547 3.42133,0.28 4.67467,-2.464 0.0627,-4.8774 -1.82134,-0.9533 -3.98534,-1.9093 -6.53467,-4.716 -3.89866,-4.2933 -4.43866,-13.0973 -3.712,-13.3506 4.78933,-1.6747 8.57333,13.1613 12.46267,11.7066 1.82,-0.6813 -1.68667,-9.692 -2.448,-14.1106 -0.86134,-5.0014 0.424,-12.9134 -2.93067,-17.5587 -6.32133,-8.756 -1.06667,-22.0347 -0.58133,-31.7667 0.48666,-9.7333 -16.35867,-5.4 -15.33467,7.1907"
         style="fill:#f3c3bc;fill-opacity:1;fill-rule:evenodd;stroke:none;stroke-width:0.13333333"
         id="path514" />
      <path
         inkscape:connector-curvature="0"
         d="m 745.67331,1185.516 c 12.47067,-46.7853 1.664,-116.104 -8.28266,-146.416 -5.452,-16.6133 9.76133,-27.0813 31.38933,-31.8813 -1.06133,32.8653 65.652,37.8906 64.11867,0.5826 21.168,5.004 36.08399,15.0507 31.27733,29.7027 -9.94667,30.3093 -24.148,97.368 -10.38667,148.4467 -16.63066,3.7746 -34.49866,5.8333 -53.11066,5.8333 -19.31867,0 -37.84134,-2.2133 -55.00534,-6.268"
         style="fill:#ffffff;fill-opacity:1;fill-rule:evenodd;stroke:none;stroke-width:0.13333333"
         id="path516" />
      <path
         inkscape:connector-curvature="0"
         d="m 887.71331,1098.8307 c -13.11867,-1.1107 -17.47867,21.8946 -16.37867,37.336 1.092,15.3333 -0.34533,55.3813 6.92267,56.568 9.92667,1.62 13.804,-36.7147 17.45467,-53.6307 3.364,-15.5867 4.056,-39.2547 -7.99867,-40.2733"
         style="fill:#f3c3bc;fill-opacity:1;fill-rule:evenodd;stroke:none;stroke-width:0.13333333"
         id="path518" />
      <path
         inkscape:connector-curvature="0"
         d="m 865.89465,1022.1813 c 16.09333,17.692 29.94133,71.52 32.48133,85.928 l -28.56667,0.7507 h -10e-4 c -2.41467,-9.4227 -16.75333,-30.1054 -26.50133,-50.8227 -11.004,-23.388 6.384,-37.3973 22.588,-35.8587"
         style="fill:#e93a3e;fill-opacity:1;fill-rule:evenodd;stroke:none;stroke-width:0.13333333"
         id="path520" />
      <path
         inkscape:connector-curvature="0"
         d="m 848.90798,1026.5587 40.28533,81.792 9.18267,-0.2414 c -0.72,-4.0813 -2.34667,-11.324 -4.67467,-20.012 l -32.47466,-65.9333 c -4.43467,0.3813 -8.74534,1.888 -12.31867,4.3947"
         style="fill:#cf3638;fill-opacity:1;fill-rule:evenodd;stroke:none;stroke-width:0.13333333"
         id="path522" />
      <path
         inkscape:connector-curvature="0"
         d="m 863.15865,1094.5133 -23.052,-46.8013 c 0.44,3.1933 1.46666,6.644 3.2,10.328 6.176,13.1227 14.19066,26.2307 19.852,36.4733 z m 7.06133,14.336 -1.21734,-2.472 c 0.33867,0.8974 0.61067,1.728 0.80534,2.4854 h 10e-4 l 0.41067,-0.011 v 0"
         style="fill:#cf3638;fill-opacity:1;fill-rule:evenodd;stroke:none;stroke-width:0.13333333"
         id="path524" />
      <path
         inkscape:connector-curvature="0"
         d="m 843.69998,1031.6907 19.532,-9.62 c -7.62667,0.067 -15.156,3.4853 -19.532,9.62"
         style="fill:#cf3638;fill-opacity:1;fill-rule:evenodd;stroke:none;stroke-width:0.13333333"
         id="path526" />
      <path
         inkscape:connector-curvature="0"
         d="m 846.29065,1064.1187 33.90933,-16.7014 c -1.744,-4.18 -3.57067,-8.1613 -5.46,-11.7946 l -33.66133,16.58 c 0.54666,1.8733 1.27866,3.8186 2.228,5.8373 0.956,2.0293 1.956,4.06 2.984,6.0787"
         style="fill:#cf3638;fill-opacity:1;fill-rule:evenodd;stroke:none;stroke-width:0.13333333"
         id="path528" />
      <path
         inkscape:connector-curvature="0"
         d="m 860.96265,1090.5947 29.33999,-14.4507 c -1.23066,-4.0867 -2.572,-8.3 -4.008,-12.5093 l -31.77999,15.6533 c 2.248,3.9693 4.444,7.7693 6.448,11.3067"
         style="fill:#cf3638;fill-opacity:1;fill-rule:evenodd;stroke:none;stroke-width:0.13333333"
         id="path530" />
      <path
         inkscape:connector-curvature="0"
         d="m 893.57598,1108.236 4.41333,-2.1747 c -0.64267,-3.2573 -1.66133,-7.7533 -2.99467,-13.008 l -26.16133,12.8854 c 0.42,1.0666 0.74933,2.044 0.97467,2.924 h 10e-4 l 23.76667,-0.624"
         style="fill:#cf3638;fill-opacity:1;fill-rule:evenodd;stroke:none;stroke-width:0.13333333"
         id="path532" />
      <path
         inkscape:connector-curvature="0"
         d="m 848.90665,1026.5587 1.01866,2.0666 11.65467,-5.7413 -0.35333,-0.72 c -4.43467,0.3813 -8.74534,1.888 -12.32,4.3947"
         style="fill:#9d2b2b;fill-opacity:1;fill-rule:evenodd;stroke:none;stroke-width:0.13333333"
         id="path534" />
      <path
         inkscape:connector-curvature="0"
         d="m 857.54398,1044.0933 5.74,11.6547 11.656,-5.7413 -5.74,-11.6547 -11.656,5.7413"
         style="fill:#9d2b2b;fill-opacity:1;fill-rule:evenodd;stroke:none;stroke-width:0.13333333"
         id="path536" />
      <path
         inkscape:connector-curvature="0"
         d="m 846.29065,1064.1187 1.52666,-0.752 -5.74133,-11.656 -0.99733,0.492 c 0.54666,1.8733 1.27866,3.8186 2.228,5.8373 0.956,2.0293 1.956,4.06 2.984,6.0787"
         style="fill:#9d2b2b;fill-opacity:1;fill-rule:evenodd;stroke:none;stroke-width:0.13333333"
         id="path538" />
      <path
         inkscape:connector-curvature="0"
         d="m 870.90264,1071.216 5.74134,11.656 11.656,-5.7413 -5.74134,-11.656 -11.656,5.7413"
         style="fill:#9d2b2b;fill-opacity:1;fill-rule:evenodd;stroke:none;stroke-width:0.13333333"
         id="path540" />
      <path
         inkscape:connector-curvature="0"
         d="m 860.96265,1090.596 0.21333,-0.1053 -5.74,-11.6574 -0.92133,0.4547 c 2.24666,3.968 4.444,7.7707 6.448,11.308"
         style="fill:#9d2b2b;fill-opacity:1;fill-rule:evenodd;stroke:none;stroke-width:0.13333333"
         id="path542" />
      <path
         inkscape:connector-curvature="0"
         d="m 884.26264,1098.3387 4.932,10.012 4.38,-0.1147 4.41467,-2.1747 c -0.64267,-3.2573 -1.66133,-7.752 -2.99467,-13.008 l -10.732,5.2854"
         style="fill:#9d2b2b;fill-opacity:1;fill-rule:evenodd;stroke:none;stroke-width:0.13333333"
         id="path544" />
      <path
         inkscape:connector-curvature="0"
         d="m 870.21998,1108.8493 -1.21734,-2.4706 c 0.33867,0.896 0.61067,1.7266 0.80534,2.484 h 10e-4 l 0.41067,-0.011"
         style="fill:#9d2b2b;fill-opacity:1;fill-rule:evenodd;stroke:none;stroke-width:0.13333333"
         id="path546" />
      <path
         inkscape:connector-curvature="0"
         d="m 870.06798,1028.6053 c -4.81867,-13.0773 -27.18667,-24.1493 -49.89867,-24.1493 7.57067,32.3467 8.92934,129.248 13.48534,169.1187 2.752,24.0866 2.064,48.176 2.064,48.176 15.82933,-4.1294 32.34666,-20.6467 26.15333,-48.176 -6.19467,-27.5294 -2.75333,-70.8894 -6.19467,-91.536 -3.44133,-20.6467 10.94934,-49.992 14.39067,-53.4334"
         style="fill:#e93a3e;fill-opacity:1;fill-rule:evenodd;stroke:none;stroke-width:0.13333333"
         id="path548" />
      <path
         inkscape:connector-curvature="0"
         d="m 898.37598,1108.1093 c 0.13466,0.768 0.24,1.4294 0.30933,1.9627 1.37867,10.5213 -3.00933,48.288 -4.56,60.6133 -8.32667,1.3214 -16.74667,-5.4013 -24.184,-4.3626 -0.084,-14.2267 -0.88,-47.252 0.172,-54.4014 0.12,-0.816 0.005,-1.8453 -0.30533,-3.0586 h 10e-4 l 28.56667,-0.7507"
         style="fill:#e93a3e;fill-opacity:1;fill-rule:evenodd;stroke:none;stroke-width:0.13333333"
         id="path550" />
      <path
         inkscape:connector-curvature="0"
         d="m 884.89598,1108.464 -9.02,58.3347 c 4.052,0.984 8.29066,2.944 12.57066,3.7253 l 9.65067,-62.408 -13.20133,0.348"
         style="fill:#cf3638;fill-opacity:1;fill-rule:evenodd;stroke:none;stroke-width:0.13333333"
         id="path552" />
      <path
         inkscape:connector-curvature="0"
         d="m 870.00664,1112.804 28.928,4.4733 c 0.048,-2.9853 -0.0213,-5.468 -0.24933,-7.2053 -0.0693,-0.5333 -0.17467,-1.1947 -0.30933,-1.9627 l -28.56667,0.7507 h -10e-4 c 0.31066,1.2133 0.42533,2.2426 0.30533,3.0586 -0.0373,0.26 -0.0733,0.5574 -0.10667,0.8827"
         style="fill:#cf3638;fill-opacity:1;fill-rule:evenodd;stroke:none;stroke-width:0.13333333"
         id="path554" />
      <path
         inkscape:connector-curvature="0"
         d="m 869.66531,1143.3467 27.084,4.1866 c 0.432,-4.2706 0.84667,-8.6866 1.19867,-12.9613 l -28.37467,-4.388 c 0.004,4.188 0.0413,8.6973 0.092,13.1627"
         style="fill:#cf3638;fill-opacity:1;fill-rule:evenodd;stroke:none;stroke-width:0.13333333"
         id="path556" />
      <path
         inkscape:connector-curvature="0"
         d="m 894.85731,1164.688 -24.968,-3.86 c 0.024,2.0293 0.0427,3.884 0.052,5.4947 7.43733,-1.0387 15.85733,5.684 24.184,4.3626 0.20267,-1.6053 0.452,-3.6453 0.732,-5.9973"
         style="fill:#cf3638;fill-opacity:1;fill-rule:evenodd;stroke:none;stroke-width:0.13333333"
         id="path558" />
      <path
         inkscape:connector-curvature="0"
         d="m 884.89598,1108.464 -1.004,6.488 12.84,1.9853 1.36533,-8.8213 -13.20133,0.348"
         style="fill:#9d2b2b;fill-opacity:1;fill-rule:evenodd;stroke:none;stroke-width:0.13333333"
         id="path560" />
      <path
         inkscape:connector-curvature="0"
         d="m 881.25731,1131.992 -1.984,12.84 12.83867,1.9853 1.98666,-12.84 -12.84133,-1.9853"
         style="fill:#9d2b2b;fill-opacity:1;fill-rule:evenodd;stroke:none;stroke-width:0.13333333"
         id="path562" />
      <path
         inkscape:connector-curvature="0"
         d="m 876.63731,1161.872 -0.76133,4.9267 c 4.052,0.984 8.29066,2.944 12.57066,3.7253 l 1.03067,-6.668 -12.84,-1.984"
         style="fill:#9d2b2b;fill-opacity:1;fill-rule:evenodd;stroke:none;stroke-width:0.13333333"
         id="path564" />
      <path
         inkscape:connector-curvature="0"
         d="m 862.31731,1018.332 1.04534,22.6213 c 2.76,-6.4293 5.45466,-11.0986 6.70533,-12.348 -1.344,-3.6466 -4.052,-7.136 -7.75067,-10.2733"
         style="fill:#cf3638;fill-opacity:1;fill-rule:evenodd;stroke:none;stroke-width:0.13333333"
         id="path566" />
      <path
         inkscape:connector-curvature="0"
         d="m 831.44931,1005.3427 9.908,214.408 c 4.56534,-2.056 8.94934,-5.1507 12.58,-9.2507 l -9.32933,-201.872 c -4.14667,-1.4507 -8.584,-2.572 -13.15867,-3.2853"
         style="fill:#cf3638;fill-opacity:1;fill-rule:evenodd;stroke:none;stroke-width:0.13333333"
         id="path568" />
      <path
         inkscape:connector-curvature="0"
         d="m 823.76931,1028.052 45.07467,-2.0827 c -2.576,-4.616 -7.296,-8.8893 -13.34533,-12.3906 l -33.36134,1.5413 c 0.58534,3.908 1.12667,8.2507 1.632,12.932"
         style="fill:#cf3638;fill-opacity:1;fill-rule:evenodd;stroke:none;stroke-width:0.13333333"
         id="path570" />
      <path
         inkscape:connector-curvature="0"
         d="m 826.32665,1058.2013 31.54533,-1.4586 c 1.25333,-4.7094 2.81733,-9.22 4.42,-13.2107 l -36.92933,1.7067 c 0.33866,4.188 0.65866,8.5213 0.964,12.9626"
         style="fill:#cf3638;fill-opacity:1;fill-rule:evenodd;stroke:none;stroke-width:0.13333333"
         id="path572" />
      <path
         inkscape:connector-curvature="0"
         d="m 828.16398,1088.3827 28.18133,-1.3027 c -0.18933,-1.7973 -0.408,-3.4853 -0.668,-5.0413 -0.42133,-2.528 -0.57333,-5.1854 -0.51333,-7.9107 l -27.74133,1.2827 c 0.25466,4.292 0.50133,8.6253 0.74133,12.972"
         style="fill:#cf3638;fill-opacity:1;fill-rule:evenodd;stroke:none;stroke-width:0.13333333"
         id="path574" />
      <path
         inkscape:connector-curvature="0"
         d="m 829.78265,1118.5747 27.81466,-1.284 c -0.0787,-4.4854 -0.156,-8.848 -0.27333,-12.9947 l -28.232,1.304 c 0.232,4.3733 0.46133,8.708 0.69067,12.9747"
         style="fill:#cf3638;fill-opacity:1;fill-rule:evenodd;stroke:none;stroke-width:0.13333333"
         id="path576" />
      <path
         inkscape:connector-curvature="0"
         d="m 831.55331,1148.7613 27.016,-1.2493 c -0.268,-4.2707 -0.452,-8.624 -0.59066,-12.98 l -27.23467,1.2587 c 0.26267,4.4893 0.532,8.8306 0.80933,12.9706"
         style="fill:#cf3638;fill-opacity:1;fill-rule:evenodd;stroke:none;stroke-width:0.13333333"
         id="path578" />
      <path
         inkscape:connector-curvature="0"
         d="m 834.20931,1178.9053 28.41734,-1.3133 c -0.19867,-1.312 -0.44667,-2.6507 -0.75467,-4.0173 -0.632,-2.808 -1.16267,-5.784 -1.61067,-8.88 l -27.38,1.2653 c 0.248,2.716 0.50534,5.268 0.77334,7.6147 0.20266,1.78 0.38666,3.56 0.55466,5.3306"
         style="fill:#cf3638;fill-opacity:1;fill-rule:evenodd;stroke:none;stroke-width:0.13333333"
         id="path580" />
      <path
         inkscape:connector-curvature="0"
         d="m 835.75731,1209.1013 20.07467,-0.928 c 2.79333,-3.7386 4.98267,-8.176 6.22667,-13.2946 l -26.676,1.232 c 0.21466,4.8053 0.324,9.224 0.37466,12.9906"
         style="fill:#cf3638;fill-opacity:1;fill-rule:evenodd;stroke:none;stroke-width:0.13333333"
         id="path582" />
      <path
         inkscape:connector-curvature="0"
         d="m 862.31731,1018.332 0.36667,7.9213 6.16,-0.284 c -1.50267,-2.6906 -3.73067,-5.2653 -6.52667,-7.6373"
         style="fill:#9d2b2b;fill-opacity:1;fill-rule:evenodd;stroke:none;stroke-width:0.13333333"
         id="path584" />
      <path
         inkscape:connector-curvature="0"
         d="m 831.88131,1014.6707 0.59867,12.9786 12.98,-0.6 -0.6,-12.9786 -12.97867,0.6"
         style="fill:#9d2b2b;fill-opacity:1;fill-rule:evenodd;stroke:none;stroke-width:0.13333333"
         id="path586" />
      <path
         inkscape:connector-curvature="0"
         d="m 833.27598,1044.8733 0.6,12.9787 12.97867,-0.6 -0.59867,-12.9787 -12.98,0.6"
         style="fill:#9d2b2b;fill-opacity:1;fill-rule:evenodd;stroke:none;stroke-width:0.13333333"
         id="path588" />
      <path
         inkscape:connector-curvature="0"
         d="m 834.67198,1075.076 0.6,12.9787 12.97867,-0.6 -0.6,-12.9787 -12.97867,0.6"
         style="fill:#9d2b2b;fill-opacity:1;fill-rule:evenodd;stroke:none;stroke-width:0.13333333"
         id="path590" />
      <path
         inkscape:connector-curvature="0"
         d="m 836.06798,1105.2787 0.6,12.9786 12.97867,-0.6 -0.6,-12.9786 -12.97867,0.6"
         style="fill:#9d2b2b;fill-opacity:1;fill-rule:evenodd;stroke:none;stroke-width:0.13333333"
         id="path592" />
      <path
         inkscape:connector-curvature="0"
         d="m 837.46398,1135.4813 0.59867,12.9787 12.98,-0.6 -0.6,-12.9787 -12.97867,0.6"
         style="fill:#9d2b2b;fill-opacity:1;fill-rule:evenodd;stroke:none;stroke-width:0.13333333"
         id="path594" />
      <path
         inkscape:connector-curvature="0"
         d="m 838.85865,1165.684 0.6,12.9787 12.97866,-0.6 -0.6,-12.9787 -12.97866,0.6"
         style="fill:#9d2b2b;fill-opacity:1;fill-rule:evenodd;stroke:none;stroke-width:0.13333333"
         id="path596" />
      <path
         inkscape:connector-curvature="0"
         d="m 840.25465,1195.8867 0.6,12.9786 12.97866,-0.6 -0.6,-12.9786 -12.97866,0.6"
         style="fill:#9d2b2b;fill-opacity:1;fill-rule:evenodd;stroke:none;stroke-width:0.13333333"
         id="path598" />
      <path
         inkscape:connector-curvature="0"
         d="m 841.60798,1004.576 c -2.73333,14.3907 0.68267,48.104 7.86133,85.7627 6.83734,35.876 17.07867,74.956 28.70133,104.152 l -13.33066,5.288 c -11.996,-30.132 -22.51067,-70.1747 -29.48933,-106.7974 -7.47734,-39.224 -10.91867,-74.948 -7.86134,-91.048 l 14.11867,2.6427"
         style="fill:#cdaa42;fill-opacity:1;fill-rule:nonzero;stroke:none;stroke-width:0.13333333"
         id="path600" />
      <path
         inkscape:connector-curvature="0"
         d="m 882.22131,1174.516 c -7.13467,-1.652 -15.00267,11.7693 -19.748,23.272 -8.36133,20.264 3.68134,2.4493 3.868,3.4293 0.44133,2.3 0.89867,5.5347 1.17733,10.7467 0.2,3.736 2.672,3.9933 3.70667,2.652 0.724,-0.936 1.55067,-0.8667 1.896,-0.5547 1.88,1.6987 4.20933,0.6734 4.78133,-0.892 0.46,-1.2546 1.48134,-1.344 2.492,-0.6013 1.18534,0.872 2.732,1.3387 3.84,0.2933 1.06534,-1.004 0.88934,-4.5733 2.44534,-2.7666 1.876,2.1773 3.24266,1.316 4.03733,0.085 2.16933,-3.3573 -2.31467,-34.232 -8.496,-35.664"
         style="fill:#f3c3bc;fill-opacity:1;fill-rule:evenodd;stroke:none;stroke-width:0.13333333"
         id="path602" />
      <path
         inkscape:connector-curvature="0"
         d="m 812.97331,887.54402 c -19.57466,16.97066 -51.76266,10.03866 -46.684,-14.94667 13.62534,19.14 29.72667,17.27067 46.684,14.94667"
         style="fill:#cf8c47;fill-opacity:1;fill-rule:evenodd;stroke:none;stroke-width:0.13333333"
         id="path604" />
      <path
         inkscape:connector-curvature="0"
         d="m 812.94665,888.30135 c -20.20667,8.42133 -41.35734,0.63067 -30.26267,-24.56533 5.34533,19.98266 16.04267,21.932 30.26267,24.56533"
         style="fill:#cf8c47;fill-opacity:1;fill-rule:evenodd;stroke:none;stroke-width:0.13333333"
         id="path606" />
      <path
         inkscape:connector-curvature="0"
         d="m 744.49065,1016.28 c -17.032,14.7387 -23.788,89.8893 -25.58267,105.372 l 28.26,4.284 v 0 c 2.86133,-15.4253 11.50933,-52.828 20.70267,-72.3653 11.004,-23.388 -7.176,-38.8294 -23.38,-37.2907"
         style="fill:#e93a3e;fill-opacity:1;fill-rule:evenodd;stroke:none;stroke-width:0.13333333"
         id="path608" />
      <path
         inkscape:connector-curvature="0"
         d="m 767.62665,1027.3213 -3.97334,36.48 c 1.38,-3.74 2.792,-7.2013 4.21734,-10.2306 5.036,-10.7027 3.95733,-19.74 -0.244,-26.2494"
         style="fill:#cf3638;fill-opacity:1;fill-rule:evenodd;stroke:none;stroke-width:0.13333333"
         id="path610" />
      <path
         inkscape:connector-curvature="0"
         d="m 737.22798,1027.18 -10.42,95.6693 12.85733,1.9494 11.78134,-108.1667 c -2.29867,-0.444 -4.64667,-0.5707 -6.956,-0.352 -2.66534,2.3067 -5.08,6.0947 -7.26267,10.9"
         style="fill:#cf3638;fill-opacity:1;fill-rule:evenodd;stroke:none;stroke-width:0.13333333"
         id="path612" />
      <path
         inkscape:connector-curvature="0"
         d="m 734.97465,1032.716 36.05066,3.9267 c -0.74133,-5.692 -3.45866,-10.3987 -7.244,-13.8587 l -22.76666,-2.48 c -2.25334,2.9013 -4.28667,6.9947 -6.04,12.412"
         style="fill:#cf3638;fill-opacity:1;fill-rule:evenodd;stroke:none;stroke-width:0.13333333"
         id="path614" />
      <path
         inkscape:connector-curvature="0"
         d="m 727.18798,1062.2813 35.612,3.8787 c 1.63733,-4.6187 3.328,-8.8773 5.03867,-12.52 l -37.856,-4.124 c -1.008,4.1267 -1.94,8.416 -2.79467,12.7653"
         style="fill:#cf3638;fill-opacity:1;fill-rule:evenodd;stroke:none;stroke-width:0.13333333"
         id="path616" />
      <path
         inkscape:connector-curvature="0"
         d="m 722.35998,1092.1693 31.65067,3.448 c 1.07866,-4.1813 2.23866,-8.4613 3.46,-12.6933 l -33.25733,-3.6227 c -0.688,4.4187 -1.30267,8.7454 -1.85334,12.868"
         style="fill:#cf3638;fill-opacity:1;fill-rule:evenodd;stroke:none;stroke-width:0.13333333"
         id="path618" />
      <path
         inkscape:connector-curvature="0"
         d="m 731.90798,1123.6227 15.38,1.676 c 0.64267,-3.4147 1.54667,-7.804 2.65867,-12.7814 l -29.68,-3.232 c -0.61067,5.436 -1.056,9.7534 -1.35867,12.3667 l 13,1.9707"
         style="fill:#cf3638;fill-opacity:1;fill-rule:evenodd;stroke:none;stroke-width:0.13333333"
         id="path620" />
      <path
         inkscape:connector-curvature="0"
         d="m 767.62665,1027.3227 -0.964,8.844 4.36266,0.476 c -0.456,-3.5 -1.66,-6.6267 -3.39866,-9.32"
         style="fill:#9d2b2b;fill-opacity:1;fill-rule:evenodd;stroke:none;stroke-width:0.13333333"
         id="path622" />
      <path
         inkscape:connector-curvature="0"
         d="m 737.16131,1026.9547 -0.55466,5.9386 12.916,1.4067 1.40666,-12.916 -9.91466,-1.08 c -1.332,1.9413 -2.72934,3.5533 -3.85334,6.6507"
         style="fill:#9d2b2b;fill-opacity:1;fill-rule:evenodd;stroke:none;stroke-width:0.13333333"
         id="path624" />
      <path
         inkscape:connector-curvature="0"
         d="m 764.79598,1053.308 -1.14267,10.492 c 1.36934,-3.712 2.77067,-7.1467 4.18534,-10.16 l -3.04267,-0.332"
         style="fill:#9d2b2b;fill-opacity:1;fill-rule:evenodd;stroke:none;stroke-width:0.13333333"
         id="path626" />
      <path
         inkscape:connector-curvature="0"
         d="m 734.73998,1050.0333 -1.408,12.9174 12.916,1.4066 1.40667,-12.916 -12.91467,-1.408"
         style="fill:#9d2b2b;fill-opacity:1;fill-rule:evenodd;stroke:none;stroke-width:0.13333333"
         id="path628" />
      <path
         inkscape:connector-curvature="0"
         d="m 731.46532,1080.0907 -1.408,12.9173 12.91733,1.4067 1.40666,-12.9174 -12.91599,-1.4066"
         style="fill:#9d2b2b;fill-opacity:1;fill-rule:evenodd;stroke:none;stroke-width:0.13333333"
         id="path630" />
      <path
         inkscape:connector-curvature="0"
         d="m 728.19065,1110.148 -1.38267,12.7013 5.09467,0.7734 7.79733,0.8493 1.408,-12.916 -12.91733,-1.408"
         style="fill:#9d2b2b;fill-opacity:1;fill-rule:evenodd;stroke:none;stroke-width:0.13333333"
         id="path632" />
      <path
         inkscape:connector-curvature="0"
         d="m 718.90798,1121.652 c -0.0373,0.3187 -0.0733,0.6227 -0.10533,0.8893 -1.62533,13.2427 -0.744,44.34 -1.03733,56.6654 8.328,1.3213 15.46533,2.8546 22.90266,3.8946 0.0853,-14.228 5.07067,-44.6586 5.52133,-50.9066 0.0747,-1.028 0.41467,-3.22 0.97867,-6.2587 v 0 l -28.26,-4.284"
         style="fill:#e93a3e;fill-opacity:1;fill-rule:evenodd;stroke:none;stroke-width:0.13333333"
         id="path634" />
      <path
         inkscape:connector-curvature="0"
         d="m 737.87865,1025.2813 c 4.81733,-13.076 21.44666,-21.7013 44.15733,-21.7013 -7.57067,32.3467 -5.07867,130.124 -9.63467,169.9947 -2.752,24.088 -2.06533,48.176 -2.06533,48.176 -15.82933,-4.1294 -32.34667,-20.6467 -26.152,-48.176 6.19333,-27.5294 3.44,-69.512 6.88133,-90.16 3.44134,-20.6467 -9.74533,-54.692 -13.18666,-58.1334"
         style="fill:#e93a3e;fill-opacity:1;fill-rule:evenodd;stroke:none;stroke-width:0.13333333"
         id="path636" />
      <path
         inkscape:connector-curvature="0"
         d="m 741.74265,1018.1733 -0.60667,13.1387 c -1.42,-3.232 -2.44533,-5.2973 -3.19867,-6.0507 0.91734,-2.4853 2.06667,-4.964 3.80534,-7.088"
         style="fill:#cf3638;fill-opacity:1;fill-rule:evenodd;stroke:none;stroke-width:0.13333333"
         id="path638" />
      <path
         inkscape:connector-curvature="0"
         d="m 772.66131,1004.0893 -9.92133,214.7094 c -4.66933,-2.4427 -9.056,-5.9974 -12.516,-10.6267 l 9.30133,-201.3 c 3.97867,-1.3067 8.38,-2.2493 13.136,-2.7827"
         style="fill:#cf3638;fill-opacity:1;fill-rule:evenodd;stroke:none;stroke-width:0.13333333"
         id="path640" />
      <path
         inkscape:connector-curvature="0"
         d="m 778.61198,1029.28 -39.32533,-1.8173 c -0.62,-1.1494 -1.05067,-1.8227 -1.448,-2.22 1.43866,-3.9067 3.84666,-7.54 7.25866,-10.5187 l 34.8,1.6093 c -0.488,3.9454 -0.912,8.292 -1.28533,12.9467"
         style="fill:#cf3638;fill-opacity:1;fill-rule:evenodd;stroke:none;stroke-width:0.13333333"
         id="path642" />
      <path
         inkscape:connector-curvature="0"
         d="m 776.92398,1059.4693 -27.356,-1.264 c -0.94533,-4.5573 -2.13733,-9.0373 -3.41067,-13.164 l 31.348,1.448 c -0.216,4.2 -0.408,8.5427 -0.58133,12.98"
         style="fill:#cf3638;fill-opacity:1;fill-rule:evenodd;stroke:none;stroke-width:0.13333333"
         id="path644" />
      <path
         inkscape:connector-curvature="0"
         d="m 775.98531,1089.6933 -25.60666,-1.184 c 0.19733,-1.812 0.424,-3.516 0.68666,-5.0946 0.40934,-2.4507 0.57867,-5.0947 0.55867,-7.8547 l 24.71733,1.1427 c -0.12666,4.3026 -0.244,8.644 -0.356,12.9906"
         style="fill:#cf3638;fill-opacity:1;fill-rule:evenodd;stroke:none;stroke-width:0.13333333"
         id="path646" />
      <path
         inkscape:connector-curvature="0"
         d="m 775.21598,1119.924 -26.348,-1.2173 c 0.12667,-4.4774 0.248,-8.8374 0.404,-12.988 l 26.28,1.2146 c -0.10933,4.3827 -0.21867,8.7254 -0.336,12.9907"
         style="fill:#cf3638;fill-opacity:1;fill-rule:evenodd;stroke:none;stroke-width:0.13333333"
         id="path648" />
      <path
         inkscape:connector-curvature="0"
         d="m 774.13331,1150.1427 -26.59866,-1.2294 c 0.32266,-4.2693 0.56266,-8.6186 0.75333,-12.972 l 26.39067,1.2187 c -0.16267,4.5053 -0.34267,8.848 -0.54534,12.9827"
         style="fill:#cf3638;fill-opacity:1;fill-rule:evenodd;stroke:none;stroke-width:0.13333333"
         id="path650" />
      <path
         inkscape:connector-curvature="0"
         d="m 771.71731,1180.2973 -28.48,-1.316 c 0.21867,-1.7533 0.52934,-3.5533 0.94667,-5.4066 0.53867,-2.3947 1.008,-4.9014 1.42133,-7.4907 l 27.412,1.2667 c -0.18933,2.2013 -0.39466,4.2826 -0.616,6.224 -0.256,2.248 -0.484,4.4946 -0.684,6.7226"
         style="fill:#cf3638;fill-opacity:1;fill-rule:evenodd;stroke:none;stroke-width:0.13333333"
         id="path652" />
      <path
         inkscape:connector-curvature="0"
         d="m 770.28131,1210.4987 -18.91333,-0.8747 c -3.06533,-3.692 -5.52533,-8.1427 -6.99867,-13.3293 l 26.24267,1.212 c -0.19867,4.864 -0.29333,9.2893 -0.33067,12.992"
         style="fill:#cf3638;fill-opacity:1;fill-rule:evenodd;stroke:none;stroke-width:0.13333333"
         id="path654" />
      <path
         inkscape:connector-curvature="0"
         d="m 741.74265,1018.1733 -0.43467,9.3827 -2.02133,-0.093 c -0.62,-1.1507 -1.05067,-1.724 -1.448,-2.1214 0.91466,-2.4853 2.16533,-5.0426 3.904,-7.168"
         style="fill:#9d2b2b;fill-opacity:1;fill-rule:evenodd;stroke:none;stroke-width:0.13333333"
         id="path656" />
      <path
         inkscape:connector-curvature="0"
         d="m 772.11198,1015.9733 -0.6,12.9787 -12.97867,-0.6 0.6,-12.9787 12.97867,0.6"
         style="fill:#9d2b2b;fill-opacity:1;fill-rule:evenodd;stroke:none;stroke-width:0.13333333"
         id="path658" />
      <path
         inkscape:connector-curvature="0"
         d="m 770.71598,1046.176 -0.6,12.9787 -12.97867,-0.6 0.6,-12.9787 12.97867,0.6"
         style="fill:#9d2b2b;fill-opacity:1;fill-rule:evenodd;stroke:none;stroke-width:0.13333333"
         id="path660" />
      <path
         inkscape:connector-curvature="0"
         d="m 769.31998,1076.3787 -0.59867,12.9786 -12.98,-0.6 0.6,-12.9786 12.97867,0.6"
         style="fill:#9d2b2b;fill-opacity:1;fill-rule:evenodd;stroke:none;stroke-width:0.13333333"
         id="path662" />
      <path
         inkscape:connector-curvature="0"
         d="m 767.92531,1106.5813 -0.6,12.9787 -12.97866,-0.6 0.59866,-12.9787 12.98,0.6"
         style="fill:#9d2b2b;fill-opacity:1;fill-rule:evenodd;stroke:none;stroke-width:0.13333333"
         id="path664" />
      <path
         inkscape:connector-curvature="0"
         d="m 766.52931,1136.784 -0.6,12.9787 -12.97866,-0.6 0.6,-12.9787 12.97866,0.6"
         style="fill:#9d2b2b;fill-opacity:1;fill-rule:evenodd;stroke:none;stroke-width:0.13333333"
         id="path666" />
      <path
         inkscape:connector-curvature="0"
         d="m 765.13331,1166.9867 -0.6,12.9786 -12.97866,-0.6 0.6,-12.9786 12.97866,0.6"
         style="fill:#9d2b2b;fill-opacity:1;fill-rule:evenodd;stroke:none;stroke-width:0.13333333"
         id="path668" />
      <path
         inkscape:connector-curvature="0"
         d="m 763.73865,1197.1893 -0.6,12.9787 -11.77067,-0.544 c -0.392,-0.472 -0.77333,-0.9547 -1.144,-1.4507 l 0.536,-11.584 12.97867,0.6"
         style="fill:#9d2b2b;fill-opacity:1;fill-rule:evenodd;stroke:none;stroke-width:0.13333333"
         id="path670" />
      <path
         inkscape:connector-curvature="0"
         d="m 897.45864,1161.5507 c -9.50933,0.616 -18.80266,0.1173 -27.79866,-1.7347 -0.58,-0.12 -1.104,0.3933 -1.13867,0.9573 -0.19867,3.1614 -0.64267,12.492 -0.84,15.6534 -0.036,0.564 0.43333,0.964 1.01067,1.092 9.17333,2.0493 15.07733,2.324 24.444,1.2986 0.58666,-0.064 0.884,-0.4493 1.13866,-0.9573 1.69067,-3.388 3.99734,-12.056 4.19467,-15.216 0.0347,-0.564 -0.42,-1.1307 -1.01067,-1.0933"
         style="fill:#842423;fill-opacity:1;fill-rule:evenodd;stroke:none;stroke-width:0.13333333"
         id="path672" />
      <path
         inkscape:connector-curvature="0"
         d="m 777.29331,1050.3533 c 1.972,-24.0386 5.74,-50.95062 9.51467,-57.86795 -14.63867,3.08133 -29.01333,15.70395 -32.09467,29.57195 8.73067,-3.4226 15.52134,-6.864 18.78534,-2.648 2.296,2.964 4.236,20.8134 3.79466,30.944"
         style="fill:#842423;fill-opacity:1;fill-rule:evenodd;stroke:none;stroke-width:0.13333333"
         id="path674" />
      <path
         inkscape:connector-curvature="0"
         d="m 826.00265,1050.3533 c -3.10667,-24.0386 -8.148,-50.95062 -12.248,-57.86795 14.784,3.08133 29.75466,15.70395 33.492,29.57195 -8.892,-3.4226 -15.84667,-6.864 -18.912,-2.648 -2.15467,2.964 -3.25067,20.8134 -2.332,30.944"
         style="fill:#842423;fill-opacity:1;fill-rule:evenodd;stroke:none;stroke-width:0.13333333"
         id="path676" />
      <path
         inkscape:connector-curvature="0"
         d="m 727.63198,1122.9747 -2.93333,57.4093 c 4.45467,0.7947 8.65866,1.592 12.89333,2.2587 l 2.94933,-57.7107 -12.90933,-1.9573"
         style="fill:#cf3638;fill-opacity:1;fill-rule:evenodd;stroke:none;stroke-width:0.13333333"
         id="path678" />
      <path
         inkscape:connector-curvature="0"
         d="m 718.74932,1122.9947 13.60533,0.696 -13.44667,-2.0387 c -0.0373,0.3187 -0.0733,0.6227 -0.10533,0.8893 l -0.0533,0.4534"
         style="fill:#cf3638;fill-opacity:1;fill-rule:evenodd;stroke:none;stroke-width:0.13333333"
         id="path680" />
      <path
         inkscape:connector-curvature="0"
         d="m 717.78265,1153.22 25.52666,1.304 c 0.60667,-4.6893 1.22134,-9.1627 1.72934,-12.92 l -27.16,-1.388 c -0.0733,4.2027 -0.096,8.6347 -0.096,13.004"
         style="fill:#cf3638;fill-opacity:1;fill-rule:evenodd;stroke:none;stroke-width:0.13333333"
         id="path682" />
      <path
         inkscape:connector-curvature="0"
         d="m 741.34398,1171.6893 -23.51333,-1.2026 c 0.004,3.4093 -0.0107,6.3973 -0.0653,8.72 8.328,1.3213 15.46533,2.8546 22.90266,3.8946 0.0187,-3.1546 0.27867,-7.1053 0.676,-11.412"
         style="fill:#cf3638;fill-opacity:1;fill-rule:evenodd;stroke:none;stroke-width:0.13333333"
         id="path684" />
      <path
         inkscape:connector-curvature="0"
         d="m 727.63198,1122.9747 -0.024,0.4733 4.74667,0.2427 z"
         style="fill:#9d2b2b;fill-opacity:1;fill-rule:evenodd;stroke:none;stroke-width:0.13333333"
         id="path686" />
      <path
         inkscape:connector-curvature="0"
         d="m 726.72798,1140.668 -0.66266,12.9747 12.97466,0.664 0.664,-12.976 -12.976,-0.6627"
         style="fill:#9d2b2b;fill-opacity:1;fill-rule:evenodd;stroke:none;stroke-width:0.13333333"
         id="path688" />
      <path
         inkscape:connector-curvature="0"
         d="m 725.18398,1170.8627 -0.48666,9.5213 c 4.456,0.7947 8.65999,1.592 12.89466,2.2587 l 0.568,-11.116 -12.976,-0.664"
         style="fill:#9d2b2b;fill-opacity:1;fill-rule:evenodd;stroke:none;stroke-width:0.13333333"
         id="path690" />
      <path
         inkscape:connector-curvature="0"
         d="m 765.17865,1323.7573 c 6.384,-1.4626 10.092,-0.884 13.75866,0"
         style="fill:none;stroke:#5278ab;stroke-width:5.1201334;stroke-linecap:round;stroke-linejoin:round;stroke-miterlimit:22.92560005;stroke-dasharray:none;stroke-opacity:1"
         id="path692" />
      <path
         inkscape:connector-curvature="0"
         d="m 762.52131,1328.3613 c 6.384,-1.4626 10.092,-0.884 13.75867,0"
         style="fill:none;stroke:#5278ab;stroke-width:5.1201334;stroke-linecap:round;stroke-linejoin:round;stroke-miterlimit:22.92560005;stroke-dasharray:none;stroke-opacity:1"
         id="path694" />
      <path
         inkscape:connector-curvature="0"
         d="m 764.83198,1330.772 c 6.384,-1.4627 10.092,-0.8827 13.75867,0"
         style="fill:none;stroke:#5278ab;stroke-width:5.1201334;stroke-linecap:round;stroke-linejoin:round;stroke-miterlimit:22.92560005;stroke-dasharray:none;stroke-opacity:1"
         id="path696" />
      <path
         inkscape:connector-curvature="0"
         d="m 764.36931,1334.9333 c 6.38534,-1.4533 10.092,-0.88 13.76,0"
         style="fill:none;stroke:#5278ab;stroke-width:5.1201334;stroke-linecap:round;stroke-linejoin:round;stroke-miterlimit:22.92560005;stroke-dasharray:none;stroke-opacity:1"
         id="path698" />
      <path
         inkscape:connector-curvature="0"
         d="m 767.02665,1339.32 c 5.02933,-1.1467 7.94933,-0.6933 10.83733,0"
         style="fill:none;stroke:#5278ab;stroke-width:5.1201334;stroke-linecap:round;stroke-linejoin:round;stroke-miterlimit:22.92560005;stroke-dasharray:none;stroke-opacity:1"
         id="path700" />
      <path
         inkscape:connector-curvature="0"
         d="m 837.88665,1326.0173 c -6.19867,-1.4626 -9.79867,-0.8826 -13.35867,0"
         style="fill:none;stroke:#5278ab;stroke-width:5.1201334;stroke-linecap:round;stroke-linejoin:round;stroke-miterlimit:22.92560005;stroke-dasharray:none;stroke-opacity:1"
         id="path702" />
      <path
         inkscape:connector-curvature="0"
         d="m 839.02665,1330.3853 c -6.19734,-1.4626 -9.79734,-0.8826 -13.35867,0"
         style="fill:none;stroke:#5278ab;stroke-width:5.1201334;stroke-linecap:round;stroke-linejoin:round;stroke-miterlimit:22.92560005;stroke-dasharray:none;stroke-opacity:1"
         id="path704" />
      <path
         inkscape:connector-curvature="0"
         d="m 838.22265,1333.0333 c -6.19867,-1.464 -9.79734,-0.884 -13.35867,0"
         style="fill:none;stroke:#5278ab;stroke-width:5.1201334;stroke-linecap:round;stroke-linejoin:round;stroke-miterlimit:22.92560005;stroke-dasharray:none;stroke-opacity:1"
         id="path706" />
      <path
         inkscape:connector-curvature="0"
         d="m 838.67198,1337.2 c -7.448,-1.4667 -11.77333,-0.88 -16.05067,0"
         style="fill:none;stroke:#5278ab;stroke-width:5.1201334;stroke-linecap:round;stroke-linejoin:round;stroke-miterlimit:22.92560005;stroke-dasharray:none;stroke-opacity:1"
         id="path708" />
      <path
         inkscape:connector-curvature="0"
         d="m 836.09065,1341.5867 c -4.88134,-1.16 -7.716,-0.6934 -10.52134,0"
         style="fill:none;stroke:#5278ab;stroke-width:5.1201334;stroke-linecap:round;stroke-linejoin:round;stroke-miterlimit:22.92560005;stroke-dasharray:none;stroke-opacity:1"
         id="path710" />
      <path
         inkscape:connector-curvature="0"
         d="m 795.98131,1195.2067 c -0.39866,4.384 -2.392,25.9053 1.59334,26.304 3.98533,0.3986 9.56533,0.3986 9.56533,0.3986"
         style="fill:none;stroke:#313a65;stroke-width:3.20013309;stroke-linecap:butt;stroke-linejoin:miter;stroke-miterlimit:22.92560005;stroke-dasharray:none;stroke-opacity:1"
         id="path712" />
      <path
         inkscape:connector-curvature="0"
         d="m 841.51731,1435.4133 c -9.96666,2.0267 -21.73333,2.8934 -31.50933,2.1067 -0.62933,-0.04 -1.10933,0.6 -1.06667,1.2267 0.23867,3.5333 0.47867,7.0666 0.71734,10.6 0.0427,0.6266 0.59466,1 1.22266,1.0666 9.992,0.9734 21.75067,0.3467 31.50934,-2.1066 0.612,-0.16 1.11066,-0.6 1.068,-1.2267 -0.23867,-3.5333 -0.47867,-7.0667 -0.71734,-10.6 -0.0427,-0.6267 -0.60533,-1.1867 -1.224,-1.0667"
         style="fill:#577ba8;fill-opacity:1;fill-rule:evenodd;stroke:none;stroke-width:0.13333333"
         id="path714" />
      <path
         inkscape:connector-curvature="0"
         d="m 843.59065,1502.2 c 1.25733,-7.8536 2.39333,-17.1469 -0.43467,-24.0667 -2.82933,-6.9068 5.64933,-8.2136 8.792,-3.1869"
         style="fill:none;stroke:#4c5666;stroke-width:1.59986663;stroke-linecap:round;stroke-linejoin:round;stroke-miterlimit:22.92560005;stroke-dasharray:none;stroke-opacity:1"
         id="path716" />
      <path
         inkscape:connector-curvature="0"
         d="m 801.93865,1233.4267 c -6.02934,25.5133 -12.06,74.2173 -9.27734,99.2666 2.784,25.0534 -5.10133,98.8 -5.10133,114.1067"
         style="fill:none;stroke:#313a65;stroke-width:3.20013309;stroke-linecap:butt;stroke-linejoin:miter;stroke-miterlimit:22.92560005;stroke-dasharray:none;stroke-opacity:1"
         id="path718" />
      <path
         inkscape:connector-curvature="0"
         d="m 764.52665,1435.4133 c 9.968,2.0267 21.73466,2.8934 31.50933,2.1067 0.62933,-0.04 1.11067,0.6 1.068,1.2267 -0.24,3.5333 -0.47867,7.0666 -0.71733,10.6 -0.0427,0.6266 -0.596,1 -1.224,1.0666 -9.99067,0.9734 -21.75067,0.3467 -31.50934,-2.1066 -0.612,-0.16 -1.11066,-0.6 -1.068,-1.2267 0.24,-3.5333 0.47867,-7.0667 0.71867,-10.6 0.0427,-0.6267 0.604,-1.1867 1.22267,-1.0667"
         style="fill:#577ba8;fill-opacity:1;fill-rule:evenodd;stroke:none;stroke-width:0.13333333"
         id="path720" />
      <path
         inkscape:connector-curvature="0"
         d="m 713.63732,1177.584 c 9.39066,1.624 18.684,2.1173 27.82666,1.2333 0.58933,-0.057 1.05467,0.5094 1.02933,1.0747 -0.14,3.1627 -0.69066,12.4893 -0.83066,15.6533 -0.0253,0.564 -0.53467,0.912 -1.12134,0.9787 -9.33999,1.06 -15.23999,0.7053 -24.44399,-1.312 -0.57734,-0.1267 -0.832,-0.54 -1.03067,-1.0733 -1.32,-3.548 -2.69067,-12.4134 -2.55067,-15.5774 0.0253,-0.564 0.53867,-1.0786 1.12134,-0.9773"
         style="fill:#842423;fill-opacity:1;fill-rule:evenodd;stroke:none;stroke-width:0.13333333"
         id="path722" />
      <path
         inkscape:connector-curvature="0"
         d="m 814.80398,896.93202 c -21.12267,10.06266 -47.47333,-3.71734 -37.04,-24.244 7.25467,19.94 21.72,22.188 37.04,24.244"
         style="fill:#bc7b3b;fill-opacity:1;fill-rule:evenodd;stroke:none;stroke-width:0.13333333"
         id="path724" />
    </g>
  </g>
</svg>
