<?xml version="1.0" encoding="UTF-8" standalone="no"?>
<!-- Created with Inkscape (http://www.inkscape.org/) -->

<svg
   xmlns:dc="http://purl.org/dc/elements/1.1/"
   xmlns:cc="http://creativecommons.org/ns#"
   xmlns:rdf="http://www.w3.org/1999/02/22-rdf-syntax-ns#"
   xmlns:svg="http://www.w3.org/2000/svg"
   xmlns="http://www.w3.org/2000/svg"
   xmlns:sodipodi="http://sodipodi.sourceforge.net/DTD/sodipodi-0.dtd"
   xmlns:inkscape="http://www.inkscape.org/namespaces/inkscape"
   width="13.927556mm"
   height="52.916668mm"
   viewBox="0 0 13.927556 52.916668"
   version="1.1"
   id="svg9261"
   inkscape:version="0.92.3 (2405546, 2018-03-11)"
   sodipodi:docname="7.svg">
  <defs
     id="defs9255" />
  <sodipodi:namedview
     id="base"
     pagecolor="#ffffff"
     bordercolor="#666666"
     borderopacity="1.0"
     inkscape:pageopacity="0.0"
     inkscape:pageshadow="2"
     inkscape:zoom="0.35"
     inkscape:cx="-91.966137"
     inkscape:cy="366.47943"
     inkscape:document-units="mm"
     inkscape:current-layer="layer1"
     showgrid="false"
     fit-margin-top="0"
     fit-margin-left="0"
     fit-margin-right="0"
     fit-margin-bottom="0"
     inkscape:window-width="1613"
     inkscape:window-height="995"
     inkscape:window-x="67"
     inkscape:window-y="27"
     inkscape:window-maximized="1" />
  <metadata
     id="metadata9258">
    <rdf:RDF>
      <cc:Work
         rdf:about="">
        <dc:format>image/svg+xml</dc:format>
        <dc:type
           rdf:resource="http://purl.org/dc/dcmitype/StillImage" />
        <dc:title></dc:title>
      </cc:Work>
    </rdf:RDF>
  </metadata>
  <g
     inkscape:label="Layer 1"
     inkscape:groupmode="layer"
     id="layer1"
     transform="translate(-3.1660405,-192.88102)">
    <g
       transform="matrix(0.08175684,0,0,0.08175684,-79.630305,120.5244)"
       id="g9196">
      <path
         inkscape:connector-curvature="0"
         d="m 1097.892,1532.2667 c 46.9133,0 85.176,-14.4667 85.176,-32.2 0,-17.747 -38.2627,-32.2134 -85.176,-32.2134 -46.9134,0 -85.1774,14.4664 -85.1774,32.2134 0,17.7333 38.264,32.2 85.1774,32.2"
         style="fill:#447186;fill-opacity:1;fill-rule:evenodd;stroke:none;stroke-width:0.13333333"
         id="path40" />
      <path
         inkscape:connector-curvature="0"
         d="m 1131.8026,893.87735 c 8.8254,4.31067 42.8827,65.50933 19.032,97.02133 1.0294,-6.26533 0.884,-11.53866 0,-17.30533 0.3453,8.016 -3.7747,15.64533 -9.6374,21.82533 1.512,-5.372 0.416,-8.49066 -0.2426,-11.24533 -18.9067,24.26795 -51.7134,18.90535 -60.4347,5.63067 -0.1387,2.83066 -0.64,6.096 1.8387,11.09728 -6.904,-4.99195 -11.6667,-11.65462 -13.504,-19.66928 0.1213,5.62266 1.2933,11.15866 3.1946,17.008 -29.2613,-26.564 -6.044,-93.95467 1.832,-99.82134 l 57.924,-4.54133"
         style="fill:#684535;fill-opacity:1;fill-rule:evenodd;stroke:none;stroke-width:0.13333333"
         id="path42" />
      <path
         inkscape:connector-curvature="0"
         d="m 1080.3053,1094.9067 c -7.988,-7.6854 -23.0453,5.0413 -30.5187,15.7213 -7.4213,10.604 -30.1666,36.072 -26.044,40.704 5.6294,6.3253 29.0627,-16.728 40.424,-25.8507 10.468,-8.4053 23.4787,-23.512 16.1387,-30.5746"
         style="fill:#e9b1ab;fill-opacity:1;fill-rule:evenodd;stroke:none;stroke-width:0.13333333"
         id="path44" />
      <path
         inkscape:connector-curvature="0"
         d="m 1067.16,1022.22 c 17.536,-1.4013 12.5533,32.5947 11.4293,50.6293 -1.096,17.56 -3.2387,54.512 -11.916,54.2854 -8.6787,-0.2254 -12.312,-35.8027 -14.2453,-54.0134 -1.8547,-17.4746 -2.048,-49.56 14.732,-50.9013"
         style="fill:#e9b1ab;fill-opacity:1;fill-rule:evenodd;stroke:none;stroke-width:0.13333333"
         id="path46" />
      <path
         inkscape:connector-curvature="0"
         d="m 1067.3373,1022.3973 c 17.4773,-2.0013 12.376,32.4174 11.252,50.452 -0.564,9.0454 -1.408,23.2374 -3.2773,34.8414 -7.236,-5.656 -13.74,-6.6574 -19.3534,-6.656 -1.6293,-9.7814 -2.728,-20.3467 -3.5306,-27.9134 -1.8547,-17.476 -4.5267,-48.4973 14.9093,-50.724"
         style="fill:#66ccd6;fill-opacity:1;fill-rule:evenodd;stroke:none;stroke-width:0.13333333"
         id="path48" />
      <path
         inkscape:connector-curvature="0"
         d="m 1055.0546,1095.188 c 2.4134,-0.6547 5.6134,-0.5267 8.688,0.1467 3.9934,0.8733 7.9107,2.692 9.7067,4.916 l -2.488,2 c -1.328,-1.644 -4.5293,-3.0547 -7.8933,-3.7907 -2.8534,-0.624 -5.724,-0.7453 -7.5374,-0.088 -0.164,-1.0587 -0.3226,-2.1213 -0.476,-3.184"
         style="fill:#ffffff;fill-opacity:1;fill-rule:nonzero;stroke:none;stroke-width:0.13333333"
         id="path50" />
      <path
         inkscape:connector-curvature="0"
         d="m 1086.1333,1203.7627 c -20.3773,-2.6254 -42.7733,-32.088 -41.7587,-46.0294 1.0134,-13.94 9.2334,-26.172 19.4974,-45.176 10.2653,-19.004 8.2346,-41.5853 -7.968,-66.4426 -12.156,-18.6507 20.5946,-34.1707 51.652,-38.6107 26.6146,-3.8027 48.9093,-10.14132 46.4293,6.3253 -5.4027,35.844 -28.324,86.3587 -23.2093,107.3427 5.1146,20.984 9.968,34.9 7.4173,48.6427 -2.5507,13.7426 -31.68,36.572 -52.06,33.948"
         style="fill:#66ccd6;fill-opacity:1;fill-rule:evenodd;stroke:none;stroke-width:0.13333333"
         id="path52" />
      <path
         inkscape:connector-curvature="0"
         d="m 1041.7906,1207.144 c 8.6574,49.4693 21.8347,121.3813 37.4707,120.2267 15.6373,-1.156 13.1413,-92.9894 8.3973,-128.1707 -14.488,-107.4333 -60.6786,-76.6947 -45.868,7.944"
         style="fill:#f3c3bc;fill-opacity:1;fill-rule:evenodd;stroke:none;stroke-width:0.13333333"
         id="path54" />
      <path
         inkscape:connector-curvature="0"
         d="m 1065.0933,1324.82 c 5.744,39.0733 12.8107,157.8331 23.792,143.4067 11.6,-15.24 9.7867,-94.9067 8.8387,-115.8267 -3.0147,-66.5853 -49.268,-140.72 -32.6307,-27.58"
         style="fill:#f3c3bc;fill-opacity:1;fill-rule:evenodd;stroke:none;stroke-width:0.13333333"
         id="path56" />
      <path
         inkscape:connector-curvature="0"
         d="m 1145.5573,1087.584 c 11.0147,-1.2413 14.288,15.2027 13.724,28.2253 -0.5587,12.9307 1.5893,46.6054 -4.5,47.7734 -8.316,1.5973 -10.6027,-28.2334 -14.072,-42.384 -3.1973,-13.0387 -5.2733,-32.4734 4.848,-33.6147"
         style="fill:#e9b1ab;fill-opacity:1;fill-rule:evenodd;stroke:none;stroke-width:0.13333333"
         id="path58" />
      <path
         inkscape:connector-curvature="0"
         d="m 1146.1306,1002.5453 c -17.5453,-1.2693 -13.3346,35.236 -12.0746,53.2614 1.2266,17.552 3.6466,54.4853 12.3213,54.1946 8.676,-0.2906 12.0453,-35.8946 13.84,-54.1186 1.724,-17.4894 2.704,-52.1214 -14.0867,-53.3374"
         style="fill:#e9b1ab;fill-opacity:1;fill-rule:evenodd;stroke:none;stroke-width:0.13333333"
         id="path60" />
      <path
         inkscape:connector-curvature="0"
         d="m 1146.1306,1002.5453 c -17.5453,-1.2693 -13.3346,35.236 -12.0746,53.2614 0.7253,10.3933 1.872,27.584 4.4853,39.816 3.6093,-2.4134 10.2933,-3.9947 16.8373,-3.4774 2.4534,-11.6546 3.8747,-26.468 4.8387,-36.2626 1.724,-17.4894 2.704,-52.1214 -14.0867,-53.3374"
         style="fill:#66ccd6;fill-opacity:1;fill-rule:evenodd;stroke:none;stroke-width:0.13333333"
         id="path62" />
      <path
         inkscape:connector-curvature="0"
         d="m 1141.4426,1203.68 c -1.5453,50.1973 -4.3786,123.252 -20.02,124.328 -15.6426,1.0773 -26.212,-90.1813 -26.5106,-125.68 -0.9134,-108.4027 49.1746,-84.5333 46.5306,1.352"
         style="fill:#f3c3bc;fill-opacity:1;fill-rule:evenodd;stroke:none;stroke-width:0.13333333"
         id="path64" />
      <path
         inkscape:connector-curvature="0"
         d="m 1133.1013,1323.6747 c -5.444,39.112 -11.5987,157.9253 -22.6907,143.592 -11.716,-15.1467 -10.5146,-94.8267 -9.728,-115.76 2.504,-66.608 48.1854,-141.096 32.4187,-27.832"
         style="fill:#f3c3bc;fill-opacity:1;fill-rule:evenodd;stroke:none;stroke-width:0.13333333"
         id="path66" />
      <path
         inkscape:connector-curvature="0"
         d="m 1132.716,1097.3467 c -1.9267,11.564 -1.1107,25.0546 6.5973,44.3266 7.7093,19.272 -0.2973,119.956 -1.8347,142.9974 -28.2666,9.636 -62.9333,8.8213 -78.9933,5.6093 -14.804,-42.4453 -24.228,-102.0787 -20.3333,-128.4667 3.896,-26.3866 16.292,-36.2546 20.0053,-42.356 3.7133,-6.1013 9.5427,-16.9173 11.1347,-22.752 13.4906,7.0654 43.5106,11.5627 63.424,0.6414"
         style="fill:#424959;fill-opacity:1;fill-rule:evenodd;stroke:none;stroke-width:0.13333333"
         id="path68" />
      <path
         inkscape:connector-curvature="0"
         d="m 1095.06,1448.5867 c -1.0067,10.5333 4.4053,27.7868 1.6453,34.5732 -2.7587,6.8 -21.484,6.4136 -29.6667,15.2537 -7.6186,8.2395 -33.3986,8.9599 -35.48,-1.1204 -0.876,-4.2401 5.0707,-8.3468 14.328,-12.4265 2.944,-1.3068 11.0974,-7.947 19.444,-14.0266 8.032,-5.8668 15.2867,-15.9468 14.2894,-22.1068 -1.96,-12.12 16.7386,-13.7333 15.44,-0.1466"
         style="fill:#f3c3bc;fill-opacity:1;fill-rule:evenodd;stroke:none;stroke-width:0.13333333"
         id="path70" />
      <path
         inkscape:connector-curvature="0"
         d="m 1099.6866,967.73868 h 20.46 c 0.044,0 0.079,0.036 0.079,0.08 v 38.83332 c 0,5.648 -4.62,10.268 -10.2693,10.268 v 0 c -5.648,0 -10.2694,-4.62 -10.2694,-10.268 v -38.91332"
         style="fill:#e9b1ab;fill-opacity:1;fill-rule:evenodd;stroke:none;stroke-width:0.13333333"
         id="path72" />
      <path
         inkscape:connector-curvature="0"
         d="m 1101.9493,887.33335 c 39.8093,-3.70933 46.788,42.72933 41.5867,74.79333 -2.6334,16.244 -19.5427,31.864 -31.5454,32.98267 -12.3426,1.14933 -31.856,-12.48533 -38.3986,-29.088 -11.8027,-29.95067 -10.6494,-75.05333 28.3573,-78.688"
         style="fill:#f3c3bc;fill-opacity:1;fill-rule:evenodd;stroke:none;stroke-width:0.13333333"
         id="path74" />
      <path
         inkscape:connector-curvature="0"
         d="m 1074.5453,941.11468 c 0.9187,-0.44533 5.8973,-2.656 15.3613,-2.836 9.464,-0.17866 11.6347,1.46267 12.584,1.28534 1.1107,-0.20534 2.3054,-0.47067 3.448,-0.57734 1.1427,-0.10666 2.452,-0.0787 3.624,-0.0813 0.9654,-0.001 2.796,-2.016 12.1307,-3.588 9.3347,-1.572 14.6347,-0.31867 15.62,-0.0507 1.1693,0.31867 1.1947,3.4 0.2947,4.09867 -0.9014,0.69733 -1.456,3.208 -3.436,6.464 -1.9787,3.25733 -13.0214,4.604 -16.8814,4.50267 -3.872,-0.10267 -7.1666,-4.456 -7.8186,-5.8 -1.464,-3.01867 -4.9707,-2.692 -5.8534,0.54533 -0.392,1.44133 -2.8253,6.32933 -6.612,7.144 -3.7746,0.81333 -14.876,1.53067 -17.4226,-1.30533 -2.5467,-2.83467 -3.556,-5.19867 -4.5707,-5.71867 -1.0147,-0.52 -1.5587,-3.55333 -0.468,-4.08267"
         style="fill:#fbdbd5;fill-opacity:1;fill-rule:evenodd;stroke:none;stroke-width:0.13333333"
         id="path76" />
      <path
         inkscape:connector-curvature="0"
         d="m 1126.9706,963.87202 c -9.6933,0.304 -26.34,1.98 -34.8746,3.396 9.58,19.048 29.1866,17.628 34.8746,-3.396"
         style="fill:#f4697b;fill-opacity:1;fill-rule:evenodd;stroke:none;stroke-width:0.13333333"
         id="path78" />
      <path
         inkscape:connector-curvature="0"
         d="m 1090.7253,933.56268 c 1.5733,-0.14666 3.1453,2.92134 3.512,6.85467 0.3667,3.932 -0.612,7.23867 -2.184,7.384 -1.5733,0.14667 -3.1453,-2.92133 -3.512,-6.85333 -0.3667,-3.93334 0.612,-7.23867 2.184,-7.38534"
         style="fill:#46454e;fill-opacity:1;fill-rule:evenodd;stroke:none;stroke-width:0.13333333"
         id="path80" />
      <path
         inkscape:connector-curvature="0"
         d="m 1120.4306,930.79468 c 1.5734,-0.14666 3.1454,2.92267 3.5107,6.85467 0.3667,3.932 -0.6107,7.23867 -2.184,7.384 -1.5733,0.14667 -3.1453,-2.92133 -3.5107,-6.85333 -0.3666,-3.932 0.6107,-7.23867 2.184,-7.38534"
         style="fill:#46454e;fill-opacity:1;fill-rule:evenodd;stroke:none;stroke-width:0.13333333"
         id="path82" />
      <path
         inkscape:connector-curvature="0"
         d="m 1064.4586,940.34402 c 2.532,-0.76534 5.8547,2.81466 7.4227,7.99733 1.568,5.184 0.7867,10.00533 -1.744,10.77067 -2.532,0.76666 -5.8547,-2.81467 -7.4227,-7.99734 -1.568,-5.18266 -0.7866,-10.00533 1.744,-10.77066"
         style="fill:#f3c3bc;fill-opacity:1;fill-rule:evenodd;stroke:none;stroke-width:0.13333333"
         id="path84" />
      <path
         inkscape:connector-curvature="0"
         d="m 1147.4973,932.60668 c -2.6293,-0.28533 -5.2333,3.848 -5.816,9.232 -0.584,5.38267 1.0747,9.97734 3.704,10.26267 2.6293,0.28533 5.2333,-3.848 5.816,-9.23067 0.584,-5.384 -1.0747,-9.97866 -3.704,-10.264"
         style="fill:#f3c3bc;fill-opacity:1;fill-rule:evenodd;stroke:none;stroke-width:0.13333333"
         id="path86" />
      <path
         inkscape:connector-curvature="0"
         d="m 1126.348,964.07468 c -9.32,3.18134 -23.6494,4.564 -33.832,3.36667 9.4053,14.728 27.264,13.728 33.832,-3.36667"
         style="fill:#c38581;fill-opacity:1;fill-rule:evenodd;stroke:none;stroke-width:0.13333333"
         id="path88" />
      <path
         inkscape:connector-curvature="0"
         d="m 1105.344,959.29068 c 7.2306,0.81734 9.7413,-3.788 9.4506,-7.42666 2.4307,6.52266 -2.0773,10.59333 -9.4506,7.42666"
         style="fill:#c38581;fill-opacity:1;fill-rule:evenodd;stroke:none;stroke-width:0.13333333"
         id="path90" />
      <path
         inkscape:connector-curvature="0"
         d="m 1125.232,964.44002 c -9.004,2.82133 -22.0134,4.06666 -31.708,3.11066 5.532,6.132 27.0426,3.91334 31.708,-3.11066"
         style="fill:#ffffff;fill-opacity:1;fill-rule:evenodd;stroke:none;stroke-width:0.13333333"
         id="path92" />
      <path
         inkscape:connector-curvature="0"
         d="m 1113.8706,924.49068 c 2.7187,-1.51733 7.0934,-4.27866 13.4774,-1.38666 2.876,1.30133 2.736,2.38 -0.3587,1.28 -5.2627,-1.86934 -7.832,0.0467 -12.1493,2.32666 -1.6734,0.88267 -2.8187,-1.188 -0.9694,-2.22"
         style="fill:#684535;fill-opacity:1;fill-rule:evenodd;stroke:none;stroke-width:0.13333333"
         id="path94" />
      <path
         inkscape:connector-curvature="0"
         d="m 1095.732,926.18135 c -2.952,-0.98933 -7.7614,-2.89467 -13.5014,1.12533 -2.5866,1.812 -2.2493,2.84534 0.588,1.19334 4.8267,-2.80934 7.7067,-1.40134 12.3707,0.0413 1.8067,0.55867 2.5507,-1.688 0.5427,-2.36"
         style="fill:#684535;fill-opacity:1;fill-rule:evenodd;stroke:none;stroke-width:0.13333333"
         id="path96" />
      <path
         inkscape:connector-curvature="0"
         d="m 1136.2613,935.02935 7.6693,-0.71467 0.3894,4.184 -7.668,0.71467 -0.3907,-4.184"
         style="fill:#e93a3e;fill-opacity:1;fill-rule:evenodd;stroke:none;stroke-width:0.13333333"
         id="path98" />
      <path
         inkscape:connector-curvature="0"
         d="m 1068.6306,941.33202 7.6694,-0.71467 0.3906,4.18267 -7.6706,0.71466 -0.3894,-4.18266"
         style="fill:#e93a3e;fill-opacity:1;fill-rule:evenodd;stroke:none;stroke-width:0.13333333"
         id="path100" />
      <path
         inkscape:connector-curvature="0"
         d="m 1067.1813,942.16668 c 0.5453,3.40667 4.3587,10.184 3.4347,2.192 -0.924,-7.99066 -1.7307,-28.2 5.8546,-37.344 7.5854,-9.14266 17.6427,-5.23333 26.3627,-6.04533 0.071,-0.007 0.1373,-0.016 0.2067,-0.0253 0.069,-0.004 0.1373,-0.007 0.2066,-0.0133 8.72,-0.81333 17.8827,-6.51333 27.0267,1.072 9.1427,7.584 12.084,27.59467 12.652,35.61867 0.5693,8.02533 3.0653,0.66 2.972,-2.78933 -0.1107,-4.08534 1.7,-15.436 -6.36,-30.46134 -5.7853,-10.784 -12.656,-18.576 -33.6,-19.31866 -6.0947,-0.21467 -14.992,0.592 -20.2427,6.864 -12.224,1.15466 -17.3066,14.17866 -19.676,21.66133 -5.1466,16.25733 0.516,24.55333 1.1627,28.58933"
         style="fill:#684535;fill-opacity:1;fill-rule:evenodd;stroke:none;stroke-width:0.13333333"
         id="path102" />
      <path
         inkscape:connector-curvature="0"
         d="m 1023.5106,1149.1053 c 1.5907,-5.16 36.164,3.328 37.6067,10.1174 0.2813,1.3266 -13.1813,-2.9774 -11.904,-1.052 2.2227,3.3493 18.576,10.0186 20.8987,14.272 2.3226,4.2533 -21.756,-8.172 -16.2547,-2.4214 5.5,5.7507 9.3773,7.736 9.5853,11.072 0.1534,2.444 -15.8706,-12.9133 -12.9813,-7.1626 2.3867,4.7506 5.4067,7.3693 5.268,10.1853 -0.1827,3.6707 -15.7253,-15.4707 -14.0907,-11.2933 1.804,4.6053 3.9707,8.3546 4.1907,10.4546 0.352,3.3494 -23.8947,-29.0653 -22.3187,-34.172"
         style="fill:#e9b1ab;fill-opacity:1;fill-rule:evenodd;stroke:none;stroke-width:0.13333333"
         id="path104" />
      <path
         inkscape:connector-curvature="0"
         d="m 1039.0933,1176.4693 11.2867,-34.0786 38.412,31.8146 -40.0747,33.3894 -9.624,-31.1254"
         style="fill:#424959;fill-opacity:1;fill-rule:evenodd;stroke:none;stroke-width:0.13333333"
         id="path106" />
      <path
         inkscape:connector-curvature="0"
         d="m 1157.972,1157.4547 c -0.7227,-5.3507 -35.4187,-1.5214 -37.9547,4.9373 -0.496,1.2613 13.4907,-0.7733 11.9147,0.916 -2.7414,2.9387 -19.968,6.8333 -22.9574,10.648 -2.9893,3.8147 22.8027,-4.4893 16.432,0.28 -6.3693,4.7693 -10.52,6.092 -11.2733,9.3493 -0.552,2.3854 17.776,-10.1346 13.9813,-4.936 -3.1346,4.2947 -6.5426,6.3827 -6.868,9.1827 -0.4226,3.6507 18.052,-12.68 15.752,-8.828 -2.5346,4.2467 -5.2866,7.5907 -5.8493,9.6253 -0.7467,2.7027 19.04,-16.544 25.1947,-26.2773 1.2333,-1.9507 1.748,-4.0133 1.628,-4.8973"
         style="fill:#e9b1ab;fill-opacity:1;fill-rule:evenodd;stroke:none;stroke-width:0.13333333"
         id="path108" />
      <path
         inkscape:connector-curvature="0"
         d="m 1140.292,1183.6107 -11.2867,-34.0774 -38.4133,31.8147 40.076,33.3893 9.624,-31.1266"
         style="fill:#424959;fill-opacity:1;fill-rule:evenodd;stroke:none;stroke-width:0.13333333"
         id="path110" />
      <path
         inkscape:connector-curvature="0"
         d="m 1079.3653,941.46268 c -2.2653,2.53467 -1.4827,7.45334 2.1107,9.464 3.244,1.81467 13.58,1.30267 16.6826,-0.15866 3.1014,-1.46134 4.8827,-6.31867 3.4774,-8.812 -1.404,-2.49334 -7.4267,-2.99334 -11.9867,-2.792 -4.56,0.20266 -9.0907,0.964 -10.284,2.29866 z m 53.2747,-4.964 c -1.4187,-1.09066 -6.012,-1.00266 -10.5307,-0.35866 -4.5187,0.644 -10.3453,2.248 -11.2653,4.95866 -0.92,2.70934 1.728,7.15467 5.0466,8.01734 3.32,0.86266 13.572,-0.544 16.424,-2.92667 3.16,-2.63867 3.0214,-7.61867 0.3254,-9.69067 z m -58.0947,4.616 c 0.9187,-0.44533 5.8973,-2.656 15.3613,-2.836 9.464,-0.17866 11.6347,1.46267 12.584,1.28534 1.1107,-0.20534 2.3054,-0.47067 3.448,-0.57734 1.1427,-0.10666 2.452,-0.0787 3.624,-0.0813 0.9654,-0.001 2.796,-2.016 12.1307,-3.588 9.3347,-1.572 14.6347,-0.31867 15.62,-0.0507 1.1693,0.31867 1.1947,3.4 0.2947,4.09867 -0.9014,0.69733 -1.456,3.208 -3.436,6.464 -1.9787,3.25733 -13.0214,4.604 -16.8814,4.50267 -3.872,-0.10267 -7.1666,-4.456 -7.8186,-5.8 -1.464,-3.01867 -4.9707,-2.692 -5.8534,0.54533 -0.392,1.44133 -2.8253,6.32933 -6.612,7.144 -3.7746,0.81333 -14.876,1.53067 -17.4226,-1.30533 -2.5467,-2.83467 -3.556,-5.19867 -4.5707,-5.71867 -1.0147,-0.52 -1.5587,-3.55333 -0.468,-4.08267 v 0"
         style="fill:#e93a3e;fill-opacity:1;fill-rule:evenodd;stroke:none;stroke-width:0.13333333"
         id="path112" />
      <path
         inkscape:connector-curvature="0"
         d="m 1140.6626,916.60135 c -3.9333,1.17467 -11.8973,2.684 -21.272,4.088 -1.8733,-4.98133 -3.8293,-10.54 -7.568,-16.43067 0.8934,6.10934 1.816,12.18534 2.3587,17.17867 -7.8493,1.084 -16.2987,2.04933 -24,2.672 -0.292,-3.86933 -0.4573,-8.57067 -0.6493,-13.29067 -2.0014,5.01334 -2.7094,9.52534 -3.42,13.592 -7.256,0.48267 -13.556,0.596 -17.6267,0.128 2.088,-20.42133 13.0107,-30.424 30.8587,-32.08666 17.8493,-1.66267 35.148,2.92933 41.3186,24.14933"
         style="fill:#684535;fill-opacity:1;fill-rule:evenodd;stroke:none;stroke-width:0.13333333"
         id="path114" />
      <path
         inkscape:connector-curvature="0"
         d="m 1067.616,1020.204 c 10.5,-6.1173 25.4053,-10.6213 39.94,-12.7 12.4293,-1.776 23.9173,-4.104 32.3786,-4.4053 -19.308,32.9773 -56.5986,29.94 -72.3186,17.1053"
         style="fill:#e9b1ab;fill-opacity:1;fill-rule:evenodd;stroke:none;stroke-width:0.13333333"
         id="path116" />
      <path
         inkscape:connector-curvature="0"
         d="m 1139.1666,1039.552 c -1.948,17.58 5.524,31.372 -3.4773,38.476 -9,7.1053 -23.4907,1.8787 -36.4907,1.8787 -13,0 -28.052,4.7173 -35.0173,-3.3694 -6.9653,-8.0866 0.5907,-20.5 -0.6773,-36.0026 2.1026,12.152 -2.0747,25.5106 7.3573,32.76 5.788,4.4506 18.1813,0.6253 28.3493,1.0493 13.296,0.5533 25.244,4.3253 33.5014,-3.3 5.8213,-5.376 3.52,-23.4453 6.4546,-31.492"
         style="fill:#5cc9d1;fill-opacity:1;fill-rule:evenodd;stroke:none;stroke-width:0.13333333"
         id="path118" />
      <path
         inkscape:connector-curvature="0"
         d="m 1064.9773,1021.84 c 3.6613,3.1733 8.1067,5.692 13.016,7.476 8.4133,3.056 18.1707,3.9467 27.6773,2.272 9.4827,-1.6707 18.7,-5.896 26.0614,-13.0733 4.24,-4.136 7.872,-9.2587 10.5893,-15.4427 1.2027,0.017 2.3293,0.091 3.3733,0.2253 -2.932,7.052 -6.972,12.856 -11.7373,17.504 -7.8533,7.6574 -17.6613,12.1627 -27.736,13.936 -10.052,1.7707 -20.3867,0.8227 -29.316,-2.4213 -5.5293,-2.0093 -10.5293,-4.9027 -14.6,-8.58 0.8427,-0.6453 1.7347,-1.2773 2.672,-1.896"
         style="fill:#ffffff;fill-opacity:1;fill-rule:nonzero;stroke:none;stroke-width:0.13333333"
         id="path120" />
      <path
         inkscape:connector-curvature="0"
         d="m 1156.272,1087.5253 c -2.0254,-0.2986 -5.9094,0.2214 -9.7374,1.2107 -3.5906,0.928 -7.004,2.2547 -8.624,3.688 -0.2053,-1.1253 -0.4013,-2.2787 -0.5866,-3.456 2.208,-1.36 5.2773,-2.5107 8.4106,-3.32 4.0414,-1.044 8.3094,-1.532 11.0574,-1.18 -0.1667,1.0307 -0.34,2.0507 -0.52,3.0573"
         style="fill:#ffffff;fill-opacity:1;fill-rule:nonzero;stroke:none;stroke-width:0.13333333"
         id="path122" />
      <path
         inkscape:connector-curvature="0"
         d="m 1055.04,1142.4347 -15.1667,44.472"
         style="fill:none;stroke:#2a2d3a;stroke-width:3.20013309;stroke-linecap:butt;stroke-linejoin:miter;stroke-miterlimit:22.92560005;stroke-dasharray:none;stroke-opacity:1"
         id="path124" />
      <path
         inkscape:connector-curvature="0"
         d="m 1123.932,1146.8053 15.1666,44.4707"
         style="fill:none;stroke:#2a2d3a;stroke-width:3.20013309;stroke-linecap:butt;stroke-linejoin:miter;stroke-miterlimit:22.92560005;stroke-dasharray:none;stroke-opacity:1"
         id="path126" />
      <path
         inkscape:connector-curvature="0"
         d="m 1067.8933,1103.6187 c 13.1093,6.94 44.2133,11.568 63.236,2.0573"
         style="fill:none;stroke:#2a2d3a;stroke-width:3.20013309;stroke-linecap:butt;stroke-linejoin:miter;stroke-miterlimit:22.92560005;stroke-dasharray:none;stroke-opacity:1"
         id="path128" />
      <path
         inkscape:connector-curvature="0"
         d="m 1096.7053,1483.1599 c -2.7587,6.8 -17.6147,6.9598 -29.1733,16.2401 -11.276,9.0667 -39.2014,7.4932 -37.0987,-2.4265 0.7213,-3.4136 4.124,-6.4136 10.4093,-9.7068 2.5107,-0.4402 11.1587,3.2802 10.7294,8.4401 11.9973,3.6667 42.984,-20.6667 45.0226,-30.0535 1.728,5.4664 2.0427,12.7467 0.1107,17.5066"
         style="fill:#c73032;fill-opacity:1;fill-rule:evenodd;stroke:none;stroke-width:0.13333333"
         id="path130" />
      <path
         inkscape:connector-curvature="0"
         d="m 1103.9866,1446.3467 c 1.5547,10.2133 -4.7226,27.0397 -2.9013,34.133 1.82,7.1067 20.428,9.24 27.348,19.1067 6.444,9.1871 31.8933,13.36 35.3093,3.6537 1.4387,-4.0937 -3.9026,-8.9469 -12.528,-14.2401 -2.7426,-1.6803 -9.9293,-9.3599 -17.3813,-16.5203 -7.172,-6.8797 -15.404,-18.013 -14.94,-22.8264 1.384,-14.36 -16.7307,-15.3066 -14.9067,-3.3066"
         style="fill:#f3c3bc;fill-opacity:1;fill-rule:evenodd;stroke:none;stroke-width:0.13333333"
         id="path132" />
      <path
         inkscape:connector-curvature="0"
         d="m 1100.556,1480.4136 c 1.8213,7.1061 16.6493,9.5728 26.856,20.3333 9.9546,10.4932 37.9653,12.3995 37.216,2.2932 -0.2574,-3.4802 -2.9387,-7.1204 -8.724,-11.227 -2.428,-0.773 -12.0414,1.9338 -12.3094,7.1066 -12.3826,2.0136 -40.18,-26.453 -40.94,-36.013 -2.4466,5.1733 -3.3733,12.5334 -2.0986,17.5069"
         style="fill:#c73032;fill-opacity:1;fill-rule:evenodd;stroke:none;stroke-width:0.13333333"
         id="path134" />
    </g>
  </g>
</svg>
