<?xml version="1.0" encoding="UTF-8" standalone="no"?>
<!-- Created with Inkscape (http://www.inkscape.org/) -->

<svg
   xmlns:dc="http://purl.org/dc/elements/1.1/"
   xmlns:cc="http://creativecommons.org/ns#"
   xmlns:rdf="http://www.w3.org/1999/02/22-rdf-syntax-ns#"
   xmlns:svg="http://www.w3.org/2000/svg"
   xmlns="http://www.w3.org/2000/svg"
   xmlns:sodipodi="http://sodipodi.sourceforge.net/DTD/sodipodi-0.dtd"
   xmlns:inkscape="http://www.inkscape.org/namespaces/inkscape"
   width="16.099302mm"
   height="52.916668mm"
   viewBox="0 0 16.099302 52.916668"
   version="1.1"
   id="svg9551"
   inkscape:version="0.92.3 (2405546, 2018-03-11)"
   sodipodi:docname="8.svg">
  <defs
     id="defs9545" />
  <sodipodi:namedview
     id="base"
     pagecolor="#ffffff"
     bordercolor="#666666"
     borderopacity="1.0"
     inkscape:pageopacity="0.0"
     inkscape:pageshadow="2"
     inkscape:zoom="0.35"
     inkscape:cx="-1029.6807"
     inkscape:cy="23.005785"
     inkscape:document-units="mm"
     inkscape:current-layer="layer1"
     showgrid="false"
     fit-margin-top="0"
     fit-margin-left="0"
     fit-margin-right="0"
     fit-margin-bottom="0"
     inkscape:window-width="1613"
     inkscape:window-height="995"
     inkscape:window-x="67"
     inkscape:window-y="27"
     inkscape:window-maximized="1" />
  <metadata
     id="metadata9548">
    <rdf:RDF>
      <cc:Work
         rdf:about="">
        <dc:format>image/svg+xml</dc:format>
        <dc:type
           rdf:resource="http://purl.org/dc/dcmitype/StillImage" />
        <dc:title></dc:title>
      </cc:Work>
    </rdf:RDF>
  </metadata>
  <g
     inkscape:label="Layer 1"
     inkscape:groupmode="layer"
     id="layer1"
     transform="translate(-251.26969,-102.00361)">
    <g
       transform="matrix(0.07911369,0,0,0.07911369,149.25665,32.906947)"
       id="g9459">
      <path
         inkscape:connector-curvature="0"
         d="m 1358.0933,1190.04 c -0.3867,92.976 14.96,137.232 30.64,137.232 15.68,0 17.9067,-87.056 15.76,-119.2293 -6.52,-98.2587 -46.08,-96.0254 -46.4,-18.0027"
         style="fill:#f3c3bc;fill-opacity:1;fill-rule:evenodd;stroke:none;stroke-width:0.13333333"
         id="path1572" />
      <path
         inkscape:connector-curvature="0"
         d="m 1458.9066,1192.2933 c -0.013,90.368 -14.5733,134.9787 -30.2533,134.9787 -15.68,0 -17.9067,-87.056 -15.7733,-119.2293 6.5333,-98.2574 46.04,-93.772 46.0266,-15.7494"
         style="fill:#f3c3bc;fill-opacity:1;fill-rule:evenodd;stroke:none;stroke-width:0.13333333"
         id="path1574" />
      <path
         inkscape:connector-curvature="0"
         d="m 1396.8133,1542.2531 c 52,0 94.4133,-16.7062 94.4133,-37.2 0,-20.4932 -42.4133,-37.1998 -94.4133,-37.1998 -52,0 -94.404,16.7066 -94.404,37.1998 0,20.4938 42.404,37.2 94.404,37.2"
         style="fill:#447186;fill-opacity:1;fill-rule:evenodd;stroke:none;stroke-width:0.13333333"
         id="path1576" />
      <path
         inkscape:connector-curvature="0"
         d="m 1427.3333,1469.4136 c 1.84,10.5061 -2.5733,19.7197 -3.72,34.6796 -1.36,17.6 10.96,22.3469 18.0933,22.2 7.1467,-0.1333 18.5867,-7.5864 16.2667,-23.2801 -0.2933,-2.0131 -0.4267,-4.36 -1.1333,-6.0131 -4.96,-11.6536 -14.0134,-22.5735 -13.3867,-28.7867 1.3733,-13.52 -18.72,-13.6266 -16.12,1.2003"
         style="fill:#ffffff;fill-opacity:1;fill-rule:evenodd;stroke:none;stroke-width:0.13333333"
         id="path1578" />
      <path
         inkscape:connector-curvature="0"
         d="m 1325.2066,1076.8867 c -11.208,-10.9987 -20.3386,-16.22 -26.1946,-16.9614 -3.2347,-0.4093 -5.7774,0.3974 -7.5094,2.268 -1.66,1.7934 -2.344,4.388 -1.9413,7.64 0.8133,6.5694 6.5227,17.0387 18.4,29.5574 l 4.6413,-4.3934 c -10.8786,-11.4666 -16.0493,-20.572 -16.7173,-25.964 -0.16,-1.2866 -0.052,-2.136 0.2973,-2.5133 0.2787,-0.3 0.9654,-0.396 2.0414,-0.26 4.624,0.5853 12.376,5.24 22.5013,15.1747 l 4.4813,-4.548"
         style="fill:#5cc9d1;fill-opacity:1;fill-rule:nonzero;stroke:none;stroke-width:0.13333333"
         id="path1580" />
      <path
         inkscape:connector-curvature="0"
         d="m 1382.68,1103.996 -17.5067,101.9573 c -0.5467,3.252 -21.08,3.6214 -24.24,2.6747 l -27.6507,-8.288 c -3.16,-0.9467 -8.9666,-4.2213 -9.4613,-7.4827 -4.3867,-28.9373 11.668,-48.924 3.8067,-63.6586 -11.2294,-21.0454 3.9706,-46.4587 16.5533,-47.488 12.3387,-1.0107 61.2987,10.2586 58.4987,22.2853"
         style="fill:#7ad3dc;fill-opacity:1;fill-rule:evenodd;stroke:none;stroke-width:0.13333333"
         id="path1582" />
      <path
         inkscape:connector-curvature="0"
         d="m 1408.1333,1217.0253 c -44.5067,0 -58.1333,-35.1893 -44.9467,-69.52 8.4934,-22.156 -6.0533,-77.3026 -16.2533,-108.4053 -15.756,-47.99598 139.3067,-44.72532 125.16,-1.596 -3.44,10.4787 -10.2667,10.3547 -14.3867,22.9733 -8.0933,24.8307 -10.6533,64.4214 -5.2,79.1814 13.9067,37.6253 4.52,77.6746 -44.3733,77.3666"
         style="fill:#394f82;fill-opacity:1;fill-rule:evenodd;stroke:none;stroke-width:0.13333333"
         id="path1584" />
      <path
         inkscape:connector-curvature="0"
         d="m 1372.6,1332.4907 c 2.6533,36.2426 -0.92,154.229 14.2,136.1224 11.3333,-13.5731 14.6666,-85.5331 16.6133,-104.7064 6.1733,-61.3054 -38.48,-136.3614 -30.8133,-31.416"
         style="fill:#f3c3bc;fill-opacity:1;fill-rule:evenodd;stroke:none;stroke-width:0.13333333"
         id="path1586" />
      <path
         inkscape:connector-curvature="0"
         d="m 1447.96,1335.9067 c 0.6933,39.64 0.3333,156.0001 -16.16,137.4797 -12.3734,-13.8931 -16.56,-119.1731 -15.84,-143.2197 1.9066,-63.028 30.1066,-101.9774 32,5.74"
         style="fill:#f3c3bc;fill-opacity:1;fill-rule:evenodd;stroke:none;stroke-width:0.13333333"
         id="path1588" />
      <path
         inkscape:connector-curvature="0"
         d="m 1395.8666,1446.6267 c -3.12,10.6133 2.9067,32.1998 -0.04,39.4801 -2.96,7.2667 -23.0133,8.9864 -31.7866,18.4667 -8.16,8.8129 -37.5974,8.0666 -39.8254,-2.7204 -0.9373,-4.5599 7.26,-9.5599 17.172,-13.9334 3.16,-1.3864 10.9734,-8.8 19.92,-15.3333 8.6,-6.2664 17.0134,-17.4931 16.3334,-22.7597 -1.6667,-12.9734 21.8933,-15.6667 18.2266,-3.2"
         style="fill:#f3c3bc;fill-opacity:1;fill-rule:evenodd;stroke:none;stroke-width:0.13333333"
         id="path1590" />
      <path
         inkscape:connector-curvature="0"
         d="m 1425.7333,1461.7333 c 1.84,10.5068 0.04,23.8136 -1.8533,38.7334 -1.8934,14.9197 10.6933,20.213 17.8266,20.0666 7.1467,-0.1333 20.0134,-10.2265 15.3334,-23.2932 -4.68,-13.0537 -14.3067,-27.6932 -13.5867,-34.7868 1.3733,-13.52 -20.32,-15.5466 -17.72,-0.72"
         style="fill:#e93a3e;fill-opacity:1;fill-rule:evenodd;stroke:none;stroke-width:0.13333333"
         id="path1592" />
      <path
         inkscape:connector-curvature="0"
         d="m 1439.6666,1459.72 c 2.1734,7.4 7.1467,25.3997 8.8134,36.7065 1.4266,9.8 -15.6267,10.9735 -16.4667,2.9334 -1.0267,-9.8402 -2.7733,-28.8266 -3.2933,-37.2266"
         style="fill:none;stroke:#c73032;stroke-width:1.59986663;stroke-linecap:butt;stroke-linejoin:miter;stroke-miterlimit:22.92560005;stroke-dasharray:none;stroke-opacity:1"
         id="path1594" />
      <path
         inkscape:connector-curvature="0"
         d="m 1396.2666,1475.3333 c 0.5334,5.8266 0.76,10.9599 -0.4133,13.8531 -2.96,7.3204 -23.12,9.0537 -31.9333,18.5735 -8.2,8.8666 -37.796,8.1068 -40.0347,-2.7468 -0.2333,-1.1328 -0.4627,-5.0934 0.32,-6.2662 2.3707,-3.5605 9.448,-4.4136 16.9413,-7.7338 3.1734,-1.3866 11.0267,-8.8396 20.0134,-15.4 0.16,-0.1199 0.3333,-0.2396 0.4933,-0.36 1.8667,-0.067 3.5867,0.2938 5.1867,1.1469 4.1866,2.2265 3.3466,5.0136 8.08,5.8531 4.7466,0.8401 16.1733,0.56 18.68,-5.8531 0.92,-0.3333 1.8133,-0.6803 2.6666,-1.0667"
         style="fill:#ffffff;fill-opacity:1;fill-rule:evenodd;stroke:none;stroke-width:0.13333333"
         id="path1596" />
      <path
         inkscape:connector-curvature="0"
         d="m 1395.5066,1443.8133 c -3.1333,10.6667 3.32,33.0268 0.3467,40.3331 -2.96,7.3203 -23.1333,9.0536 -31.9333,18.5733 -8.2,8.8667 -37.796,8.1068 -40.0347,-2.7462 -0.9427,-4.5735 7.296,-9.6 17.2613,-14 3.1734,-1.4 12.4934,-7.7068 21.48,-14.2667 8.64,-6.3068 15.76,-19.1468 15.4934,-24.4135 -0.7467,-14.64 21.0666,-16.0133 17.3866,-3.48"
         style="fill:#f3c3bc;fill-opacity:1;fill-rule:evenodd;stroke:none;stroke-width:0.13333333"
         id="path1598" />
      <path
         inkscape:connector-curvature="0"
         d="m 1395,1455.5333 c 2.64,8.4 2.0266,25.7198 0.8533,28.6131 -2.96,7.3203 -23.1333,9.0536 -31.9333,18.5733 -8.2,8.8538 -37.04,8.2136 -39.2774,-2.6394 -0.944,-4.5606 6.052,-9.7068 16.0107,-14.1068 1.9067,-0.8402 19.88,-10.8932 28.4,-20.9602 1.9733,-2.32 1.56,-6.5066 1.5333,-8.9866 -0.053,-3.52 12.5734,-5.9867 12.9734,-0.8134 0.093,1.3067 0.9866,3.4534 0.8933,5.3734 11.2133,1.3733 9.8533,-2.64 10.5467,-5.0534"
         style="fill:#e93a3e;fill-opacity:1;fill-rule:evenodd;stroke:none;stroke-width:0.13333333"
         id="path1600" />
      <path
         inkscape:connector-curvature="0"
         d="m 1385.2,1460.7067 c -2.08,6.24 -16.5734,22.56 -23.1734,27.56 -14.9733,11.3734 -26.5466,1.4666 -21.64,-1.3864"
         style="fill:none;stroke:#c73032;stroke-width:1.59986663;stroke-linecap:butt;stroke-linejoin:miter;stroke-miterlimit:22.92560005;stroke-dasharray:none;stroke-opacity:1"
         id="path1602" />
      <path
         inkscape:connector-curvature="0"
         d="m 1363.7066,1483.4667 -4.4266,-9.4932"
         style="fill:none;stroke:#ffffff;stroke-width:2.55986643;stroke-linecap:round;stroke-linejoin:round;stroke-miterlimit:22.92560005;stroke-dasharray:none;stroke-opacity:1"
         id="path1604" />
      <path
         inkscape:connector-curvature="0"
         d="m 1367.9733,1478.7599 -4.4267,-9.5068"
         style="fill:none;stroke:#ffffff;stroke-width:2.55986643;stroke-linecap:round;stroke-linejoin:round;stroke-miterlimit:22.92560005;stroke-dasharray:none;stroke-opacity:1"
         id="path1606" />
      <path
         inkscape:connector-curvature="0"
         d="m 1372.04,1474.6797 -4.32,-8.6664"
         style="fill:none;stroke:#ffffff;stroke-width:2.55986643;stroke-linecap:round;stroke-linejoin:round;stroke-miterlimit:22.92560005;stroke-dasharray:none;stroke-opacity:1"
         id="path1608" />
      <path
         inkscape:connector-curvature="0"
         d="m 1353.6,1477.8131 13.08,1.1604"
         style="fill:none;stroke:#ffffff;stroke-width:2.55986643;stroke-linecap:round;stroke-linejoin:round;stroke-miterlimit:22.92560005;stroke-dasharray:none;stroke-opacity:1"
         id="path1610" />
      <path
         inkscape:connector-curvature="0"
         d="m 1358.6266,1473.5735 13.0667,1.1462"
         style="fill:none;stroke:#ffffff;stroke-width:2.55986643;stroke-linecap:round;stroke-linejoin:round;stroke-miterlimit:22.92560005;stroke-dasharray:none;stroke-opacity:1"
         id="path1612" />
      <path
         inkscape:connector-curvature="0"
         d="m 1362.88,1469.6131 13.2933,-0.04"
         style="fill:none;stroke:#ffffff;stroke-width:2.55986643;stroke-linecap:round;stroke-linejoin:round;stroke-miterlimit:22.92560005;stroke-dasharray:none;stroke-opacity:1"
         id="path1614" />
      <path
         inkscape:connector-curvature="0"
         d="m 1357.6933,1486.2265 -4.2667,-8.5197"
         style="fill:none;stroke:#ffffff;stroke-width:2.55986643;stroke-linecap:round;stroke-linejoin:round;stroke-miterlimit:22.92560005;stroke-dasharray:none;stroke-opacity:1"
         id="path1616" />
      <path
         inkscape:connector-curvature="0"
         d="m 1348.24,1481.8803 14.5333,1.8129"
         style="fill:none;stroke:#ffffff;stroke-width:2.55986643;stroke-linecap:round;stroke-linejoin:round;stroke-miterlimit:22.92560005;stroke-dasharray:none;stroke-opacity:1"
         id="path1618" />
      <path
         inkscape:connector-curvature="0"
         d="m 1341.76,1485.2265 16.3733,1.5866"
         style="fill:none;stroke:#ffffff;stroke-width:2.55986643;stroke-linecap:round;stroke-linejoin:round;stroke-miterlimit:22.92560005;stroke-dasharray:none;stroke-opacity:1"
         id="path1620" />
      <path
         inkscape:connector-curvature="0"
         d="m 1351.5333,1490.7599 -3.4,-8.8402"
         style="fill:none;stroke:#ffffff;stroke-width:2.55986643;stroke-linecap:round;stroke-linejoin:round;stroke-miterlimit:22.92560005;stroke-dasharray:none;stroke-opacity:1"
         id="path1622" />
      <path
         inkscape:connector-curvature="0"
         d="m 1343.5466,1508.7864 c -10.468,1.2401 -20.4266,-0.5463 -19.6613,-8.8129 0.216,-2.3204 1.3573,-4.6938 4.552,-7.0667 0.1213,0 0.2427,0 0.3653,0 8.024,0 14.544,7.0667 14.744,15.8796"
         style="fill:#ffffff;fill-opacity:1;fill-rule:evenodd;stroke:none;stroke-width:0.13333333"
         id="path1624" />
      <path
         inkscape:connector-curvature="0"
         d="m 1396.9066,1466.6 c 1.36,7.6797 0.2934,17.6531 -0.4933,19.6136 -0.8933,2.2 -3.7867,4.1328 -7.1467,3.3864 5.4267,-4.8803 7.2267,-17.8932 7.64,-23"
         style="fill:#ffffff;fill-opacity:1;fill-rule:evenodd;stroke:none;stroke-width:0.13333333"
         id="path1626" />
      <path
         inkscape:connector-curvature="0"
         d="m 1358.28,1170.1973 c -0.4134,19.9694 -1.2534,59.7214 1.2266,93.732 2.48,34.0107 5.8267,63.528 5.8267,94.4974 0,35.4133 4.92,88.7066 3.84,103.4266 l 28.08,3.2267 c 0,0 5.5467,-41.5333 6.3733,-62.24 0.8267,-20.72 2.2134,-68.8533 2.6,-88.5147 0.6534,-32.3373 -0.8,-55.3986 1.92,-97.312 3.28,36.504 5.8934,68.0214 6.44,95.3094 0.3867,19.656 0.96,65.2906 2.5867,87.504 1.6267,22.2133 4.72,69.893 5.4133,68.4 l 27.04,-0.36 c -0.5066,-11.5467 0.1867,-98.7067 0.3467,-112.9467 0.32,-31.5133 4.3467,-56.98 6.8267,-90.9907 2.48,-34.0106 2.16,-72.4546 1.7466,-92.424 -13.5333,-15.6933 -86.7333,-17.0013 -100.2666,-1.308"
         style="fill:#313a65;fill-opacity:1;fill-rule:evenodd;stroke:none;stroke-width:0.13333333"
         id="path1628" />
      <path
         inkscape:connector-curvature="0"
         d="m 1404.7333,1176.1093 c -0.4,4.384 -2.3867,25.9054 1.6,26.304 3.9867,0.3987 9.56,0.3987 9.56,0.3987"
         style="fill:none;stroke:#262944;stroke-width:3.20013309;stroke-linecap:butt;stroke-linejoin:miter;stroke-miterlimit:22.92560005;stroke-dasharray:none;stroke-opacity:1"
         id="path1630" />
      <path
         inkscape:connector-curvature="0"
         d="m 1354.2533,1170.5653 c 0.7867,-6.416 6.8533,-27.8666 8.9333,-34.0466 7.72,-22.94 -7.68,-66.3147 -17.88,-97.4187 -15.7506,-47.99732 140.9334,-44.72532 126.7867,-1.596 -3.44,10.48 -10.6667,5.6747 -14.7733,18.2933 -8.1067,24.8334 -1.1334,60.8334 0.067,79.4467 0.4534,7.2427 1.84,28.2667 2.6,35.0467 -25.36,10.7173 -76.4666,8.4293 -105.7333,0.2746"
         style="fill:#e93a3e;fill-opacity:1;fill-rule:evenodd;stroke:none;stroke-width:0.13333333"
         id="path1632" />
      <path
         inkscape:connector-curvature="0"
         d="m 1425.8266,1055.052 c -0.2533,-0.8653 -0.3733,-1.8973 -0.3733,-3.1067 0,-2.62 0.48,-4.7 1.4533,-6.2466 0.9734,-1.5454 2.8134,-2.3187 5.5467,-2.3187 3.52,0 5.5867,1.6933 6.2133,5.0667 0.28,1.4546 0.4134,3.288 0.4134,5.4946 v 2.1427 h -4.0667 v -2.4307 c 0,-2.3053 -0.12,-3.8586 -0.36,-4.652 -0.2267,-0.7933 -0.52,-1.3213 -0.8667,-1.5813 -0.3333,-0.2667 -0.7866,-0.3933 -1.3333,-0.3933 -1.0267,0 -1.7733,0.38 -2.2267,1.1306 -0.4533,0.752 -0.6666,1.8774 -0.6666,3.36 0,1.476 0.2,2.564 0.6,3.2467 0.4266,0.688 0.92,1.3413 1.5333,1.9667 0.6,0.6253 0.9333,0.9773 1.0133,1.0613 l 2.4667,2.6133 c 2.96,3.1067 4.44,6.5774 4.44,10.4214 0,3.1266 -0.48,5.516 -1.44,7.1746 -0.9733,1.6507 -2.8133,2.48 -5.5333,2.48 -3.28,0 -5.36,-1.44 -6.24,-4.328 -0.5067,-1.616 -0.76,-3.7386 -0.76,-6.36 0,-0.069 0,-0.1333 0,-0.2026 v -3.5214 h 4.1333 v 3.6827 c 0,2.648 0.2,4.4893 0.5867,5.5293 0.3866,1.0334 1.0933,1.5534 2.1333,1.5534 1.04,0 1.76,-0.2454 2.16,-0.7307 0.4,-0.4853 0.6267,-1.2293 0.6933,-2.2347 0.067,-0.9973 0.093,-2.1293 0.093,-3.3733 0,-2.5147 -1.1067,-4.876 -3.32,-7.0827 l -2.36,-2.368 c -2.12,-2.1706 -3.4267,-4.1666 -3.9334,-5.9933 z m -8.7466,-11.236 h 4.0533 l -1.3333,13.0907 h -1.4934 z m -8.6934,8.9307 c 0,-3.5134 -0.7466,-5.3974 -2.24,-5.656 -0.24,-0.043 -0.5733,-0.064 -1.0133,-0.064 -0.44,0 -0.8667,0.084 -1.2667,0.2466 -0.4,0.1614 -0.7733,0.6534 -1.1066,1.4614 -0.3467,0.808 -0.5067,2.1426 -0.5067,3.9906 v 17.6654 c 0,0.056 0,0.1133 0,0.1613 0,3.268 0.4,5.2213 1.2133,5.8547 0.4134,0.3226 0.9067,0.4906 1.4934,0.4906 0.5866,0 1,-0.028 1.24,-0.084 0.2666,-0.028 0.5466,-0.1613 0.8533,-0.4066 0.88,-0.6894 1.3333,-2.6427 1.3333,-5.868 0,-0.056 0,-0.1054 0,-0.148 z m -10.3733,0.232 c 0,-3.2187 0.5067,-5.6147 1.5067,-7.196 1.0133,-1.588 2.9333,-2.3814 5.7733,-2.3814 2.8267,0 4.76,0.7934 5.7867,2.368 1.04,1.58 1.5466,3.984 1.5466,7.2094 v 17.3066 c 0,3.3374 -0.4933,5.8747 -1.4933,7.6107 -1,1.7347 -2.9333,2.6067 -5.8267,2.6067 -2.8933,0 -4.8266,-0.864 -5.8133,-2.5854 -0.9867,-1.7226 -1.48,-4.2653 -1.48,-7.632 z m -9.4133,0.7586 c 0,-2.2906 -0.12,-3.836 -0.3867,-4.6453 -0.2533,-0.8 -0.5733,-1.3347 -0.92,-1.6013 -0.36,-0.2667 -0.8267,-0.4 -1.4,-0.4 -1.1467,0 -1.88,0.54 -2.2267,1.6226 -0.3466,1.0814 -0.52,2.768 -0.52,5.0454 v 2.08 c 0,2.768 0.1867,4.6586 0.5467,5.6706 0.36,1.004 1.1867,1.5107 2.4667,1.5107 1.2933,0 2.0933,-0.38 2.44,-1.152 z m -9.6534,0.5974 c 0,-2.8174 0.2,-4.8627 0.5867,-6.148 0.3867,-1.28 0.84,-2.2214 1.3333,-2.812 1.1067,-1.2987 2.8134,-1.952 5.0934,-1.952 2.28,0 3.9333,0.5973 4.9466,1.792 1,1.1933 1.6134,3.0346 1.8134,5.5146 0.08,1.0054 0.12,2.2494 0.12,3.7254 v 14.58 c 0,4.912 -0.6934,8.1373 -2.08,9.676 -1.0667,1.18 -2.68,1.7706 -4.84,1.7706 -2.16,0 -3.7467,-0.7586 -4.72,-2.2693 -1,-1.5107 -1.5067,-3.9707 -1.5467,-7.3853 v -1.3214 h 4.0267 v 0.6187 c 0,3.3373 0.24,5.2907 0.7066,5.8747 0.4667,0.5826 1.1467,0.8786 2.04,0.8786 0.8934,0 1.4667,-0.3733 1.76,-1.1253 0.28,-0.744 0.4134,-2.276 0.4134,-4.5813 v -5.636 c -0.7067,0.5906 -1.7467,0.8866 -3.1067,0.8866 -2.5733,0 -4.3067,-0.928 -5.2,-2.7826 -0.8933,-1.856 -1.3467,-4.6454 -1.3467,-8.376 v -0.928 0"
         style="fill:#b53030;fill-opacity:1;fill-rule:nonzero;stroke:none;stroke-width:0.13333333"
         id="path1634" />
      <path
         inkscape:connector-curvature="0"
         d="m 1427.9866,1005.4707 c -0.1733,10.8053 -9.0533,19.5933 -19.9066,19.5933 v 0 c -10.9067,0 -19.8534,-8.9013 -19.9067,-19.8013 12.8533,-1.5894 26.9067,-1.4947 39.8133,0.208"
         style="fill:#ffffff;fill-opacity:1;fill-rule:evenodd;stroke:none;stroke-width:0.13333333"
         id="path1636" />
      <path
         inkscape:connector-curvature="0"
         d="m 1326.1346,1042.14 c -19.028,26.4933 -32.9133,48.88 -24.308,56.4947 8.604,7.6146 28.42,-12.104 47.4267,-30.4454 56.0933,-54.1346 16.6133,-81.37862 -23.1187,-26.0493"
         style="fill:#f3c3bc;fill-opacity:1;fill-rule:evenodd;stroke:none;stroke-width:0.13333333"
         id="path1638" />
      <path
         inkscape:connector-curvature="0"
         d="m 1332.812,1100.5147 c 14.668,-4.1414 37.8413,-12.2947 35.908,-19.3414 -1.6934,-6.1173 -28.0667,0.3814 -39.9147,1.108 -47.572,2.9187 -30.2013,27.892 4.0067,18.2334"
         style="fill:#e9b1ab;fill-opacity:1;fill-rule:evenodd;stroke:none;stroke-width:0.13333333"
         id="path1640" />
      <path
         inkscape:connector-curvature="0"
         d="m 1483.6933,1063.3307 c 4.3067,24.1453 7.44,55.8226 7.32,70.3986 -0.053,5.7974 -6.1867,12.2627 -9.3067,12.964 -3.5466,0.796 -11.3466,-3.128 -11.1733,-10.176 0.3333,-14.5746 -12.1067,-43.276 -18.32,-61.0413 -26.9867,-77.34398 19.0667,-81.53865 31.48,-12.1453"
         style="fill:#ffffff;fill-opacity:1;fill-rule:evenodd;stroke:none;stroke-width:0.13333333"
         id="path1642" />
      <path
         inkscape:connector-curvature="0"
         d="m 1491.76,1154.816 c -2.28,23.7427 -3.28,61.948 -10.5734,60.8587 -6.3333,-0.9454 -8.9333,-40.96 -10.1333,-59.5907 -4.4667,-68.8413 25.5067,-51.3773 20.7067,-1.268"
         style="fill:#f3c3bc;fill-opacity:1;fill-rule:evenodd;stroke:none;stroke-width:0.13333333"
         id="path1644" />
      <path
         inkscape:connector-curvature="0"
         d="m 1401.48,960.57868 h 13.2133 c 3.7333,0 6.7867,3.05334 6.7867,6.78534 v 39.14528 c 0,7.364 -6.0267,13.3907 -13.4,13.3907 v 0 c -7.36,0 -13.3867,-6.0267 -13.3867,-13.3907 v -39.14528 c 0,-3.732 3.0533,-6.78534 6.7867,-6.78534"
         style="fill:#e9b1ab;fill-opacity:1;fill-rule:evenodd;stroke:none;stroke-width:0.13333333"
         id="path1646" />
      <path
         inkscape:connector-curvature="0"
         d="m 1326.1346,1042.14 c -19.028,26.4933 -32.9133,48.88 -24.308,56.4947 8.604,7.6146 28.42,-12.104 47.4267,-30.4454 56.0933,-54.1346 16.6133,-81.37862 -23.1187,-26.0493"
         style="fill:#ffffff;fill-opacity:1;fill-rule:evenodd;stroke:none;stroke-width:0.13333333"
         id="path1648" />
      <path
         inkscape:connector-curvature="0"
         d="m 1317.748,1051.604 25.5186,23.1253 c 75.0534,-66.752 12.5734,-93.47195 -25.5186,-23.1253"
         style="fill:#e93a3e;fill-opacity:1;fill-rule:evenodd;stroke:none;stroke-width:0.13333333"
         id="path1650" />
      <path
         inkscape:connector-curvature="0"
         d="m 1366.8,1004.576 c 2.7333,14.3907 -0.68,48.104 -7.8667,85.7627 -6.8267,35.876 -20.4133,85.6266 -32.0307,114.824 l 13.6707,4.62 c 11.9867,-30.132 25.5067,-80.1787 32.48,-116.8014 7.48,-39.224 10.92,-74.948 7.8667,-91.048 l -14.12,2.6427"
         style="fill:#5cc9d1;fill-opacity:1;fill-rule:nonzero;stroke:none;stroke-width:0.13333333"
         id="path1652" />
      <path
         inkscape:connector-curvature="0"
         d="m 1341.24,1090.244 c -3.0667,-9.692 8.88,-15.0773 16.5866,-26 12.2934,-17.3947 3.64,3.6613 4.7067,3.5573 2.5067,-0.2453 7.8133,-0.3466 13.2667,-1.6386 3.92,-0.9267 4.9333,1.5453 3.8666,3.0186 -0.7466,1.0294 -0.4266,1.8614 0,2.124 2.32,1.4227 1.9734,4.136 0.52,5.2014 -1.1466,0.8533 -0.9333,1.9333 0.1467,2.752 1.2533,0.9573 2.2,2.4106 1.4667,3.8706 -0.72,1.4027 -4.4534,2.304 -2.12,3.36 2.8133,1.2747 2.3466,2.9454 1.32,4.1387 -2.1067,2.4373 -24.4667,1.5173 -34.32,5.476 -3.4,1.3667 -4.9334,-4.2293 -5.44,-5.86"
         style="fill:#e9b1ab;fill-opacity:1;fill-rule:evenodd;stroke:none;stroke-width:0.13333333"
         id="path1654" />
      <path
         inkscape:connector-curvature="0"
         d="m 1488.36,1183.28 c -1.12,13.8227 3.4,38.532 -0.4934,48.264 -1.6133,4.0133 -3.2,10.4987 -6.28,13.064 -4.4,3.652 -10.2266,5.992 -12.24,6.1547 -3.4133,0.28 -4.6666,-2.464 -0.053,-4.8774 1.8133,-0.9533 3.9733,-1.9093 6.5333,-4.716 3.8934,-4.2946 4.44,-13.0973 3.7067,-13.3506 -4.7867,-1.6747 -8.5733,13.1613 -12.4667,11.7066 -1.8133,-0.6813 1.6934,-9.692 2.4534,-14.1106 0.8666,-5.0014 -0.4267,-12.9134 2.9333,-17.5587 6.32,-8.756 1.0667,-22.0347 0.5733,-31.7667 -0.48,-9.7333 16.36,-5.4 15.3334,7.1907"
         style="fill:#f3c3bc;fill-opacity:1;fill-rule:evenodd;stroke:none;stroke-width:0.13333333"
         id="path1656" />
      <path
         inkscape:connector-curvature="0"
         d="m 1489.8533,1081.1533 -32.6,11.0947 c -41.6133,-105.69198 21.5733,-100.80932 32.6,-11.0947"
         style="fill:#e93a3e;fill-opacity:1;fill-rule:evenodd;stroke:none;stroke-width:0.13333333"
         id="path1658" />
      <path
         inkscape:connector-curvature="0"
         d="m 1344.96,1099.2013 c -1.5334,-5.2106 -3.1334,-14.1546 -3.48,-18.6506 -4.8,0.724 -9.3254,1.4333 -12.6747,1.7306 -48.58,2.6894 -31.8067,33.556 16.1547,16.92"
         style="fill:#ffffff;fill-opacity:1;fill-rule:evenodd;stroke:none;stroke-width:0.13333333"
         id="path1660" />
      <path
         inkscape:connector-curvature="0"
         d="m 1334.9333,1081.2667 c -5.1933,-1.5067 -24.448,-2.344 -29.9733,5.1906 -5.5254,7.5347 3.8506,-17.2453 29.9733,-5.1906"
         style="fill:#dedbd9;fill-opacity:1;fill-rule:evenodd;stroke:none;stroke-width:0.13333333"
         id="path1662" />
      <path
         inkscape:connector-curvature="0"
         d="m 1492.8,1157.4213 c -0.5467,13.2827 -0.12,28.7467 -2.12,41.6427 -4.5734,-0.564 -12.6934,-0.5373 -16.6667,-0.1307 -2.0533,-13.452 -3.5333,-27.0733 -4,-38.6826 -3.16,-77.7627 25.1867,-60.976 22.7867,-2.8294"
         style="fill:#ffffff;fill-opacity:1;fill-rule:evenodd;stroke:none;stroke-width:0.13333333"
         id="path1664" />
      <path
         inkscape:connector-curvature="0"
         d="m 1427.04,1513.7197 c 7.7066,12.6 21.1333,11.7735 28.0666,-1.6932 -3.3333,-3.0265 -8.0266,-4.9197 -13.2266,-4.9197 -6.12,0 -11.52,2.6 -14.84,6.6129"
         style="fill:#ffffff;fill-opacity:1;fill-rule:evenodd;stroke:none;stroke-width:0.13333333"
         id="path1666" />
      <path
         inkscape:connector-curvature="0"
         d="m 1432.88,1491.2531 10.6533,-7.3864"
         style="fill:none;stroke:#ffffff;stroke-width:2.55986643;stroke-linecap:round;stroke-linejoin:round;stroke-miterlimit:22.92560005;stroke-dasharray:none;stroke-opacity:1"
         id="path1668" />
      <path
         inkscape:connector-curvature="0"
         d="m 1432.6266,1484.4 10.6534,-7.3869"
         style="fill:none;stroke:#ffffff;stroke-width:2.55986643;stroke-linecap:round;stroke-linejoin:round;stroke-miterlimit:22.92560005;stroke-dasharray:none;stroke-opacity:1"
         id="path1670" />
      <path
         inkscape:connector-curvature="0"
         d="m 1432.08,1478.2932 10.6533,-7.3864"
         style="fill:none;stroke:#ffffff;stroke-width:2.55986643;stroke-linecap:round;stroke-linejoin:round;stroke-miterlimit:22.92560005;stroke-dasharray:none;stroke-opacity:1"
         id="path1672" />
      <path
         inkscape:connector-curvature="0"
         d="m 1445.6,1490.5469 -12.0267,-5.2802"
         style="fill:none;stroke:#ffffff;stroke-width:2.55986643;stroke-linecap:round;stroke-linejoin:round;stroke-miterlimit:22.92560005;stroke-dasharray:none;stroke-opacity:1"
         id="path1674" />
      <path
         inkscape:connector-curvature="0"
         d="m 1444.3866,1483.7864 -12.04,-5.2796"
         style="fill:none;stroke:#ffffff;stroke-width:2.55986643;stroke-linecap:round;stroke-linejoin:round;stroke-miterlimit:22.92560005;stroke-dasharray:none;stroke-opacity:1"
         id="path1676" />
      <path
         inkscape:connector-curvature="0"
         d="m 1443.6,1477.6932 -12.0267,-5.2796"
         style="fill:none;stroke:#ffffff;stroke-width:2.55986643;stroke-linecap:round;stroke-linejoin:round;stroke-miterlimit:22.92560005;stroke-dasharray:none;stroke-opacity:1"
         id="path1678" />
      <path
         inkscape:connector-curvature="0"
         d="m 1433.32,1498.7469 12.32,-8.4005"
         style="fill:none;stroke:#ffffff;stroke-width:2.55986643;stroke-linecap:round;stroke-linejoin:round;stroke-miterlimit:22.92560005;stroke-dasharray:none;stroke-opacity:1"
         id="path1680" />
      <path
         inkscape:connector-curvature="0"
         d="m 1446.6266,1497.5469 -13.56,-5.9338"
         style="fill:none;stroke:#ffffff;stroke-width:2.55986643;stroke-linecap:round;stroke-linejoin:round;stroke-miterlimit:22.92560005;stroke-dasharray:none;stroke-opacity:1"
         id="path1682" />
      <path
         inkscape:connector-curvature="0"
         d="m 1408.3466,876.68268 c 42.12,-0.27066 45.3734,49.21067 37.0134,81.48667 -4.24,16.34933 -24.64,29.62133 -37.0134,29.62133 -12.7333,0 -32.4533,-12.54 -37.56,-30.13066 -9.2133,-31.73467 -2.6533,-80.71867 37.56,-80.97734"
         style="fill:#f3c3bc;fill-opacity:1;fill-rule:evenodd;stroke:none;stroke-width:0.13333333"
         id="path1684" />
      <path
         inkscape:connector-curvature="0"
         d="m 1391.6933,942.35868 c 1.6533,0 3,-3.376 3,-7.516 0,-4.13866 -1.3467,-7.51466 -3,-7.51466 -1.6533,0 -3.0133,3.376 -3.0133,7.51466 0,4.14 1.36,7.516 3.0133,7.516"
         style="fill:#46454e;fill-opacity:1;fill-rule:evenodd;stroke:none;stroke-width:0.13333333"
         id="path1686" />
      <path
         inkscape:connector-curvature="0"
         d="m 1423.04,942.35868 c 1.6666,0 3.0133,-3.376 3.0133,-7.516 0,-4.13866 -1.3467,-7.51466 -3.0133,-7.51466 -1.6534,0 -3,3.376 -3,7.51466 0,4.14 1.3466,7.516 3,7.516"
         style="fill:#46454e;fill-opacity:1;fill-rule:evenodd;stroke:none;stroke-width:0.13333333"
         id="path1688" />
      <path
         inkscape:connector-curvature="0"
         d="m 1426,961.05202 c -10.0667,0.836 -25.2,0.72 -35.7334,0.22533 8.8267,17.396 27.6267,18.09067 35.7334,-0.22533"
         style="fill:#c38581;fill-opacity:1;fill-rule:evenodd;stroke:none;stroke-width:0.13333333"
         id="path1690" />
      <path
         inkscape:connector-curvature="0"
         d="m 1404.48,953.99735 c 7.4933,1.56 10.56,-3.01467 10.6133,-6.85067 1.9067,7.064 -3.2133,10.884 -10.6133,6.85067"
         style="fill:#c38581;fill-opacity:1;fill-rule:evenodd;stroke:none;stroke-width:0.13333333"
         id="path1692" />
      <path
         inkscape:connector-curvature="0"
         d="m 1416.8,920.09202 c 2.9866,-1.32267 8.2533,-2.83467 14.44,-0.456 3.1066,1.192 2.5333,2.81066 -0.7067,1.62266 -5,-1.83466 -8.2,-0.71466 -12.9333,1.25067 -1.84,0.76 -2.84,-1.51867 -0.8,-2.41733"
         style="fill:#cdaa42;fill-opacity:1;fill-rule:evenodd;stroke:none;stroke-width:0.13333333"
         id="path1694" />
      <path
         inkscape:connector-curvature="0"
         d="m 1397.5466,920.09202 c -2.9866,-1.32267 -8.2666,-2.83467 -14.4533,-0.456 -3.0933,1.192 -2.52,2.81066 0.72,1.62266 5,-1.83466 8.2,-0.71466 12.9333,1.25067 1.84,0.76 2.84,-1.51867 0.8,-2.41733"
         style="fill:#cdaa42;fill-opacity:1;fill-rule:evenodd;stroke:none;stroke-width:0.13333333"
         id="path1696" />
      <path
         inkscape:connector-curvature="0"
         d="m 1364.6666,929.98668 c 2.7067,-0.54933 5.8,3.484 6.92,9.008 1.1334,5.524 -0.1466,10.44667 -2.84,10.996 -2.7066,0.54934 -5.8,-3.48266 -6.92,-9.008 -1.1333,-5.52266 0.1467,-10.44666 2.84,-10.996"
         style="fill:#f3c3bc;fill-opacity:1;fill-rule:evenodd;stroke:none;stroke-width:0.13333333"
         id="path1698" />
      <path
         inkscape:connector-curvature="0"
         d="m 1451.4933,929.98668 c -2.6933,-0.54933 -5.8,3.484 -6.92,9.008 -1.12,5.524 0.1467,10.44667 2.8533,10.996 2.6934,0.54934 5.7867,-3.48266 6.92,-9.008 1.12,-5.52266 -0.16,-10.44666 -2.8533,-10.996"
         style="fill:#f3c3bc;fill-opacity:1;fill-rule:evenodd;stroke:none;stroke-width:0.13333333"
         id="path1700" />
      <path
         inkscape:connector-curvature="0"
         d="m 1365.5733,933.29068 c 0.24,3.64 4.32,11.144 4.1333,2.64534 -0.1866,-8.5 0.9467,-29.84267 9.8267,-38.72134 8.88,-8.87733 19.08,-3.77733 28.3333,-3.77733 0.067,0 0.1467,-0.003 0.2134,-0.005 0.08,0.003 0.1466,0.005 0.2266,0.005 9.2534,0 19.4534,-5.1 28.3334,3.77733 8.8666,8.87867 10,30.22134 9.8133,38.72134 -0.1867,8.49866 3.16,0.99333 3.4,-2.64534 0.28,-4.30933 3.2667,-16.32266 -3.7467,-32.92266 -5.0266,-11.91334 -10.7333,-17.676 -27.88,-24.80534 -6.4133,-2.66266 -25.1466,-4.47333 -29.2133,4.448 -13.4267,0.29467 -21.4,15.38267 -23.4133,25.05467 -3.6667,17.64267 -0.32,23.916 -0.027,28.22533"
         style="fill:#cdaa42;fill-opacity:1;fill-rule:evenodd;stroke:none;stroke-width:0.13333333"
         id="path1702" />
      <path
         inkscape:connector-curvature="0"
         d="m 1422.08,961.31868 c -8.52,0.46534 -19.28,0.41867 -28.0267,0.112 1.0133,3.376 6.3867,3.608 13.96,3.71067 7.6133,0.104 13.0267,-0.30667 14.0667,-3.82267"
         style="fill:#ffffff;fill-opacity:1;fill-rule:evenodd;stroke:none;stroke-width:0.13333333"
         id="path1704" />
      <path
         inkscape:connector-curvature="0"
         d="m 1370.6133,920.59735 c 0.16,-42.07467 28.3867,-42.876 38.1733,-38.32 8.0667,7.668 -22.8266,10.89733 -38.1733,38.32"
         style="fill:#cdaa42;fill-opacity:1;fill-rule:evenodd;stroke:none;stroke-width:0.13333333"
         id="path1706" />
      <path
         inkscape:connector-curvature="0"
         d="m 1450.1066,930.08535 c -6.3866,-57.76267 -44.32,-54.472 -67.76,-40.11333 -8.0666,7.668 40.76,45.30933 67.76,40.11333"
         style="fill:#cdaa42;fill-opacity:1;fill-rule:evenodd;stroke:none;stroke-width:0.13333333"
         id="path1708" />
      <path
         inkscape:connector-curvature="0"
         d="m 1441.52,941.27335 c -30.3867,-19.26267 -29.8667,-58.31467 -56.7734,-52.70133 -2.3733,21.42666 29.6,48.48666 56.7734,52.70133"
         style="fill:#cdaa42;fill-opacity:1;fill-rule:evenodd;stroke:none;stroke-width:0.13333333"
         id="path1710" />
      <path
         inkscape:connector-curvature="0"
         d="m 1443.8266,922.65468 c -29.2266,-10.896 -39.68,-21.032 -56.7866,-37.75066 1.8133,18.60933 32.9866,39.04533 56.7866,37.75066"
         style="fill:#d9b754;fill-opacity:1;fill-rule:evenodd;stroke:none;stroke-width:0.13333333"
         id="path1712" />
      <path
         inkscape:connector-curvature="0"
         d="m 1437.28,902.84402 c -24.3334,-3.41867 -34.0934,-9.44 -50.0934,-19.39467 4.56,14.00267 32,24.43067 50.0934,19.39467"
         style="fill:#d9b754;fill-opacity:1;fill-rule:evenodd;stroke:none;stroke-width:0.13333333"
         id="path1714" />
      <path
         inkscape:connector-curvature="0"
         d="m 1366.2,922.03335 c 4.1866,-17.53067 14.28,-29.04933 23.48,-37.88933 -11.84,0.18533 -26.0267,17.40933 -23.48,37.88933"
         style="fill:#d9b754;fill-opacity:1;fill-rule:evenodd;stroke:none;stroke-width:0.13333333"
         id="path1716" />
      <path
         inkscape:connector-curvature="0"
         d="m 1433.3733,892.32402 c -15.5467,-9.12134 -30.84,-9.81734 -43.5867,-9.296 8.3334,-8.416 30.5867,-6.72534 43.5867,9.296"
         style="fill:#d9b754;fill-opacity:1;fill-rule:evenodd;stroke:none;stroke-width:0.13333333"
         id="path1718" />
      <path
         inkscape:connector-curvature="0"
         d="m 1407.32,1217.2413 c -6.0267,25.512 -12.0534,74.2174 -9.28,99.2654 2.7866,25.0533 -8.6134,132.3733 -8.6134,147.68"
         style="fill:none;stroke:#313a65;stroke-width:3.20013309;stroke-linecap:butt;stroke-linejoin:miter;stroke-miterlimit:22.92560005;stroke-dasharray:none;stroke-opacity:1"
         id="path1720" />
    </g>
  </g>
</svg>
