<?xml version="1.0" encoding="UTF-8" standalone="no"?>
<!-- Created with Inkscape (http://www.inkscape.org/) -->

<svg
   xmlns:dc="http://purl.org/dc/elements/1.1/"
   xmlns:cc="http://creativecommons.org/ns#"
   xmlns:rdf="http://www.w3.org/1999/02/22-rdf-syntax-ns#"
   xmlns:svg="http://www.w3.org/2000/svg"
   xmlns="http://www.w3.org/2000/svg"
   xmlns:sodipodi="http://sodipodi.sourceforge.net/DTD/sodipodi-0.dtd"
   xmlns:inkscape="http://www.inkscape.org/namespaces/inkscape"
   width="16.247087mm"
   height="52.916664mm"
   viewBox="0 0 16.247087 52.916664"
   version="1.1"
   id="svg2389"
   inkscape:version="0.92.3 (2405546, 2018-03-11)"
   sodipodi:docname="9.svg">
  <defs
     id="defs2383" />
  <sodipodi:namedview
     id="base"
     pagecolor="#ffffff"
     bordercolor="#666666"
     borderopacity="1.0"
     inkscape:pageopacity="0.0"
     inkscape:pageshadow="2"
     inkscape:zoom="0.35"
     inkscape:cx="-229.21042"
     inkscape:cy="170.39389"
     inkscape:document-units="mm"
     inkscape:current-layer="layer1"
     showgrid="false"
     fit-margin-top="0"
     fit-margin-left="0"
     fit-margin-right="0"
     fit-margin-bottom="0"
     inkscape:window-width="1680"
     inkscape:window-height="987"
     inkscape:window-x="1672"
     inkscape:window-y="-8"
     inkscape:window-maximized="1" />
  <metadata
     id="metadata2386">
    <rdf:RDF>
      <cc:Work
         rdf:about="">
        <dc:format>image/svg+xml</dc:format>
        <dc:type
           rdf:resource="http://purl.org/dc/dcmitype/StillImage" />
        <dc:title></dc:title>
      </cc:Work>
    </rdf:RDF>
  </metadata>
  <g
     inkscape:label="Layer 1"
     inkscape:groupmode="layer"
     id="layer1"
     transform="translate(-40.61252,-141.00005)">
    <g
       transform="matrix(0.11060066,0,0,-0.11060066,7.4435643,199.66795)"
       id="g2313">
      <path
         id="path1336"
         style="fill:#447186;fill-opacity:1;fill-rule:evenodd;stroke:none;stroke-width:0.1"
         d="m 377.028,52 c 38.428,0 69.769,10.85 69.769,24.15 0,13.3102 -31.341,24.16 -69.769,24.16 -38.427,0 -69.769,-10.8498 -69.769,-24.16 0,-13.3 31.342,-24.15 69.769,-24.15"
         inkscape:connector-curvature="0" />
      <path
         id="path1338"
         style="fill:#684535;fill-opacity:1;fill-rule:evenodd;stroke:none;stroke-width:0.1"
         d="m 378.228,526.045 c -12.357,0 -25.476,-7.053 -31.951,-28.234 -3.934,-12.87 -4.018,-35.277 -4.018,-52.032 0,-44.329 16.104,-80.266 35.969,-80.266 19.866,0 35.97,35.937 35.97,80.266 0,16.11 -0.19,49.575 -3.85,62.146 -6.413,22.02 -19.473,18.12 -32.12,18.12"
         inkscape:connector-curvature="0" />
      <path
         id="path1340"
         style="fill:#442a22;fill-opacity:1;fill-rule:evenodd;stroke:none;stroke-width:0.1"
         d="m 375.746,517.106 c -13.25,-22.75 -16.25,-64.75 -5.5,-103 -6.25,5.75 -30.5,81.749 5.5,103"
         inkscape:connector-curvature="0" />
      <path
         id="path1342"
         style="fill:#442a22;fill-opacity:1;fill-rule:evenodd;stroke:none;stroke-width:0.1"
         d="m 386.093,517.106 c 13.25,-22.75 16.249,-64.75 5.5,-103 6.25,5.75 30.5,81.749 -5.5,103"
         inkscape:connector-curvature="0" />
      <path
         id="path1344"
         style="fill:#cdaa42;fill-opacity:1;fill-rule:evenodd;stroke:none;stroke-width:0.1"
         d="m 410.733,324.03 c 7.104,-12.3 -4.997,-47.245 13.987,-48.29 16.152,-0.889 13.129,25.997 1.703,39.924 -11.427,13.927 -8.845,11.14 -14.558,20.424 -5.713,9.285 -9.345,-1.702 -1.132,-12.058"
         inkscape:connector-curvature="0" />
      <path
         id="path1346"
         style="fill:#f3c3bc;fill-opacity:1;fill-rule:evenodd;stroke:none;stroke-width:0.1"
         d="m 401.371,432.896 c -12.792,-3.23 -0.79,-28.425 4.353,-40.963 5.009,-12.209 15.433,-37.937 21.542,-35.687 6.108,2.251 0.12,28.396 -2.895,41.795 -2.892,12.86 -10.758,37.944 -23,34.855"
         inkscape:connector-curvature="0" />
      <path
         id="path1348"
         style="fill:#3f5d93;fill-opacity:1;fill-rule:evenodd;stroke:none;stroke-width:0.1"
         d="m 378.146,292.393 c 15.41,0 34.891,19.771 35.473,30.238 0.581,10.467 -4.361,20.353 -10.177,35.473 -5.815,15.119 2.908,36.927 9.886,58.152 10.766,32.751 -86.838,29.42 -72.743,1.831 9.907,-19.393 18.08,-44.864 12.265,-59.983 -5.815,-15.12 -10.757,-25.006 -10.176,-35.473 0.581,-10.467 20.062,-30.238 35.472,-30.238"
         inkscape:connector-curvature="0" />
      <path
         id="path1350"
         style="fill:#3f5d93;fill-opacity:1;fill-rule:evenodd;stroke:none;stroke-width:0.1"
         d="m 414.906,291.961 c -3.742,-37.479 -9.623,-91.991 -21.382,-91.991 -11.76,0 -14.968,68.821 -13.364,95.399 4.899,81.156 41.147,60.717 34.746,-3.408"
         inkscape:connector-curvature="0" />
      <path
         id="path1352"
         style="fill:#f3c3bc;fill-opacity:1;fill-rule:evenodd;stroke:none;stroke-width:0.1"
         d="m 304.616,382.718 c -2.37,-1.127 -5.384,-5.512 -4.401,-9.339 1.362,-5.307 6.151,-10.763 10.053,-14.952 6.616,-7.102 22.091,-27.113 26.108,-24.769 5.486,3.2 -8.034,23.431 -13.055,33.137 -4.626,8.943 -11.807,19.204 -18.705,15.923"
         inkscape:connector-curvature="0" />
      <path
         id="path1354"
         style="fill:#f3c3bc;fill-opacity:1;fill-rule:evenodd;stroke:none;stroke-width:0.1"
         d="m 356.929,432.849 c 10.284,-8.266 -11.874,-27.448 -21.774,-36.704 -9.64,-9.011 -29.835,-28.058 -34.45,-23.466 -4.616,4.591 11.721,25.863 20.044,36.788 7.988,10.485 26.338,31.292 36.18,23.382"
         inkscape:connector-curvature="0" />
      <path
         id="path1356"
         style="fill:#3f5d93;fill-opacity:1;fill-rule:evenodd;stroke:none;stroke-width:0.1"
         d="m 341.025,291.961 c 3.741,-37.479 9.623,-91.991 21.382,-91.991 11.76,0 16.546,72.608 14.942,99.184 -4.899,81.157 -42.725,56.932 -36.324,-7.193"
         inkscape:connector-curvature="0" />
      <path
         id="path1358"
         style="fill:none;stroke:#3a5185;stroke-width:2.40009999;stroke-linecap:butt;stroke-linejoin:miter;stroke-miterlimit:22.92560005;stroke-dasharray:none;stroke-opacity:1"
         d="m 381.377,328.688 c 0.299,-5.118 1.793,-30.242 -1.196,-30.707 -2.989,-0.466 -7.173,-0.466 -7.173,-0.466"
         inkscape:connector-curvature="0" />
      <path
         id="path1360"
         style="fill:#f3c3bc;fill-opacity:1;fill-rule:evenodd;stroke:none;stroke-width:0.1"
         d="m 388.606,107.78 c 2.184,-7.43 -2.508,-19.6402 -0.439,-24.73 2.069,-5.1 16.114,-4.8098 22.251,-11.4398 5.714,-6.1801 25.049,-6.7204 26.609,0.8398 0.658,3.1801 -3.802,6.2602 -10.746,9.3199 -2.208,0.9801 -8.322,5.95 -14.582,10.5199 -6.026,4.4004 -12.42,10.9902 -11.946,14.6702 1.17,9.1 -13.713,9.56 -11.147,0.82"
         inkscape:connector-curvature="0" />
      <path
         id="path1362"
         style="fill:#f3c3bc;fill-opacity:1;fill-rule:evenodd;stroke:none;stroke-width:0.1"
         d="m 366.934,107.78 c -2.183,-7.43 2.509,-19.6402 0.439,-24.73 -2.069,-5.1 -16.113,-4.8098 -22.25,-11.4398 -5.715,-6.1801 -25.05,-6.7204 -26.61,0.8398 -0.657,3.1801 3.802,6.2602 10.746,9.3199 2.208,0.9801 8.322,5.95 14.582,10.5199 6.026,4.4004 12.42,10.9902 11.946,14.6702 -1.17,9.1 13.713,9.56 11.147,0.82"
         inkscape:connector-curvature="0" />
      <path
         id="path1364"
         style="fill:#424959;fill-opacity:1;fill-rule:evenodd;stroke:none;stroke-width:0.1"
         d="m 415.384,329.01 c -1.134,8.405 -5.121,15.687 -10.364,29.319 -5.243,13.632 1.33,36.702 8.308,57.927 10.766,32.751 -86.838,29.42 -72.743,1.831 9.907,-19.393 16.146,-46.377 10.913,-59.983 -5.234,-13.607 -9.196,-20.84 -10.35,-29.213 29.055,-7.305 56.386,-4.974 74.236,0.119"
         inkscape:connector-curvature="0" />
      <path
         id="path1366"
         style="fill:#424959;fill-opacity:1;fill-rule:evenodd;stroke:none;stroke-width:0.1"
         d="m 400.503,434.01 c -11.236,-2.836 -3.231,-23.753 2.369,-37.298 l -0.059,0.949 c 9.358,1.967 16.306,5.863 21.042,11.529 -3.999,13.016 -13.895,27.208 -23.352,24.82"
         inkscape:connector-curvature="0" />
      <path
         id="path1368"
         style="fill:#424959;fill-opacity:1;fill-rule:evenodd;stroke:none;stroke-width:0.1"
         d="m 360.046,433.21 c 10.059,-8.236 -11.329,-27.245 -17.534,-31.924 -7.077,4.57 -11.696,11.107 -14.15,19.377 9.149,10.083 24.138,18.725 31.684,12.547"
         inkscape:connector-curvature="0" />
      <path
         id="path1370"
         style="fill:#ffffff;fill-opacity:1;fill-rule:evenodd;stroke:none;stroke-width:0.1"
         d="m 398.787,436.614 c -11.899,3.926 -28.417,4.137 -41.05,1.096 -0.044,-0.398 -0.067,-0.803 -0.067,-1.212 0,-5.991 4.857,-10.849 10.849,-10.849 4.251,0 7.931,2.446 9.71,6.008 1.779,-3.561 5.459,-6.008 9.71,-6.008 5.992,0 10.849,4.857 10.849,10.849 l -0.001,0.116"
         inkscape:connector-curvature="0" />
      <path
         id="path1372"
         style="fill:#2f313f;fill-opacity:1;fill-rule:evenodd;stroke:none;stroke-width:0.1"
         d="m 345.951,409.781 c 1.485,-13.184 -0.96,-17.654 5.904,-22.982 6.865,-5.328 17.917,-2.248 27.833,-2.248 9.915,0 20.347,-3.538 25.66,2.528 5.312,6.065 2.082,8.756 3.286,20.821 -2.649,-10.488 -0.769,-11.695 -7.962,-17.131 -4.415,-3.337 -13.238,-1.728 -20.993,-2.045 -10.142,-0.415 -19.255,-2.405 -25.552,3.314 -4.44,4.031 -5.938,11.708 -8.176,17.743"
         inkscape:connector-curvature="0" />
      <path
         id="path1374"
         style="fill:#e9b1ab;fill-opacity:1;fill-rule:evenodd;stroke:none;stroke-width:0.1"
         d="m 385.931,469.616 h -15.345 c -0.033,0 -0.059,-0.027 -0.059,-0.06 v -29.125 c 0,-4.236 3.466,-7.702 7.702,-7.702 v 0 c 4.236,0 7.702,3.466 7.702,7.702 v 29.185"
         inkscape:connector-curvature="0" />
      <path
         id="path1376"
         style="fill:#81604a;fill-opacity:1;fill-rule:evenodd;stroke:none;stroke-width:0.1"
         d="m 365.729,517.106 c -13.25,-22.75 -16.25,-64.75 -5.5,-103 -6.25,5.75 -30.5,81.749 5.5,103"
         inkscape:connector-curvature="0" />
      <path
         id="path1378"
         style="fill:#f3c3bc;fill-opacity:1;fill-rule:evenodd;stroke:none;stroke-width:0.1"
         d="m 377.819,530.279 c -29.987,0 -31.968,-35.163 -25.853,-58.746 3.098,-11.947 16.812,-22.435 25.853,-22.435 9.297,0 22.92,11.54 26.65,24.393 6.73,23.188 2.731,56.788 -26.65,56.788"
         inkscape:connector-curvature="0" />
      <path
         id="path1380"
         style="fill:#fbdbd5;fill-opacity:1;fill-rule:evenodd;stroke:none;stroke-width:0.1"
         d="m 398.775,493.101 c -1.999,1.172 -13.695,1.543 -16.278,-1.922 -2.171,-2.912 1.36,-9.984 4.693,-11.548 3.235,-1.518 9.869,-0.638 11.675,2.635 1.741,3.154 2.157,9.517 -0.09,10.835"
         inkscape:connector-curvature="0" />
      <path
         id="path1382"
         style="fill:#fbdbd5;fill-opacity:1;fill-rule:evenodd;stroke:none;stroke-width:0.1"
         d="m 357.153,492.984 c 1.992,1.182 13.685,1.62 16.288,-1.831 2.187,-2.899 -1.304,-9.991 -4.628,-11.574 -3.227,-1.537 -9.865,-0.694 -11.69,2.569 -1.758,3.144 -2.211,9.505 0.03,10.836"
         inkscape:connector-curvature="0" />
      <path
         id="path1384"
         style="fill:#f4697b;fill-opacity:1;fill-rule:evenodd;stroke:none;stroke-width:0.1"
         d="m 364.459,471.382 c 7.259,0.448 19.807,0.355 26.279,-0.109 -5.828,-14.891 -20.569,-15.195 -26.279,0.109"
         inkscape:connector-curvature="0" />
      <path
         id="path1386"
         style="fill:#46454e;fill-opacity:1;fill-rule:evenodd;stroke:none;stroke-width:0.1"
         d="m 389.416,485.812 c 1.182,0 2.145,2.41 2.145,5.364 0,2.954 -0.963,5.363 -2.145,5.363 -1.182,0 -2.145,-2.409 -2.145,-5.363 0,-2.954 0.963,-5.364 2.145,-5.364"
         inkscape:connector-curvature="0" />
      <path
         id="path1388"
         style="fill:#46454e;fill-opacity:1;fill-rule:evenodd;stroke:none;stroke-width:0.1"
         d="m 367.041,485.812 c 1.182,0 2.145,2.41 2.145,5.364 0,2.954 -0.963,5.363 -2.145,5.363 -1.182,0 -2.145,-2.409 -2.145,-5.363 0,-2.954 0.963,-5.364 2.145,-5.364"
         inkscape:connector-curvature="0" />
      <path
         id="path1390"
         style="fill:#f3c3bc;fill-opacity:1;fill-rule:evenodd;stroke:none;stroke-width:0.1"
         d="m 409.503,493.302 c -1.944,0.395 -4.176,-2.51 -4.986,-6.489 -0.81,-3.98 0.108,-7.527 2.052,-7.922 1.943,-0.396 4.176,2.509 4.986,6.489 0.81,3.979 -0.108,7.526 -2.052,7.922"
         inkscape:connector-curvature="0" />
      <path
         id="path1392"
         style="fill:#c38581;fill-opacity:1;fill-rule:evenodd;stroke:none;stroke-width:0.1"
         d="m 364.937,471.274 c 7.182,-1.727 17.979,-1.763 25.5,-0.16 -5.999,-11.653 -19.405,-12.149 -25.5,0.16"
         inkscape:connector-curvature="0" />
      <path
         id="path1394"
         style="fill:#c38581;fill-opacity:1;fill-rule:evenodd;stroke:none;stroke-width:0.1"
         d="m 380.29,476.308 c -5.343,-1.113 -7.538,2.151 -7.574,4.889 -1.362,-5.041 2.288,-7.767 7.574,-4.889"
         inkscape:connector-curvature="0" />
      <path
         id="path1396"
         style="fill:#ffffff;fill-opacity:1;fill-rule:evenodd;stroke:none;stroke-width:0.1"
         d="m 365.797,471.079 c 6.919,-1.48 16.721,-1.505 23.895,-0.116 -3.705,-4.965 -19.923,-4.805 -23.895,0.116"
         inkscape:connector-curvature="0" />
      <path
         id="path1398"
         style="fill:#cf8c47;fill-opacity:1;fill-rule:evenodd;stroke:none;stroke-width:0.1"
         d="m 371.121,504.586 c -2.329,0.167 -6.179,0.653 -9.597,-3.34 -1.54,-1.798 -1.102,-2.486 0.65,-0.756 2.981,2.942 5.336,2.457 8.994,2.281 1.417,-0.069 1.537,1.702 -0.047,1.815"
         inkscape:connector-curvature="0" />
      <path
         id="path1400"
         style="fill:#684535;fill-opacity:1;fill-rule:evenodd;stroke:none;stroke-width:0.1"
         d="m 407.597,491.751 c -0.17,-2.582 -2.547,-7.908 -2.413,-1.876 0.135,6.032 -0.67,21.179 -6.97,27.48 -6.3,6.3 -13.539,2.681 -20.107,2.681 -0.053,0 -0.104,0.002 -0.156,0.003 -0.052,-10e-4 -0.103,-0.003 -0.156,-0.003 -6.568,0 -13.807,3.619 -20.107,-2.681 -6.301,-6.301 -7.105,-21.448 -6.971,-27.48 0.135,-6.032 -2.242,-0.706 -2.412,1.876 -0.202,3.059 -1.088,11.408 3.887,23.191 3.57,8.455 13.942,15.506 25.759,15.506 12.756,0 22.189,-7.051 25.759,-15.506 4.975,-11.783 4.089,-20.132 3.887,-23.191"
         inkscape:connector-curvature="0" />
      <path
         id="path1402"
         style="fill:#f3c3bc;fill-opacity:1;fill-rule:evenodd;stroke:none;stroke-width:0.1"
         d="m 329.081,337.689 c 5.116,-3.656 2.025,-10.173 8.496,-8.964 2.693,0.503 6.184,-0.515 7.381,-2.909 1.196,-2.393 1.939,1.53 -0.957,4.527 -1.304,1.348 -1.312,2.337 0.952,1.51 1.775,-0.648 2.435,-1.918 3.325,-3.723 0.629,-1.275 1.685,0.558 0.148,3.542 -1.162,2.256 -2.128,2.473 -3.824,2.988 -1.696,0.517 2.151,0.977 4.211,-0.276 1.605,-0.977 1.792,-2.198 2.161,-3.673 0.368,-1.475 2.132,0.636 0.363,3.749 -1.313,2.31 -3.248,3.594 -6.009,3.702 -2.209,0.087 1.731,1.575 6.131,-1.147 2.763,-1.71 2.996,1.241 -0.054,2.602 -3.331,1.487 -4.611,2.03 -8.053,0.761 -2.953,-1.089 -6.111,-1.084 -7.612,3.193 -1.037,2.956 -9.349,-3.96 -6.659,-5.882"
         inkscape:connector-curvature="0" />
      <path
         id="path1404"
         style="fill:none;stroke:#cdaa42;stroke-width:6.00010014;stroke-linecap:butt;stroke-linejoin:miter;stroke-miterlimit:22.92560005;stroke-dasharray:none;stroke-opacity:1"
         d="m 351.248,436.909 c 4.165,-14.727 60.073,-118.029 80.884,-143.99"
         inkscape:connector-curvature="0" />
      <path
         id="path1406"
         style="fill:#3f5d93;fill-opacity:1;fill-rule:evenodd;stroke:none;stroke-width:0.1"
         d="m 351.951,202.657 c 1.49,-20.607 -0.464,-70.237 2.354,-94.927 3.66,-1.74 10.971,-1.73 14.538,-0.12 5.291,21.74 5.644,60.43 5.99,72.61 0.399,14.01 -6.173,27.322 -3.257,39.477 7.381,30.772 -24.081,44.517 -19.625,-17.04"
         inkscape:connector-curvature="0" />
      <path
         id="path1408"
         style="fill:#3f5d93;fill-opacity:1;fill-rule:evenodd;stroke:none;stroke-width:0.1"
         d="m 403.981,202.657 c -1.493,-20.617 0.24,-70.307 -2.585,-94.987 -3.576,-2.01 -10.669,-2.26 -14.318,-0.01 -5.283,21.74 -5.634,60.38 -5.98,72.56 -0.351,12.31 5.168,28.767 3.283,39.901 -5.296,31.271 24.267,47.019 19.6,-17.464"
         inkscape:connector-curvature="0" />
      <path
         id="path1410"
         style="fill:#37517e;fill-opacity:1;fill-rule:evenodd;stroke:none;stroke-width:0.1"
         d="m 348.111,491.286 h 6.117 v 2.8 h -6.117 v -2.8"
         inkscape:connector-curvature="0" />
      <path
         id="path1412"
         style="fill:#f3c3bc;fill-opacity:1;fill-rule:evenodd;stroke:none;stroke-width:0.1"
         d="m 346.954,493.302 c 1.944,0.395 4.176,-2.51 4.986,-6.489 0.811,-3.98 -0.108,-7.527 -2.052,-7.922 -1.943,-0.396 -4.176,2.509 -4.986,6.489 -0.81,3.979 0.109,7.526 2.052,7.922"
         inkscape:connector-curvature="0" />
      <path
         id="path1414"
         style="fill:#684535;fill-opacity:1;fill-rule:evenodd;stroke:none;stroke-width:0.1"
         d="m 384.854,504.586 c 2.328,0.167 6.178,0.653 9.596,-3.34 1.54,-1.798 1.102,-2.486 -0.65,-0.756 -2.981,2.942 -5.336,2.457 -8.993,2.281 -1.418,-0.069 -1.538,1.702 0.047,1.815"
         inkscape:connector-curvature="0" />
      <path
         id="path1416"
         style="fill:#37517e;fill-opacity:1;fill-rule:evenodd;stroke:none;stroke-width:0.1"
         d="m 402.229,491.286 h 4.051 v 2.8 h -4.051 v -2.8"
         inkscape:connector-curvature="0" />
      <path
         id="path1418"
         style="fill:#37517e;fill-opacity:1;fill-rule:evenodd;stroke:none;stroke-width:0.1"
         d="m 398.775,493.101 c 2.247,-1.318 1.831,-7.681 0.09,-10.835 -1.806,-3.273 -8.44,-4.153 -11.675,-2.635 -3.333,1.564 -6.864,8.636 -4.693,11.548 2.583,3.465 14.279,3.094 16.278,1.922 z m -41.622,-0.117 c 1.992,1.182 13.685,1.62 16.288,-1.831 2.187,-2.899 -1.304,-9.991 -4.628,-11.574 -3.227,-1.537 -9.865,-0.694 -11.69,2.569 -1.758,3.144 -2.211,9.505 0.03,10.836 z m 20.762,-0.123 c -1.513,-0.038 -7.757,1.612 -12.172,1.963 -4.42,0.35 -10.974,-0.213 -12.105,-0.579 -1.352,-0.438 -1.391,-0.549 -1.448,-1.578 -0.058,-1.029 0.114,-1.912 0.914,-2.177 1.091,-0.36 1.104,-1.736 1.832,-5.684 0.663,-3.596 2.26,-6.438 9.099,-6.936 6.711,-0.488 8.948,3.839 9.671,5.234 1.288,2.485 0.88,5.906 4.269,5.916 3.389,0.009 3.061,-3.353 4.363,-5.832 0.73,-1.39 2.931,-5.765 9.639,-5.238 6.837,0.535 8.418,3.386 9.06,6.986 0.705,3.952 0.711,5.329 1.8,5.695 0.799,0.269 0.965,1.153 0.902,2.182 -0.064,1.028 -0.103,1.139 -1.457,1.569 -1.133,0.36 -7.691,0.887 -12.108,0.511 -3.949,-0.336 -8.7,-1.944 -12.259,-2.032 v 0"
         inkscape:connector-curvature="0" />
      <path
         id="path1420"
         style="fill:#f3c3bc;fill-opacity:1;fill-rule:evenodd;stroke:none;stroke-width:0.1"
         d="m 432.724,315.973 c -1.347,-8.572 -0.467,-24.779 -3.351,-30.668 -1.188,-2.43 -2.485,-6.402 -4.529,-7.858 -2.911,-2.073 -6.66,-3.261 -7.921,-3.268 -2.147,-0.015 -2.801,1.756 0.189,3.046 1.181,0.509 2.576,1.005 4.298,2.637 2.633,2.497 3.382,7.964 2.94,8.157 -2.91,1.268 -5.965,-7.812 -8.323,-6.722 -1.104,0.51 1.505,5.968 2.186,8.689 0.772,3.081 0.34,8.077 2.65,10.819 4.354,5.167 2.5,12.067 0.954,18.283 -1.471,5.917 12.134,4.692 10.907,-3.115"
         inkscape:connector-curvature="0" />
      <path
         id="path1422"
         style="fill:#f3c3bc;fill-opacity:1;fill-rule:evenodd;stroke:none;stroke-width:0.1"
         d="m 417.698,369.53 c -0.963,-4.999 -0.198,-23.893 0.601,-29.297 1.418,-9.601 4.689,-34.501 9.339,-34.549 6.35,-0.066 6.274,24.227 5.787,35.144 -0.353,7.909 -2.92,23.703 -3.877,27.278 -3.665,13.691 -11.589,2.781 -11.85,1.424"
         inkscape:connector-curvature="0" />
      <path
         id="path1424"
         style="fill:#684535;fill-opacity:1;fill-rule:evenodd;stroke:none;stroke-width:0.1"
         d="m 335.713,477.766 c 29.937,3.391 58.751,25.696 65.258,41.157 -24.451,11.933 -41.149,8.997 -48.875,-2.777 -8.882,-13.536 -4.167,-28.397 -16.383,-38.38"
         inkscape:connector-curvature="0" />
      <path
         id="path1426"
         style="fill:#684535;fill-opacity:1;fill-rule:evenodd;stroke:none;stroke-width:0.1"
         d="m 390.125,522.433 c 3.018,-6.309 10.075,-14.344 15.91,-34.015 3.517,8.314 6.017,43.315 -15.91,34.015"
         inkscape:connector-curvature="0" />
      <path
         id="path1428"
         style="fill:#c73032;fill-opacity:1;fill-rule:evenodd;stroke:none;stroke-width:0.1"
         d="M 367.756,82.7898 C 365.687,77.7 354.161,77.8301 345.493,70.8699 c -8.457,-6.8 -29.401,-5.6199 -27.825,1.8203 0.542,2.5598 3.094,4.8098 7.808,7.2797 1.882,0.3301 8.369,-2.4597 8.046,-6.3301 8.999,-2.75 32.239,15.5 33.768,22.5403 1.296,-4.1 1.915,-9.8199 0.466,-13.3903"
         inkscape:connector-curvature="0" />
      <path
         id="path1430"
         style="fill:#c73032;fill-opacity:1;fill-rule:evenodd;stroke:none;stroke-width:0.1"
         d="m 387.868,82.4102 c 2.069,-5.1 13.85,-4.5801 22.519,-11.5403 8.457,-6.8 29.401,-5.6199 27.825,1.8203 -0.542,2.5598 -3.094,4.8098 -7.808,7.2797 -1.883,0.3301 -8.369,-2.4597 -8.047,-6.3301 -8.998,-2.75 -32.238,15.5 -33.767,22.5403 -1.296,-4.1 -2.171,-10.2 -0.722,-13.7699"
         inkscape:connector-curvature="0" />
      <path
         id="path1432"
         style="fill:#442a22;fill-opacity:1;fill-rule:evenodd;stroke:none;stroke-width:0.1"
         d="m 346.415,485.291 c 24.334,1.722 50.701,24.911 49.042,36.456 -5.394,-8.374 -30.428,-30.321 -49.042,-36.456"
         inkscape:connector-curvature="0" />
      <path
         id="path1434"
         style="fill:#442a22;fill-opacity:1;fill-rule:evenodd;stroke:none;stroke-width:0.1"
         d="m 342.139,483.367 c 29.038,-1.271 55.618,27.904 53.959,39.449 -5.394,-8.374 -33.635,-32.672 -53.959,-39.449"
         inkscape:connector-curvature="0" />
      <path
         id="path1436"
         style="fill:#81604a;fill-opacity:1;fill-rule:evenodd;stroke:none;stroke-width:0.1"
         d="m 351.071,499.973 c 17.466,-3.881 40.219,12.393 44.112,22.47 -8.257,-4.588 -29.789,-19.913 -44.112,-22.47"
         inkscape:connector-curvature="0" />
      <path
         id="path1438"
         style="fill:#81604a;fill-opacity:1;fill-rule:evenodd;stroke:none;stroke-width:0.1"
         d="m 392.853,523.049 c -6.609,5.282 -29.213,9.053 -35.805,-8.246 10.679,7.214 21.037,10.485 35.805,8.246"
         inkscape:connector-curvature="0" />
      <path
         id="path1440"
         style="fill:#442a22;fill-opacity:1;fill-rule:evenodd;stroke:none;stroke-width:0.1"
         d="m 391.813,521.443 c -10.564,2.499 -31.992,-3.691 -40.763,-14.591 12.864,5.113 25.534,8.307 40.763,14.591"
         inkscape:connector-curvature="0" />
      <path
         id="path1442"
         style="fill:#81604a;fill-opacity:1;fill-rule:evenodd;stroke:none;stroke-width:0.1"
         d="m 394.479,517.106 c 13.25,-22.75 16.25,-64.75 5.5,-103 6.25,5.75 30.5,81.749 -5.5,103"
         inkscape:connector-curvature="0" />
      <path
         id="path1444"
         style="fill:#442a22;fill-opacity:1;fill-rule:evenodd;stroke:none;stroke-width:0.1"
         d="m 416.112,480.152 c -16.159,8.755 -26.225,33.999 -21.493,41.402 2.754,-7.186 12.967,-31.065 21.493,-41.402"
         inkscape:connector-curvature="0" />
      <path
         id="path1446"
         style="fill:none;stroke:#3a5185;stroke-width:2.40009999;stroke-linecap:butt;stroke-linejoin:miter;stroke-miterlimit:22.92560005;stroke-dasharray:none;stroke-opacity:1"
         d="m 376.663,292.904 c -2.002,-16.815 -8.408,-65.258 -8.808,-74.065 -0.4,-8.808 8.007,-56.049 -0.801,-110.499"
         inkscape:connector-curvature="0" />
      <path
         id="path1448"
         style="fill:none;stroke:#3a5185;stroke-width:2.40009999;stroke-linecap:butt;stroke-linejoin:miter;stroke-miterlimit:22.92560005;stroke-dasharray:none;stroke-opacity:1"
         d="m 381.066,292.904 c 2.002,-16.815 8.408,-65.258 8.808,-74.065 0.401,-8.808 -8.006,-56.049 0.801,-110.499"
         inkscape:connector-curvature="0" />
      <path
         id="path1450"
         style="fill:#678fbb;fill-opacity:1;fill-rule:evenodd;stroke:none;stroke-width:0.1"
         d="m 353.163,111.85 c 5.407,-1.21 11.79,-1.72 17.092,-1.26 0.342,0.03 0.603,-0.35 0.58,-0.73 -0.13,-2.1 -0.26,-4.2 -0.39,-6.31 -0.023,-0.37 -0.322,-0.6 -0.663,-0.63 -5.42,-0.58 -11.799,-0.21 -17.093,1.25 -0.332,0.1 -0.603,0.36 -0.58,0.73 0.13,2.1 0.26,4.21 0.39,6.31 0.023,0.38 0.328,0.71 0.664,0.64"
         inkscape:connector-curvature="0" />
      <path
         id="path1452"
         style="fill:#678fbb;fill-opacity:1;fill-rule:evenodd;stroke:none;stroke-width:0.1"
         d="m 402.654,111.85 c -5.407,-1.21 -11.79,-1.72 -17.093,-1.26 -0.341,0.03 -0.602,-0.35 -0.579,-0.73 0.13,-2.1 0.26,-4.2 0.389,-6.31 0.024,-0.37 0.323,-0.6 0.664,-0.63 5.42,-0.58 11.799,-0.21 17.093,1.25 0.332,0.1 0.603,0.36 0.579,0.73 -0.129,2.1 -0.259,4.21 -0.389,6.31 -0.023,0.38 -0.328,0.71 -0.664,0.64"
         inkscape:connector-curvature="0" />
    </g>
  </g>
</svg>
