<?xml version="1.0" encoding="UTF-8" standalone="no"?>
<svg
   xmlns:dc="http://purl.org/dc/elements/1.1/"
   xmlns:cc="http://creativecommons.org/ns#"
   xmlns:rdf="http://www.w3.org/1999/02/22-rdf-syntax-ns#"
   xmlns:svg="http://www.w3.org/2000/svg"
   xmlns="http://www.w3.org/2000/svg"
   xmlns:sodipodi="http://sodipodi.sourceforge.net/DTD/sodipodi-0.dtd"
   xmlns:inkscape="http://www.inkscape.org/namespaces/inkscape"
   height="512.00098pt"
   viewBox="-123 0 665.72699 512.00227"
   width="665.72699pt"
   version="1.1"
   id="svg28"
   sodipodi:docname="age-range.svg"
   inkscape:version="0.92.3 (2405546, 2018-03-11)">
  <metadata
     id="metadata34">
    <rdf:RDF>
      <cc:Work
         rdf:about="">
        <dc:format>image/svg+xml</dc:format>
        <dc:type
           rdf:resource="http://purl.org/dc/dcmitype/StillImage" />
        <dc:title></dc:title>
      </cc:Work>
    </rdf:RDF>
  </metadata>
  <defs
     id="defs32" />
  <sodipodi:namedview
     pagecolor="#ffffff"
     bordercolor="#666666"
     borderopacity="1"
     objecttolerance="10"
     gridtolerance="10"
     guidetolerance="10"
     inkscape:pageopacity="0"
     inkscape:pageshadow="2"
     inkscape:window-width="1680"
     inkscape:window-height="987"
     id="namedview30"
     showgrid="false"
     fit-margin-top="0"
     fit-margin-left="0"
     fit-margin-right="0"
     fit-margin-bottom="0"
     inkscape:zoom="0.34570313"
     inkscape:cx="177.33288"
     inkscape:cy="341.33333"
     inkscape:window-x="1672"
     inkscape:window-y="-8"
     inkscape:window-maximized="1"
     inkscape:current-layer="svg28" />
  <g
     id="g985"
     transform="translate(-123.00064,9.765e-4)">
    <path
       id="path2"
       d="m 265.40625,441.68359 v 62.24219 c 0,4.46094 -3.61328,8.07422 -8.06641,8.07422 H 8.078125 C 3.625,512 0,508.38672 0,503.92578 v -62.24219 c 0,-28.98047 17.480469,-54.79687 43.773438,-65.77734 2.335937,-0.98828 4.734374,-1.83984 7.195312,-2.57422 l 14.335938,-4.27734 c 2.605468,-0.78125 5.035156,-1.86719 7.265624,-3.25 4.015626,-2.44922 7.390626,-5.8125 9.871094,-9.73438 2.917969,-4.62109 4.621094,-10.05078 4.714844,-15.78125 0.0078,-0.18359 0.0078,-0.36328 0.0078,-0.54687 v -30.67578 l 84.00781,-12.47657 v 41.04297 c 0,7.80469 2.96094,15.07031 7.95313,20.57422 3.66406,4.02734 8.42969,7.09766 13.91016,8.73828 l 1.08984,0.32031 20.33203,6.0625 c 3.5,1.05079 6.875,2.33594 10.11328,3.86329 24.64063,11.63671 40.83594,36.60156 40.83594,64.49218 z m 0,0"
       inkscape:connector-curvature="0"
       style="fill:#ffdba9" />
    <path
       id="path4"
       d="m 224.56641,377.19141 c -3.23829,-1.52735 -6.61329,-2.8125 -10.10938,-3.85938 l -20.33594,-6.0625 -1.08984,-0.32422 c -5.48047,-1.64062 -10.24609,-4.71094 -13.91016,-8.73828 -4.99218,-5.5 -7.94922,-12.76953 -7.94922,-20.57422 v -41.04297 l -84.007808,12.47657 v 11.32031 L 144.875,311.81641 v 41.04296 c 0,7.80469 2.95703,15.07032 7.94922,20.57032 3.66406,4.03125 8.42969,7.10156 13.91015,8.74218 l 1.08985,0.32032 20.33594,6.0625 c 3.5,1.04687 6.87109,2.33593 10.10937,3.86328 24.64453,11.63672 40.83594,36.59765 40.83594,64.49219 V 512 h 18.23437 c 4.45313,0 8.0625,-3.61328 8.0625,-8.07422 v -62.24219 c 0.004,-27.89062 -16.1914,-52.85547 -40.83593,-64.49218 z m 0,0"
       inkscape:connector-curvature="0"
       style="fill:#ffc473" />
    <path
       id="path6"
       d="m 171.17187,296.58984 v 30.08203 c -15.65234,11.27344 -34.86718,17.91407 -55.63671,17.91407 -9.88282,0 -19.414066,-1.50391 -28.382816,-4.29688 0.01172,-0.1875 0.01172,-0.36328 0.01172,-0.55078 v -30.67187 z m 0,0"
       inkscape:connector-curvature="0"
       style="fill:#ffc473" />
    <path
       id="path8"
       d="m 115.52734,322.78906 c -52.648434,0 -95.328121,-42.67969 -95.328121,-95.32812 V 44.023438 H 210.85547 V 227.46094 c 0,52.64843 -42.67578,95.32812 -95.32813,95.32812 z m 0,0"
       inkscape:connector-curvature="0"
       style="fill:#ffdba9" />
    <path
       id="path10"
       d="m 221.66797,215.18359 h -10.8086 V 150.1875 h 10.8086 c 16.36719,0 29.63281,13.26562 29.63281,29.62891 v 5.73437 c 0,16.36719 -13.26562,29.63281 -29.63281,29.63281 z m 0,0"
       inkscape:connector-curvature="0"
       style="fill:#ffc473" />
    <path
       id="path12"
       d="m 67.597656,170.36328 c 0,4.58594 -3.714844,8.30469 -8.304687,8.30469 -4.585938,0 -8.300781,-3.71875 -8.300781,-8.30469 0,-4.58594 3.714843,-8.30469 8.300781,-8.30469 4.589843,0 8.304687,3.71875 8.304687,8.30469 z m 0,0"
       inkscape:connector-curvature="0"
       style="fill:#57555c" />
    <path
       id="path14"
       d="m 143.40234,170.36328 c 0,4.58594 -3.71484,8.30469 -8.30078,8.30469 -4.58984,0 -8.30468,-3.71875 -8.30468,-8.30469 0,-4.58594 3.71484,-8.30469 8.30468,-8.30469 4.58594,0 8.30078,3.71875 8.30078,8.30469 z m 0,0"
       inkscape:connector-curvature="0"
       style="fill:#57555c" />
    <path
       id="path16"
       d="m 94.933594,271.80859 c -8.519532,0 -15.304688,-2.375 -18.59375,-3.79297 -3.949219,-1.70312 -5.769532,-6.28125 -4.070313,-10.23046 1.699219,-3.94922 6.28125,-5.77344 10.230469,-4.07032 3.382812,1.45704 12.34375,4.44922 22.41406,0.75782 7.69922,-2.82032 12.28907,-8.22657 14.33594,-11.19922 2.44141,-3.53906 7.28906,-4.42969 10.83203,-1.98828 3.53906,2.4414 4.42969,7.29297 1.98828,10.83203 -3.10156,4.49218 -10.05468,12.67187 -21.80078,16.97656 -5.4375,1.99219 -10.648436,2.71484 -15.335936,2.71484 z m 0,0"
       inkscape:connector-curvature="0"
       style="fill:#c06100" />
    <path
       id="path18"
       d="M 224.5625,377.19531 V 512 H 43.773438 V 375.90234 c 2.335937,-0.98047 4.734374,-1.83203 7.199218,-2.57031 l 14.332032,-4.27344 c 2.601562,-0.77734 5.035156,-1.8789 7.261718,-3.2539 v 38.64843 c 0,33.57032 27.203125,60.77735 60.777344,60.77735 16.77344,0 31.96875,-6.80469 42.97656,-17.80078 10.99219,-10.9961 17.79688,-26.19141 17.79688,-42.97657 v -37.1875 l 20.33593,6.07032 c 3.5,1.04297 6.87891,2.33203 10.10938,3.85937 z m 0,0"
       inkscape:connector-curvature="0"
       style="fill:#6dd7a7" />
    <path
       id="path20"
       d="M 20.199219,127.38281 V 3.398438 c 0,-1.601563 1.824219,-2.527344 3.117187,-1.570313 l 19.554688,14.429687 c 0.6875,0.507813 1.632812,0.507813 2.320312,0 l 21.511719,-15.875 c 0.6875,-0.511718 1.628906,-0.511718 2.320313,0 l 21.511718,15.875 c 0.6875,0.507813 1.628906,0.507813 2.320313,0 l 21.511721,-15.875 c 0.6875,-0.511718 1.6289,-0.511718 2.32031,0 l 21.51172,15.875 c 0.6875,0.507813 1.6289,0.507813 2.32031,0 l 21.50781,-15.875 c 0.69141,-0.511718 1.63282,-0.511718 2.32422,0 l 21.50781,15.875 c 0.69141,0.507813 1.63282,0.507813 2.32422,0 L 207.73828,1.828125 c 1.28906,-0.957031 3.11719,-0.03125 3.11719,1.570313 V 145.64844 L 181.3125,134.04687 c -10.23438,-4.01953 -16.96094,-13.89453 -16.96094,-24.89062 v -2.60937 c 0,-16.95313 -16.71094,-28.851568 -32.73437,-23.304692 l -23.8086,8.238281 C 98.847656,94.582031 89.117188,94.65625 80.109375,91.683594 L 52.589844,82.601562 C 36.632812,77.335938 20.195312,89.21875 20.195312,106.02344 v 21.35937 z m 0,0"
       inkscape:connector-curvature="0"
       style="fill:#ffa91f" />
    <path
       id="path22"
       d="M 25.976562,3.789062 23.316406,1.828125 C 22.027344,0.871094 20.199219,1.796875 20.199219,3.398438 v 4.65625 z m 0,0"
       inkscape:connector-curvature="0"
       style="fill:#ff9a01" />
    <path
       id="path24"
       d="M 207.74219,1.828125 188.1875,16.257812 c -0.69141,0.507813 -1.63281,0.507813 -2.32422,0 L 174.75,8.054688 v 90.238281 c 0,19.722661 11.9375,37.488281 30.19531,44.949221 3.53516,1.44531 5.91406,2.40625 5.91406,2.40625 V 3.398438 c -0.004,-1.601563 -1.82812,-2.527344 -3.11718,-1.570313 z m 0,0"
       inkscape:connector-curvature="0"
       style="fill:#ff9a01" />
    <path
       id="path26"
       d="m 134.11719,476.71484 c 40.70312,0 73.69922,-32.99609 73.69922,-73.69922 v -31.66406 l -13.69922,-4.08594 v 37.1875 c 0,16.78516 -6.80469,31.98047 -17.80078,42.97657 -11.00391,10.99609 -26.19922,17.79687 -42.97657,17.79687 -33.570309,0 -60.773434,-27.20312 -60.773434,-60.77344 v -38.64843 c -2.230468,1.375 -4.660156,2.47265 -7.261718,3.2539 l -4.886719,1.45703 v 32.5 c 0,40.70313 32.996093,73.69922 73.699221,73.69922 z m 0,0"
       inkscape:connector-curvature="0"
       style="fill:#00989e" />
    <g
       id="g906"
       transform="translate(183.9598,0.00127474)">
      <path
         d="m 267.64062,443.51953 v 60.62109 c 0,4.33985 -3.5039,7.85938 -7.80078,7.85938 H 18.996094 c -4.316406,0 -7.808594,-3.51953 -7.808594,-7.85938 v -60.62109 c 0,-30.71875 20.03125,-57.79297 49.242188,-66.57031 l 13.851562,-4.15235 c 7.035156,-2.10937 12.828125,-6.69921 16.558594,-12.64843 2.429687,-3.86328 3.976562,-8.32032 4.417968,-13.04688 0.105469,-0.93359 0.144532,-1.88672 0.144532,-2.85547 v -25.17187 l 81.179686,-16.84766 v 39.95313 c 0,7.61328 2.85156,14.69531 7.6836,20.03515 3.53515,3.92578 8.14062,6.92578 13.42968,8.51563 l 20.69922,6.21875 c 29.22266,8.77734 49.24609,35.85156 49.24609,66.57031 z m 0,0"
         id="path2-7"
         inkscape:connector-curvature="0"
         style="fill:#ffdba9" />
      <path
         d="m 176.58203,302.23047 v 33.0039 c -13.71484,9.26172 -30.20312,14.65235 -47.9375,14.65235 h -11.65234 c -7.50391,0 -14.78906,-0.96485 -21.734378,-2.78125 0.105469,-0.9375 0.144532,-1.89063 0.144532,-2.85938 v -25.17187 z m 0,0"
         id="path4-5"
         inkscape:connector-curvature="0"
         style="fill:#ffc473" />
      <path
         d="M 214.92187,39.914062 V 240.78125 c 0,48.01953 -38.6289,86.95312 -86.27734,86.95312 h -11.65234 c -47.660159,0 -86.289065,-38.93359 -86.289065,-86.95312 V 39.914062 Z m 0,0"
         id="path6-2"
         inkscape:connector-curvature="0"
         style="fill:#ffdba9" />
      <path
         d="m 224.47266,222.94531 h -9.54688 v -63.29687 h 9.54688 c 16.30859,0 29.53125,13.22265 29.53125,29.53125 v 4.23437 c 0,16.3086 -13.22266,29.53125 -29.53125,29.53125 z m 0,0"
         id="path8-0"
         inkscape:connector-curvature="0"
         style="fill:#ffc473" />
      <path
         d="m 152.125,0 v 75.503906 c 0,9.296875 3.66406,18.210938 10.18359,24.785154 l 11.50391,11.59375 c 7.55859,7.61719 11.80859,17.94922 11.80859,28.72266 v 3.42969 c 0,7.14062 5.74219,12.92968 12.82422,12.92968 h 16.48438 V 43.601562 C 214.92578,19.519531 195.55859,0 171.66406,0 Z m 0,0"
         id="path10-8"
         inkscape:connector-curvature="0"
         style="fill:#994c00" />
      <path
         d="m 38.398438,79.824219 h 78.128902 c 19.66016,0 35.59766,-16.0625 35.59766,-35.875 V 0 L 2.164062,33.507812 C 0.902344,33.789062 0,34.921875 0,36.226562 v 4.894532 c 0,21.375 17.191406,38.703125 38.398438,38.703125 z m 0,0"
         id="path12-4"
         inkscape:connector-curvature="0"
         style="fill:#c06100" />
      <path
         d="m 77.632812,179.29687 c 0,-5.09765 -4.097656,-9.22656 -9.152343,-9.22656 -5.058594,0 -9.15625,4.12891 -9.15625,9.22656 0,5.09375 4.097656,9.22657 9.15625,9.22657 5.054687,0 9.152343,-4.13282 9.152343,-9.22657 z m 0,0"
         id="path14-1"
         inkscape:connector-curvature="0"
         style="fill:#57555c" />
      <path
         d="m 150.87891,179.29687 c 0,-5.09765 -4.09766,-9.22656 -9.15235,-9.22656 -5.05859,0 -9.15625,4.12891 -9.15625,9.22656 0,5.09375 4.09766,9.22657 9.15625,9.22657 5.05469,0 9.15235,-4.13282 9.15235,-9.22657 z m 0,0"
         id="path16-0"
         inkscape:connector-curvature="0"
         style="fill:#57555c" />
      <path
         d="m 267.64062,443.51953 v 60.62109 c 0,4.33985 -3.5039,7.85938 -7.80078,7.85938 H 18.996094 c -4.316406,0 -7.808594,-3.51953 -7.808594,-7.85938 v -60.62109 c 0,-30.71875 20.03125,-57.79297 49.242188,-66.57031 l 13.851562,-4.15235 c 4.046875,-1.21484 7.664062,-3.26171 10.726562,-5.91015 l 44.480468,14.69531 7.33985,2.41797 7.48828,-1.87891 36.21093,-9.10546 10.07813,-5.4961 c 2.18359,1.35156 4.55469,2.45313 7.08984,3.21094 l 20.69922,6.21875 c 29.22266,8.77734 49.24609,35.85156 49.24609,66.57031 z m 0,0"
         id="path18-1"
         inkscape:connector-curvature="0"
         style="fill:#c1e4ff" />
      <path
         d="m 102.91797,278.29297 c -8.269532,0 -14.859376,-2.32422 -18.050782,-3.70703 -3.921876,-1.70313 -5.730469,-6.28516 -4.042969,-10.23438 1.691406,-3.95312 6.238281,-5.77343 10.15625,-4.07422 3.25,1.41016 11.843751,4.30469 21.503911,0.73438 7.39062,-2.72656 11.79296,-7.95313 13.75781,-10.82813 2.42187,-3.53906 7.23828,-4.43359 10.75,-1.98828 3.51562,2.44141 4.39843,7.29297 1.97265,10.83594 -3.00781,4.39453 -9.75781,12.39844 -21.16015,16.60938 -5.28125,1.94921 -10.33985,2.65234 -14.88672,2.65234 z m 0,0"
         id="path20-0"
         inkscape:connector-curvature="0"
         style="fill:#c06100" />
      <path
         d="M 144.55469,384 V 512 H 129.09766 V 384 c 0,-0.83984 0.13281,-1.66016 0.39062,-2.41797 l 7.33984,2.41797 7.48829,-1.87891 c 0.15625,0.60547 0.23828,1.22657 0.23828,1.87891 z m 0,0"
         id="path22-9"
         inkscape:connector-curvature="0"
         style="fill:#84caff" />
      <path
         d="M 91.121094,360.14453 136.82422,384 115.02344,409.40625 c -2.19531,2.5625 -6.12891,2.58984 -8.36328,0.0586 L 74.285156,372.79297 Z m 0,0"
         id="path24-7"
         inkscape:connector-curvature="0"
         style="fill:#00a6ff" />
      <path
         d="M 231.64453,481.05078 V 512 h -15.45312 v -30.94922 c 0,-4.29687 3.46093,-7.78906 7.72656,-7.78906 4.27734,0 7.72656,3.49219 7.72656,7.78906 z m 0,0"
         id="path26-9"
         inkscape:connector-curvature="0"
         style="fill:#84caff" />
      <path
         d="M 182.52734,360.14453 136.82422,384 158.625,409.40625 c 2.19922,2.5625 6.12891,2.58984 8.36328,0.0586 l 33.46875,-37.90234 z m 0,0"
         id="path28"
         inkscape:connector-curvature="0"
         style="fill:#00a6ff" />
      <path
         d="M 66.570312,481.05078 V 512 H 51.117188 v -30.94922 c 0,-4.29687 3.460937,-7.78906 7.726562,-7.78906 4.265625,0 7.726562,3.49219 7.726562,7.78906 z m 0,0"
         id="path30"
         inkscape:connector-curvature="0"
         style="fill:#84caff" />
      <g
         id="g40"
         style="fill:#644b32">
        <path
           d="m 87.226562,209.41406 h -52.875 c -6.273437,0 -11.375,-5.14062 -11.375,-11.46484 v -37.3086 c 0,-6.32031 5.101563,-11.46093 11.375,-11.46093 h 52.875 c 6.273438,0 11.375,5.14062 11.375,11.46093 v 37.3086 c 0,6.32422 -5.101562,11.46484 -11.375,11.46484 z M 38.433594,193.83594 H 83.144531 V 164.75391 H 38.433594 Z m 0,0"
           id="path32"
           inkscape:connector-curvature="0" />
        <path
           d="m 179.08203,209.41406 h -56.40234 c -6.27344,0 -11.375,-5.14062 -11.375,-11.46484 v -37.3086 c 0,-6.32031 5.10156,-11.46093 11.375,-11.46093 h 56.40234 c 6.26953,0 11.375,5.14062 11.375,11.46093 v 37.3086 c 0,6.32422 -5.10547,11.46484 -11.375,11.46484 z M 126.76172,193.83594 H 175 v -29.08203 h -48.23828 z m 0,0"
           id="path34"
           inkscape:connector-curvature="0" />
        <path
           d="M 119.03125,177.85937 H 90.875 c -4.269531,0 -7.730469,-3.48828 -7.730469,-7.78906 0,-4.30469 3.460938,-7.78906 7.730469,-7.78906 h 28.15625 c 4.26953,0 7.73047,3.48437 7.73047,7.78906 0,4.30078 -3.46094,7.78906 -7.73047,7.78906 z m 0,0"
           id="path36"
           inkscape:connector-curvature="0" />
        <path
           d="m 214.92187,149.17969 v 15.57812 h -36.08593 c -4.27344,0 -7.72657,-3.48828 -7.72657,-7.78906 0,-4.30859 3.45313,-7.78906 7.72657,-7.78906 z m 0,0"
           id="path38"
           inkscape:connector-curvature="0" />
      </g>
    </g>
    <g
       id="g899"
       transform="matrix(0.99999646,0,0,0.99999646,390.71399,-8.2276499e-4)">
      <path
         d="m 77.769531,49.050781 v 83.078129 c 0,4.10546 -3.289062,7.41796 -7.359375,7.41796 H 33.964844 c -8.71875,0 -16.664063,-3.3125 -22.667969,-8.75781 C 4.359375,124.52734 0,115.42969 0,105.31641 V 48.0625 C 0,29.152344 15.210938,13.820312 33.964844,13.820312 h 8.851562 c 1.441406,0 2.863282,0.09375 4.265625,0.261719 17.300781,2.121094 30.6875,16.96875 30.6875,34.96875 z m 0,0"
         id="path2-0"
         inkscape:connector-curvature="0"
         style="fill:#e1e1e3" />
      <path
         d="m 275.01172,439.61719 v 64.07422 c 0,4.58203 -3.6875,8.30859 -8.24219,8.30859 H 12.191406 C 7.636719,512 3.9375,508.27344 3.9375,503.69141 v -64.07422 c 0,-32.47656 21.175781,-61.09766 52.058594,-70.3711 l 14.640625,-4.39453 c 7.429687,-2.22265 13.550781,-7.07031 17.496093,-13.36328 3.082032,-4.91406 4.824219,-10.70703 4.824219,-16.8125 V 299.6875 l 85.804689,-9.42188 v 42.23829 c 0,8.03906 3.02734,15.52343 8.12891,21.17578 3.73828,4.14062 8.60156,7.30859 14.19921,8.99219 l 21.875,6.57421 c 30.89063,9.27344 52.04688,37.89454 52.04688,70.3711 z m 0,0"
         id="path4-6"
         inkscape:connector-curvature="0"
         style="fill:#ffdba9" />
      <path
         d="m 178.76172,290.26562 v 29.97266 c -15.99219,11.62109 -35.625,18.45313 -56.82813,18.45313 -10.08984,0 -19.8164,-1.54688 -28.976559,-4.42188 V 299.6875 Z m 0,0"
         id="path6-6"
         inkscape:connector-curvature="0"
         style="fill:#ffc473" />
      <path
         d="m 77.769531,49.050781 v 83.078129 c 0,4.10546 -3.289062,7.41796 -7.359375,7.41796 H 33.964844 c -8.71875,0 -16.664063,-3.3125 -22.667969,-8.75781 V 90.082031 c 0,-22.503906 7.511719,-43.222656 20.152344,-59.769531 4.574219,-6 9.832031,-11.453125 15.632812,-16.230469 17.300781,2.121094 30.6875,16.96875 30.6875,34.96875 z m 0,0"
         id="path8-7"
         inkscape:connector-curvature="0"
         style="fill:#f7f7f7" />
      <path
         d="M 219.30859,98.128906 V 219.09766 c 0,54.19921 -43.59765,98.1289 -97.375,98.1289 -53.769528,0 -97.367184,-43.92969 -97.367184,-98.1289 V 98.128906 c 0,-22.503906 7.511719,-43.222656 20.15625,-59.765625 C 62.515625,15.027344 90.492188,0 121.93359,0 c 26.89063,0 51.23047,10.988281 68.83985,28.746094 17.63281,17.757812 28.53515,42.289062 28.53515,69.382812 z m 0,0"
         id="path10-4"
         inkscape:connector-curvature="0"
         style="fill:#ffdba9" />
      <path
         d="m 231.07422,206.45312 h -11.77735 v -66.90625 h 11.77735 c 16.30859,0 29.53125,13.22266 29.53125,29.53125 v 7.84766 c 0,16.30859 -13.21875,29.52734 -29.53125,29.52734 z m 0,0"
         id="path12-8"
         inkscape:connector-curvature="0"
         style="fill:#ffc473" />
      <path
         d="m 65.136719,160.31641 c 0,-5.38672 -4.332031,-9.75391 -9.675781,-9.75391 -5.347657,0 -9.679688,4.36719 -9.679688,9.75391 0,5.38671 4.332031,9.7539 9.679688,9.7539 5.34375,0 9.675781,-4.36719 9.675781,-9.7539 z m 0,0"
         id="path14-0"
         inkscape:connector-curvature="0"
         style="fill:#57555c" />
      <path
         d="m 148.64844,160.31641 c 0,-5.38672 -4.33203,-9.75391 -9.67578,-9.75391 -5.34375,0 -9.67579,4.36719 -9.67579,9.75391 0,5.38671 4.33204,9.7539 9.67579,9.7539 5.34375,0 9.67578,-4.36719 9.67578,-9.7539 z m 0,0"
         id="path16-1"
         inkscape:connector-curvature="0"
         style="fill:#57555c" />
      <path
         d="m 100.89844,264.51562 c -8.660159,0 -15.558596,-2.42968 -18.902346,-3.88281 -3.921875,-1.70312 -5.730469,-6.28515 -4.042969,-10.23437 1.6875,-3.95313 6.234375,-5.77344 10.15625,-4.07422 3.480469,1.51172 12.699215,4.61328 23.054685,0.78906 7.92969,-2.92969 12.64453,-8.53125 14.75391,-11.61328 2.42187,-3.53906 7.23437,-4.43359 10.75,-1.98828 3.51562,2.4414 4.39844,7.29297 1.97656,10.83203 -3.15234,4.60156 -10.21875,12.98437 -22.16015,17.39453 -5.52735,2.04297 -10.82422,2.77735 -15.58594,2.77734 z m 0,0"
         id="path18-3"
         inkscape:connector-curvature="0"
         style="fill:#c06100" />
      <path
         d="m 275.01562,503.69141 v -64.07813 c 0,-32.47656 -21.16406,-61.09375 -52.04687,-70.36328 l -21.88281,-6.57422 c -5.59375,-1.6875 -10.45313,-4.85156 -14.19532,-9 -0.14453,-0.16016 -0.28125,-0.32812 -0.42578,-0.48828 -0.42187,2.58594 -4.0625,20.28125 -25.44922,30.82812 -20.15234,9.9375 -22.35937,37.58594 -22.59375,44.50782 -0.0312,0.88672 -0.75781,1.58593 -1.63671,1.58593 -0.88282,0 -1.60938,-0.69921 -1.63672,-1.58593 -0.23828,-6.92188 -2.44532,-34.56641 -22.59375,-44.50782 -21.796878,-10.75 -25.160159,-28.92968 -25.472659,-30.96484 -3.941406,5.52735 -9.644531,9.76953 -16.445312,11.80469 l -14.640625,4.39844 C 25.113281,378.52344 3.9375,407.14062 3.9375,439.61328 v 64.08203 c 0,4.58203 3.699219,8.3086 8.257812,8.3086 H 266.77344 c 4.54687,-0.004 8.24218,-3.73047 8.24218,-8.3125 z m 0,0"
         id="path20-3"
         inkscape:connector-curvature="0"
         style="fill:#aeadb3" />
      <path
         d="m 222.96875,369.25 -21.88281,-6.57422 c -5.59375,-1.6875 -10.45313,-4.85156 -14.19532,-9 -0.14453,-0.16016 -0.28125,-0.32812 -0.42578,-0.48828 -0.33203,2.02344 -2.63281,13.28906 -13.85156,23.14844 0.1875,0.0586 0.36719,0.1289 0.55469,0.1875 l 21.88281,6.57422 c 30.88281,9.26953 52.04297,37.88671 52.04297,70.35937 V 512 h 19.67969 c 4.54687,0 8.24218,-3.72656 8.24218,-8.30859 v -64.07813 c 0,-32.47656 -21.16406,-61.09375 -52.04687,-70.36328 z m 0,0"
         id="path22-7"
         inkscape:connector-curvature="0"
         style="fill:#919191" />
      <path
         d="m 144.84766,470.18359 c 0,-5.38281 -4.33204,-9.75 -9.67579,-9.75 -5.34375,0 -9.67578,4.36719 -9.67578,9.75 0,5.38672 4.33203,9.75391 9.67578,9.75391 5.34375,0 9.67579,-4.36719 9.67579,-9.75391 z m 0,0"
         id="path24-3"
         inkscape:connector-curvature="0"
         style="fill:#ffffff" />
      <path
         d="m 229.07812,139.54687 h -36.28515 c -18.83203,0 -34.09766,-15.26562 -34.09766,-34.09765 V 47.925781 c 0,-18.832031 15.26563,-34.097656 34.09766,-34.097656 h 8.58203 c 19.37891,0 35.08984,15.707031 35.08984,35.085937 v 83.246098 c 0,4.08203 -3.30859,7.38671 -7.38672,7.38671 z m 0,0"
         id="path26-4"
         inkscape:connector-curvature="0"
         style="fill:#f7f7f7" />
      <path
         d="m 201.51172,13.828125 h -8.85156 c -2.37891,0 -4.69532,0.246094 -6.9375,0.714844 15.92578,3.289062 27.90234,17.488281 27.90234,34.511719 v 83.078122 c 0,4.09375 -3.29297,7.41406 -7.35547,7.41406 h 22.83594 c 4.0625,0 7.35937,-3.32031 7.35937,-7.41406 V 49.054688 c 0,-19.457032 -15.64843,-35.226563 -34.95312,-35.226563 z m 0,0"
         id="path28-4"
         inkscape:connector-curvature="0"
         style="fill:#e1e1e3" />
      <g
         id="g38"
         style="fill:#9d9c9f">
        <path
           d="m 45.78125,202.70312 c -23.1875,0 -42.054688,-19.01562 -42.054688,-42.38671 0,-23.3711 18.867188,-42.38672 42.054688,-42.38672 23.191406,0 42.058594,19.01562 42.058594,42.38672 0,23.37109 -18.867188,42.38671 -42.058594,42.38671 z m 0,-69.19531 c -14.664062,0 -26.597656,12.02735 -26.597656,26.8086 0,14.78125 11.933594,26.80859 26.597656,26.80859 14.667969,0 26.601562,-12.02734 26.601562,-26.80859 0,-14.78125 -11.933593,-26.8086 -26.601562,-26.8086 z m 0,0"
           id="path30-7"
           inkscape:connector-curvature="0" />
        <path
           d="m 143.14844,202.70312 c -23.19141,0 -42.05469,-19.01562 -42.05469,-42.38671 0,-23.3711 18.86328,-42.38672 42.05469,-42.38672 23.1914,0 42.05468,19.01562 42.05468,42.38672 0,23.37109 -18.86328,42.38671 -42.05468,42.38671 z m 0,-69.19531 c -14.66797,0 -26.59766,12.02735 -26.59766,26.8086 0,14.78125 11.92969,26.80859 26.59766,26.80859 14.66797,0 26.59765,-12.02734 26.59765,-26.80859 0,-14.78125 -11.92968,-26.8086 -26.59765,-26.8086 z m 0,0"
           id="path32-1"
           inkscape:connector-curvature="0" />
        <path
           d="m 219.30859,131.75781 v 15.57813 h -46.71093 c -4.26563,0 -7.72657,-3.48828 -7.72657,-7.78907 0,-4.30078 3.46094,-7.78906 7.72657,-7.78906 z m 0,0"
           id="path34-6"
           inkscape:connector-curvature="0" />
        <path
           d="M 108.82031,166.40625 H 80.109375 c -4.265625,0 -7.726563,-3.48828 -7.726563,-7.78906 0,-4.30469 3.460938,-7.78907 7.726563,-7.78907 h 28.710935 c 4.26563,0 7.72657,3.48438 7.72657,7.78907 0,4.30078 -3.45704,7.78906 -7.72657,7.78906 z m 0,0"
           id="path36-8"
           inkscape:connector-curvature="0" />
      </g>
    </g>
  </g>
</svg>
