<?xml version="1.0" encoding="iso-8859-1"?>
<!-- Generator: Adobe Illustrator 19.0.0, SVG Export Plug-In . SVG Version: 6.00 Build 0)  -->
<svg version="1.1" id="Capa_1" xmlns="http://www.w3.org/2000/svg" xmlns:xlink="http://www.w3.org/1999/xlink" x="0px" y="0px"
	 viewBox="0 0 487.622 487.622" style="enable-background:new 0 0 487.622 487.622;" xml:space="preserve">
<g>
	<g>
		<circle style="fill:#65B3AD;" cx="243.811" cy="243.811" r="243.811"/>
		<path style="opacity:0.37;fill:#56A49E;enable-background:new    ;" d="M487.194,258.104L392.93,163.84l-166.982-4.011
			l-109.942,54.073v102.4l168.001,168.001C394.946,465.897,480.573,372.602,487.194,258.104z"/>
		<path style="fill:#FFFFFF;" d="M363.47,146.832l-29.459-17.01v18.475H199.442c-57.759,0-104.75,46.99-104.75,104.751
			c0,57.759,46.991,104.751,104.75,104.751c57.76,0,104.752-46.992,104.752-104.751c0-20.378-5.86-40.136-16.947-57.142
			l-26.04,16.976c7.786,11.943,11.901,25.833,11.901,40.166c0,40.618-33.047,73.664-73.666,73.664
			c-40.62,0-73.666-33.046-73.666-73.664c0-40.62,33.046-73.666,73.666-73.666H334.01v18.476l29.46-17.009l29.46-17.009
			L363.47,146.832z"/>
	</g>
</g>
<g>
</g>
<g>
</g>
<g>
</g>
<g>
</g>
<g>
</g>
<g>
</g>
<g>
</g>
<g>
</g>
<g>
</g>
<g>
</g>
<g>
</g>
<g>
</g>
<g>
</g>
<g>
</g>
<g>
</g>
</svg>
