<svg height="512pt" viewBox="0 -43 512.00038 512" width="512pt" xmlns="http://www.w3.org/2000/svg"><path d="m454.179688 128.558594h16.515624v206.4375h-16.515624zm0 0" fill="#dad8db"/><path d="m505.558594 102.3125-233.433594-99.035156c-10.304688-4.371094-21.945312-4.371094-32.25 0l-233.433594 99.035156c-8.589844 3.644531-8.589844 15.820312 0 19.464844l109.167969 46.3125 280.769531.003906 109.175782-46.316406c8.59375-3.644532 8.59375-15.820313.003906-19.464844zm0 0" fill="#5d5360"/><path d="m256 87.269531c-26.199219 0-156.894531 2.386719-156.894531 49.546875 0 47.15625 130.695312 49.542969 156.894531 49.542969s156.894531-2.386719 156.894531-49.542969-130.695312-49.546875-156.894531-49.546875zm0 0" fill="#4b3f4e"/><path d="m396.378906 136.816406c0-18.242187-62.851562-33.03125-140.378906-33.03125s-140.378906 14.789063-140.378906 33.03125v107.347656h280.757812zm0 0" fill="#6f6571"/><path d="m256 120.300781c-12.214844 0-24.0625.367188-35.355469 1.0625-17.3125 1.058594-30.703125 15.609375-30.703125 32.953125v89.847656h206.4375v-90.832031c0-18.242187-62.851562-33.03125-140.378906-33.03125zm0 0" fill="#857e87"/><g fill="#ffe07d"><path d="m478.953125 334.996094c0 9.121094-7.394531 16.515625-16.515625 16.515625s-16.515625-7.394531-16.515625-16.515625 7.394531-16.515625 16.515625-16.515625 16.515625 7.394531 16.515625 16.515625zm0 0"/><path d="m462.4375 351.511719c-9.121094 0-16.515625 7.390625-16.515625 16.511719v49.546874c0 4.558594 3.699219 8.257813 8.257813 8.257813h16.515624c4.5625 0 8.257813-3.695313 8.257813-8.257813v-49.546874c0-9.117188-7.394531-16.511719-16.515625-16.511719zm0 0"/><path d="m237.832031 166.542969 9.910157-13.214844v57.902344c2.75-.039063 5.472656-.097657 8.257812-.097657 2.789062 0 5.511719.058594 8.257812.097657v-57.902344l9.914063 13.214844c1.621094 2.160156 4.09375 3.300781 6.609375 3.300781 1.726562 0 3.460938-.535156 4.945312-1.652344 3.652344-2.734375 4.394532-7.910156 1.652344-11.558594l-24.773437-33.03125c-3.113281-4.160156-10.09375-4.160156-13.207031 0l-24.773438 33.03125c-2.742188 3.648438-2 8.824219 1.652344 11.558594 3.652344 2.75 8.828125 2 11.554687-1.648437zm0 0"/></g><path d="m247.742188 211.230469c2.746093-.039063 5.46875-.097657 8.257812-.097657s5.511719.058594 8.257812.097657v-16.613281c0-4.558594-3.695312-8.257813-8.257812-8.257813-4.558594 0-8.257812 3.699219-8.257812 8.257813zm0 0" fill="#ffd064"/><path d="m454.179688 425.828125h8.257812v-74.316406c-9.121094 0-16.515625 7.390625-16.515625 16.511719v49.546874c0 4.5625 3.699219 8.257813 8.257813 8.257813zm0 0" fill="#ffd064"/><path d="m396.378906 244.164062c0-18.242187-62.851562-33.03125-140.378906-33.03125s-140.378906 14.789063-140.378906 33.03125c0 18.242188 62.851562 33.027344 140.378906 33.027344s140.378906-14.785156 140.378906-33.027344zm0 0" fill="#4b3f4e"/></svg>