<?xml version="1.0" encoding="iso-8859-1"?>
<!-- Generator: Adobe Illustrator 19.0.0, SVG Export Plug-In . SVG Version: 6.00 Build 0)  -->
<svg version="1.1" id="Capa_1" xmlns="http://www.w3.org/2000/svg" xmlns:xlink="http://www.w3.org/1999/xlink" x="0px" y="0px"
	 viewBox="0 0 512 512" style="enable-background:new 0 0 512 512;" xml:space="preserve">
<path style="fill:#00ABE9;" d="M0,76v360h512V76H0z"/>
<rect x="256" y="76" style="fill:#0095FF;" width="256" height="360"/>
<g>
	<rect x="301" y="331" style="fill:#DFD7D5;" width="151" height="30"/>
	<rect x="301" y="271" style="fill:#DFD7D5;" width="151" height="30"/>
	<rect x="301" y="211" style="fill:#DFD7D5;" width="151" height="30"/>
	<rect x="301" y="151" style="fill:#DFD7D5;" width="91" height="30"/>
	<rect x="422" y="151" style="fill:#DFD7D5;" width="30" height="30"/>
</g>
<g>
	<path style="fill:#EDE9E8;" d="M226,211c0,32.999-27.001,60-60,60s-60-27.001-60-60c0-33.001,27.001-60,60-60S226,177.999,226,211z
		"/>
	<path style="fill:#EDE9E8;" d="M256,361H76c0-49.501,40.499-90,90-90S256,311.499,256,361z"/>
</g>
<g>
	<path style="fill:#DFD7D5;" d="M226,211c0,32.999-27.001,60-60,60V151C198.999,151,226,177.999,226,211z"/>
	<path style="fill:#DFD7D5;" d="M256,361h-90v-90C215.501,271,256,311.499,256,361z"/>
</g>
<g>
</g>
<g>
</g>
<g>
</g>
<g>
</g>
<g>
</g>
<g>
</g>
<g>
</g>
<g>
</g>
<g>
</g>
<g>
</g>
<g>
</g>
<g>
</g>
<g>
</g>
<g>
</g>
<g>
</g>
</svg>
