<svg height="464pt" viewBox="0 0 464 464" width="464pt" xmlns="http://www.w3.org/2000/svg"><path d="m144 208v80h-64zm0 0" fill="#78b9eb"/><path d="m360 208v80h-64zm0 0" fill="#78b9eb"/><path d="m216 208h32c8.835938 0 16 7.164062 16 16v72c0 8.835938-7.164062 16-16 16h-32c-8.835938 0-16-7.164062-16-16v-72c0-8.835938 7.164062-16 16-16zm0 0" fill="#78b9eb"/><path d="m464 64v368c0 17.671875-14.328125 32-32 32h-400c-17.671875 0-32-14.328125-32-32v-368zm0 0" fill="#78b9eb"/><path d="m464 32v32h-464v-32c0-17.671875 14.328125-32 32-32h400c17.671875 0 32 14.328125 32 32zm0 0" fill="#ff7956"/><path d="m464 64v368c0 17.671875-14.328125 32-32 32h-384l400-400zm0 0" fill="#5aaae7"/><path d="m40 24h16v16h-16zm0 0" fill="#ff5023"/><path d="m72 24h16v16h-16zm0 0" fill="#ffd422"/><path d="m104 24h16v16h-16zm0 0" fill="#00ccb3"/><path d="m168 24h224v16h-224zm0 0" fill="#ff9478"/><path d="m152 208c0-3.398438-2.144531-6.425781-5.351562-7.550781-3.207032-1.128907-6.773438-.101563-8.894532 2.550781l-64 80c-1.925781 2.402344-2.300781 5.691406-.96875 8.464844 1.335938 2.773437 4.136719 4.535156 7.214844 4.535156h56v24h16v-24h24v-16h-24zm-16 22.808594v49.191406h-39.351562zm0 0" fill="#1a6fb0"/><path d="m368 280v-72c0-3.398438-2.144531-6.425781-5.351562-7.550781-3.207032-1.128907-6.773438-.101563-8.894532 2.550781l-64 80c-1.925781 2.402344-2.300781 5.691406-.96875 8.464844 1.335938 2.773437 4.136719 4.535156 7.214844 4.535156h56v24h16v-24h24v-16zm-16-49.191406v49.191406h-39.351562zm0 0" fill="#1a6fb0"/><path d="m248 200h-32c-13.253906 0-24 10.746094-24 24v72c0 13.253906 10.746094 24 24 24h32c13.253906 0 24-10.746094 24-24v-72c0-13.253906-10.746094-24-24-24zm8 96c0 4.417969-3.582031 8-8 8h-32c-4.417969 0-8-3.582031-8-8v-72c0-4.417969 3.582031-8 8-8h32c4.417969 0 8 3.582031 8 8zm0 0" fill="#1a6fb0"/><g fill="#3d9ae2"><path d="m80 152h32v16h-32zm0 0"/><path d="m128 152h208v16h-208zm0 0"/><path d="m352 152h32v16h-32zm0 0"/><path d="m80 352h32v16h-32zm0 0"/><path d="m128 352h208v16h-208zm0 0"/><path d="m352 352h32v16h-32zm0 0"/></g></svg>