<svg height="480pt" viewBox="0 0 480 480" width="480pt" xmlns="http://www.w3.org/2000/svg"><path d="m420.484375 256.519531-7.78125-14.742187-13.554687 9.703125c-8.742188 6.222656-16.644532 14.789062-23.457032 24.441406l56.253906 14.0625c-2.050781-11.507813-5.800781-22.8125-11.460937-33.464844zm0 0" fill="#e20736"/><path d="m375.691406 275.921875c-10.898437 15.445313-18.972656 33.71875-22.953125 49.925781l-.199219.855469c-2.195312 11.730469-4.351562 27.824219-4.429687 39.644531-.074219 3.105469.097656 5.859375.359375 8.222656l15.574219 3.675782-13.300781 21.519531 46.714843 11.03125-2.269531-25.199219 15.570312 3.675782c6.585938-9.785157 14.6875-34.011719 18.328126-46.632813.199218-.859375.480468-1.695313.644531-2.394531 4.5-16.367188 5.199219-33.539063 2.214843-50.261719zm0 0" fill="#e3ddd5"/><path d="m409.21875 327.429688c0 8.839843-7.164062 16-16 16s-16-7.160157-16-16c0-8.835938 7.164062-16 16-16s16 7.164062 16 16zm0 0" fill="#29abe2"/><path d="m93.664062 308.523438 79.234376-11.03125-6.617188-47.539063 73.71875-25.957031 1.105469-16.769532-95.085938 13.238282-47.539062 6.617187-90.480469-35.082031.011719 23.445312 79.03125 45.539063zm0 0" fill="#e3ddd5"/><path d="m240.765625 8 191.234375 40-192 79.992188zm0 0" fill="#ffd422"/><path d="m172.898438 297.492188 33.496093 124.574218-15.847656 2.203125-50.648437-73.71875-28.585938 84.75-15.847656 2.207031-1.800782-128.984374zm0 0" fill="#333"/><path d="m142.941406 200.003906c0 13.253906-10.746094 24-24 24s-24-10.746094-24-24 10.746094-24 24-24 24 10.746094 24 24zm0 0" fill="#ffb398"/><path d="m130.171875 222.671875 14.542969 46.4375-13.640625 18.042969-18.054688-13.632813 1.308594-48.644531zm0 0" fill="#e20736"/><path d="m232 0h16v432h-16zm0 0" fill="#0071bc"/><path d="m471.945312 411.777344-12.867187 54.5-20.335937-54.53125-35.03125-24.296875 7.082031 1.671875c6.585937-9.789063 14.691406-34.015625 18.328125-46.636719zm0 0" fill="#ffd422"/><path d="m356.566406 376.480469-41.777344 6.003906-42.574218 39.675781 12.867187-54.5 67.65625-41.8125-.199219.855469c-2.195312 11.730469-4.351562 27.824219-4.429687 39.644531-.074219 3.105469.097656 5.859375.359375 8.222656zm0 0" fill="#ffd422"/><path d="m480 480s-72-56-240-56-240 56-240 56zm0 0" fill="#ff9811"/></svg>