<svg height="511pt" viewBox="0 -1 511.9994 511" width="511pt" xmlns="http://www.w3.org/2000/svg"><path d="m227.894531 140.042969c64.320313-105.769531 190.917969-61.59375 217.644531 23.289062 37.417969 118.835938-25.9375 260.855469-217.644531 346.792969-191.707031-85.9375-255.0625-227.953125-217.644531-346.792969 26.726562-84.882812 153.324219-129.058593 217.644531-23.289062zm0 0" fill="#f94141"/><path d="m227.890625 510.125c-191.703125-85.941406-255.058594-227.957031-217.640625-346.796875 17.15625-54.484375 75.453125-92.1875 132.007812-84.246094-33.703124 6.214844-64.433593 39.589844-74.800781 84.246094-27.578125 118.839844 19.117188 260.855469 160.433594 346.796875zm0 0" fill="#e22b2b"/><g fill="#ffbf3e"><path d="m459.945312 110.914062 41.839844-11.042968c13.617188-3.589844 13.617188-22.921875 0-26.515625l-41.839844-11.039063c-4.773437-1.261718-8.5-4.988281-9.761718-9.761718l-11.039063-41.84375c-3.59375-13.617188-22.925781-13.617188-26.515625 0l-11.042968 41.84375c-1.257813 4.773437-4.988282 8.5-9.757813 9.761718l-41.84375 11.039063c-13.617187 3.59375-13.617187 22.921875 0 26.515625l41.84375 11.042968c4.769531 1.257813 8.5 4.984376 9.757813 9.757813l11.042968 41.84375c3.589844 13.617187 22.921875 13.617187 26.515625 0l11.039063-41.84375c1.261718-4.769531 4.988281-8.5 9.761718-9.757813zm0 0"/><path d="m95.261719 441.929688 31.300781-8.257813c10.1875-2.6875 10.1875-17.148437 0-19.835937l-31.300781-8.257813c-3.566407-.941406-6.355469-3.730469-7.296875-7.300781l-8.261719-31.296875c-2.6875-10.1875-17.144531-10.1875-19.832031 0l-8.257813 31.296875c-.945312 3.570312-3.730469 6.359375-7.300781 7.300781l-31.300781 8.257813c-10.183594 2.6875-10.183594 17.148437 0 19.835937l31.300781 8.257813c3.570312.941406 6.355469 3.730468 7.300781 7.300781l8.257813 31.296875c2.6875 10.1875 17.144531 10.1875 19.832031 0l8.261719-31.296875c.941406-3.570313 3.730468-6.359375 7.296875-7.300781zm0 0"/></g></svg>