<?xml version="1.0" encoding="UTF-8" standalone="no"?>
<!-- Created with Inkscape (http://www.inkscape.org/) -->

<svg
   xmlns:dc="http://purl.org/dc/elements/1.1/"
   xmlns:cc="http://creativecommons.org/ns#"
   xmlns:rdf="http://www.w3.org/1999/02/22-rdf-syntax-ns#"
   xmlns:svg="http://www.w3.org/2000/svg"
   xmlns="http://www.w3.org/2000/svg"
   xmlns:sodipodi="http://sodipodi.sourceforge.net/DTD/sodipodi-0.dtd"
   xmlns:inkscape="http://www.inkscape.org/namespaces/inkscape"
   width="22.787769mm"
   height="23.053701mm"
   viewBox="0 0 22.787769 23.053701"
   version="1.1"
   id="svg1487"
   inkscape:version="0.92.3 (2405546, 2018-03-11)"
   sodipodi:docname="gdpr.svg">
  <defs
     id="defs1481" />
  <sodipodi:namedview
     id="base"
     pagecolor="#ffffff"
     bordercolor="#666666"
     borderopacity="1.0"
     inkscape:pageopacity="0.0"
     inkscape:pageshadow="2"
     inkscape:zoom="0.35"
     inkscape:cx="-484.07935"
     inkscape:cy="57.851745"
     inkscape:document-units="mm"
     inkscape:current-layer="layer1"
     showgrid="false"
     fit-margin-top="0"
     fit-margin-left="0"
     fit-margin-right="0"
     fit-margin-bottom="0"
     inkscape:window-width="1680"
     inkscape:window-height="987"
     inkscape:window-x="1672"
     inkscape:window-y="-8"
     inkscape:window-maximized="1" />
  <metadata
     id="metadata1484">
    <rdf:RDF>
      <cc:Work
         rdf:about="">
        <dc:format>image/svg+xml</dc:format>
        <dc:type
           rdf:resource="http://purl.org/dc/dcmitype/StillImage" />
        <dc:title></dc:title>
      </cc:Work>
    </rdf:RDF>
  </metadata>
  <g
     inkscape:label="Layer 1"
     inkscape:groupmode="layer"
     id="layer1"
     transform="translate(-108.04659,-141.08624)">
    <g
       transform="matrix(0.04747452,0,0,0.04747452,108.03231,141.08624)"
       id="g941-0-5-8">
      <path
         style="fill:#0a51a5"
         inkscape:connector-curvature="0"
         d="m 384.30078,240 c 0,79.52734 -64.47266,144 -144,144 -79.53125,0 -143.999999,-64.47266 -143.999999,-144 0,-79.52734 64.468749,-144 143.999999,-144 79.52734,0 144,64.47266 144,144 z m 0,0"
         id="path2-7-3-2" />
      <path
         style="fill:#e8c325"
         inkscape:connector-curvature="0"
         d="m 192.30078,216 h 96 c 8.80078,0 16,7.19922 16,16 v 80 c 0,8.80078 -7.19922,16 -16,16 h -96 c -8.80078,0 -16,-7.19922 -16,-16 v -80 c 0,-8.80078 7.19922,-16 16,-16 z m 0,0"
         id="path4-8-1-0" />
      <path
         style="fill:#0a51a5"
         inkscape:connector-curvature="0"
         d="m 256.30078,264 c 0,8.83594 -7.16406,16 -16,16 -8.83594,0 -16,-7.16406 -16,-16 0,-8.83594 7.16406,-16 16,-16 8.83594,0 16,7.16406 16,16 z m 0,0"
         id="path6-8-3-6" />
      <path
         style="fill:#0a51a5"
         inkscape:connector-curvature="0"
         d="m 232.30078,272 h 16 v 32 h -16 z m 0,0"
         id="path8-7-4-0" />
      <g
         style="fill:#e8c325"
         id="g82-6-6-85">
        <path
           inkscape:connector-curvature="0"
           d="m 216.30078,16 h 48 v 16 h -48 z m 0,0"
           id="path10-2-3-4" />
        <path
           inkscape:connector-curvature="0"
           d="M 229.89844,53.601562 218.69922,42.398438 232.30078,28.800781 V 0 h 16 v 35.199219 z m 0,0"
           id="path12-4-5-1" />
        <path
           inkscape:connector-curvature="0"
           d="m 234.72266,37.738281 11.3125,-11.3125 15.83984,15.839844 -11.31641,11.3125 z m 0,0"
           id="path14-4-1-7" />
        <path
           inkscape:connector-curvature="0"
           d="m 320.30078,48 h 48 v 16 h -48 z m 0,0"
           id="path16-2-3-9" />
        <path
           inkscape:connector-curvature="0"
           d="M 333.89844,85.601562 322.69922,74.398438 336.30078,60.800781 V 32 h 16 v 35.199219 z m 0,0"
           id="path18-0-8-9" />
        <path
           inkscape:connector-curvature="0"
           d="m 338.71875,69.738281 11.31641,-11.3125 15.83984,15.839844 -11.31641,11.3125 z m 0,0"
           id="path20-1-7-5" />
        <path
           inkscape:connector-curvature="0"
           d="m 400.30078,128 h 48 v 16 h -48 z m 0,0"
           id="path22-1-8-44" />
        <path
           inkscape:connector-curvature="0"
           d="m 413.89844,165.60156 -11.19922,-11.20312 13.60156,-13.59766 V 112 h 16 v 35.19922 z m 0,0"
           id="path24-9-3-5" />
        <path
           inkscape:connector-curvature="0"
           d="m 418.71875,149.73828 11.31641,-11.3125 15.83593,15.83984 -11.3125,11.3125 z m 0,0"
           id="path26-1-0-1" />
        <path
           inkscape:connector-curvature="0"
           d="m 432.30078,232 h 48 v 16 h -48 z m 0,0"
           id="path28-2-4-5" />
        <path
           inkscape:connector-curvature="0"
           d="m 445.89844,269.60156 -11.19922,-11.20312 13.60156,-13.59766 V 216 h 16 v 35.19922 z m 0,0"
           id="path30-1-7-6" />
        <path
           inkscape:connector-curvature="0"
           d="m 450.71875,253.73828 11.3125,-11.3125 15.83984,15.83984 -11.3125,11.3125 z m 0,0"
           id="path32-9-9-7" />
        <path
           inkscape:connector-curvature="0"
           d="m 216.30078,448 h 48 v 16 h -48 z m 0,0"
           id="path34-9-7-1" />
        <path
           inkscape:connector-curvature="0"
           d="m 229.89844,485.60156 -11.19922,-11.20312 13.60156,-13.59766 V 432 h 16 v 35.19922 z m 0,0"
           id="path36-5-6-8" />
        <path
           inkscape:connector-curvature="0"
           d="m 234.71875,469.73437 11.3125,-11.3125 15.83984,15.83985 -11.3125,11.3125 z m 0,0"
           id="path38-3-2-98" />
        <path
           inkscape:connector-curvature="0"
           d="m 400.30078,336 h 48 v 16 h -48 z m 0,0"
           id="path40-0-6-1" />
        <path
           inkscape:connector-curvature="0"
           d="m 413.89844,373.60156 -11.19922,-11.20312 13.60156,-13.59766 V 320 h 16 v 35.19922 z m 0,0"
           id="path42-8-3-0" />
        <path
           inkscape:connector-curvature="0"
           d="m 418.71875,357.73828 11.3125,-11.3125 15.83984,15.83594 -11.3125,11.3164 z m 0,0"
           id="path44-3-3-5" />
        <path
           inkscape:connector-curvature="0"
           d="m 328.30078,416 h 48 v 16 h -48 z m 0,0"
           id="path46-7-3-3" />
        <path
           inkscape:connector-curvature="0"
           d="m 341.89844,453.60156 -11.19922,-11.20312 13.60156,-13.59766 V 400 h 16 v 35.19922 z m 0,0"
           id="path48-5-1-4" />
        <path
           inkscape:connector-curvature="0"
           d="m 346.71875,437.73828 11.3125,-11.31641 15.83984,15.83985 -11.3125,11.3125 z m 0,0"
           id="path50-6-7-6" />
        <path
           inkscape:connector-curvature="0"
           d="m 112.30078,48 h 48 v 16 h -48 z m 0,0"
           id="path52-1-3-0" />
        <path
           inkscape:connector-curvature="0"
           d="M 146.69922,85.601562 128.30078,67.199219 V 32 h 16 v 28.800781 l 13.59766,13.597657 z m 0,0"
           id="path54-4-4-3" />
        <path
           inkscape:connector-curvature="0"
           d="m 114.72266,74.261719 15.83984,-15.835938 11.3125,11.3125 -15.83984,15.839844 z m 0,0"
           id="path56-4-8-0" />
        <path
           inkscape:connector-curvature="0"
           d="m 32.300781,128 h 48 v 16 h -48 z m 0,0"
           id="path58-9-1-4" />
        <path
           inkscape:connector-curvature="0"
           d="M 66.699219,165.60156 48.300781,147.19922 V 112 h 16 v 28.80078 l 13.597657,13.59766 z m 0,0"
           id="path60-8-6-9" />
        <path
           inkscape:connector-curvature="0"
           d="M 34.722656,154.26172 50.5625,138.42187 61.875,149.73828 46.035156,165.57422 Z m 0,0"
           id="path62-3-7-4" />
        <path
           inkscape:connector-curvature="0"
           d="m 0.300781,232 h 48 v 16 h -48 z m 0,0"
           id="path64-0-2-7" />
        <path
           inkscape:connector-curvature="0"
           d="M 34.699219,269.60156 16.300781,251.19922 V 216 h 16 v 28.80078 l 13.597657,13.59766 z m 0,0"
           id="path66-2-8-2" />
        <path
           inkscape:connector-curvature="0"
           d="M 2.722656,258.26172 18.558594,242.42188 29.875,253.73438 14.035156,269.57422 Z m 0,0"
           id="path68-9-9-3" />
        <path
           inkscape:connector-curvature="0"
           d="m 32.300781,336 h 48 v 16 h -48 z m 0,0"
           id="path70-9-6-9" />
        <path
           inkscape:connector-curvature="0"
           d="M 66.699219,373.60156 48.300781,355.19922 V 320 h 16 v 28.80078 l 13.597657,13.59766 z m 0,0"
           id="path72-0-2-3" />
        <path
           inkscape:connector-curvature="0"
           d="M 34.71875,362.26172 50.558594,346.42187 61.875,357.73437 46.035156,373.57422 Z m 0,0"
           id="path74-8-7-4" />
        <path
           inkscape:connector-curvature="0"
           d="m 104.30078,416 h 48 v 16 h -48 z m 0,0"
           id="path76-8-9-4" />
        <path
           inkscape:connector-curvature="0"
           d="M 138.69922,453.60156 120.30078,435.19922 V 400 h 16 v 28.80078 l 13.59766,13.59766 z m 0,0"
           id="path78-1-0-9" />
        <path
           inkscape:connector-curvature="0"
           d="m 106.71875,442.26172 15.83984,-15.83985 11.3125,11.3125 -15.83593,15.83985 z m 0,0"
           id="path80-3-9-5" />
      </g>
      <path
         style="fill:#c6a414"
         inkscape:connector-curvature="0"
         d="m 288.30078,216 h -16 v -40 c 0,-17.60156 -14.40234,-32 -32,-32 -17.60156,0 -32,14.39844 -32,32 v 40 h -16 v -40 c 0,-26.39844 21.59766,-48 48,-48 26.39844,0 48,21.60156 48,48 z m 0,0"
         id="path84-6-9-7" />
    </g>
  </g>
</svg>
