<?xml version="1.0" encoding="iso-8859-1"?>
<!-- Generator: Adobe Illustrator 18.0.0, SVG Export Plug-In . SVG Version: 6.00 Build 0)  -->
<!DOCTYPE svg PUBLIC "-//W3C//DTD SVG 1.1//EN" "http://www.w3.org/Graphics/SVG/1.1/DTD/svg11.dtd">
<svg version="1.1" id="Capa_1" xmlns="http://www.w3.org/2000/svg" xmlns:xlink="http://www.w3.org/1999/xlink" x="0px" y="0px"
	 viewBox="0 0 58 58" style="enable-background:new 0 0 58 58;" xml:space="preserve">
<g>
	<polygon style="fill:#C4C2A5;" points="0,26.103 0,57.871 0,58 0.129,58 57.541,58 57.871,58 58,58 58,57.871 58,26.103 58,26 
		0,26 	"/>
	<path style="fill:#E5E5DA;" d="M30.861,0.733c-1.049-0.976-2.674-0.976-3.723,0L0,25.999V26h58v-0.001L30.861,0.733z"/>
	<polygon style="fill:#D1D0BF;" points="0,58 0,26 21,42 	"/>
	<polygon style="fill:#D1D0BF;" points="58,58 58,26 37,42 	"/>
	<path style="fill:#E5E5DA;" d="M56.973,57.217L37,42H21L1.027,57.217C0.606,57.538,0,57.238,0,56.709V58h58v-1.291
		C58,57.238,57.394,57.538,56.973,57.217z"/>
</g>
<g>
</g>
<g>
</g>
<g>
</g>
<g>
</g>
<g>
</g>
<g>
</g>
<g>
</g>
<g>
</g>
<g>
</g>
<g>
</g>
<g>
</g>
<g>
</g>
<g>
</g>
<g>
</g>
<g>
</g>
</svg>
