<?xml version="1.0" encoding="iso-8859-1"?>
<!-- Generator: Adobe Illustrator 18.0.0, SVG Export Plug-In . SVG Version: 6.00 Build 0)  -->
<!DOCTYPE svg PUBLIC "-//W3C//DTD SVG 1.1//EN" "http://www.w3.org/Graphics/SVG/1.1/DTD/svg11.dtd">
<svg version="1.1" id="Capa_1" xmlns="http://www.w3.org/2000/svg" xmlns:xlink="http://www.w3.org/1999/xlink" x="0px" y="0px"
	 viewBox="0 0 58 58" style="enable-background:new 0 0 58 58;" xml:space="preserve">
<g>
	<polygon style="fill:#E5E5DA;" points="0,15.307 0,15.412 0,56.178 0,56.307 0.129,56.307 57.541,56.307 57.871,56.307 58,56.307 
		58,56.178 58,15.412 58,15.307 	"/>
	<path style="fill:#C4C2A5;" d="M58,55.017V16.599c0-0.529-0.606-0.829-1.027-0.508L37,36.307l19.973,19.218
		C57.394,55.846,58,55.546,58,55.017z"/>
	<path style="fill:#D1D0BF;" d="M0,15.308l27.139,27.267c1.049,0.976,2.674,0.976,3.723,0L58,15.307"/>
	<path style="fill:#C4C2A5;" d="M0,55.017V16.599c0-0.529,0.606-0.829,1.027-0.508L21,36.307L1.027,55.525
		C0.606,55.846,0,55.546,0,55.017z"/>
	<g>
		<path style="fill:#E0DCC3;" d="M56.672,15.307L53.051,1.794l-0.027-0.101L3.18,15.048c-0.149,0.04-0.12,0.259,0.034,0.259H56.672z
			"/>
	</g>
	<polygon style="fill:#7383BF;" points="49.425,15.307 48.074,10.266 40.347,12.337 41.143,15.307 	"/>
	<g>
		<path style="fill:#B2AF94;" d="M3.18,15.048L32.07,7.307H3v0.104v7.896h0.214C3.06,15.307,3.031,15.088,3.18,15.048z"/>
	</g>
</g>
<g>
</g>
<g>
</g>
<g>
</g>
<g>
</g>
<g>
</g>
<g>
</g>
<g>
</g>
<g>
</g>
<g>
</g>
<g>
</g>
<g>
</g>
<g>
</g>
<g>
</g>
<g>
</g>
<g>
</g>
</svg>
