<?xml version="1.0"?>
<svg xmlns="http://www.w3.org/2000/svg" viewBox="0 0 64 64" width="512" height="512"><g id="flat"><polygon points="32 3 35 9 41 10 36 14 38 21 32 17 26 21 28 14 23 10 29 9 32 3" style="fill:#f3bb59"/><rect x="23" y="29" width="18" height="28" style="fill:#e33e5c"/><rect x="5" y="39" width="18" height="18" style="fill:#f3bb59"/><rect x="41" y="39" width="18" height="18" style="fill:#f3bb59"/><rect x="5" y="57" width="54" height="4" style="fill:#e97131"/><polygon points="18 53 10 53 10 48.279 16 46.279 16 45 12 45 12 46 10 46 10 43 18 43 18 47.721 12 49.721 12 51 18 51 18 53" style="fill:#fff"/><polygon points="33 33 28 33 28 35 31 35 31 41 28 41 28 43 36 43 36 41 33 41 33 33" style="fill:#fff"/><polygon points="47 43 47 45 51 45 51 47 47 47 47 49 51 49 51 51 47 51 47 53 53 53 53 49 53 48 53 43 47 43" style="fill:#fff"/><rect x="23" y="25" width="18" height="4" style="fill:#e8e8e8"/><rect x="5" y="35" width="18" height="4" style="fill:#e8e8e8"/><rect x="41" y="35" width="18" height="4" style="fill:#e8e8e8"/></g></svg>
