<svg height="512pt" viewBox="0 0 512.00056 512" width="512pt" xmlns="http://www.w3.org/2000/svg"><path d="m501 267c0 135.308594-109.691406 245-245 245s-245-109.691406-245-245 109.691406-245 245-245 245 109.691406 245 245zm0 0" fill="#445ea0"/><path d="m501 267c0 135.308594-109.691406 245-245 245s-245-109.691406-245-245 109.691406-245 245-245 245 109.691406 245 245zm0 0" fill="#445ea0"/><path d="m123.140625 203.417969c-.492187 0-.988281-.128907-1.421875-.390625l-24.464844-14.527344-24.460937 14.527344c-.4375.261718-.929688.390625-1.425781.390625-.320313 0-.640626-.054688-.953126-.164063-.785156-.289062-1.398437-.910156-1.679687-1.699218l-9.398437-26.855469-28.078126-4.597657c-.824218-.132812-1.546874-.628906-1.964843-1.355468-.417969-.722656-.488281-1.597656-.195313-2.378906l10.058594-26.617188-18.554688-21.570312c-.542968-.632813-.777343-1.476563-.632812-2.300782.148438-.824218.652344-1.535156 1.382812-1.945312l24.8125-13.921875-.347656-28.449219c-.011718-.835938.355469-1.632812.996094-2.171875.507812-.425781 1.140625-.652344 1.789062-.652344.175782 0 .347657.015625.519532.050781l27.957031 5.285157 18.019531-22.023438c.53125-.644531 1.324219-1.019531 2.160156-1.019531.832032 0 1.625.375 2.152344 1.019531l18.023438 22.023438 27.957031-5.285157c.171875-.035156.34375-.050781.515625-.050781.648438 0 1.285156.226563 1.792969.652344.640625.539063 1.003906 1.335937.996093 2.171875l-.351562 28.449219 24.816406 13.921875c.726563.410156 1.234375 1.121094 1.378906 1.945312.144532.824219-.085937 1.667969-.632812 2.300782l-18.554688 21.570312 10.058594 26.617188c.296875.78125.226563 1.65625-.191406 2.378906-.417969.726562-1.140625 1.222656-1.964844 1.355468l-28.078125 4.597657-9.402343 26.855469c-.277344.789062-.890626 1.410156-1.675782 1.699218-.3125.109375-.632812.164063-.957031.164063zm0 0" fill="#e26693"/><path d="m49.710938 172.328125c-.417969-.722656-.488282-1.597656-.195313-2.378906l10.058594-26.617188-18.554688-21.570312c-.542969-.632813-.777343-1.476563-.632812-2.300781.148437-.824219.652343-1.535157 1.382812-1.945313l24.816407-13.921875-.351563-28.449219c-.007813-.835937.355469-1.632812.996094-2.171875.324219-.273437.703125-.453125 1.101562-.554687l-19.210937-3.628907c-.171875-.035156-.34375-.046874-.519532-.046874-.648437 0-1.285156.222656-1.789062.648437-.640625.539063-1.007812 1.335937-1 2.171875l.351562 28.449219-24.8125 13.921875c-.730468.410156-1.238281 1.125-1.382812 1.945312-.144531.824219.085938 1.667969.632812 2.304688l18.554688 21.566406-10.058594 26.617188c-.292968.78125-.226562 1.65625.191406 2.378906.421876.726562 1.140626 1.222656 1.96875 1.355468l19.367188 3.171876c-.371094-.238282-.6875-.554688-.914062-.945313zm0 0" fill="#f24976"/><path d="m281.050781 152.386719c-.496093 0-.988281-.128907-1.421875-.386719l-24.464844-14.53125-24.464843 14.53125c-.4375.257812-.929688.386719-1.421875.386719-.324219 0-.644532-.054688-.953125-.164063-.789063-.285156-1.402344-.910156-1.679688-1.699218l-9.402343-26.855469-28.078126-4.59375c-.824218-.136719-1.546874-.632813-1.964843-1.359375-.417969-.722656-.484375-1.59375-.191407-2.378906l10.058594-26.617188-18.554687-21.566406c-.546875-.636719-.777344-1.480469-.632813-2.304688.144532-.820312.652344-1.535156 1.382813-1.945312l24.8125-13.921875-.351563-28.449219c-.007812-.835938.355469-1.632812.996094-2.171875.507812-.425781 1.144531-.648437 1.792969-.648437.171875 0 .34375.011718.515625.046874l27.960937 5.285157 18.019531-22.019531c.527344-.644532 1.320313-1.023438 2.15625-1.023438.835938 0 1.625.378906 2.15625 1.023438l18.019532 22.019531 27.957031-5.285157c.171875-.03125.34375-.046874.519531-.046874.648438 0 1.285156.226562 1.789063.648437.640625.539063 1.007812 1.335937 1 2.171875l-.351563 28.449219 24.8125 13.921875c.730469.410156 1.238282 1.125 1.382813 1.945312.144531.824219-.085938 1.671875-.632813 2.304688l-18.554687 21.566406 10.054687 26.617188c.296875.785156.226563 1.65625-.1875 2.378906-.417968.726562-1.140625 1.222656-1.96875 1.359375l-28.074218 4.59375-9.40625 26.855469c-.273438.789062-.890626 1.414062-1.675782 1.699218-.308594.109375-.632812.164063-.953125.164063zm0 0" fill="#159e97"/><path d="m206.816406 121.257812c-.421875-.730468-.492187-1.613281-.195312-2.40625l10.191406-26.964843-18.796875-21.851563c-.554687-.644531-.785156-1.5-.640625-2.335937.144531-.832031.660156-1.554688 1.398438-1.96875l25.140624-14.105469-.355468-28.824219c-.007813-.660156.222656-1.292969.628906-1.800781l-17.160156-3.242188c-.171875-.035156-.34375-.046874-.515625-.046874-.648438 0-1.285157.222656-1.792969.648437-.640625.539063-1.003906 1.335937-.996094 2.171875l.351563 28.449219-24.8125 13.921875c-.730469.410156-1.238281 1.125-1.382813 1.945312-.144531.824219.085938 1.667969.632813 2.304688l18.554687 21.566406-10.058594 26.617188c-.292968.785156-.226562 1.65625.191407 2.378906.417969.726562 1.140625 1.222656 1.964843 1.359375l18.390626 3.007812c-.289063-.222656-.546876-.496093-.738282-.824219zm0 0" fill="#0f9390"/><path d="m275.03125 123.742188h-39.734375c-2.792969 0-5.355469-1.554688-6.648437-4.03125-1.292969-2.476563-1.101563-5.46875.496093-7.761719l35.335938-50.734375c2.003906-3.316406 3.050781-5.140625 3.050781-7.238282 0-5.695312-4.636719-10.332031-10.332031-10.332031-5.695313 0-10.328125 4.636719-10.328125 10.332031v7.359376c0 4.144531-3.359375 7.5-7.5 7.5-4.144532 0-7.5-3.355469-7.5-7.5v-7.359376c0-13.96875 11.363281-25.332031 25.328125-25.332031 13.96875 0 25.332031 11.363281 25.332031 25.332031 0 6.378907-2.773438 10.957032-5.214844 15l-27.640625 39.765626h25.355469c4.140625 0 7.5 3.359374 7.5 7.5 0 4.144531-3.359375 7.5-7.5 7.5zm0 0" fill="#fff"/><path d="m97.253906 174.773438c-12.695312 0-23.027344-10.589844-23.027344-23.601563v-5.785156c0-4.140625 3.359376-7.5 7.5-7.5 4.140626 0 7.5 3.359375 7.5 7.5v5.785156c0 4.742187 3.601563 8.601563 8.027344 8.601563 4.425782 0 8.027344-3.859376 8.027344-8.601563v-8.257813c0-4-2.648438-7.527343-6.296875-8.390624-3.386719-.796876-5.78125-3.820313-5.78125-7.300782.003906-3.476562 2.394531-6.5 5.78125-7.296875 3.648437-.859375 6.296875-4.386719 6.296875-8.390625v-8.257812c0-4.742188-3.601562-8.601563-8.027344-8.601563-4.425781 0-8.027344 3.859375-8.027344 8.601563v5.664062c0 4.144532-3.359374 7.5-7.5 7.5-4.140624 0-7.5-3.355468-7.5-7.5v-5.664062c0-13.011719 10.328126-23.601563 23.027344-23.601563 12.695313 0 23.027344 10.589844 23.027344 23.601563v8.257812c0 5.984375-2.148438 11.496094-5.789062 15.691406 3.640624 4.191407 5.789062 9.703126 5.789062 15.6875v8.257813c0 13.011719-10.328125 23.601563-23.027344 23.601563zm0 0" fill="#fff"/><path d="m438.558594 203.417969c-.492188 0-.988282-.128907-1.421875-.390625l-24.464844-14.527344-24.460937 14.527344c-.4375.261718-.929688.390625-1.425782.390625-.320312 0-.640625-.054688-.949218-.164063-.789063-.289062-1.402344-.910156-1.683594-1.699218l-9.398438-26.855469-28.078125-4.597657c-.824219-.132812-1.546875-.628906-1.964843-1.355468-.417969-.722656-.488282-1.597656-.195313-2.378906l10.058594-26.617188-18.554688-21.570312c-.542969-.632813-.777343-1.476563-.632812-2.300782.148437-.824218.652343-1.535156 1.382812-1.945312l24.816407-13.921875-.351563-28.449219c-.007813-.835938.355469-1.632812.996094-2.171875.507812-.425781 1.144531-.652344 1.792969-.652344.171874 0 .34375.015625.515624.050781l27.957032 5.285157 18.023437-22.023438c.527344-.644531 1.320313-1.019531 2.15625-1.019531.835938 0 1.625.375 2.15625 1.019531l18.019531 22.023438 27.957032-5.285157c.171875-.035156.34375-.050781.519531-.050781.648437 0 1.28125.226563 1.789063.652344.640624.539063 1.003906 1.335937.996093 2.171875l-.347656 28.449219 24.8125 13.921875c.730469.410156 1.234375 1.121094 1.382813 1.945312.144531.824219-.089844 1.667969-.632813 2.300782l-18.554687 21.570312 10.054687 26.617188c.296875.78125.226563 1.65625-.1875 2.378906-.417969.726562-1.140625 1.222656-1.964844 1.355468l-28.078125 4.597657-9.40625 26.855469c-.273437.789062-.890625 1.410156-1.675781 1.699218-.3125.109375-.632813.164063-.957031.164063zm0 0" fill="#ef8318"/><path d="m366.710938 172.746094c-.417969-.722656-.488282-1.597656-.195313-2.378906l10.058594-26.617188-18.554688-21.566406c-.542969-.636719-.777343-1.480469-.632812-2.304688.148437-.820312.652343-1.535156 1.382812-1.945312l24.816407-13.921875-.351563-28.449219c-.007813-.835938.355469-1.632812.996094-2.171875.402343-.335937.890625-.542969 1.398437-.617187l-21.089844-3.984376c-.171874-.035156-.34375-.046874-.515624-.046874-.648438 0-1.285157.222656-1.792969.648437-.640625.539063-1.003907 1.335937-.996094 2.171875l.351563 28.449219-24.816407 13.921875c-.730469.410156-1.234375 1.125-1.382812 1.945312-.144531.824219.089843 1.667969.632812 2.304688l18.554688 21.566406-10.058594 26.617188c-.292969.78125-.222656 1.65625.195313 2.378906.417968.726562 1.140624 1.222656 1.964843 1.355468l20.683594 3.386719c-.253906-.210937-.480469-.449219-.648437-.742187zm0 0" fill="#db722c"/><path d="m426.625 159.769531h-5.4375v-72.589843c0-4.140626-3.359375-7.5-7.5-7.5h-9.878906c-4.140625 0-7.5 3.359374-7.5 7.5 0 4.144531 3.359375 7.5 7.5 7.5h2.378906v65.089843h-7.464844c-4.140625 0-7.5 3.359375-7.5 7.5s3.359375 7.5 7.5 7.5h27.902344c4.140625 0 7.5-3.359375 7.5-7.5s-3.359375-7.5-7.5-7.5zm0 0" fill="#fff"/><path d="m454.324219 318.585938-39.351563-22.722657c-.773437-.445312-1.484375-.957031-2.136718-1.519531l-86.40625 149.65625h-41.585938v9.589844c0 10.476562-8.523438 19-19 19h-19.6875c-10.476562 0-19-8.523438-19-19v-9.589844h-41.585938l-86.40625-149.65625c-.652343.5625-1.363281 1.074219-2.132812 1.519531l-39.355469 22.722657c-1.144531.664062-2.375 1.152343-3.648437 1.46875l96.882812 168.3125c31.847656 15.144531 67.476563 23.632812 105.089844 23.632812 37.628906 0 73.273438-8.492188 105.128906-23.652344l96.847656-168.292968c-1.273437-.320313-2.503906-.808594-3.652343-1.46875zm0 0" fill="#ea2a3d"/><path d="m73.902344 309.21875-16.226563 9.367188c-1.148437.660156-2.378906 1.148437-3.652343 1.46875l96.886718 168.3125c10.390625 4.941406 21.191406 9.160156 32.328125 12.621093zm0 0" fill="#b7092b"/><path d="m284.84375 444v9.589844c0 10.476562-8.523438 19-19 19h-19.6875c-10.476562 0-19-8.523438-19-19v-9.589844h-21v9.589844c0 22.058594 17.945312 40 40 40h19.6875c22.054688 0 40-17.941406 40-40v-9.589844zm0 0" fill="#b7092b"/><path d="m256 430.609375c-10.558594 0-20.632812-2.101563-29.84375-5.890625v28.871094c0 11 9 20 20 20h19.6875c11 0 20-9 20-20v-28.871094c-9.210938 3.789062-19.285156 5.890625-29.84375 5.890625zm0 0" fill="#ffc987"/><path d="m247 453.589844v-23.515625c-7.292969-.839844-14.289062-2.660157-20.84375-5.355469v28.871094c0 11 9 20 20 20h19.6875c.191406 0 .382812-.023438.578125-.03125-10.734375-.308594-19.421875-9.164063-19.421875-19.96875zm0 0" fill="#f9b569"/><path d="m414.472656 296.730469c-6.84375-3.953125-9.492187-12.621094-6.03125-19.738281.113282-.234376.136719-.5.070313-.75l-8.09375-30.203126c-1.386719-5.1875 1.464843-10.472656 6.363281-11.785156 2.269531-.609375 4.675781-.273437 6.78125.941406 2.25 1.300782 3.9375 3.519532 4.625 6.082032l2.75 10.265625c.074219.28125.253906.511719.503906.65625.125.070312.257813.117187.402344.136719.433594.054687.855469-.152344 1.074219-.53125l21.945312-38.011719c2.6875-4.648438 7.957031-6.652344 11.746094-4.460938 3.792969 2.1875 4.695313 7.753907 2.011719 12.402344l-18.625 32.261719c-.296875.515625-.121094 1.179687.398437 1.476562l1.640625.949219c.519532.300781 1.179688.121094 1.480469-.394531l24.035156-41.632813c2.683594-4.648437 7.953125-6.648437 11.746094-4.460937 3.792969 2.191406 4.695313 7.757812 2.011719 12.40625l-24.035156 41.628906c-.296876.519531-.121094 1.179688.398437 1.480469l1.644531.949219c.515625.296874 1.179688.121093 1.476563-.394532l22.414062-38.820312c2.683594-4.648438 7.953125-6.652344 11.75-4.460938 3.789063 2.1875 4.695313 7.753906 2.007813 12.40625l-22.410156 38.820313c-.296876.515625-.121094 1.175781.394531 1.476562l1.644531.949219c.519531.296875 1.179688.121094 1.480469-.398438l18.625-32.257812c2.683593-4.648438 7.953125-6.652344 11.746093-4.460938 3.792969 2.1875 4.695313 7.753907 2.007813 12.40625l-35.933594 62.242188c-4.175781 7.234375-13.460937 9.722656-20.691406 5.546875zm0 0" fill="#ffc987"/><path d="m466.757812 313.007812-39.355468-22.722656c-6.839844-3.949218-9.492188-12.617187-6.03125-19.738281.117187-.234375.140625-.5.074218-.75l-8.09375-30.203125c-.417968-1.554688-.445312-3.121094-.15625-4.585938-2.015624-1.050781-4.273437-1.328124-6.414062-.753906-4.898438 1.3125-7.75 6.601563-6.363281 11.785156l8.09375 30.203126c.066406.25.042969.515624-.070313.753906-3.460937 7.117187-.8125 15.785156 6.03125 19.734375l39.351563 22.722656c6.847656 3.953125 15.523437 1.929687 19.972656-4.433594-2.398437-.082031-4.816406-.730469-7.039063-2.011719zm0 0" fill="#f9b569"/><path d="m97.527344 296.730469c6.84375-3.949219 9.496094-12.621094 6.035156-19.734375-.117188-.234375-.140625-.503906-.074219-.753906l8.09375-30.203126c1.390625-5.183593-1.464843-10.472656-6.363281-11.785156-2.269531-.609375-4.671875-.273437-6.777344.945313-2.253906 1.296875-3.941406 3.515625-4.628906 6.078125l-2.75 10.265625c-.074219.28125-.253906.511719-.503906.65625-.121094.070312-.257813.117187-.398438.136719-.433594.058593-.859375-.152344-1.078125-.53125l-21.945312-38.011719c-2.683594-4.648438-7.957031-6.652344-11.746094-4.460938-3.792969 2.1875-4.699219 7.753907-2.011719 12.40625l18.625 32.257813c.296875.519531.121094 1.179687-.394531 1.480468l-1.644531.949219c-.519532.296875-1.179688.121094-1.480469-.398437l-24.035156-41.628906c-2.683594-4.648438-7.953125-6.652344-11.746094-4.460938s-4.695313 7.753906-2.011719 12.40625l24.035156 41.628906c.296876.515625.121094 1.179688-.394531 1.476563l-1.648437.949219c-.515625.300781-1.175782.121093-1.476563-.394532l-22.410156-38.820312c-2.6875-4.648438-7.957031-6.648438-11.75-4.457032-3.792969 2.1875-4.695313 7.753907-2.011719 12.402344l22.414063 38.820313c.296875.515625.121093 1.179687-.398438 1.476562l-1.644531.953125c-.515625.296875-1.179688.117188-1.476562-.398437l-18.625-32.257813c-2.6875-4.652344-7.957032-6.652344-11.75-4.464844-3.792969 2.191407-4.695313 7.753907-2.007813 12.40625l35.933594 62.242188c4.179687 7.234375 13.460937 9.722656 20.695312 5.546875zm0 0" fill="#ffc987"/><path d="m48.550781 310.429688-35.9375-62.246094c-1.609375-2.789063-1.921875-5.902344-1.101562-8.425782-2.554688-1.585937-5.550781-1.886718-7.957031-.5-3.792969 2.191407-4.695313 7.753907-2.007813 12.40625l35.933594 62.242188c4.179687 7.234375 13.460937 9.722656 20.695312 5.546875l2.574219-1.488281c-4.902344-.304688-9.566406-2.972656-12.199219-7.535156zm0 0" fill="#f9b569"/><path d="m176.96875 265.929688c-24.53125 0-26.613281 21.875-12.945312 27.65625v16.429687c.089843-.003906.179687-.015625.269531-.015625h12.996093v-23.621094c0-7.597656 6.183594-13.78125 13.785157-13.78125h129.851562c7.601563 0 13.785157 6.183594 13.785157 13.78125v23.621094h12.996093c.089844 0 .179688.011719.273438.015625v-16.429687c13.664062-5.78125 11.585937-27.65625-12.949219-27.65625 32.375 0 25.65625-38.101563-4.765625-27.03125 30.421875-11.070313 11.078125-44.578126-13.722656-23.769532 24.800781-20.808594-4.839844-45.679687-21.027344-17.644531 16.1875-28.035156-20.167969-41.269531-25.792969-9.386719 5.625-31.882812-33.066406-31.882812-27.445312 0-5.621094-31.882812-41.980469-18.648437-25.792969 9.386719-16.1875-28.035156-45.824219-3.164063-21.023437 17.644531-24.800782-20.808594-44.148438 12.699219-13.726563 23.769532-30.421875-11.070313-37.140625 27.03125-4.765625 27.03125zm0 0" fill="#bf7e52"/><path d="m177.289062 351.898438v-42.898438h-12.996093c-7.535157 0-13.703125 6.167969-13.703125 13.703125v23.191406c0 7.535157 6.167968 13.703125 13.703125 13.703125h13.378906c-.246094-2.535156-.382813-5.101562-.382813-7.699218zm0 0" fill="#ffe2b8"/><path d="m347.707031 309h-12.996093v42.898438c0 2.597656-.136719 5.164062-.382813 7.699218h13.378906c7.535157 0 13.703125-6.167968 13.703125-13.703125v-23.191406c0-7.535156-6.167968-13.703125-13.703125-13.703125zm0 0" fill="#ffc987"/><path d="m256 431.609375c-43.953125 0-79.710938-35.753906-79.710938-79.707031v-65.519532c0-8.164062 6.621094-14.785156 14.785157-14.785156h129.851562c8.164063 0 14.785157 6.621094 14.785157 14.785156v65.519532c0 43.949218-35.761719 79.707031-79.710938 79.707031zm0 0" fill="#ffe2b8"/><path d="m197 351.898438v-65.519532c0-8.164062 6.617188-14.78125 14.78125-14.78125h-20.707031c-8.164063 0-14.785157 6.617188-14.785157 14.78125v65.519532c0 43.953124 35.757813 79.710937 79.710938 79.710937 3.511719 0 6.960938-.253906 10.355469-.695313-39.074219-5.09375-69.355469-38.570312-69.355469-79.015624zm0 0" fill="#ffc987"/><path d="m264.507812 359.523438h-12.015624c-6.894532 0-12.5-5.605469-12.5-12.5v-23.023438c0-4.140625 3.355468-7.5 7.5-7.5 4.140624 0 7.5 3.359375 7.5 7.5v20.523438h9.515624c4.144532 0 7.5 3.359374 7.5 7.5 0 4.140624-3.355468 7.5-7.5 7.5zm0 0" fill="#ebaa48"/><path d="m224.882812 330.886719c0 6.136719-4.976562 11.113281-11.113281 11.113281-6.140625 0-11.117187-4.976562-11.117187-11.113281v-11.117188c0-6.136719 4.976562-11.109375 11.117187-11.109375 6.136719 0 11.113281 4.972656 11.113281 11.109375zm0 0" fill="#293d7c"/><path d="m309.34375 330.886719c0 6.136719-4.972656 11.113281-11.113281 11.113281-6.136719 0-11.113281-4.976562-11.113281-11.113281v-11.117188c0-6.136719 4.976562-11.109375 11.113281-11.109375 6.140625 0 11.113281 4.972656 11.113281 11.109375zm0 0" fill="#293d7c"/><path d="m256 403.441406c-15.804688 0-28.664062-12.855468-28.664062-28.664062 0-2.761719 2.238281-5 5-5h47.328124c2.761719 0 5 2.238281 5 5 0 15.808594-12.859374 28.664062-28.664062 28.664062zm0 0" fill="#ff9f60"/><path d="m248 374.777344c0-2.761719 2.238281-5 5-5h-20.664062c-2.761719 0-5 2.238281-5 5 0 15.808594 12.859374 28.664062 28.664062 28.664062 3.640625 0 7.125-.6875 10.332031-1.933594-10.714843-4.152343-18.332031-14.566406-18.332031-26.730468zm0 0" fill="#ef8318"/><g fill="#bf7e52"><path d="m233.800781 306.023438c-1.921875 0-3.839843-.734376-5.304687-2.199219-7.992188-7.992188-21-7.992188-28.992188 0-2.929687 2.929687-7.675781 2.929687-10.605468 0-2.929688-2.929688-2.929688-7.675781 0-10.605469 13.839843-13.839844 36.363281-13.839844 50.203124 0 2.929688 2.929688 2.929688 7.679688 0 10.605469-1.464843 1.464843-3.382812 2.199219-5.300781 2.199219zm0 0"/><path d="m317.800781 306.023438c-1.921875 0-3.839843-.734376-5.304687-2.199219-7.992188-7.992188-21-7.992188-28.992188 0-2.929687 2.929687-7.675781 2.929687-10.605468 0-2.929688-2.929688-2.929688-7.675781 0-10.605469 13.839843-13.839844 36.363281-13.839844 50.203124 0 2.929688 2.929688 2.929688 7.679688 0 10.605469-1.464843 1.464843-3.382812 2.199219-5.300781 2.199219zm0 0"/></g></svg>