<?xml version="1.0" encoding="UTF-8" standalone="no"?>
<svg
   xmlns:dc="http://purl.org/dc/elements/1.1/"
   xmlns:cc="http://creativecommons.org/ns#"
   xmlns:rdf="http://www.w3.org/1999/02/22-rdf-syntax-ns#"
   xmlns:svg="http://www.w3.org/2000/svg"
   xmlns="http://www.w3.org/2000/svg"
   xmlns:sodipodi="http://sodipodi.sourceforge.net/DTD/sodipodi-0.dtd"
   xmlns:inkscape="http://www.inkscape.org/namespaces/inkscape"
   height="263.24609pt"
   viewBox="0 0 218.16406 263.24611"
   width="218.16405pt"
   version="1.1"
   id="svg40"
   sodipodi:docname="profile.svg"
   inkscape:version="0.92.3 (2405546, 2018-03-11)">
  <metadata
     id="metadata46">
    <rdf:RDF>
      <cc:Work
         rdf:about="">
        <dc:format>image/svg+xml</dc:format>
        <dc:type
           rdf:resource="http://purl.org/dc/dcmitype/StillImage" />
        <dc:title></dc:title>
      </cc:Work>
    </rdf:RDF>
  </metadata>
  <defs
     id="defs44" />
  <sodipodi:namedview
     pagecolor="#ffffff"
     bordercolor="#666666"
     borderopacity="1"
     objecttolerance="10"
     gridtolerance="10"
     guidetolerance="10"
     inkscape:pageopacity="0"
     inkscape:pageshadow="2"
     inkscape:window-width="1680"
     inkscape:window-height="987"
     id="namedview42"
     showgrid="false"
     fit-margin-top="0"
     fit-margin-left="0"
     fit-margin-right="0"
     fit-margin-bottom="0"
     inkscape:zoom="0.34570247"
     inkscape:cx="145.44337"
     inkscape:cy="195.15037"
     inkscape:window-x="-8"
     inkscape:window-y="-8"
     inkscape:window-maximized="1"
     inkscape:current-layer="svg40" />
  <g
     id="g865"
     transform="translate(-146.91797,-139.11719)">
    <path
       id="path2"
       d="m 221.33594,330.46875 c 18.72656,19.89844 49.36718,19.89844 68.08984,0 l 7.30078,-7.75391 -10.01172,-3.8789 c -2.44922,-0.94531 -4.0625,-3.30078 -4.0625,-5.92969 v -20.17578 c -7.5625,5.21484 -16.71484,8.28125 -26.57422,8.28125 -10.32031,0 -19.38671,-2.83203 -26.80468,-7.57422 v 19.24219 c 0,2.76172 -1.69922,5.24219 -4.27344,6.24219 l -10.64844,4.1289 z m 0,0"
       inkscape:connector-curvature="0"
       style="fill:#eebda4" />
    <path
       id="path4"
       d="m 251.69922,330.46875 c -3.33985,-3.54297 -2.02344,-9.34375 2.51562,-11.10156 l 1.14844,-0.44532 c 2.57422,-1 4.27344,-3.48046 4.27344,-6.24218 V 300.875 c -1.17578,0.0898 -2.36328,0.13672 -3.5586,0.13672 -10.32031,0 -19.38671,-2.83203 -26.80468,-7.57422 v 19.24219 c 0,2.76172 -1.69922,5.24218 -4.27344,6.24218 l -10.64844,4.12891 6.98438,7.41797 c 13.25781,14.08594 32.48047,18.1875 49.22656,12.32812 -6.90625,-2.41406 -13.39844,-6.51562 -18.86328,-12.32812 z m 0,0"
       inkscape:connector-curvature="0"
       style="fill:#e6b49e" />
    <path
       id="path6"
       d="m 255.39844,139.11719 c -35.27735,0 -63.8711,28.59765 -63.8711,63.87109 v 25.72656 c 4.26953,-3.95703 11.76953,-6.10547 17.69922,-5.3164 v -3.17969 c 0,-2.53125 2.16016,-4.53125 4.66406,-4.33984 24.69532,1.77343 48.39454,-6.07422 67.39844,-18.48829 1.77344,-1.15625 4.1211,-0.87109 5.56641,0.67969 16.24219,17.46094 14.71875,16.78516 14.71875,19.06641 v 6.25 c 6.49609,-0.97656 13.6875,1.03515 17.69531,4.75781 v -25.15625 c 0,-35.27344 -28.59766,-63.87109 -63.87109,-63.87109 z m 0,0"
       inkscape:connector-curvature="0"
       style="fill:#5e6377" />
    <path
       id="path8"
       d="m 222.43359,202.98828 c 0,-29.94141 20.60938,-55.0625 48.41797,-61.97656 -4.94922,-1.23047 -10.125,-1.89063 -15.45312,-1.89063 -35.27735,0 -63.8711,28.59375 -63.8711,63.8711 v 25.72656 c 4.26953,-3.95703 11.76953,-6.10938 17.69922,-5.31641 v -3.18359 c 0,-2.53125 2.16016,-4.53125 4.66406,-4.33984 2.86329,0.20703 5.71094,0.26953 8.54297,0.22265 z m 0,0"
       inkscape:connector-curvature="0"
       style="fill:#52586d" />
    <path
       id="path10"
       d="m 302.28516,221.24219 v 34.98828 c 0,0.3789 -0.0195,0.7539 -0.0274,1.13281 12.38281,1.875 22.07813,-7.07031 22.07813,-18.05859 0,-11.00782 -9.70313,-19.91016 -22.05078,-18.0625 z m 0,0"
       inkscape:connector-curvature="0"
       style="fill:#eebda4" />
    <path
       id="path12"
       d="m 208.51172,256.23047 v -34.97266 c -10.78125,-1.4414 -22.05078,6.83203 -22.05078,18.04688 0,10.97265 9.67578,19.93359 22.07812,18.05859 -0.008,-0.3789 -0.0273,-0.7539 -0.0273,-1.13281 z m 0,0"
       inkscape:connector-curvature="0"
       style="fill:#eebda4" />
    <path
       id="path14"
       d="m 319.28516,226.71875 c -4.01563,-4.17969 -10.09375,-6.50781 -17,-5.47656 v 34.98828 c 0,0.3789 -0.0195,0.7539 -0.0274,1.13281 6.92578,1.05078 13.00781,-1.28906 17.02735,-5.47656 z m 0,0"
       inkscape:connector-curvature="0"
       style="fill:#e6b49e" />
    <path
       id="path16"
       d="m 208.51172,251.89062 c -3.16797,-3.30078 -5.05078,-7.74609 -5.05078,-12.58593 0,-4.6875 1.97265,-8.85547 5.05078,-12.01953 v -6.02735 c -10.78125,-1.4414 -22.05078,6.83203 -22.05078,18.04688 0,10.97265 9.67578,19.93359 22.07812,18.05859 -0.008,-0.37891 -0.0273,-0.75391 -0.0273,-1.13281 z m 0,0"
       inkscape:connector-curvature="0"
       style="fill:#e6b49e" />
    <path
       id="path18"
       d="m 286.85547,195.92969 c -1.44531,-1.55078 -3.79297,-1.83985 -5.56641,-0.67969 -19.0039,12.41406 -44.13281,20.26172 -68.82812,18.48437 -2.50391,-0.1875 -4.66407,1.8125 -4.66407,4.33985 v 38.15625 c 0,24.52734 19.21485,46.92187 48.28125,46.92187 25.875,0 46.92188,-21.04687 46.92188,-46.92187 v -41.23438 c 0,-2.28125 0.0977,-1.60547 -16.14453,-19.0664 z m 0,0"
       inkscape:connector-curvature="0"
       style="fill:#f5c5a9" />
    <path
       id="path20"
       d="m 238.70312,256.23047 v -44.05078 c -8.60546,1.58203 -17.44921,2.1875 -26.24218,1.55469 -2.50391,-0.1875 -4.66407,1.80859 -4.66407,4.33984 v 38.15625 c 0,24.52344 19.21485,46.92187 48.28125,46.92187 5.23047,0 10.26172,-0.875 14.96485,-2.46093 -19.9375,-6.44922 -32.33985,-24.76563 -32.33985,-44.46094 z m 0,0"
       inkscape:connector-curvature="0"
       style="fill:#eebda4" />
    <path
       id="path22"
       d="m 295.94141,322.41016 -7.38672,7.84765 c -18.23828,19.37891 -48.07813,19.37891 -66.31641,0.004 l -7.08203,-7.52735 -56.41406,21.8711 c 0,0 -5.73047,2.35937 -11.82422,7.92578 26.45703,30.52344 65.51562,49.83203 109.08203,49.83203 43.56641,0 82.62109,-19.30859 109.08203,-49.83203 -6.09375,-5.56641 -11.82812,-7.92578 -11.82812,-7.92578 z m 0,0"
       inkscape:connector-curvature="0"
       style="fill:#00c3ff" />
    <path
       id="path24"
       d="m 176.65625,352.96875 18.30859,-22.40234 -36.22265,14.04296 c 0,0 -5.73047,2.35547 -11.82422,7.92188 6.10156,7.03906 12.8789,13.46875 20.21875,19.21484 5.16015,-13.11328 9.51953,-18.77734 9.51953,-18.77734 z m 0,0"
       inkscape:connector-curvature="0"
       style="fill:#00aaf0" />
  </g>
</svg>
