<?xml version="1.0" encoding="iso-8859-1"?>
<!-- Generator: Adobe Illustrator 19.0.0, SVG Export Plug-In . SVG Version: 6.00 Build 0)  -->
<svg version="1.1" id="Capa_1" xmlns="http://www.w3.org/2000/svg" xmlns:xlink="http://www.w3.org/1999/xlink" x="0px" y="0px"
	 viewBox="0 0 512 512" style="enable-background:new 0 0 512 512;" xml:space="preserve">
<polygon style="fill:#FAB3CE;" points="303.924,292.139 287.853,340.928 305.644,349.234 346.491,334.706 352.703,276.068 
	332.429,276.068 "/>
<polygon style="fill:#80C9FF;" points="235.932,159.287 219.861,208.066 186.831,228.017 170.989,224.198 177.222,165.519 
	191.981,152.814 "/>
<path style="fill:#FAB3CE;" d="M287.853,340.928c-2.503,3.43-5.305,6.706-8.396,9.797c-32.636,32.636-85.546,32.636-118.182,0
	s-32.636-85.557,0-118.193c3.07-3.07,6.315-5.851,9.715-8.334c14.505-10.662,31.678-16.04,48.872-16.133
	c21.551-0.134,43.154,8.025,59.596,24.467s24.601,38.045,24.467,59.606c17.163-0.093,34.295-5.45,48.779-16.071
	c-3.348-28.752-16.061-56.619-38.106-78.665c-22.056-22.056-49.923-34.769-78.665-38.117c-19.687-2.308-39.786-0.227-58.71,6.233
	c-18.657,6.367-36.19,16.998-51.076,31.884c-45.709,45.699-51.262,116.338-16.699,168.115l-30.226,30.225l-12.785-12.795
	c-4.337-4.337-11.373-4.337-15.71,0l-18.152,18.162c-4.337,4.337-4.337,11.363,0,15.7l12.785,12.795L0,474.975L37.025,512
	l45.369-45.369l12.785,12.795c4.337,4.337,11.373,4.337,15.71,0l18.152-18.162c4.337-4.337,4.337-11.363,0-15.7l-12.785-12.795
	l30.226-30.225c51.777,34.573,122.406,29.01,168.115-16.689c14.896-14.907,25.528-32.461,31.894-51.148
	C327.577,341.155,307.509,343.225,287.853,340.928z"/>
<path style="fill:#80C9FF;" d="M489.048,0h-83.445c-4.1,0-7.428,3.327-7.428,7.428v31.039c0,4.1,3.327,7.428,7.428,7.428h23.468
	l-51.756,51.767c-51.777-34.573-122.416-29.01-168.115,16.689c-14.938,14.938-25.59,32.492-31.977,51.169
	c18.924-6.459,39.023-8.54,58.71-6.233c2.493-3.431,5.295-6.706,8.396-9.807c32.636-32.636,85.546-32.636,118.182,0
	c32.636,32.636,32.636,85.557,0,118.193c-3.101,3.101-6.377,5.903-9.807,8.396c-14.484,10.621-31.616,15.978-48.779,16.071
	c-21.551,0.134-43.154-8.025-59.596-24.467c-16.452-16.452-24.611-38.055-24.467-59.606c-17.194,0.093-34.367,5.47-48.872,16.133
	c3.369,28.598,16.04,56.33,37.993,78.386c22.087,22.19,50.036,34.975,78.871,38.343c19.656,2.297,39.724,0.227,58.638-6.222
	c18.688-6.356,36.252-16.998,51.159-31.905c45.699-45.699,51.262-116.338,16.689-168.115l51.767-51.767v23.478
	c0,4.1,3.317,7.417,7.417,7.417h31.05c4.1,0,7.428-3.317,7.428-7.417V22.942C512,10.271,501.719,0,489.048,0z"/>
<g>
</g>
<g>
</g>
<g>
</g>
<g>
</g>
<g>
</g>
<g>
</g>
<g>
</g>
<g>
</g>
<g>
</g>
<g>
</g>
<g>
</g>
<g>
</g>
<g>
</g>
<g>
</g>
<g>
</g>
</svg>
