<svg height="464pt" viewBox="0 -24 464 464" width="464pt" xmlns="http://www.w3.org/2000/svg"><path d="m224 0h20.6875c7.242188 0 14.191406 2.878906 19.3125 8s12.070312 8 19.3125 8h12.6875v40h-20.6875c-7.242188 0-14.191406-2.878906-19.3125-8s-12.070312-8-19.3125-8h-12.6875zm0 0" fill="#4398d1"/><path d="m224 0h16v88h-16zm0 0" fill="#c3c5c7"/><path d="m304 384h-144v-272l72-40 72 40zm0 0" fill="#d1d4d6"/><path d="m0 144h160v240h-160zm0 0" fill="#c3c5c7"/><path d="m24 176h16v24h-16zm0 0" fill="#4398d1"/><path d="m56 176h16v24h-16zm0 0" fill="#4398d1"/><path d="m88 176h16v24h-16zm0 0" fill="#4398d1"/><path d="m120 176h16v24h-16zm0 0" fill="#4398d1"/><path d="m24 216h16v24h-16zm0 0" fill="#4398d1"/><path d="m56 216h16v24h-16zm0 0" fill="#4398d1"/><path d="m88 216h16v24h-16zm0 0" fill="#4398d1"/><path d="m120 216h16v24h-16zm0 0" fill="#4398d1"/><path d="m24 256h16v24h-16zm0 0" fill="#4398d1"/><path d="m56 256h16v24h-16zm0 0" fill="#4398d1"/><path d="m88 256h16v24h-16zm0 0" fill="#4398d1"/><path d="m120 256h16v24h-16zm0 0" fill="#4398d1"/><path d="m24 296h16v24h-16zm0 0" fill="#4398d1"/><path d="m56 296h16v24h-16zm0 0" fill="#4398d1"/><path d="m88 296h16v24h-16zm0 0" fill="#4398d1"/><path d="m120 296h16v24h-16zm0 0" fill="#4398d1"/><path d="m24 336h16v24h-16zm0 0" fill="#4398d1"/><path d="m56 336h16v24h-16zm0 0" fill="#4398d1"/><path d="m88 336h16v24h-16zm0 0" fill="#4398d1"/><path d="m120 336h16v24h-16zm0 0" fill="#4398d1"/><path d="m304 144h160v240h-160zm0 0" fill="#c3c5c7"/><g fill="#4398d1"><path d="m328 176h16v24h-16zm0 0"/><path d="m360 176h16v24h-16zm0 0"/><path d="m392 176h16v24h-16zm0 0"/><path d="m424 176h16v24h-16zm0 0"/><path d="m328 216h16v24h-16zm0 0"/><path d="m360 216h16v24h-16zm0 0"/><path d="m392 216h16v24h-16zm0 0"/><path d="m424 216h16v24h-16zm0 0"/><path d="m328 256h16v24h-16zm0 0"/><path d="m360 256h16v24h-16zm0 0"/><path d="m392 256h16v24h-16zm0 0"/><path d="m424 256h16v24h-16zm0 0"/><path d="m328 296h16v24h-16zm0 0"/><path d="m360 296h16v24h-16zm0 0"/><path d="m392 296h16v24h-16zm0 0"/><path d="m424 296h16v24h-16zm0 0"/><path d="m328 336h16v24h-16zm0 0"/><path d="m360 336h16v24h-16zm0 0"/><path d="m392 336h16v24h-16zm0 0"/><path d="m424 336h16v24h-16zm0 0"/><path d="m248 136c0 8.835938-7.164062 16-16 16s-16-7.164062-16-16 7.164062-16 16-16 16 7.164062 16 16zm0 0"/><path d="m256 256h-48v-48c0-13.253906 10.746094-24 24-24s24 10.746094 24 24zm0 0"/></g><path d="m160 256h144v32h-144zm0 0" fill="#dee1e3"/><path d="m192 288h80v64h-80zm0 0" fill="#4398d1"/><path d="m224 288h16v64h-16zm0 0" fill="#3181bd"/><path d="m0 384h160v32h-160zm0 0" fill="#d1d4d6"/><path d="m304 384h160v32h-160zm0 0" fill="#d1d4d6"/><path d="m160 352h144v32h-144zm0 0" fill="#c3c5c7"/><path d="m160 384h144v32h-144zm0 0" fill="#d1d4d6"/><path d="m160 352h32v64h-32zm0 0" fill="#dee1e3"/><path d="m272 352h32v64h-32zm0 0" fill="#dee1e3"/><path d="m160 144h-160l16-32h144zm0 0" fill="#e3584b"/><path d="m464 144h-160v-32h144zm0 0" fill="#e3584b"/><path d="m208 208h48v16h-48zm0 0" fill="#3181bd"/><path d="m0 144h160v16h-160zm0 0" fill="#b6b8ba"/><path d="m304 144h160v16h-160zm0 0" fill="#b6b8ba"/><path d="m192 288h80v16h-80zm0 0" fill="#3181bd"/><path d="m160 288h32v16h-32zm0 0" fill="#c3c5c7"/><path d="m272 288h32v16h-32zm0 0" fill="#c3c5c7"/><path d="m192 352h16v32h-16zm0 0" fill="#c0c2c4"/><path d="m192 384h16v32h-16zm0 0" fill="#cdcfd1"/><path d="m304 352h16v32h-16zm0 0" fill="#c0c2c4"/><path d="m304 384h16v32h-16zm0 0" fill="#cdcfd1"/></svg>