<?xml version="1.0" encoding="iso-8859-1"?>
<!-- Generator: Adobe Illustrator 19.0.0, SVG Export Plug-In . SVG Version: 6.00 Build 0)  -->
<svg version="1.1" id="Capa_1" xmlns="http://www.w3.org/2000/svg" xmlns:xlink="http://www.w3.org/1999/xlink" x="0px" y="0px"
	 viewBox="0 0 512 512" style="enable-background:new 0 0 512 512;" xml:space="preserve">
<path style="fill:#5F6E9B;" d="M362.639,252.782v185.265c0,12.055,9.773,21.828,21.828,21.828s21.828-9.773,21.828-21.828V252.782
	H362.639z"/>
<path style="fill:#414B82;" d="M415.332,252.782v185.265c0,12.055,9.773,21.828,21.828,21.828s21.828-9.773,21.828-21.828V252.782
	H415.332z"/>
<g>
	<circle style="fill:#80391B;" cx="410.616" cy="39.525" r="37.7"/>
	<path style="fill:#80391B;" d="M503.302,132.077c-0.112-22.397-18.248-42.832-45.362-42.832c-16.913,0-95.777,0-95.777,0l0,0
		c-0.166,0-0.327,0-0.47,0c-23.662,0-43.6,19.243-43.719,42.832v24.896l0,0v108.742c-0.05,10.046,8.053,18.231,18.099,18.281h0.093
		c10.003,0,18.138-8.084,18.188-18.099c0-14.297,0-117.052,0-133.637c0.018-3.658,3.68-6.634,7.338-6.634h0.947V263.57h96.351
		V125.748c0.042,0.009,0.081,0.023,0.124,0.033c-0.006-0.05-0.004-0.103-0.009-0.154c0.407,0.053,2.051-0.293,4.403,1.134
		c1.916,1.162,3.078,2.946,3.344,4.697c0.04,0.263,0.068,0.53,0.069,0.802c0,16.548,0,119.058,0,133.638
		c0.05,10.015,8.185,18.098,18.188,18.098h0.093c10.046-0.05,18.149-8.235,18.099-18.281V156.972l0,0v-24.895H503.302z"/>
</g>
<path style="fill:#CD2D23;" d="M459.583,89.246h-1.633c-0.004,0-0.009,0-0.013,0H430.62c0.131,11.218-9.207,20.485-20.255,20.485
	c-11.051,0-20.385-9.272-20.255-20.485h-27.948l0,0h-0.47c-23.618,0-43.6,19.214-43.719,42.831v24.896h36.38V132.26
	c0.018-3.658,3.68-6.634,7.338-6.634h0.947v137.943h96.351V125.748c0.042,0.009,0.081,0.023,0.124,0.033
	c-0.006-0.05-0.004-0.104-0.009-0.155h0.48c3.657,0,7.32,2.975,7.338,6.634v24.713h36.38v-24.896
	C503.184,108.459,483.201,89.246,459.583,89.246z"/>
<path style="fill:#B71D1A;" d="M459.583,89.246h-1.633c-0.004,0-0.009,0-0.013,0H430.62c0.131,11.218-9.207,20.485-20.255,20.485
	c-0.001,0-0.002,0-0.004,0V263.57h48.627V125.748c0.042,0.009,0.081,0.023,0.123,0.033c-0.006-0.05-0.004-0.103-0.009-0.155h0.479
	c3.658,0,7.32,2.975,7.338,6.634v24.713h36.38v-24.896C503.184,108.46,483.201,89.246,459.583,89.246z"/>
<path style="fill:#343E6B;" d="M279.152,512c-13.476,0-24.402-10.925-24.402-24.402V292.553c0-13.476,10.925-24.402,24.402-24.402
	c13.476,0,24.402,10.925,24.402,24.402v195.045C303.553,501.075,292.629,512,279.152,512z"/>
<path style="fill:#414B82;" d="M220.246,512c-13.476,0-24.402-10.925-24.402-24.402V292.553c0-13.476,10.925-24.402,24.402-24.402
	c13.477,0,24.402,10.925,24.402,24.402v195.045C244.648,501.075,233.722,512,220.246,512z"/>
<path style="fill:#252D5C;" d="M353.152,145.143c-0.133-26.401-22.056-47.88-48.871-47.88l-107.776,0.023
	c-9.96,0.002-19.513,3.95-26.569,10.979l-43.907,43.738l-59.457-9.261c-11.068-1.729-21.421,5.846-23.143,16.906
	c-1.723,11.059,5.845,21.422,16.906,23.144l69.639,10.846c6.396,0.994,12.884-1.121,17.463-5.709l36.77-36.842
	c4.938-4.947,10.847-3.941,11.638-4.07v145.536h107.709v-154.62h0.727c4.261,0,8.159,3.514,8.202,7.38v149.324
	c0,11.231,9.104,20.335,20.335,20.335s20.335-9.104,20.335-20.335V145.245C353.153,145.211,353.153,145.177,353.152,145.143z"/>
<path style="fill:#FFB69E;" d="M76.252,144.25l-9.68-1.507c-11.068-1.729-21.421,5.846-23.143,16.906
	c-1.723,11.059,5.845,21.422,16.906,23.144l9.764,1.52L76.252,144.25z"/>
<polygon style="fill:#FFFFFF;" points="76.252,144.25 66.572,142.742 60.335,182.791 70.098,184.312 "/>
<path style="fill:#1B224A;" d="M353.152,145.143c-0.133-26.401-22.056-47.88-48.871-47.88c-6.447,0-48.177,0-54.588,0v195.291
	h53.861V137.933h0.727c4.261,0,8.16,3.514,8.202,7.38v149.324c0,11.231,9.104,20.335,20.335,20.335s20.335-9.104,20.335-20.335
	V145.245C353.153,145.211,353.153,145.177,353.152,145.143z"/>
<rect x="320.891" y="284.148" style="fill:#292D30;" width="23.69" height="51.087"/>
<path style="fill:#FFFFFF;" d="M312.477,284.149v10.489c0,11.231,9.104,20.335,20.335,20.335s20.335-9.104,20.335-20.335v-10.489
	H312.477z"/>
<g>
	<path style="fill:#FFB69E;" d="M312.477,294.113v0.523c0,11.231,9.104,20.335,20.335,20.335s20.335-9.104,20.335-20.335v-0.523
		H312.477z"/>
	<circle style="fill:#FFB69E;" cx="249.693" cy="42.144" r="42.144"/>
</g>
<path style="fill:#80391B;" d="M349.008,427.348h-32.428c-4.144,0-7.503-3.359-7.503-7.503v-82.672c0-4.144,3.359-7.503,7.503-7.503
	h32.428c4.144,0,7.503,3.359,7.503,7.503v82.672C356.512,423.988,353.153,427.348,349.008,427.348z"/>
<polygon style="fill:#FFFFFF;" points="218.665,97.263 249.692,178.688 280.728,97.263 "/>
<path style="fill:#CD2D23;" d="M263.189,124.981l-6.893-12.536l5.941-10.804c1.081-1.965-0.343-4.377-2.589-4.377h-19.915
	c-2.242,0-3.67,2.41-2.589,4.377l5.961,10.84l-6.874,12.502c-0.952,1.731-1.261,3.743-0.875,5.68l4.24,21.524l10.096,26.502
	l10.106-26.507l4.264-21.517C264.45,128.726,264.141,126.714,263.189,124.981z"/>
<path style="fill:#B71A16;" d="M263.189,124.981l-6.893-12.536l5.941-10.804c1.081-1.965-0.342-4.377-2.589-4.377h-9.955v81.408
	v0.017l10.106-26.507l4.264-21.517C264.45,128.726,264.141,126.714,263.189,124.981z"/>
<rect x="264.716" y="159.828" style="fill:#252D5C;" width="26.862" height="8.285"/>
<path style="fill:#632C15;" d="M349.008,329.67H332.74v97.678h16.268c4.144,0,7.503-3.36,7.503-7.503v-82.672
	C356.512,333.029,353.153,329.67,349.008,329.67z"/>
<path style="fill:#703014;" d="M74.166,196.466c-7.113,0-12.879-5.766-12.879-12.879V54.123c0-7.113,5.766-12.879,12.879-12.879
	c7.113,0,12.879,5.766,12.879,12.879v129.464C87.045,190.7,81.279,196.466,74.166,196.466z"/>
<path style="fill:#A56941;" d="M139.635,80.754c0,5.818-4.717,10.535-10.535,10.535H19.233c-5.818,0-10.535-4.717-10.535-10.535
	V11.159c0-5.818,4.717-10.535,10.535-10.535h109.866c5.818,0,10.535,4.717,10.535,10.535v69.595H139.635z"/>
<path style="fill:#965028;" d="M139.635,11.159c0-5.818-4.717-10.535-10.535-10.535H74.166V91.29H129.1
	c5.818,0,10.535-4.717,10.535-10.535V11.159z"/>
<g>
</g>
<g>
</g>
<g>
</g>
<g>
</g>
<g>
</g>
<g>
</g>
<g>
</g>
<g>
</g>
<g>
</g>
<g>
</g>
<g>
</g>
<g>
</g>
<g>
</g>
<g>
</g>
<g>
</g>
</svg>
