<svg height="512.00128pt" viewBox="0 0 512.00128 512.00128" width="512.00128pt" xmlns="http://www.w3.org/2000/svg"><path d="m492.089844 64.761719-44.847656-44.847657c-26.550782-26.550781-69.597657-26.550781-96.148438 0l-102.121094 102.121094 140.992188 140.992188 102.125-102.121094c26.550781-26.550781 26.550781-69.59375 0-96.144531zm0 0" fill="#ffc7de"/><path d="m484.976562 168.019531c-87.910156-86.410156-63.28125-130.296875-39.027343-149.363281-26.636719-25.28125-68.734375-24.863281-94.855469 1.257812l-102.121094 102.121094 140.992188 140.992188zm0 0" fill="#ffb0d0"/><path d="m98.117188 509.230469-53.78125 2.714843c-24.957032 1.257813-45.539063-19.320312-44.2812505-44.28125l2.7148435-53.78125c1.558594-30.941406 14.554688-60.199218 36.460938-82.109374l257.074219-257.070313 140.996093 140.992187-257.074219 257.074219c-21.90625 21.90625-51.167968 34.902344-82.109374 36.460938zm0 0" fill="#ffeb99"/><path d="m39.230469 331.777344c-21.90625 21.90625-34.898438 51.164062-36.460938 82.109375l-2.7148435 53.777343c-1.2578125 24.960938 19.3242185 45.542969 44.2812505 44.28125l22.96875-1.15625c-2.589844-29.554687.71875-59.683593 4.421874-81.53125 3.390626-19.992187 12.933594-38.421874 27.273438-52.761718l110.597656-110.597656c28.894532-28.894532 73.277344-36.191407 109.519532-17.3125 21.953124 11.4375 43.746093 19.03125 61.335937 23.957031l56.84375-56.84375-140.992187-140.996094zm0 0" fill="#ffde55"/><path d="m391.601562 239.003906-118.601562-118.601562c-18.976562-18.976563-18.976562-50.027344 0-69.003906 18.976562-18.976563 50.027344-18.976563 69.003906 0l118.597656 118.601562c18.976563 18.972656 18.976563 50.027344 0 69.003906-18.972656 18.972656-50.027343 18.972656-69 0zm0 0" fill="#eaeaea"/><path d="m332.746094 111.144531c18.976562-18.976562 50.027344-18.976562 69.003906 0l-59.746094-59.746093c-18.976562-18.976563-50.027344-18.976563-69.003906 0-18.976562 18.976562-18.976562 50.027343 0 69.003906l59.746094 59.746094c-18.976563-18.976563-18.976563-50.027344 0-69.003907zm0 0" fill="#d8d7da"/><path d="m53.589844 317.414062-14.359375 14.363282c-21.90625 21.90625-34.898438 51.164062-36.460938 82.109375l-2.7148435 53.777343c-1.2578125 24.960938 19.3242185 45.539063 44.2812505 44.28125l53.78125-2.714843c30.941406-1.5625 60.203124-14.554688 82.109374-36.460938l14.359376-14.359375zm0 0" fill="#ffdaaa"/><path d="m71.730469 429.253906c3.390625-19.992187 12.929687-38.417968 27.269531-52.757812l6.835938-6.835938-52.246094-52.246094-14.359375 14.363282c-21.90625 21.90625-34.898438 51.164062-36.460938 82.105468l-2.7148435 53.78125c-1.2578125 24.960938 19.3242185 45.539063 44.2812505 44.28125l22.96875-1.160156c-2.589844-29.550781.71875-59.679687 4.425781-81.53125zm0 0" fill="#ffc477"/><path d="m5.484375 393.679688c-1.433594 6.613281-2.371094 13.363281-2.714844 20.203124l-2.7148435 53.78125c-1.2578125 24.960938 19.3242185 45.539063 44.2812505 44.28125l53.78125-2.714843c6.839843-.34375 13.617187-1.25 20.234374-2.6875zm0 0" fill="#acabb1"/><path d="m68.074219 456.269531-62.613281-62.617187c-1.4375 6.613281-2.34375 13.390625-2.691407 20.230468l-2.7109372 53.78125c-1.2617188 24.960938 19.3203122 45.539063 44.2812502 44.28125l22.964844-1.160156c-1.636719-18.691406-.921876-37.605468.769531-54.515625zm0 0" fill="#898890"/></svg>