<?xml version="1.0" encoding="iso-8859-1"?>
<!-- Generator: Adobe Illustrator 19.0.0, SVG Export Plug-In . SVG Version: 6.00 Build 0)  -->
<svg version="1.1" id="Capa_1" xmlns="http://www.w3.org/2000/svg" xmlns:xlink="http://www.w3.org/1999/xlink" x="0px" y="0px"
	 viewBox="0 0 511.999 511.999" style="enable-background:new 0 0 511.999 511.999;" xml:space="preserve">
<path style="fill:#FF8087;" d="M192.985,139.815c-34.844,0-66.744,12.689-91.458,33.619L63.2,135.108l26.323-26.323
	c4.615-4.612,4.615-12.096,0-16.708c-4.615-4.615-12.092-4.615-16.708,0L46.492,118.4L20.169,92.077
	c-4.615-4.615-12.092-4.615-16.708,0c-4.615,4.612-4.615,12.096,0,16.708l26.323,26.323L3.462,161.431
	c-4.615,4.612-4.615,12.096,0,16.708c2.308,2.308,5.331,3.462,8.354,3.462s6.046-1.154,8.354-3.462l26.323-26.323l38.327,38.327
	C63.89,214.855,51.2,246.755,51.2,281.6c0,78.181,63.608,141.785,141.785,141.785S334.769,359.781,334.769,281.6
	S271.162,139.815,192.985,139.815z M192.985,391.877c-60.808,0-110.277-49.469-110.277-110.277s49.469-110.277,110.277-110.277
	S303.262,220.792,303.262,281.6S253.792,391.877,192.985,391.877z"/>
<path style="fill:#E6646E;" d="M233.679,384c-17.875,7.13-37.96,9.876-59.041,6.337c-48.115-8.078-86.008-47.983-91.266-96.488
	c-7.722-71.241,52.892-130.907,124.399-121.557c49.311,6.448,88.846,46.59,94.698,95.975c4.353,36.732-9.569,70.355-33.739,93.27
	c2.081,1.312,4.211,2.55,6.391,3.706c4.948,2.624,11.066,1.254,14.654-3.046c21.59-25.872,33.053-60.477,28.095-97.802
	c-6.834-51.442-57.019-101.306-108.506-107.792C126.949,146.22,57.638,215.506,67.98,297.914
	c6.999,55.771,51.647,100.852,107.333,108.5c34.118,4.686,65.909-4.457,90.954-22.414H233.679z"/>
<path style="fill:#A5CDFF;" d="M500.185,88.615H437.17c-6.523,0-11.815,5.288-11.815,11.815s5.292,11.815,11.815,11.815h34.492
	l-61.188,61.188c-24.713-20.93-56.613-33.619-91.458-33.619c-22.652,0-44.003,5.475-63.015,14.962
	c11.393,5.685,21.888,12.84,31.29,21.246c10.056-3.028,20.695-4.7,31.725-4.7c60.808,0,110.277,49.469,110.277,110.277
	s-49.469,110.277-110.277,110.277S208.738,342.408,208.738,281.6c0-37.378,18.734-70.416,47.262-90.37
	c-9.463-6.619-19.985-11.803-31.29-15.207c-29.056,25.983-47.479,63.623-47.479,105.576c0,78.181,63.608,141.785,141.785,141.785
	S460.8,359.781,460.8,281.6c0-34.845-12.69-66.745-33.619-91.458l61.188-61.188v34.492c0,6.527,5.292,11.815,11.815,11.815
	s11.815-5.288,11.815-11.815v-63.015C512,93.904,506.708,88.615,500.185,88.615z"/>
<path style="fill:#8CB4EB;" d="M339.613,157.26c-23.954-3.931-46.742-0.802-67.035,7.255c5.154,3.515,10.069,7.356,14.713,11.509
	c17.031-5.128,35.734-6.369,55.178-2.181c45.98,9.903,81.255,49.054,86.193,95.828c7.508,71.114-53.059,130.599-124.479,121.231
	c-49.298-6.466-88.784-46.616-94.651-95.989c-4.368-36.76,9.644-70.295,33.836-93.191c-2.064-1.305-4.177-2.538-6.339-3.691
	c-4.941-2.634-11.061-1.276-14.657,3.017c-21.652,25.844-33.23,60.371-28.234,97.762c7.442,55.69,52.408,100.563,108.133,107.74
	c81.809,10.536,150.814-57.453,142.017-138.969C438.289,211.992,394.787,166.315,339.613,157.26z"/>
<g>
</g>
<g>
</g>
<g>
</g>
<g>
</g>
<g>
</g>
<g>
</g>
<g>
</g>
<g>
</g>
<g>
</g>
<g>
</g>
<g>
</g>
<g>
</g>
<g>
</g>
<g>
</g>
<g>
</g>
</svg>
