<?xml version="1.0" encoding="iso-8859-1"?>
<!-- Generator: Adobe Illustrator 19.0.0, SVG Export Plug-In . SVG Version: 6.00 Build 0)  -->
<svg version="1.1" id="Layer_1" xmlns="http://www.w3.org/2000/svg" xmlns:xlink="http://www.w3.org/1999/xlink" x="0px" y="0px"
	 viewBox="0 0 512 512" style="enable-background:new 0 0 512 512;" xml:space="preserve">
<path style="fill:#F2464F;" d="M423.62,183.832c-4.792-25.932-14.253-50.48-28.12-72.96c-1.202-1.95-3.231-3.243-5.506-3.508
	c-2.279-0.27-4.548,0.523-6.168,2.144l-21.186,21.184l-37.299-8.053c-2.491-0.538-5.079,0.227-6.88,2.026l-94.174,94.174
	c-0.741,0.741-1.606,0.851-2.057,0.851c-0.45,0-1.315-0.111-2.058-0.853l-1.373-1.372c-1.135-1.135-1.135-2.981,0-4.115
	l94.174-94.174c1.8-1.8,2.562-4.391,2.025-6.879l-8.053-37.299l21.462-21.462c1.611-1.612,2.402-3.87,2.147-6.136
	c-0.256-2.266-1.527-4.292-3.458-5.505c-33.961-21.35-73.21-32.635-113.506-32.635c-57.053,0-110.692,22.218-151.034,62.56
	S0,165.801,0,222.853c0,57.053,22.218,110.691,62.56,151.035c40.342,40.342,93.98,62.56,151.034,62.56
	c16.652,0,33.269-1.935,49.388-5.751c2.391-0.565,4.351-2.267,5.248-4.552c13.481-34.326,44.893-61.764,81.976-71.606
	c0.003,0,0.006-0.001,0.008-0.002c1.107-0.294,2.219-0.569,3.354-0.836l0.589-0.132c0.882-0.203,1.767-0.396,2.661-0.58l0.898-0.181
	c0.83-0.164,1.661-0.319,2.507-0.467l0.838-0.148c1.084-0.183,2.171-0.354,3.262-0.505c0.02-0.003,0.038-0.006,0.058-0.008
	c1.103-0.154,2.212-0.289,3.315-0.411l0.895-0.091c0.813-0.083,1.626-0.159,2.435-0.225l1.112-0.085
	c0.786-0.057,1.573-0.104,2.361-0.145l1.024-0.053c0.411-0.018,0.821-0.03,1.232-0.042l0.252-0.008
	c0.618-0.019,1.214-0.121,1.785-0.28c0.569,0.159,1.163,0.262,1.777,0.282l0.143,0.005c0.082,0.003,0.164,0.004,0.247,0.004
	c2.404,0,4.661-1.155,6.069-3.101c0.063-0.085,0.124-0.173,0.18-0.257c1.561-2.341,1.678-5.358,0.306-7.813
	c-1.373-2.456-4.004-3.944-6.816-3.83c-0.105,0.003-0.21,0.01-0.323,0.017c-0.559,0.027-1.1,0.121-1.618,0.264
	c-0.554-0.152-1.132-0.249-1.731-0.269c-27.93-0.921-50.653-24.4-50.653-52.339v-51.526c0-28.886,23.499-52.386,52.385-52.386
	c12.025,0,23.363,4.022,32.787,11.632c2.439,1.969,5.847,2.212,8.541,0.607C422.78,190.026,424.19,186.915,423.62,183.832z"/>
<path style="fill:#EFE7E4;" d="M368.604,172.135c-4.977-15.213-12.167-29.589-21.372-42.73c-1.083-1.546-2.71-2.626-4.554-3.025
	l-17.336-3.742c-2.491-0.538-5.079,0.227-6.88,2.026l-94.174,94.174c-0.741,0.741-1.605,0.851-2.057,0.851
	c-0.45,0-1.315-0.111-2.058-0.853l-1.373-1.372c-1.135-1.135-1.135-2.981,0-4.115l94.174-94.174c1.8-1.8,2.562-4.391,2.025-6.879
	l-3.828-17.734c-0.393-1.823-1.453-3.435-2.971-4.517c-27.735-19.794-60.449-30.257-94.607-30.257
	c-89.914,0-163.065,73.15-163.065,163.065s73.151,163.065,163.065,163.065c48.645,0,94.388-21.488,125.502-58.955
	c2.335-2.81,2.302-6.894-0.078-9.666c-8.155-9.502-12.645-21.574-12.645-33.993v-51.527c0-22.858,15.334-43.477,37.286-50.142
	c1.928-0.585,3.539-1.923,4.469-3.71C369.059,176.137,369.231,174.051,368.604,172.135z"/>
<path style="fill:#F2464F;" d="M302.388,152.55c-1.328-1.674-3.307-2.703-5.44-2.826c-2.123-0.126-4.218,0.669-5.729,2.183
	l-66.932,66.932v0.001c-0.741,0.741-1.606,0.851-2.057,0.851c-0.45,0-1.315-0.111-2.058-0.853l-1.373-1.372
	c-1.135-1.135-1.135-2.981,0-4.115l67.06-67.059c1.495-1.496,2.29-3.555,2.186-5.669c-0.105-2.114-1.1-4.084-2.736-5.426
	c-20.156-16.508-45.625-25.6-71.716-25.6c-62.451,0-113.258,50.807-113.258,113.258s50.807,113.258,113.258,113.258
	c62.45,0,113.257-50.807,113.257-113.258C326.852,197.047,318.392,172.737,302.388,152.55z"/>
<path style="fill:#EFE7E4;" d="M265.234,190.91c-1.206-1.945-3.234-3.232-5.507-3.495c-2.267-0.26-4.541,0.526-6.16,2.145
	l-29.279,29.279v0.001c-0.741,0.741-1.606,0.851-2.057,0.851c-0.45,0-1.315-0.111-2.058-0.853l-1.373-1.372
	c-1.135-1.135-1.135-2.981,0-4.115l29.54-29.539c1.587-1.587,2.38-3.804,2.157-6.039c-0.222-2.235-1.436-4.252-3.305-5.496
	c-9.973-6.636-21.592-10.145-33.6-10.145c-33.483,0-60.724,27.241-60.724,60.723s27.241,60.724,60.724,60.724
	s60.723-27.241,60.723-60.724C274.318,211.545,271.176,200.498,265.234,190.91z"/>
<g>
	<path style="fill:#F7CB4F;" d="M379.509,47.791l-8.914-41.291c-0.578-2.681-2.576-4.832-5.207-5.606
		c-2.632-0.775-5.475-0.05-7.416,1.889L293.464,67.29c-1.8,1.8-2.562,4.391-2.025,6.879l8.915,41.291
		c0.578,2.681,2.576,4.831,5.208,5.605c0.696,0.206,1.409,0.306,2.115,0.306c1.959,0,3.874-0.769,5.3-2.195l64.507-64.508
		C379.283,52.87,380.046,50.278,379.509,47.791z"/>
	<path style="fill:#F7CB4F;" d="M436.746,72.252c-0.774-2.631-2.925-4.628-5.605-5.207l-41.291-8.914
		c-2.49-0.537-5.079,0.226-6.88,2.026l-64.508,64.508c-1.938,1.939-2.663,4.783-1.889,7.415c0.774,2.631,2.925,4.628,5.605,5.207
		l41.291,8.914c0.525,0.114,1.056,0.169,1.581,0.169c1.966,0,3.878-0.774,5.299-2.195l64.508-64.508
		C436.796,77.728,437.521,74.883,436.746,72.252z"/>
</g>
<path style="fill:#F4B008;" d="M341.493,141.456l21.977,4.744c0.525,0.114,1.056,0.169,1.581,0.169c1.966,0,3.878-0.774,5.299-2.195
	l64.508-64.508c1.938-1.939,2.663-4.783,1.889-7.415c-0.774-2.631-2.925-4.628-5.605-5.207L418.61,64.34L341.493,141.456z"/>
<path style="fill:#546F7A;" d="M393.524,60.199l-16.084-16.084c-2.927-2.926-7.67-2.926-10.596,0l-158.64,158.64
	c-6.975,6.977-6.975,18.329,0.001,25.307l1.373,1.373c3.381,3.38,7.874,5.242,12.653,5.242c4.78,0,9.274-1.861,12.653-5.242
	l158.64-158.639c1.405-1.405,2.194-3.311,2.194-5.298C395.718,63.509,394.929,61.604,393.524,60.199z"/>
<path style="fill:#68B9D8;" d="M379.088,335.822c-0.069-0.001-0.137-0.001-0.205,0c-72.044,0.985-132.911,59.976-132.911,128.814
	v39.273c0,4.144,3.36,7.502,7.505,7.502h251.017c4.146,0,7.505-3.359,7.505-7.502v-39.273
	C512,395.798,451.133,336.807,379.088,335.822z"/>
<path style="fill:#3695B2;" d="M379.088,335.822c-0.069-0.001-0.137-0.001-0.206,0c-4.631,0.063-9.215,0.371-13.74,0.9
	c65.878,7.713,119.171,63.5,119.171,127.914v39.273c0,4.144-3.36,7.502-7.505,7.502h27.686c4.146,0,7.505-3.359,7.505-7.502v-39.273
	C512,395.798,451.133,336.807,379.088,335.822z"/>
<path style="fill:#F2464F;" d="M418.194,450.06l-17.045-73.968c-0.801-3.474-3.896-5.937-7.462-5.937h-29.4
	c-3.566,0-6.662,2.463-7.462,5.937l-17.045,73.968c-0.619,2.688,0.257,5.502,2.293,7.366l31.745,29.045
	c1.463,1.339,3.317,2.008,5.17,2.008c1.854,0,3.707-0.669,5.17-2.008l31.746-29.045C417.937,455.563,418.813,452.749,418.194,450.06
	z"/>
<g>
	<path style="fill:#D3333C;" d="M418.194,450.06l-16.412-71.222h-22.795h-5.607l16.706,72.493l-27.338,25.013l11.069,10.128
		c1.463,1.339,3.317,2.008,5.17,2.008c1.854,0,3.707-0.669,5.17-2.008l31.746-29.045
		C417.937,455.563,418.813,452.749,418.194,450.06z"/>
	<path style="fill:#D3333C;" d="M401.829,378.838l18.45-35.941c-13.032-4.391-26.89-6.879-41.19-7.074
		c-0.069-0.001-0.137-0.001-0.206,0c-14.368,0.197-28.288,2.706-41.372,7.135l18.614,35.88H401.829z"/>
</g>
<path style="fill:#AF273B;" d="M394.796,336.969l-21.417,41.868h5.607h22.843l18.45-35.941
	C412.08,340.135,403.553,338.129,394.796,336.969z"/>
<path style="fill:#FFC89F;" d="M378.985,164.406c-37.212,0-67.486,30.264-67.486,67.463v51.598
	c0,37.199,30.274,67.463,67.486,67.463c37.212,0,67.487-30.264,67.487-67.463v-51.598
	C446.472,194.67,416.198,164.406,378.985,164.406z"/>
<path style="fill:#F7B081;" d="M378.985,164.406c-4.758,0-9.402,0.501-13.885,1.443c30.573,6.418,53.602,33.578,53.602,66.02v51.598
	c0,32.442-23.029,59.603-53.602,66.02c4.483,0.941,9.126,1.443,13.885,1.443c37.212,0,67.487-30.264,67.487-67.463v-51.598
	C446.472,194.67,416.198,164.406,378.985,164.406z"/>
<path d="M446.472,257.769V231.87c0-37.2-30.274-67.463-67.487-67.463c-37.212,0-67.486,30.264-67.486,67.463v25.884l7.431,0.022
	c52.491,0,71.614-35.431,71.614-35.431s13.367,35.26,48.497,35.424L446.472,257.769z"/>
<g>
</g>
<g>
</g>
<g>
</g>
<g>
</g>
<g>
</g>
<g>
</g>
<g>
</g>
<g>
</g>
<g>
</g>
<g>
</g>
<g>
</g>
<g>
</g>
<g>
</g>
<g>
</g>
<g>
</g>
</svg>
