<?xml version="1.0" encoding="UTF-8" standalone="no"?>
<!-- Created with Inkscape (http://www.inkscape.org/) -->

<svg
   xmlns:dc="http://purl.org/dc/elements/1.1/"
   xmlns:cc="http://creativecommons.org/ns#"
   xmlns:rdf="http://www.w3.org/1999/02/22-rdf-syntax-ns#"
   xmlns:svg="http://www.w3.org/2000/svg"
   xmlns="http://www.w3.org/2000/svg"
   xmlns:sodipodi="http://sodipodi.sourceforge.net/DTD/sodipodi-0.dtd"
   xmlns:inkscape="http://www.inkscape.org/namespaces/inkscape"
   width="22.25655mm"
   height="33.866665mm"
   viewBox="0 0 22.25655 33.866665"
   version="1.1"
   id="svg1183"
   inkscape:version="0.92.3 (2405546, 2018-03-11)"
   sodipodi:docname="teacher-female.svg">
  <defs
     id="defs1177" />
  <sodipodi:namedview
     id="base"
     pagecolor="#ffffff"
     bordercolor="#666666"
     borderopacity="1.0"
     inkscape:pageopacity="0.0"
     inkscape:pageshadow="2"
     inkscape:zoom="0.35"
     inkscape:cx="-211.50001"
     inkscape:cy="224.28598"
     inkscape:document-units="mm"
     inkscape:current-layer="layer1"
     showgrid="false"
     fit-margin-top="0"
     fit-margin-left="0"
     fit-margin-right="0"
     fit-margin-bottom="0"
     inkscape:window-width="1366"
     inkscape:window-height="705"
     inkscape:window-x="-8"
     inkscape:window-y="-8"
     inkscape:window-maximized="1" />
  <metadata
     id="metadata1180">
    <rdf:RDF>
      <cc:Work
         rdf:about="">
        <dc:format>image/svg+xml</dc:format>
        <dc:type
           rdf:resource="http://purl.org/dc/dcmitype/StillImage" />
        <dc:title></dc:title>
      </cc:Work>
    </rdf:RDF>
  </metadata>
  <g
     inkscape:label="Layer 1"
     inkscape:groupmode="layer"
     id="layer1"
     transform="translate(-38.95045,-204.5471)">
    <g
       id="XMLID_165_"
       transform="matrix(0.06548796,0,0,0.06548796,15.985533,197.73919)">
      <path
         id="XMLID_518_"
         d="m 683.2,436.6 c -4,-17.8 -13.9,-33.8 -22.4,-50.1 -7.3,-13.9 -13.6,-28.2 -19.1,-42.8 -3.6,-9.7 -6.9,-19.6 -12.2,-28.6 -5.3,-9 -13.2,-15.6 -22.9,-20 0,0 0,0 0,0 -4,-2.2 -8.4,-3.8 -12.8,-5.2 -2.5,-0.8 -5.1,-1.6 -7.7,-2.3 v 0 c 0,0 0,0 0,0 -1,-0.3 -2,-0.6 -3,-0.8 -0.3,-0.1 -0.5,-0.1 -0.8,-0.2 -1,-0.3 -1.9,-0.5 -2.9,-0.8 -0.3,-0.1 -0.6,-0.2 -0.9,-0.2 -1.1,-0.3 -2.2,-0.6 -3.3,-0.8 -0.2,-3.2 -0.4,-8.5 -0.2,-13.1 0,-0.4 0,-0.7 0.1,-1.1 0,-0.1 0,-0.2 0,-0.2 0,-0.3 0,-0.6 0.1,-0.9 0,-0.1 0,-0.1 0,-0.2 0,-0.1 0,-0.2 0,-0.3 0.3,-0.1 0.6,-0.2 0.9,-0.3 h 27.4 11.6 36.2 c -0.6,-4.8 -0.5,-8.7 -3.5,-12.6 -3.3,-4.2 -8.2,-7.8 -9.1,-13 -1.1,-5.8 3,-11 4.9,-16.4 2.4,-7 1,-15.3 -3.6,-21.4 -4.2,-5.5 -10.8,-9.3 -13.9,-15.5 -2.3,-4.7 -2.3,-10.1 -2.8,-15.3 -2.3,-23.8 -20,-42.9 -42.4,-51.6 -21.9,-8.5 -51.5,-8.8 -67.2,9.8 2.2,-5.7 6.6,-10.6 12.1,-13.4 -13.8,5.5 -22.1,20.6 -20,35 -6.3,-2.1 -13.6,-1 -18.6,3 3.8,-0.2 7.7,1.1 10.7,3.5 -5.9,0.5 -10.7,4.9 -12.8,10.2 -2.1,5.3 -1.8,11.3 -0.5,16.9 1.1,5 2.9,10 1.9,14.9 -1.6,8 -10.4,14.3 -8.5,22.4 1.1,4.7 5.6,8.1 7.3,12.7 3.3,9.2 -3.2,23.3 3,30.9 h 56 3.3 c 1.4,0.5 2.8,0.9 4.2,1.2 0.1,0.3 0.2,0.6 0.2,0.9 0.2,0.8 0.3,1.5 0.5,2.3 0.1,0.5 0.2,1 0.2,1.6 0,0.3 0.1,0.6 0.1,0.9 0.1,0.6 0.1,1.2 0.2,1.8 0,0.1 0,0.1 0,0.2 0.1,1.4 0.1,2.8 0.1,4.2 v 0 c 0,1.2 -0.1,2.5 -0.3,3.7 -0.4,0.3 -0.8,0.5 -1.2,0.8 -0.3,0.2 -0.6,0.4 -1,0.6 -0.5,0.3 -0.9,0.6 -1.4,0.9 -0.3,0.2 -0.7,0.4 -1,0.6 -0.5,0.3 -0.9,0.5 -1.4,0.8 -0.3,0.2 -0.7,0.4 -1,0.5 -0.5,0.3 -1,0.5 -1.5,0.8 -0.3,0.2 -0.7,0.3 -1,0.5 -0.5,0.3 -1,0.5 -1.6,0.8 -0.3,0.1 -0.6,0.3 -0.9,0.4 -0.6,0.3 -1.2,0.6 -1.8,0.9 v 0 c -6.5,3.1 -13.2,6.1 -18.9,10.4 -15.7,11.8 -22.6,31.3 -29.3,49.6 -6.7,18.3 -14.9,37.6 -31.9,47.6 -18.7,-15.6 -38.1,-30.4 -53.8,-49 -1.1,0.9 -2.3,1.9 -3.5,2.8 -1.8,-2.2 -3.7,-4.4 -5.7,-6.6 -1.5,1.3 -3.1,2.7 -4.7,4 -3,-4 -4.9,-8.9 -5.2,-13.8 -0.1,-2 0,-4.1 -0.4,-6.1 -0.5,-2.9 -2,-5.6 -3.5,-8.2 -0.7,-1.2 -1.3,-2.4 -2.4,-3.3 -1,-0.9 -2.2,-1.4 -3.5,-1.9 -1.3,-0.5 -2.6,-1.1 -3.9,-1.6 -0.2,-0.5 -0.5,-1 -0.8,-1.7 -2.7,-5 -5.4,-10.1 -7.6,-15.3 -2.1,-4.5 -4.1,-9 -5,-13.8 -0.3,-1.6 -1.2,-3.7 -2.8,-3.4 -0.7,0.1 -1.1,0.7 -1.5,1.3 -2.5,4.4 -0.6,9.9 1.3,14.7 1.8,4.5 3.6,9 5.4,13.6 -0.6,-0.3 -1.3,-0.5 -2,-0.3 -1,0.3 -1.3,1.2 -1.3,2.3 -2.4,0 -5,1.9 -5.6,3.9 -0.4,1.2 -0.3,2.5 0.1,3.7 0,0 0,0 0,0 -2.7,0.7 -1.8,6.4 -1.1,8.1 0.3,0.6 0.6,1.2 0.9,1.7 -1,1.1 -1.2,3.5 -0.7,5.4 0.5,2.2 2.1,4.1 3.8,5.7 0.1,0.1 0.3,0.3 0.4,0.4 2.1,5 7,9.1 12.4,10.7 1.8,0.5 3.7,0.8 5.6,0.9 0.2,0.3 0.4,0.7 0.6,1 1.2,1.8 2.4,3.7 3.6,5.5 -1.7,1.1 -3.5,2.2 -5.3,3.1 0.7,2.1 1.6,4.1 2.8,6 -0.7,0.3 -1.5,0.7 -2.2,1 12,28 31.1,55.6 59.1,68.9 5.1,2.4 10.5,4.3 16,4.5 14.3,0.6 26.1,-9.9 34.9,-20.5 10.4,-12.5 19.3,-26.3 26.3,-40.9 -5.3,50.5 -11.3,99.4 -16.6,149.9 5.9,4.3 12.1,8.1 18.4,11.4 0.3,2 0.7,4 1,6 0.2,1.1 0.4,2.1 0.6,3.2 3.7,21.1 7.6,42.1 11.8,63.1 l 143.3,3.9 c 0.8,-26.5 -1.5,-53 -6.2,-79.3 v 0 c 0,0 0,0 0,0 -0.1,-0.4 -0.1,-0.8 -0.2,-1.2 4,-1.5 7.8,-2.5 11.8,-4 -3.4,-14.7 -7.5,-29.7 -11.8,-44.9 3,-1.4 5.8,-3.1 8.3,-5.2 14.2,-11.7 17.2,-32.1 13.2,-49.9 z"
         inkscape:connector-curvature="0"
         style="opacity:0.3;fill:#010e2e" />
      <g
         id="XMLID_45_">
        <path
           id="XMLID_44_"
           d="m 525.3,616.9 c -5.3,-32.5 -10,-65.2 -14,-97.9 -2.4,-19.3 6.2,-39.2 20.3,-52.5 8.4,-7.9 19.3,-13 30.7,-14.3 31.7,-3.7 59.5,20.6 90.6,27.9 11.8,46 18.6,93.4 15.6,140.8 z"
           inkscape:connector-curvature="0"
           style="fill:#204d86" />
        <path
           id="XMLID_225_"
           d="m 652.9,480.2 c -31.1,-7.4 -58.8,-31.6 -90.6,-27.9 -11.4,1.3 -22.4,6.4 -30.7,14.3 -14.1,13.4 -22.7,33.2 -20.3,52.5 2.6,21.2 5.5,42.3 8.6,63.4 50.4,-5.4 99.7,-20.4 144.9,-42.9 -2.8,-20 -6.9,-39.8 -11.9,-59.4 z"
           inkscape:connector-curvature="0"
           style="fill:#051d43" />
        <path
           id="XMLID_39_"
           d="m 374.8,291.3 c -1.9,-4.6 -3.8,-9.2 -4.6,-14.2 -0.3,-1.6 -1.1,-3.8 -2.7,-3.5 -0.7,0.1 -1.2,0.7 -1.5,1.3 -2.6,4.5 -0.9,10.2 0.8,15.1 1.9,5.2 3.7,10.4 5.6,15.6 0.3,0.9 0.7,1.9 1.4,2.6 0.5,0.5 1.2,0.8 1.9,1.2 4.9,2.3 9.7,4.7 6.2,-2.5 -2.4,-5 -5,-10.3 -7.1,-15.6 z"
           inkscape:connector-curvature="0"
           style="fill:#f4c39f" />
        <path
           id="XMLID_168_"
           d="m 368.4,294.4 c 1.3,3.8 2.7,7.5 4,11.3 0.3,0.9 0.7,1.9 1.4,2.6 0.5,0.5 1.2,0.8 1.9,1.2 4.9,2.3 9.7,4.7 6.2,-2.5 0,0 0,0 0,-0.1 -5.5,-2.5 -10,-7.1 -13.5,-12.5 z"
           inkscape:connector-curvature="0"
           style="fill:#af694e" />
        <path
           id="XMLID_43_"
           d="m 384.3,347.8 c -2.3,0.1 -4.7,-0.3 -6.9,-1 -6.9,-2.1 -12.6,-8.3 -13,-15.5 -0.3,-6.5 0.3,-12.4 3,-18.3 0.9,-1.9 2.2,-4 4.3,-4.4 2.4,-0.4 4.5,1.6 6.1,3.4 3.5,4 7.2,8.2 8.3,13.5 0.8,3.7 0.2,7.5 -0.5,11.2 -0.5,3.1 -0.7,8 -1.3,11.1 z"
           inkscape:connector-curvature="0"
           style="fill:#f4c39f" />
        <path
           id="XMLID_40_"
           d="m 362.9,310.1 c -1,3 0.7,6.2 2.5,8.8 2.1,2.8 4.6,5.4 7.7,7 0.8,0.4 1.9,0.8 2.7,0.3 0.6,-0.3 1,-0.8 1.1,-1.4 0.6,-1.9 -0.7,-3.9 -2.1,-5.4 -1.3,-1.5 -2.9,-3.1 -3,-5.2 -0.1,-2.7 1.8,-6 -1.5,-7.7 -2.6,-1.4 -6.6,1 -7.4,3.6 z"
           inkscape:connector-curvature="0"
           style="fill:#f4c39f" />
        <path
           id="XMLID_41_"
           d="m 361.4,322.3 c 1,2.5 2.9,4.6 5,6.3 1.1,0.9 2.3,1.8 3.7,2.2 1.4,0.4 3,0.2 4.1,-0.8 1.5,-1.5 1.2,-4.1 0,-5.9 -1.2,-1.8 -3.1,-2.9 -4.8,-4.2 -1.5,-1.2 -4.7,-6.5 -6.7,-6 -2.7,0.8 -2,6.7 -1.3,8.4 z"
           inkscape:connector-curvature="0"
           style="fill:#f4c39f" />
        <path
           id="XMLID_42_"
           d="m 361.4,329.6 c 0.4,2.3 2,4.2 3.6,5.8 1.1,1.2 2.4,2.4 4,2.8 1.6,0.4 3.6,-0.1 4.3,-1.6 0.8,-1.7 -0.3,-3.6 -1.3,-5.1 -1.5,-2.2 -4,-6.9 -6.6,-8 -3.7,-1.3 -4.6,2.9 -4,6.1 z"
           inkscape:connector-curvature="0"
           style="fill:#f4c39f" />
        <path
           id="XMLID_38_"
           d="m 402.4,347.3 c -4.2,-4.6 -6.7,-10.7 -6.8,-16.9 -0.1,-2.1 0.1,-4.2 -0.2,-6.2 -0.4,-3 -1.8,-5.8 -3.2,-8.4 -0.6,-1.2 -1.3,-2.5 -2.3,-3.4 -1,-0.9 -2.2,-1.4 -3.4,-1.9 -4.9,-2.1 -9.7,-4.2 -14.6,-6.2 -0.7,-0.3 -1.4,-0.6 -2.1,-0.4 -1.8,0.4 -1.6,3.1 -0.7,4.8 2.1,4 5.4,7.4 9.3,9.7 1,2.6 -0.7,5.9 0.1,8.6 0.8,2.6 3.6,4 4.7,6.5 -2.8,1 -3.4,4.3 -3.1,7.3 0.3,3 1.8,5.6 3.4,8.2 1.7,2.9 3.5,5.8 5.2,8.7 4.3,-3.8 8.9,-7.7 13.7,-10.4 z"
           inkscape:connector-curvature="0"
           style="fill:#f4c39f" />
        <path
           id="XMLID_35_"
           d="m 386.3,367 c -2.1,-2.8 -3.7,-6 -4.7,-9.4 8.4,-4.7 16.3,-10.9 23.5,-17.2 3.4,4.2 6.7,8.2 9.8,12.6 z"
           inkscape:connector-curvature="0"
           style="fill:#c44147" />
        <path
           id="XMLID_27_"
           d="m 676.6,534.2 c -4,1.5 -7.9,2.6 -12,4.1 -2.5,-17.3 -6.6,-34.5 -12.4,-51 0.9,17.5 2.4,36 4.1,53.4 -3.6,2.5 -7.6,4.2 -11.7,5.8 -21.6,8 -44.8,12.1 -67.8,10 -6.4,-25 -13.3,-48.5 -19.7,-73.5 -1.5,24.2 -5.7,47.6 -7.2,71.8 C 530,552 512.3,543.1 496.3,531 c 7,-51.8 14.6,-102.1 21.6,-153.9 -7.5,15 -16.8,29.2 -27.6,42 -9.2,10.9 -21.3,21.6 -35.6,21.1 -5.5,-0.2 -10.9,-2.2 -15.9,-4.6 -27.6,-13.6 -45.8,-42 -56.9,-70.7 11.2,-4.9 22.7,-12.7 32.2,-20.5 15.1,19 34,34.2 52.2,50.3 17.4,-10.2 26.2,-30.1 33.5,-48.8 7.3,-18.8 14.8,-38.8 30.9,-50.9 12,-9 27.6,-12.6 38.6,-22.6 11.7,2.1 24.1,5.2 35.4,9 6.5,2.2 13.1,4.7 18.2,9.3 11.4,10.5 11.6,27.9 12.9,43.3 1,12 3.2,23.9 5.4,35.7 2.3,12.7 4.7,25.4 7,38.2 7.5,41.1 20.3,85.1 28.4,126.3 z"
           inkscape:connector-curvature="0"
           style="fill:#23add2" />
        <path
           id="XMLID_215_"
           d="m 561.6,406.2 c -7.6,-12.6 -13.9,-26 -18.7,-39.9 -2.1,-6.2 -4,-12.7 -4.1,-19.2 0,-6.6 1.9,-13.4 6.6,-18.1 -11.5,-3.1 -18.1,-18 -12.6,-28.6 -2.5,4.6 -4.4,10.1 -5.3,15.3 -0.9,5.2 0.1,10.9 3.8,14.6 1.2,1.2 2.6,2.1 3.7,3.4 3.2,4 1.9,9.7 1.3,14.8 -2.5,21.1 13.5,40.1 25.3,57.7 z"
           inkscape:connector-curvature="0"
           style="fill:#0b8cb6" />
        <path
           id="XMLID_217_"
           d="m 591.6,392.1 c 3,-11.4 9.1,-21.7 13.6,-32.6 4.5,-10.9 7.2,-23.4 3.1,-34.4 -0.5,-1.4 -1.1,-2.8 -0.8,-4.2 0.3,-1.2 1.2,-2.2 1.9,-3.2 6,-7.8 3.2,-18.9 0.1,-28.3 3.3,4.5 6.4,10.2 8.2,15.5 1.8,5.3 1.9,11.4 -1.1,16.1 -0.9,1.4 -2,2.6 -2.5,4.1 -0.8,2.3 -0.1,4.8 0.4,7.2 1.7,8.7 0.8,17.9 -2.6,26 -5.4,12.8 -16.4,20.6 -20.3,33.8 z"
           inkscape:connector-curvature="0"
           style="fill:#0b8cb6" />
        <path
           id="XMLID_37_"
           d="m 634.7,433.2 c 3.4,-32.8 7,-68.4 -4.9,-99.2 -1.2,9.4 -2.9,18.7 -5,27.9 -0.7,2.9 -1.4,5.9 -3.1,8.3 -1.9,2.7 -4.9,4.5 -7.7,6.2 -7.8,4.6 -15.5,9.2 -23.3,13.7 -1,0.6 -1.9,1.2 -2.6,2 -1.4,1.7 -1.4,4.2 -0.8,6.4 1.8,6.2 7.6,10.3 13,13.8 8.5,5.6 25.8,15.2 34.4,20.9 z"
           inkscape:connector-curvature="0"
           style="fill:#0b8cb6" />
        <g
           id="XMLID_213_">
          <path
             id="XMLID_214_"
             d="m 578.3,378.9 c 6.3,-18.6 12.7,-37.3 16.3,-56.6 2.7,-14.3 3.9,-29 2.4,-43.5 -9.1,-2.7 -18.7,-5 -27.8,-6.6 -5.6,5.2 -12.5,8.6 -19.4,11.9 1.9,39.2 8.4,78.2 19.6,115.9 3.8,-6.5 6.5,-14 8.9,-21.1 z"
             inkscape:connector-curvature="0"
             style="fill:#c44147" />
        </g>
        <path
           id="XMLID_216_"
           d="m 572.6,295.4 c 0,0 12.9,8.7 21.5,29.7 0.2,-1 0.4,-1.9 0.6,-2.9 2.7,-14.3 3.9,-29 2.4,-43.5 -9.1,-2.7 -18.7,-5 -27.8,-6.6 -5.6,5.2 -12.5,8.6 -19.4,11.9 0.5,11.2 1.5,22.4 2.8,33.6 3.4,-7 9.6,-17.4 19.9,-22.2 z"
           inkscape:connector-curvature="0"
           style="fill:#fffefd" />
        <g
           id="XMLID_33_">
          <path
             id="XMLID_36_"
             d="m 572.6,295.4 c -10.3,4.8 -16.6,15.2 -20,22.3 0.3,2.2 0.6,4.4 0.8,6.6 3.9,-9.3 11.2,-24.6 19.2,-28.9 z"
             inkscape:connector-curvature="0"
             style="fill:#962c33" />
          <path
             id="XMLID_161_"
             d="m 572.6,295.4 c 0,0 12.9,20.6 18.8,41.4 1,-3.9 1.9,-7.7 2.7,-11.6 -8.5,-21.1 -21.5,-29.8 -21.5,-29.8 z"
             inkscape:connector-curvature="0"
             style="fill:#962c33" />
        </g>
        <path
           id="XMLID_7_"
           d="m 571.9,259.3 h -72.1 c -6,-7.8 1,-22.3 -2,-31.7 -1.5,-4.7 -5.9,-8.2 -6.9,-13 -1.6,-8.3 7.4,-14.7 9.3,-23 1.2,-5 -0.5,-10.2 -1.4,-15.3 -1.1,-5.8 -1.2,-11.9 1.1,-17.4 2.3,-5.5 7.2,-10 13.1,-10.5 -2.9,-2.4 -6.7,-3.7 -10.5,-3.6 5.8,-4.7 14.4,-5.6 21,-2.1 13,6.8 21.2,20.9 25.4,34.9 4.2,14 5.4,28.8 8.9,43.1 2.9,12 7.8,27.8 14.1,38.6 z"
           inkscape:connector-curvature="0"
           style="fill:#124272" />
        <path
           id="XMLID_8_"
           d="m 528.9,228.4 c -2.8,2.6 -7.7,2.3 -10.2,-0.6 -1.9,-2.3 -2.2,-5.5 -3.7,-8 -1,-1.8 -2.6,-3.3 -4,-4.9 -4.5,-5.4 -6.5,-13 -5.1,-19.9 0.4,-1.9 1.2,-4 3,-4.5 0.8,-0.3 1.7,-0.1 2.6,0.1 3.6,0.8 6.9,2.5 9.7,4.9 3.4,10.6 3.2,22.5 7.7,32.9 z"
           inkscape:connector-curvature="0"
           style="fill:#e0a286" />
        <path
           d="m 528.9,231.39999 a 5.9,6.1 0 0 1 -5.9,6.1 5.9,6.1 0 0 1 -5.9,-6.1 5.9,6.1 0 0 1 5.9,-6.1 5.9,6.1 0 0 1 5.9,6.1 z"
           id="XMLID_10_"
           inkscape:connector-curvature="0"
           style="fill:#d7e4ed" />
        <path
           id="XMLID_9_"
           d="m 515.2,198.6 c -0.6,-0.4 -1.2,-0.8 -1.9,-0.7 -0.9,0.1 -1.5,1.1 -1.7,2.1 -0.2,0.9 -0.2,1.9 -0.8,2.7 0.2,-1.8 2.5,-2.7 4.2,-2.1 1.7,0.6 2.8,2.2 3.7,3.8 -1.7,1.6 -2.6,3.9 -2.5,6.2 0.1,2.3 1.2,4.6 3,6 2.2,1.8 5.1,2.3 7.8,2.8 -1.8,-0.3 -2.2,-10.6 -3,-12.2 -1.7,-3.3 -5.8,-6.4 -8.8,-8.6 z"
           inkscape:connector-curvature="0"
           style="fill:#af694e" />
        <path
           d="m 626.79999,259.29999 h -71 l 63.5,-37.79999 z"
           id="XMLID_17_"
           inkscape:connector-curvature="0"
           style="fill:#041e33" />
        <path
           id="XMLID_26_"
           d="m 561.7,255 c 2.8,8 3.4,16.7 1.5,25 2.5,4.3 8.4,14.9 9.5,15.4 5.1,-5.2 9.8,-10.6 13.7,-16.7 -0.1,-2.7 -0.6,-19.5 1.7,-24.3 z"
           inkscape:connector-curvature="0"
           style="fill:#f4c39f" />
        <path
           id="XMLID_145_"
           d="m 561.7,255 c 2,5.7 2.8,11.7 2.5,17.7 8.1,-2.1 15.8,-5.2 22.3,-10.3 0.3,-3.4 0.7,-6.4 1.5,-8.1 z"
           inkscape:connector-curvature="0"
           style="fill:#e0a286" />
        <path
           id="XMLID_4_"
           d="m 522.7,215.5 c 0.5,1.8 1,3.5 1.5,5.3 4.3,13.9 12.7,25.6 24.9,33.6 16.6,10.8 37.2,9.5 52.6,-3 11.2,-9.1 18.2,-22.5 21.3,-36.5 3.1,-14 2.6,-28.6 0.6,-42.9 -1.5,-10.5 -3.8,-20.9 -8.7,-30.3 -3.6,-6.8 -8.7,-13.2 -15.7,-16.5 -4.6,-2.2 -9.7,-3 -14.8,-3.7 -10.3,-1.5 -20.8,-3 -31.2,-1.7 -8.6,1.1 -16.7,4.3 -23.2,10.1 -7,6.2 -7.9,15.2 -9.4,24 -3.3,20.1 -3,41.7 2.1,61.6 z"
           inkscape:connector-curvature="0"
           style="fill:#f4c39f" />
        <path
           id="XMLID_6_"
           d="m 663,259.3 h -47.9 c -3.8,-5.4 -1.3,-12.8 -2.7,-19.1 -1.3,-6 -5.8,-10.8 -7.6,-16.6 -2,-6.6 -0.4,-13.8 -0.9,-20.7 -0.9,-10.4 -7.2,-20.1 -16.4,-25.1 -8.8,-4.8 -20.1,-5.6 -26.7,-13.1 -3.9,-4.4 -5.5,-10.5 -8.8,-15.4 -3.4,-5 -9,-8.7 -15,-9.5 -6.1,-0.7 -11.4,1.9 -15,6.8 -4.4,-16.1 4.8,-34.4 20.3,-40.7 -5.6,3 -10.1,7.9 -12.5,13.8 16.3,-19.1 45.9,-18.7 67.5,-10 22.2,8.9 39.2,28.5 40.7,52.9 0.3,5.3 0.1,10.8 2.3,15.7 2.9,6.3 9.4,10.2 13.4,15.9 4.4,6.3 5.6,14.8 2.9,22 -2.1,5.6 -6.3,11 -5.4,16.9 0.8,5.3 5.5,9 8.7,13.4 2.9,3.8 2.7,7.8 3.1,12.8 z"
           inkscape:connector-curvature="0"
           style="fill:#124272" />
        <path
           id="XMLID_14_"
           d="m 554.8,196.3 c -1.4,3.7 -4.9,6.2 -8.6,7.7 -3.9,1.5 -8.3,2.2 -12.2,0.8 -3.9,-1.4 -7.1,-5.3 -6.7,-9.5 0.2,-2.6 2.2,-4.4 4.6,-5.4 4.9,-2.1 10.7,-3.1 15.5,-0.9 3,1.5 5.1,4.7 7.4,7.3 z"
           inkscape:connector-curvature="0"
           style="fill:#041e33" />
        <path
           id="XMLID_11_"
           d="m 538.2,184.9 c 3.4,-0.7 7,0.7 9.7,2.9 2.7,2.2 4.6,5.2 6.4,8.2 0.2,0.3 0.4,0.7 0.3,1.1 -0.1,0.3 -0.3,0.5 -0.5,0.7 -3,2.7 -6.5,5 -10.4,5.9 -3.9,0.9 -8.4,0.1 -11.3,-2.6 -3,-2.8 -5.1,-6.3 -2.6,-9.8 2,-3 4.8,-5.7 8.4,-6.4 z"
           inkscape:connector-curvature="0"
           style="fill:#d7e4ed" />
        <path
           id="XMLID_15_"
           d="m 603.7,192 c -1.8,-3.5 -4,-6.9 -7.1,-9.3 -3.1,-2.4 -7.2,-3.8 -11,-3 -3.5,0.8 -6.5,3.3 -8.5,6.3 -2,3 -3.3,6.4 -4.5,9.8 4.4,4.7 10.7,7.4 17,6 5.3,-1.1 10.4,-5.6 14.1,-9.8 z"
           inkscape:connector-curvature="0"
           style="fill:#d7e4ed" />
        <path
           id="XMLID_18_"
           d="m 605.3,191.4 c -2.3,-0.2 -4.4,0.9 -6.3,2.2 -1.9,1.3 -3.4,3 -5.3,4.3 -6.3,4.2 -14.1,0.4 -21.2,-2.1 4.7,6.1 13.3,8.6 20.6,6 5.2,-1.9 8.6,-6.1 12.2,-10.4 z"
           inkscape:connector-curvature="0"
           style="fill:#041e33" />
        <path
           id="XMLID_13_"
           d="m 549.5,190 c -2,-2.1 -4.9,-3.4 -7.8,-3.6 -2.9,-0.2 -5.9,0.9 -7.9,3 -1.5,1.5 -2.5,3.4 -3.8,5.1 -1.3,1.6 -3.3,3 -5.4,2.7 1.8,-2.4 2.1,-5.6 3.2,-8.4 1.2,-2.8 3.4,-5.2 6,-6.6 3.1,-1.7 7,-2 10.4,-0.9 3.4,1.1 6.3,3.5 8,6.6 1.4,2.5 2.2,5.5 2.4,8.3 -2,-1.6 -3.2,-4.3 -5.1,-6.2 z"
           inkscape:connector-curvature="0"
           style="fill:#041e33" />
        <path
           id="XMLID_16_"
           d="m 607.9,191.8 c -2.1,-2.9 -4.2,-5.7 -6.3,-8.6 -1.3,-1.7 -2.5,-3.5 -4.2,-4.7 -2.7,-2.1 -6.3,-2.8 -9.7,-2.6 -4.2,0.2 -8.4,1.6 -11.2,4.7 -3.5,3.9 -3.6,10 -4,15.2 1.9,-4.7 4.1,-9.8 8.1,-13 2.1,-1.7 4.6,-2.8 7.3,-3.2 1,-0.1 2,-0.2 3,0.1 1,0.2 1.9,0.8 2.7,1.4 2.6,2 4.4,4.7 6.6,7.1 2.2,2.4 4.5,3.4 7.7,3.6 z"
           inkscape:connector-curvature="0"
           style="fill:#041e33" />
        <path
           id="XMLID_19_"
           d="m 550.7,173.8 c -3.6,-0.4 -7.1,-1 -10.6,-1.8 -2.6,-0.6 -5.2,-1.3 -7.9,-1.3 -3.5,0.1 -6.9,1.5 -9.4,3.9 3.9,-1.7 8.3,-2 12.3,-0.7 1.5,0.5 2.8,1.1 4.3,1.5 3.6,0.9 8.1,0.4 11.3,-1.6 z"
           inkscape:connector-curvature="0"
           style="fill:#124272" />
        <path
           id="XMLID_20_"
           d="m 580.2,170.4 c -3.6,1.4 -7.4,2.4 -11.2,3.2 2.1,1.7 5.3,1.4 7.9,0.7 4.2,-1.2 8.2,-3.2 11.8,-5.8 -2.6,0.2 -6.1,1 -8.5,1.9 z"
           inkscape:connector-curvature="0"
           style="fill:#124272" />
        <path
           id="XMLID_21_"
           d="m 555.4,210.1 c -1.6,3.2 -5,5.6 -3.5,8.8 1,2.3 3.6,3.4 6,4.1 1.8,0.5 3.8,0.7 5.6,0.4 1.9,-0.4 3.6,-1.5 4.5,-3.2 0.6,-1.3 0.7,-2.7 0.6,-4.1 0,-7.2 -0.7,-14.3 -2.1,-21.3 -0.3,-1.8 -0.8,-3.6 -2.1,-4.8 -4.4,-4 -5.3,3.1 -5.8,5.7 -0.9,4.5 -1,10.3 -3.2,14.4 z"
           inkscape:connector-curvature="0"
           style="fill:#f2a0a0" />
        <path
           id="XMLID_25_"
           d="m 553.1,233.9 c 0,0 3.9,-1.9 9.9,-2.5 6,-0.6 19.2,-2.4 19.2,-2.4 0,0 2.9,16 -9.6,20.5 -12.5,4.5 -17.5,-6.3 -19.5,-15.6 z"
           inkscape:connector-curvature="0"
           style="fill:#f92d8a" />
        <path
           id="XMLID_22_"
           d="m 582.2,229 c -2.2,1.3 -4.5,2.3 -6.9,3.1 -7.1,2.2 -14.7,2 -22.2,1.8 0.1,5.3 3.7,10.1 8.6,12 4.9,1.9 10.8,0.9 14.8,-2.5 4,-3.4 6.3,-9.2 5.7,-14.4 z"
           inkscape:connector-curvature="0"
           style="fill:#890943" />
        <path
           id="XMLID_121_"
           d="m 562.1,246.1 c 4.8,1.7 10.5,0.6 14.4,-2.7 2,-1.7 3.6,-4 4.6,-6.5 -7.1,1.3 -14.2,4 -19,9.2 z"
           inkscape:connector-curvature="0"
           style="fill:#b7256e" />
        <path
           id="XMLID_143_"
           d="m 582,233.8 c 0.3,-1.6 0.4,-3.2 0.2,-4.8 -2.2,1.3 -4.5,2.3 -6.9,3.1 -7.1,2.2 -14.7,2 -22.2,1.8 0,0.8 0.1,1.6 0.3,2.4 9.4,2.1 19.4,1.1 28.6,-2.5 z"
           inkscape:connector-curvature="0"
           style="fill:#d7e4ed" />
        <path
           d="m 557.29999,385.5 h 80.5 v 119 h -80.5 z"
           id="XMLID_34_"
           transform="matrix(0.9956,-0.0936834,0.0936834,0.9956,-39.0624,57.9399)"
           inkscape:connector-curvature="0"
           style="fill:#9e2931" />
        <path
           d="m 552.59998,390.29999 h 80.5 v 119 h -80.5 z"
           id="XMLID_31_"
           transform="matrix(0.988,-0.1544,0.1544,0.988,-62.336,96.9174)"
           inkscape:connector-curvature="0"
           style="fill:#fa7a21" />
        <path
           d="m 564.59998,406.70001 h 46.7 v 23.1 h -46.7 z"
           id="XMLID_32_"
           transform="matrix(0.988,-0.1544,0.1544,0.988,-57.5286,95.7791)"
           inkscape:connector-curvature="0"
           style="fill:#ffffff" />
        <path
           id="XMLID_83_"
           d="m 545,194.2 c -1.6,0 -2.8,-1.3 -2.8,-2.8 0,-1.5 1.3,-2.8 2.8,-2.8 0.1,0 0.1,0 0.2,0 -0.8,-0.8 -1.9,-1.3 -3,-1.3 -2.8,0 -5.1,3.1 -5.1,6.9 0,3.8 2.3,6.9 5.1,6.9 2.8,0 5.1,-3.1 5.1,-6.9 0,-0.4 0,-0.7 -0.1,-1.1 -0.5,0.7 -1.3,1.1 -2.2,1.1 z"
           inkscape:connector-curvature="0"
           style="fill:#041e33" />
        <path
           id="XMLID_112_"
           d="m 590.2,190.1 c -1.6,0 -2.8,-1.3 -2.8,-2.8 0,-1.3 0.9,-2.4 2.1,-2.7 -0.8,-0.6 -1.7,-1 -2.6,-1 -2.8,0 -5.1,3.1 -5.1,6.9 0,3.8 2.3,6.9 5.1,6.9 2.8,0 5.1,-3.1 5.1,-6.9 0,-0.3 0,-0.7 -0.1,-1 -0.5,0.4 -1.1,0.6 -1.7,0.6 z"
           inkscape:connector-curvature="0"
           style="fill:#041e33" />
        <g
           id="XMLID_84_">
          <g
             id="XMLID_346_">
            <g
               id="XMLID_350_">
              <g
                 id="XMLID_357_">
                <g
                   id="XMLID_358_">
                  <g
                     id="XMLID_359_">
                    <path
                       id="XMLID_360_"
                       d="m 536.7,216.8 c -18,0 -21.1,-15.4 -21.1,-15.6 l -0.2,-1.2 h 42.7 l -0.2,1.2 c -0.1,0.1 -3.3,15.6 -21.2,15.6 z M 517.9,202 c 1.1,3.4 5.2,12.8 18.8,12.8 13.6,0 17.8,-9.4 18.9,-12.8 z"
                       inkscape:connector-curvature="0"
                       style="fill:#ffffff" />
                  </g>
                </g>
              </g>
              <g
                 id="XMLID_351_">
                <g
                   id="XMLID_352_">
                  <g
                     id="XMLID_353_">
                    <path
                       id="XMLID_354_"
                       d="m 588.1,216.8 c -18,0 -21.1,-15.4 -21.1,-15.6 l -0.2,-1.2 h 42.7 l -0.2,1.2 c -0.1,0.1 -3.3,15.6 -21.2,15.6 z M 569.2,202 c 1,3.4 5.2,12.8 18.8,12.8 13.6,0 17.8,-9.4 18.9,-12.8 z"
                       inkscape:connector-curvature="0"
                       style="fill:#ffffff" />
                  </g>
                </g>
              </g>
            </g>
            <g
               id="XMLID_347_">
              <g
                 id="XMLID_348_">
                <path
                   id="XMLID_349_"
                   d="m 555.4,210.1 c -0.5,0 -1,-0.4 -1,-0.9 -0.1,-1.5 0.1,-3 0.4,-4.4 0.3,-2.1 0.8,-4.3 2.5,-5.6 1.3,-1 3,-1.2 4.4,-1.2 1.1,0 2.3,0 3.4,0.5 1.6,0.7 2.5,2.1 3,3.1 0.6,1.2 0.8,2.5 1.1,3.8 l 0.7,3.4 c 0.1,0.5 -0.2,1.1 -0.8,1.2 -0.5,0.1 -1.1,-0.2 -1.2,-0.8 l -0.7,-3.4 c -0.2,-1.1 -0.5,-2.3 -1,-3.3 -0.5,-1 -1.2,-1.8 -2,-2.2 -0.8,-0.4 -1.7,-0.4 -2.6,-0.4 -1,0 -2.3,0.1 -3.2,0.8 -1.1,0.9 -1.5,2.5 -1.8,4.3 -0.2,1.3 -0.4,2.7 -0.4,4 0.2,0.6 -0.2,1.1 -0.8,1.1 0,0 0,0 0,0 z"
                   inkscape:connector-curvature="0"
                   style="fill:#ffffff" />
              </g>
            </g>
          </g>
        </g>
        <g
           id="XMLID_219_">
          <path
             id="XMLID_222_"
             d="m 495.9,394.4 c -4.9,8.2 -9.9,16.6 -16.8,23.2 -7,6.6 -16.2,11.3 -25.8,10.7 -16.3,-1.1 -27.5,-16.4 -36.2,-30.2 -8.2,-12.9 -16.3,-25.8 -24.5,-38.6 -3.5,2 -7.1,3.9 -10.6,5.4 11,28.7 29.2,57.1 56.9,70.7 5,2.5 10.3,4.4 15.9,4.6 14.3,0.6 26.4,-10.1 35.6,-21.1 10.8,-12.8 20.1,-27 27.6,-42 l 9.9,-36.4 c -10.7,18 -21.4,35.8 -32,53.7 z"
             inkscape:connector-curvature="0"
             style="fill:#0b8cb6" />
        </g>
        <path
           id="XMLID_212_"
           d="m 490,394.2 c 0.5,-0.5 1.1,-1 1.1,-1.7 0.2,-1.2 -1,-2.1 -2.2,-2.2 -1.2,-0.1 -2.3,0.5 -3.3,0.9 -6.3,2.8 -12.3,1.7 -18.6,3 5.9,6 17,5.2 23,0 z"
           inkscape:connector-curvature="0"
           style="fill:#0b8cb6" />
        <path
           id="XMLID_224_"
           d="m 376.5,322.3 c -1.1,1.4 -3.2,1.5 -4.8,0.8 -1.6,-0.7 -2.8,-2.1 -3.9,-3.5 -1.5,-1.8 -2.9,-3.5 -4.4,-5.3 1.7,1.3 3.6,2.4 5.3,3.9 1.6,1.4 3.5,3 5.7,2.9 1.5,-0.1 3,-1.1 3.6,-2.5 -0.1,1.4 -0.6,2.5 -1.5,3.7 z"
           inkscape:connector-curvature="0"
           style="fill:#af694e" />
        <path
           id="XMLID_248_"
           d="m 374.1,326.6 c 0.5,1.1 0,2.5 -1,3.2 -1,0.7 -2.3,0.7 -3.5,0.4 -1.2,-0.3 -2.1,-1.1 -3.1,-1.9 -1.5,-1.3 -2.9,-2.7 -4,-4.3 1.7,1.1 3.2,2 4.8,3.3 0.7,0.6 1.4,1.2 2.3,1.5 1.8,0.4 4.6,-0.3 4.5,-2.2 z"
           inkscape:connector-curvature="0"
           style="fill:#af694e" />
        <path
           id="XMLID_258_"
           d="m 373,331.8 c 0.5,1 0.9,2.1 0.9,3.2 0,1.1 -0.6,2.3 -1.6,2.8 -0.9,0.5 -2,0.4 -3,0 -1,-0.4 -1.8,-1 -2.6,-1.7 1.3,0.4 2.2,0.1 3.6,0.1 0.4,0 0.8,0 1.2,-0.1 0.7,-0.3 1.2,-1 1.4,-1.8 0.2,-0.8 0.2,-1.7 0.1,-2.5 z"
           inkscape:connector-curvature="0"
           style="fill:#af694e" />
        <path
           id="XMLID_160_"
           d="m 383.2,346.3 c -2.3,-3.3 -2.8,-7.7 -1.5,-11.4 0.3,-0.8 0.7,-1.7 0.5,-2.5 -0.1,-0.7 -0.6,-1.3 -1.1,-2 -2,-2.7 -2.9,-6.1 -2.6,-9.4 0.1,-0.8 0.2,-1.7 0,-2.5 -0.5,-1.8 -2.4,-2.7 -3.9,-3.8 -2.9,-2 -5,-5.2 -5.6,-8.7 -1.4,3.8 0.2,7.9 3.3,10.3 1.7,1.4 4.1,2.3 4.8,4.4 0.4,1.2 0.2,2.5 0.2,3.7 0.1,3 1.8,5.6 2.2,8.6 0.2,1.8 -0.1,3.6 0,5.3 0.1,2.9 1.6,6 3.7,8 z"
           inkscape:connector-curvature="0"
           style="fill:#af694e" />
        <path
           id="XMLID_30_"
           d="m 589.1,444.5 c -2.7,-0.5 -5.3,-1.8 -7.2,-3.8 -1,-1 -1.8,-2.2 -2.6,-3.3 -3,-4.3 -5.9,-8.5 -8.9,-12.8 -2.5,-3.5 -4.9,-7.1 -6.4,-11.2 -0.2,-0.6 -0.5,-1.2 -1,-1.5 -1,-0.5 -2,0.7 -2.4,1.7 -1.6,4.2 0.2,8.9 2,13 1.9,4.1 3.9,8.6 2.8,13 -5.3,3 -12.4,4.4 -18.2,2.5 -1.3,-0.4 -2.9,-0.9 -3.9,0 -0.4,0.4 -0.6,1 -0.7,1.5 -0.6,3.5 3,6.5 3.4,10 0.2,1.5 -0.2,3.1 0.1,4.6 0.5,3 3.3,5 4.3,7.9 0.7,2 0.5,4.3 1.5,6.2 1.4,2.7 4.6,3.7 7.6,4.3 11.1,2.2 22.7,2.1 33.8,-0.5 z"
           inkscape:connector-curvature="0"
           style="fill:#f4c39f" />
        <path
           id="XMLID_29_"
           d="m 600,438.5 c -4.7,-0.2 -9.3,-0.3 -14,-0.5 0.4,14.3 0.3,29 -0.3,43.3 4.5,1 9.3,2.3 13.9,2.7 z"
           inkscape:connector-curvature="0"
           style="fill:#c44147" />
        <path
           id="XMLID_28_"
           d="m 617.3,286.5 c 9.5,4.4 17.2,11.3 22.2,20.5 5,9.2 8,19.4 11.3,29.3 5,15 10.9,29.7 17.7,43.9 8,16.7 17.3,33.2 20.8,51.5 3.5,18.2 -0.2,39.2 -14.5,51 -10.6,8.8 -25.1,11.2 -38.9,10.8 -13.7,-0.4 -27.1,-3.3 -40.5,-6.1 0,0 0.9,-35.2 0.7,-51.1 12.9,1.5 26.1,0.2 38.7,-3.1 5.7,-48 -0.2,-101.6 -17.5,-146.7 z"
           inkscape:connector-curvature="0"
           style="fill:#23add2" />
        <path
           id="XMLID_177_"
           d="m 634.7,433.2 c 3,-1.7 4,-2.7 6.9,-4.4 1.3,-0.7 2.6,-1.5 4,-1.9 1.4,-0.4 2.9,-0.4 4.4,-0.7 4.7,-1 8.2,-5.3 9.6,-9.9 1.5,-4.6 1.3,-9.5 1,-14.3 -0.1,-1.2 -0.1,-2.4 -0.8,-3.3 -0.6,-1 -2.1,-1.5 -3,-0.8 -0.2,7.1 -0.6,15 -5.7,20.1 -2.5,2.6 -5.9,4.1 -9,5.9 -3.7,2.3 -4.5,5.9 -7.4,9.3 z"
           inkscape:connector-curvature="0"
           style="fill:#0b8cb6" />
      </g>
    </g>
  </g>
</svg>
