<?xml version="1.0" encoding="UTF-8" standalone="no"?>
<svg
   xmlns:dc="http://purl.org/dc/elements/1.1/"
   xmlns:cc="http://creativecommons.org/ns#"
   xmlns:rdf="http://www.w3.org/1999/02/22-rdf-syntax-ns#"
   xmlns:svg="http://www.w3.org/2000/svg"
   xmlns="http://www.w3.org/2000/svg"
   xmlns:xlink="http://www.w3.org/1999/xlink"
   xmlns:sodipodi="http://sodipodi.sourceforge.net/DTD/sodipodi-0.dtd"
   xmlns:inkscape="http://www.inkscape.org/namespaces/inkscape"
   id="master-artboard"
   viewBox="0 0 82.102148 128"
   version="1.1"
   x="0px"
   y="0px"
   width="82.10215"
   height="128"
   enable-background="new 0 0 841.9 595.3"
   sodipodi:docname="teacher-male.svg"
   inkscape:version="0.92.3 (2405546, 2018-03-11)">
  <metadata
     id="metadata234">
    <rdf:RDF>
      <cc:Work
         rdf:about="">
        <dc:format>image/svg+xml</dc:format>
        <dc:type
           rdf:resource="http://purl.org/dc/dcmitype/StillImage" />
        <dc:title></dc:title>
      </cc:Work>
    </rdf:RDF>
  </metadata>
  <sodipodi:namedview
     pagecolor="#ffffff"
     bordercolor="#666666"
     borderopacity="1"
     objecttolerance="10"
     gridtolerance="10"
     guidetolerance="10"
     inkscape:pageopacity="0"
     inkscape:pageshadow="2"
     inkscape:window-width="1366"
     inkscape:window-height="705"
     id="namedview232"
     showgrid="false"
     fit-margin-top="0"
     fit-margin-left="0"
     fit-margin-right="0"
     fit-margin-bottom="0"
     inkscape:zoom="0.34089558"
     inkscape:cx="65.564961"
     inkscape:cy="317.85001"
     inkscape:window-x="-8"
     inkscape:window-y="-8"
     inkscape:window-maximized="1"
     inkscape:current-layer="master-artboard" />
  <defs
     id="defs3">
    <path
       d="M 0,0 H 841.90002 V 595.29999 H 0 Z"
       id="XMLID_400_"
       inkscape:connector-curvature="0" />
  </defs>
  <clipPath
     id="XMLID_232_">
    <use
       overflow="visible"
       xlink:href="#XMLID_400_"
       id="use5"
       style="overflow:visible"
       x="0"
       y="0"
       width="100%"
       height="100%" />
  </clipPath>
  <g
     id="g1103"
     transform="matrix(0.24497432,0,0,0.24497432,-87.060211,-22.781695)">
    <path
       d="m 369,294.5 c 4.5,0.4 9.3,2.8 13.2,4.8 1.7,0.9 3.2,-1.7 1.5,-2.6 -4.5,-2.2 -9.7,-4.8 -14.8,-5.2 -1.8,-0.2 -1.8,2.8 0.1,3 z"
       id="XMLID_834_"
       inkscape:connector-curvature="0"
       style="fill:#44a09f" />
    <path
       d="m 381.2,287.7 c -4.3,2.6 -6.8,7 -7.7,11.9 -0.3,1.9 2.6,2.7 2.9,0.8 0.7,-4.1 2.6,-7.9 6.3,-10.1 1.7,-1 0.2,-3.6 -1.5,-2.6 z"
       id="XMLID_841_"
       inkscape:connector-curvature="0"
       style="fill:#44a09f" />
    <path
       d="m 669.2,491.4 c 1.1,-0.7 2.3,-1.5 3.3,-2.4 14.1,-11.3 17.4,-31.3 13.6,-48.6 -3.8,-17.4 -13.4,-33.1 -21.7,-49 -7,-13.6 -13.2,-27.6 -18.5,-41.8 -3.5,-9.5 -6.6,-19.2 -11.8,-28 -5.2,-8.8 -13,-15.3 -22.5,-19.5 0,0 0,0 0,0 -4,-2.2 -8.4,-3.7 -12.7,-5.1 -6,-1.9 -12.2,-3.6 -18.5,-5.1 -0.1,-3.2 -0.3,-8.3 0,-12.8 0,-0.4 0,-0.7 0.1,-1.1 0,-0.1 0,-0.2 0,-0.2 0,-0.3 0.1,-0.6 0.1,-0.9 0,-0.1 0,-0.1 0,-0.2 0,0 0,0 0,-0.1 1.2,-0.4 2.3,-0.8 3.4,-1.3 v 0 c 0,0 0,0 0,0 1,-0.4 2,-0.9 3,-1.4 0,0 0.1,0 0.1,0 0.9,-0.5 1.9,-1 2.8,-1.5 0.1,0 0.1,-0.1 0.2,-0.1 0.9,-0.5 1.8,-1.1 2.7,-1.7 0.1,0 0.1,-0.1 0.2,-0.1 0.9,-0.6 1.7,-1.2 2.6,-1.9 0.4,-0.3 0.8,-0.7 1.3,-1.1 0.1,-0.1 0.1,-0.1 0.2,-0.2 0.4,-0.4 0.8,-0.7 1.1,-1.1 0,0 0,0 0,0 v 0 c 5.4,-5.8 8,-14.3 9.9,-22.9 0.4,0 0.8,-0.1 1.1,-0.2 15,-5.5 24.3,-20.8 25.3,-36.2 0.2,-2.5 0.1,-5.1 -0.9,-7.4 -0.8,-1.9 -2.4,-3.7 -4.4,-4.4 0,-1.1 -0.2,-2.3 -0.5,-3.4 -0.6,-2.4 -1.9,-4.6 -2.5,-7 -1.3,-4.9 0,-10.1 -1.5,-14.9 -2.2,-6.9 -9.4,-11 -16.4,-13.8 -6.9,-2.8 -14.5,-5.2 -19.3,-10.7 -3.1,-3.6 -4.7,-8 -7.4,-11.9 -6.5,-9.5 -18.6,-14.4 -30.4,-15.5 -11.2,-1.1 -22.5,0.8 -32.6,5.2 -3.5,1.6 -7,3.5 -9.4,6.5 -2.4,2.9 -3.6,7 -2.3,10.5 0.8,2.2 2.6,4 3.8,6.1 1.2,2.1 1.9,4.8 0.4,6.7 -1.2,1.6 -3.5,2.2 -5.2,3.4 -3.1,2.4 -3.1,7.5 0,10 0.9,0.7 2,1.3 2.2,2.3 0.2,0.9 -0.3,1.8 -1,2.6 -2,2.3 -4.7,3.9 -6.8,6.1 -2.1,2.2 -3.5,5.5 -1.9,8.2 1.1,1.9 3.4,3 4.7,4.8 2,2.9 0.7,6.7 0.5,10.1 -0.2,3.6 1,7.1 2.8,10.4 -0.2,0 -0.5,0.1 -0.7,0.2 -0.8,0.4 -1.3,1.2 -1.5,2 -1.1,3.4 0.5,7.2 2.2,10.7 4.4,8.7 9.9,17.4 18.2,22.7 2.5,5.5 5.5,10.7 8.9,15.3 v 0 0 c 1.4,1.8 2.8,3.5 4.3,5.1 0,0 0.1,0.1 0.1,0.1 0.7,0.7 1.4,1.4 2.1,2 0.1,0.1 0.2,0.2 0.3,0.3 0.8,0.7 1.6,1.4 2.5,2.1 0.6,0.5 1.2,0.9 1.8,1.3 0,0 0.1,0.1 0.1,0.1 0.6,0.4 1.2,0.8 1.7,1.1 0,0 0,0 0,0 v 0 c 3.4,2 7,3.5 10.8,4.3 0.2,0.7 0.3,1.4 0.4,2.1 0.1,0.5 0.1,1 0.2,1.5 0,0.3 0.1,0.6 0.1,0.9 0.1,0.6 0.1,1.2 0.1,1.8 0,0.1 0,0.1 0,0.2 0.1,1.4 0.1,2.8 0,4.1 v 0 c -0.1,1.2 -0.2,2.4 -0.3,3.6 -0.3,0.2 -0.6,0.4 -0.9,0.6 -0.1,0 -0.1,0.1 -0.2,0.1 -0.7,0.4 -1.4,0.8 -2.1,1.2 -0.2,0.1 -0.5,0.3 -0.7,0.4 -0.5,0.3 -1,0.5 -1.5,0.8 -0.3,0.1 -0.5,0.3 -0.8,0.4 -0.6,0.3 -1.1,0.6 -1.7,0.9 -0.2,0.1 -0.3,0.2 -0.5,0.3 v 0 c -8.2,4.1 -17,7.4 -24.4,12.7 -15.9,11.5 -23.1,30.6 -30,48.5 -6.9,17.9 -15.5,36.8 -32.6,46.5 -18.5,-15.3 -37.7,-29.7 -53.1,-47.9 -1.1,0.9 -2.3,1.8 -3.5,2.7 -1.8,-2.1 -3.7,-4.3 -5.5,-6.4 -1.6,1.3 -3.1,2.6 -4.8,3.9 -3,-4 -4.7,-8.7 -5,-13.5 -0.1,-2 0.1,-4 -0.3,-5.9 -0.5,-2.9 -1.9,-5.5 -3.3,-8 -0.6,-1.2 -1.3,-2.3 -2.3,-3.2 -1,-0.8 -2.2,-1.4 -3.4,-1.8 -1.3,-0.5 -2.6,-1 -3.9,-1.6 -0.2,-0.5 -0.4,-1 -0.8,-1.6 -2.6,-4.9 -5.3,-9.9 -7.4,-14.9 -2,-4.4 -3.9,-8.8 -4.8,-13.5 -0.3,-1.5 -1.1,-3.6 -2.7,-3.3 -0.7,0.1 -1.1,0.7 -1.5,1.3 -2.6,4.3 -0.8,9.7 1.1,14.4 1.7,4.4 3.5,8.8 5.2,13.3 -0.6,-0.3 -1.3,-0.5 -2,-0.3 -1,0.2 -1.4,1.2 -1.3,2.2 -2.4,0 -5,1.8 -5.7,3.8 -0.4,1.2 -0.3,2.4 0,3.6 0,0 0,0 0,0 -2.8,0.7 -1.9,6.3 -1.2,8 0.3,0.6 0.6,1.1 0.9,1.7 -1.1,1.1 -1.2,3.4 -0.8,5.3 0.5,2.2 2.1,4 3.7,5.6 0.1,0.1 0.3,0.3 0.4,0.4 2.1,4.9 6.8,8.9 12.2,10.4 1.8,0.5 3.7,0.8 5.5,0.9 0.2,0.3 0.4,0.6 0.6,1 1.2,1.8 2.3,3.6 3.5,5.4 -1.7,1.1 -3.5,2.1 -5.3,3.1 0.6,2.1 1.5,4 2.7,5.9 -0.7,0.3 -1.5,0.7 -2.2,1 11.5,27.4 30.2,54.4 58.1,67.4 5,2.3 10.4,4.2 15.9,4.4 14.3,0.5 26.2,-9.7 35.3,-20.1 10.6,-12.2 19.7,-25.7 26.9,-40 -1.3,10.6 -2.7,21.2 -4,31.7 -1.2,9.1 2.2,18.1 8.8,24.4 0.3,7.9 0.6,15.8 0.9,23.7 -5.8,13.9 -5.1,29 -3.7,44 3,32.3 8.3,64.6 6.7,96.9 l 56.5,-0.2 c -0.1,2.2 -0.4,4.3 -0.9,6.4 h 23.4 c -0.5,-2.2 -1,-4.3 -1.5,-6.5 l 76.9,-0.2 c 2.9,-30.6 -0.9,-61.4 -4.6,-92 -0.8,-8.3 -1.8,-16.7 -2.8,-25.2 z"
       id="XMLID_556_"
       inkscape:connector-curvature="0"
       style="opacity:0.3;fill:#111227" />
    <path
       d="m 522.5,608.9 c 2.2,-33.9 -2.6,-67.8 -5,-101.8 -1.1,-15.7 -1.5,-31.6 4.5,-46.2 l 9.4,-7.5 c 42.1,0 83.1,-4.7 125.1,-1.9 2.4,0.2 5.1,0.5 6.7,2.3 1.3,1.5 2.1,4.2 4.1,4.2 1.7,0 1.6,2.4 1.7,4.2 1.6,16.5 3.3,33 4.9,49.5 3.2,32.1 6.3,64.5 2.9,96.6 z"
       id="XMLID_7_"
       inkscape:connector-curvature="0"
       style="fill:#131c2d" />
    <path
       d="m 578,615.5 c 3.2,-12.1 -1.3,-24.7 -2,-37.1 -0.8,-13.9 3.2,-27.7 9.1,-40.4 5.2,26.2 11.2,51.4 16.4,77.5 z"
       id="XMLID_6_"
       inkscape:connector-curvature="0"
       style="fill:#070b11" />
    <path
       d="m 640.7,462.9 c 0.1,1.8 -1.9,2.8 -3.6,3.4 -37.1,13.3 -79.1,11 -115,-5.3 -0.2,-11.8 -0.4,-23.7 -0.6,-35.5 36.4,14.2 78.2,13.6 115.1,0.9 1,11.9 3.8,24.6 4.1,36.5 z"
       id="XMLID_5_"
       inkscape:connector-curvature="0"
       style="fill:#ffffff" />
    <path
       d="m 374.8,291.3 c -1.9,-4.6 -3.8,-9.2 -4.6,-14.2 -0.3,-1.6 -1.1,-3.8 -2.7,-3.5 -0.7,0.1 -1.2,0.7 -1.5,1.3 -2.6,4.5 -0.9,10.2 0.8,15.1 1.9,5.2 3.7,10.4 5.6,15.6 0.3,0.9 0.7,1.9 1.4,2.6 0.5,0.5 1.2,0.8 1.9,1.2 4.9,2.3 9.7,4.7 6.2,-2.5 -2.4,-5 -5,-10.3 -7.1,-15.6 z"
       id="XMLID_39_"
       inkscape:connector-curvature="0"
       style="fill:#f4c39f" />
    <path
       d="m 368.4,294.4 c 1.3,3.8 2.7,7.5 4,11.3 0.3,0.9 0.7,1.9 1.4,2.6 0.5,0.5 1.2,0.8 1.9,1.2 4.9,2.3 9.7,4.7 6.2,-2.5 0,0 0,0 0,-0.1 -5.5,-2.5 -10,-7.1 -13.5,-12.5 z"
       id="XMLID_168_"
       inkscape:connector-curvature="0"
       style="fill:#af694e" />
    <path
       d="m 384.3,347.8 c -2.3,0.1 -4.7,-0.3 -6.9,-1 -6.9,-2.1 -12.6,-8.3 -13,-15.5 -0.3,-6.5 0.3,-12.4 3,-18.3 0.9,-1.9 2.2,-4 4.3,-4.4 2.4,-0.4 4.5,1.6 6.1,3.4 3.5,4 7.2,8.2 8.3,13.5 0.8,3.7 0.2,7.5 -0.5,11.2 -0.5,3.1 -0.7,8 -1.3,11.1 z"
       id="XMLID_43_"
       inkscape:connector-curvature="0"
       style="fill:#f4c39f" />
    <path
       d="m 362.9,310.1 c -1,3 0.7,6.2 2.5,8.8 2.1,2.8 4.6,5.4 7.7,7 0.8,0.4 1.9,0.8 2.7,0.3 0.6,-0.3 1,-0.8 1.1,-1.4 0.6,-1.9 -0.7,-3.9 -2.1,-5.4 -1.3,-1.5 -2.9,-3.1 -3,-5.2 -0.1,-2.7 1.8,-6 -1.5,-7.7 -2.6,-1.4 -6.6,1 -7.4,3.6 z"
       id="XMLID_40_"
       inkscape:connector-curvature="0"
       style="fill:#f4c39f" />
    <path
       d="m 361.4,322.3 c 1,2.5 2.9,4.6 5,6.3 1.1,0.9 2.3,1.8 3.7,2.2 1.4,0.4 3,0.2 4.1,-0.8 1.5,-1.5 1.2,-4.1 0,-5.9 -1.2,-1.8 -3.1,-2.9 -4.8,-4.2 -1.5,-1.2 -4.7,-6.5 -6.7,-6 -2.7,0.8 -2,6.7 -1.3,8.4 z"
       id="XMLID_41_"
       inkscape:connector-curvature="0"
       style="fill:#f4c39f" />
    <path
       d="m 361.4,329.6 c 0.4,2.3 2,4.2 3.6,5.8 1.1,1.2 2.4,2.4 4,2.8 1.6,0.4 3.6,-0.1 4.3,-1.6 0.8,-1.7 -0.3,-3.6 -1.3,-5.1 -1.5,-2.2 -4,-6.9 -6.6,-8 -3.7,-1.3 -4.6,2.9 -4,6.1 z"
       id="XMLID_42_"
       inkscape:connector-curvature="0"
       style="fill:#f4c39f" />
    <path
       d="m 402.4,347.3 c -4.2,-4.6 -6.7,-10.7 -6.8,-16.9 -0.1,-2.1 0.1,-4.2 -0.2,-6.2 -0.4,-3 -1.8,-5.8 -3.2,-8.4 -0.6,-1.2 -1.3,-2.5 -2.3,-3.4 -1,-0.9 -2.2,-1.4 -3.4,-1.9 -4.9,-2.1 -9.7,-4.2 -14.6,-6.2 -0.7,-0.3 -1.4,-0.6 -2.1,-0.4 -1.8,0.4 -1.6,3.1 -0.7,4.8 2.1,4 5.4,7.4 9.3,9.7 1,2.6 -0.7,5.9 0.1,8.6 0.8,2.6 3.6,4 4.7,6.5 -2.8,1 -3.4,4.3 -3.1,7.3 0.3,3 1.8,5.6 3.4,8.2 1.7,2.9 3.5,5.8 5.2,8.7 4.3,-3.8 8.9,-7.7 13.7,-10.4 z"
       id="XMLID_38_"
       inkscape:connector-curvature="0"
       style="fill:#f4c39f" />
    <path
       d="m 386.3,367 c -2.1,-2.8 -3.7,-6 -4.7,-9.4 8.4,-4.7 16.3,-10.9 23.5,-17.2 3.4,4.2 6.7,8.2 9.8,12.6 z"
       id="XMLID_35_"
       inkscape:connector-curvature="0"
       style="fill:#c44147" />
    <path
       d="m 641.1,369.5 c -2.2,-11.8 -4.3,-23.7 -5.4,-35.7 -1.3,-15.4 -1.5,-32.8 -12.9,-43.3 -5,-4.6 -11.7,-7.2 -18.2,-9.3 -11.3,-3.7 -23.7,-6.9 -35.4,-9 -11.1,10.1 -26.6,13.7 -38.6,22.6 -16.1,12.1 -23.6,32.1 -30.9,50.9 -7.3,18.8 -16.1,38.6 -33.5,48.8 -18.2,-16 -37.1,-31.2 -52.2,-50.3 -9.4,7.8 -20.9,15.6 -32.2,20.5 11,28.7 29.2,57.1 56.9,70.7 5,2.5 10.3,4.4 15.9,4.6 14.3,0.6 26.4,-10.1 35.6,-21.1 10.8,-12.8 20.1,-27 27.6,-42 -1.5,11.2 -3,22.3 -4.6,33.3 -1.9,13.3 5.1,26.4 17.3,32 21.8,10.1 51.8,7.8 74.3,6.5 17.4,-0.9 33.7,-6.3 48.6,-14.4 -2,-9.1 -3.9,-18.1 -5.5,-26.9 -2.1,-12.5 -4.4,-25.2 -6.8,-37.9 z"
       id="XMLID_10_"
       inkscape:connector-curvature="0"
       style="fill:#f8aa14" />
    <path
       d="m 561.7,406.1 c 6.3,-32 9.3,-64.5 9.4,-97.1 -2.2,-3.4 -4.4,-6.7 -6.8,-9.9 2.4,-3.5 5,-7 8.6,-9.2 1.2,-0.8 2.7,-1.5 4.1,-1.2 3.3,3.1 6.4,6.3 8.2,10.4 -2.7,3.7 -4.7,6.7 -7.1,10.6 2.9,30.3 7.3,59.8 12.4,89.9 z"
       id="XMLID_9_"
       inkscape:connector-curvature="0"
       style="fill:#001753" />
    <path
       d="m 572.6,295.4 28,17.6 -2.4,-33.8 c -9.5,-2.8 -19.5,-5.3 -29,-7 -4.2,3.8 -9,6.7 -14,9.3 l -3.4,31.5 z"
       id="XMLID_152_"
       inkscape:connector-curvature="0"
       style="fill:#f8730a" />
    <path
       d="m 634.7,433.2 c 3.4,-32.8 7,-68.4 -4.9,-99.2 -1.2,9.4 -2.9,18.7 -5,27.9 -0.7,2.9 -1.4,5.9 -3.1,8.3 -1.9,2.7 -4.9,4.5 -7.7,6.2 -7.8,4.6 -15.5,9.2 -23.3,13.7 -1,0.6 -1.9,1.2 -2.6,2 -1.4,1.7 -1.4,4.2 -0.8,6.4 1.8,6.2 7.6,10.3 13,13.8 8.5,5.6 25.8,15.2 34.4,20.9 z"
       id="XMLID_37_"
       inkscape:connector-curvature="0"
       style="fill:#f8730a" />
    <path
       d="m 561.7,255 c 2.8,8 3.4,16.7 1.5,25 2.5,4.3 8.4,14.9 9.5,15.4 5.1,-5.2 9.8,-10.6 13.7,-16.7 -0.1,-2.7 -0.6,-19.5 1.7,-24.3 z"
       id="XMLID_26_"
       inkscape:connector-curvature="0"
       style="fill:#f4c39f" />
    <path
       d="m 561.7,255 c 2,5.7 2.8,11.7 2.5,17.7 8.1,-2.1 15.8,-5.2 22.3,-10.3 0.3,-3.4 0.7,-6.4 1.5,-8.1 z"
       id="XMLID_145_"
       inkscape:connector-curvature="0"
       style="fill:#e0a286" />
    <path
       transform="matrix(0.99559999,-0.09368339,0.09368339,0.99559999,-39.062401,57.939899)"
       id="XMLID_34_"
       d="m 557.29999,385.5 h 80.5 v 119 h -80.5 z"
       inkscape:connector-curvature="0"
       style="fill:#9f2a32" />
    <path
       transform="matrix(0.98800004,-0.15440001,0.15440001,0.98800004,-62.335999,96.917397)"
       id="XMLID_31_"
       d="m 552.59998,390.29999 h 80.5 v 119 h -80.5 z"
       inkscape:connector-curvature="0"
       style="fill:#8d7494" />
    <path
       transform="matrix(0.98800004,-0.15440001,0.15440001,0.98800004,-57.528599,95.779099)"
       id="XMLID_32_"
       d="m 564.59998,406.70001 h 46.7 v 23.1 h -46.7 z"
       inkscape:connector-curvature="0"
       style="fill:#ffffff" />
    <path
       d="m 495.9,394.4 c -4.9,8.2 -9.9,16.6 -16.8,23.2 -7,6.6 -16.2,11.3 -25.8,10.7 -16.3,-1.1 -27.5,-16.4 -36.2,-30.2 -8.2,-12.9 -16.3,-25.8 -24.5,-38.6 -3.5,2 -7.1,3.9 -10.6,5.4 11,28.7 29.2,57.1 56.9,70.7 5,2.5 10.3,4.4 15.9,4.6 14.3,0.6 26.4,-10.1 35.6,-21.1 10.8,-12.8 20.1,-27 27.6,-42 l 9.9,-36.4 c -10.7,18 -21.4,35.8 -32,53.7 z"
       id="XMLID_222_"
       inkscape:connector-curvature="0"
       style="fill:#f8730a" />
    <path
       d="m 490,394.2 c 0.5,-0.5 1.1,-1 1.1,-1.7 0.2,-1.2 -1,-2.1 -2.2,-2.2 -1.2,-0.1 -2.3,0.5 -3.3,0.9 -6.3,2.8 -12.3,1.7 -18.6,3 5.9,6 17,5.2 23,0 z"
       id="XMLID_212_"
       inkscape:connector-curvature="0"
       style="fill:#f8730a" />
    <path
       d="m 376.5,322.3 c -1.1,1.4 -3.2,1.5 -4.8,0.8 -1.6,-0.7 -2.8,-2.1 -3.9,-3.5 -1.5,-1.8 -2.9,-3.5 -4.4,-5.3 1.7,1.3 3.6,2.4 5.3,3.9 1.6,1.4 3.5,3 5.7,2.9 1.5,-0.1 3,-1.1 3.6,-2.5 -0.1,1.4 -0.6,2.5 -1.5,3.7 z"
       id="XMLID_224_"
       inkscape:connector-curvature="0"
       style="fill:#af694e" />
    <path
       d="m 374.1,326.6 c 0.5,1.1 0,2.5 -1,3.2 -1,0.7 -2.3,0.7 -3.5,0.4 -1.2,-0.3 -2.1,-1.1 -3.1,-1.9 -1.5,-1.3 -2.9,-2.7 -4,-4.3 1.7,1.1 3.2,2 4.8,3.3 0.7,0.6 1.4,1.2 2.3,1.5 1.8,0.4 4.6,-0.3 4.5,-2.2 z"
       id="XMLID_248_"
       inkscape:connector-curvature="0"
       style="fill:#af694e" />
    <path
       d="m 373,331.8 c 0.5,1 0.9,2.1 0.9,3.2 0,1.1 -0.6,2.3 -1.6,2.8 -0.9,0.5 -2,0.4 -3,0 -1,-0.4 -1.8,-1 -2.6,-1.7 1.3,0.4 2.2,0.1 3.6,0.1 0.4,0 0.8,0 1.2,-0.1 0.7,-0.3 1.2,-1 1.4,-1.8 0.2,-0.8 0.2,-1.7 0.1,-2.5 z"
       id="XMLID_258_"
       inkscape:connector-curvature="0"
       style="fill:#af694e" />
    <path
       d="m 383.2,346.3 c -2.3,-3.3 -2.8,-7.7 -1.5,-11.4 0.3,-0.8 0.7,-1.7 0.5,-2.5 -0.1,-0.7 -0.6,-1.3 -1.1,-2 -2,-2.7 -2.9,-6.1 -2.6,-9.4 0.1,-0.8 0.2,-1.7 0,-2.5 -0.5,-1.8 -2.4,-2.7 -3.9,-3.8 -2.9,-2 -5,-5.2 -5.6,-8.7 -1.4,3.8 0.2,7.9 3.3,10.3 1.7,1.4 4.1,2.3 4.8,4.4 0.4,1.2 0.2,2.5 0.2,3.7 0.1,3 1.8,5.6 2.2,8.6 0.2,1.8 -0.1,3.6 0,5.3 0.1,2.9 1.6,6 3.7,8 z"
       id="XMLID_160_"
       inkscape:connector-curvature="0"
       style="fill:#af694e" />
    <path
       d="m 589.1,444.5 c -2.7,-0.5 -5.3,-1.8 -7.2,-3.8 -1,-1 -1.8,-2.2 -2.6,-3.3 -3,-4.3 -5.9,-8.5 -8.9,-12.8 -2.5,-3.5 -4.9,-7.1 -6.4,-11.2 -0.2,-0.6 -0.5,-1.2 -1,-1.5 -1,-0.5 -2,0.7 -2.4,1.7 -1.6,4.2 0.2,8.9 2,13 1.9,4.1 3.9,8.6 2.8,13 -5.3,3 -12.4,4.4 -18.2,2.5 -1.3,-0.4 -2.9,-0.9 -3.9,0 -0.4,0.4 -0.6,1 -0.7,1.5 -0.6,3.5 3,6.5 3.4,10 0.2,1.5 -0.2,3.1 0.1,4.6 0.5,3 3.3,5 4.3,7.9 0.7,2 0.5,4.3 1.5,6.2 1.4,2.7 4.6,3.7 7.6,4.3 11.1,2.2 22.7,2.1 33.8,-0.5 z"
       id="XMLID_30_"
       inkscape:connector-curvature="0"
       style="fill:#f4c39f" />
    <path
       d="m 600,438.5 c -4.7,-0.2 -9.3,-0.3 -14,-0.5 0.4,14.3 0.3,29 -0.3,43.3 4.5,1 9.3,2.3 13.9,2.7 z"
       id="XMLID_29_"
       inkscape:connector-curvature="0"
       style="fill:#c44147" />
    <path
       d="m 617.3,286.5 c 9.5,4.4 17.2,11.3 22.2,20.5 5,9.2 8,19.4 11.3,29.3 5,15 10.9,29.7 17.7,43.9 8,16.7 17.3,33.2 20.8,51.5 3.5,18.2 -0.2,39.2 -14.5,51 -10.6,8.8 -25.1,11.2 -38.9,10.8 -13.7,-0.4 -27.1,-3.3 -40.5,-6.1 0,0 0.9,-35.2 0.7,-51.1 12.9,1.5 26.1,0.2 38.7,-3.1 5.7,-48 -0.2,-101.6 -17.5,-146.7 z"
       id="XMLID_28_"
       inkscape:connector-curvature="0"
       style="fill:#f8aa14" />
    <path
       d="m 634.7,433.2 c 3,-1.7 4,-2.7 6.9,-4.4 1.3,-0.7 2.6,-1.5 4,-1.9 1.4,-0.4 2.9,-0.4 4.4,-0.7 4.7,-1 8.2,-5.3 9.6,-9.9 1.5,-4.6 1.3,-9.5 1,-14.3 -0.1,-1.2 -0.1,-2.4 -0.8,-3.3 -0.6,-1 -2.1,-1.5 -3,-0.8 -0.2,7.1 -0.6,15 -5.7,20.1 -2.5,2.6 -5.9,4.1 -9,5.9 -3.7,2.3 -4.5,5.9 -7.4,9.3 z"
       id="XMLID_177_"
       inkscape:connector-curvature="0"
       style="fill:#f8730a" />
    <path
       d="m 528.9,214.2 c -2.2,-6.2 -6.7,-11.2 -10.6,-16.4 -3.9,-5.2 -7.5,-11.4 -7,-17.9 0.2,-3.6 1.6,-7.5 -0.3,-10.6 -1.2,-1.9 -3.5,-3 -4.6,-5.1 -1.5,-2.8 0,-6.3 2.1,-8.6 2.1,-2.3 4.9,-4 6.9,-6.4 0.6,-0.8 1.2,-1.7 1,-2.7 -0.2,-1.1 -1.3,-1.7 -2.2,-2.4 -3.1,-2.6 -2.9,-8 0.2,-10.5 1.7,-1.3 4,-1.9 5.2,-3.6 1.4,-2 0.9,-4.9 -0.3,-7 -1.2,-2.2 -2.9,-4.1 -3.7,-6.4 -1.3,-3.7 0,-8 2.4,-11 2.5,-3.1 6,-5.1 9.5,-6.8 10.1,-4.7 21.6,-6.6 32.7,-5.5 11.8,1.2 23.8,6.3 30.1,16.3 2.6,4.1 4.1,8.8 7.1,12.5 4.7,5.8 12.3,8.3 19.1,11.2 6.8,2.9 14.1,7.3 16.1,14.5 1.4,5 0,10.5 1.2,15.6 0.6,2.5 1.8,4.8 2.4,7.4 1.1,4.7 -0.1,9.5 -1.7,14 -5.8,16.5 -17.3,31 -32,40.5 z"
       id="XMLID_23_"
       inkscape:connector-curvature="0"
       style="fill:#c35348" />
    <path
       d="m 523.1,195.1 c -1.9,-1.8 -4.1,-3.2 -6.5,-4 -1.1,-0.4 -2.4,-0.6 -3.5,-0.1 -0.8,0.4 -1.3,1.3 -1.6,2.1 -1.2,3.6 0.4,7.6 2,11.2 4.3,9.4 9.9,18.8 18.5,24.3 0.2,0.1 0.4,0.2 0.6,0.1 0.2,-0.1 0,-0.5 -0.2,-0.4 z"
       id="XMLID_12_"
       inkscape:connector-curvature="0"
       style="fill:#d18766" />
    <path
       d="m 517.5,197.8 c -1.1,-0.8 -2.4,-1.5 -3.5,-1 2.7,1.4 5,3.7 6.5,6.5 0.2,0.3 0.3,0.6 0.3,0.9 0.1,0.4 0,0.8 -0.1,1.2 -0.5,3.4 1.9,6.7 4.3,9.3 1.2,1.3 2.4,2.5 3.6,3.7 -2.6,-2.4 -2.4,-9.7 -3.8,-12.9 -1.4,-3 -4.7,-5.8 -7.3,-7.7 z"
       id="XMLID_13_"
       inkscape:connector-curvature="0"
       style="fill:#a5644a" />
    <path
       d="m 523.1,195.1 c -1.9,-1.8 -4.1,-3.2 -6.5,-4 -1.1,-0.4 -2.4,-0.6 -3.5,-0.1 -0.8,0.4 -1.3,1.3 -1.6,2.1 -1.2,3.6 0.4,7.6 2,11.2 4.3,9.4 9.9,18.8 18.5,24.3 0.2,0.1 0.4,0.2 0.6,0.1 0.2,-0.1 0,-0.5 -0.2,-0.4 z"
       id="XMLID_80_"
       inkscape:connector-curvature="0"
       style="fill:#d18766" />
    <path
       d="m 517.5,197.8 c -1.1,-0.8 -2.4,-1.5 -3.5,-1 2.7,1.4 5,3.7 6.5,6.5 0.2,0.3 0.3,0.6 0.3,0.9 0.1,0.4 0,0.8 -0.1,1.2 -0.5,3.4 1.9,6.7 4.3,9.3 1.2,1.3 2.4,2.5 3.6,3.7 -2.6,-2.4 -2.4,-9.7 -3.8,-12.9 -1.4,-3 -4.7,-5.8 -7.3,-7.7 z"
       id="XMLID_14_"
       inkscape:connector-curvature="0"
       style="fill:#a5644a" />
    <path
       d="m 521.8,147.3 c -0.4,2.2 -0.8,4.4 -1.1,6.6 -3.4,20.1 2.2,78.4 28.4,100.5 15.2,12.7 37.2,9.5 52.6,-3 11.2,-9.1 12.9,-28 16,-42 3.1,-14 7.9,-23.1 5.9,-37.4 -0.9,-6.4 -2.1,-12.7 -4,-18.8 -27.4,-22.4 -70.5,-30.1 -97.8,-5.9 z"
       id="XMLID_17_"
       inkscape:connector-curvature="0"
       style="fill:#f4c39f" />
    <path
       d="m 591.7,234.5 c -0.3,-2.2 -0.8,-4.5 -1.7,-6.4 -0.8,-1.8 -2.1,-3.6 -4,-4 -1.2,-0.2 -2.3,0.2 -3.5,0.5 -9.9,3.1 -20.4,4.3 -30.7,3.3 -1.2,-0.1 -2.4,-0.2 -3.5,0.3 -2.1,1.1 -1.7,4.3 -1.5,6.7 0,0.2 0.1,0.4 0.1,0.7 5.7,5.5 13.6,8.7 21.5,8.8 8.8,0.1 17.4,-3.6 23.3,-9.9 z"
       id="XMLID_45_"
       inkscape:connector-curvature="0"
       style="fill:#8e0a4c" />
    <path
       d="m 591.7,234.5 c -5.9,6.3 -14.6,10 -23.2,10 -7.9,-0.1 -15.8,-3.3 -21.5,-8.8 0.7,5.4 5.4,9.7 10.7,11.5 5.4,1.8 11.3,1.3 17,0.7 2,-0.2 4,-0.5 5.8,-1.1 4.5,-1.5 8,-4.8 11.4,-8 0,-1.5 0,-2.9 -0.2,-4.3 z"
       id="XMLID_83_"
       inkscape:connector-curvature="0"
       style="fill:#f8ffff" />
    <g
       id="XMLID_158_">
      <g
         id="XMLID_161_">
        <path
           d="m 596.5,221.7 c -3.4,-3.5 -8.6,-4.5 -13.4,-4.1 -4.8,0.4 -9.5,1.8 -14.3,2.7 -7.5,1.3 -15.2,1.1 -22.8,0.8 -3,-0.1 -6.5,0 -8.2,2.5 -1.2,1.9 -0.9,4.3 -0.4,6.6 0.9,4.7 1.8,9.4 2.7,14.1 2.7,3.9 5.7,7.3 9.1,10.1 1.2,1 2.4,1.8 3.6,2.6 -3.1,-7.4 -4.4,-15.5 -3.8,-23.5 0.1,-0.8 0.2,-1.6 0.8,-2.1 0.6,-0.4 1.3,-0.3 2,-0.2 9.9,1.6 20.2,0.5 29.5,-3 0.6,-0.2 1.3,-0.5 1.9,-0.3 0.5,0.2 0.8,0.6 1.1,1 2.9,3.9 4,8.8 4.8,13.6 0.8,5.2 1.1,10.5 1,15.8 4.1,-1.8 8,-4.2 11.5,-7.1 0.9,-0.8 1.8,-1.6 2.6,-2.5 -0.4,-6.3 -1.5,-12.6 -3.4,-18.7 -0.8,-2.8 -2.1,-6 -4.3,-8.3 z"
           id="XMLID_163_"
           inkscape:connector-curvature="0"
           style="fill:#c35348" />
      </g>
    </g>
    <path
       d="m 617.8,211.1 c 2.3,-9.8 6.9,-19.1 13.3,-27 2.5,-3.1 5.5,-6.6 4.9,-10.5 -0.4,-2.2 -1.9,-4.1 -2.9,-6.1 -3.2,-6.6 -0.8,-14.8 -3.5,-21.7 -2,-5.1 -6.5,-8.8 -11.5,-10.9 -4.7,-2.1 -10.5,-3.4 -15.6,-3.6 5.6,11.4 9.8,21.4 12,34.2 2.5,15.1 2.9,30.4 3.3,45.6 z"
       id="XMLID_24_"
       inkscape:connector-curvature="0"
       style="fill:#c35348" />
    <path
       d="m 548.7,195.6 c -2.2,0 -3.9,-1.8 -3.9,-3.9 0,-1.4 0.7,-2.6 1.8,-3.3 -0.6,-0.4 -1.2,-0.6 -1.8,-0.6 -2.6,0 -4.8,3.6 -4.8,8.1 0,4.5 2.1,8.1 4.8,8.1 2.7,0 4.8,-3.6 4.8,-8.1 0,-0.1 0,-0.2 0,-0.3 -0.4,0 -0.6,0 -0.9,0 z"
       id="XMLID_20_"
       inkscape:connector-curvature="0"
       style="fill:#262b55" />
    <path
       d="m 583.5,193.6 c -2.2,0 -3.9,-1.8 -3.9,-3.9 0,-1.4 0.7,-2.6 1.8,-3.3 -0.6,-0.4 -1.2,-0.6 -1.8,-0.6 -2.6,0 -4.8,3.6 -4.8,8.1 0,4.5 2.1,8.1 4.8,8.1 2.7,0 4.8,-3.6 4.8,-8.1 0,-0.1 0,-0.2 0,-0.3 -0.3,0 -0.6,0 -0.9,0 z"
       id="XMLID_18_"
       inkscape:connector-curvature="0"
       style="fill:#262b55" />
    <path
       d="m 557.3,195.7 c 0.2,6.5 -0.5,13 -2.1,19.3 -0.5,1.9 -0.9,4.1 0.3,5.7 0.9,1.1 2.3,1.5 3.7,1.6 1.9,0.2 3.9,-0.1 5.8,-0.7 0.5,-0.2 1,-0.4 1.4,-0.8 0.4,-0.5 0.6,-1.1 0.7,-1.8 1.2,-7.7 0.6,-15.8 -1.8,-23.2 -0.8,-2.4 -2,-7.1 -5,-7.8 -3.9,-0.8 -3,5.3 -3,7.7 z"
       id="XMLID_15_"
       inkscape:connector-curvature="0"
       style="fill:#f27c70" />
    <path
       d="m 547,162.5 c -5.4,-2.9 -12.3,-2.8 -17.6,0.3 -0.7,0.4 -1.5,0.9 -1.9,1.6 -0.6,1 -1.2,1.6 -1.1,2.7 0.2,1.1 0.9,2.2 2,2.5 1.3,0.3 2.6,-0.5 3.9,-1.1 2.6,-1.4 5.6,-2.1 8.6,-1.9 0.9,0 1.8,0.2 2.6,0.6 0.5,0.3 1,0.7 1.6,0.9 1.5,0.7 3.6,-0.2 4.1,-1.8 0.5,-1.6 -0.7,-3 -2.2,-3.8 z"
       id="XMLID_19_"
       inkscape:connector-curvature="0"
       style="fill:#c35348" />
    <path
       d="m 596.4,161.9 c -2.3,-2 -5.1,-3.4 -8.1,-4.1 -3.3,-0.8 -6.7,-0.6 -10.1,-0.4 -1.8,0.1 -3.6,0.2 -5.1,1.1 -1.6,0.8 -2.7,2.6 -2.3,4.3 0.2,0.8 0.7,1 1.5,1.1 0.8,0.2 1.6,-0.1 2.3,-0.3 5.5,-1.4 11.6,-0.6 16.5,2.3 1.4,0.8 3,1.8 4.6,1.4 0.9,-0.3 1.7,-1.1 1.9,-2 0.2,-0.9 -0.1,-2 -0.9,-2.6 0.1,-0.5 -0.4,-0.4 -0.3,-0.8 z"
       id="XMLID_21_"
       inkscape:connector-curvature="0"
       style="fill:#c35348" />
    <g
       id="XMLID_207_">
      <path
         d="m 542,210.8 c -8.6,0 -15.5,-7 -15.5,-15.5 0,-8.5 7,-15.5 15.5,-15.5 8.6,0 15.5,7 15.5,15.5 0,8.5 -6.9,15.5 -15.5,15.5 z m 0,-28.1 c -6.9,0 -12.5,5.6 -12.5,12.5 0,6.9 5.6,12.5 12.5,12.5 6.9,0 12.5,-5.6 12.5,-12.5 0,-6.9 -5.6,-12.5 -12.5,-12.5 z"
         id="XMLID_208_"
         inkscape:connector-curvature="0"
         style="fill:#f8ffff" />
    </g>
    <g
       id="XMLID_202_">
      <path
         d="m 582.2,210.8 c -9.4,0 -17,-7.6 -17,-17 0,-9.4 7.6,-17 17,-17 9.4,0 17,7.6 17,17 0,9.4 -7.7,17 -17,17 z m 0,-30.9 c -7.7,0 -14,6.3 -14,14 0,7.7 6.3,14 14,14 7.7,0 14,-6.3 14,-14 0,-7.7 -6.3,-14 -14,-14 z"
         id="XMLID_203_"
         inkscape:connector-curvature="0"
         style="fill:#f8ffff" />
    </g>
    <g
       id="XMLID_185_">
      <path
         transform="matrix(0.08008162,0.9968,-0.9968,0.08008162,709.1851,-381.605)"
         id="XMLID_186_"
         d="m 559.79999,188 h 3 v 10.7 h -3 z"
         inkscape:connector-curvature="0"
         style="fill:#f8ffff" />
    </g>
    <g
       id="XMLID_182_">
      <path
         transform="matrix(0.1947,0.9809,-0.9809,0.1947,674.9767,-452.9427)"
         id="XMLID_183_"
         d="m 611.79999,167.39999 h 3 v 34.4 h -3 z"
         inkscape:connector-curvature="0"
         style="fill:#f8ffff" />
    </g>
    <g
       id="XMLID_179_">
      <path
         transform="matrix(0.9414,0.3374,-0.3374,0.9414,95.9308,-165.086)"
         id="XMLID_180_"
         d="m 517.5,191.89999 h 10.8 v 3 h -10.8 z"
         inkscape:connector-curvature="0"
         style="fill:#f8ffff" />
    </g>
    <path
       d="m 612.6,223.6 c -0.3,1.3 1.9,1.6 3.1,1.1 15.1,-5.8 24.7,-21.9 26,-38 0.2,-2.6 0.2,-5.3 -0.7,-7.8 -0.9,-2.4 -3,-4.6 -5.6,-5 -2.2,-0.3 -4.4,0.6 -6.3,1.6 -7.5,4.1 -13.4,10.9 -16.6,18.8 -3.6,8.9 2,19.9 0.1,29.3 z"
       id="XMLID_4_"
       inkscape:connector-curvature="0"
       style="fill:#f4c39f" />
    <path
       d="m 630.7,186.5 c 0.9,-0.4 1.9,-0.8 2.9,-0.6 1.2,0.3 2,1.4 2.3,2.6 0.3,1.2 0.1,2.4 0,3.7 -0.2,-0.9 -0.6,-1.9 -1.2,-2.6 -0.6,-0.7 -1.7,-1.1 -2.6,-0.9 -0.6,0.2 -1.1,0.6 -1.5,1 -1.4,1.4 -2.6,3 -3.5,4.7 2,2.1 2.4,5.4 1.4,8.1 -1,2.7 -3.1,4.9 -5.6,6.3 -2.5,1.5 -5.2,2.4 -8,3.2 0,0 0.9,-6.7 1.1,-7.3 0.8,-2.7 2,-5.3 3.6,-7.6 2.8,-4 6.7,-8.4 11.1,-10.6 z"
       id="XMLID_11_"
       inkscape:connector-curvature="0"
       style="fill:#d18766" />
  </g>
</svg>
