<?xml version="1.0" encoding="UTF-8" standalone="no"?>
<!-- Created with Inkscape (http://www.inkscape.org/) -->

<svg
   xmlns:dc="http://purl.org/dc/elements/1.1/"
   xmlns:cc="http://creativecommons.org/ns#"
   xmlns:rdf="http://www.w3.org/1999/02/22-rdf-syntax-ns#"
   xmlns:svg="http://www.w3.org/2000/svg"
   xmlns="http://www.w3.org/2000/svg"
   xmlns:sodipodi="http://sodipodi.sourceforge.net/DTD/sodipodi-0.dtd"
   xmlns:inkscape="http://www.inkscape.org/namespaces/inkscape"
   width="13.588479mm"
   height="16.933334mm"
   viewBox="0 0 13.588479 16.933334"
   version="1.1"
   id="svg1017"
   inkscape:version="0.92.3 (2405546, 2018-03-11)"
   sodipodi:docname="avatar1.svg">
  <defs
     id="defs1011" />
  <sodipodi:namedview
     id="base"
     pagecolor="#ffffff"
     bordercolor="#666666"
     borderopacity="1.0"
     inkscape:pageopacity="0.0"
     inkscape:pageshadow="2"
     inkscape:zoom="0.35"
     inkscape:cx="-316.27836"
     inkscape:cy="-178.10951"
     inkscape:document-units="mm"
     inkscape:current-layer="layer1"
     showgrid="false"
     fit-margin-top="0"
     fit-margin-left="0"
     fit-margin-right="0"
     fit-margin-bottom="0"
     inkscape:window-width="1680"
     inkscape:window-height="987"
     inkscape:window-x="1672"
     inkscape:window-y="-8"
     inkscape:window-maximized="1" />
  <metadata
     id="metadata1014">
    <rdf:RDF>
      <cc:Work
         rdf:about="">
        <dc:format>image/svg+xml</dc:format>
        <dc:type
           rdf:resource="http://purl.org/dc/dcmitype/StillImage" />
        <dc:title></dc:title>
      </cc:Work>
    </rdf:RDF>
  </metadata>
  <g
     inkscape:label="Layer 1"
     inkscape:groupmode="layer"
     id="layer1"
     transform="translate(-63.649244,-84.775192)">
    <g
       transform="matrix(0.09990447,0,0,0.09990447,13.118273,75.48445)"
       id="g971">
      <path
         d="m 528.9,214.20001 c -2.2,-6.2 -6.7,-11.2 -10.6,-16.4 C 514.4,192.6 510.8,186.4 511.3,179.9 c 0.2,-3.6 1.6,-7.5 -0.3,-10.6 -1.2,-1.9 -3.5,-3 -4.6,-5.1 -1.5,-2.8 0,-6.3 2.1,-8.6 2.1,-2.3 4.9,-4 6.9,-6.4 0.6,-0.8 1.2,-1.7 1,-2.7 -0.2,-1.1 -1.3,-1.7 -2.2,-2.4 -3.1,-2.6 -2.9,-8 0.2,-10.5 1.7,-1.3 4,-1.9 5.2,-3.6 1.4,-2 0.9,-4.9 -0.3,-7 -1.2,-2.2 -2.9,-4.1 -3.7,-6.4 -1.3,-3.7 0,-8 2.4,-11 2.5,-3.1 6,-5.1 9.5,-6.799998 10.1,-4.7 21.6,-6.6 32.7,-5.5 11.8,1.2 23.8,6.3 30.1,16.299998 2.6,4.1 4.1,8.8 7.1,12.5 4.7,5.8 12.3,8.3 19.1,11.2 6.8,2.9 14.1,7.3 16.1,14.5 1.4,5 0,10.5 1.2,15.6 0.6,2.5 1.8,4.8 2.4,7.4 1.1,4.7 -0.1,9.5 -1.7,14 -5.8,16.50001 -17.3,31.00001 -32,40.50001 z"
         id="XMLID_23_"
         style="fill:#c35348"
         inkscape:connector-curvature="0" />
      <path
         d="m 523.1,195.10001 c -1.9,-1.8 -4.1,-3.20001 -6.5,-4.00001 -1.1,-0.4 -2.4,-0.6 -3.5,-0.1 -0.8,0.4 -1.3,1.3 -1.6,2.10001 -1.2,3.6 0.4,7.6 2,11.2 4.3,9.4 9.9,18.8 18.5,24.3 0.2,0.1 0.4,0.2 0.6,0.1 0.2,-0.1 0,-0.5 -0.2,-0.4 z"
         id="XMLID_12_"
         style="fill:#d18766"
         inkscape:connector-curvature="0" />
      <path
         d="m 517.5,197.80001 c -1.1,-0.8 -2.4,-1.5 -3.5,-1 2.7,1.4 5,3.7 6.5,6.5 0.2,0.3 0.3,0.6 0.3,0.9 0.1,0.4 0,0.8 -0.1,1.2 -0.5,3.4 1.9,6.7 4.3,9.3 1.2,1.3 2.4,2.5 3.6,3.7 -2.6,-2.4 -2.4,-9.7 -3.8,-12.9 -1.4,-3 -4.7,-5.8 -7.3,-7.7 z"
         id="XMLID_13_"
         style="fill:#a5644a"
         inkscape:connector-curvature="0" />
      <path
         d="m 523.1,195.10001 c -1.9,-1.8 -4.1,-3.20001 -6.5,-4.00001 -1.1,-0.4 -2.4,-0.6 -3.5,-0.1 -0.8,0.4 -1.3,1.3 -1.6,2.10001 -1.2,3.6 0.4,7.6 2,11.2 4.3,9.4 9.9,18.8 18.5,24.3 0.2,0.1 0.4,0.2 0.6,0.1 0.2,-0.1 0,-0.5 -0.2,-0.4 z"
         id="XMLID_80_"
         style="fill:#d18766"
         inkscape:connector-curvature="0" />
      <path
         d="m 517.5,197.80001 c -1.1,-0.8 -2.4,-1.5 -3.5,-1 2.7,1.4 5,3.7 6.5,6.5 0.2,0.3 0.3,0.6 0.3,0.9 0.1,0.4 0,0.8 -0.1,1.2 -0.5,3.4 1.9,6.7 4.3,9.3 1.2,1.3 2.4,2.5 3.6,3.7 -2.6,-2.4 -2.4,-9.7 -3.8,-12.9 -1.4,-3 -4.7,-5.8 -7.3,-7.7 z"
         id="XMLID_14_"
         style="fill:#a5644a"
         inkscape:connector-curvature="0" />
      <path
         d="m 521.8,147.3 c -0.4,2.2 -0.8,4.4 -1.1,6.6 -3.4,20.1 2.2,78.40001 28.4,100.50001 15.2,12.7 37.2,9.5 52.6,-3 11.2,-9.1 12.9,-28 16,-42 3.1,-14 7.9,-23.10001 5.9,-37.40001 -0.9,-6.4 -2.1,-12.7 -4,-18.8 -27.4,-22.4 -70.5,-30.1 -97.8,-5.9 z"
         id="XMLID_17_"
         style="fill:#f4c39f"
         inkscape:connector-curvature="0" />
      <path
         d="m 591.7,234.50001 c -0.3,-2.2 -0.8,-4.5 -1.7,-6.4 -0.8,-1.8 -2.1,-3.6 -4,-4 -1.2,-0.2 -2.3,0.2 -3.5,0.5 -9.9,3.1 -20.4,4.3 -30.7,3.3 -1.2,-0.1 -2.4,-0.2 -3.5,0.3 -2.1,1.1 -1.7,4.3 -1.5,6.7 0,0.2 0.1,0.4 0.1,0.7 5.7,5.5 13.6,8.7 21.5,8.8 8.8,0.1 17.4,-3.6 23.3,-9.9 z"
         id="XMLID_45_"
         style="fill:#8e0a4c"
         inkscape:connector-curvature="0" />
      <path
         d="m 591.7,234.50001 c -5.9,6.3 -14.6,10 -23.2,10 -7.9,-0.1 -15.8,-3.3 -21.5,-8.8 0.7,5.4 5.4,9.7 10.7,11.5 5.4,1.8 11.3,1.3 17,0.7 2,-0.2 4,-0.5 5.8,-1.1 4.5,-1.5 8,-4.8 11.4,-8 0,-1.5 0,-2.9 -0.2,-4.3 z"
         id="XMLID_83_"
         style="fill:#f8ffff"
         inkscape:connector-curvature="0" />
      <g
         id="XMLID_158_"
         transform="translate(0,1.8011009e-6)">
        <g
           id="XMLID_161_">
          <path
             d="m 596.5,221.7 c -3.4,-3.5 -8.6,-4.5 -13.4,-4.1 -4.8,0.4 -9.5,1.8 -14.3,2.7 -7.5,1.3 -15.2,1.1 -22.8,0.8 -3,-0.1 -6.5,0 -8.2,2.5 -1.2,1.9 -0.9,4.3 -0.4,6.6 0.9,4.7 1.8,9.4 2.7,14.1 2.7,3.9 5.7,7.3 9.1,10.1 1.2,1 2.4,1.8 3.6,2.6 -3.1,-7.4 -4.4,-15.5 -3.8,-23.5 0.1,-0.8 0.2,-1.6 0.8,-2.1 0.6,-0.4 1.3,-0.3 2,-0.2 9.9,1.6 20.2,0.5 29.5,-3 0.6,-0.2 1.3,-0.5 1.9,-0.3 0.5,0.2 0.8,0.6 1.1,1 2.9,3.9 4,8.8 4.8,13.6 0.8,5.2 1.1,10.5 1,15.8 4.1,-1.8 8,-4.2 11.5,-7.1 0.9,-0.8 1.8,-1.6 2.6,-2.5 -0.4,-6.3 -1.5,-12.6 -3.4,-18.7 -0.8,-2.8 -2.1,-6 -4.3,-8.3 z"
             id="XMLID_163_"
             inkscape:connector-curvature="0"
             style="fill:#c35348" />
        </g>
      </g>
      <path
         d="m 617.8,211.10001 c 2.3,-9.8 6.9,-19.10001 13.3,-27.00001 2.5,-3.1 5.5,-6.6 4.9,-10.5 -0.4,-2.2 -1.9,-4.1 -2.9,-6.1 -3.2,-6.6 -0.8,-14.8 -3.5,-21.7 -2,-5.1 -6.5,-8.8 -11.5,-10.9 -4.7,-2.1 -10.5,-3.4 -15.6,-3.6 5.6,11.4 9.8,21.4 12,34.2 2.5,15.1 2.9,30.40001 3.3,45.60001 z"
         id="XMLID_24_"
         style="fill:#c35348"
         inkscape:connector-curvature="0" />
      <path
         d="m 548.7,195.60001 c -2.2,0 -3.9,-1.8 -3.9,-3.90001 0,-1.4 0.7,-2.6 1.8,-3.3 -0.6,-0.4 -1.2,-0.6 -1.8,-0.6 -2.6,0 -4.8,3.6 -4.8,8.10001 0,4.5 2.1,8.1 4.8,8.1 2.7,0 4.8,-3.6 4.8,-8.1 0,-0.1 0,-0.2 0,-0.3 -0.4,0 -0.6,0 -0.9,0 z"
         id="XMLID_20_"
         style="fill:#262b55"
         inkscape:connector-curvature="0" />
      <path
         d="m 583.5,193.60001 c -2.2,0 -3.9,-1.80001 -3.9,-3.90001 0,-1.4 0.7,-2.6 1.8,-3.3 -0.6,-0.4 -1.2,-0.6 -1.8,-0.6 -2.6,0 -4.8,3.6 -4.8,8.10001 0,4.5 2.1,8.1 4.8,8.1 2.7,0 4.8,-3.6 4.8,-8.1 0,-0.1 0,-0.2 0,-0.3 -0.3,0 -0.6,0 -0.9,0 z"
         id="XMLID_18_"
         style="fill:#262b55"
         inkscape:connector-curvature="0" />
      <path
         d="m 557.3,195.70001 c 0.2,6.5 -0.5,13 -2.1,19.3 -0.5,1.9 -0.9,4.1 0.3,5.7 0.9,1.1 2.3,1.5 3.7,1.6 1.9,0.2 3.9,-0.1 5.8,-0.7 0.5,-0.2 1,-0.4 1.4,-0.8 0.4,-0.5 0.6,-1.1 0.7,-1.8 1.2,-7.7 0.6,-15.8 -1.8,-23.2 -0.8,-2.4 -2,-7.10001 -5,-7.80001 -3.9,-0.8 -3,5.30001 -3,7.70001 z"
         id="XMLID_15_"
         style="fill:#f27c70"
         inkscape:connector-curvature="0" />
      <path
         d="m 547,162.5 c -5.4,-2.9 -12.3,-2.8 -17.6,0.3 -0.7,0.4 -1.5,0.9 -1.9,1.6 -0.6,1 -1.2,1.6 -1.1,2.7 0.2,1.1 0.9,2.2 2,2.5 1.3,0.3 2.6,-0.5 3.9,-1.1 2.6,-1.4 5.6,-2.1 8.6,-1.9 0.9,0 1.8,0.2 2.6,0.6 0.5,0.3 1,0.7 1.6,0.9 1.5,0.7 3.6,-0.2 4.1,-1.8 0.5,-1.6 -0.7,-3 -2.2,-3.8 z"
         id="XMLID_19_"
         style="fill:#c35348"
         inkscape:connector-curvature="0" />
      <path
         d="m 596.4,161.9 c -2.3,-2 -5.1,-3.4 -8.1,-4.1 -3.3,-0.8 -6.7,-0.6 -10.1,-0.4 -1.8,0.1 -3.6,0.2 -5.1,1.1 -1.6,0.8 -2.7,2.6 -2.3,4.3 0.2,0.8 0.7,1 1.5,1.1 0.8,0.2 1.6,-0.1 2.3,-0.3 5.5,-1.4 11.6,-0.6 16.5,2.3 1.4,0.8 3,1.8 4.6,1.4 0.9,-0.3 1.7,-1.1 1.9,-2 0.2,-0.9 -0.1,-2 -0.9,-2.6 0.1,-0.5 -0.4,-0.4 -0.3,-0.8 z"
         id="XMLID_21_"
         style="fill:#c35348"
         inkscape:connector-curvature="0" />
      <g
         id="XMLID_207_"
         transform="translate(0,1.8011009e-6)">
        <path
           d="m 542,210.8 c -8.6,0 -15.5,-7 -15.5,-15.5 0,-8.5 7,-15.5 15.5,-15.5 8.6,0 15.5,7 15.5,15.5 0,8.5 -6.9,15.5 -15.5,15.5 z m 0,-28.1 c -6.9,0 -12.5,5.6 -12.5,12.5 0,6.9 5.6,12.5 12.5,12.5 6.9,0 12.5,-5.6 12.5,-12.5 0,-6.9 -5.6,-12.5 -12.5,-12.5 z"
           id="XMLID_208_"
           inkscape:connector-curvature="0"
           style="fill:#f8ffff" />
      </g>
      <g
         id="XMLID_202_"
         transform="translate(0,1.8011009e-6)">
        <path
           d="m 582.2,210.8 c -9.4,0 -17,-7.6 -17,-17 0,-9.4 7.6,-17 17,-17 9.4,0 17,7.6 17,17 0,9.4 -7.7,17 -17,17 z m 0,-30.9 c -7.7,0 -14,6.3 -14,14 0,7.7 6.3,14 14,14 7.7,0 14,-6.3 14,-14 0,-7.7 -6.3,-14 -14,-14 z"
           id="XMLID_203_"
           inkscape:connector-curvature="0"
           style="fill:#f8ffff" />
      </g>
      <g
         id="XMLID_185_"
         transform="translate(0,1.8011009e-6)">
        <path
           transform="matrix(0.08008162,0.9968,-0.9968,0.08008162,709.1851,-381.605)"
           id="XMLID_186_"
           d="m 559.79999,188 h 3 v 10.7 h -3 z"
           inkscape:connector-curvature="0"
           style="fill:#f8ffff" />
      </g>
      <g
         id="XMLID_182_"
         transform="translate(0,1.8011009e-6)">
        <path
           transform="matrix(0.1947,0.9809,-0.9809,0.1947,674.9767,-452.9427)"
           id="XMLID_183_"
           d="m 611.79999,167.39999 h 3 v 34.4 h -3 z"
           inkscape:connector-curvature="0"
           style="fill:#f8ffff" />
      </g>
      <g
         id="XMLID_179_"
         transform="translate(0,1.8011009e-6)">
        <path
           transform="matrix(0.9414,0.3374,-0.3374,0.9414,95.9308,-165.086)"
           id="XMLID_180_"
           d="m 517.5,191.89999 h 10.8 v 3 h -10.8 z"
           inkscape:connector-curvature="0"
           style="fill:#f8ffff" />
      </g>
      <path
         d="m 612.6,223.60001 c -0.3,1.3 1.9,1.6 3.1,1.1 15.1,-5.8 24.7,-21.9 26,-38.00001 0.2,-2.6 0.2,-5.3 -0.7,-7.8 -0.9,-2.4 -3,-4.6 -5.6,-5 -2.2,-0.3 -4.4,0.6 -6.3,1.6 -7.5,4.1 -13.4,10.9 -16.6,18.80001 -3.6,8.9 2,19.9 0.1,29.3 z"
         id="XMLID_4_"
         style="fill:#f4c39f"
         inkscape:connector-curvature="0" />
      <path
         d="m 630.7,186.5 c 0.9,-0.4 1.9,-0.8 2.9,-0.6 1.2,0.3 2,1.4 2.3,2.6 0.3,1.2 0.1,2.4 0,3.7 -0.2,-0.9 -0.6,-1.9 -1.2,-2.6 -0.6,-0.7 -1.7,-1.1 -2.6,-0.9 -0.6,0.2 -1.1,0.6 -1.5,1 -1.4,1.4 -2.6,3 -3.5,4.70001 2,2.1 2.4,5.4 1.4,8.1 -1,2.7 -3.1,4.9 -5.6,6.3 -2.5,1.5 -5.2,2.4 -8,3.2 0,0 0.9,-6.7 1.1,-7.3 0.8,-2.7 2,-5.3 3.6,-7.6 2.8,-4 6.7,-8.40001 11.1,-10.60001 z"
         id="XMLID_11_"
         style="fill:#d18766"
         inkscape:connector-curvature="0" />
    </g>
  </g>
</svg>
