<?xml version="1.0" encoding="UTF-8" standalone="no"?>
<!-- Created with Inkscape (http://www.inkscape.org/) -->

<svg
   xmlns:dc="http://purl.org/dc/elements/1.1/"
   xmlns:cc="http://creativecommons.org/ns#"
   xmlns:rdf="http://www.w3.org/1999/02/22-rdf-syntax-ns#"
   xmlns:svg="http://www.w3.org/2000/svg"
   xmlns="http://www.w3.org/2000/svg"
   xmlns:sodipodi="http://sodipodi.sourceforge.net/DTD/sodipodi-0.dtd"
   xmlns:inkscape="http://www.inkscape.org/namespaces/inkscape"
   width="49.821323mm"
   height="60.816402mm"
   viewBox="0 0 49.821323 60.816402"
   version="1.1"
   id="svg3944"
   inkscape:version="0.92.3 (2405546, 2018-03-11)"
   sodipodi:docname="guest-avatar1.svg">
  <defs
     id="defs3938" />
  <sodipodi:namedview
     id="base"
     pagecolor="#ffffff"
     bordercolor="#666666"
     borderopacity="1.0"
     inkscape:pageopacity="0.0"
     inkscape:pageshadow="2"
     inkscape:zoom="0.35"
     inkscape:cx="-682.99234"
     inkscape:cy="-58.571423"
     inkscape:document-units="mm"
     inkscape:current-layer="layer1"
     showgrid="false"
     fit-margin-top="0"
     fit-margin-left="0"
     fit-margin-right="0"
     fit-margin-bottom="0"
     inkscape:window-width="1621"
     inkscape:window-height="995"
     inkscape:window-x="59"
     inkscape:window-y="27"
     inkscape:window-maximized="1" />
  <metadata
     id="metadata3941">
    <rdf:RDF>
      <cc:Work
         rdf:about="">
        <dc:format>image/svg+xml</dc:format>
        <dc:type
           rdf:resource="http://purl.org/dc/dcmitype/StillImage" />
        <dc:title></dc:title>
      </cc:Work>
    </rdf:RDF>
  </metadata>
  <g
     inkscape:label="Layer 1"
     inkscape:groupmode="layer"
     id="layer1"
     transform="translate(-31.78577,-72.519906)">
    <g
       id="g144"
       transform="matrix(0.21212558,0,0,0.21212558,-59.180866,44.455692)">
      <path
         style="fill:#ffffff"
         inkscape:connector-curvature="0"
         id="path120"
         d="m 653.4,320.5 c -8.9,-11 -68.2,-27.3 -70.5,-29.1 -0.3,-0.3 -0.7,-0.7 -1.2,-1.2 -2.4,9.2 -10.1,25.8 -35.4,31.5 -25.3,-5.6 -33.1,-22.2 -35.4,-31.5 -0.5,0.5 -0.9,0.9 -1.2,1.2 -2.3,1.8 -61.6,18.2 -70.5,29.1 -15.6,19.2 -8.3,71.5 -10,98.5 h 117.2 117.2 c -1.9,-27 5.4,-79.2 -10.2,-98.5 z" />
      <path
         style="fill:#eb9257"
         inkscape:connector-curvature="0"
         id="path122"
         d="m 572.8,266.5 c -6.8,7.5 -16,14 -26.6,14 v 0 c -10.6,0 -19.7,-6.4 -26.5,-13.9 v 18.1 c -1.7,1.7 -5.4,3.7 -8.6,5.5 0,0 0,0.4 0,1 2.7,9.4 10.2,30.5 35.1,30.5 25,0 32.5,-21.1 35.1,-30.5 0,-0.6 0,-1 0,-1 -3.2,-1.8 -6.9,-3.8 -8.6,-5.5 v -18.2 z" />
      <path
         style="fill:#f4b251"
         inkscape:connector-curvature="0"
         id="path124"
         d="m 653.4,320.5 c -8.9,-11 -68.2,-27.3 -70.5,-29.1 -0.3,-0.3 -0.7,-0.7 -1.2,-1.2 -1.2,4.7 -5.5,10 -9.3,17.2 -16.5,31.8 -29,91.3 -26.2,111.6 h 117.2 c -1.7,-27 5.6,-79.2 -10,-98.5 z" />
      <path
         style="fill:#f4b251"
         inkscape:connector-curvature="0"
         id="path126"
         d="m 510.8,290.2 c -0.5,0.5 -0.9,0.9 -1.2,1.2 -2.3,1.8 -61.6,18.2 -70.5,29.1 -15.6,19.2 -8.3,71.5 -10,98.5 h 117.2 c 2.8,-20.3 -9.7,-79.8 -26.2,-111.6 -3.8,-7.2 -8.1,-12.6 -9.3,-17.2 z" />
      <g
         id="g132">
        <path
           style="fill:#eb9257"
           inkscape:connector-curvature="0"
           id="path128"
           d="m 592.6,208.4 c -0.7,10.9 -1.6,22.3 -2.7,31.2 10.3,-4.6 11.5,-21 11.9,-30.2 0.3,-7.7 -6.4,-3.2 -9.2,-1 z" />
        <path
           style="fill:#eb9257"
           inkscape:connector-curvature="0"
           id="path130"
           d="m 499.9,208.4 c 0.7,10.9 1.6,22.3 2.7,31.2 -10.3,-4.6 -11.5,-21 -11.9,-30.2 -0.4,-7.7 6.4,-3.2 9.2,-1 z" />
      </g>
      <path
         style="fill:#f4a169"
         inkscape:connector-curvature="0"
         id="path134"
         d="m 589.8,200.9 c 0.1,-1.2 -0.9,-14.2 -2.8,-17.6 -4.6,-8.2 -18.8,-11.9 -21.3,-11.9 -2.6,0 -11.7,6.4 -14.8,7.3 -3.1,0.9 -15.7,1.5 -23.2,-2 -4.1,-2 -11,4.5 -15.6,6.1 -13.9,4.9 -9.3,51.5 -9.7,54.5 1,8.1 2.1,14.5 3.5,17.3 5.6,11.6 20.7,31.9 40.4,31.9 v 0 c 19.7,0 34.8,-20.3 40.4,-31.9 1.6,-3.4 3,-11.8 4,-22.1 -0.6,-2.4 -2,-22.8 -0.9,-31.6 z" />
      <g
         id="g142">
        <g
           id="g140">
          <path
             style="fill:#8d6541"
             inkscape:connector-curvature="0"
             id="path136"
             d="m 593,153.7 c 1.6,-2.5 3.2,-6.8 2.8,-13.9 0,0 -4.5,2.8 -9.3,3.2 0,0 4.4,-1.4 4.7,-9.2 -0.1,0.6 -1.4,3.5 -16.2,3.8 -7.4,-3.3 -16.8,-5.3 -28.9,-5.3 -81.1,0 -43.9,104.9 -43.9,104.9 -0.6,-24.7 7.9,-50.3 7.9,-50.3 9.9,5.9 36,6.7 36,6.7 0,0 26.1,-0.8 36,-6.7 0,0 8.6,24.8 8,49.5 -0.1,0.1 17.6,-56.7 2.9,-82.7 z" />
          <path
             style="fill:#8d6541"
             inkscape:connector-curvature="0"
             id="path138"
             d="m 591.2,133.7 c 0,0 0,0.1 0,0.1 0,-0.1 0,-0.1 0,-0.1 z" />
        </g>
      </g>
    </g>
  </g>
</svg>
