<?xml version="1.0" encoding="UTF-8" standalone="no"?>
<svg
   xmlns:dc="http://purl.org/dc/elements/1.1/"
   xmlns:cc="http://creativecommons.org/ns#"
   xmlns:rdf="http://www.w3.org/1999/02/22-rdf-syntax-ns#"
   xmlns:svg="http://www.w3.org/2000/svg"
   xmlns="http://www.w3.org/2000/svg"
   xmlns:sodipodi="http://sodipodi.sourceforge.net/DTD/sodipodi-0.dtd"
   xmlns:inkscape="http://www.inkscape.org/namespaces/inkscape"
   height="512.001pt"
   viewBox="0 0 512.001 512.001"
   width="512.001pt"
   version="1.1"
   id="svg40"
   sodipodi:docname="edit-profile-1-1.svg"
   inkscape:version="0.92.3 (2405546, 2018-03-11)">
  <metadata
     id="metadata46">
    <rdf:RDF>
      <cc:Work
         rdf:about="">
        <dc:format>image/svg+xml</dc:format>
        <dc:type
           rdf:resource="http://purl.org/dc/dcmitype/StillImage" />
        <dc:title />
      </cc:Work>
    </rdf:RDF>
  </metadata>
  <defs
     id="defs44" />
  <sodipodi:namedview
     pagecolor="#ffffff"
     bordercolor="#666666"
     borderopacity="1"
     objecttolerance="10"
     gridtolerance="10"
     guidetolerance="10"
     inkscape:pageopacity="0"
     inkscape:pageshadow="2"
     inkscape:window-width="1366"
     inkscape:window-height="705"
     id="namedview42"
     showgrid="false"
     inkscape:zoom="0.37150648"
     inkscape:cx="71.959348"
     inkscape:cy="250.34103"
     inkscape:window-x="-8"
     inkscape:window-y="-8"
     inkscape:window-maximized="1"
     inkscape:current-layer="svg40" />
  <g
     fill="#d8dce5"
     id="g38">
    <path
       d="m73.339844 147.960938c2.457031 2.457031 2.996094 6.234374 1.328125 9.289062-6.941407 12.707031-12.597657 26.21875-16.765625 40.367188-.980469 3.332031-4.03125 5.621093-7.503906 5.621093h30.90625c3.472656 0 6.523437-2.289062 7.503906-5.621093 4.167968-14.148438 9.824218-27.660157 16.765625-40.367188 1.667969-3.050781 1.128906-6.832031-1.328125-9.289062l-24.152344-24.15625c-6.359375-6.359376-6.359375-16.667969 0-23.03125l47.648438-47.648438-3.9375-3.9375c-6.359376-6.359375-16.667969-6.359375-23.03125 0l-51.585938 51.585938c-6.363281 6.363281-6.363281 16.671874 0 23.03125zm0 0"
       id="path28" />
    <path
       d="m30.90625 292.480469v-72.960938c0-8.992187 7.292969-16.28125 16.285156-16.28125h-30.90625c-8.996094 0-16.285156 7.289063-16.285156 16.28125v72.960938c0 8.992187 7.289062 16.28125 16.285156 16.28125h30.90625c-8.992187 0-16.285156-7.289063-16.285156-16.28125zm0 0"
       id="path30" />
    <path
       d="m80.09375 411.226562c-6.359375-6.363281-6.359375-16.671874 0-23.03125l24.152344-24.15625c2.457031-2.457031 2.996094-6.238281 1.328125-9.289062-6.941407-12.707031-12.597657-26.21875-16.765625-40.367188-.980469-3.332031-4.03125-5.621093-7.503906-5.621093h-30.90625c3.46875 0 6.523437 2.289062 7.503906 5.621093 4.167968 14.148438 9.824218 27.660157 16.765625 40.367188 1.667969 3.050781 1.128906 6.832031-1.328125 9.289062l-24.152344 24.15625c-6.363281 6.359376-6.363281 16.667969 0 23.03125l51.585938 51.585938c6.363281 6.359375 16.671874 6.359375 23.03125 0l3.9375-3.941406zm0 0"
       id="path32" />
    <path
       d="m219.519531 0c-8.992187 0-16.28125 7.289062-16.28125 16.285156v34.113282c0 3.003906-1.71875 5.6875-4.335937 6.992187 3.785156-1.457031 15.515625-5.617187 28.847656-6.71875 3.621094-.300781 6.394531-3.347656 6.394531-6.976563v-27.410156c0-8.996094 7.289063-16.285156 16.285157-16.285156zm0 0"
       id="path34" />
    <path
       d="m234.144531 495.714844v-24.996094c0-4.921875-3.734375-9.066406-8.632812-9.519531-12.855469-1.199219-22.421875-4.75-26.164063-6.328125 2.359375 1.378906 3.886719 3.90625 3.886719 6.730468v34.113282c0 8.992187 7.292969 16.285156 16.289063 16.285156h30.90625c-8.996094 0-16.285157-7.289062-16.285157-16.285156zm0 0"
       id="path36" />
  </g>
  <g
     transform="matrix(0.75000003,0,0,0.75000003,63.999742,63.999403)"
     id="g916">
    <polygon
       id="polygon2"
       points="335.446,300.15 176.558,300.15 176.558,361.939 256.002,432.556 335.446,361.939 "
       style="fill:#e6af78" />
    <path
       inkscape:connector-curvature="0"
       id="path4"
       d="M 458.286,390.843 349.057,365.142 c -1.65,-0.388 -3.167,-1.047 -4.587,-1.846 L 256.001,414.903 170.982,360.8 c -2.201,2.072 -4.933,3.612 -8.036,4.343 L 53.717,390.844 c -15.95,3.753 -27.222,17.985 -27.222,34.37 v 69.134 c 0,9.751 7.904,17.654 17.654,17.654 h 423.702 c 9.751,0 17.654,-7.904 17.654,-17.654 v -69.134 c 0.002,-16.386 -11.27,-30.619 -27.219,-34.371 z"
       style="fill:#eff2fa" />
    <path
       inkscape:connector-curvature="0"
       id="path6"
       d="m 176.558,300.15 v 65.193 C 276.636,401.4 335.446,311.158 335.446,311.158 V 300.149 H 176.558 Z"
       style="fill:#d29b6e" />
    <path
       inkscape:connector-curvature="0"
       id="path8"
       d="m 141.249,97.127 7.692,169.228 c 0.718,15.809 8.47,30.47 21.13,39.965 l 36.498,27.374 c 9.168,6.875 20.318,10.593 31.778,10.593 h 35.309 c 11.46,0 22.61,-3.717 31.778,-10.593 l 36.498,-27.374 c 12.66,-9.496 20.412,-24.155 21.13,-39.965 l 7.692,-169.228 c -0.001,0 -229.505,0 -229.505,0 z"
       style="fill:#f0c087" />
    <path
       inkscape:connector-curvature="0"
       id="path10"
       d="m 229.521,132.435 c 35.309,0 88.271,-8.827 100.833,-35.309 H 141.249 l 7.692,169.228 c 0.718,15.809 8.47,30.469 21.131,39.965 l 36.498,27.374 c 9.168,6.875 20.318,10.593 31.778,10.593 h 17.654 c -17.654,0 -52.963,-35.309 -52.963,-79.444 0,-21.586 0,-79.444 0,-105.926 0,-8.827 8.827,-26.481 26.482,-26.481 z"
       style="fill:#e6af78" />
    <g
       id="g16">
      <path
         inkscape:connector-curvature="0"
         id="path12"
         d="M 91.3,454.714 34.101,403.332 c -4.793,6.069 -7.603,13.706 -7.603,21.882 v 69.134 c 0,9.751 7.904,17.654 17.654,17.654 h 61.79 V 487.548 C 105.941,475.021 100.618,463.084 91.3,454.714 Z"
         style="fill:#e4eaf6" />
      <path
         inkscape:connector-curvature="0"
         id="path14"
         d="m 420.705,454.714 57.199,-51.382 c 4.793,6.069 7.603,13.706 7.603,21.882 v 69.134 c 0,9.751 -7.904,17.654 -17.654,17.654 h -61.79 v -24.454 c 0,-12.527 5.323,-24.464 14.642,-32.834 z"
         style="fill:#e4eaf6" />
    </g>
    <polygon
       id="polygon18"
       points="239.451,432.556 272.553,432.556 278.07,512.001 233.934,512.001 "
       style="fill:#5b5d6e" />
    <path
       inkscape:connector-curvature="0"
       id="path20"
       d="m 278.07,414.902 h -44.136 v 16.613 c 0,5.451 4.418,9.869 9.869,9.869 H 268.2 c 5.451,0 9.869,-4.418 9.869,-9.869 v -16.613 z"
       style="fill:#515262" />
    <g
       id="g26">
      <path
         inkscape:connector-curvature="0"
         id="path22"
         d="m 175.319,342.287 80.684,72.615 c 0,0 -22.596,11.407 -50.48,34.398 -5.752,4.742 -14.453,2.821 -17.538,-3.966 L 150.078,361.94 162.07,343.953 c 2.984,-4.48 9.248,-5.266 13.249,-1.666 z"
         style="fill:#e4eaf6" />
      <path
         inkscape:connector-curvature="0"
         id="path24"
         d="m 336.686,342.287 -80.684,72.615 c 0,0 22.596,11.407 50.48,34.398 5.752,4.742 14.453,2.821 17.538,-3.966 l 37.907,-83.394 -11.992,-17.987 c -2.985,-4.48 -9.249,-5.266 -13.249,-1.666 z"
         style="fill:#e4eaf6" />
    </g>
    <path
       inkscape:connector-curvature="0"
       id="path28-1"
       d="m 309.516,38.647 8.275,58.48 c 37.775,7.555 43.219,66.837 44.003,83.769 0.142,3.073 1.123,6.04 2.79,8.625 l 14.413,22.358 c 0,0 -4.933,-36.964 17.654,-61.79 10e-4,0 7.757,-146.751 -87.135,-111.442 z"
       style="fill:#785550" />
    <path
       inkscape:connector-curvature="0"
       id="path30-0"
       d="m 387.851,208.115 -9.965,39.861 c -1.181,4.725 -5.425,8.038 -10.296,8.038 v 0 c -5.353,0 -9.867,-3.985 -10.531,-9.296 l -5.097,-40.77 c -1.364,-10.913 7.144,-20.551 18.142,-20.551 h 0.008 c 11.896,0.001 20.624,11.178 17.739,22.718 z"
       style="fill:#f0c087" />
    <path
       inkscape:connector-curvature="0"
       id="path32-1"
       d="m 149.709,22.831 13.056,8.919 c -59.031,43.584 -47.998,118.339 -47.998,118.339 17.654,17.654 17.654,61.79 17.654,61.79 l 17.654,-17.654 c 0,0 -6.813,-50.998 26.481,-70.617 30.895,-18.206 57.928,-8.827 85.513,-8.827 73.927,0 94.616,-27.861 91.03,-61.79 C 351.243,35.435 324.401,-1.135 256.001,0.028 228.397,0.497 176.558,8.855 149.709,22.831 Z"
       style="fill:#694b4b" />
    <path
       inkscape:connector-curvature="0"
       id="path34-4"
       d="m 144.559,107.057 c 0,0 -9.379,-36.964 18.206,-75.306 -59.031,43.584 -47.998,118.339 -47.998,118.339 17.654,17.654 17.654,61.79 17.654,61.79 l 17.654,-17.654 c 0,0 -6.813,-50.998 26.481,-70.617 30.895,-18.206 57.928,-8.827 85.513,-8.827 12.023,0 22.5,-0.805 31.832,-2.185 -56.932,1.908 -90.493,-41.217 -149.342,-5.54 z"
       style="fill:#5a4146" />
    <path
       inkscape:connector-curvature="0"
       id="path36-9"
       d="m 124.153,208.115 9.965,39.861 c 1.181,4.725 5.425,8.038 10.296,8.038 v 0 c 5.353,0 9.867,-3.985 10.531,-9.296 l 5.097,-40.77 c 1.364,-10.913 -7.144,-20.551 -18.142,-20.551 h -0.008 c -11.896,0.001 -20.624,11.178 -17.739,22.718 z"
       style="fill:#e6af78" />
    <path
       inkscape:connector-curvature="0"
       id="path38"
       d="m 370.755,494.346 h -61.79 c -4.875,0 -8.827,3.952 -8.827,8.827 V 512 h 79.444 v -8.827 c 0,-4.874 -3.953,-8.827 -8.827,-8.827 z"
       style="fill:#e4eaf6" />
    <g
       id="g40" />
    <g
       id="g42" />
    <g
       id="g44" />
    <g
       id="g46" />
    <g
       id="g48" />
    <g
       id="g50" />
    <g
       id="g52" />
    <g
       id="g54" />
    <g
       id="g56" />
    <g
       id="g58" />
    <g
       id="g60" />
    <g
       id="g62" />
    <g
       id="g64" />
    <g
       id="g66" />
    <g
       id="g68" />
  </g>
  <path
     d="m495.714844 203.238281h-34.113282c-3.472656 0-6.523437-2.289062-7.503906-5.621093-4.167968-14.148438-9.824218-27.660157-16.765625-40.371094-1.667969-3.050782-1.128906-6.832032 1.328125-9.289063l24.152344-24.152343c6.363281-6.359376 6.363281-16.667969 0-23.03125l-51.585938-51.585938c-6.363281-6.359375-16.671874-6.359375-23.03125 0l-24.15625 24.152344c-2.457031 2.457031-6.238281 2.996094-9.289062 1.328125-12.710938-6.941407-26.21875-12.597657-40.367188-16.765625-3.332031-.980469-5.621093-4.03125-5.621093-7.503906v-34.113282c0-8.996094-7.289063-16.285156-16.285157-16.285156h-72.957031c-8.992187 0-16.285156 7.289062-16.285156 16.285156v34.113282c0 3.472656-2.285156 6.523437-5.617187 7.503906-14.152344 4.171875-27.660157 9.824218-40.371094 16.769531-3.050782 1.664063-6.832032 1.128906-9.289063-1.332031l-24.152343-24.152344c-6.359376-6.359375-16.667969-6.359375-23.03125 0l-51.585938 51.585938c-6.363281 6.363281-6.363281 16.671874 0 23.03125l24.152344 24.15625c2.457031 2.457031 2.996094 6.234374 1.328125 9.289062-6.941407 12.707031-12.597657 26.21875-16.765625 40.367188-.980469 3.332031-4.03125 5.621093-7.503906 5.621093h-34.113282c-8.996094 0-16.285156 7.289063-16.285156 16.28125v72.960938c0 8.992187 7.289062 16.28125 16.285156 16.28125h34.113282c3.46875 0 6.523437 2.289062 7.503906 5.621093 4.167968 14.148438 9.824218 27.660157 16.765625 40.367188 1.667969 3.050781 1.128906 6.832031-1.328125 9.289062l-24.152344 24.15625c-6.363281 6.359376-6.363281 16.667969 0 23.03125l51.585938 51.585938c6.363281 6.359375 16.671874 6.359375 23.03125 0l24.152343-24.152344c2.457031-2.460937 6.238281-2.996094 9.289063-1.332031 12.710937 6.945313 26.21875 12.597656 40.371094 16.769531 3.332031.980469 5.617187 4.03125 5.617187 7.503906v34.113282c0 8.996094 7.292969 16.285156 16.289063 16.285156h72.953124c8.996094 0 16.285157-7.289062 16.285157-16.285156v-34.113282c0-3.472656 2.289062-6.523437 5.621093-7.503906 14.148438-4.167968 27.65625-9.824218 40.367188-16.765625 3.050781-1.667969 6.832031-1.128906 9.289062 1.328125l24.15625 24.152344c6.359376 6.359375 16.667969 6.363281 23.027344 0l51.589844-51.585938c6.363281-6.363281 6.363281-16.671874 0-23.03125l-24.152344-24.152343c-2.460937-2.460938-2.996094-6.238281-1.328125-9.289063 6.941407-12.710937 12.59375-26.222656 16.765625-40.371094.980469-3.332031 4.03125-5.617187 7.503906-5.617187h34.117188c8.992188 0 16.28125-7.292969 16.28125-16.285156v-72.957031c0-8.996094-7.289062-16.285157-16.285156-16.285157zm-239.714844 197.0625c-79.695312 0-144.300781-64.605469-144.300781-144.300781s64.605469-144.300781 144.300781-144.300781 144.304688 64.605469 144.304688 144.300781-64.609376 144.300781-144.304688 144.300781zm0 0"
     fill="#e4eaf8"
     id="path26" />
</svg>
