<?xml version="1.0" encoding="UTF-8" standalone="no"?>
<svg
   xmlns:dc="http://purl.org/dc/elements/1.1/"
   xmlns:cc="http://creativecommons.org/ns#"
   xmlns:rdf="http://www.w3.org/1999/02/22-rdf-syntax-ns#"
   xmlns:svg="http://www.w3.org/2000/svg"
   xmlns="http://www.w3.org/2000/svg"
   xmlns:sodipodi="http://sodipodi.sourceforge.net/DTD/sodipodi-0.dtd"
   xmlns:inkscape="http://www.inkscape.org/namespaces/inkscape"
   height="512.001pt"
   viewBox="0 0 512.001 512.001"
   width="512.001pt"
   version="1.1"
   id="svg40"
   sodipodi:docname="edit-profile2.svg"
   inkscape:version="0.92.3 (2405546, 2018-03-11)">
  <metadata
     id="metadata46">
    <rdf:RDF>
      <cc:Work
         rdf:about="">
        <dc:format>image/svg+xml</dc:format>
        <dc:type
           rdf:resource="http://purl.org/dc/dcmitype/StillImage" />
        <dc:title></dc:title>
      </cc:Work>
    </rdf:RDF>
  </metadata>
  <defs
     id="defs44" />
  <sodipodi:namedview
     pagecolor="#ffffff"
     bordercolor="#666666"
     borderopacity="1"
     objecttolerance="10"
     gridtolerance="10"
     guidetolerance="10"
     inkscape:pageopacity="0"
     inkscape:pageshadow="2"
     inkscape:window-width="1680"
     inkscape:window-height="987"
     id="namedview42"
     showgrid="false"
     inkscape:zoom="0.34570247"
     inkscape:cx="341.33398"
     inkscape:cy="341.33398"
     inkscape:window-x="1672"
     inkscape:window-y="-8"
     inkscape:window-maximized="1"
     inkscape:current-layer="svg40" />
  <g
     fill="#d8dce5"
     id="g38">
    <path
       d="m73.339844 147.960938c2.457031 2.457031 2.996094 6.234374 1.328125 9.289062-6.941407 12.707031-12.597657 26.21875-16.765625 40.367188-.980469 3.332031-4.03125 5.621093-7.503906 5.621093h30.90625c3.472656 0 6.523437-2.289062 7.503906-5.621093 4.167968-14.148438 9.824218-27.660157 16.765625-40.367188 1.667969-3.050781 1.128906-6.832031-1.328125-9.289062l-24.152344-24.15625c-6.359375-6.359376-6.359375-16.667969 0-23.03125l47.648438-47.648438-3.9375-3.9375c-6.359376-6.359375-16.667969-6.359375-23.03125 0l-51.585938 51.585938c-6.363281 6.363281-6.363281 16.671874 0 23.03125zm0 0"
       id="path28" />
    <path
       d="m30.90625 292.480469v-72.960938c0-8.992187 7.292969-16.28125 16.285156-16.28125h-30.90625c-8.996094 0-16.285156 7.289063-16.285156 16.28125v72.960938c0 8.992187 7.289062 16.28125 16.285156 16.28125h30.90625c-8.992187 0-16.285156-7.289063-16.285156-16.28125zm0 0"
       id="path30" />
    <path
       d="m80.09375 411.226562c-6.359375-6.363281-6.359375-16.671874 0-23.03125l24.152344-24.15625c2.457031-2.457031 2.996094-6.238281 1.328125-9.289062-6.941407-12.707031-12.597657-26.21875-16.765625-40.367188-.980469-3.332031-4.03125-5.621093-7.503906-5.621093h-30.90625c3.46875 0 6.523437 2.289062 7.503906 5.621093 4.167968 14.148438 9.824218 27.660157 16.765625 40.367188 1.667969 3.050781 1.128906 6.832031-1.328125 9.289062l-24.152344 24.15625c-6.363281 6.359376-6.363281 16.667969 0 23.03125l51.585938 51.585938c6.363281 6.359375 16.671874 6.359375 23.03125 0l3.9375-3.941406zm0 0"
       id="path32" />
    <path
       d="m219.519531 0c-8.992187 0-16.28125 7.289062-16.28125 16.285156v34.113282c0 3.003906-1.71875 5.6875-4.335937 6.992187 3.785156-1.457031 15.515625-5.617187 28.847656-6.71875 3.621094-.300781 6.394531-3.347656 6.394531-6.976563v-27.410156c0-8.996094 7.289063-16.285156 16.285157-16.285156zm0 0"
       id="path34" />
    <path
       d="m234.144531 495.714844v-24.996094c0-4.921875-3.734375-9.066406-8.632812-9.519531-12.855469-1.199219-22.421875-4.75-26.164063-6.328125 2.359375 1.378906 3.886719 3.90625 3.886719 6.730468v34.113282c0 8.992187 7.292969 16.285156 16.289063 16.285156h30.90625c-8.996094 0-16.285157-7.289062-16.285157-16.285156zm0 0"
       id="path36" />
  </g>
  <g
     transform="matrix(1.9016805,0,0,1.9016805,596.58236,-23.601005)"
     id="g1112">
    <path
       d="m -179.09547,218.17639 h -72.1 c -6,-7.8 1,-22.3 -2,-31.7 -1.5,-4.7 -5.9,-8.2 -6.9,-13 -1.6,-8.3 7.4,-14.7 9.3,-23 1.2,-5 -0.5,-10.2 -1.4,-15.3 -1.1,-5.8 -1.2,-11.9 1.1,-17.4 2.3,-5.5 7.2,-10 13.1,-10.5 -2.9,-2.4 -6.7,-3.7 -10.5,-3.6 5.8,-4.700001 14.4,-5.600001 21,-2.1 13,6.8 21.2,20.9 25.4,34.9 4.2,14 5.4,28.8 8.9,43.1 2.9,12 7.8,27.8 14.1,38.6 z"
       id="XMLID_7_"
       inkscape:connector-curvature="0"
       style="fill:#124272" />
    <path
       d="m -222.09547,187.27639 c -2.8,2.6 -7.7,2.3 -10.2,-0.6 -1.9,-2.3 -2.2,-5.5 -3.7,-8 -1,-1.8 -2.6,-3.3 -4,-4.9 -4.5,-5.4 -6.5,-13 -5.1,-19.9 0.4,-1.9 1.2,-4 3,-4.5 0.8,-0.3 1.7,-0.1 2.6,0.1 3.6,0.8 6.9,2.5 9.7,4.9 3.4,10.6 3.2,22.5 7.7,32.9 z"
       id="XMLID_8_"
       inkscape:connector-curvature="0"
       style="fill:#e0a286" />
    <path
       id="XMLID_10_"
       d="m -222.09547,190.27638 a 5.9,6.1 0 0 1 -5.9,6.1 5.9,6.1 0 0 1 -5.9,-6.1 5.9,6.1 0 0 1 5.9,-6.1 5.9,6.1 0 0 1 5.9,6.1 z"
       inkscape:connector-curvature="0"
       style="fill:#d7e4ed" />
    <path
       d="m -235.79547,157.47639 c -0.6,-0.4 -1.2,-0.8 -1.9,-0.7 -0.9,0.1 -1.5,1.1 -1.7,2.1 -0.2,0.9 -0.2,1.9 -0.8,2.7 0.2,-1.8 2.5,-2.7 4.2,-2.1 1.7,0.6 2.8,2.2 3.7,3.8 -1.7,1.6 -2.6,3.9 -2.5,6.2 0.1,2.3 1.2,4.6 3,6 2.2,1.8 5.1,2.3 7.8,2.8 -1.8,-0.3 -2.2,-10.6 -3,-12.2 -1.7,-3.3 -5.8,-6.4 -8.8,-8.6 z"
       id="XMLID_9_"
       inkscape:connector-curvature="0"
       style="fill:#af694e" />
    <path
       id="XMLID_17_"
       d="m -124.19548,218.17638 h -71 l 63.5,-37.79999 z"
       inkscape:connector-curvature="0"
       style="fill:#041e33" />
    <path
       d="m -228.29547,174.37639 c 0.5,1.8 1,3.5 1.5,5.3 4.3,13.9 12.7,25.6 24.9,33.6 16.6,10.8 37.2,9.5 52.6,-3 11.2,-9.1 18.2,-22.5 21.3,-36.5 3.1,-14 2.6,-28.6 0.6,-42.9 -1.5,-10.5 -3.8,-20.9 -8.7,-30.3 -3.6,-6.800001 -8.7,-13.200001 -15.7,-16.500001 -4.6,-2.2 -9.7,-3 -14.8,-3.7 -10.3,-1.5 -20.8,-3 -31.2,-1.7 -8.6,1.1 -16.7,4.3 -23.2,10.1 -7,6.2 -7.9,15.200001 -9.4,24.000001 -3.3,20.1 -3,41.7 2.1,61.6 z"
       id="XMLID_4_"
       inkscape:connector-curvature="0"
       style="fill:#f4c39f" />
    <path
       d="m -87.99547,218.17639 h -47.9 c -3.8,-5.4 -1.3,-12.8 -2.7,-19.1 -1.3,-6 -5.8,-10.8 -7.6,-16.6 -2,-6.6 -0.4,-13.8 -0.9,-20.7 -0.9,-10.4 -7.2,-20.1 -16.4,-25.1 -8.8,-4.8 -20.1,-5.6 -26.7,-13.1 -3.9,-4.4 -5.5,-10.5 -8.8,-15.4 -3.4,-5 -9,-8.700001 -15,-9.500001 -6.1,-0.7 -11.4,1.900001 -15,6.800001 -4.4,-16.100001 4.8,-34.400001 20.3,-40.700001 -5.6,3 -10.1,7.9 -12.5,13.8 16.3,-19.1 45.9,-18.7 67.5,-10 22.2,8.9 39.2,28.5 40.7,52.900001 0.3,5.3 0.1,10.8 2.3,15.7 2.9,6.3 9.4,10.2 13.4,15.9 4.4,6.3 5.6,14.8 2.9,22 -2.1,5.6 -6.3,11 -5.4,16.9 0.8,5.3 5.5,9 8.7,13.4 2.9,3.8 2.7,7.8 3.1,12.8 z"
       id="XMLID_6_"
       inkscape:connector-curvature="0"
       style="fill:#124272" />
    <path
       d="m -196.19547,155.17639 c -1.4,3.7 -4.9,6.2 -8.6,7.7 -3.9,1.5 -8.3,2.2 -12.2,0.8 -3.9,-1.4 -7.1,-5.3 -6.7,-9.5 0.2,-2.6 2.2,-4.4 4.6,-5.4 4.9,-2.1 10.7,-3.1 15.5,-0.9 3,1.5 5.1,4.7 7.4,7.3 z"
       id="XMLID_14_"
       inkscape:connector-curvature="0"
       style="fill:#041e33" />
    <path
       d="m -212.79547,143.77639 c 3.4,-0.7 7,0.7 9.7,2.9 2.7,2.2 4.6,5.2 6.4,8.2 0.2,0.3 0.4,0.7 0.3,1.1 -0.1,0.3 -0.3,0.5 -0.5,0.7 -3,2.7 -6.5,5 -10.4,5.9 -3.9,0.9 -8.4,0.1 -11.3,-2.6 -3,-2.8 -5.1,-6.3 -2.6,-9.8 2,-3 4.8,-5.7 8.4,-6.4 z"
       id="XMLID_11_"
       inkscape:connector-curvature="0"
       style="fill:#d7e4ed" />
    <path
       d="m -147.29547,150.87639 c -1.8,-3.5 -4,-6.9 -7.1,-9.3 -3.1,-2.4 -7.2,-3.8 -11,-3 -3.5,0.8 -6.5,3.3 -8.5,6.3 -2,3 -3.3,6.4 -4.5,9.8 4.4,4.7 10.7,7.4 17,6 5.3,-1.1 10.4,-5.6 14.1,-9.8 z"
       id="XMLID_15_"
       inkscape:connector-curvature="0"
       style="fill:#d7e4ed" />
    <path
       d="m -145.69547,150.27639 c -2.3,-0.2 -4.4,0.9 -6.3,2.2 -1.9,1.3 -3.4,3 -5.3,4.3 -6.3,4.2 -14.1,0.4 -21.2,-2.1 4.7,6.1 13.3,8.6 20.6,6 5.2,-1.9 8.6,-6.1 12.2,-10.4 z"
       id="XMLID_18_"
       inkscape:connector-curvature="0"
       style="fill:#041e33" />
    <path
       d="m -201.49547,148.87639 c -2,-2.1 -4.9,-3.4 -7.8,-3.6 -2.9,-0.2 -5.9,0.9 -7.9,3 -1.5,1.5 -2.5,3.4 -3.8,5.1 -1.3,1.6 -3.3,3 -5.4,2.7 1.8,-2.4 2.1,-5.6 3.2,-8.4 1.2,-2.8 3.4,-5.2 6,-6.6 3.1,-1.7 7,-2 10.4,-0.9 3.4,1.1 6.3,3.5 8,6.6 1.4,2.5 2.2,5.5 2.4,8.3 -2,-1.6 -3.2,-4.3 -5.1,-6.2 z"
       id="XMLID_13_"
       inkscape:connector-curvature="0"
       style="fill:#041e33" />
    <path
       d="m -143.09547,150.67639 c -2.1,-2.9 -4.2,-5.7 -6.3,-8.6 -1.3,-1.7 -2.5,-3.5 -4.2,-4.7 -2.7,-2.1 -6.3,-2.8 -9.7,-2.6 -4.2,0.2 -8.4,1.6 -11.2,4.7 -3.5,3.9 -3.6,10 -4,15.2 1.9,-4.7 4.1,-9.8 8.1,-13 2.1,-1.7 4.6,-2.8 7.3,-3.2 1,-0.1 2,-0.2 3,0.1 1,0.2 1.9,0.8 2.7,1.4 2.6,2 4.4,4.7 6.6,7.1 2.2,2.4 4.5,3.4 7.7,3.6 z"
       id="XMLID_16_"
       inkscape:connector-curvature="0"
       style="fill:#041e33" />
    <path
       d="m -200.29547,132.67639 c -3.6,-0.4 -7.1,-1 -10.6,-1.8 -2.6,-0.6 -5.2,-1.3 -7.9,-1.3 -3.5,0.1 -6.9,1.5 -9.4,3.9 3.9,-1.7 8.3,-2 12.3,-0.7 1.5,0.5 2.8,1.1 4.3,1.5 3.6,0.9 8.1,0.4 11.3,-1.6 z"
       id="XMLID_19_"
       inkscape:connector-curvature="0"
       style="fill:#124272" />
    <path
       d="m -170.79547,129.27639 c -3.6,1.4 -7.4,2.4 -11.2,3.2 2.1,1.7 5.3,1.4 7.9,0.7 4.2,-1.2 8.2,-3.2 11.8,-5.8 -2.6,0.2 -6.1,1 -8.5,1.9 z"
       id="XMLID_20_"
       inkscape:connector-curvature="0"
       style="fill:#124272" />
    <path
       d="m -195.59547,168.97639 c -1.6,3.2 -5,5.6 -3.5,8.8 1,2.3 3.6,3.4 6,4.1 1.8,0.5 3.8,0.7 5.6,0.4 1.9,-0.4 3.6,-1.5 4.5,-3.2 0.6,-1.3 0.7,-2.7 0.6,-4.1 0,-7.2 -0.7,-14.3 -2.1,-21.3 -0.3,-1.8 -0.8,-3.6 -2.1,-4.8 -4.4,-4 -5.3,3.1 -5.8,5.7 -0.9,4.5 -1,10.3 -3.2,14.4 z"
       id="XMLID_21_"
       inkscape:connector-curvature="0"
       style="fill:#f2a0a0" />
    <path
       d="m -197.89547,192.77639 c 0,0 3.9,-1.9 9.9,-2.5 6,-0.6 19.2,-2.4 19.2,-2.4 0,0 2.9,16 -9.6,20.5 -12.5,4.5 -17.5,-6.3 -19.5,-15.6 z"
       id="XMLID_25_"
       inkscape:connector-curvature="0"
       style="fill:#f92d8a" />
    <path
       d="m -168.79547,187.87639 c -2.2,1.3 -4.5,2.3 -6.9,3.1 -7.1,2.2 -14.7,2 -22.2,1.8 0.1,5.3 3.7,10.1 8.6,12 4.9,1.9 10.8,0.9 14.8,-2.5 4,-3.4 6.3,-9.2 5.7,-14.4 z"
       id="XMLID_22_"
       inkscape:connector-curvature="0"
       style="fill:#890943" />
    <path
       d="m -188.89547,204.97639 c 4.8,1.7 10.5,0.6 14.4,-2.7 2,-1.7 3.6,-4 4.6,-6.5 -7.1,1.3 -14.2,4 -19,9.2 z"
       id="XMLID_121_"
       inkscape:connector-curvature="0"
       style="fill:#b7256e" />
    <path
       d="m -168.99547,192.67639 c 0.3,-1.6 0.4,-3.2 0.2,-4.8 -2.2,1.3 -4.5,2.3 -6.9,3.1 -7.1,2.2 -14.7,2 -22.2,1.8 0,0.8 0.1,1.6 0.3,2.4 9.4,2.1 19.4,1.1 28.6,-2.5 z"
       id="XMLID_143_"
       inkscape:connector-curvature="0"
       style="fill:#d7e4ed" />
    <path
       d="m -205.99547,153.07639 c -1.6,0 -2.8,-1.3 -2.8,-2.8 0,-1.5 1.3,-2.8 2.8,-2.8 0.1,0 0.1,0 0.2,0 -0.8,-0.8 -1.9,-1.3 -3,-1.3 -2.8,0 -5.1,3.1 -5.1,6.9 0,3.8 2.3,6.9 5.1,6.9 2.8,0 5.1,-3.1 5.1,-6.9 0,-0.4 0,-0.7 -0.1,-1.1 -0.5,0.7 -1.3,1.1 -2.2,1.1 z"
       id="XMLID_83_"
       inkscape:connector-curvature="0"
       style="fill:#041e33" />
    <path
       d="m -160.79547,148.97639 c -1.6,0 -2.8,-1.3 -2.8,-2.8 0,-1.3 0.9,-2.4 2.1,-2.7 -0.8,-0.6 -1.7,-1 -2.6,-1 -2.8,0 -5.1,3.1 -5.1,6.9 0,3.8 2.3,6.9 5.1,6.9 2.8,0 5.1,-3.1 5.1,-6.9 0,-0.3 0,-0.7 -0.1,-1 -0.5,0.4 -1.1,0.6 -1.7,0.6 z"
       id="XMLID_112_"
       inkscape:connector-curvature="0"
       style="fill:#041e33" />
    <g
       transform="translate(-750.99547,-41.123611)"
       id="XMLID_84_">
      <g
         id="XMLID_346_">
        <g
           id="XMLID_350_">
          <g
             id="XMLID_357_">
            <g
               id="XMLID_358_">
              <g
                 id="XMLID_359_">
                <path
                   d="m 536.7,216.8 c -18,0 -21.1,-15.4 -21.1,-15.6 l -0.2,-1.2 h 42.7 l -0.2,1.2 c -0.1,0.1 -3.3,15.6 -21.2,15.6 z M 517.9,202 c 1.1,3.4 5.2,12.8 18.8,12.8 13.6,0 17.8,-9.4 18.9,-12.8 z"
                   id="XMLID_360_"
                   inkscape:connector-curvature="0"
                   style="fill:#ffffff" />
              </g>
            </g>
          </g>
          <g
             id="XMLID_351_">
            <g
               id="XMLID_352_">
              <g
                 id="XMLID_353_">
                <path
                   d="m 588.1,216.8 c -18,0 -21.1,-15.4 -21.1,-15.6 l -0.2,-1.2 h 42.7 l -0.2,1.2 c -0.1,0.1 -3.3,15.6 -21.2,15.6 z M 569.2,202 c 1,3.4 5.2,12.8 18.8,12.8 13.6,0 17.8,-9.4 18.9,-12.8 z"
                   id="XMLID_354_"
                   inkscape:connector-curvature="0"
                   style="fill:#ffffff" />
              </g>
            </g>
          </g>
        </g>
        <g
           id="XMLID_347_">
          <g
             id="XMLID_348_">
            <path
               d="m 555.4,210.1 c -0.5,0 -1,-0.4 -1,-0.9 -0.1,-1.5 0.1,-3 0.4,-4.4 0.3,-2.1 0.8,-4.3 2.5,-5.6 1.3,-1 3,-1.2 4.4,-1.2 1.1,0 2.3,0 3.4,0.5 1.6,0.7 2.5,2.1 3,3.1 0.6,1.2 0.8,2.5 1.1,3.8 l 0.7,3.4 c 0.1,0.5 -0.2,1.1 -0.8,1.2 -0.5,0.1 -1.1,-0.2 -1.2,-0.8 l -0.7,-3.4 c -0.2,-1.1 -0.5,-2.3 -1,-3.3 -0.5,-1 -1.2,-1.8 -2,-2.2 -0.8,-0.4 -1.7,-0.4 -2.6,-0.4 -1,0 -2.3,0.1 -3.2,0.8 -1.1,0.9 -1.5,2.5 -1.8,4.3 -0.2,1.3 -0.4,2.7 -0.4,4 0.2,0.6 -0.2,1.1 -0.8,1.1 0,0 0,0 0,0 z"
               id="XMLID_349_"
               inkscape:connector-curvature="0"
               style="fill:#ffffff" />
          </g>
        </g>
      </g>
    </g>
  </g>
  <path
     d="m495.714844 203.238281h-34.113282c-3.472656 0-6.523437-2.289062-7.503906-5.621093-4.167968-14.148438-9.824218-27.660157-16.765625-40.371094-1.667969-3.050782-1.128906-6.832032 1.328125-9.289063l24.152344-24.152343c6.363281-6.359376 6.363281-16.667969 0-23.03125l-51.585938-51.585938c-6.363281-6.359375-16.671874-6.359375-23.03125 0l-24.15625 24.152344c-2.457031 2.457031-6.238281 2.996094-9.289062 1.328125-12.710938-6.941407-26.21875-12.597657-40.367188-16.765625-3.332031-.980469-5.621093-4.03125-5.621093-7.503906v-34.113282c0-8.996094-7.289063-16.285156-16.285157-16.285156h-72.957031c-8.992187 0-16.285156 7.289062-16.285156 16.285156v34.113282c0 3.472656-2.285156 6.523437-5.617187 7.503906-14.152344 4.171875-27.660157 9.824218-40.371094 16.769531-3.050782 1.664063-6.832032 1.128906-9.289063-1.332031l-24.152343-24.152344c-6.359376-6.359375-16.667969-6.359375-23.03125 0l-51.585938 51.585938c-6.363281 6.363281-6.363281 16.671874 0 23.03125l24.152344 24.15625c2.457031 2.457031 2.996094 6.234374 1.328125 9.289062-6.941407 12.707031-12.597657 26.21875-16.765625 40.367188-.980469 3.332031-4.03125 5.621093-7.503906 5.621093h-34.113282c-8.996094 0-16.285156 7.289063-16.285156 16.28125v72.960938c0 8.992187 7.289062 16.28125 16.285156 16.28125h34.113282c3.46875 0 6.523437 2.289062 7.503906 5.621093 4.167968 14.148438 9.824218 27.660157 16.765625 40.367188 1.667969 3.050781 1.128906 6.832031-1.328125 9.289062l-24.152344 24.15625c-6.363281 6.359376-6.363281 16.667969 0 23.03125l51.585938 51.585938c6.363281 6.359375 16.671874 6.359375 23.03125 0l24.152343-24.152344c2.457031-2.460937 6.238281-2.996094 9.289063-1.332031 12.710937 6.945313 26.21875 12.597656 40.371094 16.769531 3.332031.980469 5.617187 4.03125 5.617187 7.503906v34.113282c0 8.996094 7.292969 16.285156 16.289063 16.285156h72.953124c8.996094 0 16.285157-7.289062 16.285157-16.285156v-34.113282c0-3.472656 2.289062-6.523437 5.621093-7.503906 14.148438-4.167968 27.65625-9.824218 40.367188-16.765625 3.050781-1.667969 6.832031-1.128906 9.289062 1.328125l24.15625 24.152344c6.359376 6.359375 16.667969 6.363281 23.027344 0l51.589844-51.585938c6.363281-6.363281 6.363281-16.671874 0-23.03125l-24.152344-24.152343c-2.460937-2.460938-2.996094-6.238281-1.328125-9.289063 6.941407-12.710937 12.59375-26.222656 16.765625-40.371094.980469-3.332031 4.03125-5.617187 7.503906-5.617187h34.117188c8.992188 0 16.28125-7.292969 16.28125-16.285156v-72.957031c0-8.996094-7.289062-16.285157-16.285156-16.285157zm-239.714844 197.0625c-79.695312 0-144.300781-64.605469-144.300781-144.300781s64.605469-144.300781 144.300781-144.300781 144.304688 64.605469 144.304688 144.300781-64.609376 144.300781-144.304688 144.300781zm0 0"
     fill="#e4eaf8"
     id="path26" />
</svg>
