<?xml version="1.0" encoding="UTF-8" standalone="no"?>
<svg
   xmlns:dc="http://purl.org/dc/elements/1.1/"
   xmlns:cc="http://creativecommons.org/ns#"
   xmlns:rdf="http://www.w3.org/1999/02/22-rdf-syntax-ns#"
   xmlns:svg="http://www.w3.org/2000/svg"
   xmlns="http://www.w3.org/2000/svg"
   xmlns:xlink="http://www.w3.org/1999/xlink"
   xmlns:sodipodi="http://sodipodi.sourceforge.net/DTD/sodipodi-0.dtd"
   xmlns:inkscape="http://www.inkscape.org/namespaces/inkscape"
   id="master-artboard"
   viewBox="0 0 841.9 595.3"
   version="1.1"
   x="0px"
   y="0px"
   width="841.9000244140625px"
   height="595.2999877929688px"
   enable-background="new 0 0 841.9 595.3"
   sodipodi:docname="teacher1.svg"
   inkscape:version="0.92.3 (2405546, 2018-03-11)">
  <metadata
     id="metadata234">
    <rdf:RDF>
      <cc:Work
         rdf:about="">
        <dc:format>image/svg+xml</dc:format>
        <dc:type
           rdf:resource="http://purl.org/dc/dcmitype/StillImage" />
      </cc:Work>
    </rdf:RDF>
  </metadata>
  <sodipodi:namedview
     pagecolor="#ffffff"
     bordercolor="#666666"
     borderopacity="1"
     objecttolerance="10"
     gridtolerance="10"
     guidetolerance="10"
     inkscape:pageopacity="0"
     inkscape:pageshadow="2"
     inkscape:window-width="1680"
     inkscape:window-height="987"
     id="namedview232"
     showgrid="false"
     inkscape:zoom="1.0213111"
     inkscape:cx="198.57362"
     inkscape:cy="187.22767"
     inkscape:window-x="1672"
     inkscape:window-y="-8"
     inkscape:window-maximized="1"
     inkscape:current-layer="layer2" />
  <defs
     id="defs3">
    <path
       d="M 0 0 H 841.900024 V 595.299988 H 0 V 0 Z"
       id="XMLID_400_" />
  </defs>
  <clipPath
     id="XMLID_232_">
    <use
       overflow="visible"
       xlink:href="#XMLID_400_"
       id="use5" />
  </clipPath>
  <g
     inkscape:groupmode="layer"
     id="layer1"
     inkscape:label="Layer 1"
     sodipodi:insensitive="true">
    <g
       transform="translate(0,-2.2070312e-6)"
       id="XMLID_78_">
      <path
         style="fill:#15b8b3"
         inkscape:connector-curvature="0"
         d="M 0,0 H 841.90002 V 595.29999 H 0 Z"
         id="XMLID_77_" />
      <path
         style="fill:#00536e"
         inkscape:connector-curvature="0"
         d="M 0,595.29999 H 841.90002 L 0,0 Z"
         id="XMLID_76_" />
    </g>
    <path
       inkscape:connector-curvature="0"
       style="fill:#131c2d"
       d="m -21.5,-16.900002 h 741 V 455.80001 h -741 z"
       id="XMLID_306_" />
    <path
       inkscape:connector-curvature="0"
       style="fill:#f56c7c"
       d="m -18.4,-22.900002 h 741 V 449.80001 h -741 z"
       id="XMLID_2_" />
    <path
       inkscape:connector-curvature="0"
       style="fill:#ffffff"
       d="M -18.4,-22.900002 H 690.50003 V 418.30001 H -18.4 Z"
       id="XMLID_1_" />
    <path
       inkscape:connector-curvature="0"
       style="fill:#ead9d6"
       id="XMLID_74_"
       d="M 690.5,418.3 H -18.4 V -22.900002 C 119.5,241.3 362.1,380.9 690.5,418.3 Z" />
    <path
       inkscape:connector-curvature="0"
       style="fill:#00536e"
       id="XMLID_322_"
       d="m 818.6,547.9 c 21,-2.7 29.9,-11.4 29.9,-11.4 -15,0.9 -25.3,7.1 -29.5,10 2.3,-7.7 5.1,-14.7 8.6,-20.9 18.1,-13.5 21.9,-34.8 21.9,-34.8 -15,10.9 -21,23.9 -23.3,31.1 -2.5,4.2 -4.7,8.7 -6.6,13.5 -1.5,-4.1 -8,-19.7 -23.3,-30.1 0,0 11.2,24.7 23.1,30.8 -2.5,6.3 -4.5,13.2 -6,20.6 -0.2,0.9 -0.3,1.8 -0.5,2.7 -1.1,-2.8 -3.3,-7.4 -7.2,-12.5 0.3,-0.6 0.4,-0.9 0.4,-0.9 -0.3,0.1 -0.5,0.3 -0.8,0.4 -3.3,-4.2 -7.9,-8.7 -14,-12.8 0,0 2.4,7 9.2,15.5 -13.9,9.1 -21.8,25 -24.6,31.3 -2.1,-13.2 -4.6,-26.4 -7.9,-39.5 24.9,-20.8 31.3,-45 31.3,-45 -22.2,15.5 -29.7,35.5 -31.8,43 -0.5,-1.9 -1,-3.9 -1.6,-5.8 -3.4,-11.8 -7.5,-22.9 -12.3,-33 18.7,-9 33.9,-50 33.9,-50 -25.4,18.1 -33.1,46.2 -34,49.7 -3.2,-6.8 -6.8,-13.3 -10.6,-19.3 -3.6,-10.4 -14.4,-34.1 -43,-53.8 0,0 9.3,35.7 41.7,57.3 6.2,10 11.5,21.1 16,33.3 -6,-4.3 -24.2,-15.6 -50.1,-17.1 0,0 15.8,14.3 50.6,18.5 1.8,4.9 3.4,9.9 4.9,15 2.7,9.4 4.9,19 6.8,28.7 -6.1,-5.4 -26.8,-21.8 -54.5,-20.5 0,0 22.2,14.2 54.8,21.8 2.3,12 4.1,24.1 5.8,36 -7.3,-4.9 -24.6,-14.6 -48.5,-15.9 0,0 15.2,13.8 48.8,18.3 0.1,1 0.3,2 0.4,3 l 3,-0.3 c -0.1,-0.8 -0.2,-1.6 -0.3,-2.4 0.1,0 0.3,0 0.4,0 0,0 -0.2,-0.1 -0.4,-0.3 -1,-6.7 -1.9,-13.4 -3,-20.2 6.2,-5 11.2,-9.9 15.2,-14.3 2.5,3.9 8,11.2 18.2,19 -0.4,4.9 -0.7,9.8 -1,14.6 l 3,0.3 c 0,-0.7 0.1,-1.3 0.1,-2 20.2,-2.8 28.8,-11.3 28.8,-11.3 -14.1,0.8 -24.1,6.4 -28.7,9.5 0.5,-7.3 1,-14.7 1.8,-22.1 19.5,-4.8 32.3,-13.4 32.3,-13.4 -16.4,-0.8 -28,8.3 -32.2,12.1 0.7,-5.7 1.5,-11.4 2.7,-17.1 0.5,-3.1 1.3,-6.3 2.1,-9.3 z m -26,18.5 c 4.9,-5.7 8.2,-10.6 10.3,-14.2 2.6,3 5.8,6.1 9.6,9.1 -1.4,7.9 -2.3,16 -2.9,24 -2.4,-4.5 -8.2,-13.7 -17,-18.9 z" />
    <g
       transform="translate(0,-2.2070312e-6)"
       id="XMLID_148_">
      <g
         id="XMLID_48_">
        <g
           id="XMLID_252_">
          <path
             style="fill:#fbabaa"
             inkscape:connector-curvature="0"
             id="XMLID_253_"
             d="m 776.5,605.3 c -2.4,-25.1 -4.9,-51 -10.7,-76 -6.4,-27.8 -16.5,-51.3 -29.9,-69.8 l 2.4,-1.8 c 13.6,18.8 23.8,42.7 30.3,70.8 5.8,25.1 8.3,51.2 10.7,76.4 z" />
        </g>
      </g>
      <path
         style="fill:#fbabaa"
         inkscape:connector-curvature="0"
         id="XMLID_52_"
         d="m 707.1,415.3 c 0,0 8.3,40.2 42.2,62.9 -0.1,0 -5.6,-35.2 -42.2,-62.9 z" />
      <path
         style="fill:#fbabaa"
         inkscape:connector-curvature="0"
         id="XMLID_54_"
         d="m 757.6,493.6 c 0,0 8.2,-32.7 36.1,-53.3 0,0 -16.9,43.9 -36.1,53.3 z" />
      <path
         style="fill:#fbabaa"
         inkscape:connector-curvature="0"
         id="XMLID_55_"
         d="m 769.3,538 c 0,0 5.8,-28.3 34.5,-49 -0.1,0 -7.7,26.7 -34.5,49 z" />
      <path
         style="fill:#fbabaa"
         inkscape:connector-curvature="0"
         id="XMLID_56_"
         d="m 763.2,513.5 c 0,0 -19.5,-18 -51.5,-19.9 0,0 15.7,15.7 51.5,19.9 z" />
      <path
         style="fill:#fbabaa"
         inkscape:connector-curvature="0"
         id="XMLID_59_"
         d="m 779.7,602.5 c 0,0 -19.5,-18 -51.5,-19.9 0,0 15.6,15.8 51.5,19.9 z" />
      <path
         style="fill:#fbabaa"
         inkscape:connector-curvature="0"
         id="XMLID_57_"
         d="m 773.2,561.6 c 0,0 -22.2,-25.3 -55.5,-23.6 0,0 22.4,15.6 55.5,23.6 z" />
      <path
         style="fill:#fbabaa"
         inkscape:connector-curvature="0"
         id="XMLID_58_"
         d="m 775.7,581.8 c 0,0 10.7,-28.8 32.7,-39.5 0,0 -7.4,18.9 -32.7,39.5 z" />
    </g>
    <g
       transform="translate(0,-2.2070312e-6)"
       id="XMLID_67_">
      <g
         id="XMLID_245_">
        <path
           style="fill:#fbabaa"
           inkscape:connector-curvature="0"
           id="XMLID_250_"
           d="m 811.7,601.4 -3,-0.3 c 1.5,-15.7 3,-31.9 6.7,-47.5 4.1,-17.6 10.4,-32.4 18.9,-44.2 l 2.4,1.8 c -8.3,11.4 -14.5,25.9 -18.4,43.1 -3.6,15.5 -5.2,31.5 -6.6,47.1 z" />
      </g>
    </g>
    <path
       inkscape:connector-curvature="0"
       style="fill:#fbabaa"
       id="XMLID_66_"
       d="m 854.2,483.4 c 0,0 -5.2,24.9 -26.2,39.1 0,0 3.4,-21.9 26.2,-39.1 z" />
    <path
       inkscape:connector-curvature="0"
       style="fill:#fbabaa"
       id="XMLID_65_"
       d="m 822.8,532 c 0,0 -5.1,-20.3 -22.4,-33.1 0,0 10.5,27.3 22.4,33.1 z" />
    <path
       inkscape:connector-curvature="0"
       style="fill:#fbabaa"
       id="XMLID_64_"
       d="m 815.6,559.6 c 0,0 -3.6,-17.6 -21.4,-30.4 0,-0.1 4.7,16.5 21.4,30.4 z" />
    <path
       inkscape:connector-curvature="0"
       style="fill:#fbabaa"
       id="XMLID_63_"
       d="m 819.3,544.4 c 0,0 12.1,-11.2 32,-12.4 0,0 -9.7,9.8 -32,12.4 z" />
    <path
       inkscape:connector-curvature="0"
       style="fill:#fbabaa"
       id="XMLID_62_"
       d="m 809.2,599.7 c 0,0 12.1,-11.2 32,-12.4 -0.1,0 -9.8,9.8 -32,12.4 z" />
    <path
       inkscape:connector-curvature="0"
       style="fill:#fbabaa"
       id="XMLID_61_"
       d="m 813.1,574.3 c 0,0 13.8,-15.7 34.5,-14.7 0,0 -13.9,9.7 -34.5,14.7 z" />
    <path
       inkscape:connector-curvature="0"
       style="fill:#fbabaa"
       id="XMLID_60_"
       d="m 811.6,586.8 c 0,0 -6.7,-17.9 -20.3,-24.5 0,0 4.6,11.7 20.3,24.5 z" />
    <path
       inkscape:connector-curvature="0"
       style="fill:#00536e"
       d="m 760.29999,341.70001 h 97.8 v 24.2 h -97.8 z"
       id="XMLID_350_" />
    <path
       inkscape:connector-curvature="0"
       style="fill:#ff7917"
       d="m 763.20001,337 h 97.8 v 24.2 h -97.8 z"
       id="XMLID_69_" />
    <path
       inkscape:connector-curvature="0"
       style="fill:#ff7917"
       d="M 0,489 H 295 V 639 H 0 Z"
       id="XMLID_70_" />
    <path
       inkscape:connector-curvature="0"
       style="fill:#873c0a"
       d="M 0,503.60001 H 280 V 639 H 0 Z"
       id="XMLID_71_" />
    <path
       inkscape:connector-curvature="0"
       style="fill:#ce6117"
       d="M -6,509 H 274 V 644.39999 H -6 Z"
       id="XMLID_86_" />
    <path
       inkscape:connector-curvature="0"
       style="fill:#ff7917"
       d="m 0,574.29999 h 280 v 21 H 0 Z"
       id="XMLID_72_" />
    <path
       inkscape:connector-curvature="0"
       style="fill:#dceeff"
       id="XMLID_73_"
       d="m 7.3,574.3 v 0 C 3.2,574.3 0,571 0,567 v -44.8 c 0,-4.1 3.3,-7.3 7.3,-7.3 v 0 c 4.1,0 7.3,3.3 7.3,7.3 V 567 c 0.1,4 -3.2,7.3 -7.3,7.3 z" />
    <path
       inkscape:connector-curvature="0"
       style="fill:#4e6bcf"
       id="XMLID_75_"
       d="m 22,574.3 v 0 c -4.1,0 -7.3,-3.3 -7.3,-7.3 v -44.8 c 0,-4.1 3.3,-7.3 7.3,-7.3 v 0 c 4.1,0 7.3,3.3 7.3,7.3 V 567 c 0,4 -3.2,7.3 -7.3,7.3 z" />
    <path
       inkscape:connector-curvature="0"
       style="fill:#fcac0f"
       d="m 14.7,524.70001 h 14.7 v 3 H 14.7 Z"
       id="XMLID_166_" />
    <path
       inkscape:connector-curvature="0"
       style="fill:#fcac0f"
       d="m 14.7,559 h 14.7 v 4 H 14.7 Z"
       id="XMLID_251_" />
    <path
       inkscape:connector-curvature="0"
       style="fill:#ffb835"
       id="XMLID_301_"
       d="m 65.1,574.3 v 0 c -4.1,0 -7.3,-3.3 -7.3,-7.3 v -44.8 c 0,-4.1 3.3,-7.3 7.3,-7.3 v 0 c 4.1,0 7.3,3.3 7.3,7.3 V 567 c 0,4 -3.3,7.3 -7.3,7.3 z" />
    <path
       inkscape:connector-curvature="0"
       style="fill:#f16276"
       d="m 57.799999,524.70001 h 14.7 v 3 h -14.7 z"
       id="XMLID_283_" />
    <path
       inkscape:connector-curvature="0"
       style="fill:#f16276"
       d="m 57.799999,559 h 14.7 v 4 h -14.7 z"
       id="XMLID_260_" />
    <path
       inkscape:connector-curvature="0"
       style="fill:#e569af"
       id="XMLID_323_"
       d="m 79.8,574.3 v 0 c -4.1,0 -7.3,-3.3 -7.3,-7.3 v -44.8 c 0,-4.1 3.3,-7.3 7.3,-7.3 v 0 c 4.1,0 7.3,3.3 7.3,7.3 V 567 c 0,4 -3.3,7.3 -7.3,7.3 z" />
    <path
       inkscape:connector-curvature="0"
       style="fill:#ffffff"
       d="M 72.400002,524.70001 H 87.1 v 3 H 72.400002 Z"
       id="XMLID_317_" />
    <path
       inkscape:connector-curvature="0"
       style="fill:#ffffff"
       d="M 72.400002,559 H 87.1 v 4 H 72.400002 Z"
       id="XMLID_314_" />
    <path
       inkscape:connector-curvature="0"
       style="fill:#106a85"
       id="XMLID_281_"
       d="m 52.7,572.8 v 0 c -3.9,1.3 -8,-0.9 -9.2,-4.7 L 29.7,525.5 c -1.3,-3.9 0.9,-8 4.7,-9.2 v 0 c 3.9,-1.3 8,0.9 9.2,4.7 l 13.8,42.6 c 1.3,3.8 -0.9,7.9 -4.7,9.2 z" />
    <path
       inkscape:connector-curvature="0"
       style="fill:#ffffff;stroke-width:0.9999696"
       d="m 30.396085,527.92113 13.97823,-4.54818 0.9282,2.8527 -13.97823,4.54818 z"
       id="XMLID_269_" />
    <path
       inkscape:connector-curvature="0"
       style="fill:#ffffff;stroke-width:0.9999696"
       d="m 41.032064,560.53928 13.97823,-4.54818 1.237601,3.8036 -13.978231,4.54818 z"
       id="XMLID_155_" />
    <path
       inkscape:connector-curvature="0"
       style="fill:#4e6bcf"
       id="XMLID_333_"
       d="m 110.5,572.8 v 0 c -3.9,1.3 -8,-0.9 -9.2,-4.7 L 87.5,525.5 c -1.3,-3.9 0.9,-8 4.7,-9.2 v 0 c 3.9,-1.3 8,0.9 9.2,4.7 l 13.8,42.6 c 1.3,3.8 -0.8,7.9 -4.7,9.2 z" />
    <path
       inkscape:connector-curvature="0"
       style="fill:#fcac0f;stroke-width:0.9999696"
       d="m 88.19712,527.93841 13.97823,-4.54818 0.9282,2.8527 -13.97823,4.54818 z"
       id="XMLID_330_" />
    <path
       inkscape:connector-curvature="0"
       style="fill:#fcac0f;stroke-width:0.9999696"
       d="m 98.83319,560.55656 13.97824,-4.54818 1.2376,3.8036 -13.97824,4.54818 z"
       id="XMLID_327_" />
    <path
       inkscape:connector-curvature="0"
       style="fill:#00536e"
       id="XMLID_388_"
       d="m 874.7,49.999998 v -14 H 742.2 v 14 h 19.3 C 778.2,142.3 773.1,238.5 746.6,328.6 c 33.6,3.9 67.7,7 101.2,2.2 l 1.4,-82.5 H 864 v -6 h -14.7 l 1.5,-84.7 h 16.6 v -6 h -16.5 l 0.3,-17.8 h 16.2 v -6 h -16.1 l 0.3,-17.8 h 15.8 v -6 H 851.8 L 852,85.999998 h 15.3 v -6 h -15.2 l 0.5,-30 z" />
    <path
       inkscape:connector-curvature="0"
       style="fill:#ffffff"
       id="XMLID_68_"
       d="m 851.1,319.8 c -33.5,4.8 -67.6,1.7 -101.2,-2.2 27,-92 31.8,-190.4 13.8,-284.500002 H 856 Z" />
    <path
       inkscape:connector-curvature="0"
       style="fill:#ff7917"
       d="M 745.5,24.999998 H 878 v 14 H 745.5 Z"
       id="XMLID_50_" />
    <path
       inkscape:connector-curvature="0"
       style="fill:#b7cbd4"
       d="m 791.29999,68.999998 h 79.3 v 6 h -79.3 z"
       id="XMLID_90_" />
    <path
       inkscape:connector-curvature="0"
       style="fill:#b7cbd4"
       d="m 791.29999,92.799998 h 79.3 v 6 h -79.3 z"
       id="XMLID_162_" />
    <path
       inkscape:connector-curvature="0"
       style="fill:#b7cbd4"
       d="m 791.29999,116.7 h 79.3 v 6 h -79.3 z"
       id="XMLID_272_" />
    <path
       inkscape:connector-curvature="0"
       style="fill:#b7cbd4"
       d="m 791.29999,140.5 h 79.3 v 6 h -79.3 z"
       id="XMLID_280_" />
    <path
       inkscape:connector-curvature="0"
       style="fill:#b7cbd4"
       d="m 788,231.3 h 79.3 v 6 H 788 Z"
       id="XMLID_290_" />
    <path
       inkscape:connector-curvature="0"
       style="fill:#f56c7c"
       d="m 791.29999,162.3 h 58 v 51.2 h -58 z"
       id="XMLID_159_" />
  </g>
  <g
     inkscape:groupmode="layer"
     id="layer2"
     inkscape:label="Layer 2">
    <text
       xml:space="preserve"
       style="font-style:normal;font-variant:normal;font-weight:normal;font-stretch:normal;font-size:40.99393845px;line-height:1.25;font-family:Arial;-inkscape-font-specification:Arial;text-align:center;letter-spacing:0px;word-spacing:0px;text-anchor:middle;fill:#000000;fill-opacity:1;stroke:none;stroke-width:1.92159092"
       x="217.26433"
       y="85.083351"
       id="text1262"><tspan
         sodipodi:role="line"
         id="tspan1260"
         x="217.26433"
         y="85.083351"
         style="stroke-width:1.92159092">[text1]</tspan><tspan
         sodipodi:role="line"
         x="217.26433"
         y="136.32578"
         id="tspan1270"
         style="stroke-width:1.92159092">[text2]</tspan></text>
    <text
       xml:space="preserve"
       style="font-style:normal;font-variant:normal;font-weight:normal;font-stretch:normal;font-size:42.66666794px;line-height:1.25;font-family:Arial;-inkscape-font-specification:Arial;text-align:center;letter-spacing:0px;word-spacing:0px;text-anchor:middle;fill:#000000;fill-opacity:1;stroke:none"
       x="329.3154"
       y="234.23729"
       id="text1276"><tspan
         sodipodi:role="line"
         id="tspan1274"
         x="329.3154"
         y="234.23729">[text3]</tspan></text>
  </g>
  <g
     inkscape:groupmode="layer"
     id="layer3"
     inkscape:label="Layer 3"
     sodipodi:insensitive="true">
    <path
       inkscape:connector-curvature="0"
       style="opacity:0.3;fill:#111227"
       id="XMLID_556_"
       d="m 669.2,491.40001 c 1.1,-0.7 2.3,-1.5 3.3,-2.4 14.1,-11.3 17.4,-31.3 13.6,-48.6 -3.8,-17.4 -13.4,-33.1 -21.7,-49 -7,-13.6 -13.2,-27.6 -18.5,-41.8 -3.5,-9.5 -6.6,-19.2 -11.8,-28 -5.2,-8.8 -13,-15.3 -22.5,-19.5 0,0 0,0 0,0 -4,-2.2 -8.4,-3.7 -12.7,-5.1 -6,-1.9 -12.2,-3.6 -18.5,-5.1 -0.1,-3.2 -0.3,-8.3 0,-12.8 0,-0.4 0,-0.7 0.1,-1.1 0,-0.1 0,-0.2 0,-0.2 0,-0.3 0.1,-0.6 0.1,-0.9 0,-0.1 0,-0.1 0,-0.2 0,0 0,0 0,-0.1 1.2,-0.4 2.3,-0.8 3.4,-1.3 v 0 c 0,0 0,0 0,0 1,-0.4 2,-0.9 3,-1.4 0,0 0.1,0 0.1,0 0.9,-0.5 1.9,-1 2.8,-1.5 0.1,0 0.1,-0.1 0.2,-0.1 0.9,-0.5 1.8,-1.1 2.7,-1.7 0.1,0 0.1,-0.1 0.2,-0.1 0.9,-0.6 1.7,-1.2 2.6,-1.9 0.4,-0.3 0.8,-0.7 1.3,-1.1 0.1,-0.1 0.1,-0.1 0.2,-0.2 0.4,-0.4 0.8,-0.7 1.1,-1.1 0,0 0,0 0,0 v 0 c 5.4,-5.8 8,-14.3 9.9,-22.9 0.4,0 0.8,-0.1 1.1,-0.2 15,-5.5 24.3,-20.8 25.3,-36.2 0.2,-2.5 0.1,-5.1 -0.9,-7.4 -0.8,-1.9 -2.4,-3.7 -4.4,-4.4 0,-1.1 -0.2,-2.30001 -0.5,-3.40001 -0.6,-2.4 -1.9,-4.6 -2.5,-7 -1.3,-4.9 0,-10.1 -1.5,-14.9 -2.2,-6.9 -9.4,-11 -16.4,-13.8 -6.9,-2.8 -14.5,-5.2 -19.3,-10.7 -3.1,-3.6 -4.7,-8 -7.4,-11.9 -6.5,-9.5 -18.6,-14.4 -30.4,-15.5 -11.2,-1.1 -22.5,0.8 -32.6,5.2 -3.5,1.6 -7,3.5 -9.4,6.5 -2.4,2.9 -3.6,7 -2.3,10.5 0.8,2.2 2.6,4 3.8,6.1 1.2,2.1 1.9,4.8 0.4,6.7 -1.2,1.6 -3.5,2.2 -5.2,3.4 -3.1,2.4 -3.1,7.5 0,10 0.9,0.7 2,1.3 2.2,2.3 0.2,0.9 -0.3,1.8 -1,2.6 -2,2.3 -4.7,3.9 -6.8,6.1 -2.1,2.2 -3.5,5.5 -1.9,8.2 1.1,1.9 3.4,3 4.7,4.8 2,2.90001 0.7,6.70001 0.5,10.10001 -0.2,3.6 1,7.1 2.8,10.4 -0.2,0 -0.5,0.1 -0.7,0.2 -0.8,0.4 -1.3,1.2 -1.5,2 -1.1,3.4 0.5,7.2 2.2,10.7 4.4,8.7 9.9,17.4 18.2,22.7 2.5,5.5 5.5,10.7 8.9,15.3 v 0 0 c 1.4,1.8 2.8,3.5 4.3,5.1 0,0 0.1,0.1 0.1,0.1 0.7,0.7 1.4,1.4 2.1,2 0.1,0.1 0.2,0.2 0.3,0.3 0.8,0.7 1.6,1.4 2.5,2.1 0.6,0.5 1.2,0.9 1.8,1.3 0,0 0.1,0.1 0.1,0.1 0.6,0.4 1.2,0.8 1.7,1.1 0,0 0,0 0,0 v 0 c 3.4,2 7,3.5 10.8,4.3 0.2,0.7 0.3,1.4 0.4,2.1 0.1,0.5 0.1,1 0.2,1.5 0,0.3 0.1,0.6 0.1,0.9 0.1,0.6 0.1,1.2 0.1,1.8 0,0.1 0,0.1 0,0.2 0.1,1.4 0.1,2.8 0,4.1 v 0 c -0.1,1.2 -0.2,2.4 -0.3,3.6 -0.3,0.2 -0.6,0.4 -0.9,0.6 -0.1,0 -0.1,0.1 -0.2,0.1 -0.7,0.4 -1.4,0.8 -2.1,1.2 -0.2,0.1 -0.5,0.3 -0.7,0.4 -0.5,0.3 -1,0.5 -1.5,0.8 -0.3,0.1 -0.5,0.3 -0.8,0.4 -0.6,0.3 -1.1,0.6 -1.7,0.9 -0.2,0.1 -0.3,0.2 -0.5,0.3 v 0 c -8.2,4.1 -17,7.4 -24.4,12.7 -15.9,11.5 -23.1,30.6 -30,48.5 -6.9,17.9 -15.5,36.8 -32.6,46.5 -18.5,-15.3 -37.7,-29.7 -53.1,-47.9 -1.1,0.9 -2.3,1.8 -3.5,2.7 -1.8,-2.1 -3.7,-4.3 -5.5,-6.4 -1.6,1.3 -3.1,2.6 -4.8,3.9 -3,-4 -4.7,-8.7 -5,-13.5 -0.1,-2 0.1,-4 -0.3,-5.9 -0.5,-2.9 -1.9,-5.5 -3.3,-8 -0.6,-1.2 -1.3,-2.3 -2.3,-3.2 -1,-0.8 -2.2,-1.4 -3.4,-1.8 -1.3,-0.5 -2.6,-1 -3.9,-1.6 -0.2,-0.5 -0.4,-1 -0.8,-1.6 -2.6,-4.9 -5.3,-9.9 -7.4,-14.9 -2,-4.4 -3.9,-8.8 -4.8,-13.5 -0.3,-1.5 -1.1,-3.6 -2.7,-3.3 -0.7,0.1 -1.1,0.7 -1.5,1.3 -2.6,4.3 -0.8,9.7 1.1,14.4 1.7,4.4 3.5,8.8 5.2,13.3 -0.6,-0.3 -1.3,-0.5 -2,-0.3 -1,0.2 -1.4,1.2 -1.3,2.2 -2.4,0 -5,1.8 -5.7,3.8 -0.4,1.2 -0.3,2.4 0,3.6 0,0 0,0 0,0 -2.8,0.7 -1.9,6.3 -1.2,8 0.3,0.6 0.6,1.1 0.9,1.7 -1.1,1.1 -1.2,3.4 -0.8,5.3 0.5,2.2 2.1,4 3.7,5.6 0.1,0.1 0.3,0.3 0.4,0.4 2.1,4.9 6.8,8.9 12.2,10.4 1.8,0.5 3.7,0.8 5.5,0.9 0.2,0.3 0.4,0.6 0.6,1 1.2,1.8 2.3,3.6 3.5,5.4 -1.7,1.1 -3.5,2.1 -5.3,3.1 0.6,2.1 1.5,4 2.7,5.9 -0.7,0.3 -1.5,0.7 -2.2,1 11.5,27.4 30.2,54.4 58.1,67.4 5,2.3 10.4,4.2 15.9,4.4 14.3,0.5 26.2,-9.7 35.3,-20.1 10.6,-12.2 19.7,-25.7 26.9,-40 -1.3,10.6 -2.7,21.2 -4,31.7 -1.2,9.1 2.2,18.1 8.8,24.4 0.3,7.9 0.6,15.8 0.9,23.7 -5.8,13.9 -5.1,29 -3.7,44 3,32.3 8.3,64.6 6.7,96.9 l 56.5,-0.2 c -0.1,2.2 -0.4,4.3 -0.9,6.4 h 23.4 c -0.5,-2.2 -1,-4.3 -1.5,-6.5 l 76.9,-0.2 c 2.9,-30.6 -0.9,-61.4 -4.6,-92 -0.8,-8.3 -1.8,-16.7 -2.8,-25.2 z" />
    <path
       inkscape:connector-curvature="0"
       style="fill:#131c2d"
       id="XMLID_7_"
       d="m 522.5,608.90001 c 2.2,-33.9 -2.6,-67.8 -5,-101.8 -1.1,-15.7 -1.5,-31.6 4.5,-46.2 l 9.4,-7.5 c 42.1,0 83.1,-4.7 125.1,-1.9 2.4,0.2 5.1,0.5 6.7,2.3 1.3,1.5 2.1,4.2 4.1,4.2 1.7,0 1.6,2.4 1.7,4.2 1.6,16.5 3.3,33 4.9,49.5 3.2,32.1 6.3,64.5 2.9,96.6 z" />
    <path
       inkscape:connector-curvature="0"
       style="fill:#070b11"
       id="XMLID_6_"
       d="m 578,615.50001 c 3.2,-12.1 -1.3,-24.7 -2,-37.1 -0.8,-13.9 3.2,-27.7 9.1,-40.4 5.2,26.2 11.2,51.4 16.4,77.5 z" />
    <path
       inkscape:connector-curvature="0"
       style="fill:#ffffff"
       id="XMLID_5_"
       d="m 640.7,462.90001 c 0.1,1.8 -1.9,2.8 -3.6,3.4 -37.1,13.3 -79.1,11 -115,-5.3 -0.2,-11.8 -0.4,-23.7 -0.6,-35.5 36.4,14.2 78.2,13.6 115.1,0.9 1,11.9 3.8,24.6 4.1,36.5 z" />
    <path
       inkscape:connector-curvature="0"
       style="fill:#f4c39f"
       id="XMLID_39_"
       d="m 374.8,291.30001 c -1.9,-4.6 -3.8,-9.2 -4.6,-14.2 -0.3,-1.6 -1.1,-3.8 -2.7,-3.5 -0.7,0.1 -1.2,0.7 -1.5,1.3 -2.6,4.5 -0.9,10.2 0.8,15.1 1.9,5.2 3.7,10.4 5.6,15.6 0.3,0.9 0.7,1.9 1.4,2.6 0.5,0.5 1.2,0.8 1.9,1.2 4.9,2.3 9.7,4.7 6.2,-2.5 -2.4,-5 -5,-10.3 -7.1,-15.6 z" />
    <path
       inkscape:connector-curvature="0"
       style="fill:#af694e"
       id="XMLID_168_"
       d="m 368.4,294.40001 c 1.3,3.8 2.7,7.5 4,11.3 0.3,0.9 0.7,1.9 1.4,2.6 0.5,0.5 1.2,0.8 1.9,1.2 4.9,2.3 9.7,4.7 6.2,-2.5 0,0 0,0 0,-0.1 -5.5,-2.5 -10,-7.1 -13.5,-12.5 z" />
    <path
       inkscape:connector-curvature="0"
       style="fill:#f4c39f"
       id="XMLID_43_"
       d="m 384.3,347.80001 c -2.3,0.1 -4.7,-0.3 -6.9,-1 -6.9,-2.1 -12.6,-8.3 -13,-15.5 -0.3,-6.5 0.3,-12.4 3,-18.3 0.9,-1.9 2.2,-4 4.3,-4.4 2.4,-0.4 4.5,1.6 6.1,3.4 3.5,4 7.2,8.2 8.3,13.5 0.8,3.7 0.2,7.5 -0.5,11.2 -0.5,3.1 -0.7,8 -1.3,11.1 z" />
    <path
       inkscape:connector-curvature="0"
       style="fill:#f4c39f"
       id="XMLID_40_"
       d="m 362.9,310.10001 c -1,3 0.7,6.2 2.5,8.8 2.1,2.8 4.6,5.4 7.7,7 0.8,0.4 1.9,0.8 2.7,0.3 0.6,-0.3 1,-0.8 1.1,-1.4 0.6,-1.9 -0.7,-3.9 -2.1,-5.4 -1.3,-1.5 -2.9,-3.1 -3,-5.2 -0.1,-2.7 1.8,-6 -1.5,-7.7 -2.6,-1.4 -6.6,1 -7.4,3.6 z" />
    <path
       inkscape:connector-curvature="0"
       style="fill:#f4c39f"
       id="XMLID_41_"
       d="m 361.4,322.30001 c 1,2.5 2.9,4.6 5,6.3 1.1,0.9 2.3,1.8 3.7,2.2 1.4,0.4 3,0.2 4.1,-0.8 1.5,-1.5 1.2,-4.1 0,-5.9 -1.2,-1.8 -3.1,-2.9 -4.8,-4.2 -1.5,-1.2 -4.7,-6.5 -6.7,-6 -2.7,0.8 -2,6.7 -1.3,8.4 z" />
    <path
       inkscape:connector-curvature="0"
       style="fill:#f4c39f"
       id="XMLID_42_"
       d="m 361.4,329.60001 c 0.4,2.3 2,4.2 3.6,5.8 1.1,1.2 2.4,2.4 4,2.8 1.6,0.4 3.6,-0.1 4.3,-1.6 0.8,-1.7 -0.3,-3.6 -1.3,-5.1 -1.5,-2.2 -4,-6.9 -6.6,-8 -3.7,-1.3 -4.6,2.9 -4,6.1 z" />
    <path
       inkscape:connector-curvature="0"
       style="fill:#f4c39f"
       id="XMLID_38_"
       d="m 402.4,347.30001 c -4.2,-4.6 -6.7,-10.7 -6.8,-16.9 -0.1,-2.1 0.1,-4.2 -0.2,-6.2 -0.4,-3 -1.8,-5.8 -3.2,-8.4 -0.6,-1.2 -1.3,-2.5 -2.3,-3.4 -1,-0.9 -2.2,-1.4 -3.4,-1.9 -4.9,-2.1 -9.7,-4.2 -14.6,-6.2 -0.7,-0.3 -1.4,-0.6 -2.1,-0.4 -1.8,0.4 -1.6,3.1 -0.7,4.8 2.1,4 5.4,7.4 9.3,9.7 1,2.6 -0.7,5.9 0.1,8.6 0.8,2.6 3.6,4 4.7,6.5 -2.8,1 -3.4,4.3 -3.1,7.3 0.3,3 1.8,5.6 3.4,8.2 1.7,2.9 3.5,5.8 5.2,8.7 4.3,-3.8 8.9,-7.7 13.7,-10.4 z" />
    <path
       inkscape:connector-curvature="0"
       style="fill:#c44147"
       id="XMLID_35_"
       d="m 386.3,367.00001 c -2.1,-2.8 -3.7,-6 -4.7,-9.4 8.4,-4.7 16.3,-10.9 23.5,-17.2 3.4,4.2 6.7,8.2 9.8,12.6 z" />
    <path
       inkscape:connector-curvature="0"
       style="fill:#f8aa14"
       id="XMLID_10_"
       d="m 641.1,369.50001 c -2.2,-11.8 -4.3,-23.7 -5.4,-35.7 -1.3,-15.4 -1.5,-32.8 -12.9,-43.3 -5,-4.6 -11.7,-7.2 -18.2,-9.3 -11.3,-3.7 -23.7,-6.9 -35.4,-9 -11.1,10.1 -26.6,13.7 -38.6,22.6 -16.1,12.1 -23.6,32.1 -30.9,50.9 -7.3,18.8 -16.1,38.6 -33.5,48.8 -18.2,-16 -37.1,-31.2 -52.2,-50.3 -9.4,7.8 -20.9,15.6 -32.2,20.5 11,28.7 29.2,57.1 56.9,70.7 5,2.5 10.3,4.4 15.9,4.6 14.3,0.6 26.4,-10.1 35.6,-21.1 10.8,-12.8 20.1,-27 27.6,-42 -1.5,11.2 -3,22.3 -4.6,33.3 -1.9,13.3 5.1,26.4 17.3,32 21.8,10.1 51.8,7.8 74.3,6.5 17.4,-0.9 33.7,-6.3 48.6,-14.4 -2,-9.1 -3.9,-18.1 -5.5,-26.9 -2.1,-12.5 -4.4,-25.2 -6.8,-37.9 z" />
    <path
       inkscape:connector-curvature="0"
       style="fill:#001753"
       id="XMLID_9_"
       d="m 561.7,406.10001 c 6.3,-32 9.3,-64.5 9.4,-97.1 -2.2,-3.4 -4.4,-6.7 -6.8,-9.9 2.4,-3.5 5,-7 8.6,-9.2 1.2,-0.8 2.7,-1.5 4.1,-1.2 3.3,3.1 6.4,6.3 8.2,10.4 -2.7,3.7 -4.7,6.7 -7.1,10.6 2.9,30.3 7.3,59.8 12.4,89.9 z" />
    <path
       inkscape:connector-curvature="0"
       style="fill:#f8730a"
       id="XMLID_152_"
       d="m 572.6,295.40001 28,17.6 -2.4,-33.8 c -9.5,-2.8 -19.5,-5.3 -29,-7 -4.2,3.8 -9,6.7 -14,9.3 l -3.4,31.5 z" />
    <path
       inkscape:connector-curvature="0"
       style="fill:#f8730a"
       id="XMLID_37_"
       d="m 634.7,433.20001 c 3.4,-32.8 7,-68.4 -4.9,-99.2 -1.2,9.4 -2.9,18.7 -5,27.9 -0.7,2.9 -1.4,5.9 -3.1,8.3 -1.9,2.7 -4.9,4.5 -7.7,6.2 -7.8,4.6 -15.5,9.2 -23.3,13.7 -1,0.6 -1.9,1.2 -2.6,2 -1.4,1.7 -1.4,4.2 -0.8,6.4 1.8,6.2 7.6,10.3 13,13.8 8.5,5.6 25.8,15.2 34.4,20.9 z" />
    <path
       inkscape:connector-curvature="0"
       style="fill:#f4c39f"
       id="XMLID_26_"
       d="m 561.7,255.00001 c 2.8,8 3.4,16.7 1.5,25 2.5,4.3 8.4,14.9 9.5,15.4 5.1,-5.2 9.8,-10.6 13.7,-16.7 -0.1,-2.7 -0.6,-19.5 1.7,-24.3 z" />
    <path
       inkscape:connector-curvature="0"
       style="fill:#e0a286"
       id="XMLID_145_"
       d="m 561.7,255.00001 c 2,5.7 2.8,11.7 2.5,17.7 8.1,-2.1 15.8,-5.2 22.3,-10.3 0.3,-3.4 0.7,-6.4 1.5,-8.1 z" />
    <path
       inkscape:connector-curvature="0"
       style="fill:#9f2a32;stroke-width:0.99999797"
       d="m 551.90041,389.53395 80.1458,-7.54151 11.14832,118.4764 -80.1458,7.54151 z"
       id="XMLID_34_" />
    <path
       inkscape:connector-curvature="0"
       style="fill:#8d7494;stroke-width:0.99999171"
       d="m 543.89513,397.21237 79.534,-12.4292 18.3736,117.572 -79.534,12.42921 z"
       id="XMLID_31_" />
    <path
       inkscape:connector-curvature="0"
       style="fill:#ffffff;stroke-width:0.99999171"
       d="m 563.09069,410.42449 46.1396,-7.21048 3.56664,22.8228 -46.1396,7.21048 z"
       id="XMLID_32_" />
    <path
       inkscape:connector-curvature="0"
       style="fill:#f8730a"
       id="XMLID_222_"
       d="m 495.9,394.40001 c -4.9,8.2 -9.9,16.6 -16.8,23.2 -7,6.6 -16.2,11.3 -25.8,10.7 -16.3,-1.1 -27.5,-16.4 -36.2,-30.2 -8.2,-12.9 -16.3,-25.8 -24.5,-38.6 -3.5,2 -7.1,3.9 -10.6,5.4 11,28.7 29.2,57.1 56.9,70.7 5,2.5 10.3,4.4 15.9,4.6 14.3,0.6 26.4,-10.1 35.6,-21.1 10.8,-12.8 20.1,-27 27.6,-42 l 9.9,-36.4 c -10.7,18 -21.4,35.8 -32,53.7 z" />
    <path
       inkscape:connector-curvature="0"
       style="fill:#f8730a"
       id="XMLID_212_"
       d="m 490,394.20001 c 0.5,-0.5 1.1,-1 1.1,-1.7 0.2,-1.2 -1,-2.1 -2.2,-2.2 -1.2,-0.1 -2.3,0.5 -3.3,0.9 -6.3,2.8 -12.3,1.7 -18.6,3 5.9,6 17,5.2 23,0 z" />
    <path
       inkscape:connector-curvature="0"
       style="fill:#af694e"
       id="XMLID_224_"
       d="m 376.5,322.30001 c -1.1,1.4 -3.2,1.5 -4.8,0.8 -1.6,-0.7 -2.8,-2.1 -3.9,-3.5 -1.5,-1.8 -2.9,-3.5 -4.4,-5.3 1.7,1.3 3.6,2.4 5.3,3.9 1.6,1.4 3.5,3 5.7,2.9 1.5,-0.1 3,-1.1 3.6,-2.5 -0.1,1.4 -0.6,2.5 -1.5,3.7 z" />
    <path
       inkscape:connector-curvature="0"
       style="fill:#af694e"
       id="XMLID_248_"
       d="m 374.1,326.60001 c 0.5,1.1 0,2.5 -1,3.2 -1,0.7 -2.3,0.7 -3.5,0.4 -1.2,-0.3 -2.1,-1.1 -3.1,-1.9 -1.5,-1.3 -2.9,-2.7 -4,-4.3 1.7,1.1 3.2,2 4.8,3.3 0.7,0.6 1.4,1.2 2.3,1.5 1.8,0.4 4.6,-0.3 4.5,-2.2 z" />
    <path
       inkscape:connector-curvature="0"
       style="fill:#af694e"
       id="XMLID_258_"
       d="m 373,331.80001 c 0.5,1 0.9,2.1 0.9,3.2 0,1.1 -0.6,2.3 -1.6,2.8 -0.9,0.5 -2,0.4 -3,0 -1,-0.4 -1.8,-1 -2.6,-1.7 1.3,0.4 2.2,0.1 3.6,0.1 0.4,0 0.8,0 1.2,-0.1 0.7,-0.3 1.2,-1 1.4,-1.8 0.2,-0.8 0.2,-1.7 0.1,-2.5 z" />
    <path
       inkscape:connector-curvature="0"
       style="fill:#af694e"
       id="XMLID_160_"
       d="m 383.2,346.30001 c -2.3,-3.3 -2.8,-7.7 -1.5,-11.4 0.3,-0.8 0.7,-1.7 0.5,-2.5 -0.1,-0.7 -0.6,-1.3 -1.1,-2 -2,-2.7 -2.9,-6.1 -2.6,-9.4 0.1,-0.8 0.2,-1.7 0,-2.5 -0.5,-1.8 -2.4,-2.7 -3.9,-3.8 -2.9,-2 -5,-5.2 -5.6,-8.7 -1.4,3.8 0.2,7.9 3.3,10.3 1.7,1.4 4.1,2.3 4.8,4.4 0.4,1.2 0.2,2.5 0.2,3.7 0.1,3 1.8,5.6 2.2,8.6 0.2,1.8 -0.1,3.6 0,5.3 0.1,2.9 1.6,6 3.7,8 z" />
    <path
       inkscape:connector-curvature="0"
       style="fill:#f4c39f"
       id="XMLID_30_"
       d="m 589.1,444.50001 c -2.7,-0.5 -5.3,-1.8 -7.2,-3.8 -1,-1 -1.8,-2.2 -2.6,-3.3 -3,-4.3 -5.9,-8.5 -8.9,-12.8 -2.5,-3.5 -4.9,-7.1 -6.4,-11.2 -0.2,-0.6 -0.5,-1.2 -1,-1.5 -1,-0.5 -2,0.7 -2.4,1.7 -1.6,4.2 0.2,8.9 2,13 1.9,4.1 3.9,8.6 2.8,13 -5.3,3 -12.4,4.4 -18.2,2.5 -1.3,-0.4 -2.9,-0.9 -3.9,0 -0.4,0.4 -0.6,1 -0.7,1.5 -0.6,3.5 3,6.5 3.4,10 0.2,1.5 -0.2,3.1 0.1,4.6 0.5,3 3.3,5 4.3,7.9 0.7,2 0.5,4.3 1.5,6.2 1.4,2.7 4.6,3.7 7.6,4.3 11.1,2.2 22.7,2.1 33.8,-0.5 z" />
    <path
       inkscape:connector-curvature="0"
       style="fill:#c44147"
       id="XMLID_29_"
       d="m 600,438.50001 c -4.7,-0.2 -9.3,-0.3 -14,-0.5 0.4,14.3 0.3,29 -0.3,43.3 4.5,1 9.3,2.3 13.9,2.7 z" />
    <path
       inkscape:connector-curvature="0"
       style="fill:#f8aa14"
       id="XMLID_28_"
       d="m 617.3,286.50001 c 9.5,4.4 17.2,11.3 22.2,20.5 5,9.2 8,19.4 11.3,29.3 5,15 10.9,29.7 17.7,43.9 8,16.7 17.3,33.2 20.8,51.5 3.5,18.2 -0.2,39.2 -14.5,51 -10.6,8.8 -25.1,11.2 -38.9,10.8 -13.7,-0.4 -27.1,-3.3 -40.5,-6.1 0,0 0.9,-35.2 0.7,-51.1 12.9,1.5 26.1,0.2 38.7,-3.1 5.7,-48 -0.2,-101.6 -17.5,-146.7 z" />
    <path
       inkscape:connector-curvature="0"
       style="fill:#f8730a"
       id="XMLID_177_"
       d="m 634.7,433.20001 c 3,-1.7 4,-2.7 6.9,-4.4 1.3,-0.7 2.6,-1.5 4,-1.9 1.4,-0.4 2.9,-0.4 4.4,-0.7 4.7,-1 8.2,-5.3 9.6,-9.9 1.5,-4.6 1.3,-9.5 1,-14.3 -0.1,-1.2 -0.1,-2.4 -0.8,-3.3 -0.6,-1 -2.1,-1.5 -3,-0.8 -0.2,7.1 -0.6,15 -5.7,20.1 -2.5,2.6 -5.9,4.1 -9,5.9 -3.7,2.3 -4.5,5.9 -7.4,9.3 z" />
    <path
       inkscape:connector-curvature="0"
       style="fill:#c35348"
       id="XMLID_23_"
       d="m 528.9,214.20001 c -2.2,-6.2 -6.7,-11.2 -10.6,-16.4 C 514.4,192.6 510.8,186.4 511.3,179.9 c 0.2,-3.6 1.6,-7.5 -0.3,-10.6 -1.2,-1.9 -3.5,-3 -4.6,-5.1 -1.5,-2.8 0,-6.3 2.1,-8.6 2.1,-2.3 4.9,-4 6.9,-6.4 0.6,-0.8 1.2,-1.7 1,-2.7 -0.2,-1.1 -1.3,-1.7 -2.2,-2.4 -3.1,-2.6 -2.9,-8 0.2,-10.5 1.7,-1.3 4,-1.9 5.2,-3.6 1.4,-2 0.9,-4.9 -0.3,-7 -1.2,-2.2 -2.9,-4.1 -3.7,-6.4 -1.3,-3.7 0,-8 2.4,-11 2.5,-3.1 6,-5.1 9.5,-6.799998 10.1,-4.7 21.6,-6.6 32.7,-5.5 11.8,1.2 23.8,6.3 30.1,16.299998 2.6,4.1 4.1,8.8 7.1,12.5 4.7,5.8 12.3,8.3 19.1,11.2 6.8,2.9 14.1,7.3 16.1,14.5 1.4,5 0,10.5 1.2,15.6 0.6,2.5 1.8,4.8 2.4,7.4 1.1,4.7 -0.1,9.5 -1.7,14 -5.8,16.50001 -17.3,31.00001 -32,40.50001 z" />
    <path
       inkscape:connector-curvature="0"
       style="fill:#d18766"
       id="XMLID_12_"
       d="m 523.1,195.10001 c -1.9,-1.8 -4.1,-3.20001 -6.5,-4.00001 -1.1,-0.4 -2.4,-0.6 -3.5,-0.1 -0.8,0.4 -1.3,1.3 -1.6,2.10001 -1.2,3.6 0.4,7.6 2,11.2 4.3,9.4 9.9,18.8 18.5,24.3 0.2,0.1 0.4,0.2 0.6,0.1 0.2,-0.1 0,-0.5 -0.2,-0.4 z" />
    <path
       inkscape:connector-curvature="0"
       style="fill:#a5644a"
       id="XMLID_13_"
       d="m 517.5,197.80001 c -1.1,-0.8 -2.4,-1.5 -3.5,-1 2.7,1.4 5,3.7 6.5,6.5 0.2,0.3 0.3,0.6 0.3,0.9 0.1,0.4 0,0.8 -0.1,1.2 -0.5,3.4 1.9,6.7 4.3,9.3 1.2,1.3 2.4,2.5 3.6,3.7 -2.6,-2.4 -2.4,-9.7 -3.8,-12.9 -1.4,-3 -4.7,-5.8 -7.3,-7.7 z" />
    <path
       inkscape:connector-curvature="0"
       style="fill:#d18766"
       id="XMLID_80_"
       d="m 523.1,195.10001 c -1.9,-1.8 -4.1,-3.20001 -6.5,-4.00001 -1.1,-0.4 -2.4,-0.6 -3.5,-0.1 -0.8,0.4 -1.3,1.3 -1.6,2.10001 -1.2,3.6 0.4,7.6 2,11.2 4.3,9.4 9.9,18.8 18.5,24.3 0.2,0.1 0.4,0.2 0.6,0.1 0.2,-0.1 0,-0.5 -0.2,-0.4 z" />
    <path
       inkscape:connector-curvature="0"
       style="fill:#a5644a"
       id="XMLID_14_"
       d="m 517.5,197.80001 c -1.1,-0.8 -2.4,-1.5 -3.5,-1 2.7,1.4 5,3.7 6.5,6.5 0.2,0.3 0.3,0.6 0.3,0.9 0.1,0.4 0,0.8 -0.1,1.2 -0.5,3.4 1.9,6.7 4.3,9.3 1.2,1.3 2.4,2.5 3.6,3.7 -2.6,-2.4 -2.4,-9.7 -3.8,-12.9 -1.4,-3 -4.7,-5.8 -7.3,-7.7 z" />
    <path
       inkscape:connector-curvature="0"
       style="fill:#f4c39f"
       id="XMLID_17_"
       d="m 521.8,147.3 c -0.4,2.2 -0.8,4.4 -1.1,6.6 -3.4,20.1 2.2,78.40001 28.4,100.50001 15.2,12.7 37.2,9.5 52.6,-3 11.2,-9.1 12.9,-28 16,-42 3.1,-14 7.9,-23.10001 5.9,-37.40001 -0.9,-6.4 -2.1,-12.7 -4,-18.8 -27.4,-22.4 -70.5,-30.1 -97.8,-5.9 z" />
    <path
       inkscape:connector-curvature="0"
       style="fill:#8e0a4c"
       id="XMLID_45_"
       d="m 591.7,234.50001 c -0.3,-2.2 -0.8,-4.5 -1.7,-6.4 -0.8,-1.8 -2.1,-3.6 -4,-4 -1.2,-0.2 -2.3,0.2 -3.5,0.5 -9.9,3.1 -20.4,4.3 -30.7,3.3 -1.2,-0.1 -2.4,-0.2 -3.5,0.3 -2.1,1.1 -1.7,4.3 -1.5,6.7 0,0.2 0.1,0.4 0.1,0.7 5.7,5.5 13.6,8.7 21.5,8.8 8.8,0.1 17.4,-3.6 23.3,-9.9 z" />
    <path
       inkscape:connector-curvature="0"
       style="fill:#f8ffff"
       id="XMLID_83_"
       d="m 591.7,234.50001 c -5.9,6.3 -14.6,10 -23.2,10 -7.9,-0.1 -15.8,-3.3 -21.5,-8.8 0.7,5.4 5.4,9.7 10.7,11.5 5.4,1.8 11.3,1.3 17,0.7 2,-0.2 4,-0.5 5.8,-1.1 4.5,-1.5 8,-4.8 11.4,-8 0,-1.5 0,-2.9 -0.2,-4.3 z" />
    <g
       transform="translate(0,1.8011009e-6)"
       id="XMLID_158_">
      <g
         id="XMLID_161_">
        <path
           style="fill:#c35348"
           inkscape:connector-curvature="0"
           id="XMLID_163_"
           d="m 596.5,221.7 c -3.4,-3.5 -8.6,-4.5 -13.4,-4.1 -4.8,0.4 -9.5,1.8 -14.3,2.7 -7.5,1.3 -15.2,1.1 -22.8,0.8 -3,-0.1 -6.5,0 -8.2,2.5 -1.2,1.9 -0.9,4.3 -0.4,6.6 0.9,4.7 1.8,9.4 2.7,14.1 2.7,3.9 5.7,7.3 9.1,10.1 1.2,1 2.4,1.8 3.6,2.6 -3.1,-7.4 -4.4,-15.5 -3.8,-23.5 0.1,-0.8 0.2,-1.6 0.8,-2.1 0.6,-0.4 1.3,-0.3 2,-0.2 9.9,1.6 20.2,0.5 29.5,-3 0.6,-0.2 1.3,-0.5 1.9,-0.3 0.5,0.2 0.8,0.6 1.1,1 2.9,3.9 4,8.8 4.8,13.6 0.8,5.2 1.1,10.5 1,15.8 4.1,-1.8 8,-4.2 11.5,-7.1 0.9,-0.8 1.8,-1.6 2.6,-2.5 -0.4,-6.3 -1.5,-12.6 -3.4,-18.7 -0.8,-2.8 -2.1,-6 -4.3,-8.3 z" />
      </g>
    </g>
    <path
       inkscape:connector-curvature="0"
       style="fill:#c35348"
       id="XMLID_24_"
       d="m 617.8,211.10001 c 2.3,-9.8 6.9,-19.10001 13.3,-27.00001 2.5,-3.1 5.5,-6.6 4.9,-10.5 -0.4,-2.2 -1.9,-4.1 -2.9,-6.1 -3.2,-6.6 -0.8,-14.8 -3.5,-21.7 -2,-5.1 -6.5,-8.8 -11.5,-10.9 -4.7,-2.1 -10.5,-3.4 -15.6,-3.6 5.6,11.4 9.8,21.4 12,34.2 2.5,15.1 2.9,30.40001 3.3,45.60001 z" />
    <path
       inkscape:connector-curvature="0"
       style="fill:#262b55"
       id="XMLID_20_"
       d="m 548.7,195.60001 c -2.2,0 -3.9,-1.8 -3.9,-3.90001 0,-1.4 0.7,-2.6 1.8,-3.3 -0.6,-0.4 -1.2,-0.6 -1.8,-0.6 -2.6,0 -4.8,3.6 -4.8,8.10001 0,4.5 2.1,8.1 4.8,8.1 2.7,0 4.8,-3.6 4.8,-8.1 0,-0.1 0,-0.2 0,-0.3 -0.4,0 -0.6,0 -0.9,0 z" />
    <path
       inkscape:connector-curvature="0"
       style="fill:#262b55"
       id="XMLID_18_"
       d="m 583.5,193.60001 c -2.2,0 -3.9,-1.80001 -3.9,-3.90001 0,-1.4 0.7,-2.6 1.8,-3.3 -0.6,-0.4 -1.2,-0.6 -1.8,-0.6 -2.6,0 -4.8,3.6 -4.8,8.10001 0,4.5 2.1,8.1 4.8,8.1 2.7,0 4.8,-3.6 4.8,-8.1 0,-0.1 0,-0.2 0,-0.3 -0.3,0 -0.6,0 -0.9,0 z" />
    <path
       inkscape:connector-curvature="0"
       style="fill:#f27c70"
       id="XMLID_15_"
       d="m 557.3,195.70001 c 0.2,6.5 -0.5,13 -2.1,19.3 -0.5,1.9 -0.9,4.1 0.3,5.7 0.9,1.1 2.3,1.5 3.7,1.6 1.9,0.2 3.9,-0.1 5.8,-0.7 0.5,-0.2 1,-0.4 1.4,-0.8 0.4,-0.5 0.6,-1.1 0.7,-1.8 1.2,-7.7 0.6,-15.8 -1.8,-23.2 -0.8,-2.4 -2,-7.10001 -5,-7.80001 -3.9,-0.8 -3,5.30001 -3,7.70001 z" />
    <path
       inkscape:connector-curvature="0"
       style="fill:#c35348"
       id="XMLID_19_"
       d="m 547,162.5 c -5.4,-2.9 -12.3,-2.8 -17.6,0.3 -0.7,0.4 -1.5,0.9 -1.9,1.6 -0.6,1 -1.2,1.6 -1.1,2.7 0.2,1.1 0.9,2.2 2,2.5 1.3,0.3 2.6,-0.5 3.9,-1.1 2.6,-1.4 5.6,-2.1 8.6,-1.9 0.9,0 1.8,0.2 2.6,0.6 0.5,0.3 1,0.7 1.6,0.9 1.5,0.7 3.6,-0.2 4.1,-1.8 0.5,-1.6 -0.7,-3 -2.2,-3.8 z" />
    <path
       inkscape:connector-curvature="0"
       style="fill:#c35348"
       id="XMLID_21_"
       d="m 596.4,161.9 c -2.3,-2 -5.1,-3.4 -8.1,-4.1 -3.3,-0.8 -6.7,-0.6 -10.1,-0.4 -1.8,0.1 -3.6,0.2 -5.1,1.1 -1.6,0.8 -2.7,2.6 -2.3,4.3 0.2,0.8 0.7,1 1.5,1.1 0.8,0.2 1.6,-0.1 2.3,-0.3 5.5,-1.4 11.6,-0.6 16.5,2.3 1.4,0.8 3,1.8 4.6,1.4 0.9,-0.3 1.7,-1.1 1.9,-2 0.2,-0.9 -0.1,-2 -0.9,-2.6 0.1,-0.5 -0.4,-0.4 -0.3,-0.8 z" />
    <g
       transform="translate(0,1.8011009e-6)"
       id="XMLID_207_">
      <path
         style="fill:#f8ffff"
         inkscape:connector-curvature="0"
         id="XMLID_208_"
         d="m 542,210.8 c -8.6,0 -15.5,-7 -15.5,-15.5 0,-8.5 7,-15.5 15.5,-15.5 8.6,0 15.5,7 15.5,15.5 0,8.5 -6.9,15.5 -15.5,15.5 z m 0,-28.1 c -6.9,0 -12.5,5.6 -12.5,12.5 0,6.9 5.6,12.5 12.5,12.5 6.9,0 12.5,-5.6 12.5,-12.5 0,-6.9 -5.6,-12.5 -12.5,-12.5 z" />
    </g>
    <g
       transform="translate(0,1.8011009e-6)"
       id="XMLID_202_">
      <path
         style="fill:#f8ffff"
         inkscape:connector-curvature="0"
         id="XMLID_203_"
         d="m 582.2,210.8 c -9.4,0 -17,-7.6 -17,-17 0,-9.4 7.6,-17 17,-17 9.4,0 17,7.6 17,17 0,9.4 -7.7,17 -17,17 z m 0,-30.9 c -7.7,0 -14,6.3 -14,14 0,7.7 6.3,14 14,14 7.7,0 14,-6.3 14,-14 0,-7.7 -6.3,-14 -14,-14 z" />
    </g>
    <g
       transform="translate(0,1.8011009e-6)"
       id="XMLID_185_">
      <path
         style="fill:#f8ffff"
         inkscape:connector-curvature="0"
         d="m 559.79999,188 h 3 v 10.7 h -3 z"
         id="XMLID_186_"
         transform="matrix(0.08008162,0.9968,-0.9968,0.08008162,709.1851,-381.605)" />
    </g>
    <g
       transform="translate(0,1.8011009e-6)"
       id="XMLID_182_">
      <path
         style="fill:#f8ffff"
         inkscape:connector-curvature="0"
         d="m 611.79999,167.39999 h 3 v 34.4 h -3 z"
         id="XMLID_183_"
         transform="matrix(0.1947,0.9809,-0.9809,0.1947,674.9767,-452.9427)" />
    </g>
    <g
       transform="translate(0,1.8011009e-6)"
       id="XMLID_179_">
      <path
         style="fill:#f8ffff"
         inkscape:connector-curvature="0"
         d="m 517.5,191.89999 h 10.8 v 3 h -10.8 z"
         id="XMLID_180_"
         transform="matrix(0.9414,0.3374,-0.3374,0.9414,95.9308,-165.086)" />
    </g>
    <path
       inkscape:connector-curvature="0"
       style="fill:#f4c39f"
       id="XMLID_4_"
       d="m 612.6,223.60001 c -0.3,1.3 1.9,1.6 3.1,1.1 15.1,-5.8 24.7,-21.9 26,-38.00001 0.2,-2.6 0.2,-5.3 -0.7,-7.8 -0.9,-2.4 -3,-4.6 -5.6,-5 -2.2,-0.3 -4.4,0.6 -6.3,1.6 -7.5,4.1 -13.4,10.9 -16.6,18.80001 -3.6,8.9 2,19.9 0.1,29.3 z" />
    <path
       inkscape:connector-curvature="0"
       style="fill:#d18766"
       id="XMLID_11_"
       d="m 630.7,186.5 c 0.9,-0.4 1.9,-0.8 2.9,-0.6 1.2,0.3 2,1.4 2.3,2.6 0.3,1.2 0.1,2.4 0,3.7 -0.2,-0.9 -0.6,-1.9 -1.2,-2.6 -0.6,-0.7 -1.7,-1.1 -2.6,-0.9 -0.6,0.2 -1.1,0.6 -1.5,1 -1.4,1.4 -2.6,3 -3.5,4.70001 2,2.1 2.4,5.4 1.4,8.1 -1,2.7 -3.1,4.9 -5.6,6.3 -2.5,1.5 -5.2,2.4 -8,3.2 0,0 0.9,-6.7 1.1,-7.3 0.8,-2.7 2,-5.3 3.6,-7.6 2.8,-4 6.7,-8.40001 11.1,-10.60001 z" />
  </g>
</svg>
